<?xml version="1.0" encoding="utf-8" standalone="no"?>
<!DOCTYPE svg PUBLIC "-//W3C//DTD SVG 1.1//EN"
  "http://www.w3.org/Graphics/SVG/1.1/DTD/svg11.dtd">
<!-- Created with matplotlib (https://matplotlib.org/) -->
<svg height="345.6pt" version="1.1" viewBox="0 0 460.8 345.6" width="460.8pt" xmlns="http://www.w3.org/2000/svg" xmlns:xlink="http://www.w3.org/1999/xlink">
 <defs>
  <style type="text/css">
*{stroke-linecap:butt;stroke-linejoin:round;}
  </style>
 </defs>
 <g id="figure_1">
  <g id="patch_1">
   <path d="M 0 345.6 
L 460.8 345.6 
L 460.8 0 
L 0 0 
z
" style="fill:none;"/>
  </g>
  <g id="axes_1">
   <g id="patch_2">
    <path clip-path="url(#p921a9dfee3)" d="M 236.16 174.528 
L 236.16 174.528 
L 236.16 174.528 
L 236.16 174.528 
L 236.16 174.528 
L 236.16 174.528 
L 236.16 174.528 
L 236.16 174.528 
L 236.16 174.528 
L 236.16 174.528 
L 236.16 174.528 
L 236.16 174.528 
L 236.16 174.528 
L 236.16 174.528 
L 236.16 174.528 
L 236.16 174.528 
L 236.16 174.528 
L 236.16 174.528 
L 236.16 174.528 
L 236.16 174.528 
L 236.16 174.528 
L 236.16 174.528 
L 236.16 174.528 
L 236.16 174.528 
L 236.16 174.528 
L 236.16 174.528 
L 236.16 174.528 
L 236.16 174.528 
L 236.16 174.528 
L 236.16 174.528 
L 236.16 174.528 
L 236.16 174.528 
L 236.16 174.528 
L 236.16 174.528 
L 236.16 174.528 
L 236.16 174.528 
L 236.16 174.528 
L 236.16 174.528 
L 236.16 174.528 
L 236.16 174.528 
L 236.16 174.528 
L 236.16 174.528 
L 236.16 174.528 
L 236.16 174.528 
L 236.16 174.528 
L 236.16 174.528 
L 236.16 174.528 
L 236.16 174.528 
L 236.16 174.528 
L 236.16 174.528 
L 236.16 174.528 
L 236.16 174.528 
L 236.16 174.528 
L 236.16 174.528 
L 236.16 174.528 
L 236.16 174.528 
L 236.16 174.528 
L 236.16 174.528 
L 236.16 174.528 
L 236.16 174.528 
L 236.16 174.528 
L 236.16 174.528 
L 236.16 174.528 
L 236.16 174.528 
L 236.16 174.528 
L 236.16 174.528 
L 236.16 174.528 
L 236.16 174.528 
L 236.16 174.528 
L 236.16 174.528 
L 236.16 174.528 
L 236.16 174.528 
L 236.16 174.528 
L 236.16 174.528 
L 236.16 174.528 
L 236.16 174.528 
L 236.16 174.528 
L 236.16 174.528 
L 236.16 174.528 
L 236.16 174.528 
L 236.16 174.528 
L 236.16 174.528 
L 236.16 174.528 
L 236.16 174.528 
L 236.16 174.528 
L 236.16 174.528 
L 236.16 174.528 
L 236.16 174.528 
L 236.16 174.528 
L 236.16 174.528 
L 236.16 174.528 
L 236.16 174.528 
L 236.16 174.528 
L 236.16 174.528 
L 236.16 174.528 
L 236.16 174.528 
L 236.16 174.528 
L 236.16 174.528 
L 236.16 174.528 
L 236.16 174.528 
L 236.16 174.528 
L 235.295776 174.02904 
L 234.431552 173.53008 
L 233.567328 173.03112 
L 232.703104 172.53216 
L 231.83888 172.0332 
L 230.974656 171.53424 
L 230.110432 171.03528 
L 229.246207 170.53632 
L 228.381983 170.03736 
L 227.517759 169.5384 
L 226.653535 169.03944 
L 225.789311 168.54048 
L 224.925087 168.04152 
L 224.060863 167.54256 
L 223.196639 167.0436 
L 222.332415 166.54464 
L 221.468191 166.04568 
L 220.603967 165.54672 
L 219.739743 165.04776 
L 218.875519 164.5488 
L 218.011295 164.04984 
L 217.14707 163.55088 
L 216.282846 163.05192 
L 215.418622 162.55296 
L 214.554398 162.054 
L 213.690174 161.55504 
L 212.82595 161.05608 
L 211.961726 160.55712 
L 211.097502 160.05816 
L 210.233278 159.5592 
L 209.369054 159.06024 
L 208.50483 158.56128 
L 207.640606 158.06232 
L 206.776382 157.56336 
L 205.912158 157.0644 
L 205.047933 156.56544 
L 204.183709 156.06648 
L 203.319485 155.56752 
L 202.455261 155.06856 
L 201.591037 154.5696 
L 200.726813 154.07064 
L 199.862589 153.57168 
L 198.998365 153.07272 
L 198.134141 152.57376 
L 197.269917 152.0748 
L 196.405693 151.57584 
L 195.541469 151.07688 
L 194.677245 150.57792 
L 193.813021 150.07896 
L 192.948796 149.58 
L 192.084572 149.08104 
L 191.220348 148.58208 
L 190.356124 148.08312 
L 189.4919 147.58416 
L 188.627676 147.0852 
L 187.763452 146.58624 
L 186.899228 146.08728 
L 186.035004 145.58832 
L 185.17078 145.08936 
L 184.306556 144.5904 
L 183.442332 144.09144 
L 182.578108 143.59248 
L 181.713884 143.09352 
L 180.849659 142.59456 
L 179.985435 142.0956 
L 179.121211 141.59664 
L 178.256987 141.09768 
L 177.392763 140.59872 
L 176.528539 140.09976 
L 175.664315 139.6008 
L 174.800091 139.10184 
L 173.935867 138.60288 
L 173.071643 138.10392 
L 172.207419 137.60496 
L 171.343195 137.106 
L 170.478971 136.60704 
L 169.614747 136.10808 
L 168.750522 135.60912 
L 167.886298 135.11016 
L 167.022074 134.6112 
L 166.15785 134.11224 
L 165.293626 133.61328 
L 164.429402 133.11432 
L 163.565178 132.61536 
L 162.700954 132.1164 
L 161.83673 131.61744 
L 160.972506 131.11848 
L 160.108282 130.61952 
L 159.244058 130.12056 
L 158.379834 129.6216 
L 157.51561 129.12264 
L 156.651385 128.62368 
L 155.787161 128.12472 
L 154.922937 127.62576 
L 154.058713 127.1268 
L 153.194489 126.62784 
L 152.330265 126.12888 
L 151.466041 125.62992 
L 150.601817 125.13096 
L 149.737593 124.632 
L 150.80149 122.833049 
L 151.902828 121.056772 
L 153.041124 119.303951 
L 154.215878 117.575352 
L 155.426576 115.871734 
L 156.672686 114.193845 
L 157.953663 112.542421 
L 159.268942 110.918185 
L 160.617949 109.321851 
L 162.000092 107.754119 
L 163.414763 106.215675 
L 164.861342 104.707196 
L 166.339196 103.229342 
L 167.847675 101.782763 
L 169.386119 100.368092 
L 170.953851 98.985949 
L 172.550185 97.636942 
L 174.174421 96.321663 
L 175.825845 95.040686 
L 177.503734 93.794576 
L 179.207352 92.583878 
L 180.935951 91.409124 
L 182.688772 90.270828 
L 184.465049 89.16949 
L 186.264 88.105593 
L 188.084837 87.079604 
L 189.926762 86.091972 
L 191.788966 85.143132 
L 193.670633 84.233499 
L 195.570937 83.363472 
L 197.489045 82.533432 
L 199.424115 81.743745 
L 201.375298 80.994756 
L 203.34174 80.286793 
L 205.322576 79.620168 
L 207.316939 78.995173 
L 209.323953 78.412081 
L 211.342739 77.871149 
L 213.37241 77.372614 
L 215.412077 76.916695 
L 217.460844 76.503591 
L 219.517813 76.133483 
L 221.582082 75.806535 
L 223.652746 75.52289 
L 225.728896 75.282671 
L 227.809621 75.085985 
L 229.894008 74.932917 
L 231.981145 74.823535 
L 234.070114 74.757886 
L 236.16 74.736 
L 238.249886 74.757886 
L 240.338855 74.823535 
L 242.425992 74.932917 
L 244.510379 75.085985 
L 246.591104 75.282671 
L 248.667254 75.52289 
L 250.737918 75.806535 
L 252.802187 76.133483 
L 254.859156 76.503591 
L 256.907923 76.916695 
L 258.94759 77.372614 
L 260.977261 77.871149 
L 262.996047 78.412081 
L 265.003061 78.995173 
L 266.997424 79.620168 
L 268.97826 80.286793 
L 270.944702 80.994756 
L 272.895885 81.743745 
L 274.830955 82.533432 
L 276.749063 83.363472 
L 278.649367 84.233499 
L 280.531034 85.143132 
L 282.393238 86.091972 
L 284.235163 87.079604 
L 286.056 88.105593 
L 287.854951 89.16949 
L 289.631228 90.270828 
L 291.384049 91.409124 
L 293.112648 92.583878 
L 294.816266 93.794576 
L 296.494155 95.040686 
L 298.145579 96.321663 
L 299.769815 97.636942 
L 301.366149 98.985949 
L 302.933881 100.368092 
L 304.472325 101.782763 
L 305.980804 103.229342 
L 307.458658 104.707196 
L 308.905237 106.215675 
L 310.319908 107.754119 
L 311.702051 109.321851 
L 313.051058 110.918185 
L 314.366337 112.542421 
L 315.647314 114.193845 
L 316.893424 115.871734 
L 318.104122 117.575352 
L 319.278876 119.303951 
L 320.417172 121.056772 
L 321.51851 122.833049 
L 322.582407 124.632 
L 321.718183 125.13096 
L 320.853959 125.62992 
L 319.989735 126.12888 
L 319.125511 126.62784 
L 318.261287 127.1268 
L 317.397063 127.62576 
L 316.532839 128.12472 
L 315.668615 128.62368 
L 314.80439 129.12264 
L 313.940166 129.6216 
L 313.075942 130.12056 
L 312.211718 130.61952 
L 311.347494 131.11848 
L 310.48327 131.61744 
L 309.619046 132.1164 
L 308.754822 132.61536 
L 307.890598 133.11432 
L 307.026374 133.61328 
L 306.16215 134.11224 
L 305.297926 134.6112 
L 304.433702 135.11016 
L 303.569478 135.60912 
L 302.705253 136.10808 
L 301.841029 136.60704 
L 300.976805 137.106 
L 300.112581 137.60496 
L 299.248357 138.10392 
L 298.384133 138.60288 
L 297.519909 139.10184 
L 296.655685 139.6008 
L 295.791461 140.09976 
L 294.927237 140.59872 
L 294.063013 141.09768 
L 293.198789 141.59664 
L 292.334565 142.0956 
L 291.470341 142.59456 
L 290.606116 143.09352 
L 289.741892 143.59248 
L 288.877668 144.09144 
L 288.013444 144.5904 
L 287.14922 145.08936 
L 286.284996 145.58832 
L 285.420772 146.08728 
L 284.556548 146.58624 
L 283.692324 147.0852 
L 282.8281 147.58416 
L 281.963876 148.08312 
L 281.099652 148.58208 
L 280.235428 149.08104 
L 279.371204 149.58 
L 278.506979 150.07896 
L 277.642755 150.57792 
L 276.778531 151.07688 
L 275.914307 151.57584 
L 275.050083 152.0748 
L 274.185859 152.57376 
L 273.321635 153.07272 
L 272.457411 153.57168 
L 271.593187 154.07064 
L 270.728963 154.5696 
L 269.864739 155.06856 
L 269.000515 155.56752 
L 268.136291 156.06648 
L 267.272067 156.56544 
L 266.407842 157.0644 
L 265.543618 157.56336 
L 264.679394 158.06232 
L 263.81517 158.56128 
L 262.950946 159.06024 
L 262.086722 159.5592 
L 261.222498 160.05816 
L 260.358274 160.55712 
L 259.49405 161.05608 
L 258.629826 161.55504 
L 257.765602 162.054 
L 256.901378 162.55296 
L 256.037154 163.05192 
L 255.17293 163.55088 
L 254.308705 164.04984 
L 253.444481 164.5488 
L 252.580257 165.04776 
L 251.716033 165.54672 
L 250.851809 166.04568 
L 249.987585 166.54464 
L 249.123361 167.0436 
L 248.259137 167.54256 
L 247.394913 168.04152 
L 246.530689 168.54048 
L 245.666465 169.03944 
L 244.802241 169.5384 
L 243.938017 170.03736 
L 243.073793 170.53632 
L 242.209568 171.03528 
L 241.345344 171.53424 
L 240.48112 172.0332 
L 239.616896 172.53216 
L 238.752672 173.03112 
L 237.888448 173.53008 
L 237.024224 174.02904 
z
" style="fill:#fabe28;"/>
   </g>
   <g id="patch_3">
    <path clip-path="url(#p921a9dfee3)" d="M 322.582407 124.632 
L 321.51851 122.833049 
L 320.417172 121.056772 
L 319.278876 119.303951 
L 318.104122 117.575352 
L 316.893424 115.871734 
L 315.647314 114.193845 
L 314.366337 112.542421 
L 313.051058 110.918185 
L 311.702051 109.321851 
L 310.319908 107.754119 
L 308.905237 106.215675 
L 307.458658 104.707196 
L 305.980804 103.229342 
L 304.472325 101.782763 
L 302.933881 100.368092 
L 301.366149 98.985949 
L 299.769815 97.636942 
L 298.145579 96.321663 
L 296.494155 95.040686 
L 294.816266 93.794576 
L 293.112648 92.583878 
L 291.384049 91.409124 
L 289.631228 90.270828 
L 287.854951 89.16949 
L 286.056 88.105593 
L 284.235163 87.079604 
L 282.393238 86.091972 
L 280.531034 85.143132 
L 278.649367 84.233499 
L 276.749063 83.363472 
L 274.830955 82.533432 
L 272.895885 81.743745 
L 270.944702 80.994756 
L 268.97826 80.286793 
L 266.997424 79.620168 
L 265.003061 78.995173 
L 262.996047 78.412081 
L 260.977261 77.871149 
L 258.94759 77.372614 
L 256.907923 76.916695 
L 254.859156 76.503591 
L 252.802187 76.133483 
L 250.737918 75.806535 
L 248.667254 75.52289 
L 246.591104 75.282671 
L 244.510379 75.085985 
L 242.425992 74.932917 
L 240.338855 74.823535 
L 238.249886 74.757886 
L 236.16 74.736 
L 234.070114 74.757886 
L 231.981145 74.823535 
L 229.894008 74.932917 
L 227.809621 75.085985 
L 225.728896 75.282671 
L 223.652746 75.52289 
L 221.582082 75.806535 
L 219.517813 76.133483 
L 217.460844 76.503591 
L 215.412077 76.916695 
L 213.37241 77.372614 
L 211.342739 77.871149 
L 209.323953 78.412081 
L 207.316939 78.995173 
L 205.322576 79.620168 
L 203.34174 80.286793 
L 201.375298 80.994756 
L 199.424115 81.743745 
L 197.489045 82.533432 
L 195.570937 83.363472 
L 193.670633 84.233499 
L 191.788966 85.143132 
L 189.926762 86.091972 
L 188.084837 87.079604 
L 186.264 88.105593 
L 184.465049 89.16949 
L 182.688772 90.270828 
L 180.935951 91.409124 
L 179.207352 92.583878 
L 177.503734 93.794576 
L 175.825845 95.040686 
L 174.174421 96.321663 
L 172.550185 97.636942 
L 170.953851 98.985949 
L 169.386119 100.368092 
L 167.847675 101.782763 
L 166.339196 103.229342 
L 164.861342 104.707196 
L 163.414763 106.215675 
L 162.000092 107.754119 
L 160.617949 109.321851 
L 159.268942 110.918185 
L 157.953663 112.542421 
L 156.672686 114.193845 
L 155.426576 115.871734 
L 154.215878 117.575352 
L 153.041124 119.303951 
L 151.902828 121.056772 
L 150.80149 122.833049 
L 149.737593 124.632 
L 149.737593 124.632 
L 149.737593 124.632 
L 149.737593 124.632 
L 149.737593 124.632 
L 149.737593 124.632 
L 149.737593 124.632 
L 149.737593 124.632 
L 149.737593 124.632 
L 149.737593 124.632 
L 149.737593 124.632 
L 149.737593 124.632 
L 149.737593 124.632 
L 149.737593 124.632 
L 149.737593 124.632 
L 149.737593 124.632 
L 149.737593 124.632 
L 149.737593 124.632 
L 149.737593 124.632 
L 149.737593 124.632 
L 149.737593 124.632 
L 149.737593 124.632 
L 149.737593 124.632 
L 149.737593 124.632 
L 149.737593 124.632 
L 149.737593 124.632 
L 149.737593 124.632 
L 149.737593 124.632 
L 149.737593 124.632 
L 149.737593 124.632 
L 149.737593 124.632 
L 149.737593 124.632 
L 149.737593 124.632 
L 149.737593 124.632 
L 149.737593 124.632 
L 149.737593 124.632 
L 149.737593 124.632 
L 149.737593 124.632 
L 149.737593 124.632 
L 149.737593 124.632 
L 149.737593 124.632 
L 149.737593 124.632 
L 149.737593 124.632 
L 149.737593 124.632 
L 149.737593 124.632 
L 149.737593 124.632 
L 149.737593 124.632 
L 149.737593 124.632 
L 149.737593 124.632 
L 149.737593 124.632 
L 149.737593 124.632 
L 149.737593 124.632 
L 149.737593 124.632 
L 149.737593 124.632 
L 149.737593 124.632 
L 149.737593 124.632 
L 149.737593 124.632 
L 149.737593 124.632 
L 149.737593 124.632 
L 149.737593 124.632 
L 149.737593 124.632 
L 149.737593 124.632 
L 149.737593 124.632 
L 149.737593 124.632 
L 149.737593 124.632 
L 149.737593 124.632 
L 149.737593 124.632 
L 149.737593 124.632 
L 149.737593 124.632 
L 149.737593 124.632 
L 149.737593 124.632 
L 149.737593 124.632 
L 149.737593 124.632 
L 149.737593 124.632 
L 149.737593 124.632 
L 149.737593 124.632 
L 149.737593 124.632 
L 149.737593 124.632 
L 149.737593 124.632 
L 149.737593 124.632 
L 149.737593 124.632 
L 149.737593 124.632 
L 149.737593 124.632 
L 149.737593 124.632 
L 149.737593 124.632 
L 149.737593 124.632 
L 149.737593 124.632 
L 149.737593 124.632 
L 149.737593 124.632 
L 149.737593 124.632 
L 149.737593 124.632 
L 149.737593 124.632 
L 149.737593 124.632 
L 149.737593 124.632 
L 149.737593 124.632 
L 149.737593 124.632 
L 149.737593 124.632 
L 149.737593 124.632 
L 149.737593 124.632 
L 149.737593 124.632 
L 149.737593 124.632 
L 150.80149 122.833049 
L 151.902828 121.056772 
L 153.041124 119.303951 
L 154.215878 117.575352 
L 155.426576 115.871734 
L 156.672686 114.193845 
L 157.953663 112.542421 
L 159.268942 110.918185 
L 160.617949 109.321851 
L 162.000092 107.754119 
L 163.414763 106.215675 
L 164.861342 104.707196 
L 166.339196 103.229342 
L 167.847675 101.782763 
L 169.386119 100.368092 
L 170.953851 98.985949 
L 172.550185 97.636942 
L 174.174421 96.321663 
L 175.825845 95.040686 
L 177.503734 93.794576 
L 179.207352 92.583878 
L 180.935951 91.409124 
L 182.688772 90.270828 
L 184.465049 89.16949 
L 186.264 88.105593 
L 188.084837 87.079604 
L 189.926762 86.091972 
L 191.788966 85.143132 
L 193.670633 84.233499 
L 195.570937 83.363472 
L 197.489045 82.533432 
L 199.424115 81.743745 
L 201.375298 80.994756 
L 203.34174 80.286793 
L 205.322576 79.620168 
L 207.316939 78.995173 
L 209.323953 78.412081 
L 211.342739 77.871149 
L 213.37241 77.372614 
L 215.412077 76.916695 
L 217.460844 76.503591 
L 219.517813 76.133483 
L 221.582082 75.806535 
L 223.652746 75.52289 
L 225.728896 75.282671 
L 227.809621 75.085985 
L 229.894008 74.932917 
L 231.981145 74.823535 
L 234.070114 74.757886 
L 236.16 74.736 
L 238.249886 74.757886 
L 240.338855 74.823535 
L 242.425992 74.932917 
L 244.510379 75.085985 
L 246.591104 75.282671 
L 248.667254 75.52289 
L 250.737918 75.806535 
L 252.802187 76.133483 
L 254.859156 76.503591 
L 256.907923 76.916695 
L 258.94759 77.372614 
L 260.977261 77.871149 
L 262.996047 78.412081 
L 265.003061 78.995173 
L 266.997424 79.620168 
L 268.97826 80.286793 
L 270.944702 80.994756 
L 272.895885 81.743745 
L 274.830955 82.533432 
L 276.749063 83.363472 
L 278.649367 84.233499 
L 280.531034 85.143132 
L 282.393238 86.091972 
L 284.235163 87.079604 
L 286.056 88.105593 
L 287.854951 89.16949 
L 289.631228 90.270828 
L 291.384049 91.409124 
L 293.112648 92.583878 
L 294.816266 93.794576 
L 296.494155 95.040686 
L 298.145579 96.321663 
L 299.769815 97.636942 
L 301.366149 98.985949 
L 302.933881 100.368092 
L 304.472325 101.782763 
L 305.980804 103.229342 
L 307.458658 104.707196 
L 308.905237 106.215675 
L 310.319908 107.754119 
L 311.702051 109.321851 
L 313.051058 110.918185 
L 314.366337 112.542421 
L 315.647314 114.193845 
L 316.893424 115.871734 
L 318.104122 117.575352 
L 319.278876 119.303951 
L 320.417172 121.056772 
L 321.51851 122.833049 
L 322.582407 124.632 
L 322.582407 124.632 
L 322.582407 124.632 
L 322.582407 124.632 
L 322.582407 124.632 
L 322.582407 124.632 
L 322.582407 124.632 
L 322.582407 124.632 
L 322.582407 124.632 
L 322.582407 124.632 
L 322.582407 124.632 
L 322.582407 124.632 
L 322.582407 124.632 
L 322.582407 124.632 
L 322.582407 124.632 
L 322.582407 124.632 
L 322.582407 124.632 
L 322.582407 124.632 
L 322.582407 124.632 
L 322.582407 124.632 
L 322.582407 124.632 
L 322.582407 124.632 
L 322.582407 124.632 
L 322.582407 124.632 
L 322.582407 124.632 
L 322.582407 124.632 
L 322.582407 124.632 
L 322.582407 124.632 
L 322.582407 124.632 
L 322.582407 124.632 
L 322.582407 124.632 
L 322.582407 124.632 
L 322.582407 124.632 
L 322.582407 124.632 
L 322.582407 124.632 
L 322.582407 124.632 
L 322.582407 124.632 
L 322.582407 124.632 
L 322.582407 124.632 
L 322.582407 124.632 
L 322.582407 124.632 
L 322.582407 124.632 
L 322.582407 124.632 
L 322.582407 124.632 
L 322.582407 124.632 
L 322.582407 124.632 
L 322.582407 124.632 
L 322.582407 124.632 
L 322.582407 124.632 
L 322.582407 124.632 
L 322.582407 124.632 
L 322.582407 124.632 
L 322.582407 124.632 
L 322.582407 124.632 
L 322.582407 124.632 
L 322.582407 124.632 
L 322.582407 124.632 
L 322.582407 124.632 
L 322.582407 124.632 
L 322.582407 124.632 
L 322.582407 124.632 
L 322.582407 124.632 
L 322.582407 124.632 
L 322.582407 124.632 
L 322.582407 124.632 
L 322.582407 124.632 
L 322.582407 124.632 
L 322.582407 124.632 
L 322.582407 124.632 
L 322.582407 124.632 
L 322.582407 124.632 
L 322.582407 124.632 
L 322.582407 124.632 
L 322.582407 124.632 
L 322.582407 124.632 
L 322.582407 124.632 
L 322.582407 124.632 
L 322.582407 124.632 
L 322.582407 124.632 
L 322.582407 124.632 
L 322.582407 124.632 
L 322.582407 124.632 
L 322.582407 124.632 
L 322.582407 124.632 
L 322.582407 124.632 
L 322.582407 124.632 
L 322.582407 124.632 
L 322.582407 124.632 
L 322.582407 124.632 
L 322.582407 124.632 
L 322.582407 124.632 
L 322.582407 124.632 
L 322.582407 124.632 
L 322.582407 124.632 
L 322.582407 124.632 
L 322.582407 124.632 
L 322.582407 124.632 
L 322.582407 124.632 
L 322.582407 124.632 
L 322.582407 124.632 
z
" style="fill:#ff003c;"/>
   </g>
   <g id="patch_4">
    <path clip-path="url(#p921a9dfee3)" d="M 322.582407 124.632 
L 321.51851 122.833049 
L 320.417172 121.056772 
L 319.278876 119.303951 
L 318.104122 117.575352 
L 316.893424 115.871734 
L 315.647314 114.193845 
L 314.366337 112.542421 
L 313.051058 110.918185 
L 311.702051 109.321851 
L 310.319908 107.754119 
L 308.905237 106.215675 
L 307.458658 104.707196 
L 305.980804 103.229342 
L 304.472325 101.782763 
L 302.933881 100.368092 
L 301.366149 98.985949 
L 299.769815 97.636942 
L 298.145579 96.321663 
L 296.494155 95.040686 
L 294.816266 93.794576 
L 293.112648 92.583878 
L 291.384049 91.409124 
L 289.631228 90.270828 
L 287.854951 89.16949 
L 286.056 88.105593 
L 284.235163 87.079604 
L 282.393238 86.091972 
L 280.531034 85.143132 
L 278.649367 84.233499 
L 276.749063 83.363472 
L 274.830955 82.533432 
L 272.895885 81.743745 
L 270.944702 80.994756 
L 268.97826 80.286793 
L 266.997424 79.620168 
L 265.003061 78.995173 
L 262.996047 78.412081 
L 260.977261 77.871149 
L 258.94759 77.372614 
L 256.907923 76.916695 
L 254.859156 76.503591 
L 252.802187 76.133483 
L 250.737918 75.806535 
L 248.667254 75.52289 
L 246.591104 75.282671 
L 244.510379 75.085985 
L 242.425992 74.932917 
L 240.338855 74.823535 
L 238.249886 74.757886 
L 236.16 74.736 
L 234.070114 74.757886 
L 231.981145 74.823535 
L 229.894008 74.932917 
L 227.809621 75.085985 
L 225.728896 75.282671 
L 223.652746 75.52289 
L 221.582082 75.806535 
L 219.517813 76.133483 
L 217.460844 76.503591 
L 215.412077 76.916695 
L 213.37241 77.372614 
L 211.342739 77.871149 
L 209.323953 78.412081 
L 207.316939 78.995173 
L 205.322576 79.620168 
L 203.34174 80.286793 
L 201.375298 80.994756 
L 199.424115 81.743745 
L 197.489045 82.533432 
L 195.570937 83.363472 
L 193.670633 84.233499 
L 191.788966 85.143132 
L 189.926762 86.091972 
L 188.084837 87.079604 
L 186.264 88.105593 
L 184.465049 89.16949 
L 182.688772 90.270828 
L 180.935951 91.409124 
L 179.207352 92.583878 
L 177.503734 93.794576 
L 175.825845 95.040686 
L 174.174421 96.321663 
L 172.550185 97.636942 
L 170.953851 98.985949 
L 169.386119 100.368092 
L 167.847675 101.782763 
L 166.339196 103.229342 
L 164.861342 104.707196 
L 163.414763 106.215675 
L 162.000092 107.754119 
L 160.617949 109.321851 
L 159.268942 110.918185 
L 157.953663 112.542421 
L 156.672686 114.193845 
L 155.426576 115.871734 
L 154.215878 117.575352 
L 153.041124 119.303951 
L 151.902828 121.056772 
L 150.80149 122.833049 
L 149.737593 124.632 
L 149.737593 124.632 
L 149.737593 124.632 
L 149.737593 124.632 
L 149.737593 124.632 
L 149.737593 124.632 
L 149.737593 124.632 
L 149.737593 124.632 
L 149.737593 124.632 
L 149.737593 124.632 
L 149.737593 124.632 
L 149.737593 124.632 
L 149.737593 124.632 
L 149.737593 124.632 
L 149.737593 124.632 
L 149.737593 124.632 
L 149.737593 124.632 
L 149.737593 124.632 
L 149.737593 124.632 
L 149.737593 124.632 
L 149.737593 124.632 
L 149.737593 124.632 
L 149.737593 124.632 
L 149.737593 124.632 
L 149.737593 124.632 
L 149.737593 124.632 
L 149.737593 124.632 
L 149.737593 124.632 
L 149.737593 124.632 
L 149.737593 124.632 
L 149.737593 124.632 
L 149.737593 124.632 
L 149.737593 124.632 
L 149.737593 124.632 
L 149.737593 124.632 
L 149.737593 124.632 
L 149.737593 124.632 
L 149.737593 124.632 
L 149.737593 124.632 
L 149.737593 124.632 
L 149.737593 124.632 
L 149.737593 124.632 
L 149.737593 124.632 
L 149.737593 124.632 
L 149.737593 124.632 
L 149.737593 124.632 
L 149.737593 124.632 
L 149.737593 124.632 
L 149.737593 124.632 
L 149.737593 124.632 
L 149.737593 124.632 
L 149.737593 124.632 
L 149.737593 124.632 
L 149.737593 124.632 
L 149.737593 124.632 
L 149.737593 124.632 
L 149.737593 124.632 
L 149.737593 124.632 
L 149.737593 124.632 
L 149.737593 124.632 
L 149.737593 124.632 
L 149.737593 124.632 
L 149.737593 124.632 
L 149.737593 124.632 
L 149.737593 124.632 
L 149.737593 124.632 
L 149.737593 124.632 
L 149.737593 124.632 
L 149.737593 124.632 
L 149.737593 124.632 
L 149.737593 124.632 
L 149.737593 124.632 
L 149.737593 124.632 
L 149.737593 124.632 
L 149.737593 124.632 
L 149.737593 124.632 
L 149.737593 124.632 
L 149.737593 124.632 
L 149.737593 124.632 
L 149.737593 124.632 
L 149.737593 124.632 
L 149.737593 124.632 
L 149.737593 124.632 
L 149.737593 124.632 
L 149.737593 124.632 
L 149.737593 124.632 
L 149.737593 124.632 
L 149.737593 124.632 
L 149.737593 124.632 
L 149.737593 124.632 
L 149.737593 124.632 
L 149.737593 124.632 
L 149.737593 124.632 
L 149.737593 124.632 
L 149.737593 124.632 
L 149.737593 124.632 
L 149.737593 124.632 
L 149.737593 124.632 
L 149.737593 124.632 
L 149.737593 124.632 
L 149.737593 124.632 
L 150.80149 122.833049 
L 151.902828 121.056772 
L 153.041124 119.303951 
L 154.215878 117.575352 
L 155.426576 115.871734 
L 156.672686 114.193845 
L 157.953663 112.542421 
L 159.268942 110.918185 
L 160.617949 109.321851 
L 162.000092 107.754119 
L 163.414763 106.215675 
L 164.861342 104.707196 
L 166.339196 103.229342 
L 167.847675 101.782763 
L 169.386119 100.368092 
L 170.953851 98.985949 
L 172.550185 97.636942 
L 174.174421 96.321663 
L 175.825845 95.040686 
L 177.503734 93.794576 
L 179.207352 92.583878 
L 180.935951 91.409124 
L 182.688772 90.270828 
L 184.465049 89.16949 
L 186.264 88.105593 
L 188.084837 87.079604 
L 189.926762 86.091972 
L 191.788966 85.143132 
L 193.670633 84.233499 
L 195.570937 83.363472 
L 197.489045 82.533432 
L 199.424115 81.743745 
L 201.375298 80.994756 
L 203.34174 80.286793 
L 205.322576 79.620168 
L 207.316939 78.995173 
L 209.323953 78.412081 
L 211.342739 77.871149 
L 213.37241 77.372614 
L 215.412077 76.916695 
L 217.460844 76.503591 
L 219.517813 76.133483 
L 221.582082 75.806535 
L 223.652746 75.52289 
L 225.728896 75.282671 
L 227.809621 75.085985 
L 229.894008 74.932917 
L 231.981145 74.823535 
L 234.070114 74.757886 
L 236.16 74.736 
L 238.249886 74.757886 
L 240.338855 74.823535 
L 242.425992 74.932917 
L 244.510379 75.085985 
L 246.591104 75.282671 
L 248.667254 75.52289 
L 250.737918 75.806535 
L 252.802187 76.133483 
L 254.859156 76.503591 
L 256.907923 76.916695 
L 258.94759 77.372614 
L 260.977261 77.871149 
L 262.996047 78.412081 
L 265.003061 78.995173 
L 266.997424 79.620168 
L 268.97826 80.286793 
L 270.944702 80.994756 
L 272.895885 81.743745 
L 274.830955 82.533432 
L 276.749063 83.363472 
L 278.649367 84.233499 
L 280.531034 85.143132 
L 282.393238 86.091972 
L 284.235163 87.079604 
L 286.056 88.105593 
L 287.854951 89.16949 
L 289.631228 90.270828 
L 291.384049 91.409124 
L 293.112648 92.583878 
L 294.816266 93.794576 
L 296.494155 95.040686 
L 298.145579 96.321663 
L 299.769815 97.636942 
L 301.366149 98.985949 
L 302.933881 100.368092 
L 304.472325 101.782763 
L 305.980804 103.229342 
L 307.458658 104.707196 
L 308.905237 106.215675 
L 310.319908 107.754119 
L 311.702051 109.321851 
L 313.051058 110.918185 
L 314.366337 112.542421 
L 315.647314 114.193845 
L 316.893424 115.871734 
L 318.104122 117.575352 
L 319.278876 119.303951 
L 320.417172 121.056772 
L 321.51851 122.833049 
L 322.582407 124.632 
L 322.582407 124.632 
L 322.582407 124.632 
L 322.582407 124.632 
L 322.582407 124.632 
L 322.582407 124.632 
L 322.582407 124.632 
L 322.582407 124.632 
L 322.582407 124.632 
L 322.582407 124.632 
L 322.582407 124.632 
L 322.582407 124.632 
L 322.582407 124.632 
L 322.582407 124.632 
L 322.582407 124.632 
L 322.582407 124.632 
L 322.582407 124.632 
L 322.582407 124.632 
L 322.582407 124.632 
L 322.582407 124.632 
L 322.582407 124.632 
L 322.582407 124.632 
L 322.582407 124.632 
L 322.582407 124.632 
L 322.582407 124.632 
L 322.582407 124.632 
L 322.582407 124.632 
L 322.582407 124.632 
L 322.582407 124.632 
L 322.582407 124.632 
L 322.582407 124.632 
L 322.582407 124.632 
L 322.582407 124.632 
L 322.582407 124.632 
L 322.582407 124.632 
L 322.582407 124.632 
L 322.582407 124.632 
L 322.582407 124.632 
L 322.582407 124.632 
L 322.582407 124.632 
L 322.582407 124.632 
L 322.582407 124.632 
L 322.582407 124.632 
L 322.582407 124.632 
L 322.582407 124.632 
L 322.582407 124.632 
L 322.582407 124.632 
L 322.582407 124.632 
L 322.582407 124.632 
L 322.582407 124.632 
L 322.582407 124.632 
L 322.582407 124.632 
L 322.582407 124.632 
L 322.582407 124.632 
L 322.582407 124.632 
L 322.582407 124.632 
L 322.582407 124.632 
L 322.582407 124.632 
L 322.582407 124.632 
L 322.582407 124.632 
L 322.582407 124.632 
L 322.582407 124.632 
L 322.582407 124.632 
L 322.582407 124.632 
L 322.582407 124.632 
L 322.582407 124.632 
L 322.582407 124.632 
L 322.582407 124.632 
L 322.582407 124.632 
L 322.582407 124.632 
L 322.582407 124.632 
L 322.582407 124.632 
L 322.582407 124.632 
L 322.582407 124.632 
L 322.582407 124.632 
L 322.582407 124.632 
L 322.582407 124.632 
L 322.582407 124.632 
L 322.582407 124.632 
L 322.582407 124.632 
L 322.582407 124.632 
L 322.582407 124.632 
L 322.582407 124.632 
L 322.582407 124.632 
L 322.582407 124.632 
L 322.582407 124.632 
L 322.582407 124.632 
L 322.582407 124.632 
L 322.582407 124.632 
L 322.582407 124.632 
L 322.582407 124.632 
L 322.582407 124.632 
L 322.582407 124.632 
L 322.582407 124.632 
L 322.582407 124.632 
L 322.582407 124.632 
L 322.582407 124.632 
L 322.582407 124.632 
L 322.582407 124.632 
L 322.582407 124.632 
z
" style="fill:#88c100;"/>
   </g>
   <g id="patch_5">
    <path clip-path="url(#p921a9dfee3)" d="M 236.16 174.528 
L 236.16 174.528 
L 236.16 174.528 
L 236.16 174.528 
L 236.16 174.528 
L 236.16 174.528 
L 236.16 174.528 
L 236.16 174.528 
L 236.16 174.528 
L 236.16 174.528 
L 236.16 174.528 
L 236.16 174.528 
L 236.16 174.528 
L 236.16 174.528 
L 236.16 174.528 
L 236.16 174.528 
L 236.16 174.528 
L 236.16 174.528 
L 236.16 174.528 
L 236.16 174.528 
L 236.16 174.528 
L 236.16 174.528 
L 236.16 174.528 
L 236.16 174.528 
L 236.16 174.528 
L 236.16 174.528 
L 236.16 174.528 
L 236.16 174.528 
L 236.16 174.528 
L 236.16 174.528 
L 236.16 174.528 
L 236.16 174.528 
L 236.16 174.528 
L 236.16 174.528 
L 236.16 174.528 
L 236.16 174.528 
L 236.16 174.528 
L 236.16 174.528 
L 236.16 174.528 
L 236.16 174.528 
L 236.16 174.528 
L 236.16 174.528 
L 236.16 174.528 
L 236.16 174.528 
L 236.16 174.528 
L 236.16 174.528 
L 236.16 174.528 
L 236.16 174.528 
L 236.16 174.528 
L 236.16 174.528 
L 236.16 174.528 
L 236.16 174.528 
L 236.16 174.528 
L 236.16 174.528 
L 236.16 174.528 
L 236.16 174.528 
L 236.16 174.528 
L 236.16 174.528 
L 236.16 174.528 
L 236.16 174.528 
L 236.16 174.528 
L 236.16 174.528 
L 236.16 174.528 
L 236.16 174.528 
L 236.16 174.528 
L 236.16 174.528 
L 236.16 174.528 
L 236.16 174.528 
L 236.16 174.528 
L 236.16 174.528 
L 236.16 174.528 
L 236.16 174.528 
L 236.16 174.528 
L 236.16 174.528 
L 236.16 174.528 
L 236.16 174.528 
L 236.16 174.528 
L 236.16 174.528 
L 236.16 174.528 
L 236.16 174.528 
L 236.16 174.528 
L 236.16 174.528 
L 236.16 174.528 
L 236.16 174.528 
L 236.16 174.528 
L 236.16 174.528 
L 236.16 174.528 
L 236.16 174.528 
L 236.16 174.528 
L 236.16 174.528 
L 236.16 174.528 
L 236.16 174.528 
L 236.16 174.528 
L 236.16 174.528 
L 236.16 174.528 
L 236.16 174.528 
L 236.16 174.528 
L 236.16 174.528 
L 236.16 174.528 
L 236.16 174.528 
L 236.16 174.528 
L 236.16 175.52592 
L 236.16 176.52384 
L 236.16 177.52176 
L 236.16 178.51968 
L 236.16 179.5176 
L 236.16 180.51552 
L 236.16 181.51344 
L 236.16 182.51136 
L 236.16 183.50928 
L 236.16 184.5072 
L 236.16 185.50512 
L 236.16 186.50304 
L 236.16 187.50096 
L 236.16 188.49888 
L 236.16 189.4968 
L 236.16 190.49472 
L 236.16 191.49264 
L 236.16 192.49056 
L 236.16 193.48848 
L 236.16 194.4864 
L 236.16 195.48432 
L 236.16 196.48224 
L 236.16 197.48016 
L 236.16 198.47808 
L 236.16 199.476 
L 236.16 200.47392 
L 236.16 201.47184 
L 236.16 202.46976 
L 236.16 203.46768 
L 236.16 204.4656 
L 236.16 205.46352 
L 236.16 206.46144 
L 236.16 207.45936 
L 236.16 208.45728 
L 236.16 209.4552 
L 236.16 210.45312 
L 236.16 211.45104 
L 236.16 212.44896 
L 236.16 213.44688 
L 236.16 214.4448 
L 236.16 215.44272 
L 236.16 216.44064 
L 236.16 217.43856 
L 236.16 218.43648 
L 236.16 219.4344 
L 236.16 220.43232 
L 236.16 221.43024 
L 236.16 222.42816 
L 236.16 223.42608 
L 236.16 224.424 
L 236.16 225.42192 
L 236.16 226.41984 
L 236.16 227.41776 
L 236.16 228.41568 
L 236.16 229.4136 
L 236.16 230.41152 
L 236.16 231.40944 
L 236.16 232.40736 
L 236.16 233.40528 
L 236.16 234.4032 
L 236.16 235.40112 
L 236.16 236.39904 
L 236.16 237.39696 
L 236.16 238.39488 
L 236.16 239.3928 
L 236.16 240.39072 
L 236.16 241.38864 
L 236.16 242.38656 
L 236.16 243.38448 
L 236.16 244.3824 
L 236.16 245.38032 
L 236.16 246.37824 
L 236.16 247.37616 
L 236.16 248.37408 
L 236.16 249.372 
L 236.16 250.36992 
L 236.16 251.36784 
L 236.16 252.36576 
L 236.16 253.36368 
L 236.16 254.3616 
L 236.16 255.35952 
L 236.16 256.35744 
L 236.16 257.35536 
L 236.16 258.35328 
L 236.16 259.3512 
L 236.16 260.34912 
L 236.16 261.34704 
L 236.16 262.34496 
L 236.16 263.34288 
L 236.16 264.3408 
L 236.16 265.33872 
L 236.16 266.33664 
L 236.16 267.33456 
L 236.16 268.33248 
L 236.16 269.3304 
L 236.16 270.32832 
L 236.16 271.32624 
L 236.16 272.32416 
L 236.16 273.32208 
L 236.16 274.32 
L 234.070114 274.298114 
L 231.981145 274.232465 
L 229.894008 274.123083 
L 227.809621 273.970015 
L 225.728896 273.773329 
L 223.652746 273.53311 
L 221.582082 273.249465 
L 219.517813 272.922517 
L 217.460844 272.552409 
L 215.412077 272.139305 
L 213.37241 271.683386 
L 211.342739 271.184851 
L 209.323953 270.643919 
L 207.316939 270.060827 
L 205.322576 269.435832 
L 203.34174 268.769207 
L 201.375298 268.061244 
L 199.424115 267.312255 
L 197.489045 266.522568 
L 195.570937 265.692528 
L 193.670633 264.822501 
L 191.788966 263.912868 
L 189.926762 262.964028 
L 188.084837 261.976396 
L 186.264 260.950407 
L 184.465049 259.88651 
L 182.688772 258.785172 
L 180.935951 257.646876 
L 179.207352 256.472122 
L 177.503734 255.261424 
L 175.825845 254.015314 
L 174.174421 252.734337 
L 172.550185 251.419058 
L 170.953851 250.070051 
L 169.386119 248.687908 
L 167.847675 247.273237 
L 166.339196 245.826658 
L 164.861342 244.348804 
L 163.414763 242.840325 
L 162.000092 241.301881 
L 160.617949 239.734149 
L 159.268942 238.137815 
L 157.953663 236.513579 
L 156.672686 234.862155 
L 155.426576 233.184266 
L 154.215878 231.480648 
L 153.041124 229.752049 
L 151.902828 227.999228 
L 150.80149 226.222951 
L 149.737593 224.424 
L 148.711604 222.603163 
L 147.723972 220.761238 
L 146.775132 218.899034 
L 145.865499 217.017367 
L 144.995472 215.117063 
L 144.165432 213.198955 
L 143.375745 211.263885 
L 142.626756 209.312702 
L 141.918793 207.34626 
L 141.252168 205.365424 
L 140.627173 203.371061 
L 140.044081 201.364047 
L 139.503149 199.345261 
L 139.004614 197.31559 
L 138.548695 195.275923 
L 138.135591 193.227156 
L 137.765483 191.170187 
L 137.438535 189.105918 
L 137.15489 187.035254 
L 136.914671 184.959104 
L 136.717985 182.878379 
L 136.564917 180.793992 
L 136.455535 178.706855 
L 136.389886 176.617886 
L 136.368 174.528 
L 136.389886 172.438114 
L 136.455535 170.349145 
L 136.564917 168.262008 
L 136.717985 166.177621 
L 136.914671 164.096896 
L 137.15489 162.020746 
L 137.438535 159.950082 
L 137.765483 157.885813 
L 138.135591 155.828844 
L 138.548695 153.780077 
L 139.004614 151.74041 
L 139.503149 149.710739 
L 140.044081 147.691953 
L 140.627173 145.684939 
L 141.252168 143.690576 
L 141.918793 141.70974 
L 142.626756 139.743298 
L 143.375745 137.792115 
L 144.165432 135.857045 
L 144.995472 133.938937 
L 145.865499 132.038633 
L 146.775132 130.156966 
L 147.723972 128.294762 
L 148.711604 126.452837 
L 149.737593 124.632 
L 150.601817 125.13096 
L 151.466041 125.62992 
L 152.330265 126.12888 
L 153.194489 126.62784 
L 154.058713 127.1268 
L 154.922937 127.62576 
L 155.787161 128.12472 
L 156.651385 128.62368 
L 157.51561 129.12264 
L 158.379834 129.6216 
L 159.244058 130.12056 
L 160.108282 130.61952 
L 160.972506 131.11848 
L 161.83673 131.61744 
L 162.700954 132.1164 
L 163.565178 132.61536 
L 164.429402 133.11432 
L 165.293626 133.61328 
L 166.15785 134.11224 
L 167.022074 134.6112 
L 167.886298 135.11016 
L 168.750522 135.60912 
L 169.614747 136.10808 
L 170.478971 136.60704 
L 171.343195 137.106 
L 172.207419 137.60496 
L 173.071643 138.10392 
L 173.935867 138.60288 
L 174.800091 139.10184 
L 175.664315 139.6008 
L 176.528539 140.09976 
L 177.392763 140.59872 
L 178.256987 141.09768 
L 179.121211 141.59664 
L 179.985435 142.0956 
L 180.849659 142.59456 
L 181.713884 143.09352 
L 182.578108 143.59248 
L 183.442332 144.09144 
L 184.306556 144.5904 
L 185.17078 145.08936 
L 186.035004 145.58832 
L 186.899228 146.08728 
L 187.763452 146.58624 
L 188.627676 147.0852 
L 189.4919 147.58416 
L 190.356124 148.08312 
L 191.220348 148.58208 
L 192.084572 149.08104 
L 192.948796 149.58 
L 193.813021 150.07896 
L 194.677245 150.57792 
L 195.541469 151.07688 
L 196.405693 151.57584 
L 197.269917 152.0748 
L 198.134141 152.57376 
L 198.998365 153.07272 
L 199.862589 153.57168 
L 200.726813 154.07064 
L 201.591037 154.5696 
L 202.455261 155.06856 
L 203.319485 155.56752 
L 204.183709 156.06648 
L 205.047933 156.56544 
L 205.912158 157.0644 
L 206.776382 157.56336 
L 207.640606 158.06232 
L 208.50483 158.56128 
L 209.369054 159.06024 
L 210.233278 159.5592 
L 211.097502 160.05816 
L 211.961726 160.55712 
L 212.82595 161.05608 
L 213.690174 161.55504 
L 214.554398 162.054 
L 215.418622 162.55296 
L 216.282846 163.05192 
L 217.14707 163.55088 
L 218.011295 164.04984 
L 218.875519 164.5488 
L 219.739743 165.04776 
L 220.603967 165.54672 
L 221.468191 166.04568 
L 222.332415 166.54464 
L 223.196639 167.0436 
L 224.060863 167.54256 
L 224.925087 168.04152 
L 225.789311 168.54048 
L 226.653535 169.03944 
L 227.517759 169.5384 
L 228.381983 170.03736 
L 229.246207 170.53632 
L 230.110432 171.03528 
L 230.974656 171.53424 
L 231.83888 172.0332 
L 232.703104 172.53216 
L 233.567328 173.03112 
L 234.431552 173.53008 
L 235.295776 174.02904 
z
" style="fill:#fabe28;"/>
   </g>
   <g id="patch_6">
    <path clip-path="url(#p921a9dfee3)" d="M 149.737593 124.632 
L 148.711604 126.452837 
L 147.723972 128.294762 
L 146.775132 130.156966 
L 145.865499 132.038633 
L 144.995472 133.938937 
L 144.165432 135.857045 
L 143.375745 137.792115 
L 142.626756 139.743298 
L 141.918793 141.70974 
L 141.252168 143.690576 
L 140.627173 145.684939 
L 140.044081 147.691953 
L 139.503149 149.710739 
L 139.004614 151.74041 
L 138.548695 153.780077 
L 138.135591 155.828844 
L 137.765483 157.885813 
L 137.438535 159.950082 
L 137.15489 162.020746 
L 136.914671 164.096896 
L 136.717985 166.177621 
L 136.564917 168.262008 
L 136.455535 170.349145 
L 136.389886 172.438114 
L 136.368 174.528 
L 136.389886 176.617886 
L 136.455535 178.706855 
L 136.564917 180.793992 
L 136.717985 182.878379 
L 136.914671 184.959104 
L 137.15489 187.035254 
L 137.438535 189.105918 
L 137.765483 191.170187 
L 138.135591 193.227156 
L 138.548695 195.275923 
L 139.004614 197.31559 
L 139.503149 199.345261 
L 140.044081 201.364047 
L 140.627173 203.371061 
L 141.252168 205.365424 
L 141.918793 207.34626 
L 142.626756 209.312702 
L 143.375745 211.263885 
L 144.165432 213.198955 
L 144.995472 215.117063 
L 145.865499 217.017367 
L 146.775132 218.899034 
L 147.723972 220.761238 
L 148.711604 222.603163 
L 149.737593 224.424 
L 150.80149 226.222951 
L 151.902828 227.999228 
L 153.041124 229.752049 
L 154.215878 231.480648 
L 155.426576 233.184266 
L 156.672686 234.862155 
L 157.953663 236.513579 
L 159.268942 238.137815 
L 160.617949 239.734149 
L 162.000092 241.301881 
L 163.414763 242.840325 
L 164.861342 244.348804 
L 166.339196 245.826658 
L 167.847675 247.273237 
L 169.386119 248.687908 
L 170.953851 250.070051 
L 172.550185 251.419058 
L 174.174421 252.734337 
L 175.825845 254.015314 
L 177.503734 255.261424 
L 179.207352 256.472122 
L 180.935951 257.646876 
L 182.688772 258.785172 
L 184.465049 259.88651 
L 186.264 260.950407 
L 188.084837 261.976396 
L 189.926762 262.964028 
L 191.788966 263.912868 
L 193.670633 264.822501 
L 195.570937 265.692528 
L 197.489045 266.522568 
L 199.424115 267.312255 
L 201.375298 268.061244 
L 203.34174 268.769207 
L 205.322576 269.435832 
L 207.316939 270.060827 
L 209.323953 270.643919 
L 211.342739 271.184851 
L 213.37241 271.683386 
L 215.412077 272.139305 
L 217.460844 272.552409 
L 219.517813 272.922517 
L 221.582082 273.249465 
L 223.652746 273.53311 
L 225.728896 273.773329 
L 227.809621 273.970015 
L 229.894008 274.123083 
L 231.981145 274.232465 
L 234.070114 274.298114 
L 236.16 274.32 
L 236.16 274.32 
L 236.16 274.32 
L 236.16 274.32 
L 236.16 274.32 
L 236.16 274.32 
L 236.16 274.32 
L 236.16 274.32 
L 236.16 274.32 
L 236.16 274.32 
L 236.16 274.32 
L 236.16 274.32 
L 236.16 274.32 
L 236.16 274.32 
L 236.16 274.32 
L 236.16 274.32 
L 236.16 274.32 
L 236.16 274.32 
L 236.16 274.32 
L 236.16 274.32 
L 236.16 274.32 
L 236.16 274.32 
L 236.16 274.32 
L 236.16 274.32 
L 236.16 274.32 
L 236.16 274.32 
L 236.16 274.32 
L 236.16 274.32 
L 236.16 274.32 
L 236.16 274.32 
L 236.16 274.32 
L 236.16 274.32 
L 236.16 274.32 
L 236.16 274.32 
L 236.16 274.32 
L 236.16 274.32 
L 236.16 274.32 
L 236.16 274.32 
L 236.16 274.32 
L 236.16 274.32 
L 236.16 274.32 
L 236.16 274.32 
L 236.16 274.32 
L 236.16 274.32 
L 236.16 274.32 
L 236.16 274.32 
L 236.16 274.32 
L 236.16 274.32 
L 236.16 274.32 
L 236.16 274.32 
L 236.16 274.32 
L 236.16 274.32 
L 236.16 274.32 
L 236.16 274.32 
L 236.16 274.32 
L 236.16 274.32 
L 236.16 274.32 
L 236.16 274.32 
L 236.16 274.32 
L 236.16 274.32 
L 236.16 274.32 
L 236.16 274.32 
L 236.16 274.32 
L 236.16 274.32 
L 236.16 274.32 
L 236.16 274.32 
L 236.16 274.32 
L 236.16 274.32 
L 236.16 274.32 
L 236.16 274.32 
L 236.16 274.32 
L 236.16 274.32 
L 236.16 274.32 
L 236.16 274.32 
L 236.16 274.32 
L 236.16 274.32 
L 236.16 274.32 
L 236.16 274.32 
L 236.16 274.32 
L 236.16 274.32 
L 236.16 274.32 
L 236.16 274.32 
L 236.16 274.32 
L 236.16 274.32 
L 236.16 274.32 
L 236.16 274.32 
L 236.16 274.32 
L 236.16 274.32 
L 236.16 274.32 
L 236.16 274.32 
L 236.16 274.32 
L 236.16 274.32 
L 236.16 274.32 
L 236.16 274.32 
L 236.16 274.32 
L 236.16 274.32 
L 236.16 274.32 
L 236.16 274.32 
L 236.16 274.32 
L 236.16 274.32 
L 236.16 274.32 
L 234.070114 274.298114 
L 231.981145 274.232465 
L 229.894008 274.123083 
L 227.809621 273.970015 
L 225.728896 273.773329 
L 223.652746 273.53311 
L 221.582082 273.249465 
L 219.517813 272.922517 
L 217.460844 272.552409 
L 215.412077 272.139305 
L 213.37241 271.683386 
L 211.342739 271.184851 
L 209.323953 270.643919 
L 207.316939 270.060827 
L 205.322576 269.435832 
L 203.34174 268.769207 
L 201.375298 268.061244 
L 199.424115 267.312255 
L 197.489045 266.522568 
L 195.570937 265.692528 
L 193.670633 264.822501 
L 191.788966 263.912868 
L 189.926762 262.964028 
L 188.084837 261.976396 
L 186.264 260.950407 
L 184.465049 259.88651 
L 182.688772 258.785172 
L 180.935951 257.646876 
L 179.207352 256.472122 
L 177.503734 255.261424 
L 175.825845 254.015314 
L 174.174421 252.734337 
L 172.550185 251.419058 
L 170.953851 250.070051 
L 169.386119 248.687908 
L 167.847675 247.273237 
L 166.339196 245.826658 
L 164.861342 244.348804 
L 163.414763 242.840325 
L 162.000092 241.301881 
L 160.617949 239.734149 
L 159.268942 238.137815 
L 157.953663 236.513579 
L 156.672686 234.862155 
L 155.426576 233.184266 
L 154.215878 231.480648 
L 153.041124 229.752049 
L 151.902828 227.999228 
L 150.80149 226.222951 
L 149.737593 224.424 
L 148.711604 222.603163 
L 147.723972 220.761238 
L 146.775132 218.899034 
L 145.865499 217.017367 
L 144.995472 215.117063 
L 144.165432 213.198955 
L 143.375745 211.263885 
L 142.626756 209.312702 
L 141.918793 207.34626 
L 141.252168 205.365424 
L 140.627173 203.371061 
L 140.044081 201.364047 
L 139.503149 199.345261 
L 139.004614 197.31559 
L 138.548695 195.275923 
L 138.135591 193.227156 
L 137.765483 191.170187 
L 137.438535 189.105918 
L 137.15489 187.035254 
L 136.914671 184.959104 
L 136.717985 182.878379 
L 136.564917 180.793992 
L 136.455535 178.706855 
L 136.389886 176.617886 
L 136.368 174.528 
L 136.389886 172.438114 
L 136.455535 170.349145 
L 136.564917 168.262008 
L 136.717985 166.177621 
L 136.914671 164.096896 
L 137.15489 162.020746 
L 137.438535 159.950082 
L 137.765483 157.885813 
L 138.135591 155.828844 
L 138.548695 153.780077 
L 139.004614 151.74041 
L 139.503149 149.710739 
L 140.044081 147.691953 
L 140.627173 145.684939 
L 141.252168 143.690576 
L 141.918793 141.70974 
L 142.626756 139.743298 
L 143.375745 137.792115 
L 144.165432 135.857045 
L 144.995472 133.938937 
L 145.865499 132.038633 
L 146.775132 130.156966 
L 147.723972 128.294762 
L 148.711604 126.452837 
L 149.737593 124.632 
L 149.737593 124.632 
L 149.737593 124.632 
L 149.737593 124.632 
L 149.737593 124.632 
L 149.737593 124.632 
L 149.737593 124.632 
L 149.737593 124.632 
L 149.737593 124.632 
L 149.737593 124.632 
L 149.737593 124.632 
L 149.737593 124.632 
L 149.737593 124.632 
L 149.737593 124.632 
L 149.737593 124.632 
L 149.737593 124.632 
L 149.737593 124.632 
L 149.737593 124.632 
L 149.737593 124.632 
L 149.737593 124.632 
L 149.737593 124.632 
L 149.737593 124.632 
L 149.737593 124.632 
L 149.737593 124.632 
L 149.737593 124.632 
L 149.737593 124.632 
L 149.737593 124.632 
L 149.737593 124.632 
L 149.737593 124.632 
L 149.737593 124.632 
L 149.737593 124.632 
L 149.737593 124.632 
L 149.737593 124.632 
L 149.737593 124.632 
L 149.737593 124.632 
L 149.737593 124.632 
L 149.737593 124.632 
L 149.737593 124.632 
L 149.737593 124.632 
L 149.737593 124.632 
L 149.737593 124.632 
L 149.737593 124.632 
L 149.737593 124.632 
L 149.737593 124.632 
L 149.737593 124.632 
L 149.737593 124.632 
L 149.737593 124.632 
L 149.737593 124.632 
L 149.737593 124.632 
L 149.737593 124.632 
L 149.737593 124.632 
L 149.737593 124.632 
L 149.737593 124.632 
L 149.737593 124.632 
L 149.737593 124.632 
L 149.737593 124.632 
L 149.737593 124.632 
L 149.737593 124.632 
L 149.737593 124.632 
L 149.737593 124.632 
L 149.737593 124.632 
L 149.737593 124.632 
L 149.737593 124.632 
L 149.737593 124.632 
L 149.737593 124.632 
L 149.737593 124.632 
L 149.737593 124.632 
L 149.737593 124.632 
L 149.737593 124.632 
L 149.737593 124.632 
L 149.737593 124.632 
L 149.737593 124.632 
L 149.737593 124.632 
L 149.737593 124.632 
L 149.737593 124.632 
L 149.737593 124.632 
L 149.737593 124.632 
L 149.737593 124.632 
L 149.737593 124.632 
L 149.737593 124.632 
L 149.737593 124.632 
L 149.737593 124.632 
L 149.737593 124.632 
L 149.737593 124.632 
L 149.737593 124.632 
L 149.737593 124.632 
L 149.737593 124.632 
L 149.737593 124.632 
L 149.737593 124.632 
L 149.737593 124.632 
L 149.737593 124.632 
L 149.737593 124.632 
L 149.737593 124.632 
L 149.737593 124.632 
L 149.737593 124.632 
L 149.737593 124.632 
L 149.737593 124.632 
L 149.737593 124.632 
L 149.737593 124.632 
L 149.737593 124.632 
z
" style="fill:#ff003c;"/>
   </g>
   <g id="patch_7">
    <path clip-path="url(#p921a9dfee3)" d="M 149.737593 124.632 
L 148.711604 126.452837 
L 147.723972 128.294762 
L 146.775132 130.156966 
L 145.865499 132.038633 
L 144.995472 133.938937 
L 144.165432 135.857045 
L 143.375745 137.792115 
L 142.626756 139.743298 
L 141.918793 141.70974 
L 141.252168 143.690576 
L 140.627173 145.684939 
L 140.044081 147.691953 
L 139.503149 149.710739 
L 139.004614 151.74041 
L 138.548695 153.780077 
L 138.135591 155.828844 
L 137.765483 157.885813 
L 137.438535 159.950082 
L 137.15489 162.020746 
L 136.914671 164.096896 
L 136.717985 166.177621 
L 136.564917 168.262008 
L 136.455535 170.349145 
L 136.389886 172.438114 
L 136.368 174.528 
L 136.389886 176.617886 
L 136.455535 178.706855 
L 136.564917 180.793992 
L 136.717985 182.878379 
L 136.914671 184.959104 
L 137.15489 187.035254 
L 137.438535 189.105918 
L 137.765483 191.170187 
L 138.135591 193.227156 
L 138.548695 195.275923 
L 139.004614 197.31559 
L 139.503149 199.345261 
L 140.044081 201.364047 
L 140.627173 203.371061 
L 141.252168 205.365424 
L 141.918793 207.34626 
L 142.626756 209.312702 
L 143.375745 211.263885 
L 144.165432 213.198955 
L 144.995472 215.117063 
L 145.865499 217.017367 
L 146.775132 218.899034 
L 147.723972 220.761238 
L 148.711604 222.603163 
L 149.737593 224.424 
L 150.80149 226.222951 
L 151.902828 227.999228 
L 153.041124 229.752049 
L 154.215878 231.480648 
L 155.426576 233.184266 
L 156.672686 234.862155 
L 157.953663 236.513579 
L 159.268942 238.137815 
L 160.617949 239.734149 
L 162.000092 241.301881 
L 163.414763 242.840325 
L 164.861342 244.348804 
L 166.339196 245.826658 
L 167.847675 247.273237 
L 169.386119 248.687908 
L 170.953851 250.070051 
L 172.550185 251.419058 
L 174.174421 252.734337 
L 175.825845 254.015314 
L 177.503734 255.261424 
L 179.207352 256.472122 
L 180.935951 257.646876 
L 182.688772 258.785172 
L 184.465049 259.88651 
L 186.264 260.950407 
L 188.084837 261.976396 
L 189.926762 262.964028 
L 191.788966 263.912868 
L 193.670633 264.822501 
L 195.570937 265.692528 
L 197.489045 266.522568 
L 199.424115 267.312255 
L 201.375298 268.061244 
L 203.34174 268.769207 
L 205.322576 269.435832 
L 207.316939 270.060827 
L 209.323953 270.643919 
L 211.342739 271.184851 
L 213.37241 271.683386 
L 215.412077 272.139305 
L 217.460844 272.552409 
L 219.517813 272.922517 
L 221.582082 273.249465 
L 223.652746 273.53311 
L 225.728896 273.773329 
L 227.809621 273.970015 
L 229.894008 274.123083 
L 231.981145 274.232465 
L 234.070114 274.298114 
L 236.16 274.32 
L 236.16 274.32 
L 236.16 274.32 
L 236.16 274.32 
L 236.16 274.32 
L 236.16 274.32 
L 236.16 274.32 
L 236.16 274.32 
L 236.16 274.32 
L 236.16 274.32 
L 236.16 274.32 
L 236.16 274.32 
L 236.16 274.32 
L 236.16 274.32 
L 236.16 274.32 
L 236.16 274.32 
L 236.16 274.32 
L 236.16 274.32 
L 236.16 274.32 
L 236.16 274.32 
L 236.16 274.32 
L 236.16 274.32 
L 236.16 274.32 
L 236.16 274.32 
L 236.16 274.32 
L 236.16 274.32 
L 236.16 274.32 
L 236.16 274.32 
L 236.16 274.32 
L 236.16 274.32 
L 236.16 274.32 
L 236.16 274.32 
L 236.16 274.32 
L 236.16 274.32 
L 236.16 274.32 
L 236.16 274.32 
L 236.16 274.32 
L 236.16 274.32 
L 236.16 274.32 
L 236.16 274.32 
L 236.16 274.32 
L 236.16 274.32 
L 236.16 274.32 
L 236.16 274.32 
L 236.16 274.32 
L 236.16 274.32 
L 236.16 274.32 
L 236.16 274.32 
L 236.16 274.32 
L 236.16 274.32 
L 236.16 274.32 
L 236.16 274.32 
L 236.16 274.32 
L 236.16 274.32 
L 236.16 274.32 
L 236.16 274.32 
L 236.16 274.32 
L 236.16 274.32 
L 236.16 274.32 
L 236.16 274.32 
L 236.16 274.32 
L 236.16 274.32 
L 236.16 274.32 
L 236.16 274.32 
L 236.16 274.32 
L 236.16 274.32 
L 236.16 274.32 
L 236.16 274.32 
L 236.16 274.32 
L 236.16 274.32 
L 236.16 274.32 
L 236.16 274.32 
L 236.16 274.32 
L 236.16 274.32 
L 236.16 274.32 
L 236.16 274.32 
L 236.16 274.32 
L 236.16 274.32 
L 236.16 274.32 
L 236.16 274.32 
L 236.16 274.32 
L 236.16 274.32 
L 236.16 274.32 
L 236.16 274.32 
L 236.16 274.32 
L 236.16 274.32 
L 236.16 274.32 
L 236.16 274.32 
L 236.16 274.32 
L 236.16 274.32 
L 236.16 274.32 
L 236.16 274.32 
L 236.16 274.32 
L 236.16 274.32 
L 236.16 274.32 
L 236.16 274.32 
L 236.16 274.32 
L 236.16 274.32 
L 236.16 274.32 
L 236.16 274.32 
L 236.16 274.32 
L 234.070114 274.298114 
L 231.981145 274.232465 
L 229.894008 274.123083 
L 227.809621 273.970015 
L 225.728896 273.773329 
L 223.652746 273.53311 
L 221.582082 273.249465 
L 219.517813 272.922517 
L 217.460844 272.552409 
L 215.412077 272.139305 
L 213.37241 271.683386 
L 211.342739 271.184851 
L 209.323953 270.643919 
L 207.316939 270.060827 
L 205.322576 269.435832 
L 203.34174 268.769207 
L 201.375298 268.061244 
L 199.424115 267.312255 
L 197.489045 266.522568 
L 195.570937 265.692528 
L 193.670633 264.822501 
L 191.788966 263.912868 
L 189.926762 262.964028 
L 188.084837 261.976396 
L 186.264 260.950407 
L 184.465049 259.88651 
L 182.688772 258.785172 
L 180.935951 257.646876 
L 179.207352 256.472122 
L 177.503734 255.261424 
L 175.825845 254.015314 
L 174.174421 252.734337 
L 172.550185 251.419058 
L 170.953851 250.070051 
L 169.386119 248.687908 
L 167.847675 247.273237 
L 166.339196 245.826658 
L 164.861342 244.348804 
L 163.414763 242.840325 
L 162.000092 241.301881 
L 160.617949 239.734149 
L 159.268942 238.137815 
L 157.953663 236.513579 
L 156.672686 234.862155 
L 155.426576 233.184266 
L 154.215878 231.480648 
L 153.041124 229.752049 
L 151.902828 227.999228 
L 150.80149 226.222951 
L 149.737593 224.424 
L 148.711604 222.603163 
L 147.723972 220.761238 
L 146.775132 218.899034 
L 145.865499 217.017367 
L 144.995472 215.117063 
L 144.165432 213.198955 
L 143.375745 211.263885 
L 142.626756 209.312702 
L 141.918793 207.34626 
L 141.252168 205.365424 
L 140.627173 203.371061 
L 140.044081 201.364047 
L 139.503149 199.345261 
L 139.004614 197.31559 
L 138.548695 195.275923 
L 138.135591 193.227156 
L 137.765483 191.170187 
L 137.438535 189.105918 
L 137.15489 187.035254 
L 136.914671 184.959104 
L 136.717985 182.878379 
L 136.564917 180.793992 
L 136.455535 178.706855 
L 136.389886 176.617886 
L 136.368 174.528 
L 136.389886 172.438114 
L 136.455535 170.349145 
L 136.564917 168.262008 
L 136.717985 166.177621 
L 136.914671 164.096896 
L 137.15489 162.020746 
L 137.438535 159.950082 
L 137.765483 157.885813 
L 138.135591 155.828844 
L 138.548695 153.780077 
L 139.004614 151.74041 
L 139.503149 149.710739 
L 140.044081 147.691953 
L 140.627173 145.684939 
L 141.252168 143.690576 
L 141.918793 141.70974 
L 142.626756 139.743298 
L 143.375745 137.792115 
L 144.165432 135.857045 
L 144.995472 133.938937 
L 145.865499 132.038633 
L 146.775132 130.156966 
L 147.723972 128.294762 
L 148.711604 126.452837 
L 149.737593 124.632 
L 149.737593 124.632 
L 149.737593 124.632 
L 149.737593 124.632 
L 149.737593 124.632 
L 149.737593 124.632 
L 149.737593 124.632 
L 149.737593 124.632 
L 149.737593 124.632 
L 149.737593 124.632 
L 149.737593 124.632 
L 149.737593 124.632 
L 149.737593 124.632 
L 149.737593 124.632 
L 149.737593 124.632 
L 149.737593 124.632 
L 149.737593 124.632 
L 149.737593 124.632 
L 149.737593 124.632 
L 149.737593 124.632 
L 149.737593 124.632 
L 149.737593 124.632 
L 149.737593 124.632 
L 149.737593 124.632 
L 149.737593 124.632 
L 149.737593 124.632 
L 149.737593 124.632 
L 149.737593 124.632 
L 149.737593 124.632 
L 149.737593 124.632 
L 149.737593 124.632 
L 149.737593 124.632 
L 149.737593 124.632 
L 149.737593 124.632 
L 149.737593 124.632 
L 149.737593 124.632 
L 149.737593 124.632 
L 149.737593 124.632 
L 149.737593 124.632 
L 149.737593 124.632 
L 149.737593 124.632 
L 149.737593 124.632 
L 149.737593 124.632 
L 149.737593 124.632 
L 149.737593 124.632 
L 149.737593 124.632 
L 149.737593 124.632 
L 149.737593 124.632 
L 149.737593 124.632 
L 149.737593 124.632 
L 149.737593 124.632 
L 149.737593 124.632 
L 149.737593 124.632 
L 149.737593 124.632 
L 149.737593 124.632 
L 149.737593 124.632 
L 149.737593 124.632 
L 149.737593 124.632 
L 149.737593 124.632 
L 149.737593 124.632 
L 149.737593 124.632 
L 149.737593 124.632 
L 149.737593 124.632 
L 149.737593 124.632 
L 149.737593 124.632 
L 149.737593 124.632 
L 149.737593 124.632 
L 149.737593 124.632 
L 149.737593 124.632 
L 149.737593 124.632 
L 149.737593 124.632 
L 149.737593 124.632 
L 149.737593 124.632 
L 149.737593 124.632 
L 149.737593 124.632 
L 149.737593 124.632 
L 149.737593 124.632 
L 149.737593 124.632 
L 149.737593 124.632 
L 149.737593 124.632 
L 149.737593 124.632 
L 149.737593 124.632 
L 149.737593 124.632 
L 149.737593 124.632 
L 149.737593 124.632 
L 149.737593 124.632 
L 149.737593 124.632 
L 149.737593 124.632 
L 149.737593 124.632 
L 149.737593 124.632 
L 149.737593 124.632 
L 149.737593 124.632 
L 149.737593 124.632 
L 149.737593 124.632 
L 149.737593 124.632 
L 149.737593 124.632 
L 149.737593 124.632 
L 149.737593 124.632 
L 149.737593 124.632 
L 149.737593 124.632 
z
" style="fill:#88c100;"/>
   </g>
   <g id="patch_8">
    <path clip-path="url(#p921a9dfee3)" d="M 236.16 174.528 
L 236.16 174.528 
L 236.16 174.528 
L 236.16 174.528 
L 236.16 174.528 
L 236.16 174.528 
L 236.16 174.528 
L 236.16 174.528 
L 236.16 174.528 
L 236.16 174.528 
L 236.16 174.528 
L 236.16 174.528 
L 236.16 174.528 
L 236.16 174.528 
L 236.16 174.528 
L 236.16 174.528 
L 236.16 174.528 
L 236.16 174.528 
L 236.16 174.528 
L 236.16 174.528 
L 236.16 174.528 
L 236.16 174.528 
L 236.16 174.528 
L 236.16 174.528 
L 236.16 174.528 
L 236.16 174.528 
L 236.16 174.528 
L 236.16 174.528 
L 236.16 174.528 
L 236.16 174.528 
L 236.16 174.528 
L 236.16 174.528 
L 236.16 174.528 
L 236.16 174.528 
L 236.16 174.528 
L 236.16 174.528 
L 236.16 174.528 
L 236.16 174.528 
L 236.16 174.528 
L 236.16 174.528 
L 236.16 174.528 
L 236.16 174.528 
L 236.16 174.528 
L 236.16 174.528 
L 236.16 174.528 
L 236.16 174.528 
L 236.16 174.528 
L 236.16 174.528 
L 236.16 174.528 
L 236.16 174.528 
L 236.16 174.528 
L 236.16 174.528 
L 236.16 174.528 
L 236.16 174.528 
L 236.16 174.528 
L 236.16 174.528 
L 236.16 174.528 
L 236.16 174.528 
L 236.16 174.528 
L 236.16 174.528 
L 236.16 174.528 
L 236.16 174.528 
L 236.16 174.528 
L 236.16 174.528 
L 236.16 174.528 
L 236.16 174.528 
L 236.16 174.528 
L 236.16 174.528 
L 236.16 174.528 
L 236.16 174.528 
L 236.16 174.528 
L 236.16 174.528 
L 236.16 174.528 
L 236.16 174.528 
L 236.16 174.528 
L 236.16 174.528 
L 236.16 174.528 
L 236.16 174.528 
L 236.16 174.528 
L 236.16 174.528 
L 236.16 174.528 
L 236.16 174.528 
L 236.16 174.528 
L 236.16 174.528 
L 236.16 174.528 
L 236.16 174.528 
L 236.16 174.528 
L 236.16 174.528 
L 236.16 174.528 
L 236.16 174.528 
L 236.16 174.528 
L 236.16 174.528 
L 236.16 174.528 
L 236.16 174.528 
L 236.16 174.528 
L 236.16 174.528 
L 236.16 174.528 
L 236.16 174.528 
L 236.16 174.528 
L 236.16 174.528 
L 236.16 174.528 
L 237.312299 173.86272 
L 238.464598 173.19744 
L 239.616896 172.53216 
L 240.769195 171.86688 
L 241.921494 171.2016 
L 243.073793 170.53632 
L 244.226091 169.87104 
L 245.37839 169.20576 
L 246.530689 168.54048 
L 247.682988 167.8752 
L 248.835286 167.20992 
L 249.987585 166.54464 
L 251.139884 165.87936 
L 252.292183 165.21408 
L 253.444481 164.5488 
L 254.59678 163.88352 
L 255.749079 163.21824 
L 256.901378 162.55296 
L 258.053676 161.88768 
L 259.205975 161.2224 
L 260.358274 160.55712 
L 261.510573 159.89184 
L 262.662872 159.22656 
L 263.81517 158.56128 
L 264.967469 157.896 
L 266.119768 157.23072 
L 267.272067 156.56544 
L 268.424365 155.90016 
L 269.576664 155.23488 
L 270.728963 154.5696 
L 271.881262 153.90432 
L 273.03356 153.23904 
L 274.185859 152.57376 
L 275.338158 151.90848 
L 276.490457 151.2432 
L 277.642755 150.57792 
L 278.795054 149.91264 
L 279.947353 149.24736 
L 281.099652 148.58208 
L 282.25195 147.9168 
L 283.404249 147.25152 
L 284.556548 146.58624 
L 285.708847 145.92096 
L 286.861145 145.25568 
L 288.013444 144.5904 
L 289.165743 143.92512 
L 290.318042 143.25984 
L 291.470341 142.59456 
L 292.622639 141.92928 
L 293.774938 141.264 
L 294.927237 140.59872 
L 296.079536 139.93344 
L 297.231834 139.26816 
L 298.384133 138.60288 
L 299.536432 137.9376 
L 300.688731 137.27232 
L 301.841029 136.60704 
L 302.993328 135.94176 
L 304.145627 135.27648 
L 305.297926 134.6112 
L 306.450224 133.94592 
L 307.602523 133.28064 
L 308.754822 132.61536 
L 309.907121 131.95008 
L 311.059419 131.2848 
L 312.211718 130.61952 
L 313.364017 129.95424 
L 314.516316 129.28896 
L 315.668615 128.62368 
L 316.820913 127.9584 
L 317.973212 127.29312 
L 319.125511 126.62784 
L 320.27781 125.96256 
L 321.430108 125.29728 
L 322.582407 124.632 
L 323.734706 123.96672 
L 324.887005 123.30144 
L 326.039303 122.63616 
L 327.191602 121.97088 
L 328.343901 121.3056 
L 329.4962 120.64032 
L 330.648498 119.97504 
L 331.800797 119.30976 
L 332.953096 118.64448 
L 334.105395 117.9792 
L 335.257693 117.31392 
L 336.409992 116.64864 
L 337.562291 115.98336 
L 338.71459 115.31808 
L 339.866889 114.6528 
L 341.019187 113.98752 
L 342.171486 113.32224 
L 343.323785 112.65696 
L 344.476084 111.99168 
L 345.628382 111.3264 
L 346.780681 110.66112 
L 347.93298 109.99584 
L 349.085279 109.33056 
L 350.237577 108.66528 
L 351.389876 108 
L 352.757862 110.427783 
L 354.074703 112.883683 
L 355.339824 115.366622 
L 356.552668 117.875511 
L 357.712704 120.409249 
L 358.819423 122.966726 
L 359.87234 125.54682 
L 360.870992 128.148398 
L 361.814942 130.770319 
L 362.703776 133.411435 
L 363.537103 136.070585 
L 364.314558 138.746604 
L 365.035801 141.438318 
L 365.700515 144.144547 
L 366.308407 146.864102 
L 366.859212 149.595792 
L 367.352689 152.338418 
L 367.78862 155.090777 
L 368.166814 157.851661 
L 368.487105 160.619861 
L 368.749354 163.394161 
L 368.953444 166.173345 
L 369.099287 168.956193 
L 369.186819 171.741485 
L 369.216 174.528 
L 369.186819 177.314515 
L 369.099287 180.099807 
L 368.953444 182.882655 
L 368.749354 185.661839 
L 368.487105 188.436139 
L 368.166814 191.204339 
L 367.78862 193.965223 
L 367.352689 196.717582 
L 366.859212 199.460208 
L 366.308407 202.191898 
L 365.700515 204.911453 
L 365.035801 207.617682 
L 364.314558 210.309396 
L 363.537103 212.985415 
L 362.703776 215.644565 
L 361.814942 218.285681 
L 360.870992 220.907602 
L 359.87234 223.50918 
L 358.819423 226.089274 
L 357.712704 228.646751 
L 356.552668 231.180489 
L 355.339824 233.689378 
L 354.074703 236.172317 
L 352.757862 238.628217 
L 351.389876 241.056 
L 349.971347 243.454602 
L 348.502896 245.82297 
L 346.985169 248.160066 
L 345.418829 250.464864 
L 343.804565 252.736355 
L 342.143085 254.97354 
L 340.435117 257.175439 
L 338.68141 259.341086 
L 336.882734 261.469532 
L 335.039878 263.559842 
L 333.15365 265.6111 
L 331.224877 267.622405 
L 329.254405 269.592877 
L 327.2431 271.52165 
L 325.191842 273.407878 
L 323.101532 275.250734 
L 320.973086 277.04941 
L 318.807439 278.803117 
L 316.60554 280.511085 
L 314.368355 282.172565 
L 312.096864 283.786829 
L 309.792066 285.353169 
L 307.45497 286.870896 
L 305.086602 288.339347 
L 302.688 289.757876 
L 300.260217 291.125862 
L 297.804317 292.442703 
L 295.321378 293.707824 
L 292.812489 294.920668 
L 290.278751 296.080704 
L 287.721274 297.187423 
L 285.14118 298.24034 
L 282.539602 299.238992 
L 279.917681 300.182942 
L 277.276565 301.071776 
L 274.617415 301.905103 
L 271.941396 302.682558 
L 269.249682 303.403801 
L 266.543453 304.068515 
L 263.823898 304.676407 
L 261.092208 305.227212 
L 258.349582 305.720689 
L 255.597223 306.15662 
L 252.836339 306.534814 
L 250.068139 306.855105 
L 247.293839 307.117354 
L 244.514655 307.321444 
L 241.731807 307.467287 
L 238.946515 307.554819 
L 236.16 307.584 
L 236.16 306.25344 
L 236.16 304.92288 
L 236.16 303.59232 
L 236.16 302.26176 
L 236.16 300.9312 
L 236.16 299.60064 
L 236.16 298.27008 
L 236.16 296.93952 
L 236.16 295.60896 
L 236.16 294.2784 
L 236.16 292.94784 
L 236.16 291.61728 
L 236.16 290.28672 
L 236.16 288.95616 
L 236.16 287.6256 
L 236.16 286.29504 
L 236.16 284.96448 
L 236.16 283.63392 
L 236.16 282.30336 
L 236.16 280.9728 
L 236.16 279.64224 
L 236.16 278.31168 
L 236.16 276.98112 
L 236.16 275.65056 
L 236.16 274.32 
L 236.16 272.98944 
L 236.16 271.65888 
L 236.16 270.32832 
L 236.16 268.99776 
L 236.16 267.6672 
L 236.16 266.33664 
L 236.16 265.00608 
L 236.16 263.67552 
L 236.16 262.34496 
L 236.16 261.0144 
L 236.16 259.68384 
L 236.16 258.35328 
L 236.16 257.02272 
L 236.16 255.69216 
L 236.16 254.3616 
L 236.16 253.03104 
L 236.16 251.70048 
L 236.16 250.36992 
L 236.16 249.03936 
L 236.16 247.7088 
L 236.16 246.37824 
L 236.16 245.04768 
L 236.16 243.71712 
L 236.16 242.38656 
L 236.16 241.056 
L 236.16 239.72544 
L 236.16 238.39488 
L 236.16 237.06432 
L 236.16 235.73376 
L 236.16 234.4032 
L 236.16 233.07264 
L 236.16 231.74208 
L 236.16 230.41152 
L 236.16 229.08096 
L 236.16 227.7504 
L 236.16 226.41984 
L 236.16 225.08928 
L 236.16 223.75872 
L 236.16 222.42816 
L 236.16 221.0976 
L 236.16 219.76704 
L 236.16 218.43648 
L 236.16 217.10592 
L 236.16 215.77536 
L 236.16 214.4448 
L 236.16 213.11424 
L 236.16 211.78368 
L 236.16 210.45312 
L 236.16 209.12256 
L 236.16 207.792 
L 236.16 206.46144 
L 236.16 205.13088 
L 236.16 203.80032 
L 236.16 202.46976 
L 236.16 201.1392 
L 236.16 199.80864 
L 236.16 198.47808 
L 236.16 197.14752 
L 236.16 195.81696 
L 236.16 194.4864 
L 236.16 193.15584 
L 236.16 191.82528 
L 236.16 190.49472 
L 236.16 189.16416 
L 236.16 187.8336 
L 236.16 186.50304 
L 236.16 185.17248 
L 236.16 183.84192 
L 236.16 182.51136 
L 236.16 181.1808 
L 236.16 179.85024 
L 236.16 178.51968 
L 236.16 177.18912 
L 236.16 175.85856 
z
" style="fill:#fabe28;"/>
   </g>
   <g id="patch_9">
    <path clip-path="url(#p921a9dfee3)" d="M 236.16 307.584 
L 238.946515 307.554819 
L 241.731807 307.467287 
L 244.514655 307.321444 
L 247.293839 307.117354 
L 250.068139 306.855105 
L 252.836339 306.534814 
L 255.597223 306.15662 
L 258.349582 305.720689 
L 261.092208 305.227212 
L 263.823898 304.676407 
L 266.543453 304.068515 
L 269.249682 303.403801 
L 271.941396 302.682558 
L 274.617415 301.905103 
L 277.276565 301.071776 
L 279.917681 300.182942 
L 282.539602 299.238992 
L 285.14118 298.24034 
L 287.721274 297.187423 
L 290.278751 296.080704 
L 292.812489 294.920668 
L 295.321378 293.707824 
L 297.804317 292.442703 
L 300.260217 291.125862 
L 302.688 289.757876 
L 305.086602 288.339347 
L 307.45497 286.870896 
L 309.792066 285.353169 
L 312.096864 283.786829 
L 314.368355 282.172565 
L 316.60554 280.511085 
L 318.807439 278.803117 
L 320.973086 277.04941 
L 323.101532 275.250734 
L 325.191842 273.407878 
L 327.2431 271.52165 
L 329.254405 269.592877 
L 331.224877 267.622405 
L 333.15365 265.6111 
L 335.039878 263.559842 
L 336.882734 261.469532 
L 338.68141 259.341086 
L 340.435117 257.175439 
L 342.143085 254.97354 
L 343.804565 252.736355 
L 345.418829 250.464864 
L 346.985169 248.160066 
L 348.502896 245.82297 
L 349.971347 243.454602 
L 351.389876 241.056 
L 352.757862 238.628217 
L 354.074703 236.172317 
L 355.339824 233.689378 
L 356.552668 231.180489 
L 357.712704 228.646751 
L 358.819423 226.089274 
L 359.87234 223.50918 
L 360.870992 220.907602 
L 361.814942 218.285681 
L 362.703776 215.644565 
L 363.537103 212.985415 
L 364.314558 210.309396 
L 365.035801 207.617682 
L 365.700515 204.911453 
L 366.308407 202.191898 
L 366.859212 199.460208 
L 367.352689 196.717582 
L 367.78862 193.965223 
L 368.166814 191.204339 
L 368.487105 188.436139 
L 368.749354 185.661839 
L 368.953444 182.882655 
L 369.099287 180.099807 
L 369.186819 177.314515 
L 369.216 174.528 
L 369.186819 171.741485 
L 369.099287 168.956193 
L 368.953444 166.173345 
L 368.749354 163.394161 
L 368.487105 160.619861 
L 368.166814 157.851661 
L 367.78862 155.090777 
L 367.352689 152.338418 
L 366.859212 149.595792 
L 366.308407 146.864102 
L 365.700515 144.144547 
L 365.035801 141.438318 
L 364.314558 138.746604 
L 363.537103 136.070585 
L 362.703776 133.411435 
L 361.814942 130.770319 
L 360.870992 128.148398 
L 359.87234 125.54682 
L 358.819423 122.966726 
L 357.712704 120.409249 
L 356.552668 117.875511 
L 355.339824 115.366622 
L 354.074703 112.883683 
L 352.757862 110.427783 
L 351.389876 108 
L 351.389876 108 
L 351.389876 108 
L 351.389876 108 
L 351.389876 108 
L 351.389876 108 
L 351.389876 108 
L 351.389876 108 
L 351.389876 108 
L 351.389876 108 
L 351.389876 108 
L 351.389876 108 
L 351.389876 108 
L 351.389876 108 
L 351.389876 108 
L 351.389876 108 
L 351.389876 108 
L 351.389876 108 
L 351.389876 108 
L 351.389876 108 
L 351.389876 108 
L 351.389876 108 
L 351.389876 108 
L 351.389876 108 
L 351.389876 108 
L 351.389876 108 
L 351.389876 108 
L 351.389876 108 
L 351.389876 108 
L 351.389876 108 
L 351.389876 108 
L 351.389876 108 
L 351.389876 108 
L 351.389876 108 
L 351.389876 108 
L 351.389876 108 
L 351.389876 108 
L 351.389876 108 
L 351.389876 108 
L 351.389876 108 
L 351.389876 108 
L 351.389876 108 
L 351.389876 108 
L 351.389876 108 
L 351.389876 108 
L 351.389876 108 
L 351.389876 108 
L 351.389876 108 
L 351.389876 108 
L 351.389876 108 
L 351.389876 108 
L 351.389876 108 
L 351.389876 108 
L 351.389876 108 
L 351.389876 108 
L 351.389876 108 
L 351.389876 108 
L 351.389876 108 
L 351.389876 108 
L 351.389876 108 
L 351.389876 108 
L 351.389876 108 
L 351.389876 108 
L 351.389876 108 
L 351.389876 108 
L 351.389876 108 
L 351.389876 108 
L 351.389876 108 
L 351.389876 108 
L 351.389876 108 
L 351.389876 108 
L 351.389876 108 
L 351.389876 108 
L 351.389876 108 
L 351.389876 108 
L 351.389876 108 
L 351.389876 108 
L 351.389876 108 
L 351.389876 108 
L 351.389876 108 
L 351.389876 108 
L 351.389876 108 
L 351.389876 108 
L 351.389876 108 
L 351.389876 108 
L 351.389876 108 
L 351.389876 108 
L 351.389876 108 
L 351.389876 108 
L 351.389876 108 
L 351.389876 108 
L 351.389876 108 
L 351.389876 108 
L 351.389876 108 
L 351.389876 108 
L 351.389876 108 
L 351.389876 108 
L 351.389876 108 
L 351.389876 108 
L 351.389876 108 
L 351.389876 108 
L 352.757862 110.427783 
L 354.074703 112.883683 
L 355.339824 115.366622 
L 356.552668 117.875511 
L 357.712704 120.409249 
L 358.819423 122.966726 
L 359.87234 125.54682 
L 360.870992 128.148398 
L 361.814942 130.770319 
L 362.703776 133.411435 
L 363.537103 136.070585 
L 364.314558 138.746604 
L 365.035801 141.438318 
L 365.700515 144.144547 
L 366.308407 146.864102 
L 366.859212 149.595792 
L 367.352689 152.338418 
L 367.78862 155.090777 
L 368.166814 157.851661 
L 368.487105 160.619861 
L 368.749354 163.394161 
L 368.953444 166.173345 
L 369.099287 168.956193 
L 369.186819 171.741485 
L 369.216 174.528 
L 369.186819 177.314515 
L 369.099287 180.099807 
L 368.953444 182.882655 
L 368.749354 185.661839 
L 368.487105 188.436139 
L 368.166814 191.204339 
L 367.78862 193.965223 
L 367.352689 196.717582 
L 366.859212 199.460208 
L 366.308407 202.191898 
L 365.700515 204.911453 
L 365.035801 207.617682 
L 364.314558 210.309396 
L 363.537103 212.985415 
L 362.703776 215.644565 
L 361.814942 218.285681 
L 360.870992 220.907602 
L 359.87234 223.50918 
L 358.819423 226.089274 
L 357.712704 228.646751 
L 356.552668 231.180489 
L 355.339824 233.689378 
L 354.074703 236.172317 
L 352.757862 238.628217 
L 351.389876 241.056 
L 349.971347 243.454602 
L 348.502896 245.82297 
L 346.985169 248.160066 
L 345.418829 250.464864 
L 343.804565 252.736355 
L 342.143085 254.97354 
L 340.435117 257.175439 
L 338.68141 259.341086 
L 336.882734 261.469532 
L 335.039878 263.559842 
L 333.15365 265.6111 
L 331.224877 267.622405 
L 329.254405 269.592877 
L 327.2431 271.52165 
L 325.191842 273.407878 
L 323.101532 275.250734 
L 320.973086 277.04941 
L 318.807439 278.803117 
L 316.60554 280.511085 
L 314.368355 282.172565 
L 312.096864 283.786829 
L 309.792066 285.353169 
L 307.45497 286.870896 
L 305.086602 288.339347 
L 302.688 289.757876 
L 300.260217 291.125862 
L 297.804317 292.442703 
L 295.321378 293.707824 
L 292.812489 294.920668 
L 290.278751 296.080704 
L 287.721274 297.187423 
L 285.14118 298.24034 
L 282.539602 299.238992 
L 279.917681 300.182942 
L 277.276565 301.071776 
L 274.617415 301.905103 
L 271.941396 302.682558 
L 269.249682 303.403801 
L 266.543453 304.068515 
L 263.823898 304.676407 
L 261.092208 305.227212 
L 258.349582 305.720689 
L 255.597223 306.15662 
L 252.836339 306.534814 
L 250.068139 306.855105 
L 247.293839 307.117354 
L 244.514655 307.321444 
L 241.731807 307.467287 
L 238.946515 307.554819 
L 236.16 307.584 
L 236.16 307.584 
L 236.16 307.584 
L 236.16 307.584 
L 236.16 307.584 
L 236.16 307.584 
L 236.16 307.584 
L 236.16 307.584 
L 236.16 307.584 
L 236.16 307.584 
L 236.16 307.584 
L 236.16 307.584 
L 236.16 307.584 
L 236.16 307.584 
L 236.16 307.584 
L 236.16 307.584 
L 236.16 307.584 
L 236.16 307.584 
L 236.16 307.584 
L 236.16 307.584 
L 236.16 307.584 
L 236.16 307.584 
L 236.16 307.584 
L 236.16 307.584 
L 236.16 307.584 
L 236.16 307.584 
L 236.16 307.584 
L 236.16 307.584 
L 236.16 307.584 
L 236.16 307.584 
L 236.16 307.584 
L 236.16 307.584 
L 236.16 307.584 
L 236.16 307.584 
L 236.16 307.584 
L 236.16 307.584 
L 236.16 307.584 
L 236.16 307.584 
L 236.16 307.584 
L 236.16 307.584 
L 236.16 307.584 
L 236.16 307.584 
L 236.16 307.584 
L 236.16 307.584 
L 236.16 307.584 
L 236.16 307.584 
L 236.16 307.584 
L 236.16 307.584 
L 236.16 307.584 
L 236.16 307.584 
L 236.16 307.584 
L 236.16 307.584 
L 236.16 307.584 
L 236.16 307.584 
L 236.16 307.584 
L 236.16 307.584 
L 236.16 307.584 
L 236.16 307.584 
L 236.16 307.584 
L 236.16 307.584 
L 236.16 307.584 
L 236.16 307.584 
L 236.16 307.584 
L 236.16 307.584 
L 236.16 307.584 
L 236.16 307.584 
L 236.16 307.584 
L 236.16 307.584 
L 236.16 307.584 
L 236.16 307.584 
L 236.16 307.584 
L 236.16 307.584 
L 236.16 307.584 
L 236.16 307.584 
L 236.16 307.584 
L 236.16 307.584 
L 236.16 307.584 
L 236.16 307.584 
L 236.16 307.584 
L 236.16 307.584 
L 236.16 307.584 
L 236.16 307.584 
L 236.16 307.584 
L 236.16 307.584 
L 236.16 307.584 
L 236.16 307.584 
L 236.16 307.584 
L 236.16 307.584 
L 236.16 307.584 
L 236.16 307.584 
L 236.16 307.584 
L 236.16 307.584 
L 236.16 307.584 
L 236.16 307.584 
L 236.16 307.584 
L 236.16 307.584 
L 236.16 307.584 
L 236.16 307.584 
L 236.16 307.584 
L 236.16 307.584 
z
" style="fill:#ff003c;"/>
   </g>
   <g id="patch_10">
    <path clip-path="url(#p921a9dfee3)" d="M 236.16 307.584 
L 238.946515 307.554819 
L 241.731807 307.467287 
L 244.514655 307.321444 
L 247.293839 307.117354 
L 250.068139 306.855105 
L 252.836339 306.534814 
L 255.597223 306.15662 
L 258.349582 305.720689 
L 261.092208 305.227212 
L 263.823898 304.676407 
L 266.543453 304.068515 
L 269.249682 303.403801 
L 271.941396 302.682558 
L 274.617415 301.905103 
L 277.276565 301.071776 
L 279.917681 300.182942 
L 282.539602 299.238992 
L 285.14118 298.24034 
L 287.721274 297.187423 
L 290.278751 296.080704 
L 292.812489 294.920668 
L 295.321378 293.707824 
L 297.804317 292.442703 
L 300.260217 291.125862 
L 302.688 289.757876 
L 305.086602 288.339347 
L 307.45497 286.870896 
L 309.792066 285.353169 
L 312.096864 283.786829 
L 314.368355 282.172565 
L 316.60554 280.511085 
L 318.807439 278.803117 
L 320.973086 277.04941 
L 323.101532 275.250734 
L 325.191842 273.407878 
L 327.2431 271.52165 
L 329.254405 269.592877 
L 331.224877 267.622405 
L 333.15365 265.6111 
L 335.039878 263.559842 
L 336.882734 261.469532 
L 338.68141 259.341086 
L 340.435117 257.175439 
L 342.143085 254.97354 
L 343.804565 252.736355 
L 345.418829 250.464864 
L 346.985169 248.160066 
L 348.502896 245.82297 
L 349.971347 243.454602 
L 351.389876 241.056 
L 352.757862 238.628217 
L 354.074703 236.172317 
L 355.339824 233.689378 
L 356.552668 231.180489 
L 357.712704 228.646751 
L 358.819423 226.089274 
L 359.87234 223.50918 
L 360.870992 220.907602 
L 361.814942 218.285681 
L 362.703776 215.644565 
L 363.537103 212.985415 
L 364.314558 210.309396 
L 365.035801 207.617682 
L 365.700515 204.911453 
L 366.308407 202.191898 
L 366.859212 199.460208 
L 367.352689 196.717582 
L 367.78862 193.965223 
L 368.166814 191.204339 
L 368.487105 188.436139 
L 368.749354 185.661839 
L 368.953444 182.882655 
L 369.099287 180.099807 
L 369.186819 177.314515 
L 369.216 174.528 
L 369.186819 171.741485 
L 369.099287 168.956193 
L 368.953444 166.173345 
L 368.749354 163.394161 
L 368.487105 160.619861 
L 368.166814 157.851661 
L 367.78862 155.090777 
L 367.352689 152.338418 
L 366.859212 149.595792 
L 366.308407 146.864102 
L 365.700515 144.144547 
L 365.035801 141.438318 
L 364.314558 138.746604 
L 363.537103 136.070585 
L 362.703776 133.411435 
L 361.814942 130.770319 
L 360.870992 128.148398 
L 359.87234 125.54682 
L 358.819423 122.966726 
L 357.712704 120.409249 
L 356.552668 117.875511 
L 355.339824 115.366622 
L 354.074703 112.883683 
L 352.757862 110.427783 
L 351.389876 108 
L 351.389876 108 
L 351.389876 108 
L 351.389876 108 
L 351.389876 108 
L 351.389876 108 
L 351.389876 108 
L 351.389876 108 
L 351.389876 108 
L 351.389876 108 
L 351.389876 108 
L 351.389876 108 
L 351.389876 108 
L 351.389876 108 
L 351.389876 108 
L 351.389876 108 
L 351.389876 108 
L 351.389876 108 
L 351.389876 108 
L 351.389876 108 
L 351.389876 108 
L 351.389876 108 
L 351.389876 108 
L 351.389876 108 
L 351.389876 108 
L 351.389876 108 
L 351.389876 108 
L 351.389876 108 
L 351.389876 108 
L 351.389876 108 
L 351.389876 108 
L 351.389876 108 
L 351.389876 108 
L 351.389876 108 
L 351.389876 108 
L 351.389876 108 
L 351.389876 108 
L 351.389876 108 
L 351.389876 108 
L 351.389876 108 
L 351.389876 108 
L 351.389876 108 
L 351.389876 108 
L 351.389876 108 
L 351.389876 108 
L 351.389876 108 
L 351.389876 108 
L 351.389876 108 
L 351.389876 108 
L 351.389876 108 
L 351.389876 108 
L 351.389876 108 
L 351.389876 108 
L 351.389876 108 
L 351.389876 108 
L 351.389876 108 
L 351.389876 108 
L 351.389876 108 
L 351.389876 108 
L 351.389876 108 
L 351.389876 108 
L 351.389876 108 
L 351.389876 108 
L 351.389876 108 
L 351.389876 108 
L 351.389876 108 
L 351.389876 108 
L 351.389876 108 
L 351.389876 108 
L 351.389876 108 
L 351.389876 108 
L 351.389876 108 
L 351.389876 108 
L 351.389876 108 
L 351.389876 108 
L 351.389876 108 
L 351.389876 108 
L 351.389876 108 
L 351.389876 108 
L 351.389876 108 
L 351.389876 108 
L 351.389876 108 
L 351.389876 108 
L 351.389876 108 
L 351.389876 108 
L 351.389876 108 
L 351.389876 108 
L 351.389876 108 
L 351.389876 108 
L 351.389876 108 
L 351.389876 108 
L 351.389876 108 
L 351.389876 108 
L 351.389876 108 
L 351.389876 108 
L 351.389876 108 
L 351.389876 108 
L 351.389876 108 
L 351.389876 108 
L 351.389876 108 
L 351.389876 108 
L 352.757862 110.427783 
L 354.074703 112.883683 
L 355.339824 115.366622 
L 356.552668 117.875511 
L 357.712704 120.409249 
L 358.819423 122.966726 
L 359.87234 125.54682 
L 360.870992 128.148398 
L 361.814942 130.770319 
L 362.703776 133.411435 
L 363.537103 136.070585 
L 364.314558 138.746604 
L 365.035801 141.438318 
L 365.700515 144.144547 
L 366.308407 146.864102 
L 366.859212 149.595792 
L 367.352689 152.338418 
L 367.78862 155.090777 
L 368.166814 157.851661 
L 368.487105 160.619861 
L 368.749354 163.394161 
L 368.953444 166.173345 
L 369.099287 168.956193 
L 369.186819 171.741485 
L 369.216 174.528 
L 369.186819 177.314515 
L 369.099287 180.099807 
L 368.953444 182.882655 
L 368.749354 185.661839 
L 368.487105 188.436139 
L 368.166814 191.204339 
L 367.78862 193.965223 
L 367.352689 196.717582 
L 366.859212 199.460208 
L 366.308407 202.191898 
L 365.700515 204.911453 
L 365.035801 207.617682 
L 364.314558 210.309396 
L 363.537103 212.985415 
L 362.703776 215.644565 
L 361.814942 218.285681 
L 360.870992 220.907602 
L 359.87234 223.50918 
L 358.819423 226.089274 
L 357.712704 228.646751 
L 356.552668 231.180489 
L 355.339824 233.689378 
L 354.074703 236.172317 
L 352.757862 238.628217 
L 351.389876 241.056 
L 349.971347 243.454602 
L 348.502896 245.82297 
L 346.985169 248.160066 
L 345.418829 250.464864 
L 343.804565 252.736355 
L 342.143085 254.97354 
L 340.435117 257.175439 
L 338.68141 259.341086 
L 336.882734 261.469532 
L 335.039878 263.559842 
L 333.15365 265.6111 
L 331.224877 267.622405 
L 329.254405 269.592877 
L 327.2431 271.52165 
L 325.191842 273.407878 
L 323.101532 275.250734 
L 320.973086 277.04941 
L 318.807439 278.803117 
L 316.60554 280.511085 
L 314.368355 282.172565 
L 312.096864 283.786829 
L 309.792066 285.353169 
L 307.45497 286.870896 
L 305.086602 288.339347 
L 302.688 289.757876 
L 300.260217 291.125862 
L 297.804317 292.442703 
L 295.321378 293.707824 
L 292.812489 294.920668 
L 290.278751 296.080704 
L 287.721274 297.187423 
L 285.14118 298.24034 
L 282.539602 299.238992 
L 279.917681 300.182942 
L 277.276565 301.071776 
L 274.617415 301.905103 
L 271.941396 302.682558 
L 269.249682 303.403801 
L 266.543453 304.068515 
L 263.823898 304.676407 
L 261.092208 305.227212 
L 258.349582 305.720689 
L 255.597223 306.15662 
L 252.836339 306.534814 
L 250.068139 306.855105 
L 247.293839 307.117354 
L 244.514655 307.321444 
L 241.731807 307.467287 
L 238.946515 307.554819 
L 236.16 307.584 
L 236.16 307.584 
L 236.16 307.584 
L 236.16 307.584 
L 236.16 307.584 
L 236.16 307.584 
L 236.16 307.584 
L 236.16 307.584 
L 236.16 307.584 
L 236.16 307.584 
L 236.16 307.584 
L 236.16 307.584 
L 236.16 307.584 
L 236.16 307.584 
L 236.16 307.584 
L 236.16 307.584 
L 236.16 307.584 
L 236.16 307.584 
L 236.16 307.584 
L 236.16 307.584 
L 236.16 307.584 
L 236.16 307.584 
L 236.16 307.584 
L 236.16 307.584 
L 236.16 307.584 
L 236.16 307.584 
L 236.16 307.584 
L 236.16 307.584 
L 236.16 307.584 
L 236.16 307.584 
L 236.16 307.584 
L 236.16 307.584 
L 236.16 307.584 
L 236.16 307.584 
L 236.16 307.584 
L 236.16 307.584 
L 236.16 307.584 
L 236.16 307.584 
L 236.16 307.584 
L 236.16 307.584 
L 236.16 307.584 
L 236.16 307.584 
L 236.16 307.584 
L 236.16 307.584 
L 236.16 307.584 
L 236.16 307.584 
L 236.16 307.584 
L 236.16 307.584 
L 236.16 307.584 
L 236.16 307.584 
L 236.16 307.584 
L 236.16 307.584 
L 236.16 307.584 
L 236.16 307.584 
L 236.16 307.584 
L 236.16 307.584 
L 236.16 307.584 
L 236.16 307.584 
L 236.16 307.584 
L 236.16 307.584 
L 236.16 307.584 
L 236.16 307.584 
L 236.16 307.584 
L 236.16 307.584 
L 236.16 307.584 
L 236.16 307.584 
L 236.16 307.584 
L 236.16 307.584 
L 236.16 307.584 
L 236.16 307.584 
L 236.16 307.584 
L 236.16 307.584 
L 236.16 307.584 
L 236.16 307.584 
L 236.16 307.584 
L 236.16 307.584 
L 236.16 307.584 
L 236.16 307.584 
L 236.16 307.584 
L 236.16 307.584 
L 236.16 307.584 
L 236.16 307.584 
L 236.16 307.584 
L 236.16 307.584 
L 236.16 307.584 
L 236.16 307.584 
L 236.16 307.584 
L 236.16 307.584 
L 236.16 307.584 
L 236.16 307.584 
L 236.16 307.584 
L 236.16 307.584 
L 236.16 307.584 
L 236.16 307.584 
L 236.16 307.584 
L 236.16 307.584 
L 236.16 307.584 
L 236.16 307.584 
L 236.16 307.584 
L 236.16 307.584 
z
" style="fill:#88c100;"/>
   </g>
  </g>
 </g>
 <defs>
  <clipPath id="p921a9dfee3">
   <path d="M 369.216 174.528 
C 369.216 157.055246 365.774248 139.752393 359.087715 123.609673 
C 352.401182 107.466954 342.599903 92.798303 330.2448 80.4432 
C 317.889697 68.088097 303.221046 58.286818 287.078327 51.600285 
C 270.935607 44.913752 253.632754 41.472 236.16 41.472 
C 218.687246 41.472 201.384393 44.913752 185.241673 51.600285 
C 169.098954 58.286818 154.430303 68.088097 142.0752 80.4432 
C 129.720097 92.798303 119.918818 107.466954 113.232285 123.609673 
C 106.545752 139.752393 103.104 157.055246 103.104 174.528 
C 103.104 192.000754 106.545752 209.303607 113.232285 225.446327 
C 119.918818 241.589046 129.720097 256.257697 142.0752 268.6128 
C 154.430303 280.967903 169.098954 290.769182 185.241673 297.455715 
C 201.384393 304.142248 218.687246 307.584 236.16 307.584 
C 253.632754 307.584 270.935607 304.142248 287.078327 297.455715 
C 303.221046 290.769182 317.889697 280.967903 330.2448 268.6128 
C 342.599903 256.257697 352.401182 241.589046 359.087715 225.446327 
C 365.774248 209.303607 369.216 192.000754 369.216 174.528 
M 236.16 174.528 
C 236.16 174.528 236.16 174.528 236.16 174.528 
C 236.16 174.528 236.16 174.528 236.16 174.528 
C 236.16 174.528 236.16 174.528 236.16 174.528 
C 236.16 174.528 236.16 174.528 236.16 174.528 
C 236.16 174.528 236.16 174.528 236.16 174.528 
C 236.16 174.528 236.16 174.528 236.16 174.528 
C 236.16 174.528 236.16 174.528 236.16 174.528 
C 236.16 174.528 236.16 174.528 236.16 174.528 
C 236.16 174.528 236.16 174.528 236.16 174.528 
C 236.16 174.528 236.16 174.528 236.16 174.528 
C 236.16 174.528 236.16 174.528 236.16 174.528 
C 236.16 174.528 236.16 174.528 236.16 174.528 
C 236.16 174.528 236.16 174.528 236.16 174.528 
C 236.16 174.528 236.16 174.528 236.16 174.528 
C 236.16 174.528 236.16 174.528 236.16 174.528 
C 236.16 174.528 236.16 174.528 236.16 174.528 
M 369.216 174.528 
z
"/>
  </clipPath>
 </defs>
</svg>
