<?xml version="1.0" encoding="utf-8" standalone="no"?>
<!DOCTYPE svg PUBLIC "-//W3C//DTD SVG 1.1//EN"
  "http://www.w3.org/Graphics/SVG/1.1/DTD/svg11.dtd">
<!-- Created with matplotlib (https://matplotlib.org/) -->
<svg height="345.6pt" version="1.1" viewBox="0 0 460.8 345.6" width="460.8pt" xmlns="http://www.w3.org/2000/svg" xmlns:xlink="http://www.w3.org/1999/xlink">
 <defs>
  <style type="text/css">
*{stroke-linecap:butt;stroke-linejoin:round;}
  </style>
 </defs>
 <g id="figure_1">
  <g id="patch_1">
   <path d="M 0 345.6 
L 460.8 345.6 
L 460.8 0 
L 0 0 
z
" style="fill:none;"/>
  </g>
  <g id="axes_1">
   <g id="patch_2">
    <path clip-path="url(#p7356dc63a4)" d="M 236.16 174.528 
L 236.16 174.528 
L 236.16 174.528 
L 236.16 174.528 
L 236.16 174.528 
L 236.16 174.528 
L 236.16 174.528 
L 236.16 174.528 
L 236.16 174.528 
L 236.16 174.528 
L 236.16 174.528 
L 236.16 174.528 
L 236.16 174.528 
L 236.16 174.528 
L 236.16 174.528 
L 236.16 174.528 
L 236.16 174.528 
L 236.16 174.528 
L 236.16 174.528 
L 236.16 174.528 
L 236.16 174.528 
L 236.16 174.528 
L 236.16 174.528 
L 236.16 174.528 
L 236.16 174.528 
L 236.16 174.528 
L 236.16 174.528 
L 236.16 174.528 
L 236.16 174.528 
L 236.16 174.528 
L 236.16 174.528 
L 236.16 174.528 
L 236.16 174.528 
L 236.16 174.528 
L 236.16 174.528 
L 236.16 174.528 
L 236.16 174.528 
L 236.16 174.528 
L 236.16 174.528 
L 236.16 174.528 
L 236.16 174.528 
L 236.16 174.528 
L 236.16 174.528 
L 236.16 174.528 
L 236.16 174.528 
L 236.16 174.528 
L 236.16 174.528 
L 236.16 174.528 
L 236.16 174.528 
L 236.16 174.528 
L 236.16 174.528 
L 236.16 174.528 
L 236.16 174.528 
L 236.16 174.528 
L 236.16 174.528 
L 236.16 174.528 
L 236.16 174.528 
L 236.16 174.528 
L 236.16 174.528 
L 236.16 174.528 
L 236.16 174.528 
L 236.16 174.528 
L 236.16 174.528 
L 236.16 174.528 
L 236.16 174.528 
L 236.16 174.528 
L 236.16 174.528 
L 236.16 174.528 
L 236.16 174.528 
L 236.16 174.528 
L 236.16 174.528 
L 236.16 174.528 
L 236.16 174.528 
L 236.16 174.528 
L 236.16 174.528 
L 236.16 174.528 
L 236.16 174.528 
L 236.16 174.528 
L 236.16 174.528 
L 236.16 174.528 
L 236.16 174.528 
L 236.16 174.528 
L 236.16 174.528 
L 236.16 174.528 
L 236.16 174.528 
L 236.16 174.528 
L 236.16 174.528 
L 236.16 174.528 
L 236.16 174.528 
L 236.16 174.528 
L 236.16 174.528 
L 236.16 174.528 
L 236.16 174.528 
L 236.16 174.528 
L 236.16 174.528 
L 236.16 174.528 
L 236.16 174.528 
L 236.16 174.528 
L 236.16 174.528 
L 236.16 174.528 
L 236.16 174.528 
L 235.007701 173.86272 
L 233.855402 173.19744 
L 232.703104 172.53216 
L 231.550805 171.86688 
L 230.398506 171.2016 
L 229.246207 170.53632 
L 228.093909 169.87104 
L 226.94161 169.20576 
L 225.789311 168.54048 
L 224.637012 167.8752 
L 223.484714 167.20992 
L 222.332415 166.54464 
L 221.180116 165.87936 
L 220.027817 165.21408 
L 218.875519 164.5488 
L 217.72322 163.88352 
L 216.570921 163.21824 
L 215.418622 162.55296 
L 214.266324 161.88768 
L 213.114025 161.2224 
L 211.961726 160.55712 
L 210.809427 159.89184 
L 209.657128 159.22656 
L 208.50483 158.56128 
L 207.352531 157.896 
L 206.200232 157.23072 
L 205.047933 156.56544 
L 203.895635 155.90016 
L 202.743336 155.23488 
L 201.591037 154.5696 
L 200.438738 153.90432 
L 199.28644 153.23904 
L 198.134141 152.57376 
L 196.981842 151.90848 
L 195.829543 151.2432 
L 194.677245 150.57792 
L 193.524946 149.91264 
L 192.372647 149.24736 
L 191.220348 148.58208 
L 190.06805 147.9168 
L 188.915751 147.25152 
L 187.763452 146.58624 
L 186.611153 145.92096 
L 185.458855 145.25568 
L 184.306556 144.5904 
L 183.154257 143.92512 
L 182.001958 143.25984 
L 180.849659 142.59456 
L 179.697361 141.92928 
L 178.545062 141.264 
L 177.392763 140.59872 
L 176.240464 139.93344 
L 175.088166 139.26816 
L 173.935867 138.60288 
L 172.783568 137.9376 
L 171.631269 137.27232 
L 170.478971 136.60704 
L 169.326672 135.94176 
L 168.174373 135.27648 
L 167.022074 134.6112 
L 165.869776 133.94592 
L 164.717477 133.28064 
L 163.565178 132.61536 
L 162.412879 131.95008 
L 161.260581 131.2848 
L 160.108282 130.61952 
L 158.955983 129.95424 
L 157.803684 129.28896 
L 156.651385 128.62368 
L 155.499087 127.9584 
L 154.346788 127.29312 
L 153.194489 126.62784 
L 152.04219 125.96256 
L 150.889892 125.29728 
L 149.737593 124.632 
L 148.585294 123.96672 
L 147.432995 123.30144 
L 146.280697 122.63616 
L 145.128398 121.97088 
L 143.976099 121.3056 
L 142.8238 120.64032 
L 141.671502 119.97504 
L 140.519203 119.30976 
L 139.366904 118.64448 
L 138.214605 117.9792 
L 137.062307 117.31392 
L 135.910008 116.64864 
L 134.757709 115.98336 
L 133.60541 115.31808 
L 132.453111 114.6528 
L 131.300813 113.98752 
L 130.148514 113.32224 
L 128.996215 112.65696 
L 127.843916 111.99168 
L 126.691618 111.3264 
L 125.539319 110.66112 
L 124.38702 109.99584 
L 123.234721 109.33056 
L 122.082423 108.66528 
L 120.930124 108 
L 122.348653 105.601398 
L 123.817104 103.23303 
L 125.334831 100.895934 
L 126.901171 98.591136 
L 128.515435 96.319645 
L 130.176915 94.08246 
L 131.884883 91.880561 
L 133.63859 89.714914 
L 135.437266 87.586468 
L 137.280122 85.496158 
L 139.16635 83.4449 
L 141.095123 81.433595 
L 143.065595 79.463123 
L 145.0769 77.53435 
L 147.128158 75.648122 
L 149.218468 73.805266 
L 151.346914 72.00659 
L 153.512561 70.252883 
L 155.71446 68.544915 
L 157.951645 66.883435 
L 160.223136 65.269171 
L 162.527934 63.702831 
L 164.86503 62.185104 
L 167.233398 60.716653 
L 169.632 59.298124 
L 172.059783 57.930138 
L 174.515683 56.613297 
L 176.998622 55.348176 
L 179.507511 54.135332 
L 182.041249 52.975296 
L 184.598726 51.868577 
L 187.17882 50.81566 
L 189.780398 49.817008 
L 192.402319 48.873058 
L 195.043435 47.984224 
L 197.702585 47.150897 
L 200.378604 46.373442 
L 203.070318 45.652199 
L 205.776547 44.987485 
L 208.496102 44.379593 
L 211.227792 43.828788 
L 213.970418 43.335311 
L 216.722777 42.89938 
L 219.483661 42.521186 
L 222.251861 42.200895 
L 225.026161 41.938646 
L 227.805345 41.734556 
L 230.588193 41.588713 
L 233.373485 41.501181 
L 236.16 41.472 
L 238.946515 41.501181 
L 241.731807 41.588713 
L 244.514655 41.734556 
L 247.293839 41.938646 
L 250.068139 42.200895 
L 252.836339 42.521186 
L 255.597223 42.89938 
L 258.349582 43.335311 
L 261.092208 43.828788 
L 263.823898 44.379593 
L 266.543453 44.987485 
L 269.249682 45.652199 
L 271.941396 46.373442 
L 274.617415 47.150897 
L 277.276565 47.984224 
L 279.917681 48.873058 
L 282.539602 49.817008 
L 285.14118 50.81566 
L 287.721274 51.868577 
L 290.278751 52.975296 
L 292.812489 54.135332 
L 295.321378 55.348176 
L 297.804317 56.613297 
L 300.260217 57.930138 
L 302.688 59.298124 
L 305.086602 60.716653 
L 307.45497 62.185104 
L 309.792066 63.702831 
L 312.096864 65.269171 
L 314.368355 66.883435 
L 316.60554 68.544915 
L 318.807439 70.252883 
L 320.973086 72.00659 
L 323.101532 73.805266 
L 325.191842 75.648122 
L 327.2431 77.53435 
L 329.254405 79.463123 
L 331.224877 81.433595 
L 333.15365 83.4449 
L 335.039878 85.496158 
L 336.882734 87.586468 
L 338.68141 89.714914 
L 340.435117 91.880561 
L 342.143085 94.08246 
L 343.804565 96.319645 
L 345.418829 98.591136 
L 346.985169 100.895934 
L 348.502896 103.23303 
L 349.971347 105.601398 
L 351.389876 108 
L 350.237577 108.66528 
L 349.085279 109.33056 
L 347.93298 109.99584 
L 346.780681 110.66112 
L 345.628382 111.3264 
L 344.476084 111.99168 
L 343.323785 112.65696 
L 342.171486 113.32224 
L 341.019187 113.98752 
L 339.866889 114.6528 
L 338.71459 115.31808 
L 337.562291 115.98336 
L 336.409992 116.64864 
L 335.257693 117.31392 
L 334.105395 117.9792 
L 332.953096 118.64448 
L 331.800797 119.30976 
L 330.648498 119.97504 
L 329.4962 120.64032 
L 328.343901 121.3056 
L 327.191602 121.97088 
L 326.039303 122.63616 
L 324.887005 123.30144 
L 323.734706 123.96672 
L 322.582407 124.632 
L 321.430108 125.29728 
L 320.27781 125.96256 
L 319.125511 126.62784 
L 317.973212 127.29312 
L 316.820913 127.9584 
L 315.668615 128.62368 
L 314.516316 129.28896 
L 313.364017 129.95424 
L 312.211718 130.61952 
L 311.059419 131.2848 
L 309.907121 131.95008 
L 308.754822 132.61536 
L 307.602523 133.28064 
L 306.450224 133.94592 
L 305.297926 134.6112 
L 304.145627 135.27648 
L 302.993328 135.94176 
L 301.841029 136.60704 
L 300.688731 137.27232 
L 299.536432 137.9376 
L 298.384133 138.60288 
L 297.231834 139.26816 
L 296.079536 139.93344 
L 294.927237 140.59872 
L 293.774938 141.264 
L 292.622639 141.92928 
L 291.470341 142.59456 
L 290.318042 143.25984 
L 289.165743 143.92512 
L 288.013444 144.5904 
L 286.861145 145.25568 
L 285.708847 145.92096 
L 284.556548 146.58624 
L 283.404249 147.25152 
L 282.25195 147.9168 
L 281.099652 148.58208 
L 279.947353 149.24736 
L 278.795054 149.91264 
L 277.642755 150.57792 
L 276.490457 151.2432 
L 275.338158 151.90848 
L 274.185859 152.57376 
L 273.03356 153.23904 
L 271.881262 153.90432 
L 270.728963 154.5696 
L 269.576664 155.23488 
L 268.424365 155.90016 
L 267.272067 156.56544 
L 266.119768 157.23072 
L 264.967469 157.896 
L 263.81517 158.56128 
L 262.662872 159.22656 
L 261.510573 159.89184 
L 260.358274 160.55712 
L 259.205975 161.2224 
L 258.053676 161.88768 
L 256.901378 162.55296 
L 255.749079 163.21824 
L 254.59678 163.88352 
L 253.444481 164.5488 
L 252.292183 165.21408 
L 251.139884 165.87936 
L 249.987585 166.54464 
L 248.835286 167.20992 
L 247.682988 167.8752 
L 246.530689 168.54048 
L 245.37839 169.20576 
L 244.226091 169.87104 
L 243.073793 170.53632 
L 241.921494 171.2016 
L 240.769195 171.86688 
L 239.616896 172.53216 
L 238.464598 173.19744 
L 237.312299 173.86272 
z
" style="fill:#fabe28;"/>
   </g>
   <g id="patch_3">
    <path clip-path="url(#p7356dc63a4)" d="M 351.389876 108 
L 349.971347 105.601398 
L 348.502896 103.23303 
L 346.985169 100.895934 
L 345.418829 98.591136 
L 343.804565 96.319645 
L 342.143085 94.08246 
L 340.435117 91.880561 
L 338.68141 89.714914 
L 336.882734 87.586468 
L 335.039878 85.496158 
L 333.15365 83.4449 
L 331.224877 81.433595 
L 329.254405 79.463123 
L 327.2431 77.53435 
L 325.191842 75.648122 
L 323.101532 73.805266 
L 320.973086 72.00659 
L 318.807439 70.252883 
L 316.60554 68.544915 
L 314.368355 66.883435 
L 312.096864 65.269171 
L 309.792066 63.702831 
L 307.45497 62.185104 
L 305.086602 60.716653 
L 302.688 59.298124 
L 300.260217 57.930138 
L 297.804317 56.613297 
L 295.321378 55.348176 
L 292.812489 54.135332 
L 290.278751 52.975296 
L 287.721274 51.868577 
L 285.14118 50.81566 
L 282.539602 49.817008 
L 279.917681 48.873058 
L 277.276565 47.984224 
L 274.617415 47.150897 
L 271.941396 46.373442 
L 269.249682 45.652199 
L 266.543453 44.987485 
L 263.823898 44.379593 
L 261.092208 43.828788 
L 258.349582 43.335311 
L 255.597223 42.89938 
L 252.836339 42.521186 
L 250.068139 42.200895 
L 247.293839 41.938646 
L 244.514655 41.734556 
L 241.731807 41.588713 
L 238.946515 41.501181 
L 236.16 41.472 
L 233.373485 41.501181 
L 230.588193 41.588713 
L 227.805345 41.734556 
L 225.026161 41.938646 
L 222.251861 42.200895 
L 219.483661 42.521186 
L 216.722777 42.89938 
L 213.970418 43.335311 
L 211.227792 43.828788 
L 208.496102 44.379593 
L 205.776547 44.987485 
L 203.070318 45.652199 
L 200.378604 46.373442 
L 197.702585 47.150897 
L 195.043435 47.984224 
L 192.402319 48.873058 
L 189.780398 49.817008 
L 187.17882 50.81566 
L 184.598726 51.868577 
L 182.041249 52.975296 
L 179.507511 54.135332 
L 176.998622 55.348176 
L 174.515683 56.613297 
L 172.059783 57.930138 
L 169.632 59.298124 
L 167.233398 60.716653 
L 164.86503 62.185104 
L 162.527934 63.702831 
L 160.223136 65.269171 
L 157.951645 66.883435 
L 155.71446 68.544915 
L 153.512561 70.252883 
L 151.346914 72.00659 
L 149.218468 73.805266 
L 147.128158 75.648122 
L 145.0769 77.53435 
L 143.065595 79.463123 
L 141.095123 81.433595 
L 139.16635 83.4449 
L 137.280122 85.496158 
L 135.437266 87.586468 
L 133.63859 89.714914 
L 131.884883 91.880561 
L 130.176915 94.08246 
L 128.515435 96.319645 
L 126.901171 98.591136 
L 125.334831 100.895934 
L 123.817104 103.23303 
L 122.348653 105.601398 
L 120.930124 108 
L 120.930124 108 
L 120.930124 108 
L 120.930124 108 
L 120.930124 108 
L 120.930124 108 
L 120.930124 108 
L 120.930124 108 
L 120.930124 108 
L 120.930124 108 
L 120.930124 108 
L 120.930124 108 
L 120.930124 108 
L 120.930124 108 
L 120.930124 108 
L 120.930124 108 
L 120.930124 108 
L 120.930124 108 
L 120.930124 108 
L 120.930124 108 
L 120.930124 108 
L 120.930124 108 
L 120.930124 108 
L 120.930124 108 
L 120.930124 108 
L 120.930124 108 
L 120.930124 108 
L 120.930124 108 
L 120.930124 108 
L 120.930124 108 
L 120.930124 108 
L 120.930124 108 
L 120.930124 108 
L 120.930124 108 
L 120.930124 108 
L 120.930124 108 
L 120.930124 108 
L 120.930124 108 
L 120.930124 108 
L 120.930124 108 
L 120.930124 108 
L 120.930124 108 
L 120.930124 108 
L 120.930124 108 
L 120.930124 108 
L 120.930124 108 
L 120.930124 108 
L 120.930124 108 
L 120.930124 108 
L 120.930124 108 
L 120.930124 108 
L 120.930124 108 
L 120.930124 108 
L 120.930124 108 
L 120.930124 108 
L 120.930124 108 
L 120.930124 108 
L 120.930124 108 
L 120.930124 108 
L 120.930124 108 
L 120.930124 108 
L 120.930124 108 
L 120.930124 108 
L 120.930124 108 
L 120.930124 108 
L 120.930124 108 
L 120.930124 108 
L 120.930124 108 
L 120.930124 108 
L 120.930124 108 
L 120.930124 108 
L 120.930124 108 
L 120.930124 108 
L 120.930124 108 
L 120.930124 108 
L 120.930124 108 
L 120.930124 108 
L 120.930124 108 
L 120.930124 108 
L 120.930124 108 
L 120.930124 108 
L 120.930124 108 
L 120.930124 108 
L 120.930124 108 
L 120.930124 108 
L 120.930124 108 
L 120.930124 108 
L 120.930124 108 
L 120.930124 108 
L 120.930124 108 
L 120.930124 108 
L 120.930124 108 
L 120.930124 108 
L 120.930124 108 
L 120.930124 108 
L 120.930124 108 
L 120.930124 108 
L 120.930124 108 
L 120.930124 108 
L 120.930124 108 
L 120.930124 108 
L 122.348653 105.601398 
L 123.817104 103.23303 
L 125.334831 100.895934 
L 126.901171 98.591136 
L 128.515435 96.319645 
L 130.176915 94.08246 
L 131.884883 91.880561 
L 133.63859 89.714914 
L 135.437266 87.586468 
L 137.280122 85.496158 
L 139.16635 83.4449 
L 141.095123 81.433595 
L 143.065595 79.463123 
L 145.0769 77.53435 
L 147.128158 75.648122 
L 149.218468 73.805266 
L 151.346914 72.00659 
L 153.512561 70.252883 
L 155.71446 68.544915 
L 157.951645 66.883435 
L 160.223136 65.269171 
L 162.527934 63.702831 
L 164.86503 62.185104 
L 167.233398 60.716653 
L 169.632 59.298124 
L 172.059783 57.930138 
L 174.515683 56.613297 
L 176.998622 55.348176 
L 179.507511 54.135332 
L 182.041249 52.975296 
L 184.598726 51.868577 
L 187.17882 50.81566 
L 189.780398 49.817008 
L 192.402319 48.873058 
L 195.043435 47.984224 
L 197.702585 47.150897 
L 200.378604 46.373442 
L 203.070318 45.652199 
L 205.776547 44.987485 
L 208.496102 44.379593 
L 211.227792 43.828788 
L 213.970418 43.335311 
L 216.722777 42.89938 
L 219.483661 42.521186 
L 222.251861 42.200895 
L 225.026161 41.938646 
L 227.805345 41.734556 
L 230.588193 41.588713 
L 233.373485 41.501181 
L 236.16 41.472 
L 238.946515 41.501181 
L 241.731807 41.588713 
L 244.514655 41.734556 
L 247.293839 41.938646 
L 250.068139 42.200895 
L 252.836339 42.521186 
L 255.597223 42.89938 
L 258.349582 43.335311 
L 261.092208 43.828788 
L 263.823898 44.379593 
L 266.543453 44.987485 
L 269.249682 45.652199 
L 271.941396 46.373442 
L 274.617415 47.150897 
L 277.276565 47.984224 
L 279.917681 48.873058 
L 282.539602 49.817008 
L 285.14118 50.81566 
L 287.721274 51.868577 
L 290.278751 52.975296 
L 292.812489 54.135332 
L 295.321378 55.348176 
L 297.804317 56.613297 
L 300.260217 57.930138 
L 302.688 59.298124 
L 305.086602 60.716653 
L 307.45497 62.185104 
L 309.792066 63.702831 
L 312.096864 65.269171 
L 314.368355 66.883435 
L 316.60554 68.544915 
L 318.807439 70.252883 
L 320.973086 72.00659 
L 323.101532 73.805266 
L 325.191842 75.648122 
L 327.2431 77.53435 
L 329.254405 79.463123 
L 331.224877 81.433595 
L 333.15365 83.4449 
L 335.039878 85.496158 
L 336.882734 87.586468 
L 338.68141 89.714914 
L 340.435117 91.880561 
L 342.143085 94.08246 
L 343.804565 96.319645 
L 345.418829 98.591136 
L 346.985169 100.895934 
L 348.502896 103.23303 
L 349.971347 105.601398 
L 351.389876 108 
L 351.389876 108 
L 351.389876 108 
L 351.389876 108 
L 351.389876 108 
L 351.389876 108 
L 351.389876 108 
L 351.389876 108 
L 351.389876 108 
L 351.389876 108 
L 351.389876 108 
L 351.389876 108 
L 351.389876 108 
L 351.389876 108 
L 351.389876 108 
L 351.389876 108 
L 351.389876 108 
L 351.389876 108 
L 351.389876 108 
L 351.389876 108 
L 351.389876 108 
L 351.389876 108 
L 351.389876 108 
L 351.389876 108 
L 351.389876 108 
L 351.389876 108 
L 351.389876 108 
L 351.389876 108 
L 351.389876 108 
L 351.389876 108 
L 351.389876 108 
L 351.389876 108 
L 351.389876 108 
L 351.389876 108 
L 351.389876 108 
L 351.389876 108 
L 351.389876 108 
L 351.389876 108 
L 351.389876 108 
L 351.389876 108 
L 351.389876 108 
L 351.389876 108 
L 351.389876 108 
L 351.389876 108 
L 351.389876 108 
L 351.389876 108 
L 351.389876 108 
L 351.389876 108 
L 351.389876 108 
L 351.389876 108 
L 351.389876 108 
L 351.389876 108 
L 351.389876 108 
L 351.389876 108 
L 351.389876 108 
L 351.389876 108 
L 351.389876 108 
L 351.389876 108 
L 351.389876 108 
L 351.389876 108 
L 351.389876 108 
L 351.389876 108 
L 351.389876 108 
L 351.389876 108 
L 351.389876 108 
L 351.389876 108 
L 351.389876 108 
L 351.389876 108 
L 351.389876 108 
L 351.389876 108 
L 351.389876 108 
L 351.389876 108 
L 351.389876 108 
L 351.389876 108 
L 351.389876 108 
L 351.389876 108 
L 351.389876 108 
L 351.389876 108 
L 351.389876 108 
L 351.389876 108 
L 351.389876 108 
L 351.389876 108 
L 351.389876 108 
L 351.389876 108 
L 351.389876 108 
L 351.389876 108 
L 351.389876 108 
L 351.389876 108 
L 351.389876 108 
L 351.389876 108 
L 351.389876 108 
L 351.389876 108 
L 351.389876 108 
L 351.389876 108 
L 351.389876 108 
L 351.389876 108 
L 351.389876 108 
L 351.389876 108 
L 351.389876 108 
L 351.389876 108 
z
" style="fill:#ff003c;"/>
   </g>
   <g id="patch_4">
    <path clip-path="url(#p7356dc63a4)" d="M 351.389876 108 
L 349.971347 105.601398 
L 348.502896 103.23303 
L 346.985169 100.895934 
L 345.418829 98.591136 
L 343.804565 96.319645 
L 342.143085 94.08246 
L 340.435117 91.880561 
L 338.68141 89.714914 
L 336.882734 87.586468 
L 335.039878 85.496158 
L 333.15365 83.4449 
L 331.224877 81.433595 
L 329.254405 79.463123 
L 327.2431 77.53435 
L 325.191842 75.648122 
L 323.101532 73.805266 
L 320.973086 72.00659 
L 318.807439 70.252883 
L 316.60554 68.544915 
L 314.368355 66.883435 
L 312.096864 65.269171 
L 309.792066 63.702831 
L 307.45497 62.185104 
L 305.086602 60.716653 
L 302.688 59.298124 
L 300.260217 57.930138 
L 297.804317 56.613297 
L 295.321378 55.348176 
L 292.812489 54.135332 
L 290.278751 52.975296 
L 287.721274 51.868577 
L 285.14118 50.81566 
L 282.539602 49.817008 
L 279.917681 48.873058 
L 277.276565 47.984224 
L 274.617415 47.150897 
L 271.941396 46.373442 
L 269.249682 45.652199 
L 266.543453 44.987485 
L 263.823898 44.379593 
L 261.092208 43.828788 
L 258.349582 43.335311 
L 255.597223 42.89938 
L 252.836339 42.521186 
L 250.068139 42.200895 
L 247.293839 41.938646 
L 244.514655 41.734556 
L 241.731807 41.588713 
L 238.946515 41.501181 
L 236.16 41.472 
L 233.373485 41.501181 
L 230.588193 41.588713 
L 227.805345 41.734556 
L 225.026161 41.938646 
L 222.251861 42.200895 
L 219.483661 42.521186 
L 216.722777 42.89938 
L 213.970418 43.335311 
L 211.227792 43.828788 
L 208.496102 44.379593 
L 205.776547 44.987485 
L 203.070318 45.652199 
L 200.378604 46.373442 
L 197.702585 47.150897 
L 195.043435 47.984224 
L 192.402319 48.873058 
L 189.780398 49.817008 
L 187.17882 50.81566 
L 184.598726 51.868577 
L 182.041249 52.975296 
L 179.507511 54.135332 
L 176.998622 55.348176 
L 174.515683 56.613297 
L 172.059783 57.930138 
L 169.632 59.298124 
L 167.233398 60.716653 
L 164.86503 62.185104 
L 162.527934 63.702831 
L 160.223136 65.269171 
L 157.951645 66.883435 
L 155.71446 68.544915 
L 153.512561 70.252883 
L 151.346914 72.00659 
L 149.218468 73.805266 
L 147.128158 75.648122 
L 145.0769 77.53435 
L 143.065595 79.463123 
L 141.095123 81.433595 
L 139.16635 83.4449 
L 137.280122 85.496158 
L 135.437266 87.586468 
L 133.63859 89.714914 
L 131.884883 91.880561 
L 130.176915 94.08246 
L 128.515435 96.319645 
L 126.901171 98.591136 
L 125.334831 100.895934 
L 123.817104 103.23303 
L 122.348653 105.601398 
L 120.930124 108 
L 120.930124 108 
L 120.930124 108 
L 120.930124 108 
L 120.930124 108 
L 120.930124 108 
L 120.930124 108 
L 120.930124 108 
L 120.930124 108 
L 120.930124 108 
L 120.930124 108 
L 120.930124 108 
L 120.930124 108 
L 120.930124 108 
L 120.930124 108 
L 120.930124 108 
L 120.930124 108 
L 120.930124 108 
L 120.930124 108 
L 120.930124 108 
L 120.930124 108 
L 120.930124 108 
L 120.930124 108 
L 120.930124 108 
L 120.930124 108 
L 120.930124 108 
L 120.930124 108 
L 120.930124 108 
L 120.930124 108 
L 120.930124 108 
L 120.930124 108 
L 120.930124 108 
L 120.930124 108 
L 120.930124 108 
L 120.930124 108 
L 120.930124 108 
L 120.930124 108 
L 120.930124 108 
L 120.930124 108 
L 120.930124 108 
L 120.930124 108 
L 120.930124 108 
L 120.930124 108 
L 120.930124 108 
L 120.930124 108 
L 120.930124 108 
L 120.930124 108 
L 120.930124 108 
L 120.930124 108 
L 120.930124 108 
L 120.930124 108 
L 120.930124 108 
L 120.930124 108 
L 120.930124 108 
L 120.930124 108 
L 120.930124 108 
L 120.930124 108 
L 120.930124 108 
L 120.930124 108 
L 120.930124 108 
L 120.930124 108 
L 120.930124 108 
L 120.930124 108 
L 120.930124 108 
L 120.930124 108 
L 120.930124 108 
L 120.930124 108 
L 120.930124 108 
L 120.930124 108 
L 120.930124 108 
L 120.930124 108 
L 120.930124 108 
L 120.930124 108 
L 120.930124 108 
L 120.930124 108 
L 120.930124 108 
L 120.930124 108 
L 120.930124 108 
L 120.930124 108 
L 120.930124 108 
L 120.930124 108 
L 120.930124 108 
L 120.930124 108 
L 120.930124 108 
L 120.930124 108 
L 120.930124 108 
L 120.930124 108 
L 120.930124 108 
L 120.930124 108 
L 120.930124 108 
L 120.930124 108 
L 120.930124 108 
L 120.930124 108 
L 120.930124 108 
L 120.930124 108 
L 120.930124 108 
L 120.930124 108 
L 120.930124 108 
L 120.930124 108 
L 120.930124 108 
L 120.930124 108 
L 122.348653 105.601398 
L 123.817104 103.23303 
L 125.334831 100.895934 
L 126.901171 98.591136 
L 128.515435 96.319645 
L 130.176915 94.08246 
L 131.884883 91.880561 
L 133.63859 89.714914 
L 135.437266 87.586468 
L 137.280122 85.496158 
L 139.16635 83.4449 
L 141.095123 81.433595 
L 143.065595 79.463123 
L 145.0769 77.53435 
L 147.128158 75.648122 
L 149.218468 73.805266 
L 151.346914 72.00659 
L 153.512561 70.252883 
L 155.71446 68.544915 
L 157.951645 66.883435 
L 160.223136 65.269171 
L 162.527934 63.702831 
L 164.86503 62.185104 
L 167.233398 60.716653 
L 169.632 59.298124 
L 172.059783 57.930138 
L 174.515683 56.613297 
L 176.998622 55.348176 
L 179.507511 54.135332 
L 182.041249 52.975296 
L 184.598726 51.868577 
L 187.17882 50.81566 
L 189.780398 49.817008 
L 192.402319 48.873058 
L 195.043435 47.984224 
L 197.702585 47.150897 
L 200.378604 46.373442 
L 203.070318 45.652199 
L 205.776547 44.987485 
L 208.496102 44.379593 
L 211.227792 43.828788 
L 213.970418 43.335311 
L 216.722777 42.89938 
L 219.483661 42.521186 
L 222.251861 42.200895 
L 225.026161 41.938646 
L 227.805345 41.734556 
L 230.588193 41.588713 
L 233.373485 41.501181 
L 236.16 41.472 
L 238.946515 41.501181 
L 241.731807 41.588713 
L 244.514655 41.734556 
L 247.293839 41.938646 
L 250.068139 42.200895 
L 252.836339 42.521186 
L 255.597223 42.89938 
L 258.349582 43.335311 
L 261.092208 43.828788 
L 263.823898 44.379593 
L 266.543453 44.987485 
L 269.249682 45.652199 
L 271.941396 46.373442 
L 274.617415 47.150897 
L 277.276565 47.984224 
L 279.917681 48.873058 
L 282.539602 49.817008 
L 285.14118 50.81566 
L 287.721274 51.868577 
L 290.278751 52.975296 
L 292.812489 54.135332 
L 295.321378 55.348176 
L 297.804317 56.613297 
L 300.260217 57.930138 
L 302.688 59.298124 
L 305.086602 60.716653 
L 307.45497 62.185104 
L 309.792066 63.702831 
L 312.096864 65.269171 
L 314.368355 66.883435 
L 316.60554 68.544915 
L 318.807439 70.252883 
L 320.973086 72.00659 
L 323.101532 73.805266 
L 325.191842 75.648122 
L 327.2431 77.53435 
L 329.254405 79.463123 
L 331.224877 81.433595 
L 333.15365 83.4449 
L 335.039878 85.496158 
L 336.882734 87.586468 
L 338.68141 89.714914 
L 340.435117 91.880561 
L 342.143085 94.08246 
L 343.804565 96.319645 
L 345.418829 98.591136 
L 346.985169 100.895934 
L 348.502896 103.23303 
L 349.971347 105.601398 
L 351.389876 108 
L 351.389876 108 
L 351.389876 108 
L 351.389876 108 
L 351.389876 108 
L 351.389876 108 
L 351.389876 108 
L 351.389876 108 
L 351.389876 108 
L 351.389876 108 
L 351.389876 108 
L 351.389876 108 
L 351.389876 108 
L 351.389876 108 
L 351.389876 108 
L 351.389876 108 
L 351.389876 108 
L 351.389876 108 
L 351.389876 108 
L 351.389876 108 
L 351.389876 108 
L 351.389876 108 
L 351.389876 108 
L 351.389876 108 
L 351.389876 108 
L 351.389876 108 
L 351.389876 108 
L 351.389876 108 
L 351.389876 108 
L 351.389876 108 
L 351.389876 108 
L 351.389876 108 
L 351.389876 108 
L 351.389876 108 
L 351.389876 108 
L 351.389876 108 
L 351.389876 108 
L 351.389876 108 
L 351.389876 108 
L 351.389876 108 
L 351.389876 108 
L 351.389876 108 
L 351.389876 108 
L 351.389876 108 
L 351.389876 108 
L 351.389876 108 
L 351.389876 108 
L 351.389876 108 
L 351.389876 108 
L 351.389876 108 
L 351.389876 108 
L 351.389876 108 
L 351.389876 108 
L 351.389876 108 
L 351.389876 108 
L 351.389876 108 
L 351.389876 108 
L 351.389876 108 
L 351.389876 108 
L 351.389876 108 
L 351.389876 108 
L 351.389876 108 
L 351.389876 108 
L 351.389876 108 
L 351.389876 108 
L 351.389876 108 
L 351.389876 108 
L 351.389876 108 
L 351.389876 108 
L 351.389876 108 
L 351.389876 108 
L 351.389876 108 
L 351.389876 108 
L 351.389876 108 
L 351.389876 108 
L 351.389876 108 
L 351.389876 108 
L 351.389876 108 
L 351.389876 108 
L 351.389876 108 
L 351.389876 108 
L 351.389876 108 
L 351.389876 108 
L 351.389876 108 
L 351.389876 108 
L 351.389876 108 
L 351.389876 108 
L 351.389876 108 
L 351.389876 108 
L 351.389876 108 
L 351.389876 108 
L 351.389876 108 
L 351.389876 108 
L 351.389876 108 
L 351.389876 108 
L 351.389876 108 
L 351.389876 108 
L 351.389876 108 
L 351.389876 108 
L 351.389876 108 
z
" style="fill:#88c100;"/>
   </g>
   <g id="patch_5">
    <path clip-path="url(#p7356dc63a4)" d="M 236.16 174.528 
L 236.16 174.528 
L 236.16 174.528 
L 236.16 174.528 
L 236.16 174.528 
L 236.16 174.528 
L 236.16 174.528 
L 236.16 174.528 
L 236.16 174.528 
L 236.16 174.528 
L 236.16 174.528 
L 236.16 174.528 
L 236.16 174.528 
L 236.16 174.528 
L 236.16 174.528 
L 236.16 174.528 
L 236.16 174.528 
L 236.16 174.528 
L 236.16 174.528 
L 236.16 174.528 
L 236.16 174.528 
L 236.16 174.528 
L 236.16 174.528 
L 236.16 174.528 
L 236.16 174.528 
L 236.16 174.528 
L 236.16 174.528 
L 236.16 174.528 
L 236.16 174.528 
L 236.16 174.528 
L 236.16 174.528 
L 236.16 174.528 
L 236.16 174.528 
L 236.16 174.528 
L 236.16 174.528 
L 236.16 174.528 
L 236.16 174.528 
L 236.16 174.528 
L 236.16 174.528 
L 236.16 174.528 
L 236.16 174.528 
L 236.16 174.528 
L 236.16 174.528 
L 236.16 174.528 
L 236.16 174.528 
L 236.16 174.528 
L 236.16 174.528 
L 236.16 174.528 
L 236.16 174.528 
L 236.16 174.528 
L 236.16 174.528 
L 236.16 174.528 
L 236.16 174.528 
L 236.16 174.528 
L 236.16 174.528 
L 236.16 174.528 
L 236.16 174.528 
L 236.16 174.528 
L 236.16 174.528 
L 236.16 174.528 
L 236.16 174.528 
L 236.16 174.528 
L 236.16 174.528 
L 236.16 174.528 
L 236.16 174.528 
L 236.16 174.528 
L 236.16 174.528 
L 236.16 174.528 
L 236.16 174.528 
L 236.16 174.528 
L 236.16 174.528 
L 236.16 174.528 
L 236.16 174.528 
L 236.16 174.528 
L 236.16 174.528 
L 236.16 174.528 
L 236.16 174.528 
L 236.16 174.528 
L 236.16 174.528 
L 236.16 174.528 
L 236.16 174.528 
L 236.16 174.528 
L 236.16 174.528 
L 236.16 174.528 
L 236.16 174.528 
L 236.16 174.528 
L 236.16 174.528 
L 236.16 174.528 
L 236.16 174.528 
L 236.16 174.528 
L 236.16 174.528 
L 236.16 174.528 
L 236.16 174.528 
L 236.16 174.528 
L 236.16 174.528 
L 236.16 174.528 
L 236.16 174.528 
L 236.16 174.528 
L 236.16 174.528 
L 236.16 174.528 
L 236.16 174.528 
L 236.16 175.85856 
L 236.16 177.18912 
L 236.16 178.51968 
L 236.16 179.85024 
L 236.16 181.1808 
L 236.16 182.51136 
L 236.16 183.84192 
L 236.16 185.17248 
L 236.16 186.50304 
L 236.16 187.8336 
L 236.16 189.16416 
L 236.16 190.49472 
L 236.16 191.82528 
L 236.16 193.15584 
L 236.16 194.4864 
L 236.16 195.81696 
L 236.16 197.14752 
L 236.16 198.47808 
L 236.16 199.80864 
L 236.16 201.1392 
L 236.16 202.46976 
L 236.16 203.80032 
L 236.16 205.13088 
L 236.16 206.46144 
L 236.16 207.792 
L 236.16 209.12256 
L 236.16 210.45312 
L 236.16 211.78368 
L 236.16 213.11424 
L 236.16 214.4448 
L 236.16 215.77536 
L 236.16 217.10592 
L 236.16 218.43648 
L 236.16 219.76704 
L 236.16 221.0976 
L 236.16 222.42816 
L 236.16 223.75872 
L 236.16 225.08928 
L 236.16 226.41984 
L 236.16 227.7504 
L 236.16 229.08096 
L 236.16 230.41152 
L 236.16 231.74208 
L 236.16 233.07264 
L 236.16 234.4032 
L 236.16 235.73376 
L 236.16 237.06432 
L 236.16 238.39488 
L 236.16 239.72544 
L 236.16 241.056 
L 236.16 242.38656 
L 236.16 243.71712 
L 236.16 245.04768 
L 236.16 246.37824 
L 236.16 247.7088 
L 236.16 249.03936 
L 236.16 250.36992 
L 236.16 251.70048 
L 236.16 253.03104 
L 236.16 254.3616 
L 236.16 255.69216 
L 236.16 257.02272 
L 236.16 258.35328 
L 236.16 259.68384 
L 236.16 261.0144 
L 236.16 262.34496 
L 236.16 263.67552 
L 236.16 265.00608 
L 236.16 266.33664 
L 236.16 267.6672 
L 236.16 268.99776 
L 236.16 270.32832 
L 236.16 271.65888 
L 236.16 272.98944 
L 236.16 274.32 
L 236.16 275.65056 
L 236.16 276.98112 
L 236.16 278.31168 
L 236.16 279.64224 
L 236.16 280.9728 
L 236.16 282.30336 
L 236.16 283.63392 
L 236.16 284.96448 
L 236.16 286.29504 
L 236.16 287.6256 
L 236.16 288.95616 
L 236.16 290.28672 
L 236.16 291.61728 
L 236.16 292.94784 
L 236.16 294.2784 
L 236.16 295.60896 
L 236.16 296.93952 
L 236.16 298.27008 
L 236.16 299.60064 
L 236.16 300.9312 
L 236.16 302.26176 
L 236.16 303.59232 
L 236.16 304.92288 
L 236.16 306.25344 
L 236.16 307.584 
L 233.373485 307.554819 
L 230.588193 307.467287 
L 227.805345 307.321444 
L 225.026161 307.117354 
L 222.251861 306.855105 
L 219.483661 306.534814 
L 216.722777 306.15662 
L 213.970418 305.720689 
L 211.227792 305.227212 
L 208.496102 304.676407 
L 205.776547 304.068515 
L 203.070318 303.403801 
L 200.378604 302.682558 
L 197.702585 301.905103 
L 195.043435 301.071776 
L 192.402319 300.182942 
L 189.780398 299.238992 
L 187.17882 298.24034 
L 184.598726 297.187423 
L 182.041249 296.080704 
L 179.507511 294.920668 
L 176.998622 293.707824 
L 174.515683 292.442703 
L 172.059783 291.125862 
L 169.632 289.757876 
L 167.233398 288.339347 
L 164.86503 286.870896 
L 162.527934 285.353169 
L 160.223136 283.786829 
L 157.951645 282.172565 
L 155.71446 280.511085 
L 153.512561 278.803117 
L 151.346914 277.04941 
L 149.218468 275.250734 
L 147.128158 273.407878 
L 145.0769 271.52165 
L 143.065595 269.592877 
L 141.095123 267.622405 
L 139.16635 265.6111 
L 137.280122 263.559842 
L 135.437266 261.469532 
L 133.63859 259.341086 
L 131.884883 257.175439 
L 130.176915 254.97354 
L 128.515435 252.736355 
L 126.901171 250.464864 
L 125.334831 248.160066 
L 123.817104 245.82297 
L 122.348653 243.454602 
L 120.930124 241.056 
L 119.562138 238.628217 
L 118.245297 236.172317 
L 116.980176 233.689378 
L 115.767332 231.180489 
L 114.607296 228.646751 
L 113.500577 226.089274 
L 112.44766 223.50918 
L 111.449008 220.907602 
L 110.505058 218.285681 
L 109.616224 215.644565 
L 108.782897 212.985415 
L 108.005442 210.309396 
L 107.284199 207.617682 
L 106.619485 204.911453 
L 106.011593 202.191898 
L 105.460788 199.460208 
L 104.967311 196.717582 
L 104.53138 193.965223 
L 104.153186 191.204339 
L 103.832895 188.436139 
L 103.570646 185.661839 
L 103.366556 182.882655 
L 103.220713 180.099807 
L 103.133181 177.314515 
L 103.104 174.528 
L 103.133181 171.741485 
L 103.220713 168.956193 
L 103.366556 166.173345 
L 103.570646 163.394161 
L 103.832895 160.619861 
L 104.153186 157.851661 
L 104.53138 155.090777 
L 104.967311 152.338418 
L 105.460788 149.595792 
L 106.011593 146.864102 
L 106.619485 144.144547 
L 107.284199 141.438318 
L 108.005442 138.746604 
L 108.782897 136.070585 
L 109.616224 133.411435 
L 110.505058 130.770319 
L 111.449008 128.148398 
L 112.44766 125.54682 
L 113.500577 122.966726 
L 114.607296 120.409249 
L 115.767332 117.875511 
L 116.980176 115.366622 
L 118.245297 112.883683 
L 119.562138 110.427783 
L 120.930124 108 
L 122.082423 108.66528 
L 123.234721 109.33056 
L 124.38702 109.99584 
L 125.539319 110.66112 
L 126.691618 111.3264 
L 127.843916 111.99168 
L 128.996215 112.65696 
L 130.148514 113.32224 
L 131.300813 113.98752 
L 132.453111 114.6528 
L 133.60541 115.31808 
L 134.757709 115.98336 
L 135.910008 116.64864 
L 137.062307 117.31392 
L 138.214605 117.9792 
L 139.366904 118.64448 
L 140.519203 119.30976 
L 141.671502 119.97504 
L 142.8238 120.64032 
L 143.976099 121.3056 
L 145.128398 121.97088 
L 146.280697 122.63616 
L 147.432995 123.30144 
L 148.585294 123.96672 
L 149.737593 124.632 
L 150.889892 125.29728 
L 152.04219 125.96256 
L 153.194489 126.62784 
L 154.346788 127.29312 
L 155.499087 127.9584 
L 156.651385 128.62368 
L 157.803684 129.28896 
L 158.955983 129.95424 
L 160.108282 130.61952 
L 161.260581 131.2848 
L 162.412879 131.95008 
L 163.565178 132.61536 
L 164.717477 133.28064 
L 165.869776 133.94592 
L 167.022074 134.6112 
L 168.174373 135.27648 
L 169.326672 135.94176 
L 170.478971 136.60704 
L 171.631269 137.27232 
L 172.783568 137.9376 
L 173.935867 138.60288 
L 175.088166 139.26816 
L 176.240464 139.93344 
L 177.392763 140.59872 
L 178.545062 141.264 
L 179.697361 141.92928 
L 180.849659 142.59456 
L 182.001958 143.25984 
L 183.154257 143.92512 
L 184.306556 144.5904 
L 185.458855 145.25568 
L 186.611153 145.92096 
L 187.763452 146.58624 
L 188.915751 147.25152 
L 190.06805 147.9168 
L 191.220348 148.58208 
L 192.372647 149.24736 
L 193.524946 149.91264 
L 194.677245 150.57792 
L 195.829543 151.2432 
L 196.981842 151.90848 
L 198.134141 152.57376 
L 199.28644 153.23904 
L 200.438738 153.90432 
L 201.591037 154.5696 
L 202.743336 155.23488 
L 203.895635 155.90016 
L 205.047933 156.56544 
L 206.200232 157.23072 
L 207.352531 157.896 
L 208.50483 158.56128 
L 209.657128 159.22656 
L 210.809427 159.89184 
L 211.961726 160.55712 
L 213.114025 161.2224 
L 214.266324 161.88768 
L 215.418622 162.55296 
L 216.570921 163.21824 
L 217.72322 163.88352 
L 218.875519 164.5488 
L 220.027817 165.21408 
L 221.180116 165.87936 
L 222.332415 166.54464 
L 223.484714 167.20992 
L 224.637012 167.8752 
L 225.789311 168.54048 
L 226.94161 169.20576 
L 228.093909 169.87104 
L 229.246207 170.53632 
L 230.398506 171.2016 
L 231.550805 171.86688 
L 232.703104 172.53216 
L 233.855402 173.19744 
L 235.007701 173.86272 
z
" style="fill:#fabe28;"/>
   </g>
   <g id="patch_6">
    <path clip-path="url(#p7356dc63a4)" d="M 120.930124 108 
L 119.562138 110.427783 
L 118.245297 112.883683 
L 116.980176 115.366622 
L 115.767332 117.875511 
L 114.607296 120.409249 
L 113.500577 122.966726 
L 112.44766 125.54682 
L 111.449008 128.148398 
L 110.505058 130.770319 
L 109.616224 133.411435 
L 108.782897 136.070585 
L 108.005442 138.746604 
L 107.284199 141.438318 
L 106.619485 144.144547 
L 106.011593 146.864102 
L 105.460788 149.595792 
L 104.967311 152.338418 
L 104.53138 155.090777 
L 104.153186 157.851661 
L 103.832895 160.619861 
L 103.570646 163.394161 
L 103.366556 166.173345 
L 103.220713 168.956193 
L 103.133181 171.741485 
L 103.104 174.528 
L 103.133181 177.314515 
L 103.220713 180.099807 
L 103.366556 182.882655 
L 103.570646 185.661839 
L 103.832895 188.436139 
L 104.153186 191.204339 
L 104.53138 193.965223 
L 104.967311 196.717582 
L 105.460788 199.460208 
L 106.011593 202.191898 
L 106.619485 204.911453 
L 107.284199 207.617682 
L 108.005442 210.309396 
L 108.782897 212.985415 
L 109.616224 215.644565 
L 110.505058 218.285681 
L 111.449008 220.907602 
L 112.44766 223.50918 
L 113.500577 226.089274 
L 114.607296 228.646751 
L 115.767332 231.180489 
L 116.980176 233.689378 
L 118.245297 236.172317 
L 119.562138 238.628217 
L 120.930124 241.056 
L 122.348653 243.454602 
L 123.817104 245.82297 
L 125.334831 248.160066 
L 126.901171 250.464864 
L 128.515435 252.736355 
L 130.176915 254.97354 
L 131.884883 257.175439 
L 133.63859 259.341086 
L 135.437266 261.469532 
L 137.280122 263.559842 
L 139.16635 265.6111 
L 141.095123 267.622405 
L 143.065595 269.592877 
L 145.0769 271.52165 
L 147.128158 273.407878 
L 149.218468 275.250734 
L 151.346914 277.04941 
L 153.512561 278.803117 
L 155.71446 280.511085 
L 157.951645 282.172565 
L 160.223136 283.786829 
L 162.527934 285.353169 
L 164.86503 286.870896 
L 167.233398 288.339347 
L 169.632 289.757876 
L 172.059783 291.125862 
L 174.515683 292.442703 
L 176.998622 293.707824 
L 179.507511 294.920668 
L 182.041249 296.080704 
L 184.598726 297.187423 
L 187.17882 298.24034 
L 189.780398 299.238992 
L 192.402319 300.182942 
L 195.043435 301.071776 
L 197.702585 301.905103 
L 200.378604 302.682558 
L 203.070318 303.403801 
L 205.776547 304.068515 
L 208.496102 304.676407 
L 211.227792 305.227212 
L 213.970418 305.720689 
L 216.722777 306.15662 
L 219.483661 306.534814 
L 222.251861 306.855105 
L 225.026161 307.117354 
L 227.805345 307.321444 
L 230.588193 307.467287 
L 233.373485 307.554819 
L 236.16 307.584 
L 236.16 307.584 
L 236.16 307.584 
L 236.16 307.584 
L 236.16 307.584 
L 236.16 307.584 
L 236.16 307.584 
L 236.16 307.584 
L 236.16 307.584 
L 236.16 307.584 
L 236.16 307.584 
L 236.16 307.584 
L 236.16 307.584 
L 236.16 307.584 
L 236.16 307.584 
L 236.16 307.584 
L 236.16 307.584 
L 236.16 307.584 
L 236.16 307.584 
L 236.16 307.584 
L 236.16 307.584 
L 236.16 307.584 
L 236.16 307.584 
L 236.16 307.584 
L 236.16 307.584 
L 236.16 307.584 
L 236.16 307.584 
L 236.16 307.584 
L 236.16 307.584 
L 236.16 307.584 
L 236.16 307.584 
L 236.16 307.584 
L 236.16 307.584 
L 236.16 307.584 
L 236.16 307.584 
L 236.16 307.584 
L 236.16 307.584 
L 236.16 307.584 
L 236.16 307.584 
L 236.16 307.584 
L 236.16 307.584 
L 236.16 307.584 
L 236.16 307.584 
L 236.16 307.584 
L 236.16 307.584 
L 236.16 307.584 
L 236.16 307.584 
L 236.16 307.584 
L 236.16 307.584 
L 236.16 307.584 
L 236.16 307.584 
L 236.16 307.584 
L 236.16 307.584 
L 236.16 307.584 
L 236.16 307.584 
L 236.16 307.584 
L 236.16 307.584 
L 236.16 307.584 
L 236.16 307.584 
L 236.16 307.584 
L 236.16 307.584 
L 236.16 307.584 
L 236.16 307.584 
L 236.16 307.584 
L 236.16 307.584 
L 236.16 307.584 
L 236.16 307.584 
L 236.16 307.584 
L 236.16 307.584 
L 236.16 307.584 
L 236.16 307.584 
L 236.16 307.584 
L 236.16 307.584 
L 236.16 307.584 
L 236.16 307.584 
L 236.16 307.584 
L 236.16 307.584 
L 236.16 307.584 
L 236.16 307.584 
L 236.16 307.584 
L 236.16 307.584 
L 236.16 307.584 
L 236.16 307.584 
L 236.16 307.584 
L 236.16 307.584 
L 236.16 307.584 
L 236.16 307.584 
L 236.16 307.584 
L 236.16 307.584 
L 236.16 307.584 
L 236.16 307.584 
L 236.16 307.584 
L 236.16 307.584 
L 236.16 307.584 
L 236.16 307.584 
L 236.16 307.584 
L 236.16 307.584 
L 236.16 307.584 
L 236.16 307.584 
L 236.16 307.584 
L 236.16 307.584 
L 233.373485 307.554819 
L 230.588193 307.467287 
L 227.805345 307.321444 
L 225.026161 307.117354 
L 222.251861 306.855105 
L 219.483661 306.534814 
L 216.722777 306.15662 
L 213.970418 305.720689 
L 211.227792 305.227212 
L 208.496102 304.676407 
L 205.776547 304.068515 
L 203.070318 303.403801 
L 200.378604 302.682558 
L 197.702585 301.905103 
L 195.043435 301.071776 
L 192.402319 300.182942 
L 189.780398 299.238992 
L 187.17882 298.24034 
L 184.598726 297.187423 
L 182.041249 296.080704 
L 179.507511 294.920668 
L 176.998622 293.707824 
L 174.515683 292.442703 
L 172.059783 291.125862 
L 169.632 289.757876 
L 167.233398 288.339347 
L 164.86503 286.870896 
L 162.527934 285.353169 
L 160.223136 283.786829 
L 157.951645 282.172565 
L 155.71446 280.511085 
L 153.512561 278.803117 
L 151.346914 277.04941 
L 149.218468 275.250734 
L 147.128158 273.407878 
L 145.0769 271.52165 
L 143.065595 269.592877 
L 141.095123 267.622405 
L 139.16635 265.6111 
L 137.280122 263.559842 
L 135.437266 261.469532 
L 133.63859 259.341086 
L 131.884883 257.175439 
L 130.176915 254.97354 
L 128.515435 252.736355 
L 126.901171 250.464864 
L 125.334831 248.160066 
L 123.817104 245.82297 
L 122.348653 243.454602 
L 120.930124 241.056 
L 119.562138 238.628217 
L 118.245297 236.172317 
L 116.980176 233.689378 
L 115.767332 231.180489 
L 114.607296 228.646751 
L 113.500577 226.089274 
L 112.44766 223.50918 
L 111.449008 220.907602 
L 110.505058 218.285681 
L 109.616224 215.644565 
L 108.782897 212.985415 
L 108.005442 210.309396 
L 107.284199 207.617682 
L 106.619485 204.911453 
L 106.011593 202.191898 
L 105.460788 199.460208 
L 104.967311 196.717582 
L 104.53138 193.965223 
L 104.153186 191.204339 
L 103.832895 188.436139 
L 103.570646 185.661839 
L 103.366556 182.882655 
L 103.220713 180.099807 
L 103.133181 177.314515 
L 103.104 174.528 
L 103.133181 171.741485 
L 103.220713 168.956193 
L 103.366556 166.173345 
L 103.570646 163.394161 
L 103.832895 160.619861 
L 104.153186 157.851661 
L 104.53138 155.090777 
L 104.967311 152.338418 
L 105.460788 149.595792 
L 106.011593 146.864102 
L 106.619485 144.144547 
L 107.284199 141.438318 
L 108.005442 138.746604 
L 108.782897 136.070585 
L 109.616224 133.411435 
L 110.505058 130.770319 
L 111.449008 128.148398 
L 112.44766 125.54682 
L 113.500577 122.966726 
L 114.607296 120.409249 
L 115.767332 117.875511 
L 116.980176 115.366622 
L 118.245297 112.883683 
L 119.562138 110.427783 
L 120.930124 108 
L 120.930124 108 
L 120.930124 108 
L 120.930124 108 
L 120.930124 108 
L 120.930124 108 
L 120.930124 108 
L 120.930124 108 
L 120.930124 108 
L 120.930124 108 
L 120.930124 108 
L 120.930124 108 
L 120.930124 108 
L 120.930124 108 
L 120.930124 108 
L 120.930124 108 
L 120.930124 108 
L 120.930124 108 
L 120.930124 108 
L 120.930124 108 
L 120.930124 108 
L 120.930124 108 
L 120.930124 108 
L 120.930124 108 
L 120.930124 108 
L 120.930124 108 
L 120.930124 108 
L 120.930124 108 
L 120.930124 108 
L 120.930124 108 
L 120.930124 108 
L 120.930124 108 
L 120.930124 108 
L 120.930124 108 
L 120.930124 108 
L 120.930124 108 
L 120.930124 108 
L 120.930124 108 
L 120.930124 108 
L 120.930124 108 
L 120.930124 108 
L 120.930124 108 
L 120.930124 108 
L 120.930124 108 
L 120.930124 108 
L 120.930124 108 
L 120.930124 108 
L 120.930124 108 
L 120.930124 108 
L 120.930124 108 
L 120.930124 108 
L 120.930124 108 
L 120.930124 108 
L 120.930124 108 
L 120.930124 108 
L 120.930124 108 
L 120.930124 108 
L 120.930124 108 
L 120.930124 108 
L 120.930124 108 
L 120.930124 108 
L 120.930124 108 
L 120.930124 108 
L 120.930124 108 
L 120.930124 108 
L 120.930124 108 
L 120.930124 108 
L 120.930124 108 
L 120.930124 108 
L 120.930124 108 
L 120.930124 108 
L 120.930124 108 
L 120.930124 108 
L 120.930124 108 
L 120.930124 108 
L 120.930124 108 
L 120.930124 108 
L 120.930124 108 
L 120.930124 108 
L 120.930124 108 
L 120.930124 108 
L 120.930124 108 
L 120.930124 108 
L 120.930124 108 
L 120.930124 108 
L 120.930124 108 
L 120.930124 108 
L 120.930124 108 
L 120.930124 108 
L 120.930124 108 
L 120.930124 108 
L 120.930124 108 
L 120.930124 108 
L 120.930124 108 
L 120.930124 108 
L 120.930124 108 
L 120.930124 108 
L 120.930124 108 
L 120.930124 108 
L 120.930124 108 
z
" style="fill:#ff003c;"/>
   </g>
   <g id="patch_7">
    <path clip-path="url(#p7356dc63a4)" d="M 120.930124 108 
L 119.562138 110.427783 
L 118.245297 112.883683 
L 116.980176 115.366622 
L 115.767332 117.875511 
L 114.607296 120.409249 
L 113.500577 122.966726 
L 112.44766 125.54682 
L 111.449008 128.148398 
L 110.505058 130.770319 
L 109.616224 133.411435 
L 108.782897 136.070585 
L 108.005442 138.746604 
L 107.284199 141.438318 
L 106.619485 144.144547 
L 106.011593 146.864102 
L 105.460788 149.595792 
L 104.967311 152.338418 
L 104.53138 155.090777 
L 104.153186 157.851661 
L 103.832895 160.619861 
L 103.570646 163.394161 
L 103.366556 166.173345 
L 103.220713 168.956193 
L 103.133181 171.741485 
L 103.104 174.528 
L 103.133181 177.314515 
L 103.220713 180.099807 
L 103.366556 182.882655 
L 103.570646 185.661839 
L 103.832895 188.436139 
L 104.153186 191.204339 
L 104.53138 193.965223 
L 104.967311 196.717582 
L 105.460788 199.460208 
L 106.011593 202.191898 
L 106.619485 204.911453 
L 107.284199 207.617682 
L 108.005442 210.309396 
L 108.782897 212.985415 
L 109.616224 215.644565 
L 110.505058 218.285681 
L 111.449008 220.907602 
L 112.44766 223.50918 
L 113.500577 226.089274 
L 114.607296 228.646751 
L 115.767332 231.180489 
L 116.980176 233.689378 
L 118.245297 236.172317 
L 119.562138 238.628217 
L 120.930124 241.056 
L 122.348653 243.454602 
L 123.817104 245.82297 
L 125.334831 248.160066 
L 126.901171 250.464864 
L 128.515435 252.736355 
L 130.176915 254.97354 
L 131.884883 257.175439 
L 133.63859 259.341086 
L 135.437266 261.469532 
L 137.280122 263.559842 
L 139.16635 265.6111 
L 141.095123 267.622405 
L 143.065595 269.592877 
L 145.0769 271.52165 
L 147.128158 273.407878 
L 149.218468 275.250734 
L 151.346914 277.04941 
L 153.512561 278.803117 
L 155.71446 280.511085 
L 157.951645 282.172565 
L 160.223136 283.786829 
L 162.527934 285.353169 
L 164.86503 286.870896 
L 167.233398 288.339347 
L 169.632 289.757876 
L 172.059783 291.125862 
L 174.515683 292.442703 
L 176.998622 293.707824 
L 179.507511 294.920668 
L 182.041249 296.080704 
L 184.598726 297.187423 
L 187.17882 298.24034 
L 189.780398 299.238992 
L 192.402319 300.182942 
L 195.043435 301.071776 
L 197.702585 301.905103 
L 200.378604 302.682558 
L 203.070318 303.403801 
L 205.776547 304.068515 
L 208.496102 304.676407 
L 211.227792 305.227212 
L 213.970418 305.720689 
L 216.722777 306.15662 
L 219.483661 306.534814 
L 222.251861 306.855105 
L 225.026161 307.117354 
L 227.805345 307.321444 
L 230.588193 307.467287 
L 233.373485 307.554819 
L 236.16 307.584 
L 236.16 307.584 
L 236.16 307.584 
L 236.16 307.584 
L 236.16 307.584 
L 236.16 307.584 
L 236.16 307.584 
L 236.16 307.584 
L 236.16 307.584 
L 236.16 307.584 
L 236.16 307.584 
L 236.16 307.584 
L 236.16 307.584 
L 236.16 307.584 
L 236.16 307.584 
L 236.16 307.584 
L 236.16 307.584 
L 236.16 307.584 
L 236.16 307.584 
L 236.16 307.584 
L 236.16 307.584 
L 236.16 307.584 
L 236.16 307.584 
L 236.16 307.584 
L 236.16 307.584 
L 236.16 307.584 
L 236.16 307.584 
L 236.16 307.584 
L 236.16 307.584 
L 236.16 307.584 
L 236.16 307.584 
L 236.16 307.584 
L 236.16 307.584 
L 236.16 307.584 
L 236.16 307.584 
L 236.16 307.584 
L 236.16 307.584 
L 236.16 307.584 
L 236.16 307.584 
L 236.16 307.584 
L 236.16 307.584 
L 236.16 307.584 
L 236.16 307.584 
L 236.16 307.584 
L 236.16 307.584 
L 236.16 307.584 
L 236.16 307.584 
L 236.16 307.584 
L 236.16 307.584 
L 236.16 307.584 
L 236.16 307.584 
L 236.16 307.584 
L 236.16 307.584 
L 236.16 307.584 
L 236.16 307.584 
L 236.16 307.584 
L 236.16 307.584 
L 236.16 307.584 
L 236.16 307.584 
L 236.16 307.584 
L 236.16 307.584 
L 236.16 307.584 
L 236.16 307.584 
L 236.16 307.584 
L 236.16 307.584 
L 236.16 307.584 
L 236.16 307.584 
L 236.16 307.584 
L 236.16 307.584 
L 236.16 307.584 
L 236.16 307.584 
L 236.16 307.584 
L 236.16 307.584 
L 236.16 307.584 
L 236.16 307.584 
L 236.16 307.584 
L 236.16 307.584 
L 236.16 307.584 
L 236.16 307.584 
L 236.16 307.584 
L 236.16 307.584 
L 236.16 307.584 
L 236.16 307.584 
L 236.16 307.584 
L 236.16 307.584 
L 236.16 307.584 
L 236.16 307.584 
L 236.16 307.584 
L 236.16 307.584 
L 236.16 307.584 
L 236.16 307.584 
L 236.16 307.584 
L 236.16 307.584 
L 236.16 307.584 
L 236.16 307.584 
L 236.16 307.584 
L 236.16 307.584 
L 236.16 307.584 
L 236.16 307.584 
L 236.16 307.584 
L 236.16 307.584 
L 233.373485 307.554819 
L 230.588193 307.467287 
L 227.805345 307.321444 
L 225.026161 307.117354 
L 222.251861 306.855105 
L 219.483661 306.534814 
L 216.722777 306.15662 
L 213.970418 305.720689 
L 211.227792 305.227212 
L 208.496102 304.676407 
L 205.776547 304.068515 
L 203.070318 303.403801 
L 200.378604 302.682558 
L 197.702585 301.905103 
L 195.043435 301.071776 
L 192.402319 300.182942 
L 189.780398 299.238992 
L 187.17882 298.24034 
L 184.598726 297.187423 
L 182.041249 296.080704 
L 179.507511 294.920668 
L 176.998622 293.707824 
L 174.515683 292.442703 
L 172.059783 291.125862 
L 169.632 289.757876 
L 167.233398 288.339347 
L 164.86503 286.870896 
L 162.527934 285.353169 
L 160.223136 283.786829 
L 157.951645 282.172565 
L 155.71446 280.511085 
L 153.512561 278.803117 
L 151.346914 277.04941 
L 149.218468 275.250734 
L 147.128158 273.407878 
L 145.0769 271.52165 
L 143.065595 269.592877 
L 141.095123 267.622405 
L 139.16635 265.6111 
L 137.280122 263.559842 
L 135.437266 261.469532 
L 133.63859 259.341086 
L 131.884883 257.175439 
L 130.176915 254.97354 
L 128.515435 252.736355 
L 126.901171 250.464864 
L 125.334831 248.160066 
L 123.817104 245.82297 
L 122.348653 243.454602 
L 120.930124 241.056 
L 119.562138 238.628217 
L 118.245297 236.172317 
L 116.980176 233.689378 
L 115.767332 231.180489 
L 114.607296 228.646751 
L 113.500577 226.089274 
L 112.44766 223.50918 
L 111.449008 220.907602 
L 110.505058 218.285681 
L 109.616224 215.644565 
L 108.782897 212.985415 
L 108.005442 210.309396 
L 107.284199 207.617682 
L 106.619485 204.911453 
L 106.011593 202.191898 
L 105.460788 199.460208 
L 104.967311 196.717582 
L 104.53138 193.965223 
L 104.153186 191.204339 
L 103.832895 188.436139 
L 103.570646 185.661839 
L 103.366556 182.882655 
L 103.220713 180.099807 
L 103.133181 177.314515 
L 103.104 174.528 
L 103.133181 171.741485 
L 103.220713 168.956193 
L 103.366556 166.173345 
L 103.570646 163.394161 
L 103.832895 160.619861 
L 104.153186 157.851661 
L 104.53138 155.090777 
L 104.967311 152.338418 
L 105.460788 149.595792 
L 106.011593 146.864102 
L 106.619485 144.144547 
L 107.284199 141.438318 
L 108.005442 138.746604 
L 108.782897 136.070585 
L 109.616224 133.411435 
L 110.505058 130.770319 
L 111.449008 128.148398 
L 112.44766 125.54682 
L 113.500577 122.966726 
L 114.607296 120.409249 
L 115.767332 117.875511 
L 116.980176 115.366622 
L 118.245297 112.883683 
L 119.562138 110.427783 
L 120.930124 108 
L 120.930124 108 
L 120.930124 108 
L 120.930124 108 
L 120.930124 108 
L 120.930124 108 
L 120.930124 108 
L 120.930124 108 
L 120.930124 108 
L 120.930124 108 
L 120.930124 108 
L 120.930124 108 
L 120.930124 108 
L 120.930124 108 
L 120.930124 108 
L 120.930124 108 
L 120.930124 108 
L 120.930124 108 
L 120.930124 108 
L 120.930124 108 
L 120.930124 108 
L 120.930124 108 
L 120.930124 108 
L 120.930124 108 
L 120.930124 108 
L 120.930124 108 
L 120.930124 108 
L 120.930124 108 
L 120.930124 108 
L 120.930124 108 
L 120.930124 108 
L 120.930124 108 
L 120.930124 108 
L 120.930124 108 
L 120.930124 108 
L 120.930124 108 
L 120.930124 108 
L 120.930124 108 
L 120.930124 108 
L 120.930124 108 
L 120.930124 108 
L 120.930124 108 
L 120.930124 108 
L 120.930124 108 
L 120.930124 108 
L 120.930124 108 
L 120.930124 108 
L 120.930124 108 
L 120.930124 108 
L 120.930124 108 
L 120.930124 108 
L 120.930124 108 
L 120.930124 108 
L 120.930124 108 
L 120.930124 108 
L 120.930124 108 
L 120.930124 108 
L 120.930124 108 
L 120.930124 108 
L 120.930124 108 
L 120.930124 108 
L 120.930124 108 
L 120.930124 108 
L 120.930124 108 
L 120.930124 108 
L 120.930124 108 
L 120.930124 108 
L 120.930124 108 
L 120.930124 108 
L 120.930124 108 
L 120.930124 108 
L 120.930124 108 
L 120.930124 108 
L 120.930124 108 
L 120.930124 108 
L 120.930124 108 
L 120.930124 108 
L 120.930124 108 
L 120.930124 108 
L 120.930124 108 
L 120.930124 108 
L 120.930124 108 
L 120.930124 108 
L 120.930124 108 
L 120.930124 108 
L 120.930124 108 
L 120.930124 108 
L 120.930124 108 
L 120.930124 108 
L 120.930124 108 
L 120.930124 108 
L 120.930124 108 
L 120.930124 108 
L 120.930124 108 
L 120.930124 108 
L 120.930124 108 
L 120.930124 108 
L 120.930124 108 
L 120.930124 108 
L 120.930124 108 
z
" style="fill:#88c100;"/>
   </g>
   <g id="patch_8">
    <path clip-path="url(#p7356dc63a4)" d="M 236.16 174.528 
L 236.16 174.528 
L 236.16 174.528 
L 236.16 174.528 
L 236.16 174.528 
L 236.16 174.528 
L 236.16 174.528 
L 236.16 174.528 
L 236.16 174.528 
L 236.16 174.528 
L 236.16 174.528 
L 236.16 174.528 
L 236.16 174.528 
L 236.16 174.528 
L 236.16 174.528 
L 236.16 174.528 
L 236.16 174.528 
L 236.16 174.528 
L 236.16 174.528 
L 236.16 174.528 
L 236.16 174.528 
L 236.16 174.528 
L 236.16 174.528 
L 236.16 174.528 
L 236.16 174.528 
L 236.16 174.528 
L 236.16 174.528 
L 236.16 174.528 
L 236.16 174.528 
L 236.16 174.528 
L 236.16 174.528 
L 236.16 174.528 
L 236.16 174.528 
L 236.16 174.528 
L 236.16 174.528 
L 236.16 174.528 
L 236.16 174.528 
L 236.16 174.528 
L 236.16 174.528 
L 236.16 174.528 
L 236.16 174.528 
L 236.16 174.528 
L 236.16 174.528 
L 236.16 174.528 
L 236.16 174.528 
L 236.16 174.528 
L 236.16 174.528 
L 236.16 174.528 
L 236.16 174.528 
L 236.16 174.528 
L 236.16 174.528 
L 236.16 174.528 
L 236.16 174.528 
L 236.16 174.528 
L 236.16 174.528 
L 236.16 174.528 
L 236.16 174.528 
L 236.16 174.528 
L 236.16 174.528 
L 236.16 174.528 
L 236.16 174.528 
L 236.16 174.528 
L 236.16 174.528 
L 236.16 174.528 
L 236.16 174.528 
L 236.16 174.528 
L 236.16 174.528 
L 236.16 174.528 
L 236.16 174.528 
L 236.16 174.528 
L 236.16 174.528 
L 236.16 174.528 
L 236.16 174.528 
L 236.16 174.528 
L 236.16 174.528 
L 236.16 174.528 
L 236.16 174.528 
L 236.16 174.528 
L 236.16 174.528 
L 236.16 174.528 
L 236.16 174.528 
L 236.16 174.528 
L 236.16 174.528 
L 236.16 174.528 
L 236.16 174.528 
L 236.16 174.528 
L 236.16 174.528 
L 236.16 174.528 
L 236.16 174.528 
L 236.16 174.528 
L 236.16 174.528 
L 236.16 174.528 
L 236.16 174.528 
L 236.16 174.528 
L 236.16 174.528 
L 236.16 174.528 
L 236.16 174.528 
L 236.16 174.528 
L 236.16 174.528 
L 236.16 174.528 
L 236.16 174.528 
L 237.312299 173.86272 
L 238.464598 173.19744 
L 239.616896 172.53216 
L 240.769195 171.86688 
L 241.921494 171.2016 
L 243.073793 170.53632 
L 244.226091 169.87104 
L 245.37839 169.20576 
L 246.530689 168.54048 
L 247.682988 167.8752 
L 248.835286 167.20992 
L 249.987585 166.54464 
L 251.139884 165.87936 
L 252.292183 165.21408 
L 253.444481 164.5488 
L 254.59678 163.88352 
L 255.749079 163.21824 
L 256.901378 162.55296 
L 258.053676 161.88768 
L 259.205975 161.2224 
L 260.358274 160.55712 
L 261.510573 159.89184 
L 262.662872 159.22656 
L 263.81517 158.56128 
L 264.967469 157.896 
L 266.119768 157.23072 
L 267.272067 156.56544 
L 268.424365 155.90016 
L 269.576664 155.23488 
L 270.728963 154.5696 
L 271.881262 153.90432 
L 273.03356 153.23904 
L 274.185859 152.57376 
L 275.338158 151.90848 
L 276.490457 151.2432 
L 277.642755 150.57792 
L 278.795054 149.91264 
L 279.947353 149.24736 
L 281.099652 148.58208 
L 282.25195 147.9168 
L 283.404249 147.25152 
L 284.556548 146.58624 
L 285.708847 145.92096 
L 286.861145 145.25568 
L 288.013444 144.5904 
L 289.165743 143.92512 
L 290.318042 143.25984 
L 291.470341 142.59456 
L 292.622639 141.92928 
L 293.774938 141.264 
L 294.927237 140.59872 
L 296.079536 139.93344 
L 297.231834 139.26816 
L 298.384133 138.60288 
L 299.536432 137.9376 
L 300.688731 137.27232 
L 301.841029 136.60704 
L 302.993328 135.94176 
L 304.145627 135.27648 
L 305.297926 134.6112 
L 306.450224 133.94592 
L 307.602523 133.28064 
L 308.754822 132.61536 
L 309.907121 131.95008 
L 311.059419 131.2848 
L 312.211718 130.61952 
L 313.364017 129.95424 
L 314.516316 129.28896 
L 315.668615 128.62368 
L 316.820913 127.9584 
L 317.973212 127.29312 
L 319.125511 126.62784 
L 320.27781 125.96256 
L 321.430108 125.29728 
L 322.582407 124.632 
L 323.734706 123.96672 
L 324.887005 123.30144 
L 326.039303 122.63616 
L 327.191602 121.97088 
L 328.343901 121.3056 
L 329.4962 120.64032 
L 330.648498 119.97504 
L 331.800797 119.30976 
L 332.953096 118.64448 
L 334.105395 117.9792 
L 335.257693 117.31392 
L 336.409992 116.64864 
L 337.562291 115.98336 
L 338.71459 115.31808 
L 339.866889 114.6528 
L 341.019187 113.98752 
L 342.171486 113.32224 
L 343.323785 112.65696 
L 344.476084 111.99168 
L 345.628382 111.3264 
L 346.780681 110.66112 
L 347.93298 109.99584 
L 349.085279 109.33056 
L 350.237577 108.66528 
L 351.389876 108 
L 352.757862 110.427783 
L 354.074703 112.883683 
L 355.339824 115.366622 
L 356.552668 117.875511 
L 357.712704 120.409249 
L 358.819423 122.966726 
L 359.87234 125.54682 
L 360.870992 128.148398 
L 361.814942 130.770319 
L 362.703776 133.411435 
L 363.537103 136.070585 
L 364.314558 138.746604 
L 365.035801 141.438318 
L 365.700515 144.144547 
L 366.308407 146.864102 
L 366.859212 149.595792 
L 367.352689 152.338418 
L 367.78862 155.090777 
L 368.166814 157.851661 
L 368.487105 160.619861 
L 368.749354 163.394161 
L 368.953444 166.173345 
L 369.099287 168.956193 
L 369.186819 171.741485 
L 369.216 174.528 
L 369.186819 177.314515 
L 369.099287 180.099807 
L 368.953444 182.882655 
L 368.749354 185.661839 
L 368.487105 188.436139 
L 368.166814 191.204339 
L 367.78862 193.965223 
L 367.352689 196.717582 
L 366.859212 199.460208 
L 366.308407 202.191898 
L 365.700515 204.911453 
L 365.035801 207.617682 
L 364.314558 210.309396 
L 363.537103 212.985415 
L 362.703776 215.644565 
L 361.814942 218.285681 
L 360.870992 220.907602 
L 359.87234 223.50918 
L 358.819423 226.089274 
L 357.712704 228.646751 
L 356.552668 231.180489 
L 355.339824 233.689378 
L 354.074703 236.172317 
L 352.757862 238.628217 
L 351.389876 241.056 
L 349.971347 243.454602 
L 348.502896 245.82297 
L 346.985169 248.160066 
L 345.418829 250.464864 
L 343.804565 252.736355 
L 342.143085 254.97354 
L 340.435117 257.175439 
L 338.68141 259.341086 
L 336.882734 261.469532 
L 335.039878 263.559842 
L 333.15365 265.6111 
L 331.224877 267.622405 
L 329.254405 269.592877 
L 327.2431 271.52165 
L 325.191842 273.407878 
L 323.101532 275.250734 
L 320.973086 277.04941 
L 318.807439 278.803117 
L 316.60554 280.511085 
L 314.368355 282.172565 
L 312.096864 283.786829 
L 309.792066 285.353169 
L 307.45497 286.870896 
L 305.086602 288.339347 
L 302.688 289.757876 
L 300.260217 291.125862 
L 297.804317 292.442703 
L 295.321378 293.707824 
L 292.812489 294.920668 
L 290.278751 296.080704 
L 287.721274 297.187423 
L 285.14118 298.24034 
L 282.539602 299.238992 
L 279.917681 300.182942 
L 277.276565 301.071776 
L 274.617415 301.905103 
L 271.941396 302.682558 
L 269.249682 303.403801 
L 266.543453 304.068515 
L 263.823898 304.676407 
L 261.092208 305.227212 
L 258.349582 305.720689 
L 255.597223 306.15662 
L 252.836339 306.534814 
L 250.068139 306.855105 
L 247.293839 307.117354 
L 244.514655 307.321444 
L 241.731807 307.467287 
L 238.946515 307.554819 
L 236.16 307.584 
L 236.16 306.25344 
L 236.16 304.92288 
L 236.16 303.59232 
L 236.16 302.26176 
L 236.16 300.9312 
L 236.16 299.60064 
L 236.16 298.27008 
L 236.16 296.93952 
L 236.16 295.60896 
L 236.16 294.2784 
L 236.16 292.94784 
L 236.16 291.61728 
L 236.16 290.28672 
L 236.16 288.95616 
L 236.16 287.6256 
L 236.16 286.29504 
L 236.16 284.96448 
L 236.16 283.63392 
L 236.16 282.30336 
L 236.16 280.9728 
L 236.16 279.64224 
L 236.16 278.31168 
L 236.16 276.98112 
L 236.16 275.65056 
L 236.16 274.32 
L 236.16 272.98944 
L 236.16 271.65888 
L 236.16 270.32832 
L 236.16 268.99776 
L 236.16 267.6672 
L 236.16 266.33664 
L 236.16 265.00608 
L 236.16 263.67552 
L 236.16 262.34496 
L 236.16 261.0144 
L 236.16 259.68384 
L 236.16 258.35328 
L 236.16 257.02272 
L 236.16 255.69216 
L 236.16 254.3616 
L 236.16 253.03104 
L 236.16 251.70048 
L 236.16 250.36992 
L 236.16 249.03936 
L 236.16 247.7088 
L 236.16 246.37824 
L 236.16 245.04768 
L 236.16 243.71712 
L 236.16 242.38656 
L 236.16 241.056 
L 236.16 239.72544 
L 236.16 238.39488 
L 236.16 237.06432 
L 236.16 235.73376 
L 236.16 234.4032 
L 236.16 233.07264 
L 236.16 231.74208 
L 236.16 230.41152 
L 236.16 229.08096 
L 236.16 227.7504 
L 236.16 226.41984 
L 236.16 225.08928 
L 236.16 223.75872 
L 236.16 222.42816 
L 236.16 221.0976 
L 236.16 219.76704 
L 236.16 218.43648 
L 236.16 217.10592 
L 236.16 215.77536 
L 236.16 214.4448 
L 236.16 213.11424 
L 236.16 211.78368 
L 236.16 210.45312 
L 236.16 209.12256 
L 236.16 207.792 
L 236.16 206.46144 
L 236.16 205.13088 
L 236.16 203.80032 
L 236.16 202.46976 
L 236.16 201.1392 
L 236.16 199.80864 
L 236.16 198.47808 
L 236.16 197.14752 
L 236.16 195.81696 
L 236.16 194.4864 
L 236.16 193.15584 
L 236.16 191.82528 
L 236.16 190.49472 
L 236.16 189.16416 
L 236.16 187.8336 
L 236.16 186.50304 
L 236.16 185.17248 
L 236.16 183.84192 
L 236.16 182.51136 
L 236.16 181.1808 
L 236.16 179.85024 
L 236.16 178.51968 
L 236.16 177.18912 
L 236.16 175.85856 
z
" style="fill:#fabe28;"/>
   </g>
   <g id="patch_9">
    <path clip-path="url(#p7356dc63a4)" d="M 236.16 307.584 
L 238.946515 307.554819 
L 241.731807 307.467287 
L 244.514655 307.321444 
L 247.293839 307.117354 
L 250.068139 306.855105 
L 252.836339 306.534814 
L 255.597223 306.15662 
L 258.349582 305.720689 
L 261.092208 305.227212 
L 263.823898 304.676407 
L 266.543453 304.068515 
L 269.249682 303.403801 
L 271.941396 302.682558 
L 274.617415 301.905103 
L 277.276565 301.071776 
L 279.917681 300.182942 
L 282.539602 299.238992 
L 285.14118 298.24034 
L 287.721274 297.187423 
L 290.278751 296.080704 
L 292.812489 294.920668 
L 295.321378 293.707824 
L 297.804317 292.442703 
L 300.260217 291.125862 
L 302.688 289.757876 
L 305.086602 288.339347 
L 307.45497 286.870896 
L 309.792066 285.353169 
L 312.096864 283.786829 
L 314.368355 282.172565 
L 316.60554 280.511085 
L 318.807439 278.803117 
L 320.973086 277.04941 
L 323.101532 275.250734 
L 325.191842 273.407878 
L 327.2431 271.52165 
L 329.254405 269.592877 
L 331.224877 267.622405 
L 333.15365 265.6111 
L 335.039878 263.559842 
L 336.882734 261.469532 
L 338.68141 259.341086 
L 340.435117 257.175439 
L 342.143085 254.97354 
L 343.804565 252.736355 
L 345.418829 250.464864 
L 346.985169 248.160066 
L 348.502896 245.82297 
L 349.971347 243.454602 
L 351.389876 241.056 
L 352.757862 238.628217 
L 354.074703 236.172317 
L 355.339824 233.689378 
L 356.552668 231.180489 
L 357.712704 228.646751 
L 358.819423 226.089274 
L 359.87234 223.50918 
L 360.870992 220.907602 
L 361.814942 218.285681 
L 362.703776 215.644565 
L 363.537103 212.985415 
L 364.314558 210.309396 
L 365.035801 207.617682 
L 365.700515 204.911453 
L 366.308407 202.191898 
L 366.859212 199.460208 
L 367.352689 196.717582 
L 367.78862 193.965223 
L 368.166814 191.204339 
L 368.487105 188.436139 
L 368.749354 185.661839 
L 368.953444 182.882655 
L 369.099287 180.099807 
L 369.186819 177.314515 
L 369.216 174.528 
L 369.186819 171.741485 
L 369.099287 168.956193 
L 368.953444 166.173345 
L 368.749354 163.394161 
L 368.487105 160.619861 
L 368.166814 157.851661 
L 367.78862 155.090777 
L 367.352689 152.338418 
L 366.859212 149.595792 
L 366.308407 146.864102 
L 365.700515 144.144547 
L 365.035801 141.438318 
L 364.314558 138.746604 
L 363.537103 136.070585 
L 362.703776 133.411435 
L 361.814942 130.770319 
L 360.870992 128.148398 
L 359.87234 125.54682 
L 358.819423 122.966726 
L 357.712704 120.409249 
L 356.552668 117.875511 
L 355.339824 115.366622 
L 354.074703 112.883683 
L 352.757862 110.427783 
L 351.389876 108 
L 351.389876 108 
L 351.389876 108 
L 351.389876 108 
L 351.389876 108 
L 351.389876 108 
L 351.389876 108 
L 351.389876 108 
L 351.389876 108 
L 351.389876 108 
L 351.389876 108 
L 351.389876 108 
L 351.389876 108 
L 351.389876 108 
L 351.389876 108 
L 351.389876 108 
L 351.389876 108 
L 351.389876 108 
L 351.389876 108 
L 351.389876 108 
L 351.389876 108 
L 351.389876 108 
L 351.389876 108 
L 351.389876 108 
L 351.389876 108 
L 351.389876 108 
L 351.389876 108 
L 351.389876 108 
L 351.389876 108 
L 351.389876 108 
L 351.389876 108 
L 351.389876 108 
L 351.389876 108 
L 351.389876 108 
L 351.389876 108 
L 351.389876 108 
L 351.389876 108 
L 351.389876 108 
L 351.389876 108 
L 351.389876 108 
L 351.389876 108 
L 351.389876 108 
L 351.389876 108 
L 351.389876 108 
L 351.389876 108 
L 351.389876 108 
L 351.389876 108 
L 351.389876 108 
L 351.389876 108 
L 351.389876 108 
L 351.389876 108 
L 351.389876 108 
L 351.389876 108 
L 351.389876 108 
L 351.389876 108 
L 351.389876 108 
L 351.389876 108 
L 351.389876 108 
L 351.389876 108 
L 351.389876 108 
L 351.389876 108 
L 351.389876 108 
L 351.389876 108 
L 351.389876 108 
L 351.389876 108 
L 351.389876 108 
L 351.389876 108 
L 351.389876 108 
L 351.389876 108 
L 351.389876 108 
L 351.389876 108 
L 351.389876 108 
L 351.389876 108 
L 351.389876 108 
L 351.389876 108 
L 351.389876 108 
L 351.389876 108 
L 351.389876 108 
L 351.389876 108 
L 351.389876 108 
L 351.389876 108 
L 351.389876 108 
L 351.389876 108 
L 351.389876 108 
L 351.389876 108 
L 351.389876 108 
L 351.389876 108 
L 351.389876 108 
L 351.389876 108 
L 351.389876 108 
L 351.389876 108 
L 351.389876 108 
L 351.389876 108 
L 351.389876 108 
L 351.389876 108 
L 351.389876 108 
L 351.389876 108 
L 351.389876 108 
L 351.389876 108 
L 351.389876 108 
L 351.389876 108 
L 352.757862 110.427783 
L 354.074703 112.883683 
L 355.339824 115.366622 
L 356.552668 117.875511 
L 357.712704 120.409249 
L 358.819423 122.966726 
L 359.87234 125.54682 
L 360.870992 128.148398 
L 361.814942 130.770319 
L 362.703776 133.411435 
L 363.537103 136.070585 
L 364.314558 138.746604 
L 365.035801 141.438318 
L 365.700515 144.144547 
L 366.308407 146.864102 
L 366.859212 149.595792 
L 367.352689 152.338418 
L 367.78862 155.090777 
L 368.166814 157.851661 
L 368.487105 160.619861 
L 368.749354 163.394161 
L 368.953444 166.173345 
L 369.099287 168.956193 
L 369.186819 171.741485 
L 369.216 174.528 
L 369.186819 177.314515 
L 369.099287 180.099807 
L 368.953444 182.882655 
L 368.749354 185.661839 
L 368.487105 188.436139 
L 368.166814 191.204339 
L 367.78862 193.965223 
L 367.352689 196.717582 
L 366.859212 199.460208 
L 366.308407 202.191898 
L 365.700515 204.911453 
L 365.035801 207.617682 
L 364.314558 210.309396 
L 363.537103 212.985415 
L 362.703776 215.644565 
L 361.814942 218.285681 
L 360.870992 220.907602 
L 359.87234 223.50918 
L 358.819423 226.089274 
L 357.712704 228.646751 
L 356.552668 231.180489 
L 355.339824 233.689378 
L 354.074703 236.172317 
L 352.757862 238.628217 
L 351.389876 241.056 
L 349.971347 243.454602 
L 348.502896 245.82297 
L 346.985169 248.160066 
L 345.418829 250.464864 
L 343.804565 252.736355 
L 342.143085 254.97354 
L 340.435117 257.175439 
L 338.68141 259.341086 
L 336.882734 261.469532 
L 335.039878 263.559842 
L 333.15365 265.6111 
L 331.224877 267.622405 
L 329.254405 269.592877 
L 327.2431 271.52165 
L 325.191842 273.407878 
L 323.101532 275.250734 
L 320.973086 277.04941 
L 318.807439 278.803117 
L 316.60554 280.511085 
L 314.368355 282.172565 
L 312.096864 283.786829 
L 309.792066 285.353169 
L 307.45497 286.870896 
L 305.086602 288.339347 
L 302.688 289.757876 
L 300.260217 291.125862 
L 297.804317 292.442703 
L 295.321378 293.707824 
L 292.812489 294.920668 
L 290.278751 296.080704 
L 287.721274 297.187423 
L 285.14118 298.24034 
L 282.539602 299.238992 
L 279.917681 300.182942 
L 277.276565 301.071776 
L 274.617415 301.905103 
L 271.941396 302.682558 
L 269.249682 303.403801 
L 266.543453 304.068515 
L 263.823898 304.676407 
L 261.092208 305.227212 
L 258.349582 305.720689 
L 255.597223 306.15662 
L 252.836339 306.534814 
L 250.068139 306.855105 
L 247.293839 307.117354 
L 244.514655 307.321444 
L 241.731807 307.467287 
L 238.946515 307.554819 
L 236.16 307.584 
L 236.16 307.584 
L 236.16 307.584 
L 236.16 307.584 
L 236.16 307.584 
L 236.16 307.584 
L 236.16 307.584 
L 236.16 307.584 
L 236.16 307.584 
L 236.16 307.584 
L 236.16 307.584 
L 236.16 307.584 
L 236.16 307.584 
L 236.16 307.584 
L 236.16 307.584 
L 236.16 307.584 
L 236.16 307.584 
L 236.16 307.584 
L 236.16 307.584 
L 236.16 307.584 
L 236.16 307.584 
L 236.16 307.584 
L 236.16 307.584 
L 236.16 307.584 
L 236.16 307.584 
L 236.16 307.584 
L 236.16 307.584 
L 236.16 307.584 
L 236.16 307.584 
L 236.16 307.584 
L 236.16 307.584 
L 236.16 307.584 
L 236.16 307.584 
L 236.16 307.584 
L 236.16 307.584 
L 236.16 307.584 
L 236.16 307.584 
L 236.16 307.584 
L 236.16 307.584 
L 236.16 307.584 
L 236.16 307.584 
L 236.16 307.584 
L 236.16 307.584 
L 236.16 307.584 
L 236.16 307.584 
L 236.16 307.584 
L 236.16 307.584 
L 236.16 307.584 
L 236.16 307.584 
L 236.16 307.584 
L 236.16 307.584 
L 236.16 307.584 
L 236.16 307.584 
L 236.16 307.584 
L 236.16 307.584 
L 236.16 307.584 
L 236.16 307.584 
L 236.16 307.584 
L 236.16 307.584 
L 236.16 307.584 
L 236.16 307.584 
L 236.16 307.584 
L 236.16 307.584 
L 236.16 307.584 
L 236.16 307.584 
L 236.16 307.584 
L 236.16 307.584 
L 236.16 307.584 
L 236.16 307.584 
L 236.16 307.584 
L 236.16 307.584 
L 236.16 307.584 
L 236.16 307.584 
L 236.16 307.584 
L 236.16 307.584 
L 236.16 307.584 
L 236.16 307.584 
L 236.16 307.584 
L 236.16 307.584 
L 236.16 307.584 
L 236.16 307.584 
L 236.16 307.584 
L 236.16 307.584 
L 236.16 307.584 
L 236.16 307.584 
L 236.16 307.584 
L 236.16 307.584 
L 236.16 307.584 
L 236.16 307.584 
L 236.16 307.584 
L 236.16 307.584 
L 236.16 307.584 
L 236.16 307.584 
L 236.16 307.584 
L 236.16 307.584 
L 236.16 307.584 
L 236.16 307.584 
L 236.16 307.584 
L 236.16 307.584 
L 236.16 307.584 
z
" style="fill:#ff003c;"/>
   </g>
   <g id="patch_10">
    <path clip-path="url(#p7356dc63a4)" d="M 236.16 307.584 
L 238.946515 307.554819 
L 241.731807 307.467287 
L 244.514655 307.321444 
L 247.293839 307.117354 
L 250.068139 306.855105 
L 252.836339 306.534814 
L 255.597223 306.15662 
L 258.349582 305.720689 
L 261.092208 305.227212 
L 263.823898 304.676407 
L 266.543453 304.068515 
L 269.249682 303.403801 
L 271.941396 302.682558 
L 274.617415 301.905103 
L 277.276565 301.071776 
L 279.917681 300.182942 
L 282.539602 299.238992 
L 285.14118 298.24034 
L 287.721274 297.187423 
L 290.278751 296.080704 
L 292.812489 294.920668 
L 295.321378 293.707824 
L 297.804317 292.442703 
L 300.260217 291.125862 
L 302.688 289.757876 
L 305.086602 288.339347 
L 307.45497 286.870896 
L 309.792066 285.353169 
L 312.096864 283.786829 
L 314.368355 282.172565 
L 316.60554 280.511085 
L 318.807439 278.803117 
L 320.973086 277.04941 
L 323.101532 275.250734 
L 325.191842 273.407878 
L 327.2431 271.52165 
L 329.254405 269.592877 
L 331.224877 267.622405 
L 333.15365 265.6111 
L 335.039878 263.559842 
L 336.882734 261.469532 
L 338.68141 259.341086 
L 340.435117 257.175439 
L 342.143085 254.97354 
L 343.804565 252.736355 
L 345.418829 250.464864 
L 346.985169 248.160066 
L 348.502896 245.82297 
L 349.971347 243.454602 
L 351.389876 241.056 
L 352.757862 238.628217 
L 354.074703 236.172317 
L 355.339824 233.689378 
L 356.552668 231.180489 
L 357.712704 228.646751 
L 358.819423 226.089274 
L 359.87234 223.50918 
L 360.870992 220.907602 
L 361.814942 218.285681 
L 362.703776 215.644565 
L 363.537103 212.985415 
L 364.314558 210.309396 
L 365.035801 207.617682 
L 365.700515 204.911453 
L 366.308407 202.191898 
L 366.859212 199.460208 
L 367.352689 196.717582 
L 367.78862 193.965223 
L 368.166814 191.204339 
L 368.487105 188.436139 
L 368.749354 185.661839 
L 368.953444 182.882655 
L 369.099287 180.099807 
L 369.186819 177.314515 
L 369.216 174.528 
L 369.186819 171.741485 
L 369.099287 168.956193 
L 368.953444 166.173345 
L 368.749354 163.394161 
L 368.487105 160.619861 
L 368.166814 157.851661 
L 367.78862 155.090777 
L 367.352689 152.338418 
L 366.859212 149.595792 
L 366.308407 146.864102 
L 365.700515 144.144547 
L 365.035801 141.438318 
L 364.314558 138.746604 
L 363.537103 136.070585 
L 362.703776 133.411435 
L 361.814942 130.770319 
L 360.870992 128.148398 
L 359.87234 125.54682 
L 358.819423 122.966726 
L 357.712704 120.409249 
L 356.552668 117.875511 
L 355.339824 115.366622 
L 354.074703 112.883683 
L 352.757862 110.427783 
L 351.389876 108 
L 351.389876 108 
L 351.389876 108 
L 351.389876 108 
L 351.389876 108 
L 351.389876 108 
L 351.389876 108 
L 351.389876 108 
L 351.389876 108 
L 351.389876 108 
L 351.389876 108 
L 351.389876 108 
L 351.389876 108 
L 351.389876 108 
L 351.389876 108 
L 351.389876 108 
L 351.389876 108 
L 351.389876 108 
L 351.389876 108 
L 351.389876 108 
L 351.389876 108 
L 351.389876 108 
L 351.389876 108 
L 351.389876 108 
L 351.389876 108 
L 351.389876 108 
L 351.389876 108 
L 351.389876 108 
L 351.389876 108 
L 351.389876 108 
L 351.389876 108 
L 351.389876 108 
L 351.389876 108 
L 351.389876 108 
L 351.389876 108 
L 351.389876 108 
L 351.389876 108 
L 351.389876 108 
L 351.389876 108 
L 351.389876 108 
L 351.389876 108 
L 351.389876 108 
L 351.389876 108 
L 351.389876 108 
L 351.389876 108 
L 351.389876 108 
L 351.389876 108 
L 351.389876 108 
L 351.389876 108 
L 351.389876 108 
L 351.389876 108 
L 351.389876 108 
L 351.389876 108 
L 351.389876 108 
L 351.389876 108 
L 351.389876 108 
L 351.389876 108 
L 351.389876 108 
L 351.389876 108 
L 351.389876 108 
L 351.389876 108 
L 351.389876 108 
L 351.389876 108 
L 351.389876 108 
L 351.389876 108 
L 351.389876 108 
L 351.389876 108 
L 351.389876 108 
L 351.389876 108 
L 351.389876 108 
L 351.389876 108 
L 351.389876 108 
L 351.389876 108 
L 351.389876 108 
L 351.389876 108 
L 351.389876 108 
L 351.389876 108 
L 351.389876 108 
L 351.389876 108 
L 351.389876 108 
L 351.389876 108 
L 351.389876 108 
L 351.389876 108 
L 351.389876 108 
L 351.389876 108 
L 351.389876 108 
L 351.389876 108 
L 351.389876 108 
L 351.389876 108 
L 351.389876 108 
L 351.389876 108 
L 351.389876 108 
L 351.389876 108 
L 351.389876 108 
L 351.389876 108 
L 351.389876 108 
L 351.389876 108 
L 351.389876 108 
L 351.389876 108 
L 351.389876 108 
L 351.389876 108 
L 352.757862 110.427783 
L 354.074703 112.883683 
L 355.339824 115.366622 
L 356.552668 117.875511 
L 357.712704 120.409249 
L 358.819423 122.966726 
L 359.87234 125.54682 
L 360.870992 128.148398 
L 361.814942 130.770319 
L 362.703776 133.411435 
L 363.537103 136.070585 
L 364.314558 138.746604 
L 365.035801 141.438318 
L 365.700515 144.144547 
L 366.308407 146.864102 
L 366.859212 149.595792 
L 367.352689 152.338418 
L 367.78862 155.090777 
L 368.166814 157.851661 
L 368.487105 160.619861 
L 368.749354 163.394161 
L 368.953444 166.173345 
L 369.099287 168.956193 
L 369.186819 171.741485 
L 369.216 174.528 
L 369.186819 177.314515 
L 369.099287 180.099807 
L 368.953444 182.882655 
L 368.749354 185.661839 
L 368.487105 188.436139 
L 368.166814 191.204339 
L 367.78862 193.965223 
L 367.352689 196.717582 
L 366.859212 199.460208 
L 366.308407 202.191898 
L 365.700515 204.911453 
L 365.035801 207.617682 
L 364.314558 210.309396 
L 363.537103 212.985415 
L 362.703776 215.644565 
L 361.814942 218.285681 
L 360.870992 220.907602 
L 359.87234 223.50918 
L 358.819423 226.089274 
L 357.712704 228.646751 
L 356.552668 231.180489 
L 355.339824 233.689378 
L 354.074703 236.172317 
L 352.757862 238.628217 
L 351.389876 241.056 
L 349.971347 243.454602 
L 348.502896 245.82297 
L 346.985169 248.160066 
L 345.418829 250.464864 
L 343.804565 252.736355 
L 342.143085 254.97354 
L 340.435117 257.175439 
L 338.68141 259.341086 
L 336.882734 261.469532 
L 335.039878 263.559842 
L 333.15365 265.6111 
L 331.224877 267.622405 
L 329.254405 269.592877 
L 327.2431 271.52165 
L 325.191842 273.407878 
L 323.101532 275.250734 
L 320.973086 277.04941 
L 318.807439 278.803117 
L 316.60554 280.511085 
L 314.368355 282.172565 
L 312.096864 283.786829 
L 309.792066 285.353169 
L 307.45497 286.870896 
L 305.086602 288.339347 
L 302.688 289.757876 
L 300.260217 291.125862 
L 297.804317 292.442703 
L 295.321378 293.707824 
L 292.812489 294.920668 
L 290.278751 296.080704 
L 287.721274 297.187423 
L 285.14118 298.24034 
L 282.539602 299.238992 
L 279.917681 300.182942 
L 277.276565 301.071776 
L 274.617415 301.905103 
L 271.941396 302.682558 
L 269.249682 303.403801 
L 266.543453 304.068515 
L 263.823898 304.676407 
L 261.092208 305.227212 
L 258.349582 305.720689 
L 255.597223 306.15662 
L 252.836339 306.534814 
L 250.068139 306.855105 
L 247.293839 307.117354 
L 244.514655 307.321444 
L 241.731807 307.467287 
L 238.946515 307.554819 
L 236.16 307.584 
L 236.16 307.584 
L 236.16 307.584 
L 236.16 307.584 
L 236.16 307.584 
L 236.16 307.584 
L 236.16 307.584 
L 236.16 307.584 
L 236.16 307.584 
L 236.16 307.584 
L 236.16 307.584 
L 236.16 307.584 
L 236.16 307.584 
L 236.16 307.584 
L 236.16 307.584 
L 236.16 307.584 
L 236.16 307.584 
L 236.16 307.584 
L 236.16 307.584 
L 236.16 307.584 
L 236.16 307.584 
L 236.16 307.584 
L 236.16 307.584 
L 236.16 307.584 
L 236.16 307.584 
L 236.16 307.584 
L 236.16 307.584 
L 236.16 307.584 
L 236.16 307.584 
L 236.16 307.584 
L 236.16 307.584 
L 236.16 307.584 
L 236.16 307.584 
L 236.16 307.584 
L 236.16 307.584 
L 236.16 307.584 
L 236.16 307.584 
L 236.16 307.584 
L 236.16 307.584 
L 236.16 307.584 
L 236.16 307.584 
L 236.16 307.584 
L 236.16 307.584 
L 236.16 307.584 
L 236.16 307.584 
L 236.16 307.584 
L 236.16 307.584 
L 236.16 307.584 
L 236.16 307.584 
L 236.16 307.584 
L 236.16 307.584 
L 236.16 307.584 
L 236.16 307.584 
L 236.16 307.584 
L 236.16 307.584 
L 236.16 307.584 
L 236.16 307.584 
L 236.16 307.584 
L 236.16 307.584 
L 236.16 307.584 
L 236.16 307.584 
L 236.16 307.584 
L 236.16 307.584 
L 236.16 307.584 
L 236.16 307.584 
L 236.16 307.584 
L 236.16 307.584 
L 236.16 307.584 
L 236.16 307.584 
L 236.16 307.584 
L 236.16 307.584 
L 236.16 307.584 
L 236.16 307.584 
L 236.16 307.584 
L 236.16 307.584 
L 236.16 307.584 
L 236.16 307.584 
L 236.16 307.584 
L 236.16 307.584 
L 236.16 307.584 
L 236.16 307.584 
L 236.16 307.584 
L 236.16 307.584 
L 236.16 307.584 
L 236.16 307.584 
L 236.16 307.584 
L 236.16 307.584 
L 236.16 307.584 
L 236.16 307.584 
L 236.16 307.584 
L 236.16 307.584 
L 236.16 307.584 
L 236.16 307.584 
L 236.16 307.584 
L 236.16 307.584 
L 236.16 307.584 
L 236.16 307.584 
L 236.16 307.584 
L 236.16 307.584 
L 236.16 307.584 
z
" style="fill:#88c100;"/>
   </g>
  </g>
 </g>
 <defs>
  <clipPath id="p7356dc63a4">
   <path d="M 369.216 174.528 
C 369.216 157.055246 365.774248 139.752393 359.087715 123.609673 
C 352.401182 107.466954 342.599903 92.798303 330.2448 80.4432 
C 317.889697 68.088097 303.221046 58.286818 287.078327 51.600285 
C 270.935607 44.913752 253.632754 41.472 236.16 41.472 
C 218.687246 41.472 201.384393 44.913752 185.241673 51.600285 
C 169.098954 58.286818 154.430303 68.088097 142.0752 80.4432 
C 129.720097 92.798303 119.918818 107.466954 113.232285 123.609673 
C 106.545752 139.752393 103.104 157.055246 103.104 174.528 
C 103.104 192.000754 106.545752 209.303607 113.232285 225.446327 
C 119.918818 241.589046 129.720097 256.257697 142.0752 268.6128 
C 154.430303 280.967903 169.098954 290.769182 185.241673 297.455715 
C 201.384393 304.142248 218.687246 307.584 236.16 307.584 
C 253.632754 307.584 270.935607 304.142248 287.078327 297.455715 
C 303.221046 290.769182 317.889697 280.967903 330.2448 268.6128 
C 342.599903 256.257697 352.401182 241.589046 359.087715 225.446327 
C 365.774248 209.303607 369.216 192.000754 369.216 174.528 
M 236.16 174.528 
C 236.16 174.528 236.16 174.528 236.16 174.528 
C 236.16 174.528 236.16 174.528 236.16 174.528 
C 236.16 174.528 236.16 174.528 236.16 174.528 
C 236.16 174.528 236.16 174.528 236.16 174.528 
C 236.16 174.528 236.16 174.528 236.16 174.528 
C 236.16 174.528 236.16 174.528 236.16 174.528 
C 236.16 174.528 236.16 174.528 236.16 174.528 
C 236.16 174.528 236.16 174.528 236.16 174.528 
C 236.16 174.528 236.16 174.528 236.16 174.528 
C 236.16 174.528 236.16 174.528 236.16 174.528 
C 236.16 174.528 236.16 174.528 236.16 174.528 
C 236.16 174.528 236.16 174.528 236.16 174.528 
C 236.16 174.528 236.16 174.528 236.16 174.528 
C 236.16 174.528 236.16 174.528 236.16 174.528 
C 236.16 174.528 236.16 174.528 236.16 174.528 
C 236.16 174.528 236.16 174.528 236.16 174.528 
M 369.216 174.528 
z
"/>
  </clipPath>
 </defs>
</svg>
