<?xml version="1.0" encoding="utf-8" standalone="no"?>
<!DOCTYPE svg PUBLIC "-//W3C//DTD SVG 1.1//EN"
  "http://www.w3.org/Graphics/SVG/1.1/DTD/svg11.dtd">
<!-- Created with matplotlib (https://matplotlib.org/) -->
<svg height="345.6pt" version="1.1" viewBox="0 0 460.8 345.6" width="460.8pt" xmlns="http://www.w3.org/2000/svg" xmlns:xlink="http://www.w3.org/1999/xlink">
 <defs>
  <style type="text/css">
*{stroke-linecap:butt;stroke-linejoin:round;}
  </style>
 </defs>
 <g id="figure_1">
  <g id="patch_1">
   <path d="M 0 345.6 
L 460.8 345.6 
L 460.8 0 
L 0 0 
z
" style="fill:none;"/>
  </g>
  <g id="axes_1">
   <g id="patch_2">
    <path clip-path="url(#p54c6b09457)" d="M 236.16 174.528 
L 236.16 174.528 
L 236.16 174.528 
L 236.16 174.528 
L 236.16 174.528 
L 236.16 174.528 
L 236.16 174.528 
L 236.16 174.528 
L 236.16 174.528 
L 236.16 174.528 
L 236.16 174.528 
L 236.16 174.528 
L 236.16 174.528 
L 236.16 174.528 
L 236.16 174.528 
L 236.16 174.528 
L 236.16 174.528 
L 236.16 174.528 
L 236.16 174.528 
L 236.16 174.528 
L 236.16 174.528 
L 236.16 174.528 
L 236.16 174.528 
L 236.16 174.528 
L 236.16 174.528 
L 236.16 174.528 
L 236.16 174.528 
L 236.16 174.528 
L 236.16 174.528 
L 236.16 174.528 
L 236.16 174.528 
L 236.16 174.528 
L 236.16 174.528 
L 236.16 174.528 
L 236.16 174.528 
L 236.16 174.528 
L 236.16 174.528 
L 236.16 174.528 
L 236.16 174.528 
L 236.16 174.528 
L 236.16 174.528 
L 236.16 174.528 
L 236.16 174.528 
L 236.16 174.528 
L 236.16 174.528 
L 236.16 174.528 
L 236.16 174.528 
L 236.16 174.528 
L 236.16 174.528 
L 236.16 174.528 
L 236.16 174.528 
L 236.16 174.528 
L 236.16 174.528 
L 236.16 174.528 
L 236.16 174.528 
L 236.16 174.528 
L 236.16 174.528 
L 236.16 174.528 
L 236.16 174.528 
L 236.16 174.528 
L 236.16 174.528 
L 236.16 174.528 
L 236.16 174.528 
L 236.16 174.528 
L 236.16 174.528 
L 236.16 174.528 
L 236.16 174.528 
L 236.16 174.528 
L 236.16 174.528 
L 236.16 174.528 
L 236.16 174.528 
L 236.16 174.528 
L 236.16 174.528 
L 236.16 174.528 
L 236.16 174.528 
L 236.16 174.528 
L 236.16 174.528 
L 236.16 174.528 
L 236.16 174.528 
L 236.16 174.528 
L 236.16 174.528 
L 236.16 174.528 
L 236.16 174.528 
L 236.16 174.528 
L 236.16 174.528 
L 236.16 174.528 
L 236.16 174.528 
L 236.16 174.528 
L 236.16 174.528 
L 236.16 174.528 
L 236.16 174.528 
L 236.16 174.528 
L 236.16 174.528 
L 236.16 174.528 
L 236.16 174.528 
L 236.16 174.528 
L 236.16 174.528 
L 236.16 174.528 
L 236.16 174.528 
L 236.16 174.528 
L 236.16 174.528 
L 234.82944 174.528 
L 233.49888 174.528 
L 232.16832 174.528 
L 230.83776 174.528 
L 229.5072 174.528 
L 228.17664 174.528 
L 226.84608 174.528 
L 225.51552 174.528 
L 224.18496 174.528 
L 222.8544 174.528 
L 221.52384 174.528 
L 220.19328 174.528 
L 218.86272 174.528 
L 217.53216 174.528 
L 216.2016 174.528 
L 214.87104 174.528 
L 213.54048 174.528 
L 212.20992 174.528 
L 210.87936 174.528 
L 209.5488 174.528 
L 208.21824 174.528 
L 206.88768 174.528 
L 205.55712 174.528 
L 204.22656 174.528 
L 202.896 174.528 
L 201.56544 174.528 
L 200.23488 174.528 
L 198.90432 174.528 
L 197.57376 174.528 
L 196.2432 174.528 
L 194.91264 174.528 
L 193.58208 174.528 
L 192.25152 174.528 
L 190.92096 174.528 
L 189.5904 174.528 
L 188.25984 174.528 
L 186.92928 174.528 
L 185.59872 174.528 
L 184.26816 174.528 
L 182.9376 174.528 
L 181.60704 174.528 
L 180.27648 174.528 
L 178.94592 174.528 
L 177.61536 174.528 
L 176.2848 174.528 
L 174.95424 174.528 
L 173.62368 174.528 
L 172.29312 174.528 
L 170.96256 174.528 
L 169.632 174.528 
L 168.30144 174.528 
L 166.97088 174.528 
L 165.64032 174.528 
L 164.30976 174.528 
L 162.9792 174.528 
L 161.64864 174.528 
L 160.31808 174.528 
L 158.98752 174.528 
L 157.65696 174.528 
L 156.3264 174.528 
L 154.99584 174.528 
L 153.66528 174.528 
L 152.33472 174.528 
L 151.00416 174.528 
L 149.6736 174.528 
L 148.34304 174.528 
L 147.01248 174.528 
L 145.68192 174.528 
L 144.35136 174.528 
L 143.0208 174.528 
L 141.69024 174.528 
L 140.35968 174.528 
L 139.02912 174.528 
L 137.69856 174.528 
L 136.368 174.528 
L 135.03744 174.528 
L 133.70688 174.528 
L 132.37632 174.528 
L 131.04576 174.528 
L 129.7152 174.528 
L 128.38464 174.528 
L 127.05408 174.528 
L 125.72352 174.528 
L 124.39296 174.528 
L 123.0624 174.528 
L 121.73184 174.528 
L 120.40128 174.528 
L 119.07072 174.528 
L 117.74016 174.528 
L 116.4096 174.528 
L 115.07904 174.528 
L 113.74848 174.528 
L 112.41792 174.528 
L 111.08736 174.528 
L 109.7568 174.528 
L 108.42624 174.528 
L 107.09568 174.528 
L 105.76512 174.528 
L 104.43456 174.528 
L 103.104 174.528 
L 103.169655 170.34861 
L 103.366556 166.173345 
L 103.694507 162.006324 
L 104.153186 157.851661 
L 104.74214 153.713456 
L 105.460788 149.595792 
L 106.308419 145.502733 
L 107.284199 141.438318 
L 108.387163 137.406559 
L 109.616224 133.411435 
L 110.970168 129.456887 
L 112.44766 125.54682 
L 114.047241 121.68509 
L 115.767332 117.875511 
L 117.606236 114.12184 
L 119.562138 110.427783 
L 121.633109 106.796985 
L 123.817104 103.23303 
L 126.111967 99.739434 
L 128.515435 96.319645 
L 131.025135 92.977039 
L 133.63859 89.714914 
L 136.353222 86.536488 
L 139.16635 83.4449 
L 142.0752 80.4432 
L 145.0769 77.53435 
L 148.168488 74.721222 
L 151.346914 72.00659 
L 154.609039 69.393135 
L 157.951645 66.883435 
L 161.371434 64.479967 
L 164.86503 62.185104 
L 168.428985 60.001109 
L 172.059783 57.930138 
L 175.75384 55.974236 
L 179.507511 54.135332 
L 183.31709 52.415241 
L 187.17882 50.81566 
L 191.088887 49.338168 
L 195.043435 47.984224 
L 199.038559 46.755163 
L 203.070318 45.652199 
L 207.134733 44.676419 
L 211.227792 43.828788 
L 215.345456 43.11014 
L 219.483661 42.521186 
L 223.638324 42.062507 
L 227.805345 41.734556 
L 231.98061 41.537655 
L 236.16 41.472 
L 240.33939 41.537655 
L 244.514655 41.734556 
L 248.681676 42.062507 
L 252.836339 42.521186 
L 256.974544 43.11014 
L 261.092208 43.828788 
L 265.185267 44.676419 
L 269.249682 45.652199 
L 273.281441 46.755163 
L 277.276565 47.984224 
L 281.231113 49.338168 
L 285.14118 50.81566 
L 289.00291 52.415241 
L 292.812489 54.135332 
L 296.56616 55.974236 
L 300.260217 57.930138 
L 303.891015 60.001109 
L 307.45497 62.185104 
L 310.948566 64.479967 
L 314.368355 66.883435 
L 317.710961 69.393135 
L 320.973086 72.00659 
L 324.151512 74.721222 
L 327.2431 77.53435 
L 330.2448 80.4432 
L 333.15365 83.4449 
L 335.966778 86.536488 
L 338.68141 89.714914 
L 341.294865 92.977039 
L 343.804565 96.319645 
L 346.208033 99.739434 
L 348.502896 103.23303 
L 350.686891 106.796985 
L 352.757862 110.427783 
L 354.713764 114.12184 
L 356.552668 117.875511 
L 358.272759 121.68509 
L 359.87234 125.54682 
L 361.349832 129.456887 
L 362.703776 133.411435 
L 363.932837 137.406559 
L 365.035801 141.438318 
L 366.011581 145.502733 
L 366.859212 149.595792 
L 367.57786 153.713456 
L 368.166814 157.851661 
L 368.625493 162.006324 
L 368.953444 166.173345 
L 369.150345 170.34861 
L 369.216 174.528 
L 367.88544 174.528 
L 366.55488 174.528 
L 365.22432 174.528 
L 363.89376 174.528 
L 362.5632 174.528 
L 361.23264 174.528 
L 359.90208 174.528 
L 358.57152 174.528 
L 357.24096 174.528 
L 355.9104 174.528 
L 354.57984 174.528 
L 353.24928 174.528 
L 351.91872 174.528 
L 350.58816 174.528 
L 349.2576 174.528 
L 347.92704 174.528 
L 346.59648 174.528 
L 345.26592 174.528 
L 343.93536 174.528 
L 342.6048 174.528 
L 341.27424 174.528 
L 339.94368 174.528 
L 338.61312 174.528 
L 337.28256 174.528 
L 335.952 174.528 
L 334.62144 174.528 
L 333.29088 174.528 
L 331.96032 174.528 
L 330.62976 174.528 
L 329.2992 174.528 
L 327.96864 174.528 
L 326.63808 174.528 
L 325.30752 174.528 
L 323.97696 174.528 
L 322.6464 174.528 
L 321.31584 174.528 
L 319.98528 174.528 
L 318.65472 174.528 
L 317.32416 174.528 
L 315.9936 174.528 
L 314.66304 174.528 
L 313.33248 174.528 
L 312.00192 174.528 
L 310.67136 174.528 
L 309.3408 174.528 
L 308.01024 174.528 
L 306.67968 174.528 
L 305.34912 174.528 
L 304.01856 174.528 
L 302.688 174.528 
L 301.35744 174.528 
L 300.02688 174.528 
L 298.69632 174.528 
L 297.36576 174.528 
L 296.0352 174.528 
L 294.70464 174.528 
L 293.37408 174.528 
L 292.04352 174.528 
L 290.71296 174.528 
L 289.3824 174.528 
L 288.05184 174.528 
L 286.72128 174.528 
L 285.39072 174.528 
L 284.06016 174.528 
L 282.7296 174.528 
L 281.39904 174.528 
L 280.06848 174.528 
L 278.73792 174.528 
L 277.40736 174.528 
L 276.0768 174.528 
L 274.74624 174.528 
L 273.41568 174.528 
L 272.08512 174.528 
L 270.75456 174.528 
L 269.424 174.528 
L 268.09344 174.528 
L 266.76288 174.528 
L 265.43232 174.528 
L 264.10176 174.528 
L 262.7712 174.528 
L 261.44064 174.528 
L 260.11008 174.528 
L 258.77952 174.528 
L 257.44896 174.528 
L 256.1184 174.528 
L 254.78784 174.528 
L 253.45728 174.528 
L 252.12672 174.528 
L 250.79616 174.528 
L 249.4656 174.528 
L 248.13504 174.528 
L 246.80448 174.528 
L 245.47392 174.528 
L 244.14336 174.528 
L 242.8128 174.528 
L 241.48224 174.528 
L 240.15168 174.528 
L 238.82112 174.528 
L 237.49056 174.528 
z
" style="fill:#fabe28;"/>
   </g>
   <g id="patch_3">
    <path clip-path="url(#p54c6b09457)" d="M 369.216 174.528 
L 369.150345 170.34861 
L 368.953444 166.173345 
L 368.625493 162.006324 
L 368.166814 157.851661 
L 367.57786 153.713456 
L 366.859212 149.595792 
L 366.011581 145.502733 
L 365.035801 141.438318 
L 363.932837 137.406559 
L 362.703776 133.411435 
L 361.349832 129.456887 
L 359.87234 125.54682 
L 358.272759 121.68509 
L 356.552668 117.875511 
L 354.713764 114.12184 
L 352.757862 110.427783 
L 350.686891 106.796985 
L 348.502896 103.23303 
L 346.208033 99.739434 
L 343.804565 96.319645 
L 341.294865 92.977039 
L 338.68141 89.714914 
L 335.966778 86.536488 
L 333.15365 83.4449 
L 330.2448 80.4432 
L 327.2431 77.53435 
L 324.151512 74.721222 
L 320.973086 72.00659 
L 317.710961 69.393135 
L 314.368355 66.883435 
L 310.948566 64.479967 
L 307.45497 62.185104 
L 303.891015 60.001109 
L 300.260217 57.930138 
L 296.56616 55.974236 
L 292.812489 54.135332 
L 289.00291 52.415241 
L 285.14118 50.81566 
L 281.231113 49.338168 
L 277.276565 47.984224 
L 273.281441 46.755163 
L 269.249682 45.652199 
L 265.185267 44.676419 
L 261.092208 43.828788 
L 256.974544 43.11014 
L 252.836339 42.521186 
L 248.681676 42.062507 
L 244.514655 41.734556 
L 240.33939 41.537655 
L 236.16 41.472 
L 231.98061 41.537655 
L 227.805345 41.734556 
L 223.638324 42.062507 
L 219.483661 42.521186 
L 215.345456 43.11014 
L 211.227792 43.828788 
L 207.134733 44.676419 
L 203.070318 45.652199 
L 199.038559 46.755163 
L 195.043435 47.984224 
L 191.088887 49.338168 
L 187.17882 50.81566 
L 183.31709 52.415241 
L 179.507511 54.135332 
L 175.75384 55.974236 
L 172.059783 57.930138 
L 168.428985 60.001109 
L 164.86503 62.185104 
L 161.371434 64.479967 
L 157.951645 66.883435 
L 154.609039 69.393135 
L 151.346914 72.00659 
L 148.168488 74.721222 
L 145.0769 77.53435 
L 142.0752 80.4432 
L 139.16635 83.4449 
L 136.353222 86.536488 
L 133.63859 89.714914 
L 131.025135 92.977039 
L 128.515435 96.319645 
L 126.111967 99.739434 
L 123.817104 103.23303 
L 121.633109 106.796985 
L 119.562138 110.427783 
L 117.606236 114.12184 
L 115.767332 117.875511 
L 114.047241 121.68509 
L 112.44766 125.54682 
L 110.970168 129.456887 
L 109.616224 133.411435 
L 108.387163 137.406559 
L 107.284199 141.438318 
L 106.308419 145.502733 
L 105.460788 149.595792 
L 104.74214 153.713456 
L 104.153186 157.851661 
L 103.694507 162.006324 
L 103.366556 166.173345 
L 103.169655 170.34861 
L 103.104 174.528 
L 103.104 174.528 
L 103.104 174.528 
L 103.104 174.528 
L 103.104 174.528 
L 103.104 174.528 
L 103.104 174.528 
L 103.104 174.528 
L 103.104 174.528 
L 103.104 174.528 
L 103.104 174.528 
L 103.104 174.528 
L 103.104 174.528 
L 103.104 174.528 
L 103.104 174.528 
L 103.104 174.528 
L 103.104 174.528 
L 103.104 174.528 
L 103.104 174.528 
L 103.104 174.528 
L 103.104 174.528 
L 103.104 174.528 
L 103.104 174.528 
L 103.104 174.528 
L 103.104 174.528 
L 103.104 174.528 
L 103.104 174.528 
L 103.104 174.528 
L 103.104 174.528 
L 103.104 174.528 
L 103.104 174.528 
L 103.104 174.528 
L 103.104 174.528 
L 103.104 174.528 
L 103.104 174.528 
L 103.104 174.528 
L 103.104 174.528 
L 103.104 174.528 
L 103.104 174.528 
L 103.104 174.528 
L 103.104 174.528 
L 103.104 174.528 
L 103.104 174.528 
L 103.104 174.528 
L 103.104 174.528 
L 103.104 174.528 
L 103.104 174.528 
L 103.104 174.528 
L 103.104 174.528 
L 103.104 174.528 
L 103.104 174.528 
L 103.104 174.528 
L 103.104 174.528 
L 103.104 174.528 
L 103.104 174.528 
L 103.104 174.528 
L 103.104 174.528 
L 103.104 174.528 
L 103.104 174.528 
L 103.104 174.528 
L 103.104 174.528 
L 103.104 174.528 
L 103.104 174.528 
L 103.104 174.528 
L 103.104 174.528 
L 103.104 174.528 
L 103.104 174.528 
L 103.104 174.528 
L 103.104 174.528 
L 103.104 174.528 
L 103.104 174.528 
L 103.104 174.528 
L 103.104 174.528 
L 103.104 174.528 
L 103.104 174.528 
L 103.104 174.528 
L 103.104 174.528 
L 103.104 174.528 
L 103.104 174.528 
L 103.104 174.528 
L 103.104 174.528 
L 103.104 174.528 
L 103.104 174.528 
L 103.104 174.528 
L 103.104 174.528 
L 103.104 174.528 
L 103.104 174.528 
L 103.104 174.528 
L 103.104 174.528 
L 103.104 174.528 
L 103.104 174.528 
L 103.104 174.528 
L 103.104 174.528 
L 103.104 174.528 
L 103.104 174.528 
L 103.104 174.528 
L 103.104 174.528 
L 103.104 174.528 
L 103.104 174.528 
L 103.104 174.528 
L 103.104 174.528 
L 103.169655 170.34861 
L 103.366556 166.173345 
L 103.694507 162.006324 
L 104.153186 157.851661 
L 104.74214 153.713456 
L 105.460788 149.595792 
L 106.308419 145.502733 
L 107.284199 141.438318 
L 108.387163 137.406559 
L 109.616224 133.411435 
L 110.970168 129.456887 
L 112.44766 125.54682 
L 114.047241 121.68509 
L 115.767332 117.875511 
L 117.606236 114.12184 
L 119.562138 110.427783 
L 121.633109 106.796985 
L 123.817104 103.23303 
L 126.111967 99.739434 
L 128.515435 96.319645 
L 131.025135 92.977039 
L 133.63859 89.714914 
L 136.353222 86.536488 
L 139.16635 83.4449 
L 142.0752 80.4432 
L 145.0769 77.53435 
L 148.168488 74.721222 
L 151.346914 72.00659 
L 154.609039 69.393135 
L 157.951645 66.883435 
L 161.371434 64.479967 
L 164.86503 62.185104 
L 168.428985 60.001109 
L 172.059783 57.930138 
L 175.75384 55.974236 
L 179.507511 54.135332 
L 183.31709 52.415241 
L 187.17882 50.81566 
L 191.088887 49.338168 
L 195.043435 47.984224 
L 199.038559 46.755163 
L 203.070318 45.652199 
L 207.134733 44.676419 
L 211.227792 43.828788 
L 215.345456 43.11014 
L 219.483661 42.521186 
L 223.638324 42.062507 
L 227.805345 41.734556 
L 231.98061 41.537655 
L 236.16 41.472 
L 240.33939 41.537655 
L 244.514655 41.734556 
L 248.681676 42.062507 
L 252.836339 42.521186 
L 256.974544 43.11014 
L 261.092208 43.828788 
L 265.185267 44.676419 
L 269.249682 45.652199 
L 273.281441 46.755163 
L 277.276565 47.984224 
L 281.231113 49.338168 
L 285.14118 50.81566 
L 289.00291 52.415241 
L 292.812489 54.135332 
L 296.56616 55.974236 
L 300.260217 57.930138 
L 303.891015 60.001109 
L 307.45497 62.185104 
L 310.948566 64.479967 
L 314.368355 66.883435 
L 317.710961 69.393135 
L 320.973086 72.00659 
L 324.151512 74.721222 
L 327.2431 77.53435 
L 330.2448 80.4432 
L 333.15365 83.4449 
L 335.966778 86.536488 
L 338.68141 89.714914 
L 341.294865 92.977039 
L 343.804565 96.319645 
L 346.208033 99.739434 
L 348.502896 103.23303 
L 350.686891 106.796985 
L 352.757862 110.427783 
L 354.713764 114.12184 
L 356.552668 117.875511 
L 358.272759 121.68509 
L 359.87234 125.54682 
L 361.349832 129.456887 
L 362.703776 133.411435 
L 363.932837 137.406559 
L 365.035801 141.438318 
L 366.011581 145.502733 
L 366.859212 149.595792 
L 367.57786 153.713456 
L 368.166814 157.851661 
L 368.625493 162.006324 
L 368.953444 166.173345 
L 369.150345 170.34861 
L 369.216 174.528 
L 369.216 174.528 
L 369.216 174.528 
L 369.216 174.528 
L 369.216 174.528 
L 369.216 174.528 
L 369.216 174.528 
L 369.216 174.528 
L 369.216 174.528 
L 369.216 174.528 
L 369.216 174.528 
L 369.216 174.528 
L 369.216 174.528 
L 369.216 174.528 
L 369.216 174.528 
L 369.216 174.528 
L 369.216 174.528 
L 369.216 174.528 
L 369.216 174.528 
L 369.216 174.528 
L 369.216 174.528 
L 369.216 174.528 
L 369.216 174.528 
L 369.216 174.528 
L 369.216 174.528 
L 369.216 174.528 
L 369.216 174.528 
L 369.216 174.528 
L 369.216 174.528 
L 369.216 174.528 
L 369.216 174.528 
L 369.216 174.528 
L 369.216 174.528 
L 369.216 174.528 
L 369.216 174.528 
L 369.216 174.528 
L 369.216 174.528 
L 369.216 174.528 
L 369.216 174.528 
L 369.216 174.528 
L 369.216 174.528 
L 369.216 174.528 
L 369.216 174.528 
L 369.216 174.528 
L 369.216 174.528 
L 369.216 174.528 
L 369.216 174.528 
L 369.216 174.528 
L 369.216 174.528 
L 369.216 174.528 
L 369.216 174.528 
L 369.216 174.528 
L 369.216 174.528 
L 369.216 174.528 
L 369.216 174.528 
L 369.216 174.528 
L 369.216 174.528 
L 369.216 174.528 
L 369.216 174.528 
L 369.216 174.528 
L 369.216 174.528 
L 369.216 174.528 
L 369.216 174.528 
L 369.216 174.528 
L 369.216 174.528 
L 369.216 174.528 
L 369.216 174.528 
L 369.216 174.528 
L 369.216 174.528 
L 369.216 174.528 
L 369.216 174.528 
L 369.216 174.528 
L 369.216 174.528 
L 369.216 174.528 
L 369.216 174.528 
L 369.216 174.528 
L 369.216 174.528 
L 369.216 174.528 
L 369.216 174.528 
L 369.216 174.528 
L 369.216 174.528 
L 369.216 174.528 
L 369.216 174.528 
L 369.216 174.528 
L 369.216 174.528 
L 369.216 174.528 
L 369.216 174.528 
L 369.216 174.528 
L 369.216 174.528 
L 369.216 174.528 
L 369.216 174.528 
L 369.216 174.528 
L 369.216 174.528 
L 369.216 174.528 
L 369.216 174.528 
L 369.216 174.528 
L 369.216 174.528 
L 369.216 174.528 
L 369.216 174.528 
L 369.216 174.528 
z
" style="fill:#ff003c;"/>
   </g>
   <g id="patch_4">
    <path clip-path="url(#p54c6b09457)" d="M 369.216 174.528 
L 369.150345 170.34861 
L 368.953444 166.173345 
L 368.625493 162.006324 
L 368.166814 157.851661 
L 367.57786 153.713456 
L 366.859212 149.595792 
L 366.011581 145.502733 
L 365.035801 141.438318 
L 363.932837 137.406559 
L 362.703776 133.411435 
L 361.349832 129.456887 
L 359.87234 125.54682 
L 358.272759 121.68509 
L 356.552668 117.875511 
L 354.713764 114.12184 
L 352.757862 110.427783 
L 350.686891 106.796985 
L 348.502896 103.23303 
L 346.208033 99.739434 
L 343.804565 96.319645 
L 341.294865 92.977039 
L 338.68141 89.714914 
L 335.966778 86.536488 
L 333.15365 83.4449 
L 330.2448 80.4432 
L 327.2431 77.53435 
L 324.151512 74.721222 
L 320.973086 72.00659 
L 317.710961 69.393135 
L 314.368355 66.883435 
L 310.948566 64.479967 
L 307.45497 62.185104 
L 303.891015 60.001109 
L 300.260217 57.930138 
L 296.56616 55.974236 
L 292.812489 54.135332 
L 289.00291 52.415241 
L 285.14118 50.81566 
L 281.231113 49.338168 
L 277.276565 47.984224 
L 273.281441 46.755163 
L 269.249682 45.652199 
L 265.185267 44.676419 
L 261.092208 43.828788 
L 256.974544 43.11014 
L 252.836339 42.521186 
L 248.681676 42.062507 
L 244.514655 41.734556 
L 240.33939 41.537655 
L 236.16 41.472 
L 231.98061 41.537655 
L 227.805345 41.734556 
L 223.638324 42.062507 
L 219.483661 42.521186 
L 215.345456 43.11014 
L 211.227792 43.828788 
L 207.134733 44.676419 
L 203.070318 45.652199 
L 199.038559 46.755163 
L 195.043435 47.984224 
L 191.088887 49.338168 
L 187.17882 50.81566 
L 183.31709 52.415241 
L 179.507511 54.135332 
L 175.75384 55.974236 
L 172.059783 57.930138 
L 168.428985 60.001109 
L 164.86503 62.185104 
L 161.371434 64.479967 
L 157.951645 66.883435 
L 154.609039 69.393135 
L 151.346914 72.00659 
L 148.168488 74.721222 
L 145.0769 77.53435 
L 142.0752 80.4432 
L 139.16635 83.4449 
L 136.353222 86.536488 
L 133.63859 89.714914 
L 131.025135 92.977039 
L 128.515435 96.319645 
L 126.111967 99.739434 
L 123.817104 103.23303 
L 121.633109 106.796985 
L 119.562138 110.427783 
L 117.606236 114.12184 
L 115.767332 117.875511 
L 114.047241 121.68509 
L 112.44766 125.54682 
L 110.970168 129.456887 
L 109.616224 133.411435 
L 108.387163 137.406559 
L 107.284199 141.438318 
L 106.308419 145.502733 
L 105.460788 149.595792 
L 104.74214 153.713456 
L 104.153186 157.851661 
L 103.694507 162.006324 
L 103.366556 166.173345 
L 103.169655 170.34861 
L 103.104 174.528 
L 103.104 174.528 
L 103.104 174.528 
L 103.104 174.528 
L 103.104 174.528 
L 103.104 174.528 
L 103.104 174.528 
L 103.104 174.528 
L 103.104 174.528 
L 103.104 174.528 
L 103.104 174.528 
L 103.104 174.528 
L 103.104 174.528 
L 103.104 174.528 
L 103.104 174.528 
L 103.104 174.528 
L 103.104 174.528 
L 103.104 174.528 
L 103.104 174.528 
L 103.104 174.528 
L 103.104 174.528 
L 103.104 174.528 
L 103.104 174.528 
L 103.104 174.528 
L 103.104 174.528 
L 103.104 174.528 
L 103.104 174.528 
L 103.104 174.528 
L 103.104 174.528 
L 103.104 174.528 
L 103.104 174.528 
L 103.104 174.528 
L 103.104 174.528 
L 103.104 174.528 
L 103.104 174.528 
L 103.104 174.528 
L 103.104 174.528 
L 103.104 174.528 
L 103.104 174.528 
L 103.104 174.528 
L 103.104 174.528 
L 103.104 174.528 
L 103.104 174.528 
L 103.104 174.528 
L 103.104 174.528 
L 103.104 174.528 
L 103.104 174.528 
L 103.104 174.528 
L 103.104 174.528 
L 103.104 174.528 
L 103.104 174.528 
L 103.104 174.528 
L 103.104 174.528 
L 103.104 174.528 
L 103.104 174.528 
L 103.104 174.528 
L 103.104 174.528 
L 103.104 174.528 
L 103.104 174.528 
L 103.104 174.528 
L 103.104 174.528 
L 103.104 174.528 
L 103.104 174.528 
L 103.104 174.528 
L 103.104 174.528 
L 103.104 174.528 
L 103.104 174.528 
L 103.104 174.528 
L 103.104 174.528 
L 103.104 174.528 
L 103.104 174.528 
L 103.104 174.528 
L 103.104 174.528 
L 103.104 174.528 
L 103.104 174.528 
L 103.104 174.528 
L 103.104 174.528 
L 103.104 174.528 
L 103.104 174.528 
L 103.104 174.528 
L 103.104 174.528 
L 103.104 174.528 
L 103.104 174.528 
L 103.104 174.528 
L 103.104 174.528 
L 103.104 174.528 
L 103.104 174.528 
L 103.104 174.528 
L 103.104 174.528 
L 103.104 174.528 
L 103.104 174.528 
L 103.104 174.528 
L 103.104 174.528 
L 103.104 174.528 
L 103.104 174.528 
L 103.104 174.528 
L 103.104 174.528 
L 103.104 174.528 
L 103.104 174.528 
L 103.104 174.528 
L 103.104 174.528 
L 103.169655 170.34861 
L 103.366556 166.173345 
L 103.694507 162.006324 
L 104.153186 157.851661 
L 104.74214 153.713456 
L 105.460788 149.595792 
L 106.308419 145.502733 
L 107.284199 141.438318 
L 108.387163 137.406559 
L 109.616224 133.411435 
L 110.970168 129.456887 
L 112.44766 125.54682 
L 114.047241 121.68509 
L 115.767332 117.875511 
L 117.606236 114.12184 
L 119.562138 110.427783 
L 121.633109 106.796985 
L 123.817104 103.23303 
L 126.111967 99.739434 
L 128.515435 96.319645 
L 131.025135 92.977039 
L 133.63859 89.714914 
L 136.353222 86.536488 
L 139.16635 83.4449 
L 142.0752 80.4432 
L 145.0769 77.53435 
L 148.168488 74.721222 
L 151.346914 72.00659 
L 154.609039 69.393135 
L 157.951645 66.883435 
L 161.371434 64.479967 
L 164.86503 62.185104 
L 168.428985 60.001109 
L 172.059783 57.930138 
L 175.75384 55.974236 
L 179.507511 54.135332 
L 183.31709 52.415241 
L 187.17882 50.81566 
L 191.088887 49.338168 
L 195.043435 47.984224 
L 199.038559 46.755163 
L 203.070318 45.652199 
L 207.134733 44.676419 
L 211.227792 43.828788 
L 215.345456 43.11014 
L 219.483661 42.521186 
L 223.638324 42.062507 
L 227.805345 41.734556 
L 231.98061 41.537655 
L 236.16 41.472 
L 240.33939 41.537655 
L 244.514655 41.734556 
L 248.681676 42.062507 
L 252.836339 42.521186 
L 256.974544 43.11014 
L 261.092208 43.828788 
L 265.185267 44.676419 
L 269.249682 45.652199 
L 273.281441 46.755163 
L 277.276565 47.984224 
L 281.231113 49.338168 
L 285.14118 50.81566 
L 289.00291 52.415241 
L 292.812489 54.135332 
L 296.56616 55.974236 
L 300.260217 57.930138 
L 303.891015 60.001109 
L 307.45497 62.185104 
L 310.948566 64.479967 
L 314.368355 66.883435 
L 317.710961 69.393135 
L 320.973086 72.00659 
L 324.151512 74.721222 
L 327.2431 77.53435 
L 330.2448 80.4432 
L 333.15365 83.4449 
L 335.966778 86.536488 
L 338.68141 89.714914 
L 341.294865 92.977039 
L 343.804565 96.319645 
L 346.208033 99.739434 
L 348.502896 103.23303 
L 350.686891 106.796985 
L 352.757862 110.427783 
L 354.713764 114.12184 
L 356.552668 117.875511 
L 358.272759 121.68509 
L 359.87234 125.54682 
L 361.349832 129.456887 
L 362.703776 133.411435 
L 363.932837 137.406559 
L 365.035801 141.438318 
L 366.011581 145.502733 
L 366.859212 149.595792 
L 367.57786 153.713456 
L 368.166814 157.851661 
L 368.625493 162.006324 
L 368.953444 166.173345 
L 369.150345 170.34861 
L 369.216 174.528 
L 369.216 174.528 
L 369.216 174.528 
L 369.216 174.528 
L 369.216 174.528 
L 369.216 174.528 
L 369.216 174.528 
L 369.216 174.528 
L 369.216 174.528 
L 369.216 174.528 
L 369.216 174.528 
L 369.216 174.528 
L 369.216 174.528 
L 369.216 174.528 
L 369.216 174.528 
L 369.216 174.528 
L 369.216 174.528 
L 369.216 174.528 
L 369.216 174.528 
L 369.216 174.528 
L 369.216 174.528 
L 369.216 174.528 
L 369.216 174.528 
L 369.216 174.528 
L 369.216 174.528 
L 369.216 174.528 
L 369.216 174.528 
L 369.216 174.528 
L 369.216 174.528 
L 369.216 174.528 
L 369.216 174.528 
L 369.216 174.528 
L 369.216 174.528 
L 369.216 174.528 
L 369.216 174.528 
L 369.216 174.528 
L 369.216 174.528 
L 369.216 174.528 
L 369.216 174.528 
L 369.216 174.528 
L 369.216 174.528 
L 369.216 174.528 
L 369.216 174.528 
L 369.216 174.528 
L 369.216 174.528 
L 369.216 174.528 
L 369.216 174.528 
L 369.216 174.528 
L 369.216 174.528 
L 369.216 174.528 
L 369.216 174.528 
L 369.216 174.528 
L 369.216 174.528 
L 369.216 174.528 
L 369.216 174.528 
L 369.216 174.528 
L 369.216 174.528 
L 369.216 174.528 
L 369.216 174.528 
L 369.216 174.528 
L 369.216 174.528 
L 369.216 174.528 
L 369.216 174.528 
L 369.216 174.528 
L 369.216 174.528 
L 369.216 174.528 
L 369.216 174.528 
L 369.216 174.528 
L 369.216 174.528 
L 369.216 174.528 
L 369.216 174.528 
L 369.216 174.528 
L 369.216 174.528 
L 369.216 174.528 
L 369.216 174.528 
L 369.216 174.528 
L 369.216 174.528 
L 369.216 174.528 
L 369.216 174.528 
L 369.216 174.528 
L 369.216 174.528 
L 369.216 174.528 
L 369.216 174.528 
L 369.216 174.528 
L 369.216 174.528 
L 369.216 174.528 
L 369.216 174.528 
L 369.216 174.528 
L 369.216 174.528 
L 369.216 174.528 
L 369.216 174.528 
L 369.216 174.528 
L 369.216 174.528 
L 369.216 174.528 
L 369.216 174.528 
L 369.216 174.528 
L 369.216 174.528 
L 369.216 174.528 
L 369.216 174.528 
L 369.216 174.528 
z
" style="fill:#88c100;"/>
   </g>
   <g id="patch_5">
    <path clip-path="url(#p54c6b09457)" d="M 236.16 174.528 
L 236.16 174.528 
L 236.16 174.528 
L 236.16 174.528 
L 236.16 174.528 
L 236.16 174.528 
L 236.16 174.528 
L 236.16 174.528 
L 236.16 174.528 
L 236.16 174.528 
L 236.16 174.528 
L 236.16 174.528 
L 236.16 174.528 
L 236.16 174.528 
L 236.16 174.528 
L 236.16 174.528 
L 236.16 174.528 
L 236.16 174.528 
L 236.16 174.528 
L 236.16 174.528 
L 236.16 174.528 
L 236.16 174.528 
L 236.16 174.528 
L 236.16 174.528 
L 236.16 174.528 
L 236.16 174.528 
L 236.16 174.528 
L 236.16 174.528 
L 236.16 174.528 
L 236.16 174.528 
L 236.16 174.528 
L 236.16 174.528 
L 236.16 174.528 
L 236.16 174.528 
L 236.16 174.528 
L 236.16 174.528 
L 236.16 174.528 
L 236.16 174.528 
L 236.16 174.528 
L 236.16 174.528 
L 236.16 174.528 
L 236.16 174.528 
L 236.16 174.528 
L 236.16 174.528 
L 236.16 174.528 
L 236.16 174.528 
L 236.16 174.528 
L 236.16 174.528 
L 236.16 174.528 
L 236.16 174.528 
L 236.16 174.528 
L 236.16 174.528 
L 236.16 174.528 
L 236.16 174.528 
L 236.16 174.528 
L 236.16 174.528 
L 236.16 174.528 
L 236.16 174.528 
L 236.16 174.528 
L 236.16 174.528 
L 236.16 174.528 
L 236.16 174.528 
L 236.16 174.528 
L 236.16 174.528 
L 236.16 174.528 
L 236.16 174.528 
L 236.16 174.528 
L 236.16 174.528 
L 236.16 174.528 
L 236.16 174.528 
L 236.16 174.528 
L 236.16 174.528 
L 236.16 174.528 
L 236.16 174.528 
L 236.16 174.528 
L 236.16 174.528 
L 236.16 174.528 
L 236.16 174.528 
L 236.16 174.528 
L 236.16 174.528 
L 236.16 174.528 
L 236.16 174.528 
L 236.16 174.528 
L 236.16 174.528 
L 236.16 174.528 
L 236.16 174.528 
L 236.16 174.528 
L 236.16 174.528 
L 236.16 174.528 
L 236.16 174.528 
L 236.16 174.528 
L 236.16 174.528 
L 236.16 174.528 
L 236.16 174.528 
L 236.16 174.528 
L 236.16 174.528 
L 236.16 174.528 
L 236.16 174.528 
L 236.16 174.528 
L 236.16 174.528 
L 236.16 174.528 
L 237.49056 174.528 
L 238.82112 174.528 
L 240.15168 174.528 
L 241.48224 174.528 
L 242.8128 174.528 
L 244.14336 174.528 
L 245.47392 174.528 
L 246.80448 174.528 
L 248.13504 174.528 
L 249.4656 174.528 
L 250.79616 174.528 
L 252.12672 174.528 
L 253.45728 174.528 
L 254.78784 174.528 
L 256.1184 174.528 
L 257.44896 174.528 
L 258.77952 174.528 
L 260.11008 174.528 
L 261.44064 174.528 
L 262.7712 174.528 
L 264.10176 174.528 
L 265.43232 174.528 
L 266.76288 174.528 
L 268.09344 174.528 
L 269.424 174.528 
L 270.75456 174.528 
L 272.08512 174.528 
L 273.41568 174.528 
L 274.74624 174.528 
L 276.0768 174.528 
L 277.40736 174.528 
L 278.73792 174.528 
L 280.06848 174.528 
L 281.39904 174.528 
L 282.7296 174.528 
L 284.06016 174.528 
L 285.39072 174.528 
L 286.72128 174.528 
L 288.05184 174.528 
L 289.3824 174.528 
L 290.71296 174.528 
L 292.04352 174.528 
L 293.37408 174.528 
L 294.70464 174.528 
L 296.0352 174.528 
L 297.36576 174.528 
L 298.69632 174.528 
L 300.02688 174.528 
L 301.35744 174.528 
L 302.688 174.528 
L 304.01856 174.528 
L 305.34912 174.528 
L 306.67968 174.528 
L 308.01024 174.528 
L 309.3408 174.528 
L 310.67136 174.528 
L 312.00192 174.528 
L 313.33248 174.528 
L 314.66304 174.528 
L 315.9936 174.528 
L 317.32416 174.528 
L 318.65472 174.528 
L 319.98528 174.528 
L 321.31584 174.528 
L 322.6464 174.528 
L 323.97696 174.528 
L 325.30752 174.528 
L 326.63808 174.528 
L 327.96864 174.528 
L 329.2992 174.528 
L 330.62976 174.528 
L 331.96032 174.528 
L 333.29088 174.528 
L 334.62144 174.528 
L 335.952 174.528 
L 337.28256 174.528 
L 338.61312 174.528 
L 339.94368 174.528 
L 341.27424 174.528 
L 342.6048 174.528 
L 343.93536 174.528 
L 345.26592 174.528 
L 346.59648 174.528 
L 347.92704 174.528 
L 349.2576 174.528 
L 350.58816 174.528 
L 351.91872 174.528 
L 353.24928 174.528 
L 354.57984 174.528 
L 355.9104 174.528 
L 357.24096 174.528 
L 358.57152 174.528 
L 359.90208 174.528 
L 361.23264 174.528 
L 362.5632 174.528 
L 363.89376 174.528 
L 365.22432 174.528 
L 366.55488 174.528 
L 367.88544 174.528 
L 369.216 174.528 
L 369.150345 178.70739 
L 368.953444 182.882655 
L 368.625493 187.049676 
L 368.166814 191.204339 
L 367.57786 195.342544 
L 366.859212 199.460208 
L 366.011581 203.553267 
L 365.035801 207.617682 
L 363.932837 211.649441 
L 362.703776 215.644565 
L 361.349832 219.599113 
L 359.87234 223.50918 
L 358.272759 227.37091 
L 356.552668 231.180489 
L 354.713764 234.93416 
L 352.757862 238.628217 
L 350.686891 242.259015 
L 348.502896 245.82297 
L 346.208033 249.316566 
L 343.804565 252.736355 
L 341.294865 256.078961 
L 338.68141 259.341086 
L 335.966778 262.519512 
L 333.15365 265.6111 
L 330.2448 268.6128 
L 327.2431 271.52165 
L 324.151512 274.334778 
L 320.973086 277.04941 
L 317.710961 279.662865 
L 314.368355 282.172565 
L 310.948566 284.576033 
L 307.45497 286.870896 
L 303.891015 289.054891 
L 300.260217 291.125862 
L 296.56616 293.081764 
L 292.812489 294.920668 
L 289.00291 296.640759 
L 285.14118 298.24034 
L 281.231113 299.717832 
L 277.276565 301.071776 
L 273.281441 302.300837 
L 269.249682 303.403801 
L 265.185267 304.379581 
L 261.092208 305.227212 
L 256.974544 305.94586 
L 252.836339 306.534814 
L 248.681676 306.993493 
L 244.514655 307.321444 
L 240.33939 307.518345 
L 236.16 307.584 
L 231.98061 307.518345 
L 227.805345 307.321444 
L 223.638324 306.993493 
L 219.483661 306.534814 
L 215.345456 305.94586 
L 211.227792 305.227212 
L 207.134733 304.379581 
L 203.070318 303.403801 
L 199.038559 302.300837 
L 195.043435 301.071776 
L 191.088887 299.717832 
L 187.17882 298.24034 
L 183.31709 296.640759 
L 179.507511 294.920668 
L 175.75384 293.081764 
L 172.059783 291.125862 
L 168.428985 289.054891 
L 164.86503 286.870896 
L 161.371434 284.576033 
L 157.951645 282.172565 
L 154.609039 279.662865 
L 151.346914 277.04941 
L 148.168488 274.334778 
L 145.0769 271.52165 
L 142.0752 268.6128 
L 139.16635 265.6111 
L 136.353222 262.519512 
L 133.63859 259.341086 
L 131.025135 256.078961 
L 128.515435 252.736355 
L 126.111967 249.316566 
L 123.817104 245.82297 
L 121.633109 242.259015 
L 119.562138 238.628217 
L 117.606236 234.93416 
L 115.767332 231.180489 
L 114.047241 227.37091 
L 112.44766 223.50918 
L 110.970168 219.599113 
L 109.616224 215.644565 
L 108.387163 211.649441 
L 107.284199 207.617682 
L 106.308419 203.553267 
L 105.460788 199.460208 
L 104.74214 195.342544 
L 104.153186 191.204339 
L 103.694507 187.049676 
L 103.366556 182.882655 
L 103.169655 178.70739 
L 103.104 174.528 
L 104.43456 174.528 
L 105.76512 174.528 
L 107.09568 174.528 
L 108.42624 174.528 
L 109.7568 174.528 
L 111.08736 174.528 
L 112.41792 174.528 
L 113.74848 174.528 
L 115.07904 174.528 
L 116.4096 174.528 
L 117.74016 174.528 
L 119.07072 174.528 
L 120.40128 174.528 
L 121.73184 174.528 
L 123.0624 174.528 
L 124.39296 174.528 
L 125.72352 174.528 
L 127.05408 174.528 
L 128.38464 174.528 
L 129.7152 174.528 
L 131.04576 174.528 
L 132.37632 174.528 
L 133.70688 174.528 
L 135.03744 174.528 
L 136.368 174.528 
L 137.69856 174.528 
L 139.02912 174.528 
L 140.35968 174.528 
L 141.69024 174.528 
L 143.0208 174.528 
L 144.35136 174.528 
L 145.68192 174.528 
L 147.01248 174.528 
L 148.34304 174.528 
L 149.6736 174.528 
L 151.00416 174.528 
L 152.33472 174.528 
L 153.66528 174.528 
L 154.99584 174.528 
L 156.3264 174.528 
L 157.65696 174.528 
L 158.98752 174.528 
L 160.31808 174.528 
L 161.64864 174.528 
L 162.9792 174.528 
L 164.30976 174.528 
L 165.64032 174.528 
L 166.97088 174.528 
L 168.30144 174.528 
L 169.632 174.528 
L 170.96256 174.528 
L 172.29312 174.528 
L 173.62368 174.528 
L 174.95424 174.528 
L 176.2848 174.528 
L 177.61536 174.528 
L 178.94592 174.528 
L 180.27648 174.528 
L 181.60704 174.528 
L 182.9376 174.528 
L 184.26816 174.528 
L 185.59872 174.528 
L 186.92928 174.528 
L 188.25984 174.528 
L 189.5904 174.528 
L 190.92096 174.528 
L 192.25152 174.528 
L 193.58208 174.528 
L 194.91264 174.528 
L 196.2432 174.528 
L 197.57376 174.528 
L 198.90432 174.528 
L 200.23488 174.528 
L 201.56544 174.528 
L 202.896 174.528 
L 204.22656 174.528 
L 205.55712 174.528 
L 206.88768 174.528 
L 208.21824 174.528 
L 209.5488 174.528 
L 210.87936 174.528 
L 212.20992 174.528 
L 213.54048 174.528 
L 214.87104 174.528 
L 216.2016 174.528 
L 217.53216 174.528 
L 218.86272 174.528 
L 220.19328 174.528 
L 221.52384 174.528 
L 222.8544 174.528 
L 224.18496 174.528 
L 225.51552 174.528 
L 226.84608 174.528 
L 228.17664 174.528 
L 229.5072 174.528 
L 230.83776 174.528 
L 232.16832 174.528 
L 233.49888 174.528 
L 234.82944 174.528 
z
" style="fill:#fabe28;"/>
   </g>
   <g id="patch_6">
    <path clip-path="url(#p54c6b09457)" d="M 103.104 174.528 
L 103.169655 178.70739 
L 103.366556 182.882655 
L 103.694507 187.049676 
L 104.153186 191.204339 
L 104.74214 195.342544 
L 105.460788 199.460208 
L 106.308419 203.553267 
L 107.284199 207.617682 
L 108.387163 211.649441 
L 109.616224 215.644565 
L 110.970168 219.599113 
L 112.44766 223.50918 
L 114.047241 227.37091 
L 115.767332 231.180489 
L 117.606236 234.93416 
L 119.562138 238.628217 
L 121.633109 242.259015 
L 123.817104 245.82297 
L 126.111967 249.316566 
L 128.515435 252.736355 
L 131.025135 256.078961 
L 133.63859 259.341086 
L 136.353222 262.519512 
L 139.16635 265.6111 
L 142.0752 268.6128 
L 145.0769 271.52165 
L 148.168488 274.334778 
L 151.346914 277.04941 
L 154.609039 279.662865 
L 157.951645 282.172565 
L 161.371434 284.576033 
L 164.86503 286.870896 
L 168.428985 289.054891 
L 172.059783 291.125862 
L 175.75384 293.081764 
L 179.507511 294.920668 
L 183.31709 296.640759 
L 187.17882 298.24034 
L 191.088887 299.717832 
L 195.043435 301.071776 
L 199.038559 302.300837 
L 203.070318 303.403801 
L 207.134733 304.379581 
L 211.227792 305.227212 
L 215.345456 305.94586 
L 219.483661 306.534814 
L 223.638324 306.993493 
L 227.805345 307.321444 
L 231.98061 307.518345 
L 236.16 307.584 
L 240.33939 307.518345 
L 244.514655 307.321444 
L 248.681676 306.993493 
L 252.836339 306.534814 
L 256.974544 305.94586 
L 261.092208 305.227212 
L 265.185267 304.379581 
L 269.249682 303.403801 
L 273.281441 302.300837 
L 277.276565 301.071776 
L 281.231113 299.717832 
L 285.14118 298.24034 
L 289.00291 296.640759 
L 292.812489 294.920668 
L 296.56616 293.081764 
L 300.260217 291.125862 
L 303.891015 289.054891 
L 307.45497 286.870896 
L 310.948566 284.576033 
L 314.368355 282.172565 
L 317.710961 279.662865 
L 320.973086 277.04941 
L 324.151512 274.334778 
L 327.2431 271.52165 
L 330.2448 268.6128 
L 333.15365 265.6111 
L 335.966778 262.519512 
L 338.68141 259.341086 
L 341.294865 256.078961 
L 343.804565 252.736355 
L 346.208033 249.316566 
L 348.502896 245.82297 
L 350.686891 242.259015 
L 352.757862 238.628217 
L 354.713764 234.93416 
L 356.552668 231.180489 
L 358.272759 227.37091 
L 359.87234 223.50918 
L 361.349832 219.599113 
L 362.703776 215.644565 
L 363.932837 211.649441 
L 365.035801 207.617682 
L 366.011581 203.553267 
L 366.859212 199.460208 
L 367.57786 195.342544 
L 368.166814 191.204339 
L 368.625493 187.049676 
L 368.953444 182.882655 
L 369.150345 178.70739 
L 369.216 174.528 
L 369.216 174.528 
L 369.216 174.528 
L 369.216 174.528 
L 369.216 174.528 
L 369.216 174.528 
L 369.216 174.528 
L 369.216 174.528 
L 369.216 174.528 
L 369.216 174.528 
L 369.216 174.528 
L 369.216 174.528 
L 369.216 174.528 
L 369.216 174.528 
L 369.216 174.528 
L 369.216 174.528 
L 369.216 174.528 
L 369.216 174.528 
L 369.216 174.528 
L 369.216 174.528 
L 369.216 174.528 
L 369.216 174.528 
L 369.216 174.528 
L 369.216 174.528 
L 369.216 174.528 
L 369.216 174.528 
L 369.216 174.528 
L 369.216 174.528 
L 369.216 174.528 
L 369.216 174.528 
L 369.216 174.528 
L 369.216 174.528 
L 369.216 174.528 
L 369.216 174.528 
L 369.216 174.528 
L 369.216 174.528 
L 369.216 174.528 
L 369.216 174.528 
L 369.216 174.528 
L 369.216 174.528 
L 369.216 174.528 
L 369.216 174.528 
L 369.216 174.528 
L 369.216 174.528 
L 369.216 174.528 
L 369.216 174.528 
L 369.216 174.528 
L 369.216 174.528 
L 369.216 174.528 
L 369.216 174.528 
L 369.216 174.528 
L 369.216 174.528 
L 369.216 174.528 
L 369.216 174.528 
L 369.216 174.528 
L 369.216 174.528 
L 369.216 174.528 
L 369.216 174.528 
L 369.216 174.528 
L 369.216 174.528 
L 369.216 174.528 
L 369.216 174.528 
L 369.216 174.528 
L 369.216 174.528 
L 369.216 174.528 
L 369.216 174.528 
L 369.216 174.528 
L 369.216 174.528 
L 369.216 174.528 
L 369.216 174.528 
L 369.216 174.528 
L 369.216 174.528 
L 369.216 174.528 
L 369.216 174.528 
L 369.216 174.528 
L 369.216 174.528 
L 369.216 174.528 
L 369.216 174.528 
L 369.216 174.528 
L 369.216 174.528 
L 369.216 174.528 
L 369.216 174.528 
L 369.216 174.528 
L 369.216 174.528 
L 369.216 174.528 
L 369.216 174.528 
L 369.216 174.528 
L 369.216 174.528 
L 369.216 174.528 
L 369.216 174.528 
L 369.216 174.528 
L 369.216 174.528 
L 369.216 174.528 
L 369.216 174.528 
L 369.216 174.528 
L 369.216 174.528 
L 369.216 174.528 
L 369.216 174.528 
L 369.216 174.528 
L 369.216 174.528 
L 369.216 174.528 
L 369.150345 178.70739 
L 368.953444 182.882655 
L 368.625493 187.049676 
L 368.166814 191.204339 
L 367.57786 195.342544 
L 366.859212 199.460208 
L 366.011581 203.553267 
L 365.035801 207.617682 
L 363.932837 211.649441 
L 362.703776 215.644565 
L 361.349832 219.599113 
L 359.87234 223.50918 
L 358.272759 227.37091 
L 356.552668 231.180489 
L 354.713764 234.93416 
L 352.757862 238.628217 
L 350.686891 242.259015 
L 348.502896 245.82297 
L 346.208033 249.316566 
L 343.804565 252.736355 
L 341.294865 256.078961 
L 338.68141 259.341086 
L 335.966778 262.519512 
L 333.15365 265.6111 
L 330.2448 268.6128 
L 327.2431 271.52165 
L 324.151512 274.334778 
L 320.973086 277.04941 
L 317.710961 279.662865 
L 314.368355 282.172565 
L 310.948566 284.576033 
L 307.45497 286.870896 
L 303.891015 289.054891 
L 300.260217 291.125862 
L 296.56616 293.081764 
L 292.812489 294.920668 
L 289.00291 296.640759 
L 285.14118 298.24034 
L 281.231113 299.717832 
L 277.276565 301.071776 
L 273.281441 302.300837 
L 269.249682 303.403801 
L 265.185267 304.379581 
L 261.092208 305.227212 
L 256.974544 305.94586 
L 252.836339 306.534814 
L 248.681676 306.993493 
L 244.514655 307.321444 
L 240.33939 307.518345 
L 236.16 307.584 
L 231.98061 307.518345 
L 227.805345 307.321444 
L 223.638324 306.993493 
L 219.483661 306.534814 
L 215.345456 305.94586 
L 211.227792 305.227212 
L 207.134733 304.379581 
L 203.070318 303.403801 
L 199.038559 302.300837 
L 195.043435 301.071776 
L 191.088887 299.717832 
L 187.17882 298.24034 
L 183.31709 296.640759 
L 179.507511 294.920668 
L 175.75384 293.081764 
L 172.059783 291.125862 
L 168.428985 289.054891 
L 164.86503 286.870896 
L 161.371434 284.576033 
L 157.951645 282.172565 
L 154.609039 279.662865 
L 151.346914 277.04941 
L 148.168488 274.334778 
L 145.0769 271.52165 
L 142.0752 268.6128 
L 139.16635 265.6111 
L 136.353222 262.519512 
L 133.63859 259.341086 
L 131.025135 256.078961 
L 128.515435 252.736355 
L 126.111967 249.316566 
L 123.817104 245.82297 
L 121.633109 242.259015 
L 119.562138 238.628217 
L 117.606236 234.93416 
L 115.767332 231.180489 
L 114.047241 227.37091 
L 112.44766 223.50918 
L 110.970168 219.599113 
L 109.616224 215.644565 
L 108.387163 211.649441 
L 107.284199 207.617682 
L 106.308419 203.553267 
L 105.460788 199.460208 
L 104.74214 195.342544 
L 104.153186 191.204339 
L 103.694507 187.049676 
L 103.366556 182.882655 
L 103.169655 178.70739 
L 103.104 174.528 
L 103.104 174.528 
L 103.104 174.528 
L 103.104 174.528 
L 103.104 174.528 
L 103.104 174.528 
L 103.104 174.528 
L 103.104 174.528 
L 103.104 174.528 
L 103.104 174.528 
L 103.104 174.528 
L 103.104 174.528 
L 103.104 174.528 
L 103.104 174.528 
L 103.104 174.528 
L 103.104 174.528 
L 103.104 174.528 
L 103.104 174.528 
L 103.104 174.528 
L 103.104 174.528 
L 103.104 174.528 
L 103.104 174.528 
L 103.104 174.528 
L 103.104 174.528 
L 103.104 174.528 
L 103.104 174.528 
L 103.104 174.528 
L 103.104 174.528 
L 103.104 174.528 
L 103.104 174.528 
L 103.104 174.528 
L 103.104 174.528 
L 103.104 174.528 
L 103.104 174.528 
L 103.104 174.528 
L 103.104 174.528 
L 103.104 174.528 
L 103.104 174.528 
L 103.104 174.528 
L 103.104 174.528 
L 103.104 174.528 
L 103.104 174.528 
L 103.104 174.528 
L 103.104 174.528 
L 103.104 174.528 
L 103.104 174.528 
L 103.104 174.528 
L 103.104 174.528 
L 103.104 174.528 
L 103.104 174.528 
L 103.104 174.528 
L 103.104 174.528 
L 103.104 174.528 
L 103.104 174.528 
L 103.104 174.528 
L 103.104 174.528 
L 103.104 174.528 
L 103.104 174.528 
L 103.104 174.528 
L 103.104 174.528 
L 103.104 174.528 
L 103.104 174.528 
L 103.104 174.528 
L 103.104 174.528 
L 103.104 174.528 
L 103.104 174.528 
L 103.104 174.528 
L 103.104 174.528 
L 103.104 174.528 
L 103.104 174.528 
L 103.104 174.528 
L 103.104 174.528 
L 103.104 174.528 
L 103.104 174.528 
L 103.104 174.528 
L 103.104 174.528 
L 103.104 174.528 
L 103.104 174.528 
L 103.104 174.528 
L 103.104 174.528 
L 103.104 174.528 
L 103.104 174.528 
L 103.104 174.528 
L 103.104 174.528 
L 103.104 174.528 
L 103.104 174.528 
L 103.104 174.528 
L 103.104 174.528 
L 103.104 174.528 
L 103.104 174.528 
L 103.104 174.528 
L 103.104 174.528 
L 103.104 174.528 
L 103.104 174.528 
L 103.104 174.528 
L 103.104 174.528 
L 103.104 174.528 
L 103.104 174.528 
L 103.104 174.528 
L 103.104 174.528 
z
" style="fill:#ff003c;"/>
   </g>
   <g id="patch_7">
    <path clip-path="url(#p54c6b09457)" d="M 103.104 174.528 
L 103.169655 178.70739 
L 103.366556 182.882655 
L 103.694507 187.049676 
L 104.153186 191.204339 
L 104.74214 195.342544 
L 105.460788 199.460208 
L 106.308419 203.553267 
L 107.284199 207.617682 
L 108.387163 211.649441 
L 109.616224 215.644565 
L 110.970168 219.599113 
L 112.44766 223.50918 
L 114.047241 227.37091 
L 115.767332 231.180489 
L 117.606236 234.93416 
L 119.562138 238.628217 
L 121.633109 242.259015 
L 123.817104 245.82297 
L 126.111967 249.316566 
L 128.515435 252.736355 
L 131.025135 256.078961 
L 133.63859 259.341086 
L 136.353222 262.519512 
L 139.16635 265.6111 
L 142.0752 268.6128 
L 145.0769 271.52165 
L 148.168488 274.334778 
L 151.346914 277.04941 
L 154.609039 279.662865 
L 157.951645 282.172565 
L 161.371434 284.576033 
L 164.86503 286.870896 
L 168.428985 289.054891 
L 172.059783 291.125862 
L 175.75384 293.081764 
L 179.507511 294.920668 
L 183.31709 296.640759 
L 187.17882 298.24034 
L 191.088887 299.717832 
L 195.043435 301.071776 
L 199.038559 302.300837 
L 203.070318 303.403801 
L 207.134733 304.379581 
L 211.227792 305.227212 
L 215.345456 305.94586 
L 219.483661 306.534814 
L 223.638324 306.993493 
L 227.805345 307.321444 
L 231.98061 307.518345 
L 236.16 307.584 
L 240.33939 307.518345 
L 244.514655 307.321444 
L 248.681676 306.993493 
L 252.836339 306.534814 
L 256.974544 305.94586 
L 261.092208 305.227212 
L 265.185267 304.379581 
L 269.249682 303.403801 
L 273.281441 302.300837 
L 277.276565 301.071776 
L 281.231113 299.717832 
L 285.14118 298.24034 
L 289.00291 296.640759 
L 292.812489 294.920668 
L 296.56616 293.081764 
L 300.260217 291.125862 
L 303.891015 289.054891 
L 307.45497 286.870896 
L 310.948566 284.576033 
L 314.368355 282.172565 
L 317.710961 279.662865 
L 320.973086 277.04941 
L 324.151512 274.334778 
L 327.2431 271.52165 
L 330.2448 268.6128 
L 333.15365 265.6111 
L 335.966778 262.519512 
L 338.68141 259.341086 
L 341.294865 256.078961 
L 343.804565 252.736355 
L 346.208033 249.316566 
L 348.502896 245.82297 
L 350.686891 242.259015 
L 352.757862 238.628217 
L 354.713764 234.93416 
L 356.552668 231.180489 
L 358.272759 227.37091 
L 359.87234 223.50918 
L 361.349832 219.599113 
L 362.703776 215.644565 
L 363.932837 211.649441 
L 365.035801 207.617682 
L 366.011581 203.553267 
L 366.859212 199.460208 
L 367.57786 195.342544 
L 368.166814 191.204339 
L 368.625493 187.049676 
L 368.953444 182.882655 
L 369.150345 178.70739 
L 369.216 174.528 
L 369.216 174.528 
L 369.216 174.528 
L 369.216 174.528 
L 369.216 174.528 
L 369.216 174.528 
L 369.216 174.528 
L 369.216 174.528 
L 369.216 174.528 
L 369.216 174.528 
L 369.216 174.528 
L 369.216 174.528 
L 369.216 174.528 
L 369.216 174.528 
L 369.216 174.528 
L 369.216 174.528 
L 369.216 174.528 
L 369.216 174.528 
L 369.216 174.528 
L 369.216 174.528 
L 369.216 174.528 
L 369.216 174.528 
L 369.216 174.528 
L 369.216 174.528 
L 369.216 174.528 
L 369.216 174.528 
L 369.216 174.528 
L 369.216 174.528 
L 369.216 174.528 
L 369.216 174.528 
L 369.216 174.528 
L 369.216 174.528 
L 369.216 174.528 
L 369.216 174.528 
L 369.216 174.528 
L 369.216 174.528 
L 369.216 174.528 
L 369.216 174.528 
L 369.216 174.528 
L 369.216 174.528 
L 369.216 174.528 
L 369.216 174.528 
L 369.216 174.528 
L 369.216 174.528 
L 369.216 174.528 
L 369.216 174.528 
L 369.216 174.528 
L 369.216 174.528 
L 369.216 174.528 
L 369.216 174.528 
L 369.216 174.528 
L 369.216 174.528 
L 369.216 174.528 
L 369.216 174.528 
L 369.216 174.528 
L 369.216 174.528 
L 369.216 174.528 
L 369.216 174.528 
L 369.216 174.528 
L 369.216 174.528 
L 369.216 174.528 
L 369.216 174.528 
L 369.216 174.528 
L 369.216 174.528 
L 369.216 174.528 
L 369.216 174.528 
L 369.216 174.528 
L 369.216 174.528 
L 369.216 174.528 
L 369.216 174.528 
L 369.216 174.528 
L 369.216 174.528 
L 369.216 174.528 
L 369.216 174.528 
L 369.216 174.528 
L 369.216 174.528 
L 369.216 174.528 
L 369.216 174.528 
L 369.216 174.528 
L 369.216 174.528 
L 369.216 174.528 
L 369.216 174.528 
L 369.216 174.528 
L 369.216 174.528 
L 369.216 174.528 
L 369.216 174.528 
L 369.216 174.528 
L 369.216 174.528 
L 369.216 174.528 
L 369.216 174.528 
L 369.216 174.528 
L 369.216 174.528 
L 369.216 174.528 
L 369.216 174.528 
L 369.216 174.528 
L 369.216 174.528 
L 369.216 174.528 
L 369.216 174.528 
L 369.216 174.528 
L 369.216 174.528 
L 369.216 174.528 
L 369.150345 178.70739 
L 368.953444 182.882655 
L 368.625493 187.049676 
L 368.166814 191.204339 
L 367.57786 195.342544 
L 366.859212 199.460208 
L 366.011581 203.553267 
L 365.035801 207.617682 
L 363.932837 211.649441 
L 362.703776 215.644565 
L 361.349832 219.599113 
L 359.87234 223.50918 
L 358.272759 227.37091 
L 356.552668 231.180489 
L 354.713764 234.93416 
L 352.757862 238.628217 
L 350.686891 242.259015 
L 348.502896 245.82297 
L 346.208033 249.316566 
L 343.804565 252.736355 
L 341.294865 256.078961 
L 338.68141 259.341086 
L 335.966778 262.519512 
L 333.15365 265.6111 
L 330.2448 268.6128 
L 327.2431 271.52165 
L 324.151512 274.334778 
L 320.973086 277.04941 
L 317.710961 279.662865 
L 314.368355 282.172565 
L 310.948566 284.576033 
L 307.45497 286.870896 
L 303.891015 289.054891 
L 300.260217 291.125862 
L 296.56616 293.081764 
L 292.812489 294.920668 
L 289.00291 296.640759 
L 285.14118 298.24034 
L 281.231113 299.717832 
L 277.276565 301.071776 
L 273.281441 302.300837 
L 269.249682 303.403801 
L 265.185267 304.379581 
L 261.092208 305.227212 
L 256.974544 305.94586 
L 252.836339 306.534814 
L 248.681676 306.993493 
L 244.514655 307.321444 
L 240.33939 307.518345 
L 236.16 307.584 
L 231.98061 307.518345 
L 227.805345 307.321444 
L 223.638324 306.993493 
L 219.483661 306.534814 
L 215.345456 305.94586 
L 211.227792 305.227212 
L 207.134733 304.379581 
L 203.070318 303.403801 
L 199.038559 302.300837 
L 195.043435 301.071776 
L 191.088887 299.717832 
L 187.17882 298.24034 
L 183.31709 296.640759 
L 179.507511 294.920668 
L 175.75384 293.081764 
L 172.059783 291.125862 
L 168.428985 289.054891 
L 164.86503 286.870896 
L 161.371434 284.576033 
L 157.951645 282.172565 
L 154.609039 279.662865 
L 151.346914 277.04941 
L 148.168488 274.334778 
L 145.0769 271.52165 
L 142.0752 268.6128 
L 139.16635 265.6111 
L 136.353222 262.519512 
L 133.63859 259.341086 
L 131.025135 256.078961 
L 128.515435 252.736355 
L 126.111967 249.316566 
L 123.817104 245.82297 
L 121.633109 242.259015 
L 119.562138 238.628217 
L 117.606236 234.93416 
L 115.767332 231.180489 
L 114.047241 227.37091 
L 112.44766 223.50918 
L 110.970168 219.599113 
L 109.616224 215.644565 
L 108.387163 211.649441 
L 107.284199 207.617682 
L 106.308419 203.553267 
L 105.460788 199.460208 
L 104.74214 195.342544 
L 104.153186 191.204339 
L 103.694507 187.049676 
L 103.366556 182.882655 
L 103.169655 178.70739 
L 103.104 174.528 
L 103.104 174.528 
L 103.104 174.528 
L 103.104 174.528 
L 103.104 174.528 
L 103.104 174.528 
L 103.104 174.528 
L 103.104 174.528 
L 103.104 174.528 
L 103.104 174.528 
L 103.104 174.528 
L 103.104 174.528 
L 103.104 174.528 
L 103.104 174.528 
L 103.104 174.528 
L 103.104 174.528 
L 103.104 174.528 
L 103.104 174.528 
L 103.104 174.528 
L 103.104 174.528 
L 103.104 174.528 
L 103.104 174.528 
L 103.104 174.528 
L 103.104 174.528 
L 103.104 174.528 
L 103.104 174.528 
L 103.104 174.528 
L 103.104 174.528 
L 103.104 174.528 
L 103.104 174.528 
L 103.104 174.528 
L 103.104 174.528 
L 103.104 174.528 
L 103.104 174.528 
L 103.104 174.528 
L 103.104 174.528 
L 103.104 174.528 
L 103.104 174.528 
L 103.104 174.528 
L 103.104 174.528 
L 103.104 174.528 
L 103.104 174.528 
L 103.104 174.528 
L 103.104 174.528 
L 103.104 174.528 
L 103.104 174.528 
L 103.104 174.528 
L 103.104 174.528 
L 103.104 174.528 
L 103.104 174.528 
L 103.104 174.528 
L 103.104 174.528 
L 103.104 174.528 
L 103.104 174.528 
L 103.104 174.528 
L 103.104 174.528 
L 103.104 174.528 
L 103.104 174.528 
L 103.104 174.528 
L 103.104 174.528 
L 103.104 174.528 
L 103.104 174.528 
L 103.104 174.528 
L 103.104 174.528 
L 103.104 174.528 
L 103.104 174.528 
L 103.104 174.528 
L 103.104 174.528 
L 103.104 174.528 
L 103.104 174.528 
L 103.104 174.528 
L 103.104 174.528 
L 103.104 174.528 
L 103.104 174.528 
L 103.104 174.528 
L 103.104 174.528 
L 103.104 174.528 
L 103.104 174.528 
L 103.104 174.528 
L 103.104 174.528 
L 103.104 174.528 
L 103.104 174.528 
L 103.104 174.528 
L 103.104 174.528 
L 103.104 174.528 
L 103.104 174.528 
L 103.104 174.528 
L 103.104 174.528 
L 103.104 174.528 
L 103.104 174.528 
L 103.104 174.528 
L 103.104 174.528 
L 103.104 174.528 
L 103.104 174.528 
L 103.104 174.528 
L 103.104 174.528 
L 103.104 174.528 
L 103.104 174.528 
L 103.104 174.528 
L 103.104 174.528 
z
" style="fill:#88c100;"/>
   </g>
  </g>
 </g>
 <defs>
  <clipPath id="p54c6b09457">
   <path d="M 369.216 174.528 
C 369.216 157.055246 365.774248 139.752393 359.087715 123.609673 
C 352.401182 107.466954 342.599903 92.798303 330.2448 80.4432 
C 317.889697 68.088097 303.221046 58.286818 287.078327 51.600285 
C 270.935607 44.913752 253.632754 41.472 236.16 41.472 
C 218.687246 41.472 201.384393 44.913752 185.241673 51.600285 
C 169.098954 58.286818 154.430303 68.088097 142.0752 80.4432 
C 129.720097 92.798303 119.918818 107.466954 113.232285 123.609673 
C 106.545752 139.752393 103.104 157.055246 103.104 174.528 
C 103.104 192.000754 106.545752 209.303607 113.232285 225.446327 
C 119.918818 241.589046 129.720097 256.257697 142.0752 268.6128 
C 154.430303 280.967903 169.098954 290.769182 185.241673 297.455715 
C 201.384393 304.142248 218.687246 307.584 236.16 307.584 
C 253.632754 307.584 270.935607 304.142248 287.078327 297.455715 
C 303.221046 290.769182 317.889697 280.967903 330.2448 268.6128 
C 342.599903 256.257697 352.401182 241.589046 359.087715 225.446327 
C 365.774248 209.303607 369.216 192.000754 369.216 174.528 
M 236.16 174.528 
C 236.16 174.528 236.16 174.528 236.16 174.528 
C 236.16 174.528 236.16 174.528 236.16 174.528 
C 236.16 174.528 236.16 174.528 236.16 174.528 
C 236.16 174.528 236.16 174.528 236.16 174.528 
C 236.16 174.528 236.16 174.528 236.16 174.528 
C 236.16 174.528 236.16 174.528 236.16 174.528 
C 236.16 174.528 236.16 174.528 236.16 174.528 
C 236.16 174.528 236.16 174.528 236.16 174.528 
C 236.16 174.528 236.16 174.528 236.16 174.528 
C 236.16 174.528 236.16 174.528 236.16 174.528 
C 236.16 174.528 236.16 174.528 236.16 174.528 
C 236.16 174.528 236.16 174.528 236.16 174.528 
C 236.16 174.528 236.16 174.528 236.16 174.528 
C 236.16 174.528 236.16 174.528 236.16 174.528 
C 236.16 174.528 236.16 174.528 236.16 174.528 
C 236.16 174.528 236.16 174.528 236.16 174.528 
M 369.216 174.528 
z
"/>
  </clipPath>
 </defs>
</svg>
