<?xml version="1.0" encoding="utf-8" standalone="no"?>
<!DOCTYPE svg PUBLIC "-//W3C//DTD SVG 1.1//EN"
  "http://www.w3.org/Graphics/SVG/1.1/DTD/svg11.dtd">
<!-- Created with matplotlib (https://matplotlib.org/) -->
<svg height="345.6pt" version="1.1" viewBox="0 0 460.8 345.6" width="460.8pt" xmlns="http://www.w3.org/2000/svg" xmlns:xlink="http://www.w3.org/1999/xlink">
 <defs>
  <style type="text/css">
*{stroke-linecap:butt;stroke-linejoin:round;}
  </style>
 </defs>
 <g id="figure_1">
  <g id="patch_1">
   <path d="M 0 345.6 
L 460.8 345.6 
L 460.8 0 
L 0 0 
z
" style="fill:none;"/>
  </g>
  <g id="axes_1">
   <g id="patch_2">
    <path clip-path="url(#p9ae1f58b43)" d="M 236.16 174.528 
L 236.16 174.528 
L 236.16 174.528 
L 236.16 174.528 
L 236.16 174.528 
L 236.16 174.528 
L 236.16 174.528 
L 236.16 174.528 
L 236.16 174.528 
L 236.16 174.528 
L 236.16 174.528 
L 236.16 174.528 
L 236.16 174.528 
L 236.16 174.528 
L 236.16 174.528 
L 236.16 174.528 
L 236.16 174.528 
L 236.16 174.528 
L 236.16 174.528 
L 236.16 174.528 
L 236.16 174.528 
L 236.16 174.528 
L 236.16 174.528 
L 236.16 174.528 
L 236.16 174.528 
L 236.16 174.528 
L 236.16 174.528 
L 236.16 174.528 
L 236.16 174.528 
L 236.16 174.528 
L 236.16 174.528 
L 236.16 174.528 
L 236.16 174.528 
L 236.16 174.528 
L 236.16 174.528 
L 236.16 174.528 
L 236.16 174.528 
L 236.16 174.528 
L 236.16 174.528 
L 236.16 174.528 
L 236.16 174.528 
L 236.16 174.528 
L 236.16 174.528 
L 236.16 174.528 
L 236.16 174.528 
L 236.16 174.528 
L 236.16 174.528 
L 236.16 174.528 
L 236.16 174.528 
L 236.16 174.528 
L 236.16 174.528 
L 236.16 174.528 
L 236.16 174.528 
L 236.16 174.528 
L 236.16 174.528 
L 236.16 174.528 
L 236.16 174.528 
L 236.16 174.528 
L 236.16 174.528 
L 236.16 174.528 
L 236.16 174.528 
L 236.16 174.528 
L 236.16 174.528 
L 236.16 174.528 
L 236.16 174.528 
L 236.16 174.528 
L 236.16 174.528 
L 236.16 174.528 
L 236.16 174.528 
L 236.16 174.528 
L 236.16 174.528 
L 236.16 174.528 
L 236.16 174.528 
L 236.16 174.528 
L 236.16 174.528 
L 236.16 174.528 
L 236.16 174.528 
L 236.16 174.528 
L 236.16 174.528 
L 236.16 174.528 
L 236.16 174.528 
L 236.16 174.528 
L 236.16 174.528 
L 236.16 174.528 
L 236.16 174.528 
L 236.16 174.528 
L 236.16 174.528 
L 236.16 174.528 
L 236.16 174.528 
L 236.16 174.528 
L 236.16 174.528 
L 236.16 174.528 
L 236.16 174.528 
L 236.16 174.528 
L 236.16 174.528 
L 236.16 174.528 
L 236.16 174.528 
L 236.16 174.528 
L 236.16 174.528 
L 236.16 174.528 
L 236.16 174.528 
L 235.60032 174.528 
L 235.04064 174.528 
L 234.48096 174.528 
L 233.92128 174.528 
L 233.3616 174.528 
L 232.80192 174.528 
L 232.24224 174.528 
L 231.68256 174.528 
L 231.12288 174.528 
L 230.5632 174.528 
L 230.00352 174.528 
L 229.44384 174.528 
L 228.88416 174.528 
L 228.32448 174.528 
L 227.7648 174.528 
L 227.20512 174.528 
L 226.64544 174.528 
L 226.08576 174.528 
L 225.52608 174.528 
L 224.9664 174.528 
L 224.40672 174.528 
L 223.84704 174.528 
L 223.28736 174.528 
L 222.72768 174.528 
L 222.168 174.528 
L 221.60832 174.528 
L 221.04864 174.528 
L 220.48896 174.528 
L 219.92928 174.528 
L 219.3696 174.528 
L 218.80992 174.528 
L 218.25024 174.528 
L 217.69056 174.528 
L 217.13088 174.528 
L 216.5712 174.528 
L 216.01152 174.528 
L 215.45184 174.528 
L 214.89216 174.528 
L 214.33248 174.528 
L 213.7728 174.528 
L 213.21312 174.528 
L 212.65344 174.528 
L 212.09376 174.528 
L 211.53408 174.528 
L 210.9744 174.528 
L 210.41472 174.528 
L 209.85504 174.528 
L 209.29536 174.528 
L 208.73568 174.528 
L 208.176 174.528 
L 207.61632 174.528 
L 207.05664 174.528 
L 206.49696 174.528 
L 205.93728 174.528 
L 205.3776 174.528 
L 204.81792 174.528 
L 204.25824 174.528 
L 203.69856 174.528 
L 203.13888 174.528 
L 202.5792 174.528 
L 202.01952 174.528 
L 201.45984 174.528 
L 200.90016 174.528 
L 200.34048 174.528 
L 199.7808 174.528 
L 199.22112 174.528 
L 198.66144 174.528 
L 198.10176 174.528 
L 197.54208 174.528 
L 196.9824 174.528 
L 196.42272 174.528 
L 195.86304 174.528 
L 195.30336 174.528 
L 194.74368 174.528 
L 194.184 174.528 
L 193.62432 174.528 
L 193.06464 174.528 
L 192.50496 174.528 
L 191.94528 174.528 
L 191.3856 174.528 
L 190.82592 174.528 
L 190.26624 174.528 
L 189.70656 174.528 
L 189.14688 174.528 
L 188.5872 174.528 
L 188.02752 174.528 
L 187.46784 174.528 
L 186.90816 174.528 
L 186.34848 174.528 
L 185.7888 174.528 
L 185.22912 174.528 
L 184.66944 174.528 
L 184.10976 174.528 
L 183.55008 174.528 
L 182.9904 174.528 
L 182.43072 174.528 
L 181.87104 174.528 
L 181.31136 174.528 
L 180.75168 174.528 
L 180.192 174.528 
L 180.219617 172.770003 
L 180.30244 171.01374 
L 180.440388 169.260946 
L 180.633324 167.51335 
L 180.881059 165.772676 
L 181.183347 164.040643 
L 181.539891 162.318959 
L 181.950338 160.609324 
L 182.414283 158.913426 
L 182.931269 157.232937 
L 183.500785 155.569516 
L 184.12227 153.924805 
L 184.795109 152.300427 
L 185.51864 150.697985 
L 186.292147 149.11906 
L 187.114868 147.56521 
L 187.98599 146.03797 
L 188.904655 144.538846 
L 189.869954 143.069318 
L 190.880937 141.630835 
L 191.936604 140.224818 
L 193.035915 138.852654 
L 194.177784 137.515698 
L 195.361084 136.215268 
L 196.584648 134.952648 
L 197.847268 133.729084 
L 199.147698 132.545784 
L 200.484654 131.403915 
L 201.856818 130.304604 
L 203.262835 129.248937 
L 204.701318 128.237954 
L 206.170846 127.272655 
L 207.66997 126.35399 
L 209.19721 125.482868 
L 210.75106 124.660147 
L 212.329985 123.88664 
L 213.932427 123.163109 
L 215.556805 122.49027 
L 217.201516 121.868785 
L 218.864937 121.299269 
L 220.545426 120.782283 
L 222.241324 120.318338 
L 223.950959 119.907891 
L 225.672643 119.551347 
L 227.404676 119.249059 
L 229.14535 119.001324 
L 230.892946 118.808388 
L 232.64574 118.67044 
L 234.402003 118.587617 
L 236.16 118.56 
L 237.917997 118.587617 
L 239.67426 118.67044 
L 241.427054 118.808388 
L 243.17465 119.001324 
L 244.915324 119.249059 
L 246.647357 119.551347 
L 248.369041 119.907891 
L 250.078676 120.318338 
L 251.774574 120.782283 
L 253.455063 121.299269 
L 255.118484 121.868785 
L 256.763195 122.49027 
L 258.387573 123.163109 
L 259.990015 123.88664 
L 261.56894 124.660147 
L 263.12279 125.482868 
L 264.65003 126.35399 
L 266.149154 127.272655 
L 267.618682 128.237954 
L 269.057165 129.248937 
L 270.463182 130.304604 
L 271.835346 131.403915 
L 273.172302 132.545784 
L 274.472732 133.729084 
L 275.735352 134.952648 
L 276.958916 136.215268 
L 278.142216 137.515698 
L 279.284085 138.852654 
L 280.383396 140.224818 
L 281.439063 141.630835 
L 282.450046 143.069318 
L 283.415345 144.538846 
L 284.33401 146.03797 
L 285.205132 147.56521 
L 286.027853 149.11906 
L 286.80136 150.697985 
L 287.524891 152.300427 
L 288.19773 153.924805 
L 288.819215 155.569516 
L 289.388731 157.232937 
L 289.905717 158.913426 
L 290.369662 160.609324 
L 290.780109 162.318959 
L 291.136653 164.040643 
L 291.438941 165.772676 
L 291.686676 167.51335 
L 291.879612 169.260946 
L 292.01756 171.01374 
L 292.100383 172.770003 
L 292.128 174.528 
L 291.56832 174.528 
L 291.00864 174.528 
L 290.44896 174.528 
L 289.88928 174.528 
L 289.3296 174.528 
L 288.76992 174.528 
L 288.21024 174.528 
L 287.65056 174.528 
L 287.09088 174.528 
L 286.5312 174.528 
L 285.97152 174.528 
L 285.41184 174.528 
L 284.85216 174.528 
L 284.29248 174.528 
L 283.7328 174.528 
L 283.17312 174.528 
L 282.61344 174.528 
L 282.05376 174.528 
L 281.49408 174.528 
L 280.9344 174.528 
L 280.37472 174.528 
L 279.81504 174.528 
L 279.25536 174.528 
L 278.69568 174.528 
L 278.136 174.528 
L 277.57632 174.528 
L 277.01664 174.528 
L 276.45696 174.528 
L 275.89728 174.528 
L 275.3376 174.528 
L 274.77792 174.528 
L 274.21824 174.528 
L 273.65856 174.528 
L 273.09888 174.528 
L 272.5392 174.528 
L 271.97952 174.528 
L 271.41984 174.528 
L 270.86016 174.528 
L 270.30048 174.528 
L 269.7408 174.528 
L 269.18112 174.528 
L 268.62144 174.528 
L 268.06176 174.528 
L 267.50208 174.528 
L 266.9424 174.528 
L 266.38272 174.528 
L 265.82304 174.528 
L 265.26336 174.528 
L 264.70368 174.528 
L 264.144 174.528 
L 263.58432 174.528 
L 263.02464 174.528 
L 262.46496 174.528 
L 261.90528 174.528 
L 261.3456 174.528 
L 260.78592 174.528 
L 260.22624 174.528 
L 259.66656 174.528 
L 259.10688 174.528 
L 258.5472 174.528 
L 257.98752 174.528 
L 257.42784 174.528 
L 256.86816 174.528 
L 256.30848 174.528 
L 255.7488 174.528 
L 255.18912 174.528 
L 254.62944 174.528 
L 254.06976 174.528 
L 253.51008 174.528 
L 252.9504 174.528 
L 252.39072 174.528 
L 251.83104 174.528 
L 251.27136 174.528 
L 250.71168 174.528 
L 250.152 174.528 
L 249.59232 174.528 
L 249.03264 174.528 
L 248.47296 174.528 
L 247.91328 174.528 
L 247.3536 174.528 
L 246.79392 174.528 
L 246.23424 174.528 
L 245.67456 174.528 
L 245.11488 174.528 
L 244.5552 174.528 
L 243.99552 174.528 
L 243.43584 174.528 
L 242.87616 174.528 
L 242.31648 174.528 
L 241.7568 174.528 
L 241.19712 174.528 
L 240.63744 174.528 
L 240.07776 174.528 
L 239.51808 174.528 
L 238.9584 174.528 
L 238.39872 174.528 
L 237.83904 174.528 
L 237.27936 174.528 
L 236.71968 174.528 
z
" style="fill:#fabe28;"/>
   </g>
   <g id="patch_3">
    <path clip-path="url(#p9ae1f58b43)" d="M 292.128 174.528 
L 292.100383 172.770003 
L 292.01756 171.01374 
L 291.879612 169.260946 
L 291.686676 167.51335 
L 291.438941 165.772676 
L 291.136653 164.040643 
L 290.780109 162.318959 
L 290.369662 160.609324 
L 289.905717 158.913426 
L 289.388731 157.232937 
L 288.819215 155.569516 
L 288.19773 153.924805 
L 287.524891 152.300427 
L 286.80136 150.697985 
L 286.027853 149.11906 
L 285.205132 147.56521 
L 284.33401 146.03797 
L 283.415345 144.538846 
L 282.450046 143.069318 
L 281.439063 141.630835 
L 280.383396 140.224818 
L 279.284085 138.852654 
L 278.142216 137.515698 
L 276.958916 136.215268 
L 275.735352 134.952648 
L 274.472732 133.729084 
L 273.172302 132.545784 
L 271.835346 131.403915 
L 270.463182 130.304604 
L 269.057165 129.248937 
L 267.618682 128.237954 
L 266.149154 127.272655 
L 264.65003 126.35399 
L 263.12279 125.482868 
L 261.56894 124.660147 
L 259.990015 123.88664 
L 258.387573 123.163109 
L 256.763195 122.49027 
L 255.118484 121.868785 
L 253.455063 121.299269 
L 251.774574 120.782283 
L 250.078676 120.318338 
L 248.369041 119.907891 
L 246.647357 119.551347 
L 244.915324 119.249059 
L 243.17465 119.001324 
L 241.427054 118.808388 
L 239.67426 118.67044 
L 237.917997 118.587617 
L 236.16 118.56 
L 234.402003 118.587617 
L 232.64574 118.67044 
L 230.892946 118.808388 
L 229.14535 119.001324 
L 227.404676 119.249059 
L 225.672643 119.551347 
L 223.950959 119.907891 
L 222.241324 120.318338 
L 220.545426 120.782283 
L 218.864937 121.299269 
L 217.201516 121.868785 
L 215.556805 122.49027 
L 213.932427 123.163109 
L 212.329985 123.88664 
L 210.75106 124.660147 
L 209.19721 125.482868 
L 207.66997 126.35399 
L 206.170846 127.272655 
L 204.701318 128.237954 
L 203.262835 129.248937 
L 201.856818 130.304604 
L 200.484654 131.403915 
L 199.147698 132.545784 
L 197.847268 133.729084 
L 196.584648 134.952648 
L 195.361084 136.215268 
L 194.177784 137.515698 
L 193.035915 138.852654 
L 191.936604 140.224818 
L 190.880937 141.630835 
L 189.869954 143.069318 
L 188.904655 144.538846 
L 187.98599 146.03797 
L 187.114868 147.56521 
L 186.292147 149.11906 
L 185.51864 150.697985 
L 184.795109 152.300427 
L 184.12227 153.924805 
L 183.500785 155.569516 
L 182.931269 157.232937 
L 182.414283 158.913426 
L 181.950338 160.609324 
L 181.539891 162.318959 
L 181.183347 164.040643 
L 180.881059 165.772676 
L 180.633324 167.51335 
L 180.440388 169.260946 
L 180.30244 171.01374 
L 180.219617 172.770003 
L 180.192 174.528 
L 180.16032 174.528 
L 180.12864 174.528 
L 180.09696 174.528 
L 180.06528 174.528 
L 180.0336 174.528 
L 180.00192 174.528 
L 179.97024 174.528 
L 179.93856 174.528 
L 179.90688 174.528 
L 179.8752 174.528 
L 179.84352 174.528 
L 179.81184 174.528 
L 179.78016 174.528 
L 179.74848 174.528 
L 179.7168 174.528 
L 179.68512 174.528 
L 179.65344 174.528 
L 179.62176 174.528 
L 179.59008 174.528 
L 179.5584 174.528 
L 179.52672 174.528 
L 179.49504 174.528 
L 179.46336 174.528 
L 179.43168 174.528 
L 179.4 174.528 
L 179.36832 174.528 
L 179.33664 174.528 
L 179.30496 174.528 
L 179.27328 174.528 
L 179.2416 174.528 
L 179.20992 174.528 
L 179.17824 174.528 
L 179.14656 174.528 
L 179.11488 174.528 
L 179.0832 174.528 
L 179.05152 174.528 
L 179.01984 174.528 
L 178.98816 174.528 
L 178.95648 174.528 
L 178.9248 174.528 
L 178.89312 174.528 
L 178.86144 174.528 
L 178.82976 174.528 
L 178.79808 174.528 
L 178.7664 174.528 
L 178.73472 174.528 
L 178.70304 174.528 
L 178.67136 174.528 
L 178.63968 174.528 
L 178.608 174.528 
L 178.57632 174.528 
L 178.54464 174.528 
L 178.51296 174.528 
L 178.48128 174.528 
L 178.4496 174.528 
L 178.41792 174.528 
L 178.38624 174.528 
L 178.35456 174.528 
L 178.32288 174.528 
L 178.2912 174.528 
L 178.25952 174.528 
L 178.22784 174.528 
L 178.19616 174.528 
L 178.16448 174.528 
L 178.1328 174.528 
L 178.10112 174.528 
L 178.06944 174.528 
L 178.03776 174.528 
L 178.00608 174.528 
L 177.9744 174.528 
L 177.94272 174.528 
L 177.91104 174.528 
L 177.87936 174.528 
L 177.84768 174.528 
L 177.816 174.528 
L 177.78432 174.528 
L 177.75264 174.528 
L 177.72096 174.528 
L 177.68928 174.528 
L 177.6576 174.528 
L 177.62592 174.528 
L 177.59424 174.528 
L 177.56256 174.528 
L 177.53088 174.528 
L 177.4992 174.528 
L 177.46752 174.528 
L 177.43584 174.528 
L 177.40416 174.528 
L 177.37248 174.528 
L 177.3408 174.528 
L 177.30912 174.528 
L 177.27744 174.528 
L 177.24576 174.528 
L 177.21408 174.528 
L 177.1824 174.528 
L 177.15072 174.528 
L 177.11904 174.528 
L 177.08736 174.528 
L 177.05568 174.528 
L 177.024 174.528 
L 177.05318 172.670493 
L 177.140691 170.81482 
L 177.286448 168.962811 
L 177.490305 167.116294 
L 177.752062 165.277091 
L 178.071461 163.447019 
L 178.448186 161.627881 
L 178.881866 159.821475 
L 179.372073 158.029582 
L 179.918322 156.253971 
L 180.520075 154.496394 
L 181.176738 152.758586 
L 181.887662 151.042262 
L 182.652147 149.349116 
L 183.469438 147.680818 
L 184.338728 146.039015 
L 185.259159 144.425327 
L 186.229824 142.841347 
L 187.249763 141.288637 
L 188.317971 139.768731 
L 189.433393 138.283128 
L 190.594929 136.833295 
L 191.801432 135.420662 
L 193.051711 134.046622 
L 194.344533 132.712533 
L 195.678622 131.419711 
L 197.052662 130.169432 
L 198.465295 128.962929 
L 199.915128 127.801393 
L 201.400731 126.685971 
L 202.920637 125.617763 
L 204.473347 124.597824 
L 206.057327 123.627159 
L 207.671015 122.706728 
L 209.312818 121.837438 
L 210.981116 121.020147 
L 212.674262 120.255662 
L 214.390586 119.544738 
L 216.128394 118.888075 
L 217.885971 118.286322 
L 219.661582 117.740073 
L 221.453475 117.249866 
L 223.259881 116.816186 
L 225.079019 116.439461 
L 226.909091 116.120062 
L 228.748294 115.858305 
L 230.594811 115.654448 
L 232.44682 115.508691 
L 234.302493 115.42118 
L 236.16 115.392 
L 238.017507 115.42118 
L 239.87318 115.508691 
L 241.725189 115.654448 
L 243.571706 115.858305 
L 245.410909 116.120062 
L 247.240981 116.439461 
L 249.060119 116.816186 
L 250.866525 117.249866 
L 252.658418 117.740073 
L 254.434029 118.286322 
L 256.191606 118.888075 
L 257.929414 119.544738 
L 259.645738 120.255662 
L 261.338884 121.020147 
L 263.007182 121.837438 
L 264.648985 122.706728 
L 266.262673 123.627159 
L 267.846653 124.597824 
L 269.399363 125.617763 
L 270.919269 126.685971 
L 272.404872 127.801393 
L 273.854705 128.962929 
L 275.267338 130.169432 
L 276.641378 131.419711 
L 277.975467 132.712533 
L 279.268289 134.046622 
L 280.518568 135.420662 
L 281.725071 136.833295 
L 282.886607 138.283128 
L 284.002029 139.768731 
L 285.070237 141.288637 
L 286.090176 142.841347 
L 287.060841 144.425327 
L 287.981272 146.039015 
L 288.850562 147.680818 
L 289.667853 149.349116 
L 290.432338 151.042262 
L 291.143262 152.758586 
L 291.799925 154.496394 
L 292.401678 156.253971 
L 292.947927 158.029582 
L 293.438134 159.821475 
L 293.871814 161.627881 
L 294.248539 163.447019 
L 294.567938 165.277091 
L 294.829695 167.116294 
L 295.033552 168.962811 
L 295.179309 170.81482 
L 295.26682 172.670493 
L 295.296 174.528 
L 295.26432 174.528 
L 295.23264 174.528 
L 295.20096 174.528 
L 295.16928 174.528 
L 295.1376 174.528 
L 295.10592 174.528 
L 295.07424 174.528 
L 295.04256 174.528 
L 295.01088 174.528 
L 294.9792 174.528 
L 294.94752 174.528 
L 294.91584 174.528 
L 294.88416 174.528 
L 294.85248 174.528 
L 294.8208 174.528 
L 294.78912 174.528 
L 294.75744 174.528 
L 294.72576 174.528 
L 294.69408 174.528 
L 294.6624 174.528 
L 294.63072 174.528 
L 294.59904 174.528 
L 294.56736 174.528 
L 294.53568 174.528 
L 294.504 174.528 
L 294.47232 174.528 
L 294.44064 174.528 
L 294.40896 174.528 
L 294.37728 174.528 
L 294.3456 174.528 
L 294.31392 174.528 
L 294.28224 174.528 
L 294.25056 174.528 
L 294.21888 174.528 
L 294.1872 174.528 
L 294.15552 174.528 
L 294.12384 174.528 
L 294.09216 174.528 
L 294.06048 174.528 
L 294.0288 174.528 
L 293.99712 174.528 
L 293.96544 174.528 
L 293.93376 174.528 
L 293.90208 174.528 
L 293.8704 174.528 
L 293.83872 174.528 
L 293.80704 174.528 
L 293.77536 174.528 
L 293.74368 174.528 
L 293.712 174.528 
L 293.68032 174.528 
L 293.64864 174.528 
L 293.61696 174.528 
L 293.58528 174.528 
L 293.5536 174.528 
L 293.52192 174.528 
L 293.49024 174.528 
L 293.45856 174.528 
L 293.42688 174.528 
L 293.3952 174.528 
L 293.36352 174.528 
L 293.33184 174.528 
L 293.30016 174.528 
L 293.26848 174.528 
L 293.2368 174.528 
L 293.20512 174.528 
L 293.17344 174.528 
L 293.14176 174.528 
L 293.11008 174.528 
L 293.0784 174.528 
L 293.04672 174.528 
L 293.01504 174.528 
L 292.98336 174.528 
L 292.95168 174.528 
L 292.92 174.528 
L 292.88832 174.528 
L 292.85664 174.528 
L 292.82496 174.528 
L 292.79328 174.528 
L 292.7616 174.528 
L 292.72992 174.528 
L 292.69824 174.528 
L 292.66656 174.528 
L 292.63488 174.528 
L 292.6032 174.528 
L 292.57152 174.528 
L 292.53984 174.528 
L 292.50816 174.528 
L 292.47648 174.528 
L 292.4448 174.528 
L 292.41312 174.528 
L 292.38144 174.528 
L 292.34976 174.528 
L 292.31808 174.528 
L 292.2864 174.528 
L 292.25472 174.528 
L 292.22304 174.528 
L 292.19136 174.528 
L 292.15968 174.528 
z
" style="fill:#ff003c;"/>
   </g>
   <g id="patch_4">
    <path clip-path="url(#p9ae1f58b43)" d="M 295.296 174.528 
L 295.26682 172.670493 
L 295.179309 170.81482 
L 295.033552 168.962811 
L 294.829695 167.116294 
L 294.567938 165.277091 
L 294.248539 163.447019 
L 293.871814 161.627881 
L 293.438134 159.821475 
L 292.947927 158.029582 
L 292.401678 156.253971 
L 291.799925 154.496394 
L 291.143262 152.758586 
L 290.432338 151.042262 
L 289.667853 149.349116 
L 288.850562 147.680818 
L 287.981272 146.039015 
L 287.060841 144.425327 
L 286.090176 142.841347 
L 285.070237 141.288637 
L 284.002029 139.768731 
L 282.886607 138.283128 
L 281.725071 136.833295 
L 280.518568 135.420662 
L 279.268289 134.046622 
L 277.975467 132.712533 
L 276.641378 131.419711 
L 275.267338 130.169432 
L 273.854705 128.962929 
L 272.404872 127.801393 
L 270.919269 126.685971 
L 269.399363 125.617763 
L 267.846653 124.597824 
L 266.262673 123.627159 
L 264.648985 122.706728 
L 263.007182 121.837438 
L 261.338884 121.020147 
L 259.645738 120.255662 
L 257.929414 119.544738 
L 256.191606 118.888075 
L 254.434029 118.286322 
L 252.658418 117.740073 
L 250.866525 117.249866 
L 249.060119 116.816186 
L 247.240981 116.439461 
L 245.410909 116.120062 
L 243.571706 115.858305 
L 241.725189 115.654448 
L 239.87318 115.508691 
L 238.017507 115.42118 
L 236.16 115.392 
L 234.302493 115.42118 
L 232.44682 115.508691 
L 230.594811 115.654448 
L 228.748294 115.858305 
L 226.909091 116.120062 
L 225.079019 116.439461 
L 223.259881 116.816186 
L 221.453475 117.249866 
L 219.661582 117.740073 
L 217.885971 118.286322 
L 216.128394 118.888075 
L 214.390586 119.544738 
L 212.674262 120.255662 
L 210.981116 121.020147 
L 209.312818 121.837438 
L 207.671015 122.706728 
L 206.057327 123.627159 
L 204.473347 124.597824 
L 202.920637 125.617763 
L 201.400731 126.685971 
L 199.915128 127.801393 
L 198.465295 128.962929 
L 197.052662 130.169432 
L 195.678622 131.419711 
L 194.344533 132.712533 
L 193.051711 134.046622 
L 191.801432 135.420662 
L 190.594929 136.833295 
L 189.433393 138.283128 
L 188.317971 139.768731 
L 187.249763 141.288637 
L 186.229824 142.841347 
L 185.259159 144.425327 
L 184.338728 146.039015 
L 183.469438 147.680818 
L 182.652147 149.349116 
L 181.887662 151.042262 
L 181.176738 152.758586 
L 180.520075 154.496394 
L 179.918322 156.253971 
L 179.372073 158.029582 
L 178.881866 159.821475 
L 178.448186 161.627881 
L 178.071461 163.447019 
L 177.752062 165.277091 
L 177.490305 167.116294 
L 177.286448 168.962811 
L 177.140691 170.81482 
L 177.05318 172.670493 
L 177.024 174.528 
L 176.40096 174.528 
L 175.77792 174.528 
L 175.15488 174.528 
L 174.53184 174.528 
L 173.9088 174.528 
L 173.28576 174.528 
L 172.66272 174.528 
L 172.03968 174.528 
L 171.41664 174.528 
L 170.7936 174.528 
L 170.17056 174.528 
L 169.54752 174.528 
L 168.92448 174.528 
L 168.30144 174.528 
L 167.6784 174.528 
L 167.05536 174.528 
L 166.43232 174.528 
L 165.80928 174.528 
L 165.18624 174.528 
L 164.5632 174.528 
L 163.94016 174.528 
L 163.31712 174.528 
L 162.69408 174.528 
L 162.07104 174.528 
L 161.448 174.528 
L 160.82496 174.528 
L 160.20192 174.528 
L 159.57888 174.528 
L 158.95584 174.528 
L 158.3328 174.528 
L 157.70976 174.528 
L 157.08672 174.528 
L 156.46368 174.528 
L 155.84064 174.528 
L 155.2176 174.528 
L 154.59456 174.528 
L 153.97152 174.528 
L 153.34848 174.528 
L 152.72544 174.528 
L 152.1024 174.528 
L 151.47936 174.528 
L 150.85632 174.528 
L 150.23328 174.528 
L 149.61024 174.528 
L 148.9872 174.528 
L 148.36416 174.528 
L 147.74112 174.528 
L 147.11808 174.528 
L 146.49504 174.528 
L 145.872 174.528 
L 145.24896 174.528 
L 144.62592 174.528 
L 144.00288 174.528 
L 143.37984 174.528 
L 142.7568 174.528 
L 142.13376 174.528 
L 141.51072 174.528 
L 140.88768 174.528 
L 140.26464 174.528 
L 139.6416 174.528 
L 139.01856 174.528 
L 138.39552 174.528 
L 137.77248 174.528 
L 137.14944 174.528 
L 136.5264 174.528 
L 135.90336 174.528 
L 135.28032 174.528 
L 134.65728 174.528 
L 134.03424 174.528 
L 133.4112 174.528 
L 132.78816 174.528 
L 132.16512 174.528 
L 131.54208 174.528 
L 130.91904 174.528 
L 130.296 174.528 
L 129.67296 174.528 
L 129.04992 174.528 
L 128.42688 174.528 
L 127.80384 174.528 
L 127.1808 174.528 
L 126.55776 174.528 
L 125.93472 174.528 
L 125.31168 174.528 
L 124.68864 174.528 
L 124.0656 174.528 
L 123.44256 174.528 
L 122.81952 174.528 
L 122.19648 174.528 
L 121.57344 174.528 
L 120.9504 174.528 
L 120.32736 174.528 
L 119.70432 174.528 
L 119.08128 174.528 
L 118.45824 174.528 
L 117.8352 174.528 
L 117.21216 174.528 
L 116.58912 174.528 
L 115.96608 174.528 
L 115.34304 174.528 
L 114.72 174.528 
L 114.779923 170.713477 
L 114.959634 166.902719 
L 115.258955 163.099486 
L 115.677591 159.307532 
L 116.215128 155.530599 
L 116.871036 151.772413 
L 117.644668 148.036685 
L 118.535261 144.3271 
L 119.541935 140.64732 
L 120.663697 137.000976 
L 121.899439 133.391667 
L 123.247944 129.822954 
L 124.707878 126.29836 
L 126.277803 122.821363 
L 127.956168 119.395394 
L 129.741317 116.023834 
L 131.631488 112.71001 
L 133.624817 109.457194 
L 135.719335 106.268595 
L 137.912976 103.147359 
L 140.203575 100.096567 
L 142.588872 97.119231 
L 145.066512 94.218287 
L 147.63405 91.396599 
L 150.288952 88.656952 
L 153.028599 86.00205 
L 155.850287 83.434512 
L 158.751231 80.956872 
L 161.728567 78.571575 
L 164.779359 76.280976 
L 167.900595 74.087335 
L 171.089194 71.992817 
L 174.34201 69.999488 
L 177.655834 68.109317 
L 181.027394 66.324168 
L 184.453363 64.645803 
L 187.93036 63.075878 
L 191.454954 61.615944 
L 195.023667 60.267439 
L 198.632976 59.031697 
L 202.27932 57.909935 
L 205.9591 56.903261 
L 209.668685 56.012668 
L 213.404413 55.239036 
L 217.162599 54.583128 
L 220.939532 54.045591 
L 224.731486 53.626955 
L 228.534719 53.327634 
L 232.345477 53.147923 
L 236.16 53.088 
L 239.974523 53.147923 
L 243.785281 53.327634 
L 247.588514 53.626955 
L 251.380468 54.045591 
L 255.157401 54.583128 
L 258.915587 55.239036 
L 262.651315 56.012668 
L 266.3609 56.903261 
L 270.04068 57.909935 
L 273.687024 59.031697 
L 277.296333 60.267439 
L 280.865046 61.615944 
L 284.38964 63.075878 
L 287.866637 64.645803 
L 291.292606 66.324168 
L 294.664166 68.109317 
L 297.97799 69.999488 
L 301.230806 71.992817 
L 304.419405 74.087335 
L 307.540641 76.280976 
L 310.591433 78.571575 
L 313.568769 80.956872 
L 316.469713 83.434512 
L 319.291401 86.00205 
L 322.031048 88.656952 
L 324.68595 91.396599 
L 327.253488 94.218287 
L 329.731128 97.119231 
L 332.116425 100.096567 
L 334.407024 103.147359 
L 336.600665 106.268595 
L 338.695183 109.457194 
L 340.688512 112.71001 
L 342.578683 116.023834 
L 344.363832 119.395394 
L 346.042197 122.821363 
L 347.612122 126.29836 
L 349.072056 129.822954 
L 350.420561 133.391667 
L 351.656303 137.000976 
L 352.778065 140.64732 
L 353.784739 144.3271 
L 354.675332 148.036685 
L 355.448964 151.772413 
L 356.104872 155.530599 
L 356.642409 159.307532 
L 357.061045 163.099486 
L 357.360366 166.902719 
L 357.540077 170.713477 
L 357.6 174.528 
L 356.97696 174.528 
L 356.35392 174.528 
L 355.73088 174.528 
L 355.10784 174.528 
L 354.4848 174.528 
L 353.86176 174.528 
L 353.23872 174.528 
L 352.61568 174.528 
L 351.99264 174.528 
L 351.3696 174.528 
L 350.74656 174.528 
L 350.12352 174.528 
L 349.50048 174.528 
L 348.87744 174.528 
L 348.2544 174.528 
L 347.63136 174.528 
L 347.00832 174.528 
L 346.38528 174.528 
L 345.76224 174.528 
L 345.1392 174.528 
L 344.51616 174.528 
L 343.89312 174.528 
L 343.27008 174.528 
L 342.64704 174.528 
L 342.024 174.528 
L 341.40096 174.528 
L 340.77792 174.528 
L 340.15488 174.528 
L 339.53184 174.528 
L 338.9088 174.528 
L 338.28576 174.528 
L 337.66272 174.528 
L 337.03968 174.528 
L 336.41664 174.528 
L 335.7936 174.528 
L 335.17056 174.528 
L 334.54752 174.528 
L 333.92448 174.528 
L 333.30144 174.528 
L 332.6784 174.528 
L 332.05536 174.528 
L 331.43232 174.528 
L 330.80928 174.528 
L 330.18624 174.528 
L 329.5632 174.528 
L 328.94016 174.528 
L 328.31712 174.528 
L 327.69408 174.528 
L 327.07104 174.528 
L 326.448 174.528 
L 325.82496 174.528 
L 325.20192 174.528 
L 324.57888 174.528 
L 323.95584 174.528 
L 323.3328 174.528 
L 322.70976 174.528 
L 322.08672 174.528 
L 321.46368 174.528 
L 320.84064 174.528 
L 320.2176 174.528 
L 319.59456 174.528 
L 318.97152 174.528 
L 318.34848 174.528 
L 317.72544 174.528 
L 317.1024 174.528 
L 316.47936 174.528 
L 315.85632 174.528 
L 315.23328 174.528 
L 314.61024 174.528 
L 313.9872 174.528 
L 313.36416 174.528 
L 312.74112 174.528 
L 312.11808 174.528 
L 311.49504 174.528 
L 310.872 174.528 
L 310.24896 174.528 
L 309.62592 174.528 
L 309.00288 174.528 
L 308.37984 174.528 
L 307.7568 174.528 
L 307.13376 174.528 
L 306.51072 174.528 
L 305.88768 174.528 
L 305.26464 174.528 
L 304.6416 174.528 
L 304.01856 174.528 
L 303.39552 174.528 
L 302.77248 174.528 
L 302.14944 174.528 
L 301.5264 174.528 
L 300.90336 174.528 
L 300.28032 174.528 
L 299.65728 174.528 
L 299.03424 174.528 
L 298.4112 174.528 
L 297.78816 174.528 
L 297.16512 174.528 
L 296.54208 174.528 
L 295.91904 174.528 
z
" style="fill:#88c100;"/>
   </g>
   <g id="patch_5">
    <path clip-path="url(#p9ae1f58b43)" d="M 236.16 174.528 
L 236.16 174.528 
L 236.16 174.528 
L 236.16 174.528 
L 236.16 174.528 
L 236.16 174.528 
L 236.16 174.528 
L 236.16 174.528 
L 236.16 174.528 
L 236.16 174.528 
L 236.16 174.528 
L 236.16 174.528 
L 236.16 174.528 
L 236.16 174.528 
L 236.16 174.528 
L 236.16 174.528 
L 236.16 174.528 
L 236.16 174.528 
L 236.16 174.528 
L 236.16 174.528 
L 236.16 174.528 
L 236.16 174.528 
L 236.16 174.528 
L 236.16 174.528 
L 236.16 174.528 
L 236.16 174.528 
L 236.16 174.528 
L 236.16 174.528 
L 236.16 174.528 
L 236.16 174.528 
L 236.16 174.528 
L 236.16 174.528 
L 236.16 174.528 
L 236.16 174.528 
L 236.16 174.528 
L 236.16 174.528 
L 236.16 174.528 
L 236.16 174.528 
L 236.16 174.528 
L 236.16 174.528 
L 236.16 174.528 
L 236.16 174.528 
L 236.16 174.528 
L 236.16 174.528 
L 236.16 174.528 
L 236.16 174.528 
L 236.16 174.528 
L 236.16 174.528 
L 236.16 174.528 
L 236.16 174.528 
L 236.16 174.528 
L 236.16 174.528 
L 236.16 174.528 
L 236.16 174.528 
L 236.16 174.528 
L 236.16 174.528 
L 236.16 174.528 
L 236.16 174.528 
L 236.16 174.528 
L 236.16 174.528 
L 236.16 174.528 
L 236.16 174.528 
L 236.16 174.528 
L 236.16 174.528 
L 236.16 174.528 
L 236.16 174.528 
L 236.16 174.528 
L 236.16 174.528 
L 236.16 174.528 
L 236.16 174.528 
L 236.16 174.528 
L 236.16 174.528 
L 236.16 174.528 
L 236.16 174.528 
L 236.16 174.528 
L 236.16 174.528 
L 236.16 174.528 
L 236.16 174.528 
L 236.16 174.528 
L 236.16 174.528 
L 236.16 174.528 
L 236.16 174.528 
L 236.16 174.528 
L 236.16 174.528 
L 236.16 174.528 
L 236.16 174.528 
L 236.16 174.528 
L 236.16 174.528 
L 236.16 174.528 
L 236.16 174.528 
L 236.16 174.528 
L 236.16 174.528 
L 236.16 174.528 
L 236.16 174.528 
L 236.16 174.528 
L 236.16 174.528 
L 236.16 174.528 
L 236.16 174.528 
L 236.16 174.528 
L 236.16 174.528 
L 236.16 174.528 
L 236.70912 174.528 
L 237.25824 174.528 
L 237.80736 174.528 
L 238.35648 174.528 
L 238.9056 174.528 
L 239.45472 174.528 
L 240.00384 174.528 
L 240.55296 174.528 
L 241.10208 174.528 
L 241.6512 174.528 
L 242.20032 174.528 
L 242.74944 174.528 
L 243.29856 174.528 
L 243.84768 174.528 
L 244.3968 174.528 
L 244.94592 174.528 
L 245.49504 174.528 
L 246.04416 174.528 
L 246.59328 174.528 
L 247.1424 174.528 
L 247.69152 174.528 
L 248.24064 174.528 
L 248.78976 174.528 
L 249.33888 174.528 
L 249.888 174.528 
L 250.43712 174.528 
L 250.98624 174.528 
L 251.53536 174.528 
L 252.08448 174.528 
L 252.6336 174.528 
L 253.18272 174.528 
L 253.73184 174.528 
L 254.28096 174.528 
L 254.83008 174.528 
L 255.3792 174.528 
L 255.92832 174.528 
L 256.47744 174.528 
L 257.02656 174.528 
L 257.57568 174.528 
L 258.1248 174.528 
L 258.67392 174.528 
L 259.22304 174.528 
L 259.77216 174.528 
L 260.32128 174.528 
L 260.8704 174.528 
L 261.41952 174.528 
L 261.96864 174.528 
L 262.51776 174.528 
L 263.06688 174.528 
L 263.616 174.528 
L 264.16512 174.528 
L 264.71424 174.528 
L 265.26336 174.528 
L 265.81248 174.528 
L 266.3616 174.528 
L 266.91072 174.528 
L 267.45984 174.528 
L 268.00896 174.528 
L 268.55808 174.528 
L 269.1072 174.528 
L 269.65632 174.528 
L 270.20544 174.528 
L 270.75456 174.528 
L 271.30368 174.528 
L 271.8528 174.528 
L 272.40192 174.528 
L 272.95104 174.528 
L 273.50016 174.528 
L 274.04928 174.528 
L 274.5984 174.528 
L 275.14752 174.528 
L 275.69664 174.528 
L 276.24576 174.528 
L 276.79488 174.528 
L 277.344 174.528 
L 277.89312 174.528 
L 278.44224 174.528 
L 278.99136 174.528 
L 279.54048 174.528 
L 280.0896 174.528 
L 280.63872 174.528 
L 281.18784 174.528 
L 281.73696 174.528 
L 282.28608 174.528 
L 282.8352 174.528 
L 283.38432 174.528 
L 283.93344 174.528 
L 284.48256 174.528 
L 285.03168 174.528 
L 285.5808 174.528 
L 286.12992 174.528 
L 286.67904 174.528 
L 287.22816 174.528 
L 287.77728 174.528 
L 288.3264 174.528 
L 288.87552 174.528 
L 289.42464 174.528 
L 289.97376 174.528 
L 290.52288 174.528 
L 291.072 174.528 
L 291.044904 176.252828 
L 290.963644 177.975953 
L 290.828299 179.695676 
L 290.639002 181.410299 
L 290.395942 183.118129 
L 290.099358 184.817483 
L 289.749541 186.506682 
L 289.346839 188.184059 
L 288.891647 189.84796 
L 288.384415 191.496741 
L 287.825645 193.128777 
L 287.215886 194.742455 
L 286.555742 196.336185 
L 285.845863 197.908392 
L 285.08695 199.457526 
L 284.279752 200.982058 
L 283.425066 202.480482 
L 282.523735 203.951321 
L 281.576648 205.393122 
L 280.584741 206.804464 
L 279.548992 208.183952 
L 278.470423 209.530226 
L 277.350099 210.841957 
L 276.189125 212.117851 
L 274.988648 213.356648 
L 273.749851 214.557125 
L 272.473957 215.718099 
L 271.162226 216.838423 
L 269.815952 217.916992 
L 268.436464 218.952741 
L 267.025122 219.944648 
L 265.583321 220.891735 
L 264.112482 221.793066 
L 262.614058 222.647752 
L 261.089526 223.45495 
L 259.540392 224.213863 
L 257.968185 224.923742 
L 256.374455 225.583886 
L 254.760777 226.193645 
L 253.128741 226.752415 
L 251.47996 227.259647 
L 249.816059 227.714839 
L 248.138682 228.117541 
L 246.449483 228.467358 
L 244.750129 228.763942 
L 243.042299 229.007002 
L 241.327676 229.196299 
L 239.607953 229.331644 
L 237.884828 229.412904 
L 236.16 229.44 
L 234.435172 229.412904 
L 232.712047 229.331644 
L 230.992324 229.196299 
L 229.277701 229.007002 
L 227.569871 228.763942 
L 225.870517 228.467358 
L 224.181318 228.117541 
L 222.503941 227.714839 
L 220.84004 227.259647 
L 219.191259 226.752415 
L 217.559223 226.193645 
L 215.945545 225.583886 
L 214.351815 224.923742 
L 212.779608 224.213863 
L 211.230474 223.45495 
L 209.705942 222.647752 
L 208.207518 221.793066 
L 206.736679 220.891735 
L 205.294878 219.944648 
L 203.883536 218.952741 
L 202.504048 217.916992 
L 201.157774 216.838423 
L 199.846043 215.718099 
L 198.570149 214.557125 
L 197.331352 213.356648 
L 196.130875 212.117851 
L 194.969901 210.841957 
L 193.849577 209.530226 
L 192.771008 208.183952 
L 191.735259 206.804464 
L 190.743352 205.393122 
L 189.796265 203.951321 
L 188.894934 202.480482 
L 188.040248 200.982058 
L 187.23305 199.457526 
L 186.474137 197.908392 
L 185.764258 196.336185 
L 185.104114 194.742455 
L 184.494355 193.128777 
L 183.935585 191.496741 
L 183.428353 189.84796 
L 182.973161 188.184059 
L 182.570459 186.506682 
L 182.220642 184.817483 
L 181.924058 183.118129 
L 181.680998 181.410299 
L 181.491701 179.695676 
L 181.356356 177.975953 
L 181.275096 176.252828 
L 181.248 174.528 
L 181.79712 174.528 
L 182.34624 174.528 
L 182.89536 174.528 
L 183.44448 174.528 
L 183.9936 174.528 
L 184.54272 174.528 
L 185.09184 174.528 
L 185.64096 174.528 
L 186.19008 174.528 
L 186.7392 174.528 
L 187.28832 174.528 
L 187.83744 174.528 
L 188.38656 174.528 
L 188.93568 174.528 
L 189.4848 174.528 
L 190.03392 174.528 
L 190.58304 174.528 
L 191.13216 174.528 
L 191.68128 174.528 
L 192.2304 174.528 
L 192.77952 174.528 
L 193.32864 174.528 
L 193.87776 174.528 
L 194.42688 174.528 
L 194.976 174.528 
L 195.52512 174.528 
L 196.07424 174.528 
L 196.62336 174.528 
L 197.17248 174.528 
L 197.7216 174.528 
L 198.27072 174.528 
L 198.81984 174.528 
L 199.36896 174.528 
L 199.91808 174.528 
L 200.4672 174.528 
L 201.01632 174.528 
L 201.56544 174.528 
L 202.11456 174.528 
L 202.66368 174.528 
L 203.2128 174.528 
L 203.76192 174.528 
L 204.31104 174.528 
L 204.86016 174.528 
L 205.40928 174.528 
L 205.9584 174.528 
L 206.50752 174.528 
L 207.05664 174.528 
L 207.60576 174.528 
L 208.15488 174.528 
L 208.704 174.528 
L 209.25312 174.528 
L 209.80224 174.528 
L 210.35136 174.528 
L 210.90048 174.528 
L 211.4496 174.528 
L 211.99872 174.528 
L 212.54784 174.528 
L 213.09696 174.528 
L 213.64608 174.528 
L 214.1952 174.528 
L 214.74432 174.528 
L 215.29344 174.528 
L 215.84256 174.528 
L 216.39168 174.528 
L 216.9408 174.528 
L 217.48992 174.528 
L 218.03904 174.528 
L 218.58816 174.528 
L 219.13728 174.528 
L 219.6864 174.528 
L 220.23552 174.528 
L 220.78464 174.528 
L 221.33376 174.528 
L 221.88288 174.528 
L 222.432 174.528 
L 222.98112 174.528 
L 223.53024 174.528 
L 224.07936 174.528 
L 224.62848 174.528 
L 225.1776 174.528 
L 225.72672 174.528 
L 226.27584 174.528 
L 226.82496 174.528 
L 227.37408 174.528 
L 227.9232 174.528 
L 228.47232 174.528 
L 229.02144 174.528 
L 229.57056 174.528 
L 230.11968 174.528 
L 230.6688 174.528 
L 231.21792 174.528 
L 231.76704 174.528 
L 232.31616 174.528 
L 232.86528 174.528 
L 233.4144 174.528 
L 233.96352 174.528 
L 234.51264 174.528 
L 235.06176 174.528 
L 235.61088 174.528 
z
" style="fill:#fabe28;"/>
   </g>
   <g id="patch_6">
    <path clip-path="url(#p9ae1f58b43)" d="M 181.248 174.528 
L 181.275096 176.252828 
L 181.356356 177.975953 
L 181.491701 179.695676 
L 181.680998 181.410299 
L 181.924058 183.118129 
L 182.220642 184.817483 
L 182.570459 186.506682 
L 182.973161 188.184059 
L 183.428353 189.84796 
L 183.935585 191.496741 
L 184.494355 193.128777 
L 185.104114 194.742455 
L 185.764258 196.336185 
L 186.474137 197.908392 
L 187.23305 199.457526 
L 188.040248 200.982058 
L 188.894934 202.480482 
L 189.796265 203.951321 
L 190.743352 205.393122 
L 191.735259 206.804464 
L 192.771008 208.183952 
L 193.849577 209.530226 
L 194.969901 210.841957 
L 196.130875 212.117851 
L 197.331352 213.356648 
L 198.570149 214.557125 
L 199.846043 215.718099 
L 201.157774 216.838423 
L 202.504048 217.916992 
L 203.883536 218.952741 
L 205.294878 219.944648 
L 206.736679 220.891735 
L 208.207518 221.793066 
L 209.705942 222.647752 
L 211.230474 223.45495 
L 212.779608 224.213863 
L 214.351815 224.923742 
L 215.945545 225.583886 
L 217.559223 226.193645 
L 219.191259 226.752415 
L 220.84004 227.259647 
L 222.503941 227.714839 
L 224.181318 228.117541 
L 225.870517 228.467358 
L 227.569871 228.763942 
L 229.277701 229.007002 
L 230.992324 229.196299 
L 232.712047 229.331644 
L 234.435172 229.412904 
L 236.16 229.44 
L 237.884828 229.412904 
L 239.607953 229.331644 
L 241.327676 229.196299 
L 243.042299 229.007002 
L 244.750129 228.763942 
L 246.449483 228.467358 
L 248.138682 228.117541 
L 249.816059 227.714839 
L 251.47996 227.259647 
L 253.128741 226.752415 
L 254.760777 226.193645 
L 256.374455 225.583886 
L 257.968185 224.923742 
L 259.540392 224.213863 
L 261.089526 223.45495 
L 262.614058 222.647752 
L 264.112482 221.793066 
L 265.583321 220.891735 
L 267.025122 219.944648 
L 268.436464 218.952741 
L 269.815952 217.916992 
L 271.162226 216.838423 
L 272.473957 215.718099 
L 273.749851 214.557125 
L 274.988648 213.356648 
L 276.189125 212.117851 
L 277.350099 210.841957 
L 278.470423 209.530226 
L 279.548992 208.183952 
L 280.584741 206.804464 
L 281.576648 205.393122 
L 282.523735 203.951321 
L 283.425066 202.480482 
L 284.279752 200.982058 
L 285.08695 199.457526 
L 285.845863 197.908392 
L 286.555742 196.336185 
L 287.215886 194.742455 
L 287.825645 193.128777 
L 288.384415 191.496741 
L 288.891647 189.84796 
L 289.346839 188.184059 
L 289.749541 186.506682 
L 290.099358 184.817483 
L 290.395942 183.118129 
L 290.639002 181.410299 
L 290.828299 179.695676 
L 290.963644 177.975953 
L 291.044904 176.252828 
L 291.072 174.528 
L 291.10368 174.528 
L 291.13536 174.528 
L 291.16704 174.528 
L 291.19872 174.528 
L 291.2304 174.528 
L 291.26208 174.528 
L 291.29376 174.528 
L 291.32544 174.528 
L 291.35712 174.528 
L 291.3888 174.528 
L 291.42048 174.528 
L 291.45216 174.528 
L 291.48384 174.528 
L 291.51552 174.528 
L 291.5472 174.528 
L 291.57888 174.528 
L 291.61056 174.528 
L 291.64224 174.528 
L 291.67392 174.528 
L 291.7056 174.528 
L 291.73728 174.528 
L 291.76896 174.528 
L 291.80064 174.528 
L 291.83232 174.528 
L 291.864 174.528 
L 291.89568 174.528 
L 291.92736 174.528 
L 291.95904 174.528 
L 291.99072 174.528 
L 292.0224 174.528 
L 292.05408 174.528 
L 292.08576 174.528 
L 292.11744 174.528 
L 292.14912 174.528 
L 292.1808 174.528 
L 292.21248 174.528 
L 292.24416 174.528 
L 292.27584 174.528 
L 292.30752 174.528 
L 292.3392 174.528 
L 292.37088 174.528 
L 292.40256 174.528 
L 292.43424 174.528 
L 292.46592 174.528 
L 292.4976 174.528 
L 292.52928 174.528 
L 292.56096 174.528 
L 292.59264 174.528 
L 292.62432 174.528 
L 292.656 174.528 
L 292.68768 174.528 
L 292.71936 174.528 
L 292.75104 174.528 
L 292.78272 174.528 
L 292.8144 174.528 
L 292.84608 174.528 
L 292.87776 174.528 
L 292.90944 174.528 
L 292.94112 174.528 
L 292.9728 174.528 
L 293.00448 174.528 
L 293.03616 174.528 
L 293.06784 174.528 
L 293.09952 174.528 
L 293.1312 174.528 
L 293.16288 174.528 
L 293.19456 174.528 
L 293.22624 174.528 
L 293.25792 174.528 
L 293.2896 174.528 
L 293.32128 174.528 
L 293.35296 174.528 
L 293.38464 174.528 
L 293.41632 174.528 
L 293.448 174.528 
L 293.47968 174.528 
L 293.51136 174.528 
L 293.54304 174.528 
L 293.57472 174.528 
L 293.6064 174.528 
L 293.63808 174.528 
L 293.66976 174.528 
L 293.70144 174.528 
L 293.73312 174.528 
L 293.7648 174.528 
L 293.79648 174.528 
L 293.82816 174.528 
L 293.85984 174.528 
L 293.89152 174.528 
L 293.9232 174.528 
L 293.95488 174.528 
L 293.98656 174.528 
L 294.01824 174.528 
L 294.04992 174.528 
L 294.0816 174.528 
L 294.11328 174.528 
L 294.14496 174.528 
L 294.17664 174.528 
L 294.20832 174.528 
L 294.24 174.528 
L 294.211341 176.352337 
L 294.125392 178.174873 
L 293.982239 179.993811 
L 293.782022 181.807354 
L 293.524939 183.613714 
L 293.211244 185.411107 
L 292.841246 187.197759 
L 292.41531 188.971909 
L 291.933857 190.731803 
L 291.397362 192.475707 
L 290.806355 194.201898 
L 290.161418 195.908674 
L 289.463189 197.594349 
L 288.712355 199.257261 
L 287.909659 200.895768 
L 287.055892 202.508253 
L 286.151897 204.093125 
L 285.198566 205.64882 
L 284.19684 207.173803 
L 283.147707 208.666567 
L 282.052203 210.125642 
L 280.911409 211.549585 
L 279.726451 212.936993 
L 278.498498 214.286496 
L 277.228762 215.596762 
L 275.918496 216.866498 
L 274.568993 218.094451 
L 273.181585 219.279409 
L 271.757642 220.420203 
L 270.298567 221.515707 
L 268.805803 222.56484 
L 267.28082 223.566566 
L 265.725125 224.519897 
L 264.140253 225.423892 
L 262.527768 226.277659 
L 260.889261 227.080355 
L 259.226349 227.831189 
L 257.540674 228.529418 
L 255.833898 229.174355 
L 254.107707 229.765362 
L 252.363803 230.301857 
L 250.603909 230.78331 
L 248.829759 231.209246 
L 247.043107 231.579244 
L 245.245714 231.892939 
L 243.439354 232.150022 
L 241.625811 232.350239 
L 239.806873 232.493392 
L 237.984337 232.579341 
L 236.16 232.608 
L 234.335663 232.579341 
L 232.513127 232.493392 
L 230.694189 232.350239 
L 228.880646 232.150022 
L 227.074286 231.892939 
L 225.276893 231.579244 
L 223.490241 231.209246 
L 221.716091 230.78331 
L 219.956197 230.301857 
L 218.212293 229.765362 
L 216.486102 229.174355 
L 214.779326 228.529418 
L 213.093651 227.831189 
L 211.430739 227.080355 
L 209.792232 226.277659 
L 208.179747 225.423892 
L 206.594875 224.519897 
L 205.03918 223.566566 
L 203.514197 222.56484 
L 202.021433 221.515707 
L 200.562358 220.420203 
L 199.138415 219.279409 
L 197.751007 218.094451 
L 196.401504 216.866498 
L 195.091238 215.596762 
L 193.821502 214.286496 
L 192.593549 212.936993 
L 191.408591 211.549585 
L 190.267797 210.125642 
L 189.172293 208.666567 
L 188.12316 207.173803 
L 187.121434 205.64882 
L 186.168103 204.093125 
L 185.264108 202.508253 
L 184.410341 200.895768 
L 183.607645 199.257261 
L 182.856811 197.594349 
L 182.158582 195.908674 
L 181.513645 194.201898 
L 180.922638 192.475707 
L 180.386143 190.731803 
L 179.90469 188.971909 
L 179.478754 187.197759 
L 179.108756 185.411107 
L 178.795061 183.613714 
L 178.537978 181.807354 
L 178.337761 179.993811 
L 178.194608 178.174873 
L 178.108659 176.352337 
L 178.08 174.528 
L 178.11168 174.528 
L 178.14336 174.528 
L 178.17504 174.528 
L 178.20672 174.528 
L 178.2384 174.528 
L 178.27008 174.528 
L 178.30176 174.528 
L 178.33344 174.528 
L 178.36512 174.528 
L 178.3968 174.528 
L 178.42848 174.528 
L 178.46016 174.528 
L 178.49184 174.528 
L 178.52352 174.528 
L 178.5552 174.528 
L 178.58688 174.528 
L 178.61856 174.528 
L 178.65024 174.528 
L 178.68192 174.528 
L 178.7136 174.528 
L 178.74528 174.528 
L 178.77696 174.528 
L 178.80864 174.528 
L 178.84032 174.528 
L 178.872 174.528 
L 178.90368 174.528 
L 178.93536 174.528 
L 178.96704 174.528 
L 178.99872 174.528 
L 179.0304 174.528 
L 179.06208 174.528 
L 179.09376 174.528 
L 179.12544 174.528 
L 179.15712 174.528 
L 179.1888 174.528 
L 179.22048 174.528 
L 179.25216 174.528 
L 179.28384 174.528 
L 179.31552 174.528 
L 179.3472 174.528 
L 179.37888 174.528 
L 179.41056 174.528 
L 179.44224 174.528 
L 179.47392 174.528 
L 179.5056 174.528 
L 179.53728 174.528 
L 179.56896 174.528 
L 179.60064 174.528 
L 179.63232 174.528 
L 179.664 174.528 
L 179.69568 174.528 
L 179.72736 174.528 
L 179.75904 174.528 
L 179.79072 174.528 
L 179.8224 174.528 
L 179.85408 174.528 
L 179.88576 174.528 
L 179.91744 174.528 
L 179.94912 174.528 
L 179.9808 174.528 
L 180.01248 174.528 
L 180.04416 174.528 
L 180.07584 174.528 
L 180.10752 174.528 
L 180.1392 174.528 
L 180.17088 174.528 
L 180.20256 174.528 
L 180.23424 174.528 
L 180.26592 174.528 
L 180.2976 174.528 
L 180.32928 174.528 
L 180.36096 174.528 
L 180.39264 174.528 
L 180.42432 174.528 
L 180.456 174.528 
L 180.48768 174.528 
L 180.51936 174.528 
L 180.55104 174.528 
L 180.58272 174.528 
L 180.6144 174.528 
L 180.64608 174.528 
L 180.67776 174.528 
L 180.70944 174.528 
L 180.74112 174.528 
L 180.7728 174.528 
L 180.80448 174.528 
L 180.83616 174.528 
L 180.86784 174.528 
L 180.89952 174.528 
L 180.9312 174.528 
L 180.96288 174.528 
L 180.99456 174.528 
L 181.02624 174.528 
L 181.05792 174.528 
L 181.0896 174.528 
L 181.12128 174.528 
L 181.15296 174.528 
L 181.18464 174.528 
L 181.21632 174.528 
z
" style="fill:#ff003c;"/>
   </g>
   <g id="patch_7">
    <path clip-path="url(#p9ae1f58b43)" d="M 178.08 174.528 
L 178.108659 176.352337 
L 178.194608 178.174873 
L 178.337761 179.993811 
L 178.537978 181.807354 
L 178.795061 183.613714 
L 179.108756 185.411107 
L 179.478754 187.197759 
L 179.90469 188.971909 
L 180.386143 190.731803 
L 180.922638 192.475707 
L 181.513645 194.201898 
L 182.158582 195.908674 
L 182.856811 197.594349 
L 183.607645 199.257261 
L 184.410341 200.895768 
L 185.264108 202.508253 
L 186.168103 204.093125 
L 187.121434 205.64882 
L 188.12316 207.173803 
L 189.172293 208.666567 
L 190.267797 210.125642 
L 191.408591 211.549585 
L 192.593549 212.936993 
L 193.821502 214.286496 
L 195.091238 215.596762 
L 196.401504 216.866498 
L 197.751007 218.094451 
L 199.138415 219.279409 
L 200.562358 220.420203 
L 202.021433 221.515707 
L 203.514197 222.56484 
L 205.03918 223.566566 
L 206.594875 224.519897 
L 208.179747 225.423892 
L 209.792232 226.277659 
L 211.430739 227.080355 
L 213.093651 227.831189 
L 214.779326 228.529418 
L 216.486102 229.174355 
L 218.212293 229.765362 
L 219.956197 230.301857 
L 221.716091 230.78331 
L 223.490241 231.209246 
L 225.276893 231.579244 
L 227.074286 231.892939 
L 228.880646 232.150022 
L 230.694189 232.350239 
L 232.513127 232.493392 
L 234.335663 232.579341 
L 236.16 232.608 
L 237.984337 232.579341 
L 239.806873 232.493392 
L 241.625811 232.350239 
L 243.439354 232.150022 
L 245.245714 231.892939 
L 247.043107 231.579244 
L 248.829759 231.209246 
L 250.603909 230.78331 
L 252.363803 230.301857 
L 254.107707 229.765362 
L 255.833898 229.174355 
L 257.540674 228.529418 
L 259.226349 227.831189 
L 260.889261 227.080355 
L 262.527768 226.277659 
L 264.140253 225.423892 
L 265.725125 224.519897 
L 267.28082 223.566566 
L 268.805803 222.56484 
L 270.298567 221.515707 
L 271.757642 220.420203 
L 273.181585 219.279409 
L 274.568993 218.094451 
L 275.918496 216.866498 
L 277.228762 215.596762 
L 278.498498 214.286496 
L 279.726451 212.936993 
L 280.911409 211.549585 
L 282.052203 210.125642 
L 283.147707 208.666567 
L 284.19684 207.173803 
L 285.198566 205.64882 
L 286.151897 204.093125 
L 287.055892 202.508253 
L 287.909659 200.895768 
L 288.712355 199.257261 
L 289.463189 197.594349 
L 290.161418 195.908674 
L 290.806355 194.201898 
L 291.397362 192.475707 
L 291.933857 190.731803 
L 292.41531 188.971909 
L 292.841246 187.197759 
L 293.211244 185.411107 
L 293.524939 183.613714 
L 293.782022 181.807354 
L 293.982239 179.993811 
L 294.125392 178.174873 
L 294.211341 176.352337 
L 294.24 174.528 
L 294.9264 174.528 
L 295.6128 174.528 
L 296.2992 174.528 
L 296.9856 174.528 
L 297.672 174.528 
L 298.3584 174.528 
L 299.0448 174.528 
L 299.7312 174.528 
L 300.4176 174.528 
L 301.104 174.528 
L 301.7904 174.528 
L 302.4768 174.528 
L 303.1632 174.528 
L 303.8496 174.528 
L 304.536 174.528 
L 305.2224 174.528 
L 305.9088 174.528 
L 306.5952 174.528 
L 307.2816 174.528 
L 307.968 174.528 
L 308.6544 174.528 
L 309.3408 174.528 
L 310.0272 174.528 
L 310.7136 174.528 
L 311.4 174.528 
L 312.0864 174.528 
L 312.7728 174.528 
L 313.4592 174.528 
L 314.1456 174.528 
L 314.832 174.528 
L 315.5184 174.528 
L 316.2048 174.528 
L 316.8912 174.528 
L 317.5776 174.528 
L 318.264 174.528 
L 318.9504 174.528 
L 319.6368 174.528 
L 320.3232 174.528 
L 321.0096 174.528 
L 321.696 174.528 
L 322.3824 174.528 
L 323.0688 174.528 
L 323.7552 174.528 
L 324.4416 174.528 
L 325.128 174.528 
L 325.8144 174.528 
L 326.5008 174.528 
L 327.1872 174.528 
L 327.8736 174.528 
L 328.56 174.528 
L 329.2464 174.528 
L 329.9328 174.528 
L 330.6192 174.528 
L 331.3056 174.528 
L 331.992 174.528 
L 332.6784 174.528 
L 333.3648 174.528 
L 334.0512 174.528 
L 334.7376 174.528 
L 335.424 174.528 
L 336.1104 174.528 
L 336.7968 174.528 
L 337.4832 174.528 
L 338.1696 174.528 
L 338.856 174.528 
L 339.5424 174.528 
L 340.2288 174.528 
L 340.9152 174.528 
L 341.6016 174.528 
L 342.288 174.528 
L 342.9744 174.528 
L 343.6608 174.528 
L 344.3472 174.528 
L 345.0336 174.528 
L 345.72 174.528 
L 346.4064 174.528 
L 347.0928 174.528 
L 347.7792 174.528 
L 348.4656 174.528 
L 349.152 174.528 
L 349.8384 174.528 
L 350.5248 174.528 
L 351.2112 174.528 
L 351.8976 174.528 
L 352.584 174.528 
L 353.2704 174.528 
L 353.9568 174.528 
L 354.6432 174.528 
L 355.3296 174.528 
L 356.016 174.528 
L 356.7024 174.528 
L 357.3888 174.528 
L 358.0752 174.528 
L 358.7616 174.528 
L 359.448 174.528 
L 360.1344 174.528 
L 360.8208 174.528 
L 361.5072 174.528 
L 362.1936 174.528 
L 362.88 174.528 
L 362.817471 178.508371 
L 362.629947 182.484815 
L 362.317612 186.453405 
L 361.880775 190.410227 
L 361.319867 194.351375 
L 360.63544 198.27296 
L 359.828172 202.171112 
L 358.898858 206.041983 
L 357.848416 209.881753 
L 356.677882 213.686634 
L 355.388411 217.452869 
L 353.981276 221.176743 
L 352.457866 224.854581 
L 350.819684 228.482752 
L 349.068347 232.057676 
L 347.205582 235.575826 
L 345.23323 239.033728 
L 343.153235 242.427971 
L 340.96765 245.755206 
L 338.678634 249.012147 
L 336.288443 252.195582 
L 333.799438 255.302368 
L 331.214075 258.32944 
L 328.534904 261.273809 
L 325.764571 264.132571 
L 322.905809 266.902904 
L 319.96144 269.582075 
L 316.934368 272.167438 
L 313.827582 274.656443 
L 310.644147 277.046634 
L 307.387206 279.33565 
L 304.059971 281.521235 
L 300.665728 283.60123 
L 297.207826 285.573582 
L 293.689676 287.436347 
L 290.114752 289.187684 
L 286.486581 290.825866 
L 282.808743 292.349276 
L 279.084869 293.756411 
L 275.318634 295.045882 
L 271.513753 296.216416 
L 267.673983 297.266858 
L 263.803112 298.196172 
L 259.90496 299.00344 
L 255.983375 299.687867 
L 252.042227 300.248775 
L 248.085405 300.685612 
L 244.116815 300.997947 
L 240.140371 301.185471 
L 236.16 301.248 
L 232.179629 301.185471 
L 228.203185 300.997947 
L 224.234595 300.685612 
L 220.277773 300.248775 
L 216.336625 299.687867 
L 212.41504 299.00344 
L 208.516888 298.196172 
L 204.646017 297.266858 
L 200.806247 296.216416 
L 197.001366 295.045882 
L 193.235131 293.756411 
L 189.511257 292.349276 
L 185.833419 290.825866 
L 182.205248 289.187684 
L 178.630324 287.436347 
L 175.112174 285.573582 
L 171.654272 283.60123 
L 168.260029 281.521235 
L 164.932794 279.33565 
L 161.675853 277.046634 
L 158.492418 274.656443 
L 155.385632 272.167438 
L 152.35856 269.582075 
L 149.414191 266.902904 
L 146.555429 264.132571 
L 143.785096 261.273809 
L 141.105925 258.32944 
L 138.520562 255.302368 
L 136.031557 252.195582 
L 133.641366 249.012147 
L 131.35235 245.755206 
L 129.166765 242.427971 
L 127.08677 239.033728 
L 125.114418 235.575826 
L 123.251653 232.057676 
L 121.500316 228.482752 
L 119.862134 224.854581 
L 118.338724 221.176743 
L 116.931589 217.452869 
L 115.642118 213.686634 
L 114.471584 209.881753 
L 113.421142 206.041983 
L 112.491828 202.171112 
L 111.68456 198.27296 
L 111.000133 194.351375 
L 110.439225 190.410227 
L 110.002388 186.453405 
L 109.690053 182.484815 
L 109.502529 178.508371 
L 109.44 174.528 
L 110.1264 174.528 
L 110.8128 174.528 
L 111.4992 174.528 
L 112.1856 174.528 
L 112.872 174.528 
L 113.5584 174.528 
L 114.2448 174.528 
L 114.9312 174.528 
L 115.6176 174.528 
L 116.304 174.528 
L 116.9904 174.528 
L 117.6768 174.528 
L 118.3632 174.528 
L 119.0496 174.528 
L 119.736 174.528 
L 120.4224 174.528 
L 121.1088 174.528 
L 121.7952 174.528 
L 122.4816 174.528 
L 123.168 174.528 
L 123.8544 174.528 
L 124.5408 174.528 
L 125.2272 174.528 
L 125.9136 174.528 
L 126.6 174.528 
L 127.2864 174.528 
L 127.9728 174.528 
L 128.6592 174.528 
L 129.3456 174.528 
L 130.032 174.528 
L 130.7184 174.528 
L 131.4048 174.528 
L 132.0912 174.528 
L 132.7776 174.528 
L 133.464 174.528 
L 134.1504 174.528 
L 134.8368 174.528 
L 135.5232 174.528 
L 136.2096 174.528 
L 136.896 174.528 
L 137.5824 174.528 
L 138.2688 174.528 
L 138.9552 174.528 
L 139.6416 174.528 
L 140.328 174.528 
L 141.0144 174.528 
L 141.7008 174.528 
L 142.3872 174.528 
L 143.0736 174.528 
L 143.76 174.528 
L 144.4464 174.528 
L 145.1328 174.528 
L 145.8192 174.528 
L 146.5056 174.528 
L 147.192 174.528 
L 147.8784 174.528 
L 148.5648 174.528 
L 149.2512 174.528 
L 149.9376 174.528 
L 150.624 174.528 
L 151.3104 174.528 
L 151.9968 174.528 
L 152.6832 174.528 
L 153.3696 174.528 
L 154.056 174.528 
L 154.7424 174.528 
L 155.4288 174.528 
L 156.1152 174.528 
L 156.8016 174.528 
L 157.488 174.528 
L 158.1744 174.528 
L 158.8608 174.528 
L 159.5472 174.528 
L 160.2336 174.528 
L 160.92 174.528 
L 161.6064 174.528 
L 162.2928 174.528 
L 162.9792 174.528 
L 163.6656 174.528 
L 164.352 174.528 
L 165.0384 174.528 
L 165.7248 174.528 
L 166.4112 174.528 
L 167.0976 174.528 
L 167.784 174.528 
L 168.4704 174.528 
L 169.1568 174.528 
L 169.8432 174.528 
L 170.5296 174.528 
L 171.216 174.528 
L 171.9024 174.528 
L 172.5888 174.528 
L 173.2752 174.528 
L 173.9616 174.528 
L 174.648 174.528 
L 175.3344 174.528 
L 176.0208 174.528 
L 176.7072 174.528 
L 177.3936 174.528 
z
" style="fill:#88c100;"/>
   </g>
  </g>
 </g>
 <defs>
  <clipPath id="p9ae1f58b43">
   <path d="M 369.216 174.528 
C 369.216 157.055246 365.774248 139.752393 359.087715 123.609673 
C 352.401182 107.466954 342.599903 92.798303 330.2448 80.4432 
C 317.889697 68.088097 303.221046 58.286818 287.078327 51.600285 
C 270.935607 44.913752 253.632754 41.472 236.16 41.472 
C 218.687246 41.472 201.384393 44.913752 185.241673 51.600285 
C 169.098954 58.286818 154.430303 68.088097 142.0752 80.4432 
C 129.720097 92.798303 119.918818 107.466954 113.232285 123.609673 
C 106.545752 139.752393 103.104 157.055246 103.104 174.528 
C 103.104 192.000754 106.545752 209.303607 113.232285 225.446327 
C 119.918818 241.589046 129.720097 256.257697 142.0752 268.6128 
C 154.430303 280.967903 169.098954 290.769182 185.241673 297.455715 
C 201.384393 304.142248 218.687246 307.584 236.16 307.584 
C 253.632754 307.584 270.935607 304.142248 287.078327 297.455715 
C 303.221046 290.769182 317.889697 280.967903 330.2448 268.6128 
C 342.599903 256.257697 352.401182 241.589046 359.087715 225.446327 
C 365.774248 209.303607 369.216 192.000754 369.216 174.528 
M 236.16 174.528 
C 236.16 174.528 236.16 174.528 236.16 174.528 
C 236.16 174.528 236.16 174.528 236.16 174.528 
C 236.16 174.528 236.16 174.528 236.16 174.528 
C 236.16 174.528 236.16 174.528 236.16 174.528 
C 236.16 174.528 236.16 174.528 236.16 174.528 
C 236.16 174.528 236.16 174.528 236.16 174.528 
C 236.16 174.528 236.16 174.528 236.16 174.528 
C 236.16 174.528 236.16 174.528 236.16 174.528 
C 236.16 174.528 236.16 174.528 236.16 174.528 
C 236.16 174.528 236.16 174.528 236.16 174.528 
C 236.16 174.528 236.16 174.528 236.16 174.528 
C 236.16 174.528 236.16 174.528 236.16 174.528 
C 236.16 174.528 236.16 174.528 236.16 174.528 
C 236.16 174.528 236.16 174.528 236.16 174.528 
C 236.16 174.528 236.16 174.528 236.16 174.528 
C 236.16 174.528 236.16 174.528 236.16 174.528 
M 369.216 174.528 
z
"/>
  </clipPath>
 </defs>
</svg>
