<?xml version="1.0" encoding="utf-8" standalone="no"?>
<!DOCTYPE svg PUBLIC "-//W3C//DTD SVG 1.1//EN"
  "http://www.w3.org/Graphics/SVG/1.1/DTD/svg11.dtd">
<!-- Created with matplotlib (https://matplotlib.org/) -->
<svg height="345.6pt" version="1.1" viewBox="0 0 460.8 345.6" width="460.8pt" xmlns="http://www.w3.org/2000/svg" xmlns:xlink="http://www.w3.org/1999/xlink">
 <defs>
  <style type="text/css">
*{stroke-linecap:butt;stroke-linejoin:round;}
  </style>
 </defs>
 <g id="figure_1">
  <g id="patch_1">
   <path d="M 0 345.6 
L 460.8 345.6 
L 460.8 0 
L 0 0 
z
" style="fill:none;"/>
  </g>
  <g id="axes_1">
   <g id="patch_2">
    <path clip-path="url(#p34f5ff5f28)" d="M 236.16 174.528 
L 236.16 174.528 
L 236.16 174.528 
L 236.16 174.528 
L 236.16 174.528 
L 236.16 174.528 
L 236.16 174.528 
L 236.16 174.528 
L 236.16 174.528 
L 236.16 174.528 
L 236.16 174.528 
L 236.16 174.528 
L 236.16 174.528 
L 236.16 174.528 
L 236.16 174.528 
L 236.16 174.528 
L 236.16 174.528 
L 236.16 174.528 
L 236.16 174.528 
L 236.16 174.528 
L 236.16 174.528 
L 236.16 174.528 
L 236.16 174.528 
L 236.16 174.528 
L 236.16 174.528 
L 236.16 174.528 
L 236.16 174.528 
L 236.16 174.528 
L 236.16 174.528 
L 236.16 174.528 
L 236.16 174.528 
L 236.16 174.528 
L 236.16 174.528 
L 236.16 174.528 
L 236.16 174.528 
L 236.16 174.528 
L 236.16 174.528 
L 236.16 174.528 
L 236.16 174.528 
L 236.16 174.528 
L 236.16 174.528 
L 236.16 174.528 
L 236.16 174.528 
L 236.16 174.528 
L 236.16 174.528 
L 236.16 174.528 
L 236.16 174.528 
L 236.16 174.528 
L 236.16 174.528 
L 236.16 174.528 
L 236.16 174.528 
L 236.16 174.528 
L 236.16 174.528 
L 236.16 174.528 
L 236.16 174.528 
L 236.16 174.528 
L 236.16 174.528 
L 236.16 174.528 
L 236.16 174.528 
L 236.16 174.528 
L 236.16 174.528 
L 236.16 174.528 
L 236.16 174.528 
L 236.16 174.528 
L 236.16 174.528 
L 236.16 174.528 
L 236.16 174.528 
L 236.16 174.528 
L 236.16 174.528 
L 236.16 174.528 
L 236.16 174.528 
L 236.16 174.528 
L 236.16 174.528 
L 236.16 174.528 
L 236.16 174.528 
L 236.16 174.528 
L 236.16 174.528 
L 236.16 174.528 
L 236.16 174.528 
L 236.16 174.528 
L 236.16 174.528 
L 236.16 174.528 
L 236.16 174.528 
L 236.16 174.528 
L 236.16 174.528 
L 236.16 174.528 
L 236.16 174.528 
L 236.16 174.528 
L 236.16 174.528 
L 236.16 174.528 
L 236.16 174.528 
L 236.16 174.528 
L 236.16 174.528 
L 236.16 174.528 
L 236.16 174.528 
L 236.16 174.528 
L 236.16 174.528 
L 236.16 174.528 
L 236.16 174.528 
L 236.16 174.528 
L 236.16 174.528 
L 236.16 175.85856 
L 236.16 177.18912 
L 236.16 178.51968 
L 236.16 179.85024 
L 236.16 181.1808 
L 236.16 182.51136 
L 236.16 183.84192 
L 236.16 185.17248 
L 236.16 186.50304 
L 236.16 187.8336 
L 236.16 189.16416 
L 236.16 190.49472 
L 236.16 191.82528 
L 236.16 193.15584 
L 236.16 194.4864 
L 236.16 195.81696 
L 236.16 197.14752 
L 236.16 198.47808 
L 236.16 199.80864 
L 236.16 201.1392 
L 236.16 202.46976 
L 236.16 203.80032 
L 236.16 205.13088 
L 236.16 206.46144 
L 236.16 207.792 
L 236.16 209.12256 
L 236.16 210.45312 
L 236.16 211.78368 
L 236.16 213.11424 
L 236.16 214.4448 
L 236.16 215.77536 
L 236.16 217.10592 
L 236.16 218.43648 
L 236.16 219.76704 
L 236.16 221.0976 
L 236.16 222.42816 
L 236.16 223.75872 
L 236.16 225.08928 
L 236.16 226.41984 
L 236.16 227.7504 
L 236.16 229.08096 
L 236.16 230.41152 
L 236.16 231.74208 
L 236.16 233.07264 
L 236.16 234.4032 
L 236.16 235.73376 
L 236.16 237.06432 
L 236.16 238.39488 
L 236.16 239.72544 
L 236.16 241.056 
L 236.16 242.38656 
L 236.16 243.71712 
L 236.16 245.04768 
L 236.16 246.37824 
L 236.16 247.7088 
L 236.16 249.03936 
L 236.16 250.36992 
L 236.16 251.70048 
L 236.16 253.03104 
L 236.16 254.3616 
L 236.16 255.69216 
L 236.16 257.02272 
L 236.16 258.35328 
L 236.16 259.68384 
L 236.16 261.0144 
L 236.16 262.34496 
L 236.16 263.67552 
L 236.16 265.00608 
L 236.16 266.33664 
L 236.16 267.6672 
L 236.16 268.99776 
L 236.16 270.32832 
L 236.16 271.65888 
L 236.16 272.98944 
L 236.16 274.32 
L 236.16 275.65056 
L 236.16 276.98112 
L 236.16 278.31168 
L 236.16 279.64224 
L 236.16 280.9728 
L 236.16 282.30336 
L 236.16 283.63392 
L 236.16 284.96448 
L 236.16 286.29504 
L 236.16 287.6256 
L 236.16 288.95616 
L 236.16 290.28672 
L 236.16 291.61728 
L 236.16 292.94784 
L 236.16 294.2784 
L 236.16 295.60896 
L 236.16 296.93952 
L 236.16 298.27008 
L 236.16 299.60064 
L 236.16 300.9312 
L 236.16 302.26176 
L 236.16 303.59232 
L 236.16 304.92288 
L 236.16 306.25344 
L 236.16 307.584 
L 227.805345 307.321444 
L 219.483661 306.534814 
L 211.227792 305.227212 
L 203.070318 303.403801 
L 195.043435 301.071776 
L 187.17882 298.24034 
L 179.507511 294.920668 
L 172.059783 291.125862 
L 164.86503 286.870896 
L 157.951645 282.172565 
L 151.346914 277.04941 
L 145.0769 271.52165 
L 139.16635 265.6111 
L 133.63859 259.341086 
L 128.515435 252.736355 
L 123.817104 245.82297 
L 119.562138 238.628217 
L 115.767332 231.180489 
L 112.44766 223.50918 
L 109.616224 215.644565 
L 107.284199 207.617682 
L 105.460788 199.460208 
L 104.153186 191.204339 
L 103.366556 182.882655 
L 103.104 174.528 
L 103.366556 166.173345 
L 104.153186 157.851661 
L 105.460788 149.595792 
L 107.284199 141.438318 
L 109.616224 133.411435 
L 112.44766 125.54682 
L 115.767332 117.875511 
L 119.562138 110.427783 
L 123.817104 103.23303 
L 128.515435 96.319645 
L 133.63859 89.714914 
L 139.16635 83.4449 
L 145.0769 77.53435 
L 151.346914 72.00659 
L 157.951645 66.883435 
L 164.86503 62.185104 
L 172.059783 57.930138 
L 179.507511 54.135332 
L 187.17882 50.81566 
L 195.043435 47.984224 
L 203.070318 45.652199 
L 211.227792 43.828788 
L 219.483661 42.521186 
L 227.805345 41.734556 
L 236.16 41.472 
L 244.514655 41.734556 
L 252.836339 42.521186 
L 261.092208 43.828788 
L 269.249682 45.652199 
L 277.276565 47.984224 
L 285.14118 50.81566 
L 292.812489 54.135332 
L 300.260217 57.930138 
L 307.45497 62.185104 
L 314.368355 66.883435 
L 320.973086 72.00659 
L 327.2431 77.53435 
L 333.15365 83.4449 
L 338.68141 89.714914 
L 343.804565 96.319645 
L 348.502896 103.23303 
L 352.757862 110.427783 
L 356.552668 117.875511 
L 359.87234 125.54682 
L 362.703776 133.411435 
L 365.035801 141.438318 
L 366.859212 149.595792 
L 368.166814 157.851661 
L 368.953444 166.173345 
L 369.216 174.528 
L 368.953444 182.882655 
L 368.166814 191.204339 
L 366.859212 199.460208 
L 365.035801 207.617682 
L 362.703776 215.644565 
L 359.87234 223.50918 
L 356.552668 231.180489 
L 352.757862 238.628217 
L 348.502896 245.82297 
L 343.804565 252.736355 
L 338.68141 259.341086 
L 333.15365 265.6111 
L 327.2431 271.52165 
L 320.973086 277.04941 
L 314.368355 282.172565 
L 307.45497 286.870896 
L 300.260217 291.125862 
L 292.812489 294.920668 
L 285.14118 298.24034 
L 277.276565 301.071776 
L 269.249682 303.403801 
L 261.092208 305.227212 
L 252.836339 306.534814 
L 244.514655 307.321444 
L 236.16 307.584 
L 236.16 306.25344 
L 236.16 304.92288 
L 236.16 303.59232 
L 236.16 302.26176 
L 236.16 300.9312 
L 236.16 299.60064 
L 236.16 298.27008 
L 236.16 296.93952 
L 236.16 295.60896 
L 236.16 294.2784 
L 236.16 292.94784 
L 236.16 291.61728 
L 236.16 290.28672 
L 236.16 288.95616 
L 236.16 287.6256 
L 236.16 286.29504 
L 236.16 284.96448 
L 236.16 283.63392 
L 236.16 282.30336 
L 236.16 280.9728 
L 236.16 279.64224 
L 236.16 278.31168 
L 236.16 276.98112 
L 236.16 275.65056 
L 236.16 274.32 
L 236.16 272.98944 
L 236.16 271.65888 
L 236.16 270.32832 
L 236.16 268.99776 
L 236.16 267.6672 
L 236.16 266.33664 
L 236.16 265.00608 
L 236.16 263.67552 
L 236.16 262.34496 
L 236.16 261.0144 
L 236.16 259.68384 
L 236.16 258.35328 
L 236.16 257.02272 
L 236.16 255.69216 
L 236.16 254.3616 
L 236.16 253.03104 
L 236.16 251.70048 
L 236.16 250.36992 
L 236.16 249.03936 
L 236.16 247.7088 
L 236.16 246.37824 
L 236.16 245.04768 
L 236.16 243.71712 
L 236.16 242.38656 
L 236.16 241.056 
L 236.16 239.72544 
L 236.16 238.39488 
L 236.16 237.06432 
L 236.16 235.73376 
L 236.16 234.4032 
L 236.16 233.07264 
L 236.16 231.74208 
L 236.16 230.41152 
L 236.16 229.08096 
L 236.16 227.7504 
L 236.16 226.41984 
L 236.16 225.08928 
L 236.16 223.75872 
L 236.16 222.42816 
L 236.16 221.0976 
L 236.16 219.76704 
L 236.16 218.43648 
L 236.16 217.10592 
L 236.16 215.77536 
L 236.16 214.4448 
L 236.16 213.11424 
L 236.16 211.78368 
L 236.16 210.45312 
L 236.16 209.12256 
L 236.16 207.792 
L 236.16 206.46144 
L 236.16 205.13088 
L 236.16 203.80032 
L 236.16 202.46976 
L 236.16 201.1392 
L 236.16 199.80864 
L 236.16 198.47808 
L 236.16 197.14752 
L 236.16 195.81696 
L 236.16 194.4864 
L 236.16 193.15584 
L 236.16 191.82528 
L 236.16 190.49472 
L 236.16 189.16416 
L 236.16 187.8336 
L 236.16 186.50304 
L 236.16 185.17248 
L 236.16 183.84192 
L 236.16 182.51136 
L 236.16 181.1808 
L 236.16 179.85024 
L 236.16 178.51968 
L 236.16 177.18912 
L 236.16 175.85856 
z
" style="fill:#fabe28;"/>
   </g>
   <g id="patch_3">
    <path clip-path="url(#p34f5ff5f28)" d="M 236.16 307.584 
L 244.514655 307.321444 
L 252.836339 306.534814 
L 261.092208 305.227212 
L 269.249682 303.403801 
L 277.276565 301.071776 
L 285.14118 298.24034 
L 292.812489 294.920668 
L 300.260217 291.125862 
L 307.45497 286.870896 
L 314.368355 282.172565 
L 320.973086 277.04941 
L 327.2431 271.52165 
L 333.15365 265.6111 
L 338.68141 259.341086 
L 343.804565 252.736355 
L 348.502896 245.82297 
L 352.757862 238.628217 
L 356.552668 231.180489 
L 359.87234 223.50918 
L 362.703776 215.644565 
L 365.035801 207.617682 
L 366.859212 199.460208 
L 368.166814 191.204339 
L 368.953444 182.882655 
L 369.216 174.528 
L 368.953444 166.173345 
L 368.166814 157.851661 
L 366.859212 149.595792 
L 365.035801 141.438318 
L 362.703776 133.411435 
L 359.87234 125.54682 
L 356.552668 117.875511 
L 352.757862 110.427783 
L 348.502896 103.23303 
L 343.804565 96.319645 
L 338.68141 89.714914 
L 333.15365 83.4449 
L 327.2431 77.53435 
L 320.973086 72.00659 
L 314.368355 66.883435 
L 307.45497 62.185104 
L 300.260217 57.930138 
L 292.812489 54.135332 
L 285.14118 50.81566 
L 277.276565 47.984224 
L 269.249682 45.652199 
L 261.092208 43.828788 
L 252.836339 42.521186 
L 244.514655 41.734556 
L 236.16 41.472 
L 227.805345 41.734556 
L 219.483661 42.521186 
L 211.227792 43.828788 
L 203.070318 45.652199 
L 195.043435 47.984224 
L 187.17882 50.81566 
L 179.507511 54.135332 
L 172.059783 57.930138 
L 164.86503 62.185104 
L 157.951645 66.883435 
L 151.346914 72.00659 
L 145.0769 77.53435 
L 139.16635 83.4449 
L 133.63859 89.714914 
L 128.515435 96.319645 
L 123.817104 103.23303 
L 119.562138 110.427783 
L 115.767332 117.875511 
L 112.44766 125.54682 
L 109.616224 133.411435 
L 107.284199 141.438318 
L 105.460788 149.595792 
L 104.153186 157.851661 
L 103.366556 166.173345 
L 103.104 174.528 
L 103.366556 182.882655 
L 104.153186 191.204339 
L 105.460788 199.460208 
L 107.284199 207.617682 
L 109.616224 215.644565 
L 112.44766 223.50918 
L 115.767332 231.180489 
L 119.562138 238.628217 
L 123.817104 245.82297 
L 128.515435 252.736355 
L 133.63859 259.341086 
L 139.16635 265.6111 
L 145.0769 271.52165 
L 151.346914 277.04941 
L 157.951645 282.172565 
L 164.86503 286.870896 
L 172.059783 291.125862 
L 179.507511 294.920668 
L 187.17882 298.24034 
L 195.043435 301.071776 
L 203.070318 303.403801 
L 211.227792 305.227212 
L 219.483661 306.534814 
L 227.805345 307.321444 
L 236.16 307.584 
L 236.16 307.584 
L 236.16 307.584 
L 236.16 307.584 
L 236.16 307.584 
L 236.16 307.584 
L 236.16 307.584 
L 236.16 307.584 
L 236.16 307.584 
L 236.16 307.584 
L 236.16 307.584 
L 236.16 307.584 
L 236.16 307.584 
L 236.16 307.584 
L 236.16 307.584 
L 236.16 307.584 
L 236.16 307.584 
L 236.16 307.584 
L 236.16 307.584 
L 236.16 307.584 
L 236.16 307.584 
L 236.16 307.584 
L 236.16 307.584 
L 236.16 307.584 
L 236.16 307.584 
L 236.16 307.584 
L 236.16 307.584 
L 236.16 307.584 
L 236.16 307.584 
L 236.16 307.584 
L 236.16 307.584 
L 236.16 307.584 
L 236.16 307.584 
L 236.16 307.584 
L 236.16 307.584 
L 236.16 307.584 
L 236.16 307.584 
L 236.16 307.584 
L 236.16 307.584 
L 236.16 307.584 
L 236.16 307.584 
L 236.16 307.584 
L 236.16 307.584 
L 236.16 307.584 
L 236.16 307.584 
L 236.16 307.584 
L 236.16 307.584 
L 236.16 307.584 
L 236.16 307.584 
L 236.16 307.584 
L 236.16 307.584 
L 236.16 307.584 
L 236.16 307.584 
L 236.16 307.584 
L 236.16 307.584 
L 236.16 307.584 
L 236.16 307.584 
L 236.16 307.584 
L 236.16 307.584 
L 236.16 307.584 
L 236.16 307.584 
L 236.16 307.584 
L 236.16 307.584 
L 236.16 307.584 
L 236.16 307.584 
L 236.16 307.584 
L 236.16 307.584 
L 236.16 307.584 
L 236.16 307.584 
L 236.16 307.584 
L 236.16 307.584 
L 236.16 307.584 
L 236.16 307.584 
L 236.16 307.584 
L 236.16 307.584 
L 236.16 307.584 
L 236.16 307.584 
L 236.16 307.584 
L 236.16 307.584 
L 236.16 307.584 
L 236.16 307.584 
L 236.16 307.584 
L 236.16 307.584 
L 236.16 307.584 
L 236.16 307.584 
L 236.16 307.584 
L 236.16 307.584 
L 236.16 307.584 
L 236.16 307.584 
L 236.16 307.584 
L 236.16 307.584 
L 236.16 307.584 
L 236.16 307.584 
L 236.16 307.584 
L 236.16 307.584 
L 236.16 307.584 
L 236.16 307.584 
L 236.16 307.584 
L 236.16 307.584 
L 236.16 307.584 
L 236.16 307.584 
L 227.805345 307.321444 
L 219.483661 306.534814 
L 211.227792 305.227212 
L 203.070318 303.403801 
L 195.043435 301.071776 
L 187.17882 298.24034 
L 179.507511 294.920668 
L 172.059783 291.125862 
L 164.86503 286.870896 
L 157.951645 282.172565 
L 151.346914 277.04941 
L 145.0769 271.52165 
L 139.16635 265.6111 
L 133.63859 259.341086 
L 128.515435 252.736355 
L 123.817104 245.82297 
L 119.562138 238.628217 
L 115.767332 231.180489 
L 112.44766 223.50918 
L 109.616224 215.644565 
L 107.284199 207.617682 
L 105.460788 199.460208 
L 104.153186 191.204339 
L 103.366556 182.882655 
L 103.104 174.528 
L 103.366556 166.173345 
L 104.153186 157.851661 
L 105.460788 149.595792 
L 107.284199 141.438318 
L 109.616224 133.411435 
L 112.44766 125.54682 
L 115.767332 117.875511 
L 119.562138 110.427783 
L 123.817104 103.23303 
L 128.515435 96.319645 
L 133.63859 89.714914 
L 139.16635 83.4449 
L 145.0769 77.53435 
L 151.346914 72.00659 
L 157.951645 66.883435 
L 164.86503 62.185104 
L 172.059783 57.930138 
L 179.507511 54.135332 
L 187.17882 50.81566 
L 195.043435 47.984224 
L 203.070318 45.652199 
L 211.227792 43.828788 
L 219.483661 42.521186 
L 227.805345 41.734556 
L 236.16 41.472 
L 244.514655 41.734556 
L 252.836339 42.521186 
L 261.092208 43.828788 
L 269.249682 45.652199 
L 277.276565 47.984224 
L 285.14118 50.81566 
L 292.812489 54.135332 
L 300.260217 57.930138 
L 307.45497 62.185104 
L 314.368355 66.883435 
L 320.973086 72.00659 
L 327.2431 77.53435 
L 333.15365 83.4449 
L 338.68141 89.714914 
L 343.804565 96.319645 
L 348.502896 103.23303 
L 352.757862 110.427783 
L 356.552668 117.875511 
L 359.87234 125.54682 
L 362.703776 133.411435 
L 365.035801 141.438318 
L 366.859212 149.595792 
L 368.166814 157.851661 
L 368.953444 166.173345 
L 369.216 174.528 
L 368.953444 182.882655 
L 368.166814 191.204339 
L 366.859212 199.460208 
L 365.035801 207.617682 
L 362.703776 215.644565 
L 359.87234 223.50918 
L 356.552668 231.180489 
L 352.757862 238.628217 
L 348.502896 245.82297 
L 343.804565 252.736355 
L 338.68141 259.341086 
L 333.15365 265.6111 
L 327.2431 271.52165 
L 320.973086 277.04941 
L 314.368355 282.172565 
L 307.45497 286.870896 
L 300.260217 291.125862 
L 292.812489 294.920668 
L 285.14118 298.24034 
L 277.276565 301.071776 
L 269.249682 303.403801 
L 261.092208 305.227212 
L 252.836339 306.534814 
L 244.514655 307.321444 
L 236.16 307.584 
L 236.16 307.584 
L 236.16 307.584 
L 236.16 307.584 
L 236.16 307.584 
L 236.16 307.584 
L 236.16 307.584 
L 236.16 307.584 
L 236.16 307.584 
L 236.16 307.584 
L 236.16 307.584 
L 236.16 307.584 
L 236.16 307.584 
L 236.16 307.584 
L 236.16 307.584 
L 236.16 307.584 
L 236.16 307.584 
L 236.16 307.584 
L 236.16 307.584 
L 236.16 307.584 
L 236.16 307.584 
L 236.16 307.584 
L 236.16 307.584 
L 236.16 307.584 
L 236.16 307.584 
L 236.16 307.584 
L 236.16 307.584 
L 236.16 307.584 
L 236.16 307.584 
L 236.16 307.584 
L 236.16 307.584 
L 236.16 307.584 
L 236.16 307.584 
L 236.16 307.584 
L 236.16 307.584 
L 236.16 307.584 
L 236.16 307.584 
L 236.16 307.584 
L 236.16 307.584 
L 236.16 307.584 
L 236.16 307.584 
L 236.16 307.584 
L 236.16 307.584 
L 236.16 307.584 
L 236.16 307.584 
L 236.16 307.584 
L 236.16 307.584 
L 236.16 307.584 
L 236.16 307.584 
L 236.16 307.584 
L 236.16 307.584 
L 236.16 307.584 
L 236.16 307.584 
L 236.16 307.584 
L 236.16 307.584 
L 236.16 307.584 
L 236.16 307.584 
L 236.16 307.584 
L 236.16 307.584 
L 236.16 307.584 
L 236.16 307.584 
L 236.16 307.584 
L 236.16 307.584 
L 236.16 307.584 
L 236.16 307.584 
L 236.16 307.584 
L 236.16 307.584 
L 236.16 307.584 
L 236.16 307.584 
L 236.16 307.584 
L 236.16 307.584 
L 236.16 307.584 
L 236.16 307.584 
L 236.16 307.584 
L 236.16 307.584 
L 236.16 307.584 
L 236.16 307.584 
L 236.16 307.584 
L 236.16 307.584 
L 236.16 307.584 
L 236.16 307.584 
L 236.16 307.584 
L 236.16 307.584 
L 236.16 307.584 
L 236.16 307.584 
L 236.16 307.584 
L 236.16 307.584 
L 236.16 307.584 
L 236.16 307.584 
L 236.16 307.584 
L 236.16 307.584 
L 236.16 307.584 
L 236.16 307.584 
L 236.16 307.584 
L 236.16 307.584 
L 236.16 307.584 
L 236.16 307.584 
L 236.16 307.584 
L 236.16 307.584 
L 236.16 307.584 
z
" style="fill:#ff003c;"/>
   </g>
   <g id="patch_4">
    <path clip-path="url(#p34f5ff5f28)" d="M 236.16 307.584 
L 244.514655 307.321444 
L 252.836339 306.534814 
L 261.092208 305.227212 
L 269.249682 303.403801 
L 277.276565 301.071776 
L 285.14118 298.24034 
L 292.812489 294.920668 
L 300.260217 291.125862 
L 307.45497 286.870896 
L 314.368355 282.172565 
L 320.973086 277.04941 
L 327.2431 271.52165 
L 333.15365 265.6111 
L 338.68141 259.341086 
L 343.804565 252.736355 
L 348.502896 245.82297 
L 352.757862 238.628217 
L 356.552668 231.180489 
L 359.87234 223.50918 
L 362.703776 215.644565 
L 365.035801 207.617682 
L 366.859212 199.460208 
L 368.166814 191.204339 
L 368.953444 182.882655 
L 369.216 174.528 
L 368.953444 166.173345 
L 368.166814 157.851661 
L 366.859212 149.595792 
L 365.035801 141.438318 
L 362.703776 133.411435 
L 359.87234 125.54682 
L 356.552668 117.875511 
L 352.757862 110.427783 
L 348.502896 103.23303 
L 343.804565 96.319645 
L 338.68141 89.714914 
L 333.15365 83.4449 
L 327.2431 77.53435 
L 320.973086 72.00659 
L 314.368355 66.883435 
L 307.45497 62.185104 
L 300.260217 57.930138 
L 292.812489 54.135332 
L 285.14118 50.81566 
L 277.276565 47.984224 
L 269.249682 45.652199 
L 261.092208 43.828788 
L 252.836339 42.521186 
L 244.514655 41.734556 
L 236.16 41.472 
L 227.805345 41.734556 
L 219.483661 42.521186 
L 211.227792 43.828788 
L 203.070318 45.652199 
L 195.043435 47.984224 
L 187.17882 50.81566 
L 179.507511 54.135332 
L 172.059783 57.930138 
L 164.86503 62.185104 
L 157.951645 66.883435 
L 151.346914 72.00659 
L 145.0769 77.53435 
L 139.16635 83.4449 
L 133.63859 89.714914 
L 128.515435 96.319645 
L 123.817104 103.23303 
L 119.562138 110.427783 
L 115.767332 117.875511 
L 112.44766 125.54682 
L 109.616224 133.411435 
L 107.284199 141.438318 
L 105.460788 149.595792 
L 104.153186 157.851661 
L 103.366556 166.173345 
L 103.104 174.528 
L 103.366556 182.882655 
L 104.153186 191.204339 
L 105.460788 199.460208 
L 107.284199 207.617682 
L 109.616224 215.644565 
L 112.44766 223.50918 
L 115.767332 231.180489 
L 119.562138 238.628217 
L 123.817104 245.82297 
L 128.515435 252.736355 
L 133.63859 259.341086 
L 139.16635 265.6111 
L 145.0769 271.52165 
L 151.346914 277.04941 
L 157.951645 282.172565 
L 164.86503 286.870896 
L 172.059783 291.125862 
L 179.507511 294.920668 
L 187.17882 298.24034 
L 195.043435 301.071776 
L 203.070318 303.403801 
L 211.227792 305.227212 
L 219.483661 306.534814 
L 227.805345 307.321444 
L 236.16 307.584 
L 236.16 307.584 
L 236.16 307.584 
L 236.16 307.584 
L 236.16 307.584 
L 236.16 307.584 
L 236.16 307.584 
L 236.16 307.584 
L 236.16 307.584 
L 236.16 307.584 
L 236.16 307.584 
L 236.16 307.584 
L 236.16 307.584 
L 236.16 307.584 
L 236.16 307.584 
L 236.16 307.584 
L 236.16 307.584 
L 236.16 307.584 
L 236.16 307.584 
L 236.16 307.584 
L 236.16 307.584 
L 236.16 307.584 
L 236.16 307.584 
L 236.16 307.584 
L 236.16 307.584 
L 236.16 307.584 
L 236.16 307.584 
L 236.16 307.584 
L 236.16 307.584 
L 236.16 307.584 
L 236.16 307.584 
L 236.16 307.584 
L 236.16 307.584 
L 236.16 307.584 
L 236.16 307.584 
L 236.16 307.584 
L 236.16 307.584 
L 236.16 307.584 
L 236.16 307.584 
L 236.16 307.584 
L 236.16 307.584 
L 236.16 307.584 
L 236.16 307.584 
L 236.16 307.584 
L 236.16 307.584 
L 236.16 307.584 
L 236.16 307.584 
L 236.16 307.584 
L 236.16 307.584 
L 236.16 307.584 
L 236.16 307.584 
L 236.16 307.584 
L 236.16 307.584 
L 236.16 307.584 
L 236.16 307.584 
L 236.16 307.584 
L 236.16 307.584 
L 236.16 307.584 
L 236.16 307.584 
L 236.16 307.584 
L 236.16 307.584 
L 236.16 307.584 
L 236.16 307.584 
L 236.16 307.584 
L 236.16 307.584 
L 236.16 307.584 
L 236.16 307.584 
L 236.16 307.584 
L 236.16 307.584 
L 236.16 307.584 
L 236.16 307.584 
L 236.16 307.584 
L 236.16 307.584 
L 236.16 307.584 
L 236.16 307.584 
L 236.16 307.584 
L 236.16 307.584 
L 236.16 307.584 
L 236.16 307.584 
L 236.16 307.584 
L 236.16 307.584 
L 236.16 307.584 
L 236.16 307.584 
L 236.16 307.584 
L 236.16 307.584 
L 236.16 307.584 
L 236.16 307.584 
L 236.16 307.584 
L 236.16 307.584 
L 236.16 307.584 
L 236.16 307.584 
L 236.16 307.584 
L 236.16 307.584 
L 236.16 307.584 
L 236.16 307.584 
L 236.16 307.584 
L 236.16 307.584 
L 236.16 307.584 
L 236.16 307.584 
L 236.16 307.584 
L 236.16 307.584 
L 227.805345 307.321444 
L 219.483661 306.534814 
L 211.227792 305.227212 
L 203.070318 303.403801 
L 195.043435 301.071776 
L 187.17882 298.24034 
L 179.507511 294.920668 
L 172.059783 291.125862 
L 164.86503 286.870896 
L 157.951645 282.172565 
L 151.346914 277.04941 
L 145.0769 271.52165 
L 139.16635 265.6111 
L 133.63859 259.341086 
L 128.515435 252.736355 
L 123.817104 245.82297 
L 119.562138 238.628217 
L 115.767332 231.180489 
L 112.44766 223.50918 
L 109.616224 215.644565 
L 107.284199 207.617682 
L 105.460788 199.460208 
L 104.153186 191.204339 
L 103.366556 182.882655 
L 103.104 174.528 
L 103.366556 166.173345 
L 104.153186 157.851661 
L 105.460788 149.595792 
L 107.284199 141.438318 
L 109.616224 133.411435 
L 112.44766 125.54682 
L 115.767332 117.875511 
L 119.562138 110.427783 
L 123.817104 103.23303 
L 128.515435 96.319645 
L 133.63859 89.714914 
L 139.16635 83.4449 
L 145.0769 77.53435 
L 151.346914 72.00659 
L 157.951645 66.883435 
L 164.86503 62.185104 
L 172.059783 57.930138 
L 179.507511 54.135332 
L 187.17882 50.81566 
L 195.043435 47.984224 
L 203.070318 45.652199 
L 211.227792 43.828788 
L 219.483661 42.521186 
L 227.805345 41.734556 
L 236.16 41.472 
L 244.514655 41.734556 
L 252.836339 42.521186 
L 261.092208 43.828788 
L 269.249682 45.652199 
L 277.276565 47.984224 
L 285.14118 50.81566 
L 292.812489 54.135332 
L 300.260217 57.930138 
L 307.45497 62.185104 
L 314.368355 66.883435 
L 320.973086 72.00659 
L 327.2431 77.53435 
L 333.15365 83.4449 
L 338.68141 89.714914 
L 343.804565 96.319645 
L 348.502896 103.23303 
L 352.757862 110.427783 
L 356.552668 117.875511 
L 359.87234 125.54682 
L 362.703776 133.411435 
L 365.035801 141.438318 
L 366.859212 149.595792 
L 368.166814 157.851661 
L 368.953444 166.173345 
L 369.216 174.528 
L 368.953444 182.882655 
L 368.166814 191.204339 
L 366.859212 199.460208 
L 365.035801 207.617682 
L 362.703776 215.644565 
L 359.87234 223.50918 
L 356.552668 231.180489 
L 352.757862 238.628217 
L 348.502896 245.82297 
L 343.804565 252.736355 
L 338.68141 259.341086 
L 333.15365 265.6111 
L 327.2431 271.52165 
L 320.973086 277.04941 
L 314.368355 282.172565 
L 307.45497 286.870896 
L 300.260217 291.125862 
L 292.812489 294.920668 
L 285.14118 298.24034 
L 277.276565 301.071776 
L 269.249682 303.403801 
L 261.092208 305.227212 
L 252.836339 306.534814 
L 244.514655 307.321444 
L 236.16 307.584 
L 236.16 307.584 
L 236.16 307.584 
L 236.16 307.584 
L 236.16 307.584 
L 236.16 307.584 
L 236.16 307.584 
L 236.16 307.584 
L 236.16 307.584 
L 236.16 307.584 
L 236.16 307.584 
L 236.16 307.584 
L 236.16 307.584 
L 236.16 307.584 
L 236.16 307.584 
L 236.16 307.584 
L 236.16 307.584 
L 236.16 307.584 
L 236.16 307.584 
L 236.16 307.584 
L 236.16 307.584 
L 236.16 307.584 
L 236.16 307.584 
L 236.16 307.584 
L 236.16 307.584 
L 236.16 307.584 
L 236.16 307.584 
L 236.16 307.584 
L 236.16 307.584 
L 236.16 307.584 
L 236.16 307.584 
L 236.16 307.584 
L 236.16 307.584 
L 236.16 307.584 
L 236.16 307.584 
L 236.16 307.584 
L 236.16 307.584 
L 236.16 307.584 
L 236.16 307.584 
L 236.16 307.584 
L 236.16 307.584 
L 236.16 307.584 
L 236.16 307.584 
L 236.16 307.584 
L 236.16 307.584 
L 236.16 307.584 
L 236.16 307.584 
L 236.16 307.584 
L 236.16 307.584 
L 236.16 307.584 
L 236.16 307.584 
L 236.16 307.584 
L 236.16 307.584 
L 236.16 307.584 
L 236.16 307.584 
L 236.16 307.584 
L 236.16 307.584 
L 236.16 307.584 
L 236.16 307.584 
L 236.16 307.584 
L 236.16 307.584 
L 236.16 307.584 
L 236.16 307.584 
L 236.16 307.584 
L 236.16 307.584 
L 236.16 307.584 
L 236.16 307.584 
L 236.16 307.584 
L 236.16 307.584 
L 236.16 307.584 
L 236.16 307.584 
L 236.16 307.584 
L 236.16 307.584 
L 236.16 307.584 
L 236.16 307.584 
L 236.16 307.584 
L 236.16 307.584 
L 236.16 307.584 
L 236.16 307.584 
L 236.16 307.584 
L 236.16 307.584 
L 236.16 307.584 
L 236.16 307.584 
L 236.16 307.584 
L 236.16 307.584 
L 236.16 307.584 
L 236.16 307.584 
L 236.16 307.584 
L 236.16 307.584 
L 236.16 307.584 
L 236.16 307.584 
L 236.16 307.584 
L 236.16 307.584 
L 236.16 307.584 
L 236.16 307.584 
L 236.16 307.584 
L 236.16 307.584 
L 236.16 307.584 
L 236.16 307.584 
L 236.16 307.584 
z
" style="fill:#88c100;"/>
   </g>
  </g>
 </g>
 <defs>
  <clipPath id="p34f5ff5f28">
   <path d="M 369.216 174.528 
C 369.216 157.055246 365.774248 139.752393 359.087715 123.609673 
C 352.401182 107.466954 342.599903 92.798303 330.2448 80.4432 
C 317.889697 68.088097 303.221046 58.286818 287.078327 51.600285 
C 270.935607 44.913752 253.632754 41.472 236.16 41.472 
C 218.687246 41.472 201.384393 44.913752 185.241673 51.600285 
C 169.098954 58.286818 154.430303 68.088097 142.0752 80.4432 
C 129.720097 92.798303 119.918818 107.466954 113.232285 123.609673 
C 106.545752 139.752393 103.104 157.055246 103.104 174.528 
C 103.104 192.000754 106.545752 209.303607 113.232285 225.446327 
C 119.918818 241.589046 129.720097 256.257697 142.0752 268.6128 
C 154.430303 280.967903 169.098954 290.769182 185.241673 297.455715 
C 201.384393 304.142248 218.687246 307.584 236.16 307.584 
C 253.632754 307.584 270.935607 304.142248 287.078327 297.455715 
C 303.221046 290.769182 317.889697 280.967903 330.2448 268.6128 
C 342.599903 256.257697 352.401182 241.589046 359.087715 225.446327 
C 365.774248 209.303607 369.216 192.000754 369.216 174.528 
M 236.16 174.528 
C 236.16 174.528 236.16 174.528 236.16 174.528 
C 236.16 174.528 236.16 174.528 236.16 174.528 
C 236.16 174.528 236.16 174.528 236.16 174.528 
C 236.16 174.528 236.16 174.528 236.16 174.528 
C 236.16 174.528 236.16 174.528 236.16 174.528 
C 236.16 174.528 236.16 174.528 236.16 174.528 
C 236.16 174.528 236.16 174.528 236.16 174.528 
C 236.16 174.528 236.16 174.528 236.16 174.528 
C 236.16 174.528 236.16 174.528 236.16 174.528 
C 236.16 174.528 236.16 174.528 236.16 174.528 
C 236.16 174.528 236.16 174.528 236.16 174.528 
C 236.16 174.528 236.16 174.528 236.16 174.528 
C 236.16 174.528 236.16 174.528 236.16 174.528 
C 236.16 174.528 236.16 174.528 236.16 174.528 
C 236.16 174.528 236.16 174.528 236.16 174.528 
C 236.16 174.528 236.16 174.528 236.16 174.528 
M 369.216 174.528 
z
"/>
  </clipPath>
 </defs>
</svg>
