<?xml version="1.0" encoding="utf-8" standalone="no"?>
<!DOCTYPE svg PUBLIC "-//W3C//DTD SVG 1.1//EN"
  "http://www.w3.org/Graphics/SVG/1.1/DTD/svg11.dtd">
<!-- Created with matplotlib (https://matplotlib.org/) -->
<svg height="345.6pt" version="1.1" viewBox="0 0 460.8 345.6" width="460.8pt" xmlns="http://www.w3.org/2000/svg" xmlns:xlink="http://www.w3.org/1999/xlink">
 <defs>
  <style type="text/css">
*{stroke-linecap:butt;stroke-linejoin:round;}
  </style>
 </defs>
 <g id="figure_1">
  <g id="patch_1">
   <path d="M 0 345.6 
L 460.8 345.6 
L 460.8 0 
L 0 0 
z
" style="fill:none;"/>
  </g>
  <g id="axes_1">
   <g id="patch_2">
    <path clip-path="url(#p3c1d7ec110)" d="M 236.16 174.528 
L 236.16 174.528 
L 236.16 174.528 
L 236.16 174.528 
L 236.16 174.528 
L 236.16 174.528 
L 236.16 174.528 
L 236.16 174.528 
L 236.16 174.528 
L 236.16 174.528 
L 236.16 174.528 
L 236.16 174.528 
L 236.16 174.528 
L 236.16 174.528 
L 236.16 174.528 
L 236.16 174.528 
L 236.16 174.528 
L 236.16 174.528 
L 236.16 174.528 
L 236.16 174.528 
L 236.16 174.528 
L 236.16 174.528 
L 236.16 174.528 
L 236.16 174.528 
L 236.16 174.528 
L 236.16 174.528 
L 236.16 174.528 
L 236.16 174.528 
L 236.16 174.528 
L 236.16 174.528 
L 236.16 174.528 
L 236.16 174.528 
L 236.16 174.528 
L 236.16 174.528 
L 236.16 174.528 
L 236.16 174.528 
L 236.16 174.528 
L 236.16 174.528 
L 236.16 174.528 
L 236.16 174.528 
L 236.16 174.528 
L 236.16 174.528 
L 236.16 174.528 
L 236.16 174.528 
L 236.16 174.528 
L 236.16 174.528 
L 236.16 174.528 
L 236.16 174.528 
L 236.16 174.528 
L 236.16 174.528 
L 236.16 174.528 
L 236.16 174.528 
L 236.16 174.528 
L 236.16 174.528 
L 236.16 174.528 
L 236.16 174.528 
L 236.16 174.528 
L 236.16 174.528 
L 236.16 174.528 
L 236.16 174.528 
L 236.16 174.528 
L 236.16 174.528 
L 236.16 174.528 
L 236.16 174.528 
L 236.16 174.528 
L 236.16 174.528 
L 236.16 174.528 
L 236.16 174.528 
L 236.16 174.528 
L 236.16 174.528 
L 236.16 174.528 
L 236.16 174.528 
L 236.16 174.528 
L 236.16 174.528 
L 236.16 174.528 
L 236.16 174.528 
L 236.16 174.528 
L 236.16 174.528 
L 236.16 174.528 
L 236.16 174.528 
L 236.16 174.528 
L 236.16 174.528 
L 236.16 174.528 
L 236.16 174.528 
L 236.16 174.528 
L 236.16 174.528 
L 236.16 174.528 
L 236.16 174.528 
L 236.16 174.528 
L 236.16 174.528 
L 236.16 174.528 
L 236.16 174.528 
L 236.16 174.528 
L 236.16 174.528 
L 236.16 174.528 
L 236.16 174.528 
L 236.16 174.528 
L 236.16 174.528 
L 236.16 174.528 
L 236.16 174.528 
L 236.16 174.528 
L 236.16 175.744431 
L 236.16 176.960862 
L 236.16 178.177293 
L 236.16 179.393724 
L 236.16 180.610155 
L 236.16 181.826586 
L 236.16 183.043017 
L 236.16 184.259448 
L 236.16 185.475879 
L 236.16 186.69231 
L 236.16 187.908741 
L 236.16 189.125172 
L 236.16 190.341604 
L 236.16 191.558035 
L 236.16 192.774466 
L 236.16 193.990897 
L 236.16 195.207328 
L 236.16 196.423759 
L 236.16 197.64019 
L 236.16 198.856621 
L 236.16 200.073052 
L 236.16 201.289483 
L 236.16 202.505914 
L 236.16 203.722345 
L 236.16 204.938776 
L 236.16 206.155207 
L 236.16 207.371638 
L 236.16 208.588069 
L 236.16 209.8045 
L 236.16 211.020931 
L 236.16 212.237362 
L 236.16 213.453793 
L 236.16 214.670224 
L 236.16 215.886655 
L 236.16 217.103086 
L 236.16 218.319517 
L 236.16 219.535948 
L 236.16 220.75238 
L 236.16 221.968811 
L 236.16 223.185242 
L 236.16 224.401673 
L 236.16 225.618104 
L 236.16 226.834535 
L 236.16 228.050966 
L 236.16 229.267397 
L 236.16 230.483828 
L 236.16 231.700259 
L 236.16 232.91669 
L 236.16 234.133121 
L 236.16 235.349552 
L 236.16 236.565983 
L 236.16 237.782414 
L 236.16 238.998845 
L 236.16 240.215276 
L 236.16 241.431707 
L 236.16 242.648138 
L 236.16 243.864569 
L 236.16 245.081 
L 236.16 246.297431 
L 236.16 247.513862 
L 236.16 248.730293 
L 236.16 249.946724 
L 236.16 251.163155 
L 236.16 252.379587 
L 236.16 253.596018 
L 236.16 254.812449 
L 236.16 256.02888 
L 236.16 257.245311 
L 236.16 258.461742 
L 236.16 259.678173 
L 236.16 260.894604 
L 236.16 262.111035 
L 236.16 263.327466 
L 236.16 264.543897 
L 236.16 265.760328 
L 236.16 266.976759 
L 236.16 268.19319 
L 236.16 269.409621 
L 236.16 270.626052 
L 236.16 271.842483 
L 236.16 273.058914 
L 236.16 274.275345 
L 236.16 275.491776 
L 236.16 276.708207 
L 236.16 277.924638 
L 236.16 279.141069 
L 236.16 280.3575 
L 236.16 281.573931 
L 236.16 282.790363 
L 236.16 284.006794 
L 236.16 285.223225 
L 236.16 286.439656 
L 236.16 287.656087 
L 236.16 288.872518 
L 236.16 290.088949 
L 236.16 291.30538 
L 236.16 292.521811 
L 236.16 293.738242 
L 236.16 294.954673 
L 236.16 296.171104 
L 228.521966 295.931069 
L 220.914076 295.211912 
L 213.366355 294.01647 
L 205.90859 292.349462 
L 198.570214 290.217467 
L 191.380187 287.628898 
L 184.366885 284.593971 
L 177.557988 281.124665 
L 170.980365 277.23467 
L 164.659977 272.939338 
L 158.621767 268.255622 
L 152.889565 263.202007 
L 147.485993 257.798435 
L 142.432378 252.066233 
L 137.748662 246.028023 
L 133.45333 239.707635 
L 129.563335 233.130012 
L 126.094029 226.321115 
L 123.059102 219.307813 
L 120.470533 212.117786 
L 118.338538 204.77941 
L 116.67153 197.321645 
L 115.476088 189.773924 
L 114.756931 182.166034 
L 114.516896 174.528 
L 114.756931 166.889966 
L 115.476088 159.282076 
L 116.67153 151.734355 
L 118.338538 144.27659 
L 120.470533 136.938214 
L 123.059102 129.748187 
L 126.094029 122.734885 
L 129.563335 115.925988 
L 133.45333 109.348365 
L 137.748662 103.027977 
L 142.432378 96.989767 
L 147.485993 91.257565 
L 152.889565 85.853993 
L 158.621767 80.800378 
L 164.659977 76.116662 
L 170.980365 71.82133 
L 177.557988 67.931335 
L 184.366885 64.462029 
L 191.380187 61.427102 
L 198.570214 58.838533 
L 205.90859 56.706538 
L 213.366355 55.03953 
L 220.914076 53.844088 
L 228.521966 53.124931 
L 236.16 52.884896 
L 243.798034 53.124931 
L 251.405924 53.844088 
L 258.953645 55.03953 
L 266.41141 56.706538 
L 273.749786 58.838533 
L 280.939813 61.427102 
L 287.953115 64.462029 
L 294.762012 67.931335 
L 301.339635 71.82133 
L 307.660023 76.116662 
L 313.698233 80.800378 
L 319.430435 85.853993 
L 324.834007 91.257565 
L 329.887622 96.989767 
L 334.571338 103.027977 
L 338.86667 109.348365 
L 342.756665 115.925988 
L 346.225971 122.734885 
L 349.260898 129.748187 
L 351.849467 136.938214 
L 353.981462 144.27659 
L 355.64847 151.734355 
L 356.843912 159.282076 
L 357.563069 166.889966 
L 357.803104 174.528 
L 357.563069 182.166034 
L 356.843912 189.773924 
L 355.64847 197.321645 
L 353.981462 204.77941 
L 351.849467 212.117786 
L 349.260898 219.307813 
L 346.225971 226.321115 
L 342.756665 233.130012 
L 338.86667 239.707635 
L 334.571338 246.028023 
L 329.887622 252.066233 
L 324.834007 257.798435 
L 319.430435 263.202007 
L 313.698233 268.255622 
L 307.660023 272.939338 
L 301.339635 277.23467 
L 294.762012 281.124665 
L 287.953115 284.593971 
L 280.939813 287.628898 
L 273.749786 290.217467 
L 266.41141 292.349462 
L 258.953645 294.01647 
L 251.405924 295.211912 
L 243.798034 295.931069 
L 236.16 296.171104 
L 236.16 294.954673 
L 236.16 293.738242 
L 236.16 292.521811 
L 236.16 291.30538 
L 236.16 290.088949 
L 236.16 288.872518 
L 236.16 287.656087 
L 236.16 286.439656 
L 236.16 285.223225 
L 236.16 284.006794 
L 236.16 282.790363 
L 236.16 281.573931 
L 236.16 280.3575 
L 236.16 279.141069 
L 236.16 277.924638 
L 236.16 276.708207 
L 236.16 275.491776 
L 236.16 274.275345 
L 236.16 273.058914 
L 236.16 271.842483 
L 236.16 270.626052 
L 236.16 269.409621 
L 236.16 268.19319 
L 236.16 266.976759 
L 236.16 265.760328 
L 236.16 264.543897 
L 236.16 263.327466 
L 236.16 262.111035 
L 236.16 260.894604 
L 236.16 259.678173 
L 236.16 258.461742 
L 236.16 257.245311 
L 236.16 256.02888 
L 236.16 254.812449 
L 236.16 253.596018 
L 236.16 252.379587 
L 236.16 251.163155 
L 236.16 249.946724 
L 236.16 248.730293 
L 236.16 247.513862 
L 236.16 246.297431 
L 236.16 245.081 
L 236.16 243.864569 
L 236.16 242.648138 
L 236.16 241.431707 
L 236.16 240.215276 
L 236.16 238.998845 
L 236.16 237.782414 
L 236.16 236.565983 
L 236.16 235.349552 
L 236.16 234.133121 
L 236.16 232.91669 
L 236.16 231.700259 
L 236.16 230.483828 
L 236.16 229.267397 
L 236.16 228.050966 
L 236.16 226.834535 
L 236.16 225.618104 
L 236.16 224.401673 
L 236.16 223.185242 
L 236.16 221.968811 
L 236.16 220.75238 
L 236.16 219.535948 
L 236.16 218.319517 
L 236.16 217.103086 
L 236.16 215.886655 
L 236.16 214.670224 
L 236.16 213.453793 
L 236.16 212.237362 
L 236.16 211.020931 
L 236.16 209.8045 
L 236.16 208.588069 
L 236.16 207.371638 
L 236.16 206.155207 
L 236.16 204.938776 
L 236.16 203.722345 
L 236.16 202.505914 
L 236.16 201.289483 
L 236.16 200.073052 
L 236.16 198.856621 
L 236.16 197.64019 
L 236.16 196.423759 
L 236.16 195.207328 
L 236.16 193.990897 
L 236.16 192.774466 
L 236.16 191.558035 
L 236.16 190.341604 
L 236.16 189.125172 
L 236.16 187.908741 
L 236.16 186.69231 
L 236.16 185.475879 
L 236.16 184.259448 
L 236.16 183.043017 
L 236.16 181.826586 
L 236.16 180.610155 
L 236.16 179.393724 
L 236.16 178.177293 
L 236.16 176.960862 
L 236.16 175.744431 
z
" style="fill:#fabe28;"/>
   </g>
   <g id="patch_3">
    <path clip-path="url(#p3c1d7ec110)" d="M 236.16 296.171104 
L 243.798034 295.931069 
L 251.405924 295.211912 
L 258.953645 294.01647 
L 266.41141 292.349462 
L 273.749786 290.217467 
L 280.939813 287.628898 
L 287.953115 284.593971 
L 294.762012 281.124665 
L 301.339635 277.23467 
L 307.660023 272.939338 
L 313.698233 268.255622 
L 319.430435 263.202007 
L 324.834007 257.798435 
L 329.887622 252.066233 
L 334.571338 246.028023 
L 338.86667 239.707635 
L 342.756665 233.130012 
L 346.225971 226.321115 
L 349.260898 219.307813 
L 351.849467 212.117786 
L 353.981462 204.77941 
L 355.64847 197.321645 
L 356.843912 189.773924 
L 357.563069 182.166034 
L 357.803104 174.528 
L 357.563069 166.889966 
L 356.843912 159.282076 
L 355.64847 151.734355 
L 353.981462 144.27659 
L 351.849467 136.938214 
L 349.260898 129.748187 
L 346.225971 122.734885 
L 342.756665 115.925988 
L 338.86667 109.348365 
L 334.571338 103.027977 
L 329.887622 96.989767 
L 324.834007 91.257565 
L 319.430435 85.853993 
L 313.698233 80.800378 
L 307.660023 76.116662 
L 301.339635 71.82133 
L 294.762012 67.931335 
L 287.953115 64.462029 
L 280.939813 61.427102 
L 273.749786 58.838533 
L 266.41141 56.706538 
L 258.953645 55.03953 
L 251.405924 53.844088 
L 243.798034 53.124931 
L 236.16 52.884896 
L 228.521966 53.124931 
L 220.914076 53.844088 
L 213.366355 55.03953 
L 205.90859 56.706538 
L 198.570214 58.838533 
L 191.380187 61.427102 
L 184.366885 64.462029 
L 177.557988 67.931335 
L 170.980365 71.82133 
L 164.659977 76.116662 
L 158.621767 80.800378 
L 152.889565 85.853993 
L 147.485993 91.257565 
L 142.432378 96.989767 
L 137.748662 103.027977 
L 133.45333 109.348365 
L 129.563335 115.925988 
L 126.094029 122.734885 
L 123.059102 129.748187 
L 120.470533 136.938214 
L 118.338538 144.27659 
L 116.67153 151.734355 
L 115.476088 159.282076 
L 114.756931 166.889966 
L 114.516896 174.528 
L 114.756931 182.166034 
L 115.476088 189.773924 
L 116.67153 197.321645 
L 118.338538 204.77941 
L 120.470533 212.117786 
L 123.059102 219.307813 
L 126.094029 226.321115 
L 129.563335 233.130012 
L 133.45333 239.707635 
L 137.748662 246.028023 
L 142.432378 252.066233 
L 147.485993 257.798435 
L 152.889565 263.202007 
L 158.621767 268.255622 
L 164.659977 272.939338 
L 170.980365 277.23467 
L 177.557988 281.124665 
L 184.366885 284.593971 
L 191.380187 287.628898 
L 198.570214 290.217467 
L 205.90859 292.349462 
L 213.366355 294.01647 
L 220.914076 295.211912 
L 228.521966 295.931069 
L 236.16 296.171104 
L 236.16 296.180212 
L 236.16 296.18932 
L 236.16 296.198428 
L 236.16 296.207536 
L 236.16 296.216644 
L 236.16 296.225752 
L 236.16 296.23486 
L 236.16 296.243968 
L 236.16 296.253076 
L 236.16 296.262184 
L 236.16 296.271293 
L 236.16 296.280401 
L 236.16 296.289509 
L 236.16 296.298617 
L 236.16 296.307725 
L 236.16 296.316833 
L 236.16 296.325941 
L 236.16 296.335049 
L 236.16 296.344157 
L 236.16 296.353265 
L 236.16 296.362373 
L 236.16 296.371481 
L 236.16 296.380589 
L 236.16 296.389697 
L 236.16 296.398805 
L 236.16 296.407913 
L 236.16 296.417021 
L 236.16 296.426129 
L 236.16 296.435237 
L 236.16 296.444346 
L 236.16 296.453454 
L 236.16 296.462562 
L 236.16 296.47167 
L 236.16 296.480778 
L 236.16 296.489886 
L 236.16 296.498994 
L 236.16 296.508102 
L 236.16 296.51721 
L 236.16 296.526318 
L 236.16 296.535426 
L 236.16 296.544534 
L 236.16 296.553642 
L 236.16 296.56275 
L 236.16 296.571858 
L 236.16 296.580966 
L 236.16 296.590074 
L 236.16 296.599182 
L 236.16 296.60829 
L 236.16 296.617399 
L 236.16 296.626507 
L 236.16 296.635615 
L 236.16 296.644723 
L 236.16 296.653831 
L 236.16 296.662939 
L 236.16 296.672047 
L 236.16 296.681155 
L 236.16 296.690263 
L 236.16 296.699371 
L 236.16 296.708479 
L 236.16 296.717587 
L 236.16 296.726695 
L 236.16 296.735803 
L 236.16 296.744911 
L 236.16 296.754019 
L 236.16 296.763127 
L 236.16 296.772235 
L 236.16 296.781343 
L 236.16 296.790452 
L 236.16 296.79956 
L 236.16 296.808668 
L 236.16 296.817776 
L 236.16 296.826884 
L 236.16 296.835992 
L 236.16 296.8451 
L 236.16 296.854208 
L 236.16 296.863316 
L 236.16 296.872424 
L 236.16 296.881532 
L 236.16 296.89064 
L 236.16 296.899748 
L 236.16 296.908856 
L 236.16 296.917964 
L 236.16 296.927072 
L 236.16 296.93618 
L 236.16 296.945288 
L 236.16 296.954396 
L 236.16 296.963505 
L 236.16 296.972613 
L 236.16 296.981721 
L 236.16 296.990829 
L 236.16 296.999937 
L 236.16 297.009045 
L 236.16 297.018153 
L 236.16 297.027261 
L 236.16 297.036369 
L 236.16 297.045477 
L 236.16 297.054585 
L 236.16 297.063693 
L 236.16 297.072801 
L 236.16 297.081909 
L 228.464776 296.840077 
L 220.799922 296.115535 
L 213.195687 294.911143 
L 205.682082 293.231653 
L 198.288759 291.083694 
L 191.044897 288.475743 
L 183.979083 285.418092 
L 177.119204 281.922809 
L 170.492332 278.003688 
L 164.12462 273.676195 
L 158.041198 268.95741 
L 152.266076 263.865955 
L 146.822045 258.421924 
L 141.73059 252.646802 
L 137.011805 246.56338 
L 132.684312 240.195668 
L 128.765191 233.568796 
L 125.269908 226.708917 
L 122.212257 219.643103 
L 119.604306 212.399241 
L 117.456347 205.005918 
L 115.776857 197.492313 
L 114.572465 189.888078 
L 113.847923 182.223224 
L 113.606091 174.528 
L 113.847923 166.832776 
L 114.572465 159.167922 
L 115.776857 151.563687 
L 117.456347 144.050082 
L 119.604306 136.656759 
L 122.212257 129.412897 
L 125.269908 122.347083 
L 128.765191 115.487204 
L 132.684312 108.860332 
L 137.011805 102.49262 
L 141.73059 96.409198 
L 146.822045 90.634076 
L 152.266076 85.190045 
L 158.041198 80.09859 
L 164.12462 75.379805 
L 170.492332 71.052312 
L 177.119204 67.133191 
L 183.979083 63.637908 
L 191.044897 60.580257 
L 198.288759 57.972306 
L 205.682082 55.824347 
L 213.195687 54.144857 
L 220.799922 52.940465 
L 228.464776 52.215923 
L 236.16 51.974091 
L 243.855224 52.215923 
L 251.520078 52.940465 
L 259.124313 54.144857 
L 266.637918 55.824347 
L 274.031241 57.972306 
L 281.275103 60.580257 
L 288.340917 63.637908 
L 295.200796 67.133191 
L 301.827668 71.052312 
L 308.19538 75.379805 
L 314.278802 80.09859 
L 320.053924 85.190045 
L 325.497955 90.634076 
L 330.58941 96.409198 
L 335.308195 102.49262 
L 339.635688 108.860332 
L 343.554809 115.487204 
L 347.050092 122.347083 
L 350.107743 129.412897 
L 352.715694 136.656759 
L 354.863653 144.050082 
L 356.543143 151.563687 
L 357.747535 159.167922 
L 358.472077 166.832776 
L 358.713909 174.528 
L 358.472077 182.223224 
L 357.747535 189.888078 
L 356.543143 197.492313 
L 354.863653 205.005918 
L 352.715694 212.399241 
L 350.107743 219.643103 
L 347.050092 226.708917 
L 343.554809 233.568796 
L 339.635688 240.195668 
L 335.308195 246.56338 
L 330.58941 252.646802 
L 325.497955 258.421924 
L 320.053924 263.865955 
L 314.278802 268.95741 
L 308.19538 273.676195 
L 301.827668 278.003688 
L 295.200796 281.922809 
L 288.340917 285.418092 
L 281.275103 288.475743 
L 274.031241 291.083694 
L 266.637918 293.231653 
L 259.124313 294.911143 
L 251.520078 296.115535 
L 243.855224 296.840077 
L 236.16 297.081909 
L 236.16 297.072801 
L 236.16 297.063693 
L 236.16 297.054585 
L 236.16 297.045477 
L 236.16 297.036369 
L 236.16 297.027261 
L 236.16 297.018153 
L 236.16 297.009045 
L 236.16 296.999937 
L 236.16 296.990829 
L 236.16 296.981721 
L 236.16 296.972613 
L 236.16 296.963505 
L 236.16 296.954396 
L 236.16 296.945288 
L 236.16 296.93618 
L 236.16 296.927072 
L 236.16 296.917964 
L 236.16 296.908856 
L 236.16 296.899748 
L 236.16 296.89064 
L 236.16 296.881532 
L 236.16 296.872424 
L 236.16 296.863316 
L 236.16 296.854208 
L 236.16 296.8451 
L 236.16 296.835992 
L 236.16 296.826884 
L 236.16 296.817776 
L 236.16 296.808668 
L 236.16 296.79956 
L 236.16 296.790452 
L 236.16 296.781343 
L 236.16 296.772235 
L 236.16 296.763127 
L 236.16 296.754019 
L 236.16 296.744911 
L 236.16 296.735803 
L 236.16 296.726695 
L 236.16 296.717587 
L 236.16 296.708479 
L 236.16 296.699371 
L 236.16 296.690263 
L 236.16 296.681155 
L 236.16 296.672047 
L 236.16 296.662939 
L 236.16 296.653831 
L 236.16 296.644723 
L 236.16 296.635615 
L 236.16 296.626507 
L 236.16 296.617399 
L 236.16 296.60829 
L 236.16 296.599182 
L 236.16 296.590074 
L 236.16 296.580966 
L 236.16 296.571858 
L 236.16 296.56275 
L 236.16 296.553642 
L 236.16 296.544534 
L 236.16 296.535426 
L 236.16 296.526318 
L 236.16 296.51721 
L 236.16 296.508102 
L 236.16 296.498994 
L 236.16 296.489886 
L 236.16 296.480778 
L 236.16 296.47167 
L 236.16 296.462562 
L 236.16 296.453454 
L 236.16 296.444346 
L 236.16 296.435237 
L 236.16 296.426129 
L 236.16 296.417021 
L 236.16 296.407913 
L 236.16 296.398805 
L 236.16 296.389697 
L 236.16 296.380589 
L 236.16 296.371481 
L 236.16 296.362373 
L 236.16 296.353265 
L 236.16 296.344157 
L 236.16 296.335049 
L 236.16 296.325941 
L 236.16 296.316833 
L 236.16 296.307725 
L 236.16 296.298617 
L 236.16 296.289509 
L 236.16 296.280401 
L 236.16 296.271293 
L 236.16 296.262184 
L 236.16 296.253076 
L 236.16 296.243968 
L 236.16 296.23486 
L 236.16 296.225752 
L 236.16 296.216644 
L 236.16 296.207536 
L 236.16 296.198428 
L 236.16 296.18932 
L 236.16 296.180212 
z
" style="fill:#ff003c;"/>
   </g>
   <g id="patch_4">
    <path clip-path="url(#p3c1d7ec110)" d="M 236.16 297.081909 
L 243.855224 296.840077 
L 251.520078 296.115535 
L 259.124313 294.911143 
L 266.637918 293.231653 
L 274.031241 291.083694 
L 281.275103 288.475743 
L 288.340917 285.418092 
L 295.200796 281.922809 
L 301.827668 278.003688 
L 308.19538 273.676195 
L 314.278802 268.95741 
L 320.053924 263.865955 
L 325.497955 258.421924 
L 330.58941 252.646802 
L 335.308195 246.56338 
L 339.635688 240.195668 
L 343.554809 233.568796 
L 347.050092 226.708917 
L 350.107743 219.643103 
L 352.715694 212.399241 
L 354.863653 205.005918 
L 356.543143 197.492313 
L 357.747535 189.888078 
L 358.472077 182.223224 
L 358.713909 174.528 
L 358.472077 166.832776 
L 357.747535 159.167922 
L 356.543143 151.563687 
L 354.863653 144.050082 
L 352.715694 136.656759 
L 350.107743 129.412897 
L 347.050092 122.347083 
L 343.554809 115.487204 
L 339.635688 108.860332 
L 335.308195 102.49262 
L 330.58941 96.409198 
L 325.497955 90.634076 
L 320.053924 85.190045 
L 314.278802 80.09859 
L 308.19538 75.379805 
L 301.827668 71.052312 
L 295.200796 67.133191 
L 288.340917 63.637908 
L 281.275103 60.580257 
L 274.031241 57.972306 
L 266.637918 55.824347 
L 259.124313 54.144857 
L 251.520078 52.940465 
L 243.855224 52.215923 
L 236.16 51.974091 
L 228.464776 52.215923 
L 220.799922 52.940465 
L 213.195687 54.144857 
L 205.682082 55.824347 
L 198.288759 57.972306 
L 191.044897 60.580257 
L 183.979083 63.637908 
L 177.119204 67.133191 
L 170.492332 71.052312 
L 164.12462 75.379805 
L 158.041198 80.09859 
L 152.266076 85.190045 
L 146.822045 90.634076 
L 141.73059 96.409198 
L 137.011805 102.49262 
L 132.684312 108.860332 
L 128.765191 115.487204 
L 125.269908 122.347083 
L 122.212257 129.412897 
L 119.604306 136.656759 
L 117.456347 144.050082 
L 115.776857 151.563687 
L 114.572465 159.167922 
L 113.847923 166.832776 
L 113.606091 174.528 
L 113.847923 182.223224 
L 114.572465 189.888078 
L 115.776857 197.492313 
L 117.456347 205.005918 
L 119.604306 212.399241 
L 122.212257 219.643103 
L 125.269908 226.708917 
L 128.765191 233.568796 
L 132.684312 240.195668 
L 137.011805 246.56338 
L 141.73059 252.646802 
L 146.822045 258.421924 
L 152.266076 263.865955 
L 158.041198 268.95741 
L 164.12462 273.676195 
L 170.492332 278.003688 
L 177.119204 281.922809 
L 183.979083 285.418092 
L 191.044897 288.475743 
L 198.288759 291.083694 
L 205.682082 293.231653 
L 213.195687 294.911143 
L 220.799922 296.115535 
L 228.464776 296.840077 
L 236.16 297.081909 
L 236.16 297.12357 
L 236.16 297.165231 
L 236.16 297.206892 
L 236.16 297.248553 
L 236.16 297.290214 
L 236.16 297.331875 
L 236.16 297.373536 
L 236.16 297.415196 
L 236.16 297.456857 
L 236.16 297.498518 
L 236.16 297.540179 
L 236.16 297.58184 
L 236.16 297.623501 
L 236.16 297.665162 
L 236.16 297.706823 
L 236.16 297.748484 
L 236.16 297.790145 
L 236.16 297.831806 
L 236.16 297.873466 
L 236.16 297.915127 
L 236.16 297.956788 
L 236.16 297.998449 
L 236.16 298.04011 
L 236.16 298.081771 
L 236.16 298.123432 
L 236.16 298.165093 
L 236.16 298.206754 
L 236.16 298.248415 
L 236.16 298.290076 
L 236.16 298.331736 
L 236.16 298.373397 
L 236.16 298.415058 
L 236.16 298.456719 
L 236.16 298.49838 
L 236.16 298.540041 
L 236.16 298.581702 
L 236.16 298.623363 
L 236.16 298.665024 
L 236.16 298.706685 
L 236.16 298.748346 
L 236.16 298.790006 
L 236.16 298.831667 
L 236.16 298.873328 
L 236.16 298.914989 
L 236.16 298.95665 
L 236.16 298.998311 
L 236.16 299.039972 
L 236.16 299.081633 
L 236.16 299.123294 
L 236.16 299.164955 
L 236.16 299.206616 
L 236.16 299.248276 
L 236.16 299.289937 
L 236.16 299.331598 
L 236.16 299.373259 
L 236.16 299.41492 
L 236.16 299.456581 
L 236.16 299.498242 
L 236.16 299.539903 
L 236.16 299.581564 
L 236.16 299.623225 
L 236.16 299.664886 
L 236.16 299.706546 
L 236.16 299.748207 
L 236.16 299.789868 
L 236.16 299.831529 
L 236.16 299.87319 
L 236.16 299.914851 
L 236.16 299.956512 
L 236.16 299.998173 
L 236.16 300.039834 
L 236.16 300.081495 
L 236.16 300.123155 
L 236.16 300.164816 
L 236.16 300.206477 
L 236.16 300.248138 
L 236.16 300.289799 
L 236.16 300.33146 
L 236.16 300.373121 
L 236.16 300.414782 
L 236.16 300.456443 
L 236.16 300.498104 
L 236.16 300.539765 
L 236.16 300.581425 
L 236.16 300.623086 
L 236.16 300.664747 
L 236.16 300.706408 
L 236.16 300.748069 
L 236.16 300.78973 
L 236.16 300.831391 
L 236.16 300.873052 
L 236.16 300.914713 
L 236.16 300.956374 
L 236.16 300.998035 
L 236.16 301.039695 
L 236.16 301.081356 
L 236.16 301.123017 
L 236.16 301.164678 
L 236.16 301.206339 
L 236.16 301.248 
L 228.203185 300.997947 
L 220.277773 300.248775 
L 212.41504 299.00344 
L 204.646017 297.266858 
L 197.001366 295.045882 
L 189.511257 292.349276 
L 182.205248 289.187684 
L 175.112174 285.573582 
L 168.260029 281.521235 
L 161.675853 277.046634 
L 155.385632 272.167438 
L 149.414191 266.902904 
L 143.785096 261.273809 
L 138.520562 255.302368 
L 133.641366 249.012147 
L 129.166765 242.427971 
L 125.114418 235.575826 
L 121.500316 228.482752 
L 118.338724 221.176743 
L 115.642118 213.686634 
L 113.421142 206.041983 
L 111.68456 198.27296 
L 110.439225 190.410227 
L 109.690053 182.484815 
L 109.44 174.528 
L 109.690053 166.571185 
L 110.439225 158.645773 
L 111.68456 150.78304 
L 113.421142 143.014017 
L 115.642118 135.369366 
L 118.338724 127.879257 
L 121.500316 120.573248 
L 125.114418 113.480174 
L 129.166765 106.628029 
L 133.641366 100.043853 
L 138.520562 93.753632 
L 143.785096 87.782191 
L 149.414191 82.153096 
L 155.385632 76.888562 
L 161.675853 72.009366 
L 168.260029 67.534765 
L 175.112174 63.482418 
L 182.205248 59.868316 
L 189.511257 56.706724 
L 197.001366 54.010118 
L 204.646017 51.789142 
L 212.41504 50.05256 
L 220.277773 48.807225 
L 228.203185 48.058053 
L 236.16 47.808 
L 244.116815 48.058053 
L 252.042227 48.807225 
L 259.90496 50.05256 
L 267.673983 51.789142 
L 275.318634 54.010118 
L 282.808743 56.706724 
L 290.114752 59.868316 
L 297.207826 63.482418 
L 304.059971 67.534765 
L 310.644147 72.009366 
L 316.934368 76.888562 
L 322.905809 82.153096 
L 328.534904 87.782191 
L 333.799438 93.753632 
L 338.678634 100.043853 
L 343.153235 106.628029 
L 347.205582 113.480174 
L 350.819684 120.573248 
L 353.981276 127.879257 
L 356.677882 135.369366 
L 358.898858 143.014017 
L 360.63544 150.78304 
L 361.880775 158.645773 
L 362.629947 166.571185 
L 362.88 174.528 
L 362.629947 182.484815 
L 361.880775 190.410227 
L 360.63544 198.27296 
L 358.898858 206.041983 
L 356.677882 213.686634 
L 353.981276 221.176743 
L 350.819684 228.482752 
L 347.205582 235.575826 
L 343.153235 242.427971 
L 338.678634 249.012147 
L 333.799438 255.302368 
L 328.534904 261.273809 
L 322.905809 266.902904 
L 316.934368 272.167438 
L 310.644147 277.046634 
L 304.059971 281.521235 
L 297.207826 285.573582 
L 290.114752 289.187684 
L 282.808743 292.349276 
L 275.318634 295.045882 
L 267.673983 297.266858 
L 259.90496 299.00344 
L 252.042227 300.248775 
L 244.116815 300.997947 
L 236.16 301.248 
L 236.16 301.206339 
L 236.16 301.164678 
L 236.16 301.123017 
L 236.16 301.081356 
L 236.16 301.039695 
L 236.16 300.998035 
L 236.16 300.956374 
L 236.16 300.914713 
L 236.16 300.873052 
L 236.16 300.831391 
L 236.16 300.78973 
L 236.16 300.748069 
L 236.16 300.706408 
L 236.16 300.664747 
L 236.16 300.623086 
L 236.16 300.581425 
L 236.16 300.539765 
L 236.16 300.498104 
L 236.16 300.456443 
L 236.16 300.414782 
L 236.16 300.373121 
L 236.16 300.33146 
L 236.16 300.289799 
L 236.16 300.248138 
L 236.16 300.206477 
L 236.16 300.164816 
L 236.16 300.123155 
L 236.16 300.081495 
L 236.16 300.039834 
L 236.16 299.998173 
L 236.16 299.956512 
L 236.16 299.914851 
L 236.16 299.87319 
L 236.16 299.831529 
L 236.16 299.789868 
L 236.16 299.748207 
L 236.16 299.706546 
L 236.16 299.664886 
L 236.16 299.623225 
L 236.16 299.581564 
L 236.16 299.539903 
L 236.16 299.498242 
L 236.16 299.456581 
L 236.16 299.41492 
L 236.16 299.373259 
L 236.16 299.331598 
L 236.16 299.289937 
L 236.16 299.248276 
L 236.16 299.206616 
L 236.16 299.164955 
L 236.16 299.123294 
L 236.16 299.081633 
L 236.16 299.039972 
L 236.16 298.998311 
L 236.16 298.95665 
L 236.16 298.914989 
L 236.16 298.873328 
L 236.16 298.831667 
L 236.16 298.790006 
L 236.16 298.748346 
L 236.16 298.706685 
L 236.16 298.665024 
L 236.16 298.623363 
L 236.16 298.581702 
L 236.16 298.540041 
L 236.16 298.49838 
L 236.16 298.456719 
L 236.16 298.415058 
L 236.16 298.373397 
L 236.16 298.331736 
L 236.16 298.290076 
L 236.16 298.248415 
L 236.16 298.206754 
L 236.16 298.165093 
L 236.16 298.123432 
L 236.16 298.081771 
L 236.16 298.04011 
L 236.16 297.998449 
L 236.16 297.956788 
L 236.16 297.915127 
L 236.16 297.873466 
L 236.16 297.831806 
L 236.16 297.790145 
L 236.16 297.748484 
L 236.16 297.706823 
L 236.16 297.665162 
L 236.16 297.623501 
L 236.16 297.58184 
L 236.16 297.540179 
L 236.16 297.498518 
L 236.16 297.456857 
L 236.16 297.415196 
L 236.16 297.373536 
L 236.16 297.331875 
L 236.16 297.290214 
L 236.16 297.248553 
L 236.16 297.206892 
L 236.16 297.165231 
L 236.16 297.12357 
z
" style="fill:#88c100;"/>
   </g>
  </g>
 </g>
 <defs>
  <clipPath id="p3c1d7ec110">
   <path d="M 369.216 174.528 
C 369.216 157.055246 365.774248 139.752393 359.087715 123.609673 
C 352.401182 107.466954 342.599903 92.798303 330.2448 80.4432 
C 317.889697 68.088097 303.221046 58.286818 287.078327 51.600285 
C 270.935607 44.913752 253.632754 41.472 236.16 41.472 
C 218.687246 41.472 201.384393 44.913752 185.241673 51.600285 
C 169.098954 58.286818 154.430303 68.088097 142.0752 80.4432 
C 129.720097 92.798303 119.918818 107.466954 113.232285 123.609673 
C 106.545752 139.752393 103.104 157.055246 103.104 174.528 
C 103.104 192.000754 106.545752 209.303607 113.232285 225.446327 
C 119.918818 241.589046 129.720097 256.257697 142.0752 268.6128 
C 154.430303 280.967903 169.098954 290.769182 185.241673 297.455715 
C 201.384393 304.142248 218.687246 307.584 236.16 307.584 
C 253.632754 307.584 270.935607 304.142248 287.078327 297.455715 
C 303.221046 290.769182 317.889697 280.967903 330.2448 268.6128 
C 342.599903 256.257697 352.401182 241.589046 359.087715 225.446327 
C 365.774248 209.303607 369.216 192.000754 369.216 174.528 
M 236.16 174.528 
C 236.16 174.528 236.16 174.528 236.16 174.528 
C 236.16 174.528 236.16 174.528 236.16 174.528 
C 236.16 174.528 236.16 174.528 236.16 174.528 
C 236.16 174.528 236.16 174.528 236.16 174.528 
C 236.16 174.528 236.16 174.528 236.16 174.528 
C 236.16 174.528 236.16 174.528 236.16 174.528 
C 236.16 174.528 236.16 174.528 236.16 174.528 
C 236.16 174.528 236.16 174.528 236.16 174.528 
C 236.16 174.528 236.16 174.528 236.16 174.528 
C 236.16 174.528 236.16 174.528 236.16 174.528 
C 236.16 174.528 236.16 174.528 236.16 174.528 
C 236.16 174.528 236.16 174.528 236.16 174.528 
C 236.16 174.528 236.16 174.528 236.16 174.528 
C 236.16 174.528 236.16 174.528 236.16 174.528 
C 236.16 174.528 236.16 174.528 236.16 174.528 
C 236.16 174.528 236.16 174.528 236.16 174.528 
M 369.216 174.528 
z
"/>
  </clipPath>
 </defs>
</svg>
