<?xml version="1.0" encoding="utf-8" standalone="no"?>
<!DOCTYPE svg PUBLIC "-//W3C//DTD SVG 1.1//EN"
  "http://www.w3.org/Graphics/SVG/1.1/DTD/svg11.dtd">
<!-- Created with matplotlib (https://matplotlib.org/) -->
<svg height="345.6pt" version="1.1" viewBox="0 0 460.8 345.6" width="460.8pt" xmlns="http://www.w3.org/2000/svg" xmlns:xlink="http://www.w3.org/1999/xlink">
 <defs>
  <style type="text/css">
*{stroke-linecap:butt;stroke-linejoin:round;}
  </style>
 </defs>
 <g id="figure_1">
  <g id="patch_1">
   <path d="M 0 345.6 
L 460.8 345.6 
L 460.8 0 
L 0 0 
z
" style="fill:none;"/>
  </g>
  <g id="axes_1">
   <g id="patch_2">
    <path clip-path="url(#pf80f450a76)" d="M 236.16 174.528 
L 236.16 174.528 
L 236.16 174.528 
L 236.16 174.528 
L 236.16 174.528 
L 236.16 174.528 
L 236.16 174.528 
L 236.16 174.528 
L 236.16 174.528 
L 236.16 174.528 
L 236.16 174.528 
L 236.16 174.528 
L 236.16 174.528 
L 236.16 174.528 
L 236.16 174.528 
L 236.16 174.528 
L 236.16 174.528 
L 236.16 174.528 
L 236.16 174.528 
L 236.16 174.528 
L 236.16 174.528 
L 236.16 174.528 
L 236.16 174.528 
L 236.16 174.528 
L 236.16 174.528 
L 236.16 174.528 
L 236.16 174.528 
L 236.16 174.528 
L 236.16 174.528 
L 236.16 174.528 
L 236.16 174.528 
L 236.16 174.528 
L 236.16 174.528 
L 236.16 174.528 
L 236.16 174.528 
L 236.16 174.528 
L 236.16 174.528 
L 236.16 174.528 
L 236.16 174.528 
L 236.16 174.528 
L 236.16 174.528 
L 236.16 174.528 
L 236.16 174.528 
L 236.16 174.528 
L 236.16 174.528 
L 236.16 174.528 
L 236.16 174.528 
L 236.16 174.528 
L 236.16 174.528 
L 236.16 174.528 
L 236.16 174.528 
L 236.16 174.528 
L 236.16 174.528 
L 236.16 174.528 
L 236.16 174.528 
L 236.16 174.528 
L 236.16 174.528 
L 236.16 174.528 
L 236.16 174.528 
L 236.16 174.528 
L 236.16 174.528 
L 236.16 174.528 
L 236.16 174.528 
L 236.16 174.528 
L 236.16 174.528 
L 236.16 174.528 
L 236.16 174.528 
L 236.16 174.528 
L 236.16 174.528 
L 236.16 174.528 
L 236.16 174.528 
L 236.16 174.528 
L 236.16 174.528 
L 236.16 174.528 
L 236.16 174.528 
L 236.16 174.528 
L 236.16 174.528 
L 236.16 174.528 
L 236.16 174.528 
L 236.16 174.528 
L 236.16 174.528 
L 236.16 174.528 
L 236.16 174.528 
L 236.16 174.528 
L 236.16 174.528 
L 236.16 174.528 
L 236.16 174.528 
L 236.16 174.528 
L 236.16 174.528 
L 236.16 174.528 
L 236.16 174.528 
L 236.16 174.528 
L 236.16 174.528 
L 236.16 174.528 
L 236.16 174.528 
L 236.16 174.528 
L 236.16 174.528 
L 236.16 174.528 
L 236.16 174.528 
L 236.16 174.528 
L 236.16 174.528 
L 235.583851 174.19536 
L 235.007701 173.86272 
L 234.431552 173.53008 
L 233.855402 173.19744 
L 233.279253 172.8648 
L 232.703104 172.53216 
L 232.126954 172.19952 
L 231.550805 171.86688 
L 230.974656 171.53424 
L 230.398506 171.2016 
L 229.822357 170.86896 
L 229.246207 170.53632 
L 228.670058 170.20368 
L 228.093909 169.87104 
L 227.517759 169.5384 
L 226.94161 169.20576 
L 226.365461 168.87312 
L 225.789311 168.54048 
L 225.213162 168.20784 
L 224.637012 167.8752 
L 224.060863 167.54256 
L 223.484714 167.20992 
L 222.908564 166.87728 
L 222.332415 166.54464 
L 221.756265 166.212 
L 221.180116 165.87936 
L 220.603967 165.54672 
L 220.027817 165.21408 
L 219.451668 164.88144 
L 218.875519 164.5488 
L 218.299369 164.21616 
L 217.72322 163.88352 
L 217.14707 163.55088 
L 216.570921 163.21824 
L 215.994772 162.8856 
L 215.418622 162.55296 
L 214.842473 162.22032 
L 214.266324 161.88768 
L 213.690174 161.55504 
L 213.114025 161.2224 
L 212.537875 160.88976 
L 211.961726 160.55712 
L 211.385577 160.22448 
L 210.809427 159.89184 
L 210.233278 159.5592 
L 209.657128 159.22656 
L 209.080979 158.89392 
L 208.50483 158.56128 
L 207.92868 158.22864 
L 207.352531 157.896 
L 206.776382 157.56336 
L 206.200232 157.23072 
L 205.624083 156.89808 
L 205.047933 156.56544 
L 204.471784 156.2328 
L 203.895635 155.90016 
L 203.319485 155.56752 
L 202.743336 155.23488 
L 202.167187 154.90224 
L 201.591037 154.5696 
L 201.014888 154.23696 
L 200.438738 153.90432 
L 199.862589 153.57168 
L 199.28644 153.23904 
L 198.71029 152.9064 
L 198.134141 152.57376 
L 197.557991 152.24112 
L 196.981842 151.90848 
L 196.405693 151.57584 
L 195.829543 151.2432 
L 195.253394 150.91056 
L 194.677245 150.57792 
L 194.101095 150.24528 
L 193.524946 149.91264 
L 192.948796 149.58 
L 192.372647 149.24736 
L 191.796498 148.91472 
L 191.220348 148.58208 
L 190.644199 148.24944 
L 190.06805 147.9168 
L 189.4919 147.58416 
L 188.915751 147.25152 
L 188.339601 146.91888 
L 187.763452 146.58624 
L 187.187303 146.2536 
L 186.611153 145.92096 
L 186.035004 145.58832 
L 185.458855 145.25568 
L 184.882705 144.92304 
L 184.306556 144.5904 
L 183.730406 144.25776 
L 183.154257 143.92512 
L 182.578108 143.59248 
L 182.001958 143.25984 
L 181.425809 142.9272 
L 180.849659 142.59456 
L 180.27351 142.26192 
L 179.697361 141.92928 
L 179.121211 141.59664 
L 178.545062 141.264 
L 179.254327 140.064699 
L 179.988552 138.880515 
L 180.747416 137.711967 
L 181.530585 136.559568 
L 182.337717 135.423823 
L 183.168458 134.30523 
L 184.022442 133.20428 
L 184.899295 132.121457 
L 185.798633 131.057234 
L 186.720061 130.012079 
L 187.663175 128.98645 
L 188.627562 127.980797 
L 189.612797 126.995562 
L 190.61845 126.031175 
L 191.644079 125.088061 
L 192.689234 124.166633 
L 193.753457 123.267295 
L 194.83628 122.390442 
L 195.93723 121.536458 
L 197.055823 120.705717 
L 198.191568 119.898585 
L 199.343967 119.115416 
L 200.512515 118.356552 
L 201.696699 117.622327 
L 202.896 116.913062 
L 204.109892 116.229069 
L 205.337841 115.570648 
L 206.579311 114.938088 
L 207.833755 114.331666 
L 209.100625 113.751648 
L 210.379363 113.198288 
L 211.66941 112.67183 
L 212.970199 112.172504 
L 214.28116 111.700529 
L 215.601717 111.256112 
L 216.931293 110.839448 
L 218.269302 110.450721 
L 219.615159 110.090099 
L 220.968273 109.757743 
L 222.328051 109.453796 
L 223.693896 109.178394 
L 225.065209 108.931656 
L 226.441388 108.71369 
L 227.821831 108.524593 
L 229.20593 108.364447 
L 230.59308 108.233323 
L 231.982672 108.131278 
L 233.374097 108.058356 
L 234.766743 108.014591 
L 236.16 108 
L 237.553257 108.014591 
L 238.945903 108.058356 
L 240.337328 108.131278 
L 241.72692 108.233323 
L 243.11407 108.364447 
L 244.498169 108.524593 
L 245.878612 108.71369 
L 247.254791 108.931656 
L 248.626104 109.178394 
L 249.991949 109.453796 
L 251.351727 109.757743 
L 252.704841 110.090099 
L 254.050698 110.450721 
L 255.388707 110.839448 
L 256.718283 111.256112 
L 258.03884 111.700529 
L 259.349801 112.172504 
L 260.65059 112.67183 
L 261.940637 113.198288 
L 263.219375 113.751648 
L 264.486245 114.331666 
L 265.740689 114.938088 
L 266.982159 115.570648 
L 268.210108 116.229069 
L 269.424 116.913062 
L 270.623301 117.622327 
L 271.807485 118.356552 
L 272.976033 119.115416 
L 274.128432 119.898585 
L 275.264177 120.705717 
L 276.38277 121.536458 
L 277.48372 122.390442 
L 278.566543 123.267295 
L 279.630766 124.166633 
L 280.675921 125.088061 
L 281.70155 126.031175 
L 282.707203 126.995562 
L 283.692438 127.980797 
L 284.656825 128.98645 
L 285.599939 130.012079 
L 286.521367 131.057234 
L 287.420705 132.121457 
L 288.297558 133.20428 
L 289.151542 134.30523 
L 289.982283 135.423823 
L 290.789415 136.559568 
L 291.572584 137.711967 
L 292.331448 138.880515 
L 293.065673 140.064699 
L 293.774938 141.264 
L 293.198789 141.59664 
L 292.622639 141.92928 
L 292.04649 142.26192 
L 291.470341 142.59456 
L 290.894191 142.9272 
L 290.318042 143.25984 
L 289.741892 143.59248 
L 289.165743 143.92512 
L 288.589594 144.25776 
L 288.013444 144.5904 
L 287.437295 144.92304 
L 286.861145 145.25568 
L 286.284996 145.58832 
L 285.708847 145.92096 
L 285.132697 146.2536 
L 284.556548 146.58624 
L 283.980399 146.91888 
L 283.404249 147.25152 
L 282.8281 147.58416 
L 282.25195 147.9168 
L 281.675801 148.24944 
L 281.099652 148.58208 
L 280.523502 148.91472 
L 279.947353 149.24736 
L 279.371204 149.58 
L 278.795054 149.91264 
L 278.218905 150.24528 
L 277.642755 150.57792 
L 277.066606 150.91056 
L 276.490457 151.2432 
L 275.914307 151.57584 
L 275.338158 151.90848 
L 274.762009 152.24112 
L 274.185859 152.57376 
L 273.60971 152.9064 
L 273.03356 153.23904 
L 272.457411 153.57168 
L 271.881262 153.90432 
L 271.305112 154.23696 
L 270.728963 154.5696 
L 270.152813 154.90224 
L 269.576664 155.23488 
L 269.000515 155.56752 
L 268.424365 155.90016 
L 267.848216 156.2328 
L 267.272067 156.56544 
L 266.695917 156.89808 
L 266.119768 157.23072 
L 265.543618 157.56336 
L 264.967469 157.896 
L 264.39132 158.22864 
L 263.81517 158.56128 
L 263.239021 158.89392 
L 262.662872 159.22656 
L 262.086722 159.5592 
L 261.510573 159.89184 
L 260.934423 160.22448 
L 260.358274 160.55712 
L 259.782125 160.88976 
L 259.205975 161.2224 
L 258.629826 161.55504 
L 258.053676 161.88768 
L 257.477527 162.22032 
L 256.901378 162.55296 
L 256.325228 162.8856 
L 255.749079 163.21824 
L 255.17293 163.55088 
L 254.59678 163.88352 
L 254.020631 164.21616 
L 253.444481 164.5488 
L 252.868332 164.88144 
L 252.292183 165.21408 
L 251.716033 165.54672 
L 251.139884 165.87936 
L 250.563735 166.212 
L 249.987585 166.54464 
L 249.411436 166.87728 
L 248.835286 167.20992 
L 248.259137 167.54256 
L 247.682988 167.8752 
L 247.106838 168.20784 
L 246.530689 168.54048 
L 245.954539 168.87312 
L 245.37839 169.20576 
L 244.802241 169.5384 
L 244.226091 169.87104 
L 243.649942 170.20368 
L 243.073793 170.53632 
L 242.497643 170.86896 
L 241.921494 171.2016 
L 241.345344 171.53424 
L 240.769195 171.86688 
L 240.193046 172.19952 
L 239.616896 172.53216 
L 239.040747 172.8648 
L 238.464598 173.19744 
L 237.888448 173.53008 
L 237.312299 173.86272 
L 236.736149 174.19536 
z
" style="fill:#fabe28;"/>
   </g>
   <g id="patch_3">
    <path clip-path="url(#pf80f450a76)" d="M 293.774938 141.264 
L 293.065673 140.064699 
L 292.331448 138.880515 
L 291.572584 137.711967 
L 290.789415 136.559568 
L 289.982283 135.423823 
L 289.151542 134.30523 
L 288.297558 133.20428 
L 287.420705 132.121457 
L 286.521367 131.057234 
L 285.599939 130.012079 
L 284.656825 128.98645 
L 283.692438 127.980797 
L 282.707203 126.995562 
L 281.70155 126.031175 
L 280.675921 125.088061 
L 279.630766 124.166633 
L 278.566543 123.267295 
L 277.48372 122.390442 
L 276.38277 121.536458 
L 275.264177 120.705717 
L 274.128432 119.898585 
L 272.976033 119.115416 
L 271.807485 118.356552 
L 270.623301 117.622327 
L 269.424 116.913062 
L 268.210108 116.229069 
L 266.982159 115.570648 
L 265.740689 114.938088 
L 264.486245 114.331666 
L 263.219375 113.751648 
L 261.940637 113.198288 
L 260.65059 112.67183 
L 259.349801 112.172504 
L 258.03884 111.700529 
L 256.718283 111.256112 
L 255.388707 110.839448 
L 254.050698 110.450721 
L 252.704841 110.090099 
L 251.351727 109.757743 
L 249.991949 109.453796 
L 248.626104 109.178394 
L 247.254791 108.931656 
L 245.878612 108.71369 
L 244.498169 108.524593 
L 243.11407 108.364447 
L 241.72692 108.233323 
L 240.337328 108.131278 
L 238.945903 108.058356 
L 237.553257 108.014591 
L 236.16 108 
L 234.766743 108.014591 
L 233.374097 108.058356 
L 231.982672 108.131278 
L 230.59308 108.233323 
L 229.20593 108.364447 
L 227.821831 108.524593 
L 226.441388 108.71369 
L 225.065209 108.931656 
L 223.693896 109.178394 
L 222.328051 109.453796 
L 220.968273 109.757743 
L 219.615159 110.090099 
L 218.269302 110.450721 
L 216.931293 110.839448 
L 215.601717 111.256112 
L 214.28116 111.700529 
L 212.970199 112.172504 
L 211.66941 112.67183 
L 210.379363 113.198288 
L 209.100625 113.751648 
L 207.833755 114.331666 
L 206.579311 114.938088 
L 205.337841 115.570648 
L 204.109892 116.229069 
L 202.896 116.913062 
L 201.696699 117.622327 
L 200.512515 118.356552 
L 199.343967 119.115416 
L 198.191568 119.898585 
L 197.055823 120.705717 
L 195.93723 121.536458 
L 194.83628 122.390442 
L 193.753457 123.267295 
L 192.689234 124.166633 
L 191.644079 125.088061 
L 190.61845 126.031175 
L 189.612797 126.995562 
L 188.627562 127.980797 
L 187.663175 128.98645 
L 186.720061 130.012079 
L 185.798633 131.057234 
L 184.899295 132.121457 
L 184.022442 133.20428 
L 183.168458 134.30523 
L 182.337717 135.423823 
L 181.530585 136.559568 
L 180.747416 137.711967 
L 179.988552 138.880515 
L 179.254327 140.064699 
L 178.545062 141.264 
L 178.545062 141.264 
L 178.545062 141.264 
L 178.545062 141.264 
L 178.545062 141.264 
L 178.545062 141.264 
L 178.545062 141.264 
L 178.545062 141.264 
L 178.545062 141.264 
L 178.545062 141.264 
L 178.545062 141.264 
L 178.545062 141.264 
L 178.545062 141.264 
L 178.545062 141.264 
L 178.545062 141.264 
L 178.545062 141.264 
L 178.545062 141.264 
L 178.545062 141.264 
L 178.545062 141.264 
L 178.545062 141.264 
L 178.545062 141.264 
L 178.545062 141.264 
L 178.545062 141.264 
L 178.545062 141.264 
L 178.545062 141.264 
L 178.545062 141.264 
L 178.545062 141.264 
L 178.545062 141.264 
L 178.545062 141.264 
L 178.545062 141.264 
L 178.545062 141.264 
L 178.545062 141.264 
L 178.545062 141.264 
L 178.545062 141.264 
L 178.545062 141.264 
L 178.545062 141.264 
L 178.545062 141.264 
L 178.545062 141.264 
L 178.545062 141.264 
L 178.545062 141.264 
L 178.545062 141.264 
L 178.545062 141.264 
L 178.545062 141.264 
L 178.545062 141.264 
L 178.545062 141.264 
L 178.545062 141.264 
L 178.545062 141.264 
L 178.545062 141.264 
L 178.545062 141.264 
L 178.545062 141.264 
L 178.545062 141.264 
L 178.545062 141.264 
L 178.545062 141.264 
L 178.545062 141.264 
L 178.545062 141.264 
L 178.545062 141.264 
L 178.545062 141.264 
L 178.545062 141.264 
L 178.545062 141.264 
L 178.545062 141.264 
L 178.545062 141.264 
L 178.545062 141.264 
L 178.545062 141.264 
L 178.545062 141.264 
L 178.545062 141.264 
L 178.545062 141.264 
L 178.545062 141.264 
L 178.545062 141.264 
L 178.545062 141.264 
L 178.545062 141.264 
L 178.545062 141.264 
L 178.545062 141.264 
L 178.545062 141.264 
L 178.545062 141.264 
L 178.545062 141.264 
L 178.545062 141.264 
L 178.545062 141.264 
L 178.545062 141.264 
L 178.545062 141.264 
L 178.545062 141.264 
L 178.545062 141.264 
L 178.545062 141.264 
L 178.545062 141.264 
L 178.545062 141.264 
L 178.545062 141.264 
L 178.545062 141.264 
L 178.545062 141.264 
L 178.545062 141.264 
L 178.545062 141.264 
L 178.545062 141.264 
L 178.545062 141.264 
L 178.545062 141.264 
L 178.545062 141.264 
L 178.545062 141.264 
L 178.545062 141.264 
L 178.545062 141.264 
L 178.545062 141.264 
L 178.545062 141.264 
L 178.545062 141.264 
L 178.545062 141.264 
L 178.545062 141.264 
L 179.254327 140.064699 
L 179.988552 138.880515 
L 180.747416 137.711967 
L 181.530585 136.559568 
L 182.337717 135.423823 
L 183.168458 134.30523 
L 184.022442 133.20428 
L 184.899295 132.121457 
L 185.798633 131.057234 
L 186.720061 130.012079 
L 187.663175 128.98645 
L 188.627562 127.980797 
L 189.612797 126.995562 
L 190.61845 126.031175 
L 191.644079 125.088061 
L 192.689234 124.166633 
L 193.753457 123.267295 
L 194.83628 122.390442 
L 195.93723 121.536458 
L 197.055823 120.705717 
L 198.191568 119.898585 
L 199.343967 119.115416 
L 200.512515 118.356552 
L 201.696699 117.622327 
L 202.896 116.913062 
L 204.109892 116.229069 
L 205.337841 115.570648 
L 206.579311 114.938088 
L 207.833755 114.331666 
L 209.100625 113.751648 
L 210.379363 113.198288 
L 211.66941 112.67183 
L 212.970199 112.172504 
L 214.28116 111.700529 
L 215.601717 111.256112 
L 216.931293 110.839448 
L 218.269302 110.450721 
L 219.615159 110.090099 
L 220.968273 109.757743 
L 222.328051 109.453796 
L 223.693896 109.178394 
L 225.065209 108.931656 
L 226.441388 108.71369 
L 227.821831 108.524593 
L 229.20593 108.364447 
L 230.59308 108.233323 
L 231.982672 108.131278 
L 233.374097 108.058356 
L 234.766743 108.014591 
L 236.16 108 
L 237.553257 108.014591 
L 238.945903 108.058356 
L 240.337328 108.131278 
L 241.72692 108.233323 
L 243.11407 108.364447 
L 244.498169 108.524593 
L 245.878612 108.71369 
L 247.254791 108.931656 
L 248.626104 109.178394 
L 249.991949 109.453796 
L 251.351727 109.757743 
L 252.704841 110.090099 
L 254.050698 110.450721 
L 255.388707 110.839448 
L 256.718283 111.256112 
L 258.03884 111.700529 
L 259.349801 112.172504 
L 260.65059 112.67183 
L 261.940637 113.198288 
L 263.219375 113.751648 
L 264.486245 114.331666 
L 265.740689 114.938088 
L 266.982159 115.570648 
L 268.210108 116.229069 
L 269.424 116.913062 
L 270.623301 117.622327 
L 271.807485 118.356552 
L 272.976033 119.115416 
L 274.128432 119.898585 
L 275.264177 120.705717 
L 276.38277 121.536458 
L 277.48372 122.390442 
L 278.566543 123.267295 
L 279.630766 124.166633 
L 280.675921 125.088061 
L 281.70155 126.031175 
L 282.707203 126.995562 
L 283.692438 127.980797 
L 284.656825 128.98645 
L 285.599939 130.012079 
L 286.521367 131.057234 
L 287.420705 132.121457 
L 288.297558 133.20428 
L 289.151542 134.30523 
L 289.982283 135.423823 
L 290.789415 136.559568 
L 291.572584 137.711967 
L 292.331448 138.880515 
L 293.065673 140.064699 
L 293.774938 141.264 
L 293.774938 141.264 
L 293.774938 141.264 
L 293.774938 141.264 
L 293.774938 141.264 
L 293.774938 141.264 
L 293.774938 141.264 
L 293.774938 141.264 
L 293.774938 141.264 
L 293.774938 141.264 
L 293.774938 141.264 
L 293.774938 141.264 
L 293.774938 141.264 
L 293.774938 141.264 
L 293.774938 141.264 
L 293.774938 141.264 
L 293.774938 141.264 
L 293.774938 141.264 
L 293.774938 141.264 
L 293.774938 141.264 
L 293.774938 141.264 
L 293.774938 141.264 
L 293.774938 141.264 
L 293.774938 141.264 
L 293.774938 141.264 
L 293.774938 141.264 
L 293.774938 141.264 
L 293.774938 141.264 
L 293.774938 141.264 
L 293.774938 141.264 
L 293.774938 141.264 
L 293.774938 141.264 
L 293.774938 141.264 
L 293.774938 141.264 
L 293.774938 141.264 
L 293.774938 141.264 
L 293.774938 141.264 
L 293.774938 141.264 
L 293.774938 141.264 
L 293.774938 141.264 
L 293.774938 141.264 
L 293.774938 141.264 
L 293.774938 141.264 
L 293.774938 141.264 
L 293.774938 141.264 
L 293.774938 141.264 
L 293.774938 141.264 
L 293.774938 141.264 
L 293.774938 141.264 
L 293.774938 141.264 
L 293.774938 141.264 
L 293.774938 141.264 
L 293.774938 141.264 
L 293.774938 141.264 
L 293.774938 141.264 
L 293.774938 141.264 
L 293.774938 141.264 
L 293.774938 141.264 
L 293.774938 141.264 
L 293.774938 141.264 
L 293.774938 141.264 
L 293.774938 141.264 
L 293.774938 141.264 
L 293.774938 141.264 
L 293.774938 141.264 
L 293.774938 141.264 
L 293.774938 141.264 
L 293.774938 141.264 
L 293.774938 141.264 
L 293.774938 141.264 
L 293.774938 141.264 
L 293.774938 141.264 
L 293.774938 141.264 
L 293.774938 141.264 
L 293.774938 141.264 
L 293.774938 141.264 
L 293.774938 141.264 
L 293.774938 141.264 
L 293.774938 141.264 
L 293.774938 141.264 
L 293.774938 141.264 
L 293.774938 141.264 
L 293.774938 141.264 
L 293.774938 141.264 
L 293.774938 141.264 
L 293.774938 141.264 
L 293.774938 141.264 
L 293.774938 141.264 
L 293.774938 141.264 
L 293.774938 141.264 
L 293.774938 141.264 
L 293.774938 141.264 
L 293.774938 141.264 
L 293.774938 141.264 
L 293.774938 141.264 
L 293.774938 141.264 
L 293.774938 141.264 
L 293.774938 141.264 
L 293.774938 141.264 
L 293.774938 141.264 
z
" style="fill:#ff003c;"/>
   </g>
   <g id="patch_4">
    <path clip-path="url(#pf80f450a76)" d="M 293.774938 141.264 
L 293.065673 140.064699 
L 292.331448 138.880515 
L 291.572584 137.711967 
L 290.789415 136.559568 
L 289.982283 135.423823 
L 289.151542 134.30523 
L 288.297558 133.20428 
L 287.420705 132.121457 
L 286.521367 131.057234 
L 285.599939 130.012079 
L 284.656825 128.98645 
L 283.692438 127.980797 
L 282.707203 126.995562 
L 281.70155 126.031175 
L 280.675921 125.088061 
L 279.630766 124.166633 
L 278.566543 123.267295 
L 277.48372 122.390442 
L 276.38277 121.536458 
L 275.264177 120.705717 
L 274.128432 119.898585 
L 272.976033 119.115416 
L 271.807485 118.356552 
L 270.623301 117.622327 
L 269.424 116.913062 
L 268.210108 116.229069 
L 266.982159 115.570648 
L 265.740689 114.938088 
L 264.486245 114.331666 
L 263.219375 113.751648 
L 261.940637 113.198288 
L 260.65059 112.67183 
L 259.349801 112.172504 
L 258.03884 111.700529 
L 256.718283 111.256112 
L 255.388707 110.839448 
L 254.050698 110.450721 
L 252.704841 110.090099 
L 251.351727 109.757743 
L 249.991949 109.453796 
L 248.626104 109.178394 
L 247.254791 108.931656 
L 245.878612 108.71369 
L 244.498169 108.524593 
L 243.11407 108.364447 
L 241.72692 108.233323 
L 240.337328 108.131278 
L 238.945903 108.058356 
L 237.553257 108.014591 
L 236.16 108 
L 234.766743 108.014591 
L 233.374097 108.058356 
L 231.982672 108.131278 
L 230.59308 108.233323 
L 229.20593 108.364447 
L 227.821831 108.524593 
L 226.441388 108.71369 
L 225.065209 108.931656 
L 223.693896 109.178394 
L 222.328051 109.453796 
L 220.968273 109.757743 
L 219.615159 110.090099 
L 218.269302 110.450721 
L 216.931293 110.839448 
L 215.601717 111.256112 
L 214.28116 111.700529 
L 212.970199 112.172504 
L 211.66941 112.67183 
L 210.379363 113.198288 
L 209.100625 113.751648 
L 207.833755 114.331666 
L 206.579311 114.938088 
L 205.337841 115.570648 
L 204.109892 116.229069 
L 202.896 116.913062 
L 201.696699 117.622327 
L 200.512515 118.356552 
L 199.343967 119.115416 
L 198.191568 119.898585 
L 197.055823 120.705717 
L 195.93723 121.536458 
L 194.83628 122.390442 
L 193.753457 123.267295 
L 192.689234 124.166633 
L 191.644079 125.088061 
L 190.61845 126.031175 
L 189.612797 126.995562 
L 188.627562 127.980797 
L 187.663175 128.98645 
L 186.720061 130.012079 
L 185.798633 131.057234 
L 184.899295 132.121457 
L 184.022442 133.20428 
L 183.168458 134.30523 
L 182.337717 135.423823 
L 181.530585 136.559568 
L 180.747416 137.711967 
L 179.988552 138.880515 
L 179.254327 140.064699 
L 178.545062 141.264 
L 178.545062 141.264 
L 178.545062 141.264 
L 178.545062 141.264 
L 178.545062 141.264 
L 178.545062 141.264 
L 178.545062 141.264 
L 178.545062 141.264 
L 178.545062 141.264 
L 178.545062 141.264 
L 178.545062 141.264 
L 178.545062 141.264 
L 178.545062 141.264 
L 178.545062 141.264 
L 178.545062 141.264 
L 178.545062 141.264 
L 178.545062 141.264 
L 178.545062 141.264 
L 178.545062 141.264 
L 178.545062 141.264 
L 178.545062 141.264 
L 178.545062 141.264 
L 178.545062 141.264 
L 178.545062 141.264 
L 178.545062 141.264 
L 178.545062 141.264 
L 178.545062 141.264 
L 178.545062 141.264 
L 178.545062 141.264 
L 178.545062 141.264 
L 178.545062 141.264 
L 178.545062 141.264 
L 178.545062 141.264 
L 178.545062 141.264 
L 178.545062 141.264 
L 178.545062 141.264 
L 178.545062 141.264 
L 178.545062 141.264 
L 178.545062 141.264 
L 178.545062 141.264 
L 178.545062 141.264 
L 178.545062 141.264 
L 178.545062 141.264 
L 178.545062 141.264 
L 178.545062 141.264 
L 178.545062 141.264 
L 178.545062 141.264 
L 178.545062 141.264 
L 178.545062 141.264 
L 178.545062 141.264 
L 178.545062 141.264 
L 178.545062 141.264 
L 178.545062 141.264 
L 178.545062 141.264 
L 178.545062 141.264 
L 178.545062 141.264 
L 178.545062 141.264 
L 178.545062 141.264 
L 178.545062 141.264 
L 178.545062 141.264 
L 178.545062 141.264 
L 178.545062 141.264 
L 178.545062 141.264 
L 178.545062 141.264 
L 178.545062 141.264 
L 178.545062 141.264 
L 178.545062 141.264 
L 178.545062 141.264 
L 178.545062 141.264 
L 178.545062 141.264 
L 178.545062 141.264 
L 178.545062 141.264 
L 178.545062 141.264 
L 178.545062 141.264 
L 178.545062 141.264 
L 178.545062 141.264 
L 178.545062 141.264 
L 178.545062 141.264 
L 178.545062 141.264 
L 178.545062 141.264 
L 178.545062 141.264 
L 178.545062 141.264 
L 178.545062 141.264 
L 178.545062 141.264 
L 178.545062 141.264 
L 178.545062 141.264 
L 178.545062 141.264 
L 178.545062 141.264 
L 178.545062 141.264 
L 178.545062 141.264 
L 178.545062 141.264 
L 178.545062 141.264 
L 178.545062 141.264 
L 178.545062 141.264 
L 178.545062 141.264 
L 178.545062 141.264 
L 178.545062 141.264 
L 178.545062 141.264 
L 178.545062 141.264 
L 178.545062 141.264 
L 178.545062 141.264 
L 179.254327 140.064699 
L 179.988552 138.880515 
L 180.747416 137.711967 
L 181.530585 136.559568 
L 182.337717 135.423823 
L 183.168458 134.30523 
L 184.022442 133.20428 
L 184.899295 132.121457 
L 185.798633 131.057234 
L 186.720061 130.012079 
L 187.663175 128.98645 
L 188.627562 127.980797 
L 189.612797 126.995562 
L 190.61845 126.031175 
L 191.644079 125.088061 
L 192.689234 124.166633 
L 193.753457 123.267295 
L 194.83628 122.390442 
L 195.93723 121.536458 
L 197.055823 120.705717 
L 198.191568 119.898585 
L 199.343967 119.115416 
L 200.512515 118.356552 
L 201.696699 117.622327 
L 202.896 116.913062 
L 204.109892 116.229069 
L 205.337841 115.570648 
L 206.579311 114.938088 
L 207.833755 114.331666 
L 209.100625 113.751648 
L 210.379363 113.198288 
L 211.66941 112.67183 
L 212.970199 112.172504 
L 214.28116 111.700529 
L 215.601717 111.256112 
L 216.931293 110.839448 
L 218.269302 110.450721 
L 219.615159 110.090099 
L 220.968273 109.757743 
L 222.328051 109.453796 
L 223.693896 109.178394 
L 225.065209 108.931656 
L 226.441388 108.71369 
L 227.821831 108.524593 
L 229.20593 108.364447 
L 230.59308 108.233323 
L 231.982672 108.131278 
L 233.374097 108.058356 
L 234.766743 108.014591 
L 236.16 108 
L 237.553257 108.014591 
L 238.945903 108.058356 
L 240.337328 108.131278 
L 241.72692 108.233323 
L 243.11407 108.364447 
L 244.498169 108.524593 
L 245.878612 108.71369 
L 247.254791 108.931656 
L 248.626104 109.178394 
L 249.991949 109.453796 
L 251.351727 109.757743 
L 252.704841 110.090099 
L 254.050698 110.450721 
L 255.388707 110.839448 
L 256.718283 111.256112 
L 258.03884 111.700529 
L 259.349801 112.172504 
L 260.65059 112.67183 
L 261.940637 113.198288 
L 263.219375 113.751648 
L 264.486245 114.331666 
L 265.740689 114.938088 
L 266.982159 115.570648 
L 268.210108 116.229069 
L 269.424 116.913062 
L 270.623301 117.622327 
L 271.807485 118.356552 
L 272.976033 119.115416 
L 274.128432 119.898585 
L 275.264177 120.705717 
L 276.38277 121.536458 
L 277.48372 122.390442 
L 278.566543 123.267295 
L 279.630766 124.166633 
L 280.675921 125.088061 
L 281.70155 126.031175 
L 282.707203 126.995562 
L 283.692438 127.980797 
L 284.656825 128.98645 
L 285.599939 130.012079 
L 286.521367 131.057234 
L 287.420705 132.121457 
L 288.297558 133.20428 
L 289.151542 134.30523 
L 289.982283 135.423823 
L 290.789415 136.559568 
L 291.572584 137.711967 
L 292.331448 138.880515 
L 293.065673 140.064699 
L 293.774938 141.264 
L 293.774938 141.264 
L 293.774938 141.264 
L 293.774938 141.264 
L 293.774938 141.264 
L 293.774938 141.264 
L 293.774938 141.264 
L 293.774938 141.264 
L 293.774938 141.264 
L 293.774938 141.264 
L 293.774938 141.264 
L 293.774938 141.264 
L 293.774938 141.264 
L 293.774938 141.264 
L 293.774938 141.264 
L 293.774938 141.264 
L 293.774938 141.264 
L 293.774938 141.264 
L 293.774938 141.264 
L 293.774938 141.264 
L 293.774938 141.264 
L 293.774938 141.264 
L 293.774938 141.264 
L 293.774938 141.264 
L 293.774938 141.264 
L 293.774938 141.264 
L 293.774938 141.264 
L 293.774938 141.264 
L 293.774938 141.264 
L 293.774938 141.264 
L 293.774938 141.264 
L 293.774938 141.264 
L 293.774938 141.264 
L 293.774938 141.264 
L 293.774938 141.264 
L 293.774938 141.264 
L 293.774938 141.264 
L 293.774938 141.264 
L 293.774938 141.264 
L 293.774938 141.264 
L 293.774938 141.264 
L 293.774938 141.264 
L 293.774938 141.264 
L 293.774938 141.264 
L 293.774938 141.264 
L 293.774938 141.264 
L 293.774938 141.264 
L 293.774938 141.264 
L 293.774938 141.264 
L 293.774938 141.264 
L 293.774938 141.264 
L 293.774938 141.264 
L 293.774938 141.264 
L 293.774938 141.264 
L 293.774938 141.264 
L 293.774938 141.264 
L 293.774938 141.264 
L 293.774938 141.264 
L 293.774938 141.264 
L 293.774938 141.264 
L 293.774938 141.264 
L 293.774938 141.264 
L 293.774938 141.264 
L 293.774938 141.264 
L 293.774938 141.264 
L 293.774938 141.264 
L 293.774938 141.264 
L 293.774938 141.264 
L 293.774938 141.264 
L 293.774938 141.264 
L 293.774938 141.264 
L 293.774938 141.264 
L 293.774938 141.264 
L 293.774938 141.264 
L 293.774938 141.264 
L 293.774938 141.264 
L 293.774938 141.264 
L 293.774938 141.264 
L 293.774938 141.264 
L 293.774938 141.264 
L 293.774938 141.264 
L 293.774938 141.264 
L 293.774938 141.264 
L 293.774938 141.264 
L 293.774938 141.264 
L 293.774938 141.264 
L 293.774938 141.264 
L 293.774938 141.264 
L 293.774938 141.264 
L 293.774938 141.264 
L 293.774938 141.264 
L 293.774938 141.264 
L 293.774938 141.264 
L 293.774938 141.264 
L 293.774938 141.264 
L 293.774938 141.264 
L 293.774938 141.264 
L 293.774938 141.264 
L 293.774938 141.264 
L 293.774938 141.264 
z
" style="fill:#88c100;"/>
   </g>
   <g id="patch_5">
    <path clip-path="url(#pf80f450a76)" d="M 236.16 174.528 
L 236.16 174.528 
L 236.16 174.528 
L 236.16 174.528 
L 236.16 174.528 
L 236.16 174.528 
L 236.16 174.528 
L 236.16 174.528 
L 236.16 174.528 
L 236.16 174.528 
L 236.16 174.528 
L 236.16 174.528 
L 236.16 174.528 
L 236.16 174.528 
L 236.16 174.528 
L 236.16 174.528 
L 236.16 174.528 
L 236.16 174.528 
L 236.16 174.528 
L 236.16 174.528 
L 236.16 174.528 
L 236.16 174.528 
L 236.16 174.528 
L 236.16 174.528 
L 236.16 174.528 
L 236.16 174.528 
L 236.16 174.528 
L 236.16 174.528 
L 236.16 174.528 
L 236.16 174.528 
L 236.16 174.528 
L 236.16 174.528 
L 236.16 174.528 
L 236.16 174.528 
L 236.16 174.528 
L 236.16 174.528 
L 236.16 174.528 
L 236.16 174.528 
L 236.16 174.528 
L 236.16 174.528 
L 236.16 174.528 
L 236.16 174.528 
L 236.16 174.528 
L 236.16 174.528 
L 236.16 174.528 
L 236.16 174.528 
L 236.16 174.528 
L 236.16 174.528 
L 236.16 174.528 
L 236.16 174.528 
L 236.16 174.528 
L 236.16 174.528 
L 236.16 174.528 
L 236.16 174.528 
L 236.16 174.528 
L 236.16 174.528 
L 236.16 174.528 
L 236.16 174.528 
L 236.16 174.528 
L 236.16 174.528 
L 236.16 174.528 
L 236.16 174.528 
L 236.16 174.528 
L 236.16 174.528 
L 236.16 174.528 
L 236.16 174.528 
L 236.16 174.528 
L 236.16 174.528 
L 236.16 174.528 
L 236.16 174.528 
L 236.16 174.528 
L 236.16 174.528 
L 236.16 174.528 
L 236.16 174.528 
L 236.16 174.528 
L 236.16 174.528 
L 236.16 174.528 
L 236.16 174.528 
L 236.16 174.528 
L 236.16 174.528 
L 236.16 174.528 
L 236.16 174.528 
L 236.16 174.528 
L 236.16 174.528 
L 236.16 174.528 
L 236.16 174.528 
L 236.16 174.528 
L 236.16 174.528 
L 236.16 174.528 
L 236.16 174.528 
L 236.16 174.528 
L 236.16 174.528 
L 236.16 174.528 
L 236.16 174.528 
L 236.16 174.528 
L 236.16 174.528 
L 236.16 174.528 
L 236.16 174.528 
L 236.16 174.528 
L 236.16 174.528 
L 236.16 174.528 
L 236.16 175.19328 
L 236.16 175.85856 
L 236.16 176.52384 
L 236.16 177.18912 
L 236.16 177.8544 
L 236.16 178.51968 
L 236.16 179.18496 
L 236.16 179.85024 
L 236.16 180.51552 
L 236.16 181.1808 
L 236.16 181.84608 
L 236.16 182.51136 
L 236.16 183.17664 
L 236.16 183.84192 
L 236.16 184.5072 
L 236.16 185.17248 
L 236.16 185.83776 
L 236.16 186.50304 
L 236.16 187.16832 
L 236.16 187.8336 
L 236.16 188.49888 
L 236.16 189.16416 
L 236.16 189.82944 
L 236.16 190.49472 
L 236.16 191.16 
L 236.16 191.82528 
L 236.16 192.49056 
L 236.16 193.15584 
L 236.16 193.82112 
L 236.16 194.4864 
L 236.16 195.15168 
L 236.16 195.81696 
L 236.16 196.48224 
L 236.16 197.14752 
L 236.16 197.8128 
L 236.16 198.47808 
L 236.16 199.14336 
L 236.16 199.80864 
L 236.16 200.47392 
L 236.16 201.1392 
L 236.16 201.80448 
L 236.16 202.46976 
L 236.16 203.13504 
L 236.16 203.80032 
L 236.16 204.4656 
L 236.16 205.13088 
L 236.16 205.79616 
L 236.16 206.46144 
L 236.16 207.12672 
L 236.16 207.792 
L 236.16 208.45728 
L 236.16 209.12256 
L 236.16 209.78784 
L 236.16 210.45312 
L 236.16 211.1184 
L 236.16 211.78368 
L 236.16 212.44896 
L 236.16 213.11424 
L 236.16 213.77952 
L 236.16 214.4448 
L 236.16 215.11008 
L 236.16 215.77536 
L 236.16 216.44064 
L 236.16 217.10592 
L 236.16 217.7712 
L 236.16 218.43648 
L 236.16 219.10176 
L 236.16 219.76704 
L 236.16 220.43232 
L 236.16 221.0976 
L 236.16 221.76288 
L 236.16 222.42816 
L 236.16 223.09344 
L 236.16 223.75872 
L 236.16 224.424 
L 236.16 225.08928 
L 236.16 225.75456 
L 236.16 226.41984 
L 236.16 227.08512 
L 236.16 227.7504 
L 236.16 228.41568 
L 236.16 229.08096 
L 236.16 229.74624 
L 236.16 230.41152 
L 236.16 231.0768 
L 236.16 231.74208 
L 236.16 232.40736 
L 236.16 233.07264 
L 236.16 233.73792 
L 236.16 234.4032 
L 236.16 235.06848 
L 236.16 235.73376 
L 236.16 236.39904 
L 236.16 237.06432 
L 236.16 237.7296 
L 236.16 238.39488 
L 236.16 239.06016 
L 236.16 239.72544 
L 236.16 240.39072 
L 236.16 241.056 
L 234.766743 241.041409 
L 233.374097 240.997644 
L 231.982672 240.924722 
L 230.59308 240.822677 
L 229.20593 240.691553 
L 227.821831 240.531407 
L 226.441388 240.34231 
L 225.065209 240.124344 
L 223.693896 239.877606 
L 222.328051 239.602204 
L 220.968273 239.298257 
L 219.615159 238.965901 
L 218.269302 238.605279 
L 216.931293 238.216552 
L 215.601717 237.799888 
L 214.28116 237.355471 
L 212.970199 236.883496 
L 211.66941 236.38417 
L 210.379363 235.857712 
L 209.100625 235.304352 
L 207.833755 234.724334 
L 206.579311 234.117912 
L 205.337841 233.485352 
L 204.109892 232.826931 
L 202.896 232.142938 
L 201.696699 231.433673 
L 200.512515 230.699448 
L 199.343967 229.940584 
L 198.191568 229.157415 
L 197.055823 228.350283 
L 195.93723 227.519542 
L 194.83628 226.665558 
L 193.753457 225.788705 
L 192.689234 224.889367 
L 191.644079 223.967939 
L 190.61845 223.024825 
L 189.612797 222.060438 
L 188.627562 221.075203 
L 187.663175 220.06955 
L 186.720061 219.043921 
L 185.798633 217.998766 
L 184.899295 216.934543 
L 184.022442 215.85172 
L 183.168458 214.75077 
L 182.337717 213.632177 
L 181.530585 212.496432 
L 180.747416 211.344033 
L 179.988552 210.175485 
L 179.254327 208.991301 
L 178.545062 207.792 
L 177.861069 206.578108 
L 177.202648 205.350159 
L 176.570088 204.108689 
L 175.963666 202.854245 
L 175.383648 201.587375 
L 174.830288 200.308637 
L 174.30383 199.01859 
L 173.804504 197.717801 
L 173.332529 196.40684 
L 172.888112 195.086283 
L 172.471448 193.756707 
L 172.082721 192.418698 
L 171.722099 191.072841 
L 171.389743 189.719727 
L 171.085796 188.359949 
L 170.810394 186.994104 
L 170.563656 185.622791 
L 170.34569 184.246612 
L 170.156593 182.866169 
L 169.996447 181.48207 
L 169.865323 180.09492 
L 169.763278 178.705328 
L 169.690356 177.313903 
L 169.646591 175.921257 
L 169.632 174.528 
L 169.646591 173.134743 
L 169.690356 171.742097 
L 169.763278 170.350672 
L 169.865323 168.96108 
L 169.996447 167.57393 
L 170.156593 166.189831 
L 170.34569 164.809388 
L 170.563656 163.433209 
L 170.810394 162.061896 
L 171.085796 160.696051 
L 171.389743 159.336273 
L 171.722099 157.983159 
L 172.082721 156.637302 
L 172.471448 155.299293 
L 172.888112 153.969717 
L 173.332529 152.64916 
L 173.804504 151.338199 
L 174.30383 150.03741 
L 174.830288 148.747363 
L 175.383648 147.468625 
L 175.963666 146.201755 
L 176.570088 144.947311 
L 177.202648 143.705841 
L 177.861069 142.477892 
L 178.545062 141.264 
L 179.121211 141.59664 
L 179.697361 141.92928 
L 180.27351 142.26192 
L 180.849659 142.59456 
L 181.425809 142.9272 
L 182.001958 143.25984 
L 182.578108 143.59248 
L 183.154257 143.92512 
L 183.730406 144.25776 
L 184.306556 144.5904 
L 184.882705 144.92304 
L 185.458855 145.25568 
L 186.035004 145.58832 
L 186.611153 145.92096 
L 187.187303 146.2536 
L 187.763452 146.58624 
L 188.339601 146.91888 
L 188.915751 147.25152 
L 189.4919 147.58416 
L 190.06805 147.9168 
L 190.644199 148.24944 
L 191.220348 148.58208 
L 191.796498 148.91472 
L 192.372647 149.24736 
L 192.948796 149.58 
L 193.524946 149.91264 
L 194.101095 150.24528 
L 194.677245 150.57792 
L 195.253394 150.91056 
L 195.829543 151.2432 
L 196.405693 151.57584 
L 196.981842 151.90848 
L 197.557991 152.24112 
L 198.134141 152.57376 
L 198.71029 152.9064 
L 199.28644 153.23904 
L 199.862589 153.57168 
L 200.438738 153.90432 
L 201.014888 154.23696 
L 201.591037 154.5696 
L 202.167187 154.90224 
L 202.743336 155.23488 
L 203.319485 155.56752 
L 203.895635 155.90016 
L 204.471784 156.2328 
L 205.047933 156.56544 
L 205.624083 156.89808 
L 206.200232 157.23072 
L 206.776382 157.56336 
L 207.352531 157.896 
L 207.92868 158.22864 
L 208.50483 158.56128 
L 209.080979 158.89392 
L 209.657128 159.22656 
L 210.233278 159.5592 
L 210.809427 159.89184 
L 211.385577 160.22448 
L 211.961726 160.55712 
L 212.537875 160.88976 
L 213.114025 161.2224 
L 213.690174 161.55504 
L 214.266324 161.88768 
L 214.842473 162.22032 
L 215.418622 162.55296 
L 215.994772 162.8856 
L 216.570921 163.21824 
L 217.14707 163.55088 
L 217.72322 163.88352 
L 218.299369 164.21616 
L 218.875519 164.5488 
L 219.451668 164.88144 
L 220.027817 165.21408 
L 220.603967 165.54672 
L 221.180116 165.87936 
L 221.756265 166.212 
L 222.332415 166.54464 
L 222.908564 166.87728 
L 223.484714 167.20992 
L 224.060863 167.54256 
L 224.637012 167.8752 
L 225.213162 168.20784 
L 225.789311 168.54048 
L 226.365461 168.87312 
L 226.94161 169.20576 
L 227.517759 169.5384 
L 228.093909 169.87104 
L 228.670058 170.20368 
L 229.246207 170.53632 
L 229.822357 170.86896 
L 230.398506 171.2016 
L 230.974656 171.53424 
L 231.550805 171.86688 
L 232.126954 172.19952 
L 232.703104 172.53216 
L 233.279253 172.8648 
L 233.855402 173.19744 
L 234.431552 173.53008 
L 235.007701 173.86272 
L 235.583851 174.19536 
z
" style="fill:#fabe28;"/>
   </g>
   <g id="patch_6">
    <path clip-path="url(#pf80f450a76)" d="M 178.545062 141.264 
L 177.861069 142.477892 
L 177.202648 143.705841 
L 176.570088 144.947311 
L 175.963666 146.201755 
L 175.383648 147.468625 
L 174.830288 148.747363 
L 174.30383 150.03741 
L 173.804504 151.338199 
L 173.332529 152.64916 
L 172.888112 153.969717 
L 172.471448 155.299293 
L 172.082721 156.637302 
L 171.722099 157.983159 
L 171.389743 159.336273 
L 171.085796 160.696051 
L 170.810394 162.061896 
L 170.563656 163.433209 
L 170.34569 164.809388 
L 170.156593 166.189831 
L 169.996447 167.57393 
L 169.865323 168.96108 
L 169.763278 170.350672 
L 169.690356 171.742097 
L 169.646591 173.134743 
L 169.632 174.528 
L 169.646591 175.921257 
L 169.690356 177.313903 
L 169.763278 178.705328 
L 169.865323 180.09492 
L 169.996447 181.48207 
L 170.156593 182.866169 
L 170.34569 184.246612 
L 170.563656 185.622791 
L 170.810394 186.994104 
L 171.085796 188.359949 
L 171.389743 189.719727 
L 171.722099 191.072841 
L 172.082721 192.418698 
L 172.471448 193.756707 
L 172.888112 195.086283 
L 173.332529 196.40684 
L 173.804504 197.717801 
L 174.30383 199.01859 
L 174.830288 200.308637 
L 175.383648 201.587375 
L 175.963666 202.854245 
L 176.570088 204.108689 
L 177.202648 205.350159 
L 177.861069 206.578108 
L 178.545062 207.792 
L 179.254327 208.991301 
L 179.988552 210.175485 
L 180.747416 211.344033 
L 181.530585 212.496432 
L 182.337717 213.632177 
L 183.168458 214.75077 
L 184.022442 215.85172 
L 184.899295 216.934543 
L 185.798633 217.998766 
L 186.720061 219.043921 
L 187.663175 220.06955 
L 188.627562 221.075203 
L 189.612797 222.060438 
L 190.61845 223.024825 
L 191.644079 223.967939 
L 192.689234 224.889367 
L 193.753457 225.788705 
L 194.83628 226.665558 
L 195.93723 227.519542 
L 197.055823 228.350283 
L 198.191568 229.157415 
L 199.343967 229.940584 
L 200.512515 230.699448 
L 201.696699 231.433673 
L 202.896 232.142938 
L 204.109892 232.826931 
L 205.337841 233.485352 
L 206.579311 234.117912 
L 207.833755 234.724334 
L 209.100625 235.304352 
L 210.379363 235.857712 
L 211.66941 236.38417 
L 212.970199 236.883496 
L 214.28116 237.355471 
L 215.601717 237.799888 
L 216.931293 238.216552 
L 218.269302 238.605279 
L 219.615159 238.965901 
L 220.968273 239.298257 
L 222.328051 239.602204 
L 223.693896 239.877606 
L 225.065209 240.124344 
L 226.441388 240.34231 
L 227.821831 240.531407 
L 229.20593 240.691553 
L 230.59308 240.822677 
L 231.982672 240.924722 
L 233.374097 240.997644 
L 234.766743 241.041409 
L 236.16 241.056 
L 236.16 241.056 
L 236.16 241.056 
L 236.16 241.056 
L 236.16 241.056 
L 236.16 241.056 
L 236.16 241.056 
L 236.16 241.056 
L 236.16 241.056 
L 236.16 241.056 
L 236.16 241.056 
L 236.16 241.056 
L 236.16 241.056 
L 236.16 241.056 
L 236.16 241.056 
L 236.16 241.056 
L 236.16 241.056 
L 236.16 241.056 
L 236.16 241.056 
L 236.16 241.056 
L 236.16 241.056 
L 236.16 241.056 
L 236.16 241.056 
L 236.16 241.056 
L 236.16 241.056 
L 236.16 241.056 
L 236.16 241.056 
L 236.16 241.056 
L 236.16 241.056 
L 236.16 241.056 
L 236.16 241.056 
L 236.16 241.056 
L 236.16 241.056 
L 236.16 241.056 
L 236.16 241.056 
L 236.16 241.056 
L 236.16 241.056 
L 236.16 241.056 
L 236.16 241.056 
L 236.16 241.056 
L 236.16 241.056 
L 236.16 241.056 
L 236.16 241.056 
L 236.16 241.056 
L 236.16 241.056 
L 236.16 241.056 
L 236.16 241.056 
L 236.16 241.056 
L 236.16 241.056 
L 236.16 241.056 
L 236.16 241.056 
L 236.16 241.056 
L 236.16 241.056 
L 236.16 241.056 
L 236.16 241.056 
L 236.16 241.056 
L 236.16 241.056 
L 236.16 241.056 
L 236.16 241.056 
L 236.16 241.056 
L 236.16 241.056 
L 236.16 241.056 
L 236.16 241.056 
L 236.16 241.056 
L 236.16 241.056 
L 236.16 241.056 
L 236.16 241.056 
L 236.16 241.056 
L 236.16 241.056 
L 236.16 241.056 
L 236.16 241.056 
L 236.16 241.056 
L 236.16 241.056 
L 236.16 241.056 
L 236.16 241.056 
L 236.16 241.056 
L 236.16 241.056 
L 236.16 241.056 
L 236.16 241.056 
L 236.16 241.056 
L 236.16 241.056 
L 236.16 241.056 
L 236.16 241.056 
L 236.16 241.056 
L 236.16 241.056 
L 236.16 241.056 
L 236.16 241.056 
L 236.16 241.056 
L 236.16 241.056 
L 236.16 241.056 
L 236.16 241.056 
L 236.16 241.056 
L 236.16 241.056 
L 236.16 241.056 
L 236.16 241.056 
L 236.16 241.056 
L 236.16 241.056 
L 236.16 241.056 
L 236.16 241.056 
L 236.16 241.056 
L 236.16 241.056 
L 234.766743 241.041409 
L 233.374097 240.997644 
L 231.982672 240.924722 
L 230.59308 240.822677 
L 229.20593 240.691553 
L 227.821831 240.531407 
L 226.441388 240.34231 
L 225.065209 240.124344 
L 223.693896 239.877606 
L 222.328051 239.602204 
L 220.968273 239.298257 
L 219.615159 238.965901 
L 218.269302 238.605279 
L 216.931293 238.216552 
L 215.601717 237.799888 
L 214.28116 237.355471 
L 212.970199 236.883496 
L 211.66941 236.38417 
L 210.379363 235.857712 
L 209.100625 235.304352 
L 207.833755 234.724334 
L 206.579311 234.117912 
L 205.337841 233.485352 
L 204.109892 232.826931 
L 202.896 232.142938 
L 201.696699 231.433673 
L 200.512515 230.699448 
L 199.343967 229.940584 
L 198.191568 229.157415 
L 197.055823 228.350283 
L 195.93723 227.519542 
L 194.83628 226.665558 
L 193.753457 225.788705 
L 192.689234 224.889367 
L 191.644079 223.967939 
L 190.61845 223.024825 
L 189.612797 222.060438 
L 188.627562 221.075203 
L 187.663175 220.06955 
L 186.720061 219.043921 
L 185.798633 217.998766 
L 184.899295 216.934543 
L 184.022442 215.85172 
L 183.168458 214.75077 
L 182.337717 213.632177 
L 181.530585 212.496432 
L 180.747416 211.344033 
L 179.988552 210.175485 
L 179.254327 208.991301 
L 178.545062 207.792 
L 177.861069 206.578108 
L 177.202648 205.350159 
L 176.570088 204.108689 
L 175.963666 202.854245 
L 175.383648 201.587375 
L 174.830288 200.308637 
L 174.30383 199.01859 
L 173.804504 197.717801 
L 173.332529 196.40684 
L 172.888112 195.086283 
L 172.471448 193.756707 
L 172.082721 192.418698 
L 171.722099 191.072841 
L 171.389743 189.719727 
L 171.085796 188.359949 
L 170.810394 186.994104 
L 170.563656 185.622791 
L 170.34569 184.246612 
L 170.156593 182.866169 
L 169.996447 181.48207 
L 169.865323 180.09492 
L 169.763278 178.705328 
L 169.690356 177.313903 
L 169.646591 175.921257 
L 169.632 174.528 
L 169.646591 173.134743 
L 169.690356 171.742097 
L 169.763278 170.350672 
L 169.865323 168.96108 
L 169.996447 167.57393 
L 170.156593 166.189831 
L 170.34569 164.809388 
L 170.563656 163.433209 
L 170.810394 162.061896 
L 171.085796 160.696051 
L 171.389743 159.336273 
L 171.722099 157.983159 
L 172.082721 156.637302 
L 172.471448 155.299293 
L 172.888112 153.969717 
L 173.332529 152.64916 
L 173.804504 151.338199 
L 174.30383 150.03741 
L 174.830288 148.747363 
L 175.383648 147.468625 
L 175.963666 146.201755 
L 176.570088 144.947311 
L 177.202648 143.705841 
L 177.861069 142.477892 
L 178.545062 141.264 
L 178.545062 141.264 
L 178.545062 141.264 
L 178.545062 141.264 
L 178.545062 141.264 
L 178.545062 141.264 
L 178.545062 141.264 
L 178.545062 141.264 
L 178.545062 141.264 
L 178.545062 141.264 
L 178.545062 141.264 
L 178.545062 141.264 
L 178.545062 141.264 
L 178.545062 141.264 
L 178.545062 141.264 
L 178.545062 141.264 
L 178.545062 141.264 
L 178.545062 141.264 
L 178.545062 141.264 
L 178.545062 141.264 
L 178.545062 141.264 
L 178.545062 141.264 
L 178.545062 141.264 
L 178.545062 141.264 
L 178.545062 141.264 
L 178.545062 141.264 
L 178.545062 141.264 
L 178.545062 141.264 
L 178.545062 141.264 
L 178.545062 141.264 
L 178.545062 141.264 
L 178.545062 141.264 
L 178.545062 141.264 
L 178.545062 141.264 
L 178.545062 141.264 
L 178.545062 141.264 
L 178.545062 141.264 
L 178.545062 141.264 
L 178.545062 141.264 
L 178.545062 141.264 
L 178.545062 141.264 
L 178.545062 141.264 
L 178.545062 141.264 
L 178.545062 141.264 
L 178.545062 141.264 
L 178.545062 141.264 
L 178.545062 141.264 
L 178.545062 141.264 
L 178.545062 141.264 
L 178.545062 141.264 
L 178.545062 141.264 
L 178.545062 141.264 
L 178.545062 141.264 
L 178.545062 141.264 
L 178.545062 141.264 
L 178.545062 141.264 
L 178.545062 141.264 
L 178.545062 141.264 
L 178.545062 141.264 
L 178.545062 141.264 
L 178.545062 141.264 
L 178.545062 141.264 
L 178.545062 141.264 
L 178.545062 141.264 
L 178.545062 141.264 
L 178.545062 141.264 
L 178.545062 141.264 
L 178.545062 141.264 
L 178.545062 141.264 
L 178.545062 141.264 
L 178.545062 141.264 
L 178.545062 141.264 
L 178.545062 141.264 
L 178.545062 141.264 
L 178.545062 141.264 
L 178.545062 141.264 
L 178.545062 141.264 
L 178.545062 141.264 
L 178.545062 141.264 
L 178.545062 141.264 
L 178.545062 141.264 
L 178.545062 141.264 
L 178.545062 141.264 
L 178.545062 141.264 
L 178.545062 141.264 
L 178.545062 141.264 
L 178.545062 141.264 
L 178.545062 141.264 
L 178.545062 141.264 
L 178.545062 141.264 
L 178.545062 141.264 
L 178.545062 141.264 
L 178.545062 141.264 
L 178.545062 141.264 
L 178.545062 141.264 
L 178.545062 141.264 
L 178.545062 141.264 
L 178.545062 141.264 
L 178.545062 141.264 
L 178.545062 141.264 
z
" style="fill:#ff003c;"/>
   </g>
   <g id="patch_7">
    <path clip-path="url(#pf80f450a76)" d="M 178.545062 141.264 
L 177.861069 142.477892 
L 177.202648 143.705841 
L 176.570088 144.947311 
L 175.963666 146.201755 
L 175.383648 147.468625 
L 174.830288 148.747363 
L 174.30383 150.03741 
L 173.804504 151.338199 
L 173.332529 152.64916 
L 172.888112 153.969717 
L 172.471448 155.299293 
L 172.082721 156.637302 
L 171.722099 157.983159 
L 171.389743 159.336273 
L 171.085796 160.696051 
L 170.810394 162.061896 
L 170.563656 163.433209 
L 170.34569 164.809388 
L 170.156593 166.189831 
L 169.996447 167.57393 
L 169.865323 168.96108 
L 169.763278 170.350672 
L 169.690356 171.742097 
L 169.646591 173.134743 
L 169.632 174.528 
L 169.646591 175.921257 
L 169.690356 177.313903 
L 169.763278 178.705328 
L 169.865323 180.09492 
L 169.996447 181.48207 
L 170.156593 182.866169 
L 170.34569 184.246612 
L 170.563656 185.622791 
L 170.810394 186.994104 
L 171.085796 188.359949 
L 171.389743 189.719727 
L 171.722099 191.072841 
L 172.082721 192.418698 
L 172.471448 193.756707 
L 172.888112 195.086283 
L 173.332529 196.40684 
L 173.804504 197.717801 
L 174.30383 199.01859 
L 174.830288 200.308637 
L 175.383648 201.587375 
L 175.963666 202.854245 
L 176.570088 204.108689 
L 177.202648 205.350159 
L 177.861069 206.578108 
L 178.545062 207.792 
L 179.254327 208.991301 
L 179.988552 210.175485 
L 180.747416 211.344033 
L 181.530585 212.496432 
L 182.337717 213.632177 
L 183.168458 214.75077 
L 184.022442 215.85172 
L 184.899295 216.934543 
L 185.798633 217.998766 
L 186.720061 219.043921 
L 187.663175 220.06955 
L 188.627562 221.075203 
L 189.612797 222.060438 
L 190.61845 223.024825 
L 191.644079 223.967939 
L 192.689234 224.889367 
L 193.753457 225.788705 
L 194.83628 226.665558 
L 195.93723 227.519542 
L 197.055823 228.350283 
L 198.191568 229.157415 
L 199.343967 229.940584 
L 200.512515 230.699448 
L 201.696699 231.433673 
L 202.896 232.142938 
L 204.109892 232.826931 
L 205.337841 233.485352 
L 206.579311 234.117912 
L 207.833755 234.724334 
L 209.100625 235.304352 
L 210.379363 235.857712 
L 211.66941 236.38417 
L 212.970199 236.883496 
L 214.28116 237.355471 
L 215.601717 237.799888 
L 216.931293 238.216552 
L 218.269302 238.605279 
L 219.615159 238.965901 
L 220.968273 239.298257 
L 222.328051 239.602204 
L 223.693896 239.877606 
L 225.065209 240.124344 
L 226.441388 240.34231 
L 227.821831 240.531407 
L 229.20593 240.691553 
L 230.59308 240.822677 
L 231.982672 240.924722 
L 233.374097 240.997644 
L 234.766743 241.041409 
L 236.16 241.056 
L 236.16 241.056 
L 236.16 241.056 
L 236.16 241.056 
L 236.16 241.056 
L 236.16 241.056 
L 236.16 241.056 
L 236.16 241.056 
L 236.16 241.056 
L 236.16 241.056 
L 236.16 241.056 
L 236.16 241.056 
L 236.16 241.056 
L 236.16 241.056 
L 236.16 241.056 
L 236.16 241.056 
L 236.16 241.056 
L 236.16 241.056 
L 236.16 241.056 
L 236.16 241.056 
L 236.16 241.056 
L 236.16 241.056 
L 236.16 241.056 
L 236.16 241.056 
L 236.16 241.056 
L 236.16 241.056 
L 236.16 241.056 
L 236.16 241.056 
L 236.16 241.056 
L 236.16 241.056 
L 236.16 241.056 
L 236.16 241.056 
L 236.16 241.056 
L 236.16 241.056 
L 236.16 241.056 
L 236.16 241.056 
L 236.16 241.056 
L 236.16 241.056 
L 236.16 241.056 
L 236.16 241.056 
L 236.16 241.056 
L 236.16 241.056 
L 236.16 241.056 
L 236.16 241.056 
L 236.16 241.056 
L 236.16 241.056 
L 236.16 241.056 
L 236.16 241.056 
L 236.16 241.056 
L 236.16 241.056 
L 236.16 241.056 
L 236.16 241.056 
L 236.16 241.056 
L 236.16 241.056 
L 236.16 241.056 
L 236.16 241.056 
L 236.16 241.056 
L 236.16 241.056 
L 236.16 241.056 
L 236.16 241.056 
L 236.16 241.056 
L 236.16 241.056 
L 236.16 241.056 
L 236.16 241.056 
L 236.16 241.056 
L 236.16 241.056 
L 236.16 241.056 
L 236.16 241.056 
L 236.16 241.056 
L 236.16 241.056 
L 236.16 241.056 
L 236.16 241.056 
L 236.16 241.056 
L 236.16 241.056 
L 236.16 241.056 
L 236.16 241.056 
L 236.16 241.056 
L 236.16 241.056 
L 236.16 241.056 
L 236.16 241.056 
L 236.16 241.056 
L 236.16 241.056 
L 236.16 241.056 
L 236.16 241.056 
L 236.16 241.056 
L 236.16 241.056 
L 236.16 241.056 
L 236.16 241.056 
L 236.16 241.056 
L 236.16 241.056 
L 236.16 241.056 
L 236.16 241.056 
L 236.16 241.056 
L 236.16 241.056 
L 236.16 241.056 
L 236.16 241.056 
L 236.16 241.056 
L 236.16 241.056 
L 236.16 241.056 
L 236.16 241.056 
L 236.16 241.056 
L 234.766743 241.041409 
L 233.374097 240.997644 
L 231.982672 240.924722 
L 230.59308 240.822677 
L 229.20593 240.691553 
L 227.821831 240.531407 
L 226.441388 240.34231 
L 225.065209 240.124344 
L 223.693896 239.877606 
L 222.328051 239.602204 
L 220.968273 239.298257 
L 219.615159 238.965901 
L 218.269302 238.605279 
L 216.931293 238.216552 
L 215.601717 237.799888 
L 214.28116 237.355471 
L 212.970199 236.883496 
L 211.66941 236.38417 
L 210.379363 235.857712 
L 209.100625 235.304352 
L 207.833755 234.724334 
L 206.579311 234.117912 
L 205.337841 233.485352 
L 204.109892 232.826931 
L 202.896 232.142938 
L 201.696699 231.433673 
L 200.512515 230.699448 
L 199.343967 229.940584 
L 198.191568 229.157415 
L 197.055823 228.350283 
L 195.93723 227.519542 
L 194.83628 226.665558 
L 193.753457 225.788705 
L 192.689234 224.889367 
L 191.644079 223.967939 
L 190.61845 223.024825 
L 189.612797 222.060438 
L 188.627562 221.075203 
L 187.663175 220.06955 
L 186.720061 219.043921 
L 185.798633 217.998766 
L 184.899295 216.934543 
L 184.022442 215.85172 
L 183.168458 214.75077 
L 182.337717 213.632177 
L 181.530585 212.496432 
L 180.747416 211.344033 
L 179.988552 210.175485 
L 179.254327 208.991301 
L 178.545062 207.792 
L 177.861069 206.578108 
L 177.202648 205.350159 
L 176.570088 204.108689 
L 175.963666 202.854245 
L 175.383648 201.587375 
L 174.830288 200.308637 
L 174.30383 199.01859 
L 173.804504 197.717801 
L 173.332529 196.40684 
L 172.888112 195.086283 
L 172.471448 193.756707 
L 172.082721 192.418698 
L 171.722099 191.072841 
L 171.389743 189.719727 
L 171.085796 188.359949 
L 170.810394 186.994104 
L 170.563656 185.622791 
L 170.34569 184.246612 
L 170.156593 182.866169 
L 169.996447 181.48207 
L 169.865323 180.09492 
L 169.763278 178.705328 
L 169.690356 177.313903 
L 169.646591 175.921257 
L 169.632 174.528 
L 169.646591 173.134743 
L 169.690356 171.742097 
L 169.763278 170.350672 
L 169.865323 168.96108 
L 169.996447 167.57393 
L 170.156593 166.189831 
L 170.34569 164.809388 
L 170.563656 163.433209 
L 170.810394 162.061896 
L 171.085796 160.696051 
L 171.389743 159.336273 
L 171.722099 157.983159 
L 172.082721 156.637302 
L 172.471448 155.299293 
L 172.888112 153.969717 
L 173.332529 152.64916 
L 173.804504 151.338199 
L 174.30383 150.03741 
L 174.830288 148.747363 
L 175.383648 147.468625 
L 175.963666 146.201755 
L 176.570088 144.947311 
L 177.202648 143.705841 
L 177.861069 142.477892 
L 178.545062 141.264 
L 178.545062 141.264 
L 178.545062 141.264 
L 178.545062 141.264 
L 178.545062 141.264 
L 178.545062 141.264 
L 178.545062 141.264 
L 178.545062 141.264 
L 178.545062 141.264 
L 178.545062 141.264 
L 178.545062 141.264 
L 178.545062 141.264 
L 178.545062 141.264 
L 178.545062 141.264 
L 178.545062 141.264 
L 178.545062 141.264 
L 178.545062 141.264 
L 178.545062 141.264 
L 178.545062 141.264 
L 178.545062 141.264 
L 178.545062 141.264 
L 178.545062 141.264 
L 178.545062 141.264 
L 178.545062 141.264 
L 178.545062 141.264 
L 178.545062 141.264 
L 178.545062 141.264 
L 178.545062 141.264 
L 178.545062 141.264 
L 178.545062 141.264 
L 178.545062 141.264 
L 178.545062 141.264 
L 178.545062 141.264 
L 178.545062 141.264 
L 178.545062 141.264 
L 178.545062 141.264 
L 178.545062 141.264 
L 178.545062 141.264 
L 178.545062 141.264 
L 178.545062 141.264 
L 178.545062 141.264 
L 178.545062 141.264 
L 178.545062 141.264 
L 178.545062 141.264 
L 178.545062 141.264 
L 178.545062 141.264 
L 178.545062 141.264 
L 178.545062 141.264 
L 178.545062 141.264 
L 178.545062 141.264 
L 178.545062 141.264 
L 178.545062 141.264 
L 178.545062 141.264 
L 178.545062 141.264 
L 178.545062 141.264 
L 178.545062 141.264 
L 178.545062 141.264 
L 178.545062 141.264 
L 178.545062 141.264 
L 178.545062 141.264 
L 178.545062 141.264 
L 178.545062 141.264 
L 178.545062 141.264 
L 178.545062 141.264 
L 178.545062 141.264 
L 178.545062 141.264 
L 178.545062 141.264 
L 178.545062 141.264 
L 178.545062 141.264 
L 178.545062 141.264 
L 178.545062 141.264 
L 178.545062 141.264 
L 178.545062 141.264 
L 178.545062 141.264 
L 178.545062 141.264 
L 178.545062 141.264 
L 178.545062 141.264 
L 178.545062 141.264 
L 178.545062 141.264 
L 178.545062 141.264 
L 178.545062 141.264 
L 178.545062 141.264 
L 178.545062 141.264 
L 178.545062 141.264 
L 178.545062 141.264 
L 178.545062 141.264 
L 178.545062 141.264 
L 178.545062 141.264 
L 178.545062 141.264 
L 178.545062 141.264 
L 178.545062 141.264 
L 178.545062 141.264 
L 178.545062 141.264 
L 178.545062 141.264 
L 178.545062 141.264 
L 178.545062 141.264 
L 178.545062 141.264 
L 178.545062 141.264 
L 178.545062 141.264 
L 178.545062 141.264 
z
" style="fill:#88c100;"/>
   </g>
   <g id="patch_8">
    <path clip-path="url(#pf80f450a76)" d="M 236.16 174.528 
L 236.16 174.528 
L 236.16 174.528 
L 236.16 174.528 
L 236.16 174.528 
L 236.16 174.528 
L 236.16 174.528 
L 236.16 174.528 
L 236.16 174.528 
L 236.16 174.528 
L 236.16 174.528 
L 236.16 174.528 
L 236.16 174.528 
L 236.16 174.528 
L 236.16 174.528 
L 236.16 174.528 
L 236.16 174.528 
L 236.16 174.528 
L 236.16 174.528 
L 236.16 174.528 
L 236.16 174.528 
L 236.16 174.528 
L 236.16 174.528 
L 236.16 174.528 
L 236.16 174.528 
L 236.16 174.528 
L 236.16 174.528 
L 236.16 174.528 
L 236.16 174.528 
L 236.16 174.528 
L 236.16 174.528 
L 236.16 174.528 
L 236.16 174.528 
L 236.16 174.528 
L 236.16 174.528 
L 236.16 174.528 
L 236.16 174.528 
L 236.16 174.528 
L 236.16 174.528 
L 236.16 174.528 
L 236.16 174.528 
L 236.16 174.528 
L 236.16 174.528 
L 236.16 174.528 
L 236.16 174.528 
L 236.16 174.528 
L 236.16 174.528 
L 236.16 174.528 
L 236.16 174.528 
L 236.16 174.528 
L 236.16 174.528 
L 236.16 174.528 
L 236.16 174.528 
L 236.16 174.528 
L 236.16 174.528 
L 236.16 174.528 
L 236.16 174.528 
L 236.16 174.528 
L 236.16 174.528 
L 236.16 174.528 
L 236.16 174.528 
L 236.16 174.528 
L 236.16 174.528 
L 236.16 174.528 
L 236.16 174.528 
L 236.16 174.528 
L 236.16 174.528 
L 236.16 174.528 
L 236.16 174.528 
L 236.16 174.528 
L 236.16 174.528 
L 236.16 174.528 
L 236.16 174.528 
L 236.16 174.528 
L 236.16 174.528 
L 236.16 174.528 
L 236.16 174.528 
L 236.16 174.528 
L 236.16 174.528 
L 236.16 174.528 
L 236.16 174.528 
L 236.16 174.528 
L 236.16 174.528 
L 236.16 174.528 
L 236.16 174.528 
L 236.16 174.528 
L 236.16 174.528 
L 236.16 174.528 
L 236.16 174.528 
L 236.16 174.528 
L 236.16 174.528 
L 236.16 174.528 
L 236.16 174.528 
L 236.16 174.528 
L 236.16 174.528 
L 236.16 174.528 
L 236.16 174.528 
L 236.16 174.528 
L 236.16 174.528 
L 236.16 174.528 
L 236.16 174.528 
L 237.312299 173.86272 
L 238.464598 173.19744 
L 239.616896 172.53216 
L 240.769195 171.86688 
L 241.921494 171.2016 
L 243.073793 170.53632 
L 244.226091 169.87104 
L 245.37839 169.20576 
L 246.530689 168.54048 
L 247.682988 167.8752 
L 248.835286 167.20992 
L 249.987585 166.54464 
L 251.139884 165.87936 
L 252.292183 165.21408 
L 253.444481 164.5488 
L 254.59678 163.88352 
L 255.749079 163.21824 
L 256.901378 162.55296 
L 258.053676 161.88768 
L 259.205975 161.2224 
L 260.358274 160.55712 
L 261.510573 159.89184 
L 262.662872 159.22656 
L 263.81517 158.56128 
L 264.967469 157.896 
L 266.119768 157.23072 
L 267.272067 156.56544 
L 268.424365 155.90016 
L 269.576664 155.23488 
L 270.728963 154.5696 
L 271.881262 153.90432 
L 273.03356 153.23904 
L 274.185859 152.57376 
L 275.338158 151.90848 
L 276.490457 151.2432 
L 277.642755 150.57792 
L 278.795054 149.91264 
L 279.947353 149.24736 
L 281.099652 148.58208 
L 282.25195 147.9168 
L 283.404249 147.25152 
L 284.556548 146.58624 
L 285.708847 145.92096 
L 286.861145 145.25568 
L 288.013444 144.5904 
L 289.165743 143.92512 
L 290.318042 143.25984 
L 291.470341 142.59456 
L 292.622639 141.92928 
L 293.774938 141.264 
L 294.927237 140.59872 
L 296.079536 139.93344 
L 297.231834 139.26816 
L 298.384133 138.60288 
L 299.536432 137.9376 
L 300.688731 137.27232 
L 301.841029 136.60704 
L 302.993328 135.94176 
L 304.145627 135.27648 
L 305.297926 134.6112 
L 306.450224 133.94592 
L 307.602523 133.28064 
L 308.754822 132.61536 
L 309.907121 131.95008 
L 311.059419 131.2848 
L 312.211718 130.61952 
L 313.364017 129.95424 
L 314.516316 129.28896 
L 315.668615 128.62368 
L 316.820913 127.9584 
L 317.973212 127.29312 
L 319.125511 126.62784 
L 320.27781 125.96256 
L 321.430108 125.29728 
L 322.582407 124.632 
L 323.734706 123.96672 
L 324.887005 123.30144 
L 326.039303 122.63616 
L 327.191602 121.97088 
L 328.343901 121.3056 
L 329.4962 120.64032 
L 330.648498 119.97504 
L 331.800797 119.30976 
L 332.953096 118.64448 
L 334.105395 117.9792 
L 335.257693 117.31392 
L 336.409992 116.64864 
L 337.562291 115.98336 
L 338.71459 115.31808 
L 339.866889 114.6528 
L 341.019187 113.98752 
L 342.171486 113.32224 
L 343.323785 112.65696 
L 344.476084 111.99168 
L 345.628382 111.3264 
L 346.780681 110.66112 
L 347.93298 109.99584 
L 349.085279 109.33056 
L 350.237577 108.66528 
L 351.389876 108 
L 352.757862 110.427783 
L 354.074703 112.883683 
L 355.339824 115.366622 
L 356.552668 117.875511 
L 357.712704 120.409249 
L 358.819423 122.966726 
L 359.87234 125.54682 
L 360.870992 128.148398 
L 361.814942 130.770319 
L 362.703776 133.411435 
L 363.537103 136.070585 
L 364.314558 138.746604 
L 365.035801 141.438318 
L 365.700515 144.144547 
L 366.308407 146.864102 
L 366.859212 149.595792 
L 367.352689 152.338418 
L 367.78862 155.090777 
L 368.166814 157.851661 
L 368.487105 160.619861 
L 368.749354 163.394161 
L 368.953444 166.173345 
L 369.099287 168.956193 
L 369.186819 171.741485 
L 369.216 174.528 
L 369.186819 177.314515 
L 369.099287 180.099807 
L 368.953444 182.882655 
L 368.749354 185.661839 
L 368.487105 188.436139 
L 368.166814 191.204339 
L 367.78862 193.965223 
L 367.352689 196.717582 
L 366.859212 199.460208 
L 366.308407 202.191898 
L 365.700515 204.911453 
L 365.035801 207.617682 
L 364.314558 210.309396 
L 363.537103 212.985415 
L 362.703776 215.644565 
L 361.814942 218.285681 
L 360.870992 220.907602 
L 359.87234 223.50918 
L 358.819423 226.089274 
L 357.712704 228.646751 
L 356.552668 231.180489 
L 355.339824 233.689378 
L 354.074703 236.172317 
L 352.757862 238.628217 
L 351.389876 241.056 
L 349.971347 243.454602 
L 348.502896 245.82297 
L 346.985169 248.160066 
L 345.418829 250.464864 
L 343.804565 252.736355 
L 342.143085 254.97354 
L 340.435117 257.175439 
L 338.68141 259.341086 
L 336.882734 261.469532 
L 335.039878 263.559842 
L 333.15365 265.6111 
L 331.224877 267.622405 
L 329.254405 269.592877 
L 327.2431 271.52165 
L 325.191842 273.407878 
L 323.101532 275.250734 
L 320.973086 277.04941 
L 318.807439 278.803117 
L 316.60554 280.511085 
L 314.368355 282.172565 
L 312.096864 283.786829 
L 309.792066 285.353169 
L 307.45497 286.870896 
L 305.086602 288.339347 
L 302.688 289.757876 
L 300.260217 291.125862 
L 297.804317 292.442703 
L 295.321378 293.707824 
L 292.812489 294.920668 
L 290.278751 296.080704 
L 287.721274 297.187423 
L 285.14118 298.24034 
L 282.539602 299.238992 
L 279.917681 300.182942 
L 277.276565 301.071776 
L 274.617415 301.905103 
L 271.941396 302.682558 
L 269.249682 303.403801 
L 266.543453 304.068515 
L 263.823898 304.676407 
L 261.092208 305.227212 
L 258.349582 305.720689 
L 255.597223 306.15662 
L 252.836339 306.534814 
L 250.068139 306.855105 
L 247.293839 307.117354 
L 244.514655 307.321444 
L 241.731807 307.467287 
L 238.946515 307.554819 
L 236.16 307.584 
L 236.16 306.25344 
L 236.16 304.92288 
L 236.16 303.59232 
L 236.16 302.26176 
L 236.16 300.9312 
L 236.16 299.60064 
L 236.16 298.27008 
L 236.16 296.93952 
L 236.16 295.60896 
L 236.16 294.2784 
L 236.16 292.94784 
L 236.16 291.61728 
L 236.16 290.28672 
L 236.16 288.95616 
L 236.16 287.6256 
L 236.16 286.29504 
L 236.16 284.96448 
L 236.16 283.63392 
L 236.16 282.30336 
L 236.16 280.9728 
L 236.16 279.64224 
L 236.16 278.31168 
L 236.16 276.98112 
L 236.16 275.65056 
L 236.16 274.32 
L 236.16 272.98944 
L 236.16 271.65888 
L 236.16 270.32832 
L 236.16 268.99776 
L 236.16 267.6672 
L 236.16 266.33664 
L 236.16 265.00608 
L 236.16 263.67552 
L 236.16 262.34496 
L 236.16 261.0144 
L 236.16 259.68384 
L 236.16 258.35328 
L 236.16 257.02272 
L 236.16 255.69216 
L 236.16 254.3616 
L 236.16 253.03104 
L 236.16 251.70048 
L 236.16 250.36992 
L 236.16 249.03936 
L 236.16 247.7088 
L 236.16 246.37824 
L 236.16 245.04768 
L 236.16 243.71712 
L 236.16 242.38656 
L 236.16 241.056 
L 236.16 239.72544 
L 236.16 238.39488 
L 236.16 237.06432 
L 236.16 235.73376 
L 236.16 234.4032 
L 236.16 233.07264 
L 236.16 231.74208 
L 236.16 230.41152 
L 236.16 229.08096 
L 236.16 227.7504 
L 236.16 226.41984 
L 236.16 225.08928 
L 236.16 223.75872 
L 236.16 222.42816 
L 236.16 221.0976 
L 236.16 219.76704 
L 236.16 218.43648 
L 236.16 217.10592 
L 236.16 215.77536 
L 236.16 214.4448 
L 236.16 213.11424 
L 236.16 211.78368 
L 236.16 210.45312 
L 236.16 209.12256 
L 236.16 207.792 
L 236.16 206.46144 
L 236.16 205.13088 
L 236.16 203.80032 
L 236.16 202.46976 
L 236.16 201.1392 
L 236.16 199.80864 
L 236.16 198.47808 
L 236.16 197.14752 
L 236.16 195.81696 
L 236.16 194.4864 
L 236.16 193.15584 
L 236.16 191.82528 
L 236.16 190.49472 
L 236.16 189.16416 
L 236.16 187.8336 
L 236.16 186.50304 
L 236.16 185.17248 
L 236.16 183.84192 
L 236.16 182.51136 
L 236.16 181.1808 
L 236.16 179.85024 
L 236.16 178.51968 
L 236.16 177.18912 
L 236.16 175.85856 
z
" style="fill:#fabe28;"/>
   </g>
   <g id="patch_9">
    <path clip-path="url(#pf80f450a76)" d="M 236.16 307.584 
L 238.946515 307.554819 
L 241.731807 307.467287 
L 244.514655 307.321444 
L 247.293839 307.117354 
L 250.068139 306.855105 
L 252.836339 306.534814 
L 255.597223 306.15662 
L 258.349582 305.720689 
L 261.092208 305.227212 
L 263.823898 304.676407 
L 266.543453 304.068515 
L 269.249682 303.403801 
L 271.941396 302.682558 
L 274.617415 301.905103 
L 277.276565 301.071776 
L 279.917681 300.182942 
L 282.539602 299.238992 
L 285.14118 298.24034 
L 287.721274 297.187423 
L 290.278751 296.080704 
L 292.812489 294.920668 
L 295.321378 293.707824 
L 297.804317 292.442703 
L 300.260217 291.125862 
L 302.688 289.757876 
L 305.086602 288.339347 
L 307.45497 286.870896 
L 309.792066 285.353169 
L 312.096864 283.786829 
L 314.368355 282.172565 
L 316.60554 280.511085 
L 318.807439 278.803117 
L 320.973086 277.04941 
L 323.101532 275.250734 
L 325.191842 273.407878 
L 327.2431 271.52165 
L 329.254405 269.592877 
L 331.224877 267.622405 
L 333.15365 265.6111 
L 335.039878 263.559842 
L 336.882734 261.469532 
L 338.68141 259.341086 
L 340.435117 257.175439 
L 342.143085 254.97354 
L 343.804565 252.736355 
L 345.418829 250.464864 
L 346.985169 248.160066 
L 348.502896 245.82297 
L 349.971347 243.454602 
L 351.389876 241.056 
L 352.757862 238.628217 
L 354.074703 236.172317 
L 355.339824 233.689378 
L 356.552668 231.180489 
L 357.712704 228.646751 
L 358.819423 226.089274 
L 359.87234 223.50918 
L 360.870992 220.907602 
L 361.814942 218.285681 
L 362.703776 215.644565 
L 363.537103 212.985415 
L 364.314558 210.309396 
L 365.035801 207.617682 
L 365.700515 204.911453 
L 366.308407 202.191898 
L 366.859212 199.460208 
L 367.352689 196.717582 
L 367.78862 193.965223 
L 368.166814 191.204339 
L 368.487105 188.436139 
L 368.749354 185.661839 
L 368.953444 182.882655 
L 369.099287 180.099807 
L 369.186819 177.314515 
L 369.216 174.528 
L 369.186819 171.741485 
L 369.099287 168.956193 
L 368.953444 166.173345 
L 368.749354 163.394161 
L 368.487105 160.619861 
L 368.166814 157.851661 
L 367.78862 155.090777 
L 367.352689 152.338418 
L 366.859212 149.595792 
L 366.308407 146.864102 
L 365.700515 144.144547 
L 365.035801 141.438318 
L 364.314558 138.746604 
L 363.537103 136.070585 
L 362.703776 133.411435 
L 361.814942 130.770319 
L 360.870992 128.148398 
L 359.87234 125.54682 
L 358.819423 122.966726 
L 357.712704 120.409249 
L 356.552668 117.875511 
L 355.339824 115.366622 
L 354.074703 112.883683 
L 352.757862 110.427783 
L 351.389876 108 
L 351.389876 108 
L 351.389876 108 
L 351.389876 108 
L 351.389876 108 
L 351.389876 108 
L 351.389876 108 
L 351.389876 108 
L 351.389876 108 
L 351.389876 108 
L 351.389876 108 
L 351.389876 108 
L 351.389876 108 
L 351.389876 108 
L 351.389876 108 
L 351.389876 108 
L 351.389876 108 
L 351.389876 108 
L 351.389876 108 
L 351.389876 108 
L 351.389876 108 
L 351.389876 108 
L 351.389876 108 
L 351.389876 108 
L 351.389876 108 
L 351.389876 108 
L 351.389876 108 
L 351.389876 108 
L 351.389876 108 
L 351.389876 108 
L 351.389876 108 
L 351.389876 108 
L 351.389876 108 
L 351.389876 108 
L 351.389876 108 
L 351.389876 108 
L 351.389876 108 
L 351.389876 108 
L 351.389876 108 
L 351.389876 108 
L 351.389876 108 
L 351.389876 108 
L 351.389876 108 
L 351.389876 108 
L 351.389876 108 
L 351.389876 108 
L 351.389876 108 
L 351.389876 108 
L 351.389876 108 
L 351.389876 108 
L 351.389876 108 
L 351.389876 108 
L 351.389876 108 
L 351.389876 108 
L 351.389876 108 
L 351.389876 108 
L 351.389876 108 
L 351.389876 108 
L 351.389876 108 
L 351.389876 108 
L 351.389876 108 
L 351.389876 108 
L 351.389876 108 
L 351.389876 108 
L 351.389876 108 
L 351.389876 108 
L 351.389876 108 
L 351.389876 108 
L 351.389876 108 
L 351.389876 108 
L 351.389876 108 
L 351.389876 108 
L 351.389876 108 
L 351.389876 108 
L 351.389876 108 
L 351.389876 108 
L 351.389876 108 
L 351.389876 108 
L 351.389876 108 
L 351.389876 108 
L 351.389876 108 
L 351.389876 108 
L 351.389876 108 
L 351.389876 108 
L 351.389876 108 
L 351.389876 108 
L 351.389876 108 
L 351.389876 108 
L 351.389876 108 
L 351.389876 108 
L 351.389876 108 
L 351.389876 108 
L 351.389876 108 
L 351.389876 108 
L 351.389876 108 
L 351.389876 108 
L 351.389876 108 
L 351.389876 108 
L 351.389876 108 
L 351.389876 108 
L 351.389876 108 
L 352.757862 110.427783 
L 354.074703 112.883683 
L 355.339824 115.366622 
L 356.552668 117.875511 
L 357.712704 120.409249 
L 358.819423 122.966726 
L 359.87234 125.54682 
L 360.870992 128.148398 
L 361.814942 130.770319 
L 362.703776 133.411435 
L 363.537103 136.070585 
L 364.314558 138.746604 
L 365.035801 141.438318 
L 365.700515 144.144547 
L 366.308407 146.864102 
L 366.859212 149.595792 
L 367.352689 152.338418 
L 367.78862 155.090777 
L 368.166814 157.851661 
L 368.487105 160.619861 
L 368.749354 163.394161 
L 368.953444 166.173345 
L 369.099287 168.956193 
L 369.186819 171.741485 
L 369.216 174.528 
L 369.186819 177.314515 
L 369.099287 180.099807 
L 368.953444 182.882655 
L 368.749354 185.661839 
L 368.487105 188.436139 
L 368.166814 191.204339 
L 367.78862 193.965223 
L 367.352689 196.717582 
L 366.859212 199.460208 
L 366.308407 202.191898 
L 365.700515 204.911453 
L 365.035801 207.617682 
L 364.314558 210.309396 
L 363.537103 212.985415 
L 362.703776 215.644565 
L 361.814942 218.285681 
L 360.870992 220.907602 
L 359.87234 223.50918 
L 358.819423 226.089274 
L 357.712704 228.646751 
L 356.552668 231.180489 
L 355.339824 233.689378 
L 354.074703 236.172317 
L 352.757862 238.628217 
L 351.389876 241.056 
L 349.971347 243.454602 
L 348.502896 245.82297 
L 346.985169 248.160066 
L 345.418829 250.464864 
L 343.804565 252.736355 
L 342.143085 254.97354 
L 340.435117 257.175439 
L 338.68141 259.341086 
L 336.882734 261.469532 
L 335.039878 263.559842 
L 333.15365 265.6111 
L 331.224877 267.622405 
L 329.254405 269.592877 
L 327.2431 271.52165 
L 325.191842 273.407878 
L 323.101532 275.250734 
L 320.973086 277.04941 
L 318.807439 278.803117 
L 316.60554 280.511085 
L 314.368355 282.172565 
L 312.096864 283.786829 
L 309.792066 285.353169 
L 307.45497 286.870896 
L 305.086602 288.339347 
L 302.688 289.757876 
L 300.260217 291.125862 
L 297.804317 292.442703 
L 295.321378 293.707824 
L 292.812489 294.920668 
L 290.278751 296.080704 
L 287.721274 297.187423 
L 285.14118 298.24034 
L 282.539602 299.238992 
L 279.917681 300.182942 
L 277.276565 301.071776 
L 274.617415 301.905103 
L 271.941396 302.682558 
L 269.249682 303.403801 
L 266.543453 304.068515 
L 263.823898 304.676407 
L 261.092208 305.227212 
L 258.349582 305.720689 
L 255.597223 306.15662 
L 252.836339 306.534814 
L 250.068139 306.855105 
L 247.293839 307.117354 
L 244.514655 307.321444 
L 241.731807 307.467287 
L 238.946515 307.554819 
L 236.16 307.584 
L 236.16 307.584 
L 236.16 307.584 
L 236.16 307.584 
L 236.16 307.584 
L 236.16 307.584 
L 236.16 307.584 
L 236.16 307.584 
L 236.16 307.584 
L 236.16 307.584 
L 236.16 307.584 
L 236.16 307.584 
L 236.16 307.584 
L 236.16 307.584 
L 236.16 307.584 
L 236.16 307.584 
L 236.16 307.584 
L 236.16 307.584 
L 236.16 307.584 
L 236.16 307.584 
L 236.16 307.584 
L 236.16 307.584 
L 236.16 307.584 
L 236.16 307.584 
L 236.16 307.584 
L 236.16 307.584 
L 236.16 307.584 
L 236.16 307.584 
L 236.16 307.584 
L 236.16 307.584 
L 236.16 307.584 
L 236.16 307.584 
L 236.16 307.584 
L 236.16 307.584 
L 236.16 307.584 
L 236.16 307.584 
L 236.16 307.584 
L 236.16 307.584 
L 236.16 307.584 
L 236.16 307.584 
L 236.16 307.584 
L 236.16 307.584 
L 236.16 307.584 
L 236.16 307.584 
L 236.16 307.584 
L 236.16 307.584 
L 236.16 307.584 
L 236.16 307.584 
L 236.16 307.584 
L 236.16 307.584 
L 236.16 307.584 
L 236.16 307.584 
L 236.16 307.584 
L 236.16 307.584 
L 236.16 307.584 
L 236.16 307.584 
L 236.16 307.584 
L 236.16 307.584 
L 236.16 307.584 
L 236.16 307.584 
L 236.16 307.584 
L 236.16 307.584 
L 236.16 307.584 
L 236.16 307.584 
L 236.16 307.584 
L 236.16 307.584 
L 236.16 307.584 
L 236.16 307.584 
L 236.16 307.584 
L 236.16 307.584 
L 236.16 307.584 
L 236.16 307.584 
L 236.16 307.584 
L 236.16 307.584 
L 236.16 307.584 
L 236.16 307.584 
L 236.16 307.584 
L 236.16 307.584 
L 236.16 307.584 
L 236.16 307.584 
L 236.16 307.584 
L 236.16 307.584 
L 236.16 307.584 
L 236.16 307.584 
L 236.16 307.584 
L 236.16 307.584 
L 236.16 307.584 
L 236.16 307.584 
L 236.16 307.584 
L 236.16 307.584 
L 236.16 307.584 
L 236.16 307.584 
L 236.16 307.584 
L 236.16 307.584 
L 236.16 307.584 
L 236.16 307.584 
L 236.16 307.584 
L 236.16 307.584 
L 236.16 307.584 
L 236.16 307.584 
z
" style="fill:#ff003c;"/>
   </g>
   <g id="patch_10">
    <path clip-path="url(#pf80f450a76)" d="M 236.16 307.584 
L 238.946515 307.554819 
L 241.731807 307.467287 
L 244.514655 307.321444 
L 247.293839 307.117354 
L 250.068139 306.855105 
L 252.836339 306.534814 
L 255.597223 306.15662 
L 258.349582 305.720689 
L 261.092208 305.227212 
L 263.823898 304.676407 
L 266.543453 304.068515 
L 269.249682 303.403801 
L 271.941396 302.682558 
L 274.617415 301.905103 
L 277.276565 301.071776 
L 279.917681 300.182942 
L 282.539602 299.238992 
L 285.14118 298.24034 
L 287.721274 297.187423 
L 290.278751 296.080704 
L 292.812489 294.920668 
L 295.321378 293.707824 
L 297.804317 292.442703 
L 300.260217 291.125862 
L 302.688 289.757876 
L 305.086602 288.339347 
L 307.45497 286.870896 
L 309.792066 285.353169 
L 312.096864 283.786829 
L 314.368355 282.172565 
L 316.60554 280.511085 
L 318.807439 278.803117 
L 320.973086 277.04941 
L 323.101532 275.250734 
L 325.191842 273.407878 
L 327.2431 271.52165 
L 329.254405 269.592877 
L 331.224877 267.622405 
L 333.15365 265.6111 
L 335.039878 263.559842 
L 336.882734 261.469532 
L 338.68141 259.341086 
L 340.435117 257.175439 
L 342.143085 254.97354 
L 343.804565 252.736355 
L 345.418829 250.464864 
L 346.985169 248.160066 
L 348.502896 245.82297 
L 349.971347 243.454602 
L 351.389876 241.056 
L 352.757862 238.628217 
L 354.074703 236.172317 
L 355.339824 233.689378 
L 356.552668 231.180489 
L 357.712704 228.646751 
L 358.819423 226.089274 
L 359.87234 223.50918 
L 360.870992 220.907602 
L 361.814942 218.285681 
L 362.703776 215.644565 
L 363.537103 212.985415 
L 364.314558 210.309396 
L 365.035801 207.617682 
L 365.700515 204.911453 
L 366.308407 202.191898 
L 366.859212 199.460208 
L 367.352689 196.717582 
L 367.78862 193.965223 
L 368.166814 191.204339 
L 368.487105 188.436139 
L 368.749354 185.661839 
L 368.953444 182.882655 
L 369.099287 180.099807 
L 369.186819 177.314515 
L 369.216 174.528 
L 369.186819 171.741485 
L 369.099287 168.956193 
L 368.953444 166.173345 
L 368.749354 163.394161 
L 368.487105 160.619861 
L 368.166814 157.851661 
L 367.78862 155.090777 
L 367.352689 152.338418 
L 366.859212 149.595792 
L 366.308407 146.864102 
L 365.700515 144.144547 
L 365.035801 141.438318 
L 364.314558 138.746604 
L 363.537103 136.070585 
L 362.703776 133.411435 
L 361.814942 130.770319 
L 360.870992 128.148398 
L 359.87234 125.54682 
L 358.819423 122.966726 
L 357.712704 120.409249 
L 356.552668 117.875511 
L 355.339824 115.366622 
L 354.074703 112.883683 
L 352.757862 110.427783 
L 351.389876 108 
L 351.389876 108 
L 351.389876 108 
L 351.389876 108 
L 351.389876 108 
L 351.389876 108 
L 351.389876 108 
L 351.389876 108 
L 351.389876 108 
L 351.389876 108 
L 351.389876 108 
L 351.389876 108 
L 351.389876 108 
L 351.389876 108 
L 351.389876 108 
L 351.389876 108 
L 351.389876 108 
L 351.389876 108 
L 351.389876 108 
L 351.389876 108 
L 351.389876 108 
L 351.389876 108 
L 351.389876 108 
L 351.389876 108 
L 351.389876 108 
L 351.389876 108 
L 351.389876 108 
L 351.389876 108 
L 351.389876 108 
L 351.389876 108 
L 351.389876 108 
L 351.389876 108 
L 351.389876 108 
L 351.389876 108 
L 351.389876 108 
L 351.389876 108 
L 351.389876 108 
L 351.389876 108 
L 351.389876 108 
L 351.389876 108 
L 351.389876 108 
L 351.389876 108 
L 351.389876 108 
L 351.389876 108 
L 351.389876 108 
L 351.389876 108 
L 351.389876 108 
L 351.389876 108 
L 351.389876 108 
L 351.389876 108 
L 351.389876 108 
L 351.389876 108 
L 351.389876 108 
L 351.389876 108 
L 351.389876 108 
L 351.389876 108 
L 351.389876 108 
L 351.389876 108 
L 351.389876 108 
L 351.389876 108 
L 351.389876 108 
L 351.389876 108 
L 351.389876 108 
L 351.389876 108 
L 351.389876 108 
L 351.389876 108 
L 351.389876 108 
L 351.389876 108 
L 351.389876 108 
L 351.389876 108 
L 351.389876 108 
L 351.389876 108 
L 351.389876 108 
L 351.389876 108 
L 351.389876 108 
L 351.389876 108 
L 351.389876 108 
L 351.389876 108 
L 351.389876 108 
L 351.389876 108 
L 351.389876 108 
L 351.389876 108 
L 351.389876 108 
L 351.389876 108 
L 351.389876 108 
L 351.389876 108 
L 351.389876 108 
L 351.389876 108 
L 351.389876 108 
L 351.389876 108 
L 351.389876 108 
L 351.389876 108 
L 351.389876 108 
L 351.389876 108 
L 351.389876 108 
L 351.389876 108 
L 351.389876 108 
L 351.389876 108 
L 351.389876 108 
L 351.389876 108 
L 351.389876 108 
L 352.757862 110.427783 
L 354.074703 112.883683 
L 355.339824 115.366622 
L 356.552668 117.875511 
L 357.712704 120.409249 
L 358.819423 122.966726 
L 359.87234 125.54682 
L 360.870992 128.148398 
L 361.814942 130.770319 
L 362.703776 133.411435 
L 363.537103 136.070585 
L 364.314558 138.746604 
L 365.035801 141.438318 
L 365.700515 144.144547 
L 366.308407 146.864102 
L 366.859212 149.595792 
L 367.352689 152.338418 
L 367.78862 155.090777 
L 368.166814 157.851661 
L 368.487105 160.619861 
L 368.749354 163.394161 
L 368.953444 166.173345 
L 369.099287 168.956193 
L 369.186819 171.741485 
L 369.216 174.528 
L 369.186819 177.314515 
L 369.099287 180.099807 
L 368.953444 182.882655 
L 368.749354 185.661839 
L 368.487105 188.436139 
L 368.166814 191.204339 
L 367.78862 193.965223 
L 367.352689 196.717582 
L 366.859212 199.460208 
L 366.308407 202.191898 
L 365.700515 204.911453 
L 365.035801 207.617682 
L 364.314558 210.309396 
L 363.537103 212.985415 
L 362.703776 215.644565 
L 361.814942 218.285681 
L 360.870992 220.907602 
L 359.87234 223.50918 
L 358.819423 226.089274 
L 357.712704 228.646751 
L 356.552668 231.180489 
L 355.339824 233.689378 
L 354.074703 236.172317 
L 352.757862 238.628217 
L 351.389876 241.056 
L 349.971347 243.454602 
L 348.502896 245.82297 
L 346.985169 248.160066 
L 345.418829 250.464864 
L 343.804565 252.736355 
L 342.143085 254.97354 
L 340.435117 257.175439 
L 338.68141 259.341086 
L 336.882734 261.469532 
L 335.039878 263.559842 
L 333.15365 265.6111 
L 331.224877 267.622405 
L 329.254405 269.592877 
L 327.2431 271.52165 
L 325.191842 273.407878 
L 323.101532 275.250734 
L 320.973086 277.04941 
L 318.807439 278.803117 
L 316.60554 280.511085 
L 314.368355 282.172565 
L 312.096864 283.786829 
L 309.792066 285.353169 
L 307.45497 286.870896 
L 305.086602 288.339347 
L 302.688 289.757876 
L 300.260217 291.125862 
L 297.804317 292.442703 
L 295.321378 293.707824 
L 292.812489 294.920668 
L 290.278751 296.080704 
L 287.721274 297.187423 
L 285.14118 298.24034 
L 282.539602 299.238992 
L 279.917681 300.182942 
L 277.276565 301.071776 
L 274.617415 301.905103 
L 271.941396 302.682558 
L 269.249682 303.403801 
L 266.543453 304.068515 
L 263.823898 304.676407 
L 261.092208 305.227212 
L 258.349582 305.720689 
L 255.597223 306.15662 
L 252.836339 306.534814 
L 250.068139 306.855105 
L 247.293839 307.117354 
L 244.514655 307.321444 
L 241.731807 307.467287 
L 238.946515 307.554819 
L 236.16 307.584 
L 236.16 307.584 
L 236.16 307.584 
L 236.16 307.584 
L 236.16 307.584 
L 236.16 307.584 
L 236.16 307.584 
L 236.16 307.584 
L 236.16 307.584 
L 236.16 307.584 
L 236.16 307.584 
L 236.16 307.584 
L 236.16 307.584 
L 236.16 307.584 
L 236.16 307.584 
L 236.16 307.584 
L 236.16 307.584 
L 236.16 307.584 
L 236.16 307.584 
L 236.16 307.584 
L 236.16 307.584 
L 236.16 307.584 
L 236.16 307.584 
L 236.16 307.584 
L 236.16 307.584 
L 236.16 307.584 
L 236.16 307.584 
L 236.16 307.584 
L 236.16 307.584 
L 236.16 307.584 
L 236.16 307.584 
L 236.16 307.584 
L 236.16 307.584 
L 236.16 307.584 
L 236.16 307.584 
L 236.16 307.584 
L 236.16 307.584 
L 236.16 307.584 
L 236.16 307.584 
L 236.16 307.584 
L 236.16 307.584 
L 236.16 307.584 
L 236.16 307.584 
L 236.16 307.584 
L 236.16 307.584 
L 236.16 307.584 
L 236.16 307.584 
L 236.16 307.584 
L 236.16 307.584 
L 236.16 307.584 
L 236.16 307.584 
L 236.16 307.584 
L 236.16 307.584 
L 236.16 307.584 
L 236.16 307.584 
L 236.16 307.584 
L 236.16 307.584 
L 236.16 307.584 
L 236.16 307.584 
L 236.16 307.584 
L 236.16 307.584 
L 236.16 307.584 
L 236.16 307.584 
L 236.16 307.584 
L 236.16 307.584 
L 236.16 307.584 
L 236.16 307.584 
L 236.16 307.584 
L 236.16 307.584 
L 236.16 307.584 
L 236.16 307.584 
L 236.16 307.584 
L 236.16 307.584 
L 236.16 307.584 
L 236.16 307.584 
L 236.16 307.584 
L 236.16 307.584 
L 236.16 307.584 
L 236.16 307.584 
L 236.16 307.584 
L 236.16 307.584 
L 236.16 307.584 
L 236.16 307.584 
L 236.16 307.584 
L 236.16 307.584 
L 236.16 307.584 
L 236.16 307.584 
L 236.16 307.584 
L 236.16 307.584 
L 236.16 307.584 
L 236.16 307.584 
L 236.16 307.584 
L 236.16 307.584 
L 236.16 307.584 
L 236.16 307.584 
L 236.16 307.584 
L 236.16 307.584 
L 236.16 307.584 
L 236.16 307.584 
L 236.16 307.584 
z
" style="fill:#88c100;"/>
   </g>
  </g>
 </g>
 <defs>
  <clipPath id="pf80f450a76">
   <path d="M 369.216 174.528 
C 369.216 157.055246 365.774248 139.752393 359.087715 123.609673 
C 352.401182 107.466954 342.599903 92.798303 330.2448 80.4432 
C 317.889697 68.088097 303.221046 58.286818 287.078327 51.600285 
C 270.935607 44.913752 253.632754 41.472 236.16 41.472 
C 218.687246 41.472 201.384393 44.913752 185.241673 51.600285 
C 169.098954 58.286818 154.430303 68.088097 142.0752 80.4432 
C 129.720097 92.798303 119.918818 107.466954 113.232285 123.609673 
C 106.545752 139.752393 103.104 157.055246 103.104 174.528 
C 103.104 192.000754 106.545752 209.303607 113.232285 225.446327 
C 119.918818 241.589046 129.720097 256.257697 142.0752 268.6128 
C 154.430303 280.967903 169.098954 290.769182 185.241673 297.455715 
C 201.384393 304.142248 218.687246 307.584 236.16 307.584 
C 253.632754 307.584 270.935607 304.142248 287.078327 297.455715 
C 303.221046 290.769182 317.889697 280.967903 330.2448 268.6128 
C 342.599903 256.257697 352.401182 241.589046 359.087715 225.446327 
C 365.774248 209.303607 369.216 192.000754 369.216 174.528 
M 236.16 174.528 
C 236.16 174.528 236.16 174.528 236.16 174.528 
C 236.16 174.528 236.16 174.528 236.16 174.528 
C 236.16 174.528 236.16 174.528 236.16 174.528 
C 236.16 174.528 236.16 174.528 236.16 174.528 
C 236.16 174.528 236.16 174.528 236.16 174.528 
C 236.16 174.528 236.16 174.528 236.16 174.528 
C 236.16 174.528 236.16 174.528 236.16 174.528 
C 236.16 174.528 236.16 174.528 236.16 174.528 
C 236.16 174.528 236.16 174.528 236.16 174.528 
C 236.16 174.528 236.16 174.528 236.16 174.528 
C 236.16 174.528 236.16 174.528 236.16 174.528 
C 236.16 174.528 236.16 174.528 236.16 174.528 
C 236.16 174.528 236.16 174.528 236.16 174.528 
C 236.16 174.528 236.16 174.528 236.16 174.528 
C 236.16 174.528 236.16 174.528 236.16 174.528 
C 236.16 174.528 236.16 174.528 236.16 174.528 
M 369.216 174.528 
z
"/>
  </clipPath>
 </defs>
</svg>
