<?xml version="1.0" encoding="utf-8" standalone="no"?>
<!DOCTYPE svg PUBLIC "-//W3C//DTD SVG 1.1//EN"
  "http://www.w3.org/Graphics/SVG/1.1/DTD/svg11.dtd">
<!-- Created with matplotlib (https://matplotlib.org/) -->
<svg height="345.6pt" version="1.1" viewBox="0 0 460.8 345.6" width="460.8pt" xmlns="http://www.w3.org/2000/svg" xmlns:xlink="http://www.w3.org/1999/xlink">
 <defs>
  <style type="text/css">
*{stroke-linecap:butt;stroke-linejoin:round;}
  </style>
 </defs>
 <g id="figure_1">
  <g id="patch_1">
   <path d="M 0 345.6 
L 460.8 345.6 
L 460.8 0 
L 0 0 
z
" style="fill:none;"/>
  </g>
  <g id="axes_1">
   <g id="patch_2">
    <path clip-path="url(#pe60ddbb5ba)" d="M 236.16 174.528 
L 236.16 174.528 
L 236.16 174.528 
L 236.16 174.528 
L 236.16 174.528 
L 236.16 174.528 
L 236.16 174.528 
L 236.16 174.528 
L 236.16 174.528 
L 236.16 174.528 
L 236.16 174.528 
L 236.16 174.528 
L 236.16 174.528 
L 236.16 174.528 
L 236.16 174.528 
L 236.16 174.528 
L 236.16 174.528 
L 236.16 174.528 
L 236.16 174.528 
L 236.16 174.528 
L 236.16 174.528 
L 236.16 174.528 
L 236.16 174.528 
L 236.16 174.528 
L 236.16 174.528 
L 236.16 174.528 
L 236.16 174.528 
L 236.16 174.528 
L 236.16 174.528 
L 236.16 174.528 
L 236.16 174.528 
L 236.16 174.528 
L 236.16 174.528 
L 236.16 174.528 
L 236.16 174.528 
L 236.16 174.528 
L 236.16 174.528 
L 236.16 174.528 
L 236.16 174.528 
L 236.16 174.528 
L 236.16 174.528 
L 236.16 174.528 
L 236.16 174.528 
L 236.16 174.528 
L 236.16 174.528 
L 236.16 174.528 
L 236.16 174.528 
L 236.16 174.528 
L 236.16 174.528 
L 236.16 174.528 
L 236.16 174.528 
L 236.16 174.528 
L 236.16 174.528 
L 236.16 174.528 
L 236.16 174.528 
L 236.16 174.528 
L 236.16 174.528 
L 236.16 174.528 
L 236.16 174.528 
L 236.16 174.528 
L 236.16 174.528 
L 236.16 174.528 
L 236.16 174.528 
L 236.16 174.528 
L 236.16 174.528 
L 236.16 174.528 
L 236.16 174.528 
L 236.16 174.528 
L 236.16 174.528 
L 236.16 174.528 
L 236.16 174.528 
L 236.16 174.528 
L 236.16 174.528 
L 236.16 174.528 
L 236.16 174.528 
L 236.16 174.528 
L 236.16 174.528 
L 236.16 174.528 
L 236.16 174.528 
L 236.16 174.528 
L 236.16 174.528 
L 236.16 174.528 
L 236.16 174.528 
L 236.16 174.528 
L 236.16 174.528 
L 236.16 174.528 
L 236.16 174.528 
L 236.16 174.528 
L 236.16 174.528 
L 236.16 174.528 
L 236.16 174.528 
L 236.16 174.528 
L 236.16 174.528 
L 236.16 174.528 
L 236.16 174.528 
L 236.16 174.528 
L 236.16 174.528 
L 236.16 174.528 
L 236.16 174.528 
L 236.16 174.528 
L 236.16 174.528 
L 236.16 175.309889 
L 236.16 176.091779 
L 236.16 176.873668 
L 236.16 177.655557 
L 236.16 178.437447 
L 236.16 179.219336 
L 236.16 180.001226 
L 236.16 180.783115 
L 236.16 181.565004 
L 236.16 182.346894 
L 236.16 183.128783 
L 236.16 183.910672 
L 236.16 184.692562 
L 236.16 185.474451 
L 236.16 186.25634 
L 236.16 187.03823 
L 236.16 187.820119 
L 236.16 188.602009 
L 236.16 189.383898 
L 236.16 190.165787 
L 236.16 190.947677 
L 236.16 191.729566 
L 236.16 192.511455 
L 236.16 193.293345 
L 236.16 194.075234 
L 236.16 194.857123 
L 236.16 195.639013 
L 236.16 196.420902 
L 236.16 197.202791 
L 236.16 197.984681 
L 236.16 198.76657 
L 236.16 199.54846 
L 236.16 200.330349 
L 236.16 201.112238 
L 236.16 201.894128 
L 236.16 202.676017 
L 236.16 203.457906 
L 236.16 204.239796 
L 236.16 205.021685 
L 236.16 205.803574 
L 236.16 206.585464 
L 236.16 207.367353 
L 236.16 208.149243 
L 236.16 208.931132 
L 236.16 209.713021 
L 236.16 210.494911 
L 236.16 211.2768 
L 236.16 212.058689 
L 236.16 212.840579 
L 236.16 213.622468 
L 236.16 214.404357 
L 236.16 215.186247 
L 236.16 215.968136 
L 236.16 216.750026 
L 236.16 217.531915 
L 236.16 218.313804 
L 236.16 219.095694 
L 236.16 219.877583 
L 236.16 220.659472 
L 236.16 221.441362 
L 236.16 222.223251 
L 236.16 223.00514 
L 236.16 223.78703 
L 236.16 224.568919 
L 236.16 225.350809 
L 236.16 226.132698 
L 236.16 226.914587 
L 236.16 227.696477 
L 236.16 228.478366 
L 236.16 229.260255 
L 236.16 230.042145 
L 236.16 230.824034 
L 236.16 231.605923 
L 236.16 232.387813 
L 236.16 233.169702 
L 236.16 233.951591 
L 236.16 234.733481 
L 236.16 235.51537 
L 236.16 236.29726 
L 236.16 237.079149 
L 236.16 237.861038 
L 236.16 238.642928 
L 236.16 239.424817 
L 236.16 240.206706 
L 236.16 240.988596 
L 236.16 241.770485 
L 236.16 242.552374 
L 236.16 243.334264 
L 236.16 244.116153 
L 236.16 244.898043 
L 236.16 245.679932 
L 236.16 246.461821 
L 236.16 247.243711 
L 236.16 248.0256 
L 236.16 248.807489 
L 236.16 249.589379 
L 236.16 250.371268 
L 236.16 251.153157 
L 236.16 251.935047 
L 236.16 252.716936 
L 231.250476 252.562648 
L 226.360328 252.100393 
L 221.508854 251.331995 
L 216.715202 250.260487 
L 211.99829 248.890097 
L 207.376733 247.226234 
L 202.86877 245.275465 
L 198.492193 243.045487 
L 194.264273 240.545102 
L 190.201696 237.784178 
L 186.320496 234.773611 
L 182.63599 231.525281 
L 179.162719 228.05201 
L 175.914389 224.367504 
L 172.903822 220.486304 
L 170.142898 216.423727 
L 167.642513 212.195807 
L 165.412535 207.81923 
L 163.461766 203.311267 
L 161.797903 198.68971 
L 160.427513 193.972798 
L 159.356005 189.179146 
L 158.587607 184.327672 
L 158.125352 179.437524 
L 157.971064 174.528 
L 158.125352 169.618476 
L 158.587607 164.728328 
L 159.356005 159.876854 
L 160.427513 155.083202 
L 161.797903 150.36629 
L 163.461766 145.744733 
L 165.412535 141.23677 
L 167.642513 136.860193 
L 170.142898 132.632273 
L 172.903822 128.569696 
L 175.914389 124.688496 
L 179.162719 121.00399 
L 182.63599 117.530719 
L 186.320496 114.282389 
L 190.201696 111.271822 
L 194.264273 108.510898 
L 198.492193 106.010513 
L 202.86877 103.780535 
L 207.376733 101.829766 
L 211.99829 100.165903 
L 216.715202 98.795513 
L 221.508854 97.724005 
L 226.360328 96.955607 
L 231.250476 96.493352 
L 236.16 96.339064 
L 241.069524 96.493352 
L 245.959672 96.955607 
L 250.811146 97.724005 
L 255.604798 98.795513 
L 260.32171 100.165903 
L 264.943267 101.829766 
L 269.45123 103.780535 
L 273.827807 106.010513 
L 278.055727 108.510898 
L 282.118304 111.271822 
L 285.999504 114.282389 
L 289.68401 117.530719 
L 293.157281 121.00399 
L 296.405611 124.688496 
L 299.416178 128.569696 
L 302.177102 132.632273 
L 304.677487 136.860193 
L 306.907465 141.23677 
L 308.858234 145.744733 
L 310.522097 150.36629 
L 311.892487 155.083202 
L 312.963995 159.876854 
L 313.732393 164.728328 
L 314.194648 169.618476 
L 314.348936 174.528 
L 314.194648 179.437524 
L 313.732393 184.327672 
L 312.963995 189.179146 
L 311.892487 193.972798 
L 310.522097 198.68971 
L 308.858234 203.311267 
L 306.907465 207.81923 
L 304.677487 212.195807 
L 302.177102 216.423727 
L 299.416178 220.486304 
L 296.405611 224.367504 
L 293.157281 228.05201 
L 289.68401 231.525281 
L 285.999504 234.773611 
L 282.118304 237.784178 
L 278.055727 240.545102 
L 273.827807 243.045487 
L 269.45123 245.275465 
L 264.943267 247.226234 
L 260.32171 248.890097 
L 255.604798 250.260487 
L 250.811146 251.331995 
L 245.959672 252.100393 
L 241.069524 252.562648 
L 236.16 252.716936 
L 236.16 251.935047 
L 236.16 251.153157 
L 236.16 250.371268 
L 236.16 249.589379 
L 236.16 248.807489 
L 236.16 248.0256 
L 236.16 247.243711 
L 236.16 246.461821 
L 236.16 245.679932 
L 236.16 244.898043 
L 236.16 244.116153 
L 236.16 243.334264 
L 236.16 242.552374 
L 236.16 241.770485 
L 236.16 240.988596 
L 236.16 240.206706 
L 236.16 239.424817 
L 236.16 238.642928 
L 236.16 237.861038 
L 236.16 237.079149 
L 236.16 236.29726 
L 236.16 235.51537 
L 236.16 234.733481 
L 236.16 233.951591 
L 236.16 233.169702 
L 236.16 232.387813 
L 236.16 231.605923 
L 236.16 230.824034 
L 236.16 230.042145 
L 236.16 229.260255 
L 236.16 228.478366 
L 236.16 227.696477 
L 236.16 226.914587 
L 236.16 226.132698 
L 236.16 225.350809 
L 236.16 224.568919 
L 236.16 223.78703 
L 236.16 223.00514 
L 236.16 222.223251 
L 236.16 221.441362 
L 236.16 220.659472 
L 236.16 219.877583 
L 236.16 219.095694 
L 236.16 218.313804 
L 236.16 217.531915 
L 236.16 216.750026 
L 236.16 215.968136 
L 236.16 215.186247 
L 236.16 214.404357 
L 236.16 213.622468 
L 236.16 212.840579 
L 236.16 212.058689 
L 236.16 211.2768 
L 236.16 210.494911 
L 236.16 209.713021 
L 236.16 208.931132 
L 236.16 208.149243 
L 236.16 207.367353 
L 236.16 206.585464 
L 236.16 205.803574 
L 236.16 205.021685 
L 236.16 204.239796 
L 236.16 203.457906 
L 236.16 202.676017 
L 236.16 201.894128 
L 236.16 201.112238 
L 236.16 200.330349 
L 236.16 199.54846 
L 236.16 198.76657 
L 236.16 197.984681 
L 236.16 197.202791 
L 236.16 196.420902 
L 236.16 195.639013 
L 236.16 194.857123 
L 236.16 194.075234 
L 236.16 193.293345 
L 236.16 192.511455 
L 236.16 191.729566 
L 236.16 190.947677 
L 236.16 190.165787 
L 236.16 189.383898 
L 236.16 188.602009 
L 236.16 187.820119 
L 236.16 187.03823 
L 236.16 186.25634 
L 236.16 185.474451 
L 236.16 184.692562 
L 236.16 183.910672 
L 236.16 183.128783 
L 236.16 182.346894 
L 236.16 181.565004 
L 236.16 180.783115 
L 236.16 180.001226 
L 236.16 179.219336 
L 236.16 178.437447 
L 236.16 177.655557 
L 236.16 176.873668 
L 236.16 176.091779 
L 236.16 175.309889 
z
" style="fill:#fabe28;"/>
   </g>
   <g id="patch_3">
    <path clip-path="url(#pe60ddbb5ba)" d="M 236.16 252.716936 
L 241.069524 252.562648 
L 245.959672 252.100393 
L 250.811146 251.331995 
L 255.604798 250.260487 
L 260.32171 248.890097 
L 264.943267 247.226234 
L 269.45123 245.275465 
L 273.827807 243.045487 
L 278.055727 240.545102 
L 282.118304 237.784178 
L 285.999504 234.773611 
L 289.68401 231.525281 
L 293.157281 228.05201 
L 296.405611 224.367504 
L 299.416178 220.486304 
L 302.177102 216.423727 
L 304.677487 212.195807 
L 306.907465 207.81923 
L 308.858234 203.311267 
L 310.522097 198.68971 
L 311.892487 193.972798 
L 312.963995 189.179146 
L 313.732393 184.327672 
L 314.194648 179.437524 
L 314.348936 174.528 
L 314.194648 169.618476 
L 313.732393 164.728328 
L 312.963995 159.876854 
L 311.892487 155.083202 
L 310.522097 150.36629 
L 308.858234 145.744733 
L 306.907465 141.23677 
L 304.677487 136.860193 
L 302.177102 132.632273 
L 299.416178 128.569696 
L 296.405611 124.688496 
L 293.157281 121.00399 
L 289.68401 117.530719 
L 285.999504 114.282389 
L 282.118304 111.271822 
L 278.055727 108.510898 
L 273.827807 106.010513 
L 269.45123 103.780535 
L 264.943267 101.829766 
L 260.32171 100.165903 
L 255.604798 98.795513 
L 250.811146 97.724005 
L 245.959672 96.955607 
L 241.069524 96.493352 
L 236.16 96.339064 
L 231.250476 96.493352 
L 226.360328 96.955607 
L 221.508854 97.724005 
L 216.715202 98.795513 
L 211.99829 100.165903 
L 207.376733 101.829766 
L 202.86877 103.780535 
L 198.492193 106.010513 
L 194.264273 108.510898 
L 190.201696 111.271822 
L 186.320496 114.282389 
L 182.63599 117.530719 
L 179.162719 121.00399 
L 175.914389 124.688496 
L 172.903822 128.569696 
L 170.142898 132.632273 
L 167.642513 136.860193 
L 165.412535 141.23677 
L 163.461766 145.744733 
L 161.797903 150.36629 
L 160.427513 155.083202 
L 159.356005 159.876854 
L 158.587607 164.728328 
L 158.125352 169.618476 
L 157.971064 174.528 
L 158.125352 179.437524 
L 158.587607 184.327672 
L 159.356005 189.179146 
L 160.427513 193.972798 
L 161.797903 198.68971 
L 163.461766 203.311267 
L 165.412535 207.81923 
L 167.642513 212.195807 
L 170.142898 216.423727 
L 172.903822 220.486304 
L 175.914389 224.367504 
L 179.162719 228.05201 
L 182.63599 231.525281 
L 186.320496 234.773611 
L 190.201696 237.784178 
L 194.264273 240.545102 
L 198.492193 243.045487 
L 202.86877 245.275465 
L 207.376733 247.226234 
L 211.99829 248.890097 
L 216.715202 250.260487 
L 221.508854 251.331995 
L 226.360328 252.100393 
L 231.250476 252.562648 
L 236.16 252.716936 
L 236.16 252.743898 
L 236.16 252.77086 
L 236.16 252.797821 
L 236.16 252.824783 
L 236.16 252.851745 
L 236.16 252.878706 
L 236.16 252.905668 
L 236.16 252.93263 
L 236.16 252.959591 
L 236.16 252.986553 
L 236.16 253.013515 
L 236.16 253.040477 
L 236.16 253.067438 
L 236.16 253.0944 
L 236.16 253.121362 
L 236.16 253.148323 
L 236.16 253.175285 
L 236.16 253.202247 
L 236.16 253.229209 
L 236.16 253.25617 
L 236.16 253.283132 
L 236.16 253.310094 
L 236.16 253.337055 
L 236.16 253.364017 
L 236.16 253.390979 
L 236.16 253.41794 
L 236.16 253.444902 
L 236.16 253.471864 
L 236.16 253.498826 
L 236.16 253.525787 
L 236.16 253.552749 
L 236.16 253.579711 
L 236.16 253.606672 
L 236.16 253.633634 
L 236.16 253.660596 
L 236.16 253.687557 
L 236.16 253.714519 
L 236.16 253.741481 
L 236.16 253.768443 
L 236.16 253.795404 
L 236.16 253.822366 
L 236.16 253.849328 
L 236.16 253.876289 
L 236.16 253.903251 
L 236.16 253.930213 
L 236.16 253.957174 
L 236.16 253.984136 
L 236.16 254.011098 
L 236.16 254.03806 
L 236.16 254.065021 
L 236.16 254.091983 
L 236.16 254.118945 
L 236.16 254.145906 
L 236.16 254.172868 
L 236.16 254.19983 
L 236.16 254.226791 
L 236.16 254.253753 
L 236.16 254.280715 
L 236.16 254.307677 
L 236.16 254.334638 
L 236.16 254.3616 
L 236.16 254.388562 
L 236.16 254.415523 
L 236.16 254.442485 
L 236.16 254.469447 
L 236.16 254.496409 
L 236.16 254.52337 
L 236.16 254.550332 
L 236.16 254.577294 
L 236.16 254.604255 
L 236.16 254.631217 
L 236.16 254.658179 
L 236.16 254.68514 
L 236.16 254.712102 
L 236.16 254.739064 
L 236.16 254.766026 
L 236.16 254.792987 
L 236.16 254.819949 
L 236.16 254.846911 
L 236.16 254.873872 
L 236.16 254.900834 
L 236.16 254.927796 
L 236.16 254.954757 
L 236.16 254.981719 
L 236.16 255.008681 
L 236.16 255.035643 
L 236.16 255.062604 
L 236.16 255.089566 
L 236.16 255.116528 
L 236.16 255.143489 
L 236.16 255.170451 
L 236.16 255.197413 
L 236.16 255.224374 
L 236.16 255.251336 
L 236.16 255.278298 
L 236.16 255.30526 
L 236.16 255.332221 
L 236.16 255.359183 
L 236.16 255.386145 
L 236.16 255.413106 
L 231.081182 255.253498 
L 226.022408 254.775303 
L 221.003642 253.980409 
L 216.044692 252.871952 
L 211.165128 251.454307 
L 206.384206 249.73307 
L 201.720797 247.715032 
L 197.193303 245.408159 
L 192.819593 242.821554 
L 188.616927 239.965426 
L 184.601893 236.851046 
L 180.790335 233.490705 
L 177.197295 229.897665 
L 173.836954 226.086107 
L 170.722574 222.071073 
L 167.866446 217.868407 
L 165.279841 213.494697 
L 162.972968 208.967203 
L 160.95493 204.303794 
L 159.233693 199.522872 
L 157.816048 194.643308 
L 156.707591 189.684358 
L 155.912697 184.665592 
L 155.434502 179.606818 
L 155.274894 174.528 
L 155.434502 169.449182 
L 155.912697 164.390408 
L 156.707591 159.371642 
L 157.816048 154.412692 
L 159.233693 149.533128 
L 160.95493 144.752206 
L 162.972968 140.088797 
L 165.279841 135.561303 
L 167.866446 131.187593 
L 170.722574 126.984927 
L 173.836954 122.969893 
L 177.197295 119.158335 
L 180.790335 115.565295 
L 184.601893 112.204954 
L 188.616927 109.090574 
L 192.819593 106.234446 
L 197.193303 103.647841 
L 201.720797 101.340968 
L 206.384206 99.32293 
L 211.165128 97.601693 
L 216.044692 96.184048 
L 221.003642 95.075591 
L 226.022408 94.280697 
L 231.081182 93.802502 
L 236.16 93.642894 
L 241.238818 93.802502 
L 246.297592 94.280697 
L 251.316358 95.075591 
L 256.275308 96.184048 
L 261.154872 97.601693 
L 265.935794 99.32293 
L 270.599203 101.340968 
L 275.126697 103.647841 
L 279.500407 106.234446 
L 283.703073 109.090574 
L 287.718107 112.204954 
L 291.529665 115.565295 
L 295.122705 119.158335 
L 298.483046 122.969893 
L 301.597426 126.984927 
L 304.453554 131.187593 
L 307.040159 135.561303 
L 309.347032 140.088797 
L 311.36507 144.752206 
L 313.086307 149.533128 
L 314.503952 154.412692 
L 315.612409 159.371642 
L 316.407303 164.390408 
L 316.885498 169.449182 
L 317.045106 174.528 
L 316.885498 179.606818 
L 316.407303 184.665592 
L 315.612409 189.684358 
L 314.503952 194.643308 
L 313.086307 199.522872 
L 311.36507 204.303794 
L 309.347032 208.967203 
L 307.040159 213.494697 
L 304.453554 217.868407 
L 301.597426 222.071073 
L 298.483046 226.086107 
L 295.122705 229.897665 
L 291.529665 233.490705 
L 287.718107 236.851046 
L 283.703073 239.965426 
L 279.500407 242.821554 
L 275.126697 245.408159 
L 270.599203 247.715032 
L 265.935794 249.73307 
L 261.154872 251.454307 
L 256.275308 252.871952 
L 251.316358 253.980409 
L 246.297592 254.775303 
L 241.238818 255.253498 
L 236.16 255.413106 
L 236.16 255.386145 
L 236.16 255.359183 
L 236.16 255.332221 
L 236.16 255.30526 
L 236.16 255.278298 
L 236.16 255.251336 
L 236.16 255.224374 
L 236.16 255.197413 
L 236.16 255.170451 
L 236.16 255.143489 
L 236.16 255.116528 
L 236.16 255.089566 
L 236.16 255.062604 
L 236.16 255.035643 
L 236.16 255.008681 
L 236.16 254.981719 
L 236.16 254.954757 
L 236.16 254.927796 
L 236.16 254.900834 
L 236.16 254.873872 
L 236.16 254.846911 
L 236.16 254.819949 
L 236.16 254.792987 
L 236.16 254.766026 
L 236.16 254.739064 
L 236.16 254.712102 
L 236.16 254.68514 
L 236.16 254.658179 
L 236.16 254.631217 
L 236.16 254.604255 
L 236.16 254.577294 
L 236.16 254.550332 
L 236.16 254.52337 
L 236.16 254.496409 
L 236.16 254.469447 
L 236.16 254.442485 
L 236.16 254.415523 
L 236.16 254.388562 
L 236.16 254.3616 
L 236.16 254.334638 
L 236.16 254.307677 
L 236.16 254.280715 
L 236.16 254.253753 
L 236.16 254.226791 
L 236.16 254.19983 
L 236.16 254.172868 
L 236.16 254.145906 
L 236.16 254.118945 
L 236.16 254.091983 
L 236.16 254.065021 
L 236.16 254.03806 
L 236.16 254.011098 
L 236.16 253.984136 
L 236.16 253.957174 
L 236.16 253.930213 
L 236.16 253.903251 
L 236.16 253.876289 
L 236.16 253.849328 
L 236.16 253.822366 
L 236.16 253.795404 
L 236.16 253.768443 
L 236.16 253.741481 
L 236.16 253.714519 
L 236.16 253.687557 
L 236.16 253.660596 
L 236.16 253.633634 
L 236.16 253.606672 
L 236.16 253.579711 
L 236.16 253.552749 
L 236.16 253.525787 
L 236.16 253.498826 
L 236.16 253.471864 
L 236.16 253.444902 
L 236.16 253.41794 
L 236.16 253.390979 
L 236.16 253.364017 
L 236.16 253.337055 
L 236.16 253.310094 
L 236.16 253.283132 
L 236.16 253.25617 
L 236.16 253.229209 
L 236.16 253.202247 
L 236.16 253.175285 
L 236.16 253.148323 
L 236.16 253.121362 
L 236.16 253.0944 
L 236.16 253.067438 
L 236.16 253.040477 
L 236.16 253.013515 
L 236.16 252.986553 
L 236.16 252.959591 
L 236.16 252.93263 
L 236.16 252.905668 
L 236.16 252.878706 
L 236.16 252.851745 
L 236.16 252.824783 
L 236.16 252.797821 
L 236.16 252.77086 
L 236.16 252.743898 
z
" style="fill:#ff003c;"/>
   </g>
   <g id="patch_4">
    <path clip-path="url(#pe60ddbb5ba)" d="M 236.16 255.413106 
L 241.238818 255.253498 
L 246.297592 254.775303 
L 251.316358 253.980409 
L 256.275308 252.871952 
L 261.154872 251.454307 
L 265.935794 249.73307 
L 270.599203 247.715032 
L 275.126697 245.408159 
L 279.500407 242.821554 
L 283.703073 239.965426 
L 287.718107 236.851046 
L 291.529665 233.490705 
L 295.122705 229.897665 
L 298.483046 226.086107 
L 301.597426 222.071073 
L 304.453554 217.868407 
L 307.040159 213.494697 
L 309.347032 208.967203 
L 311.36507 204.303794 
L 313.086307 199.522872 
L 314.503952 194.643308 
L 315.612409 189.684358 
L 316.407303 184.665592 
L 316.885498 179.606818 
L 317.045106 174.528 
L 316.885498 169.449182 
L 316.407303 164.390408 
L 315.612409 159.371642 
L 314.503952 154.412692 
L 313.086307 149.533128 
L 311.36507 144.752206 
L 309.347032 140.088797 
L 307.040159 135.561303 
L 304.453554 131.187593 
L 301.597426 126.984927 
L 298.483046 122.969893 
L 295.122705 119.158335 
L 291.529665 115.565295 
L 287.718107 112.204954 
L 283.703073 109.090574 
L 279.500407 106.234446 
L 275.126697 103.647841 
L 270.599203 101.340968 
L 265.935794 99.32293 
L 261.154872 97.601693 
L 256.275308 96.184048 
L 251.316358 95.075591 
L 246.297592 94.280697 
L 241.238818 93.802502 
L 236.16 93.642894 
L 231.081182 93.802502 
L 226.022408 94.280697 
L 221.003642 95.075591 
L 216.044692 96.184048 
L 211.165128 97.601693 
L 206.384206 99.32293 
L 201.720797 101.340968 
L 197.193303 103.647841 
L 192.819593 106.234446 
L 188.616927 109.090574 
L 184.601893 112.204954 
L 180.790335 115.565295 
L 177.197295 119.158335 
L 173.836954 122.969893 
L 170.722574 126.984927 
L 167.866446 131.187593 
L 165.279841 135.561303 
L 162.972968 140.088797 
L 160.95493 144.752206 
L 159.233693 149.533128 
L 157.816048 154.412692 
L 156.707591 159.371642 
L 155.912697 164.390408 
L 155.434502 169.449182 
L 155.274894 174.528 
L 155.434502 179.606818 
L 155.912697 184.665592 
L 156.707591 189.684358 
L 157.816048 194.643308 
L 159.233693 199.522872 
L 160.95493 204.303794 
L 162.972968 208.967203 
L 165.279841 213.494697 
L 167.866446 217.868407 
L 170.722574 222.071073 
L 173.836954 226.086107 
L 177.197295 229.897665 
L 180.790335 233.490705 
L 184.601893 236.851046 
L 188.616927 239.965426 
L 192.819593 242.821554 
L 197.193303 245.408159 
L 201.720797 247.715032 
L 206.384206 249.73307 
L 211.165128 251.454307 
L 216.044692 252.871952 
L 221.003642 253.980409 
L 226.022408 254.775303 
L 231.081182 255.253498 
L 236.16 255.413106 
L 236.16 255.871455 
L 236.16 256.329804 
L 236.16 256.788153 
L 236.16 257.246502 
L 236.16 257.704851 
L 236.16 258.1632 
L 236.16 258.621549 
L 236.16 259.079898 
L 236.16 259.538247 
L 236.16 259.996596 
L 236.16 260.454945 
L 236.16 260.913294 
L 236.16 261.371643 
L 236.16 261.829991 
L 236.16 262.28834 
L 236.16 262.746689 
L 236.16 263.205038 
L 236.16 263.663387 
L 236.16 264.121736 
L 236.16 264.580085 
L 236.16 265.038434 
L 236.16 265.496783 
L 236.16 265.955132 
L 236.16 266.413481 
L 236.16 266.87183 
L 236.16 267.330179 
L 236.16 267.788528 
L 236.16 268.246877 
L 236.16 268.705226 
L 236.16 269.163574 
L 236.16 269.621923 
L 236.16 270.080272 
L 236.16 270.538621 
L 236.16 270.99697 
L 236.16 271.455319 
L 236.16 271.913668 
L 236.16 272.372017 
L 236.16 272.830366 
L 236.16 273.288715 
L 236.16 273.747064 
L 236.16 274.205413 
L 236.16 274.663762 
L 236.16 275.122111 
L 236.16 275.58046 
L 236.16 276.038809 
L 236.16 276.497157 
L 236.16 276.955506 
L 236.16 277.413855 
L 236.16 277.872204 
L 236.16 278.330553 
L 236.16 278.788902 
L 236.16 279.247251 
L 236.16 279.7056 
L 236.16 280.163949 
L 236.16 280.622298 
L 236.16 281.080647 
L 236.16 281.538996 
L 236.16 281.997345 
L 236.16 282.455694 
L 236.16 282.914043 
L 236.16 283.372391 
L 236.16 283.83074 
L 236.16 284.289089 
L 236.16 284.747438 
L 236.16 285.205787 
L 236.16 285.664136 
L 236.16 286.122485 
L 236.16 286.580834 
L 236.16 287.039183 
L 236.16 287.497532 
L 236.16 287.955881 
L 236.16 288.41423 
L 236.16 288.872579 
L 236.16 289.330928 
L 236.16 289.789277 
L 236.16 290.247626 
L 236.16 290.705974 
L 236.16 291.164323 
L 236.16 291.622672 
L 236.16 292.081021 
L 236.16 292.53937 
L 236.16 292.997719 
L 236.16 293.456068 
L 236.16 293.914417 
L 236.16 294.372766 
L 236.16 294.831115 
L 236.16 295.289464 
L 236.16 295.747813 
L 236.16 296.206162 
L 236.16 296.664511 
L 236.16 297.12286 
L 236.16 297.581209 
L 236.16 298.039557 
L 236.16 298.497906 
L 236.16 298.956255 
L 236.16 299.414604 
L 236.16 299.872953 
L 236.16 300.331302 
L 236.16 300.789651 
L 236.16 301.248 
L 228.203185 300.997947 
L 220.277773 300.248775 
L 212.41504 299.00344 
L 204.646017 297.266858 
L 197.001366 295.045882 
L 189.511257 292.349276 
L 182.205248 289.187684 
L 175.112174 285.573582 
L 168.260029 281.521235 
L 161.675853 277.046634 
L 155.385632 272.167438 
L 149.414191 266.902904 
L 143.785096 261.273809 
L 138.520562 255.302368 
L 133.641366 249.012147 
L 129.166765 242.427971 
L 125.114418 235.575826 
L 121.500316 228.482752 
L 118.338724 221.176743 
L 115.642118 213.686634 
L 113.421142 206.041983 
L 111.68456 198.27296 
L 110.439225 190.410227 
L 109.690053 182.484815 
L 109.44 174.528 
L 109.690053 166.571185 
L 110.439225 158.645773 
L 111.68456 150.78304 
L 113.421142 143.014017 
L 115.642118 135.369366 
L 118.338724 127.879257 
L 121.500316 120.573248 
L 125.114418 113.480174 
L 129.166765 106.628029 
L 133.641366 100.043853 
L 138.520562 93.753632 
L 143.785096 87.782191 
L 149.414191 82.153096 
L 155.385632 76.888562 
L 161.675853 72.009366 
L 168.260029 67.534765 
L 175.112174 63.482418 
L 182.205248 59.868316 
L 189.511257 56.706724 
L 197.001366 54.010118 
L 204.646017 51.789142 
L 212.41504 50.05256 
L 220.277773 48.807225 
L 228.203185 48.058053 
L 236.16 47.808 
L 244.116815 48.058053 
L 252.042227 48.807225 
L 259.90496 50.05256 
L 267.673983 51.789142 
L 275.318634 54.010118 
L 282.808743 56.706724 
L 290.114752 59.868316 
L 297.207826 63.482418 
L 304.059971 67.534765 
L 310.644147 72.009366 
L 316.934368 76.888562 
L 322.905809 82.153096 
L 328.534904 87.782191 
L 333.799438 93.753632 
L 338.678634 100.043853 
L 343.153235 106.628029 
L 347.205582 113.480174 
L 350.819684 120.573248 
L 353.981276 127.879257 
L 356.677882 135.369366 
L 358.898858 143.014017 
L 360.63544 150.78304 
L 361.880775 158.645773 
L 362.629947 166.571185 
L 362.88 174.528 
L 362.629947 182.484815 
L 361.880775 190.410227 
L 360.63544 198.27296 
L 358.898858 206.041983 
L 356.677882 213.686634 
L 353.981276 221.176743 
L 350.819684 228.482752 
L 347.205582 235.575826 
L 343.153235 242.427971 
L 338.678634 249.012147 
L 333.799438 255.302368 
L 328.534904 261.273809 
L 322.905809 266.902904 
L 316.934368 272.167438 
L 310.644147 277.046634 
L 304.059971 281.521235 
L 297.207826 285.573582 
L 290.114752 289.187684 
L 282.808743 292.349276 
L 275.318634 295.045882 
L 267.673983 297.266858 
L 259.90496 299.00344 
L 252.042227 300.248775 
L 244.116815 300.997947 
L 236.16 301.248 
L 236.16 300.789651 
L 236.16 300.331302 
L 236.16 299.872953 
L 236.16 299.414604 
L 236.16 298.956255 
L 236.16 298.497906 
L 236.16 298.039557 
L 236.16 297.581209 
L 236.16 297.12286 
L 236.16 296.664511 
L 236.16 296.206162 
L 236.16 295.747813 
L 236.16 295.289464 
L 236.16 294.831115 
L 236.16 294.372766 
L 236.16 293.914417 
L 236.16 293.456068 
L 236.16 292.997719 
L 236.16 292.53937 
L 236.16 292.081021 
L 236.16 291.622672 
L 236.16 291.164323 
L 236.16 290.705974 
L 236.16 290.247626 
L 236.16 289.789277 
L 236.16 289.330928 
L 236.16 288.872579 
L 236.16 288.41423 
L 236.16 287.955881 
L 236.16 287.497532 
L 236.16 287.039183 
L 236.16 286.580834 
L 236.16 286.122485 
L 236.16 285.664136 
L 236.16 285.205787 
L 236.16 284.747438 
L 236.16 284.289089 
L 236.16 283.83074 
L 236.16 283.372391 
L 236.16 282.914043 
L 236.16 282.455694 
L 236.16 281.997345 
L 236.16 281.538996 
L 236.16 281.080647 
L 236.16 280.622298 
L 236.16 280.163949 
L 236.16 279.7056 
L 236.16 279.247251 
L 236.16 278.788902 
L 236.16 278.330553 
L 236.16 277.872204 
L 236.16 277.413855 
L 236.16 276.955506 
L 236.16 276.497157 
L 236.16 276.038809 
L 236.16 275.58046 
L 236.16 275.122111 
L 236.16 274.663762 
L 236.16 274.205413 
L 236.16 273.747064 
L 236.16 273.288715 
L 236.16 272.830366 
L 236.16 272.372017 
L 236.16 271.913668 
L 236.16 271.455319 
L 236.16 270.99697 
L 236.16 270.538621 
L 236.16 270.080272 
L 236.16 269.621923 
L 236.16 269.163574 
L 236.16 268.705226 
L 236.16 268.246877 
L 236.16 267.788528 
L 236.16 267.330179 
L 236.16 266.87183 
L 236.16 266.413481 
L 236.16 265.955132 
L 236.16 265.496783 
L 236.16 265.038434 
L 236.16 264.580085 
L 236.16 264.121736 
L 236.16 263.663387 
L 236.16 263.205038 
L 236.16 262.746689 
L 236.16 262.28834 
L 236.16 261.829991 
L 236.16 261.371643 
L 236.16 260.913294 
L 236.16 260.454945 
L 236.16 259.996596 
L 236.16 259.538247 
L 236.16 259.079898 
L 236.16 258.621549 
L 236.16 258.1632 
L 236.16 257.704851 
L 236.16 257.246502 
L 236.16 256.788153 
L 236.16 256.329804 
L 236.16 255.871455 
z
" style="fill:#88c100;"/>
   </g>
  </g>
 </g>
 <defs>
  <clipPath id="pe60ddbb5ba">
   <path d="M 369.216 174.528 
C 369.216 157.055246 365.774248 139.752393 359.087715 123.609673 
C 352.401182 107.466954 342.599903 92.798303 330.2448 80.4432 
C 317.889697 68.088097 303.221046 58.286818 287.078327 51.600285 
C 270.935607 44.913752 253.632754 41.472 236.16 41.472 
C 218.687246 41.472 201.384393 44.913752 185.241673 51.600285 
C 169.098954 58.286818 154.430303 68.088097 142.0752 80.4432 
C 129.720097 92.798303 119.918818 107.466954 113.232285 123.609673 
C 106.545752 139.752393 103.104 157.055246 103.104 174.528 
C 103.104 192.000754 106.545752 209.303607 113.232285 225.446327 
C 119.918818 241.589046 129.720097 256.257697 142.0752 268.6128 
C 154.430303 280.967903 169.098954 290.769182 185.241673 297.455715 
C 201.384393 304.142248 218.687246 307.584 236.16 307.584 
C 253.632754 307.584 270.935607 304.142248 287.078327 297.455715 
C 303.221046 290.769182 317.889697 280.967903 330.2448 268.6128 
C 342.599903 256.257697 352.401182 241.589046 359.087715 225.446327 
C 365.774248 209.303607 369.216 192.000754 369.216 174.528 
M 236.16 174.528 
C 236.16 174.528 236.16 174.528 236.16 174.528 
C 236.16 174.528 236.16 174.528 236.16 174.528 
C 236.16 174.528 236.16 174.528 236.16 174.528 
C 236.16 174.528 236.16 174.528 236.16 174.528 
C 236.16 174.528 236.16 174.528 236.16 174.528 
C 236.16 174.528 236.16 174.528 236.16 174.528 
C 236.16 174.528 236.16 174.528 236.16 174.528 
C 236.16 174.528 236.16 174.528 236.16 174.528 
C 236.16 174.528 236.16 174.528 236.16 174.528 
C 236.16 174.528 236.16 174.528 236.16 174.528 
C 236.16 174.528 236.16 174.528 236.16 174.528 
C 236.16 174.528 236.16 174.528 236.16 174.528 
C 236.16 174.528 236.16 174.528 236.16 174.528 
C 236.16 174.528 236.16 174.528 236.16 174.528 
C 236.16 174.528 236.16 174.528 236.16 174.528 
C 236.16 174.528 236.16 174.528 236.16 174.528 
M 369.216 174.528 
z
"/>
  </clipPath>
 </defs>
</svg>
