<?xml version="1.0" encoding="utf-8" standalone="no"?>
<!DOCTYPE svg PUBLIC "-//W3C//DTD SVG 1.1//EN"
  "http://www.w3.org/Graphics/SVG/1.1/DTD/svg11.dtd">
<!-- Created with matplotlib (https://matplotlib.org/) -->
<svg height="345.6pt" version="1.1" viewBox="0 0 460.8 345.6" width="460.8pt" xmlns="http://www.w3.org/2000/svg" xmlns:xlink="http://www.w3.org/1999/xlink">
 <defs>
  <style type="text/css">
*{stroke-linecap:butt;stroke-linejoin:round;}
  </style>
 </defs>
 <g id="figure_1">
  <g id="patch_1">
   <path d="M 0 345.6 
L 460.8 345.6 
L 460.8 0 
L 0 0 
z
" style="fill:none;"/>
  </g>
  <g id="axes_1">
   <g id="patch_2">
    <path clip-path="url(#peedf28188c)" d="M 236.16 174.528 
L 236.16 174.528 
L 236.16 174.528 
L 236.16 174.528 
L 236.16 174.528 
L 236.16 174.528 
L 236.16 174.528 
L 236.16 174.528 
L 236.16 174.528 
L 236.16 174.528 
L 236.16 174.528 
L 236.16 174.528 
L 236.16 174.528 
L 236.16 174.528 
L 236.16 174.528 
L 236.16 174.528 
L 236.16 174.528 
L 236.16 174.528 
L 236.16 174.528 
L 236.16 174.528 
L 236.16 174.528 
L 236.16 174.528 
L 236.16 174.528 
L 236.16 174.528 
L 236.16 174.528 
L 236.16 174.528 
L 236.16 174.528 
L 236.16 174.528 
L 236.16 174.528 
L 236.16 174.528 
L 236.16 174.528 
L 236.16 174.528 
L 236.16 174.528 
L 236.16 174.528 
L 236.16 174.528 
L 236.16 174.528 
L 236.16 174.528 
L 236.16 174.528 
L 236.16 174.528 
L 236.16 174.528 
L 236.16 174.528 
L 236.16 174.528 
L 236.16 174.528 
L 236.16 174.528 
L 236.16 174.528 
L 236.16 174.528 
L 236.16 174.528 
L 236.16 174.528 
L 236.16 174.528 
L 236.16 174.528 
L 236.16 174.528 
L 236.16 174.528 
L 236.16 174.528 
L 236.16 174.528 
L 236.16 174.528 
L 236.16 174.528 
L 236.16 174.528 
L 236.16 174.528 
L 236.16 174.528 
L 236.16 174.528 
L 236.16 174.528 
L 236.16 174.528 
L 236.16 174.528 
L 236.16 174.528 
L 236.16 174.528 
L 236.16 174.528 
L 236.16 174.528 
L 236.16 174.528 
L 236.16 174.528 
L 236.16 174.528 
L 236.16 174.528 
L 236.16 174.528 
L 236.16 174.528 
L 236.16 174.528 
L 236.16 174.528 
L 236.16 174.528 
L 236.16 174.528 
L 236.16 174.528 
L 236.16 174.528 
L 236.16 174.528 
L 236.16 174.528 
L 236.16 174.528 
L 236.16 174.528 
L 236.16 174.528 
L 236.16 174.528 
L 236.16 174.528 
L 236.16 174.528 
L 236.16 174.528 
L 236.16 174.528 
L 236.16 174.528 
L 236.16 174.528 
L 236.16 174.528 
L 236.16 174.528 
L 236.16 174.528 
L 236.16 174.528 
L 236.16 174.528 
L 236.16 174.528 
L 236.16 174.528 
L 236.16 174.528 
L 236.16 174.528 
L 236.16 174.528 
L 236.16 175.141161 
L 236.16 175.754323 
L 236.16 176.367484 
L 236.16 176.980645 
L 236.16 177.593806 
L 236.16 178.206968 
L 236.16 178.820129 
L 236.16 179.43329 
L 236.16 180.046452 
L 236.16 180.659613 
L 236.16 181.272774 
L 236.16 181.885935 
L 236.16 182.499097 
L 236.16 183.112258 
L 236.16 183.725419 
L 236.16 184.338581 
L 236.16 184.951742 
L 236.16 185.564903 
L 236.16 186.178065 
L 236.16 186.791226 
L 236.16 187.404387 
L 236.16 188.017548 
L 236.16 188.63071 
L 236.16 189.243871 
L 236.16 189.857032 
L 236.16 190.470194 
L 236.16 191.083355 
L 236.16 191.696516 
L 236.16 192.309677 
L 236.16 192.922839 
L 236.16 193.536 
L 236.16 194.149161 
L 236.16 194.762323 
L 236.16 195.375484 
L 236.16 195.988645 
L 236.16 196.601806 
L 236.16 197.214968 
L 236.16 197.828129 
L 236.16 198.44129 
L 236.16 199.054452 
L 236.16 199.667613 
L 236.16 200.280774 
L 236.16 200.893935 
L 236.16 201.507097 
L 236.16 202.120258 
L 236.16 202.733419 
L 236.16 203.346581 
L 236.16 203.959742 
L 236.16 204.572903 
L 236.16 205.186065 
L 236.16 205.799226 
L 236.16 206.412387 
L 236.16 207.025548 
L 236.16 207.63871 
L 236.16 208.251871 
L 236.16 208.865032 
L 236.16 209.478194 
L 236.16 210.091355 
L 236.16 210.704516 
L 236.16 211.317677 
L 236.16 211.930839 
L 236.16 212.544 
L 236.16 213.157161 
L 236.16 213.770323 
L 236.16 214.383484 
L 236.16 214.996645 
L 236.16 215.609806 
L 236.16 216.222968 
L 236.16 216.836129 
L 236.16 217.44929 
L 236.16 218.062452 
L 236.16 218.675613 
L 236.16 219.288774 
L 236.16 219.901935 
L 236.16 220.515097 
L 236.16 221.128258 
L 236.16 221.741419 
L 236.16 222.354581 
L 236.16 222.967742 
L 236.16 223.580903 
L 236.16 224.194065 
L 236.16 224.807226 
L 236.16 225.420387 
L 236.16 226.033548 
L 236.16 226.64671 
L 236.16 227.259871 
L 236.16 227.873032 
L 236.16 228.486194 
L 236.16 229.099355 
L 236.16 229.712516 
L 236.16 230.325677 
L 236.16 230.938839 
L 236.16 231.552 
L 236.16 232.165161 
L 236.16 232.778323 
L 236.16 233.391484 
L 236.16 234.004645 
L 236.16 234.617806 
L 236.16 235.230968 
L 236.16 235.844129 
L 232.309928 235.723136 
L 228.475051 235.360633 
L 224.670503 234.758052 
L 220.911299 233.91777 
L 217.212274 232.843104 
L 213.588027 231.538295 
L 210.052862 230.008492 
L 206.62073 228.259733 
L 203.305175 226.29892 
L 200.119284 224.13379 
L 197.075628 221.772889 
L 194.186221 219.225534 
L 191.462466 216.501779 
L 188.915111 213.612372 
L 186.55421 210.568716 
L 184.38908 207.382825 
L 182.428267 204.06727 
L 180.679508 200.635138 
L 179.149705 197.099973 
L 177.844896 193.475726 
L 176.77023 189.776701 
L 175.929948 186.017497 
L 175.327367 182.212949 
L 174.964864 178.378072 
L 174.843871 174.528 
L 174.964864 170.677928 
L 175.327367 166.843051 
L 175.929948 163.038503 
L 176.77023 159.279299 
L 177.844896 155.580274 
L 179.149705 151.956027 
L 180.679508 148.420862 
L 182.428267 144.98873 
L 184.38908 141.673175 
L 186.55421 138.487284 
L 188.915111 135.443628 
L 191.462466 132.554221 
L 194.186221 129.830466 
L 197.075628 127.283111 
L 200.119284 124.92221 
L 203.305175 122.75708 
L 206.62073 120.796267 
L 210.052862 119.047508 
L 213.588027 117.517705 
L 217.212274 116.212896 
L 220.911299 115.13823 
L 224.670503 114.297948 
L 228.475051 113.695367 
L 232.309928 113.332864 
L 236.16 113.211871 
L 240.010072 113.332864 
L 243.844949 113.695367 
L 247.649497 114.297948 
L 251.408701 115.13823 
L 255.107726 116.212896 
L 258.731973 117.517705 
L 262.267138 119.047508 
L 265.69927 120.796267 
L 269.014825 122.75708 
L 272.200716 124.92221 
L 275.244372 127.283111 
L 278.133779 129.830466 
L 280.857534 132.554221 
L 283.404889 135.443628 
L 285.76579 138.487284 
L 287.93092 141.673175 
L 289.891733 144.98873 
L 291.640492 148.420862 
L 293.170295 151.956027 
L 294.475104 155.580274 
L 295.54977 159.279299 
L 296.390052 163.038503 
L 296.992633 166.843051 
L 297.355136 170.677928 
L 297.476129 174.528 
L 297.355136 178.378072 
L 296.992633 182.212949 
L 296.390052 186.017497 
L 295.54977 189.776701 
L 294.475104 193.475726 
L 293.170295 197.099973 
L 291.640492 200.635138 
L 289.891733 204.06727 
L 287.93092 207.382825 
L 285.76579 210.568716 
L 283.404889 213.612372 
L 280.857534 216.501779 
L 278.133779 219.225534 
L 275.244372 221.772889 
L 272.200716 224.13379 
L 269.014825 226.29892 
L 265.69927 228.259733 
L 262.267138 230.008492 
L 258.731973 231.538295 
L 255.107726 232.843104 
L 251.408701 233.91777 
L 247.649497 234.758052 
L 243.844949 235.360633 
L 240.010072 235.723136 
L 236.16 235.844129 
L 236.16 235.230968 
L 236.16 234.617806 
L 236.16 234.004645 
L 236.16 233.391484 
L 236.16 232.778323 
L 236.16 232.165161 
L 236.16 231.552 
L 236.16 230.938839 
L 236.16 230.325677 
L 236.16 229.712516 
L 236.16 229.099355 
L 236.16 228.486194 
L 236.16 227.873032 
L 236.16 227.259871 
L 236.16 226.64671 
L 236.16 226.033548 
L 236.16 225.420387 
L 236.16 224.807226 
L 236.16 224.194065 
L 236.16 223.580903 
L 236.16 222.967742 
L 236.16 222.354581 
L 236.16 221.741419 
L 236.16 221.128258 
L 236.16 220.515097 
L 236.16 219.901935 
L 236.16 219.288774 
L 236.16 218.675613 
L 236.16 218.062452 
L 236.16 217.44929 
L 236.16 216.836129 
L 236.16 216.222968 
L 236.16 215.609806 
L 236.16 214.996645 
L 236.16 214.383484 
L 236.16 213.770323 
L 236.16 213.157161 
L 236.16 212.544 
L 236.16 211.930839 
L 236.16 211.317677 
L 236.16 210.704516 
L 236.16 210.091355 
L 236.16 209.478194 
L 236.16 208.865032 
L 236.16 208.251871 
L 236.16 207.63871 
L 236.16 207.025548 
L 236.16 206.412387 
L 236.16 205.799226 
L 236.16 205.186065 
L 236.16 204.572903 
L 236.16 203.959742 
L 236.16 203.346581 
L 236.16 202.733419 
L 236.16 202.120258 
L 236.16 201.507097 
L 236.16 200.893935 
L 236.16 200.280774 
L 236.16 199.667613 
L 236.16 199.054452 
L 236.16 198.44129 
L 236.16 197.828129 
L 236.16 197.214968 
L 236.16 196.601806 
L 236.16 195.988645 
L 236.16 195.375484 
L 236.16 194.762323 
L 236.16 194.149161 
L 236.16 193.536 
L 236.16 192.922839 
L 236.16 192.309677 
L 236.16 191.696516 
L 236.16 191.083355 
L 236.16 190.470194 
L 236.16 189.857032 
L 236.16 189.243871 
L 236.16 188.63071 
L 236.16 188.017548 
L 236.16 187.404387 
L 236.16 186.791226 
L 236.16 186.178065 
L 236.16 185.564903 
L 236.16 184.951742 
L 236.16 184.338581 
L 236.16 183.725419 
L 236.16 183.112258 
L 236.16 182.499097 
L 236.16 181.885935 
L 236.16 181.272774 
L 236.16 180.659613 
L 236.16 180.046452 
L 236.16 179.43329 
L 236.16 178.820129 
L 236.16 178.206968 
L 236.16 177.593806 
L 236.16 176.980645 
L 236.16 176.367484 
L 236.16 175.754323 
L 236.16 175.141161 
z
" style="fill:#fabe28;"/>
   </g>
   <g id="patch_3">
    <path clip-path="url(#peedf28188c)" d="M 236.16 235.844129 
L 240.010072 235.723136 
L 243.844949 235.360633 
L 247.649497 234.758052 
L 251.408701 233.91777 
L 255.107726 232.843104 
L 258.731973 231.538295 
L 262.267138 230.008492 
L 265.69927 228.259733 
L 269.014825 226.29892 
L 272.200716 224.13379 
L 275.244372 221.772889 
L 278.133779 219.225534 
L 280.857534 216.501779 
L 283.404889 213.612372 
L 285.76579 210.568716 
L 287.93092 207.382825 
L 289.891733 204.06727 
L 291.640492 200.635138 
L 293.170295 197.099973 
L 294.475104 193.475726 
L 295.54977 189.776701 
L 296.390052 186.017497 
L 296.992633 182.212949 
L 297.355136 178.378072 
L 297.476129 174.528 
L 297.355136 170.677928 
L 296.992633 166.843051 
L 296.390052 163.038503 
L 295.54977 159.279299 
L 294.475104 155.580274 
L 293.170295 151.956027 
L 291.640492 148.420862 
L 289.891733 144.98873 
L 287.93092 141.673175 
L 285.76579 138.487284 
L 283.404889 135.443628 
L 280.857534 132.554221 
L 278.133779 129.830466 
L 275.244372 127.283111 
L 272.200716 124.92221 
L 269.014825 122.75708 
L 265.69927 120.796267 
L 262.267138 119.047508 
L 258.731973 117.517705 
L 255.107726 116.212896 
L 251.408701 115.13823 
L 247.649497 114.297948 
L 243.844949 113.695367 
L 240.010072 113.332864 
L 236.16 113.211871 
L 232.309928 113.332864 
L 228.475051 113.695367 
L 224.670503 114.297948 
L 220.911299 115.13823 
L 217.212274 116.212896 
L 213.588027 117.517705 
L 210.052862 119.047508 
L 206.62073 120.796267 
L 203.305175 122.75708 
L 200.119284 124.92221 
L 197.075628 127.283111 
L 194.186221 129.830466 
L 191.462466 132.554221 
L 188.915111 135.443628 
L 186.55421 138.487284 
L 184.38908 141.673175 
L 182.428267 144.98873 
L 180.679508 148.420862 
L 179.149705 151.956027 
L 177.844896 155.580274 
L 176.77023 159.279299 
L 175.929948 163.038503 
L 175.327367 166.843051 
L 174.964864 170.677928 
L 174.843871 174.528 
L 174.964864 178.378072 
L 175.327367 182.212949 
L 175.929948 186.017497 
L 176.77023 189.776701 
L 177.844896 193.475726 
L 179.149705 197.099973 
L 180.679508 200.635138 
L 182.428267 204.06727 
L 184.38908 207.382825 
L 186.55421 210.568716 
L 188.915111 213.612372 
L 191.462466 216.501779 
L 194.186221 219.225534 
L 197.075628 221.772889 
L 200.119284 224.13379 
L 203.305175 226.29892 
L 206.62073 228.259733 
L 210.052862 230.008492 
L 213.588027 231.538295 
L 217.212274 232.843104 
L 220.911299 233.91777 
L 224.670503 234.758052 
L 228.475051 235.360633 
L 232.309928 235.723136 
L 236.16 235.844129 
L 236.16 235.844129 
L 236.16 235.844129 
L 236.16 235.844129 
L 236.16 235.844129 
L 236.16 235.844129 
L 236.16 235.844129 
L 236.16 235.844129 
L 236.16 235.844129 
L 236.16 235.844129 
L 236.16 235.844129 
L 236.16 235.844129 
L 236.16 235.844129 
L 236.16 235.844129 
L 236.16 235.844129 
L 236.16 235.844129 
L 236.16 235.844129 
L 236.16 235.844129 
L 236.16 235.844129 
L 236.16 235.844129 
L 236.16 235.844129 
L 236.16 235.844129 
L 236.16 235.844129 
L 236.16 235.844129 
L 236.16 235.844129 
L 236.16 235.844129 
L 236.16 235.844129 
L 236.16 235.844129 
L 236.16 235.844129 
L 236.16 235.844129 
L 236.16 235.844129 
L 236.16 235.844129 
L 236.16 235.844129 
L 236.16 235.844129 
L 236.16 235.844129 
L 236.16 235.844129 
L 236.16 235.844129 
L 236.16 235.844129 
L 236.16 235.844129 
L 236.16 235.844129 
L 236.16 235.844129 
L 236.16 235.844129 
L 236.16 235.844129 
L 236.16 235.844129 
L 236.16 235.844129 
L 236.16 235.844129 
L 236.16 235.844129 
L 236.16 235.844129 
L 236.16 235.844129 
L 236.16 235.844129 
L 236.16 235.844129 
L 236.16 235.844129 
L 236.16 235.844129 
L 236.16 235.844129 
L 236.16 235.844129 
L 236.16 235.844129 
L 236.16 235.844129 
L 236.16 235.844129 
L 236.16 235.844129 
L 236.16 235.844129 
L 236.16 235.844129 
L 236.16 235.844129 
L 236.16 235.844129 
L 236.16 235.844129 
L 236.16 235.844129 
L 236.16 235.844129 
L 236.16 235.844129 
L 236.16 235.844129 
L 236.16 235.844129 
L 236.16 235.844129 
L 236.16 235.844129 
L 236.16 235.844129 
L 236.16 235.844129 
L 236.16 235.844129 
L 236.16 235.844129 
L 236.16 235.844129 
L 236.16 235.844129 
L 236.16 235.844129 
L 236.16 235.844129 
L 236.16 235.844129 
L 236.16 235.844129 
L 236.16 235.844129 
L 236.16 235.844129 
L 236.16 235.844129 
L 236.16 235.844129 
L 236.16 235.844129 
L 236.16 235.844129 
L 236.16 235.844129 
L 236.16 235.844129 
L 236.16 235.844129 
L 236.16 235.844129 
L 236.16 235.844129 
L 236.16 235.844129 
L 236.16 235.844129 
L 236.16 235.844129 
L 236.16 235.844129 
L 236.16 235.844129 
L 236.16 235.844129 
L 236.16 235.844129 
L 236.16 235.844129 
L 236.16 235.844129 
L 232.309928 235.723136 
L 228.475051 235.360633 
L 224.670503 234.758052 
L 220.911299 233.91777 
L 217.212274 232.843104 
L 213.588027 231.538295 
L 210.052862 230.008492 
L 206.62073 228.259733 
L 203.305175 226.29892 
L 200.119284 224.13379 
L 197.075628 221.772889 
L 194.186221 219.225534 
L 191.462466 216.501779 
L 188.915111 213.612372 
L 186.55421 210.568716 
L 184.38908 207.382825 
L 182.428267 204.06727 
L 180.679508 200.635138 
L 179.149705 197.099973 
L 177.844896 193.475726 
L 176.77023 189.776701 
L 175.929948 186.017497 
L 175.327367 182.212949 
L 174.964864 178.378072 
L 174.843871 174.528 
L 174.964864 170.677928 
L 175.327367 166.843051 
L 175.929948 163.038503 
L 176.77023 159.279299 
L 177.844896 155.580274 
L 179.149705 151.956027 
L 180.679508 148.420862 
L 182.428267 144.98873 
L 184.38908 141.673175 
L 186.55421 138.487284 
L 188.915111 135.443628 
L 191.462466 132.554221 
L 194.186221 129.830466 
L 197.075628 127.283111 
L 200.119284 124.92221 
L 203.305175 122.75708 
L 206.62073 120.796267 
L 210.052862 119.047508 
L 213.588027 117.517705 
L 217.212274 116.212896 
L 220.911299 115.13823 
L 224.670503 114.297948 
L 228.475051 113.695367 
L 232.309928 113.332864 
L 236.16 113.211871 
L 240.010072 113.332864 
L 243.844949 113.695367 
L 247.649497 114.297948 
L 251.408701 115.13823 
L 255.107726 116.212896 
L 258.731973 117.517705 
L 262.267138 119.047508 
L 265.69927 120.796267 
L 269.014825 122.75708 
L 272.200716 124.92221 
L 275.244372 127.283111 
L 278.133779 129.830466 
L 280.857534 132.554221 
L 283.404889 135.443628 
L 285.76579 138.487284 
L 287.93092 141.673175 
L 289.891733 144.98873 
L 291.640492 148.420862 
L 293.170295 151.956027 
L 294.475104 155.580274 
L 295.54977 159.279299 
L 296.390052 163.038503 
L 296.992633 166.843051 
L 297.355136 170.677928 
L 297.476129 174.528 
L 297.355136 178.378072 
L 296.992633 182.212949 
L 296.390052 186.017497 
L 295.54977 189.776701 
L 294.475104 193.475726 
L 293.170295 197.099973 
L 291.640492 200.635138 
L 289.891733 204.06727 
L 287.93092 207.382825 
L 285.76579 210.568716 
L 283.404889 213.612372 
L 280.857534 216.501779 
L 278.133779 219.225534 
L 275.244372 221.772889 
L 272.200716 224.13379 
L 269.014825 226.29892 
L 265.69927 228.259733 
L 262.267138 230.008492 
L 258.731973 231.538295 
L 255.107726 232.843104 
L 251.408701 233.91777 
L 247.649497 234.758052 
L 243.844949 235.360633 
L 240.010072 235.723136 
L 236.16 235.844129 
L 236.16 235.844129 
L 236.16 235.844129 
L 236.16 235.844129 
L 236.16 235.844129 
L 236.16 235.844129 
L 236.16 235.844129 
L 236.16 235.844129 
L 236.16 235.844129 
L 236.16 235.844129 
L 236.16 235.844129 
L 236.16 235.844129 
L 236.16 235.844129 
L 236.16 235.844129 
L 236.16 235.844129 
L 236.16 235.844129 
L 236.16 235.844129 
L 236.16 235.844129 
L 236.16 235.844129 
L 236.16 235.844129 
L 236.16 235.844129 
L 236.16 235.844129 
L 236.16 235.844129 
L 236.16 235.844129 
L 236.16 235.844129 
L 236.16 235.844129 
L 236.16 235.844129 
L 236.16 235.844129 
L 236.16 235.844129 
L 236.16 235.844129 
L 236.16 235.844129 
L 236.16 235.844129 
L 236.16 235.844129 
L 236.16 235.844129 
L 236.16 235.844129 
L 236.16 235.844129 
L 236.16 235.844129 
L 236.16 235.844129 
L 236.16 235.844129 
L 236.16 235.844129 
L 236.16 235.844129 
L 236.16 235.844129 
L 236.16 235.844129 
L 236.16 235.844129 
L 236.16 235.844129 
L 236.16 235.844129 
L 236.16 235.844129 
L 236.16 235.844129 
L 236.16 235.844129 
L 236.16 235.844129 
L 236.16 235.844129 
L 236.16 235.844129 
L 236.16 235.844129 
L 236.16 235.844129 
L 236.16 235.844129 
L 236.16 235.844129 
L 236.16 235.844129 
L 236.16 235.844129 
L 236.16 235.844129 
L 236.16 235.844129 
L 236.16 235.844129 
L 236.16 235.844129 
L 236.16 235.844129 
L 236.16 235.844129 
L 236.16 235.844129 
L 236.16 235.844129 
L 236.16 235.844129 
L 236.16 235.844129 
L 236.16 235.844129 
L 236.16 235.844129 
L 236.16 235.844129 
L 236.16 235.844129 
L 236.16 235.844129 
L 236.16 235.844129 
L 236.16 235.844129 
L 236.16 235.844129 
L 236.16 235.844129 
L 236.16 235.844129 
L 236.16 235.844129 
L 236.16 235.844129 
L 236.16 235.844129 
L 236.16 235.844129 
L 236.16 235.844129 
L 236.16 235.844129 
L 236.16 235.844129 
L 236.16 235.844129 
L 236.16 235.844129 
L 236.16 235.844129 
L 236.16 235.844129 
L 236.16 235.844129 
L 236.16 235.844129 
L 236.16 235.844129 
L 236.16 235.844129 
L 236.16 235.844129 
L 236.16 235.844129 
L 236.16 235.844129 
L 236.16 235.844129 
L 236.16 235.844129 
L 236.16 235.844129 
L 236.16 235.844129 
z
" style="fill:#ff003c;"/>
   </g>
   <g id="patch_4">
    <path clip-path="url(#peedf28188c)" d="M 236.16 235.844129 
L 240.010072 235.723136 
L 243.844949 235.360633 
L 247.649497 234.758052 
L 251.408701 233.91777 
L 255.107726 232.843104 
L 258.731973 231.538295 
L 262.267138 230.008492 
L 265.69927 228.259733 
L 269.014825 226.29892 
L 272.200716 224.13379 
L 275.244372 221.772889 
L 278.133779 219.225534 
L 280.857534 216.501779 
L 283.404889 213.612372 
L 285.76579 210.568716 
L 287.93092 207.382825 
L 289.891733 204.06727 
L 291.640492 200.635138 
L 293.170295 197.099973 
L 294.475104 193.475726 
L 295.54977 189.776701 
L 296.390052 186.017497 
L 296.992633 182.212949 
L 297.355136 178.378072 
L 297.476129 174.528 
L 297.355136 170.677928 
L 296.992633 166.843051 
L 296.390052 163.038503 
L 295.54977 159.279299 
L 294.475104 155.580274 
L 293.170295 151.956027 
L 291.640492 148.420862 
L 289.891733 144.98873 
L 287.93092 141.673175 
L 285.76579 138.487284 
L 283.404889 135.443628 
L 280.857534 132.554221 
L 278.133779 129.830466 
L 275.244372 127.283111 
L 272.200716 124.92221 
L 269.014825 122.75708 
L 265.69927 120.796267 
L 262.267138 119.047508 
L 258.731973 117.517705 
L 255.107726 116.212896 
L 251.408701 115.13823 
L 247.649497 114.297948 
L 243.844949 113.695367 
L 240.010072 113.332864 
L 236.16 113.211871 
L 232.309928 113.332864 
L 228.475051 113.695367 
L 224.670503 114.297948 
L 220.911299 115.13823 
L 217.212274 116.212896 
L 213.588027 117.517705 
L 210.052862 119.047508 
L 206.62073 120.796267 
L 203.305175 122.75708 
L 200.119284 124.92221 
L 197.075628 127.283111 
L 194.186221 129.830466 
L 191.462466 132.554221 
L 188.915111 135.443628 
L 186.55421 138.487284 
L 184.38908 141.673175 
L 182.428267 144.98873 
L 180.679508 148.420862 
L 179.149705 151.956027 
L 177.844896 155.580274 
L 176.77023 159.279299 
L 175.929948 163.038503 
L 175.327367 166.843051 
L 174.964864 170.677928 
L 174.843871 174.528 
L 174.964864 178.378072 
L 175.327367 182.212949 
L 175.929948 186.017497 
L 176.77023 189.776701 
L 177.844896 193.475726 
L 179.149705 197.099973 
L 180.679508 200.635138 
L 182.428267 204.06727 
L 184.38908 207.382825 
L 186.55421 210.568716 
L 188.915111 213.612372 
L 191.462466 216.501779 
L 194.186221 219.225534 
L 197.075628 221.772889 
L 200.119284 224.13379 
L 203.305175 226.29892 
L 206.62073 228.259733 
L 210.052862 230.008492 
L 213.588027 231.538295 
L 217.212274 232.843104 
L 220.911299 233.91777 
L 224.670503 234.758052 
L 228.475051 235.360633 
L 232.309928 235.723136 
L 236.16 235.844129 
L 236.16 236.498168 
L 236.16 237.152206 
L 236.16 237.806245 
L 236.16 238.460284 
L 236.16 239.114323 
L 236.16 239.768361 
L 236.16 240.4224 
L 236.16 241.076439 
L 236.16 241.730477 
L 236.16 242.384516 
L 236.16 243.038555 
L 236.16 243.692594 
L 236.16 244.346632 
L 236.16 245.000671 
L 236.16 245.65471 
L 236.16 246.308748 
L 236.16 246.962787 
L 236.16 247.616826 
L 236.16 248.270865 
L 236.16 248.924903 
L 236.16 249.578942 
L 236.16 250.232981 
L 236.16 250.887019 
L 236.16 251.541058 
L 236.16 252.195097 
L 236.16 252.849135 
L 236.16 253.503174 
L 236.16 254.157213 
L 236.16 254.811252 
L 236.16 255.46529 
L 236.16 256.119329 
L 236.16 256.773368 
L 236.16 257.427406 
L 236.16 258.081445 
L 236.16 258.735484 
L 236.16 259.389523 
L 236.16 260.043561 
L 236.16 260.6976 
L 236.16 261.351639 
L 236.16 262.005677 
L 236.16 262.659716 
L 236.16 263.313755 
L 236.16 263.967794 
L 236.16 264.621832 
L 236.16 265.275871 
L 236.16 265.92991 
L 236.16 266.583948 
L 236.16 267.237987 
L 236.16 267.892026 
L 236.16 268.546065 
L 236.16 269.200103 
L 236.16 269.854142 
L 236.16 270.508181 
L 236.16 271.162219 
L 236.16 271.816258 
L 236.16 272.470297 
L 236.16 273.124335 
L 236.16 273.778374 
L 236.16 274.432413 
L 236.16 275.086452 
L 236.16 275.74049 
L 236.16 276.394529 
L 236.16 277.048568 
L 236.16 277.702606 
L 236.16 278.356645 
L 236.16 279.010684 
L 236.16 279.664723 
L 236.16 280.318761 
L 236.16 280.9728 
L 236.16 281.626839 
L 236.16 282.280877 
L 236.16 282.934916 
L 236.16 283.588955 
L 236.16 284.242994 
L 236.16 284.897032 
L 236.16 285.551071 
L 236.16 286.20511 
L 236.16 286.859148 
L 236.16 287.513187 
L 236.16 288.167226 
L 236.16 288.821265 
L 236.16 289.475303 
L 236.16 290.129342 
L 236.16 290.783381 
L 236.16 291.437419 
L 236.16 292.091458 
L 236.16 292.745497 
L 236.16 293.399535 
L 236.16 294.053574 
L 236.16 294.707613 
L 236.16 295.361652 
L 236.16 296.01569 
L 236.16 296.669729 
L 236.16 297.323768 
L 236.16 297.977806 
L 236.16 298.631845 
L 236.16 299.285884 
L 236.16 299.939923 
L 236.16 300.593961 
L 236.16 301.248 
L 228.203185 300.997947 
L 220.277773 300.248775 
L 212.41504 299.00344 
L 204.646017 297.266858 
L 197.001366 295.045882 
L 189.511257 292.349276 
L 182.205248 289.187684 
L 175.112174 285.573582 
L 168.260029 281.521235 
L 161.675853 277.046634 
L 155.385632 272.167438 
L 149.414191 266.902904 
L 143.785096 261.273809 
L 138.520562 255.302368 
L 133.641366 249.012147 
L 129.166765 242.427971 
L 125.114418 235.575826 
L 121.500316 228.482752 
L 118.338724 221.176743 
L 115.642118 213.686634 
L 113.421142 206.041983 
L 111.68456 198.27296 
L 110.439225 190.410227 
L 109.690053 182.484815 
L 109.44 174.528 
L 109.690053 166.571185 
L 110.439225 158.645773 
L 111.68456 150.78304 
L 113.421142 143.014017 
L 115.642118 135.369366 
L 118.338724 127.879257 
L 121.500316 120.573248 
L 125.114418 113.480174 
L 129.166765 106.628029 
L 133.641366 100.043853 
L 138.520562 93.753632 
L 143.785096 87.782191 
L 149.414191 82.153096 
L 155.385632 76.888562 
L 161.675853 72.009366 
L 168.260029 67.534765 
L 175.112174 63.482418 
L 182.205248 59.868316 
L 189.511257 56.706724 
L 197.001366 54.010118 
L 204.646017 51.789142 
L 212.41504 50.05256 
L 220.277773 48.807225 
L 228.203185 48.058053 
L 236.16 47.808 
L 244.116815 48.058053 
L 252.042227 48.807225 
L 259.90496 50.05256 
L 267.673983 51.789142 
L 275.318634 54.010118 
L 282.808743 56.706724 
L 290.114752 59.868316 
L 297.207826 63.482418 
L 304.059971 67.534765 
L 310.644147 72.009366 
L 316.934368 76.888562 
L 322.905809 82.153096 
L 328.534904 87.782191 
L 333.799438 93.753632 
L 338.678634 100.043853 
L 343.153235 106.628029 
L 347.205582 113.480174 
L 350.819684 120.573248 
L 353.981276 127.879257 
L 356.677882 135.369366 
L 358.898858 143.014017 
L 360.63544 150.78304 
L 361.880775 158.645773 
L 362.629947 166.571185 
L 362.88 174.528 
L 362.629947 182.484815 
L 361.880775 190.410227 
L 360.63544 198.27296 
L 358.898858 206.041983 
L 356.677882 213.686634 
L 353.981276 221.176743 
L 350.819684 228.482752 
L 347.205582 235.575826 
L 343.153235 242.427971 
L 338.678634 249.012147 
L 333.799438 255.302368 
L 328.534904 261.273809 
L 322.905809 266.902904 
L 316.934368 272.167438 
L 310.644147 277.046634 
L 304.059971 281.521235 
L 297.207826 285.573582 
L 290.114752 289.187684 
L 282.808743 292.349276 
L 275.318634 295.045882 
L 267.673983 297.266858 
L 259.90496 299.00344 
L 252.042227 300.248775 
L 244.116815 300.997947 
L 236.16 301.248 
L 236.16 300.593961 
L 236.16 299.939923 
L 236.16 299.285884 
L 236.16 298.631845 
L 236.16 297.977806 
L 236.16 297.323768 
L 236.16 296.669729 
L 236.16 296.01569 
L 236.16 295.361652 
L 236.16 294.707613 
L 236.16 294.053574 
L 236.16 293.399535 
L 236.16 292.745497 
L 236.16 292.091458 
L 236.16 291.437419 
L 236.16 290.783381 
L 236.16 290.129342 
L 236.16 289.475303 
L 236.16 288.821265 
L 236.16 288.167226 
L 236.16 287.513187 
L 236.16 286.859148 
L 236.16 286.20511 
L 236.16 285.551071 
L 236.16 284.897032 
L 236.16 284.242994 
L 236.16 283.588955 
L 236.16 282.934916 
L 236.16 282.280877 
L 236.16 281.626839 
L 236.16 280.9728 
L 236.16 280.318761 
L 236.16 279.664723 
L 236.16 279.010684 
L 236.16 278.356645 
L 236.16 277.702606 
L 236.16 277.048568 
L 236.16 276.394529 
L 236.16 275.74049 
L 236.16 275.086452 
L 236.16 274.432413 
L 236.16 273.778374 
L 236.16 273.124335 
L 236.16 272.470297 
L 236.16 271.816258 
L 236.16 271.162219 
L 236.16 270.508181 
L 236.16 269.854142 
L 236.16 269.200103 
L 236.16 268.546065 
L 236.16 267.892026 
L 236.16 267.237987 
L 236.16 266.583948 
L 236.16 265.92991 
L 236.16 265.275871 
L 236.16 264.621832 
L 236.16 263.967794 
L 236.16 263.313755 
L 236.16 262.659716 
L 236.16 262.005677 
L 236.16 261.351639 
L 236.16 260.6976 
L 236.16 260.043561 
L 236.16 259.389523 
L 236.16 258.735484 
L 236.16 258.081445 
L 236.16 257.427406 
L 236.16 256.773368 
L 236.16 256.119329 
L 236.16 255.46529 
L 236.16 254.811252 
L 236.16 254.157213 
L 236.16 253.503174 
L 236.16 252.849135 
L 236.16 252.195097 
L 236.16 251.541058 
L 236.16 250.887019 
L 236.16 250.232981 
L 236.16 249.578942 
L 236.16 248.924903 
L 236.16 248.270865 
L 236.16 247.616826 
L 236.16 246.962787 
L 236.16 246.308748 
L 236.16 245.65471 
L 236.16 245.000671 
L 236.16 244.346632 
L 236.16 243.692594 
L 236.16 243.038555 
L 236.16 242.384516 
L 236.16 241.730477 
L 236.16 241.076439 
L 236.16 240.4224 
L 236.16 239.768361 
L 236.16 239.114323 
L 236.16 238.460284 
L 236.16 237.806245 
L 236.16 237.152206 
L 236.16 236.498168 
z
" style="fill:#88c100;"/>
   </g>
  </g>
 </g>
 <defs>
  <clipPath id="peedf28188c">
   <path d="M 369.216 174.528 
C 369.216 157.055246 365.774248 139.752393 359.087715 123.609673 
C 352.401182 107.466954 342.599903 92.798303 330.2448 80.4432 
C 317.889697 68.088097 303.221046 58.286818 287.078327 51.600285 
C 270.935607 44.913752 253.632754 41.472 236.16 41.472 
C 218.687246 41.472 201.384393 44.913752 185.241673 51.600285 
C 169.098954 58.286818 154.430303 68.088097 142.0752 80.4432 
C 129.720097 92.798303 119.918818 107.466954 113.232285 123.609673 
C 106.545752 139.752393 103.104 157.055246 103.104 174.528 
C 103.104 192.000754 106.545752 209.303607 113.232285 225.446327 
C 119.918818 241.589046 129.720097 256.257697 142.0752 268.6128 
C 154.430303 280.967903 169.098954 290.769182 185.241673 297.455715 
C 201.384393 304.142248 218.687246 307.584 236.16 307.584 
C 253.632754 307.584 270.935607 304.142248 287.078327 297.455715 
C 303.221046 290.769182 317.889697 280.967903 330.2448 268.6128 
C 342.599903 256.257697 352.401182 241.589046 359.087715 225.446327 
C 365.774248 209.303607 369.216 192.000754 369.216 174.528 
M 236.16 174.528 
C 236.16 174.528 236.16 174.528 236.16 174.528 
C 236.16 174.528 236.16 174.528 236.16 174.528 
C 236.16 174.528 236.16 174.528 236.16 174.528 
C 236.16 174.528 236.16 174.528 236.16 174.528 
C 236.16 174.528 236.16 174.528 236.16 174.528 
C 236.16 174.528 236.16 174.528 236.16 174.528 
C 236.16 174.528 236.16 174.528 236.16 174.528 
C 236.16 174.528 236.16 174.528 236.16 174.528 
C 236.16 174.528 236.16 174.528 236.16 174.528 
C 236.16 174.528 236.16 174.528 236.16 174.528 
C 236.16 174.528 236.16 174.528 236.16 174.528 
C 236.16 174.528 236.16 174.528 236.16 174.528 
C 236.16 174.528 236.16 174.528 236.16 174.528 
C 236.16 174.528 236.16 174.528 236.16 174.528 
C 236.16 174.528 236.16 174.528 236.16 174.528 
C 236.16 174.528 236.16 174.528 236.16 174.528 
M 369.216 174.528 
z
"/>
  </clipPath>
 </defs>
</svg>
