<?xml version="1.0" encoding="utf-8" standalone="no"?>
<!DOCTYPE svg PUBLIC "-//W3C//DTD SVG 1.1//EN"
  "http://www.w3.org/Graphics/SVG/1.1/DTD/svg11.dtd">
<!-- Created with matplotlib (https://matplotlib.org/) -->
<svg height="345.6pt" version="1.1" viewBox="0 0 460.8 345.6" width="460.8pt" xmlns="http://www.w3.org/2000/svg" xmlns:xlink="http://www.w3.org/1999/xlink">
 <defs>
  <style type="text/css">
*{stroke-linecap:butt;stroke-linejoin:round;}
  </style>
 </defs>
 <g id="figure_1">
  <g id="patch_1">
   <path d="M 0 345.6 
L 460.8 345.6 
L 460.8 0 
L 0 0 
z
" style="fill:none;"/>
  </g>
  <g id="axes_1">
   <g id="patch_2">
    <path clip-path="url(#pace650ffa6)" d="M 236.16 174.528 
L 236.16 174.528 
L 236.16 174.528 
L 236.16 174.528 
L 236.16 174.528 
L 236.16 174.528 
L 236.16 174.528 
L 236.16 174.528 
L 236.16 174.528 
L 236.16 174.528 
L 236.16 174.528 
L 236.16 174.528 
L 236.16 174.528 
L 236.16 174.528 
L 236.16 174.528 
L 236.16 174.528 
L 236.16 174.528 
L 236.16 174.528 
L 236.16 174.528 
L 236.16 174.528 
L 236.16 174.528 
L 236.16 174.528 
L 236.16 174.528 
L 236.16 174.528 
L 236.16 174.528 
L 236.16 174.528 
L 236.16 174.528 
L 236.16 174.528 
L 236.16 174.528 
L 236.16 174.528 
L 236.16 174.528 
L 236.16 174.528 
L 236.16 174.528 
L 236.16 174.528 
L 236.16 174.528 
L 236.16 174.528 
L 236.16 174.528 
L 236.16 174.528 
L 236.16 174.528 
L 236.16 174.528 
L 236.16 174.528 
L 236.16 174.528 
L 236.16 174.528 
L 236.16 174.528 
L 236.16 174.528 
L 236.16 174.528 
L 236.16 174.528 
L 236.16 174.528 
L 236.16 174.528 
L 236.16 174.528 
L 236.16 174.528 
L 236.16 174.528 
L 236.16 174.528 
L 236.16 174.528 
L 236.16 174.528 
L 236.16 174.528 
L 236.16 174.528 
L 236.16 174.528 
L 236.16 174.528 
L 236.16 174.528 
L 236.16 174.528 
L 236.16 174.528 
L 236.16 174.528 
L 236.16 174.528 
L 236.16 174.528 
L 236.16 174.528 
L 236.16 174.528 
L 236.16 174.528 
L 236.16 174.528 
L 236.16 174.528 
L 236.16 174.528 
L 236.16 174.528 
L 236.16 174.528 
L 236.16 174.528 
L 236.16 174.528 
L 236.16 174.528 
L 236.16 174.528 
L 236.16 174.528 
L 236.16 174.528 
L 236.16 174.528 
L 236.16 174.528 
L 236.16 174.528 
L 236.16 174.528 
L 236.16 174.528 
L 236.16 174.528 
L 236.16 174.528 
L 236.16 174.528 
L 236.16 174.528 
L 236.16 174.528 
L 236.16 174.528 
L 236.16 174.528 
L 236.16 174.528 
L 236.16 174.528 
L 236.16 174.528 
L 236.16 174.528 
L 236.16 174.528 
L 236.16 174.528 
L 236.16 174.528 
L 236.16 174.528 
L 236.16 174.528 
L 236.16 174.528 
L 235.635143 174.224974 
L 235.110287 173.921948 
L 234.58543 173.618922 
L 234.060574 173.315896 
L 233.535717 173.01287 
L 233.010861 172.709843 
L 232.486004 172.406817 
L 231.961147 172.103791 
L 231.436291 171.800765 
L 230.911434 171.497739 
L 230.386578 171.194713 
L 229.861721 170.891687 
L 229.336864 170.588661 
L 228.812008 170.285635 
L 228.287151 169.982609 
L 227.762295 169.679583 
L 227.237438 169.376557 
L 226.712582 169.07353 
L 226.187725 168.770504 
L 225.662868 168.467478 
L 225.138012 168.164452 
L 224.613155 167.861426 
L 224.088299 167.5584 
L 223.563442 167.255374 
L 223.038586 166.952348 
L 222.513729 166.649322 
L 221.988872 166.346296 
L 221.464016 166.04327 
L 220.939159 165.740243 
L 220.414303 165.437217 
L 219.889446 165.134191 
L 219.364589 164.831165 
L 218.839733 164.528139 
L 218.314876 164.225113 
L 217.79002 163.922087 
L 217.265163 163.619061 
L 216.740307 163.316035 
L 216.21545 163.013009 
L 215.690593 162.709983 
L 215.165737 162.406957 
L 214.64088 162.10393 
L 214.116024 161.800904 
L 213.591167 161.497878 
L 213.066311 161.194852 
L 212.541454 160.891826 
L 212.016597 160.5888 
L 211.491741 160.285774 
L 210.966884 159.982748 
L 210.442028 159.679722 
L 209.917171 159.376696 
L 209.392314 159.07367 
L 208.867458 158.770643 
L 208.342601 158.467617 
L 207.817745 158.164591 
L 207.292888 157.861565 
L 206.768032 157.558539 
L 206.243175 157.255513 
L 205.718318 156.952487 
L 205.193462 156.649461 
L 204.668605 156.346435 
L 204.143749 156.043409 
L 203.618892 155.740383 
L 203.094036 155.437357 
L 202.569179 155.13433 
L 202.044322 154.831304 
L 201.519466 154.528278 
L 200.994609 154.225252 
L 200.469753 153.922226 
L 199.944896 153.6192 
L 199.420039 153.316174 
L 198.895183 153.013148 
L 198.370326 152.710122 
L 197.84547 152.407096 
L 197.320613 152.10407 
L 196.795757 151.801043 
L 196.2709 151.498017 
L 195.746043 151.194991 
L 195.221187 150.891965 
L 194.69633 150.588939 
L 194.171474 150.285913 
L 193.646617 149.982887 
L 193.121761 149.679861 
L 192.596904 149.376835 
L 192.072047 149.073809 
L 191.547191 148.770783 
L 191.022334 148.467757 
L 190.497478 148.16473 
L 189.972621 147.861704 
L 189.447765 147.558678 
L 188.922908 147.255652 
L 188.398051 146.952626 
L 187.873195 146.6496 
L 187.348338 146.346574 
L 186.823482 146.043548 
L 186.298625 145.740522 
L 185.773768 145.437496 
L 185.248912 145.13447 
L 184.724055 144.831443 
L 184.199199 144.528417 
L 183.674342 144.225391 
L 184.320463 143.13286 
L 184.989323 142.054101 
L 185.680627 140.989585 
L 186.394074 139.93978 
L 187.129349 138.905147 
L 187.886131 137.886139 
L 188.664088 136.883204 
L 189.462877 135.896781 
L 190.28215 134.927302 
L 191.121546 133.975194 
L 191.980698 133.040874 
L 192.859228 132.124751 
L 193.756751 131.227228 
L 194.672874 130.348698 
L 195.607194 129.489546 
L 196.559302 128.65015 
L 197.528781 127.830877 
L 198.515204 127.032088 
L 199.518139 126.254131 
L 200.537147 125.497349 
L 201.57178 124.762074 
L 202.621585 124.048627 
L 203.686101 123.357323 
L 204.76486 122.688463 
L 205.857391 122.042342 
L 206.963214 121.419243 
L 208.081843 120.819439 
L 209.212788 120.243194 
L 210.355553 119.69076 
L 211.509637 119.162379 
L 212.674534 118.658283 
L 213.849731 118.178694 
L 215.034715 117.723821 
L 216.228965 117.293865 
L 217.431958 116.889013 
L 218.643165 116.509444 
L 219.862056 116.155323 
L 221.088095 115.826807 
L 222.320746 115.524039 
L 223.559467 115.247152 
L 224.803715 114.996268 
L 226.052944 114.771496 
L 227.306606 114.572935 
L 228.564152 114.400673 
L 229.82503 114.254784 
L 231.088686 114.135334 
L 232.354567 114.042373 
L 233.622117 113.975944 
L 234.89078 113.936074 
L 236.16 113.922783 
L 237.42922 113.936074 
L 238.697883 113.975944 
L 239.965433 114.042373 
L 241.231314 114.135334 
L 242.49497 114.254784 
L 243.755848 114.400673 
L 245.013394 114.572935 
L 246.267056 114.771496 
L 247.516285 114.996268 
L 248.760533 115.247152 
L 249.999254 115.524039 
L 251.231905 115.826807 
L 252.457944 116.155323 
L 253.676835 116.509444 
L 254.888042 116.889013 
L 256.091035 117.293865 
L 257.285285 117.723821 
L 258.470269 118.178694 
L 259.645466 118.658283 
L 260.810363 119.162379 
L 261.964447 119.69076 
L 263.107212 120.243194 
L 264.238157 120.819439 
L 265.356786 121.419243 
L 266.462609 122.042342 
L 267.55514 122.688463 
L 268.633899 123.357323 
L 269.698415 124.048627 
L 270.74822 124.762074 
L 271.782853 125.497349 
L 272.801861 126.254131 
L 273.804796 127.032088 
L 274.791219 127.830877 
L 275.760698 128.65015 
L 276.712806 129.489546 
L 277.647126 130.348698 
L 278.563249 131.227228 
L 279.460772 132.124751 
L 280.339302 133.040874 
L 281.198454 133.975194 
L 282.03785 134.927302 
L 282.857123 135.896781 
L 283.655912 136.883204 
L 284.433869 137.886139 
L 285.190651 138.905147 
L 285.925926 139.93978 
L 286.639373 140.989585 
L 287.330677 142.054101 
L 287.999537 143.13286 
L 288.645658 144.225391 
L 288.120801 144.528417 
L 287.595945 144.831443 
L 287.071088 145.13447 
L 286.546232 145.437496 
L 286.021375 145.740522 
L 285.496518 146.043548 
L 284.971662 146.346574 
L 284.446805 146.6496 
L 283.921949 146.952626 
L 283.397092 147.255652 
L 282.872235 147.558678 
L 282.347379 147.861704 
L 281.822522 148.16473 
L 281.297666 148.467757 
L 280.772809 148.770783 
L 280.247953 149.073809 
L 279.723096 149.376835 
L 279.198239 149.679861 
L 278.673383 149.982887 
L 278.148526 150.285913 
L 277.62367 150.588939 
L 277.098813 150.891965 
L 276.573957 151.194991 
L 276.0491 151.498017 
L 275.524243 151.801043 
L 274.999387 152.10407 
L 274.47453 152.407096 
L 273.949674 152.710122 
L 273.424817 153.013148 
L 272.899961 153.316174 
L 272.375104 153.6192 
L 271.850247 153.922226 
L 271.325391 154.225252 
L 270.800534 154.528278 
L 270.275678 154.831304 
L 269.750821 155.13433 
L 269.225964 155.437357 
L 268.701108 155.740383 
L 268.176251 156.043409 
L 267.651395 156.346435 
L 267.126538 156.649461 
L 266.601682 156.952487 
L 266.076825 157.255513 
L 265.551968 157.558539 
L 265.027112 157.861565 
L 264.502255 158.164591 
L 263.977399 158.467617 
L 263.452542 158.770643 
L 262.927686 159.07367 
L 262.402829 159.376696 
L 261.877972 159.679722 
L 261.353116 159.982748 
L 260.828259 160.285774 
L 260.303403 160.5888 
L 259.778546 160.891826 
L 259.253689 161.194852 
L 258.728833 161.497878 
L 258.203976 161.800904 
L 257.67912 162.10393 
L 257.154263 162.406957 
L 256.629407 162.709983 
L 256.10455 163.013009 
L 255.579693 163.316035 
L 255.054837 163.619061 
L 254.52998 163.922087 
L 254.005124 164.225113 
L 253.480267 164.528139 
L 252.955411 164.831165 
L 252.430554 165.134191 
L 251.905697 165.437217 
L 251.380841 165.740243 
L 250.855984 166.04327 
L 250.331128 166.346296 
L 249.806271 166.649322 
L 249.281414 166.952348 
L 248.756558 167.255374 
L 248.231701 167.5584 
L 247.706845 167.861426 
L 247.181988 168.164452 
L 246.657132 168.467478 
L 246.132275 168.770504 
L 245.607418 169.07353 
L 245.082562 169.376557 
L 244.557705 169.679583 
L 244.032849 169.982609 
L 243.507992 170.285635 
L 242.983136 170.588661 
L 242.458279 170.891687 
L 241.933422 171.194713 
L 241.408566 171.497739 
L 240.883709 171.800765 
L 240.358853 172.103791 
L 239.833996 172.406817 
L 239.309139 172.709843 
L 238.784283 173.01287 
L 238.259426 173.315896 
L 237.73457 173.618922 
L 237.209713 173.921948 
L 236.684857 174.224974 
z
" style="fill:#fabe28;"/>
   </g>
   <g id="patch_3">
    <path clip-path="url(#pace650ffa6)" d="M 288.645658 144.225391 
L 287.999537 143.13286 
L 287.330677 142.054101 
L 286.639373 140.989585 
L 285.925926 139.93978 
L 285.190651 138.905147 
L 284.433869 137.886139 
L 283.655912 136.883204 
L 282.857123 135.896781 
L 282.03785 134.927302 
L 281.198454 133.975194 
L 280.339302 133.040874 
L 279.460772 132.124751 
L 278.563249 131.227228 
L 277.647126 130.348698 
L 276.712806 129.489546 
L 275.760698 128.65015 
L 274.791219 127.830877 
L 273.804796 127.032088 
L 272.801861 126.254131 
L 271.782853 125.497349 
L 270.74822 124.762074 
L 269.698415 124.048627 
L 268.633899 123.357323 
L 267.55514 122.688463 
L 266.462609 122.042342 
L 265.356786 121.419243 
L 264.238157 120.819439 
L 263.107212 120.243194 
L 261.964447 119.69076 
L 260.810363 119.162379 
L 259.645466 118.658283 
L 258.470269 118.178694 
L 257.285285 117.723821 
L 256.091035 117.293865 
L 254.888042 116.889013 
L 253.676835 116.509444 
L 252.457944 116.155323 
L 251.231905 115.826807 
L 249.999254 115.524039 
L 248.760533 115.247152 
L 247.516285 114.996268 
L 246.267056 114.771496 
L 245.013394 114.572935 
L 243.755848 114.400673 
L 242.49497 114.254784 
L 241.231314 114.135334 
L 239.965433 114.042373 
L 238.697883 113.975944 
L 237.42922 113.936074 
L 236.16 113.922783 
L 234.89078 113.936074 
L 233.622117 113.975944 
L 232.354567 114.042373 
L 231.088686 114.135334 
L 229.82503 114.254784 
L 228.564152 114.400673 
L 227.306606 114.572935 
L 226.052944 114.771496 
L 224.803715 114.996268 
L 223.559467 115.247152 
L 222.320746 115.524039 
L 221.088095 115.826807 
L 219.862056 116.155323 
L 218.643165 116.509444 
L 217.431958 116.889013 
L 216.228965 117.293865 
L 215.034715 117.723821 
L 213.849731 118.178694 
L 212.674534 118.658283 
L 211.509637 119.162379 
L 210.355553 119.69076 
L 209.212788 120.243194 
L 208.081843 120.819439 
L 206.963214 121.419243 
L 205.857391 122.042342 
L 204.76486 122.688463 
L 203.686101 123.357323 
L 202.621585 124.048627 
L 201.57178 124.762074 
L 200.537147 125.497349 
L 199.518139 126.254131 
L 198.515204 127.032088 
L 197.528781 127.830877 
L 196.559302 128.65015 
L 195.607194 129.489546 
L 194.672874 130.348698 
L 193.756751 131.227228 
L 192.859228 132.124751 
L 191.980698 133.040874 
L 191.121546 133.975194 
L 190.28215 134.927302 
L 189.462877 135.896781 
L 188.664088 136.883204 
L 187.886131 137.886139 
L 187.129349 138.905147 
L 186.394074 139.93978 
L 185.680627 140.989585 
L 184.989323 142.054101 
L 184.320463 143.13286 
L 183.674342 144.225391 
L 183.655256 144.214372 
L 183.636171 144.203353 
L 183.617085 144.192334 
L 183.597999 144.181315 
L 183.578914 144.170296 
L 183.559828 144.159277 
L 183.540742 144.148257 
L 183.521657 144.137238 
L 183.502571 144.126219 
L 183.483485 144.1152 
L 183.4644 144.104181 
L 183.445314 144.093162 
L 183.426228 144.082143 
L 183.407142 144.071123 
L 183.388057 144.060104 
L 183.368971 144.049085 
L 183.349885 144.038066 
L 183.3308 144.027047 
L 183.311714 144.016028 
L 183.292628 144.005009 
L 183.273543 143.99399 
L 183.254457 143.98297 
L 183.235371 143.971951 
L 183.216285 143.960932 
L 183.1972 143.949913 
L 183.178114 143.938894 
L 183.159028 143.927875 
L 183.139943 143.916856 
L 183.120857 143.905837 
L 183.101771 143.894817 
L 183.082686 143.883798 
L 183.0636 143.872779 
L 183.044514 143.86176 
L 183.025429 143.850741 
L 183.006343 143.839722 
L 182.987257 143.828703 
L 182.968171 143.817683 
L 182.949086 143.806664 
L 182.93 143.795645 
L 182.910914 143.784626 
L 182.891829 143.773607 
L 182.872743 143.762588 
L 182.853657 143.751569 
L 182.834572 143.74055 
L 182.815486 143.72953 
L 182.7964 143.718511 
L 182.777315 143.707492 
L 182.758229 143.696473 
L 182.739143 143.685454 
L 182.720057 143.674435 
L 182.700972 143.663416 
L 182.681886 143.652397 
L 182.6628 143.641377 
L 182.643715 143.630358 
L 182.624629 143.619339 
L 182.605543 143.60832 
L 182.586458 143.597301 
L 182.567372 143.586282 
L 182.548286 143.575263 
L 182.529201 143.564243 
L 182.510115 143.553224 
L 182.491029 143.542205 
L 182.471943 143.531186 
L 182.452858 143.520167 
L 182.433772 143.509148 
L 182.414686 143.498129 
L 182.395601 143.48711 
L 182.376515 143.47609 
L 182.357429 143.465071 
L 182.338344 143.454052 
L 182.319258 143.443033 
L 182.300172 143.432014 
L 182.281086 143.420995 
L 182.262001 143.409976 
L 182.242915 143.398957 
L 182.223829 143.387937 
L 182.204744 143.376918 
L 182.185658 143.365899 
L 182.166572 143.35488 
L 182.147487 143.343861 
L 182.128401 143.332842 
L 182.109315 143.321823 
L 182.09023 143.310803 
L 182.071144 143.299784 
L 182.052058 143.288765 
L 182.032972 143.277746 
L 182.013887 143.266727 
L 181.994801 143.255708 
L 181.975715 143.244689 
L 181.95663 143.23367 
L 181.937544 143.22265 
L 181.918458 143.211631 
L 181.899373 143.200612 
L 181.880287 143.189593 
L 181.861201 143.178574 
L 181.842116 143.167555 
L 181.82303 143.156536 
L 181.803944 143.145517 
L 181.784858 143.134497 
L 181.765773 143.123478 
L 182.435389 141.991219 
L 183.128571 140.873232 
L 183.845014 139.770006 
L 184.584404 138.682027 
L 185.346416 137.609771 
L 186.130718 136.553708 
L 186.936964 135.514302 
L 187.7648 134.492009 
L 188.613865 133.487277 
L 189.483784 132.500547 
L 190.374178 131.532251 
L 191.284654 130.582815 
L 192.214815 129.652654 
L 193.164251 128.742178 
L 194.132547 127.851784 
L 195.119277 126.981865 
L 196.124009 126.1328 
L 197.146302 125.304964 
L 198.185708 124.498718 
L 199.241771 123.714416 
L 200.314027 122.952404 
L 201.402006 122.213014 
L 202.505232 121.496571 
L 203.623219 120.803389 
L 204.755478 120.133773 
L 205.901513 119.488016 
L 207.060819 118.866401 
L 208.23289 118.269201 
L 209.41721 117.696678 
L 210.613261 117.149084 
L 211.820517 116.626657 
L 213.038449 116.129628 
L 214.266523 115.658215 
L 215.5042 115.212624 
L 216.750938 114.79305 
L 218.006189 114.399678 
L 219.269403 114.03268 
L 220.540026 113.692218 
L 221.8175 113.37844 
L 223.101266 113.091485 
L 224.390759 112.831477 
L 225.685415 112.598532 
L 226.984665 112.392751 
L 228.287939 112.214225 
L 229.594667 112.063031 
L 230.904275 111.939237 
L 232.216188 111.842896 
L 233.52983 111.774051 
L 234.844627 111.732732 
L 236.16 111.718957 
L 237.475373 111.732732 
L 238.79017 111.774051 
L 240.103812 111.842896 
L 241.415725 111.939237 
L 242.725333 112.063031 
L 244.032061 112.214225 
L 245.335335 112.392751 
L 246.634585 112.598532 
L 247.929241 112.831477 
L 249.218734 113.091485 
L 250.5025 113.37844 
L 251.779974 113.692218 
L 253.050597 114.03268 
L 254.313811 114.399678 
L 255.569062 114.79305 
L 256.8158 115.212624 
L 258.053477 115.658215 
L 259.281551 116.129628 
L 260.499483 116.626657 
L 261.706739 117.149084 
L 262.90279 117.696678 
L 264.08711 118.269201 
L 265.259181 118.866401 
L 266.418487 119.488016 
L 267.564522 120.133773 
L 268.696781 120.803389 
L 269.814768 121.496571 
L 270.917994 122.213014 
L 272.005973 122.952404 
L 273.078229 123.714416 
L 274.134292 124.498718 
L 275.173698 125.304964 
L 276.195991 126.1328 
L 277.200723 126.981865 
L 278.187453 127.851784 
L 279.155749 128.742178 
L 280.105185 129.652654 
L 281.035346 130.582815 
L 281.945822 131.532251 
L 282.836216 132.500547 
L 283.706135 133.487277 
L 284.5552 134.492009 
L 285.383036 135.514302 
L 286.189282 136.553708 
L 286.973584 137.609771 
L 287.735596 138.682027 
L 288.474986 139.770006 
L 289.191429 140.873232 
L 289.884611 141.991219 
L 290.554227 143.123478 
L 290.535142 143.134497 
L 290.516056 143.145517 
L 290.49697 143.156536 
L 290.477884 143.167555 
L 290.458799 143.178574 
L 290.439713 143.189593 
L 290.420627 143.200612 
L 290.401542 143.211631 
L 290.382456 143.22265 
L 290.36337 143.23367 
L 290.344285 143.244689 
L 290.325199 143.255708 
L 290.306113 143.266727 
L 290.287028 143.277746 
L 290.267942 143.288765 
L 290.248856 143.299784 
L 290.22977 143.310803 
L 290.210685 143.321823 
L 290.191599 143.332842 
L 290.172513 143.343861 
L 290.153428 143.35488 
L 290.134342 143.365899 
L 290.115256 143.376918 
L 290.096171 143.387937 
L 290.077085 143.398957 
L 290.057999 143.409976 
L 290.038914 143.420995 
L 290.019828 143.432014 
L 290.000742 143.443033 
L 289.981656 143.454052 
L 289.962571 143.465071 
L 289.943485 143.47609 
L 289.924399 143.48711 
L 289.905314 143.498129 
L 289.886228 143.509148 
L 289.867142 143.520167 
L 289.848057 143.531186 
L 289.828971 143.542205 
L 289.809885 143.553224 
L 289.790799 143.564243 
L 289.771714 143.575263 
L 289.752628 143.586282 
L 289.733542 143.597301 
L 289.714457 143.60832 
L 289.695371 143.619339 
L 289.676285 143.630358 
L 289.6572 143.641377 
L 289.638114 143.652397 
L 289.619028 143.663416 
L 289.599943 143.674435 
L 289.580857 143.685454 
L 289.561771 143.696473 
L 289.542685 143.707492 
L 289.5236 143.718511 
L 289.504514 143.72953 
L 289.485428 143.74055 
L 289.466343 143.751569 
L 289.447257 143.762588 
L 289.428171 143.773607 
L 289.409086 143.784626 
L 289.39 143.795645 
L 289.370914 143.806664 
L 289.351829 143.817683 
L 289.332743 143.828703 
L 289.313657 143.839722 
L 289.294571 143.850741 
L 289.275486 143.86176 
L 289.2564 143.872779 
L 289.237314 143.883798 
L 289.218229 143.894817 
L 289.199143 143.905837 
L 289.180057 143.916856 
L 289.160972 143.927875 
L 289.141886 143.938894 
L 289.1228 143.949913 
L 289.103715 143.960932 
L 289.084629 143.971951 
L 289.065543 143.98297 
L 289.046457 143.99399 
L 289.027372 144.005009 
L 289.008286 144.016028 
L 288.9892 144.027047 
L 288.970115 144.038066 
L 288.951029 144.049085 
L 288.931943 144.060104 
L 288.912858 144.071123 
L 288.893772 144.082143 
L 288.874686 144.093162 
L 288.8556 144.104181 
L 288.836515 144.1152 
L 288.817429 144.126219 
L 288.798343 144.137238 
L 288.779258 144.148257 
L 288.760172 144.159277 
L 288.741086 144.170296 
L 288.722001 144.181315 
L 288.702915 144.192334 
L 288.683829 144.203353 
L 288.664744 144.214372 
z
" style="fill:#ff003c;"/>
   </g>
   <g id="patch_4">
    <path clip-path="url(#pace650ffa6)" d="M 290.554227 143.123478 
L 289.884611 141.991219 
L 289.191429 140.873232 
L 288.474986 139.770006 
L 287.735596 138.682027 
L 286.973584 137.609771 
L 286.189282 136.553708 
L 285.383036 135.514302 
L 284.5552 134.492009 
L 283.706135 133.487277 
L 282.836216 132.500547 
L 281.945822 131.532251 
L 281.035346 130.582815 
L 280.105185 129.652654 
L 279.155749 128.742178 
L 278.187453 127.851784 
L 277.200723 126.981865 
L 276.195991 126.1328 
L 275.173698 125.304964 
L 274.134292 124.498718 
L 273.078229 123.714416 
L 272.005973 122.952404 
L 270.917994 122.213014 
L 269.814768 121.496571 
L 268.696781 120.803389 
L 267.564522 120.133773 
L 266.418487 119.488016 
L 265.259181 118.866401 
L 264.08711 118.269201 
L 262.90279 117.696678 
L 261.706739 117.149084 
L 260.499483 116.626657 
L 259.281551 116.129628 
L 258.053477 115.658215 
L 256.8158 115.212624 
L 255.569062 114.79305 
L 254.313811 114.399678 
L 253.050597 114.03268 
L 251.779974 113.692218 
L 250.5025 113.37844 
L 249.218734 113.091485 
L 247.929241 112.831477 
L 246.634585 112.598532 
L 245.335335 112.392751 
L 244.032061 112.214225 
L 242.725333 112.063031 
L 241.415725 111.939237 
L 240.103812 111.842896 
L 238.79017 111.774051 
L 237.475373 111.732732 
L 236.16 111.718957 
L 234.844627 111.732732 
L 233.52983 111.774051 
L 232.216188 111.842896 
L 230.904275 111.939237 
L 229.594667 112.063031 
L 228.287939 112.214225 
L 226.984665 112.392751 
L 225.685415 112.598532 
L 224.390759 112.831477 
L 223.101266 113.091485 
L 221.8175 113.37844 
L 220.540026 113.692218 
L 219.269403 114.03268 
L 218.006189 114.399678 
L 216.750938 114.79305 
L 215.5042 115.212624 
L 214.266523 115.658215 
L 213.038449 116.129628 
L 211.820517 116.626657 
L 210.613261 117.149084 
L 209.41721 117.696678 
L 208.23289 118.269201 
L 207.060819 118.866401 
L 205.901513 119.488016 
L 204.755478 120.133773 
L 203.623219 120.803389 
L 202.505232 121.496571 
L 201.402006 122.213014 
L 200.314027 122.952404 
L 199.241771 123.714416 
L 198.185708 124.498718 
L 197.146302 125.304964 
L 196.124009 126.1328 
L 195.119277 126.981865 
L 194.132547 127.851784 
L 193.164251 128.742178 
L 192.214815 129.652654 
L 191.284654 130.582815 
L 190.374178 131.532251 
L 189.483784 132.500547 
L 188.613865 133.487277 
L 187.7648 134.492009 
L 186.936964 135.514302 
L 186.130718 136.553708 
L 185.346416 137.609771 
L 184.584404 138.682027 
L 183.845014 139.770006 
L 183.128571 140.873232 
L 182.435389 141.991219 
L 181.765773 143.123478 
L 181.279088 142.84249 
L 180.792402 142.561503 
L 180.305717 142.280515 
L 179.819032 141.999527 
L 179.332347 141.718539 
L 178.845662 141.437551 
L 178.358976 141.156563 
L 177.872291 140.875576 
L 177.385606 140.594588 
L 176.898921 140.3136 
L 176.412236 140.032612 
L 175.92555 139.751624 
L 175.438865 139.470637 
L 174.95218 139.189649 
L 174.465495 138.908661 
L 173.97881 138.627673 
L 173.492125 138.346685 
L 173.005439 138.065697 
L 172.518754 137.78471 
L 172.032069 137.503722 
L 171.545384 137.222734 
L 171.058699 136.941746 
L 170.572013 136.660758 
L 170.085328 136.37977 
L 169.598643 136.098783 
L 169.111958 135.817795 
L 168.625273 135.536807 
L 168.138587 135.255819 
L 167.651902 134.974831 
L 167.165217 134.693843 
L 166.678532 134.412856 
L 166.191847 134.131868 
L 165.705161 133.85088 
L 165.218476 133.569892 
L 164.731791 133.288904 
L 164.245106 133.007917 
L 163.758421 132.726929 
L 163.271735 132.445941 
L 162.78505 132.164953 
L 162.298365 131.883965 
L 161.81168 131.602977 
L 161.324995 131.32199 
L 160.83831 131.041002 
L 160.351624 130.760014 
L 159.864939 130.479026 
L 159.378254 130.198038 
L 158.891569 129.91705 
L 158.404884 129.636063 
L 157.918198 129.355075 
L 157.431513 129.074087 
L 156.944828 128.793099 
L 156.458143 128.512111 
L 155.971458 128.231123 
L 155.484772 127.950136 
L 154.998087 127.669148 
L 154.511402 127.38816 
L 154.024717 127.107172 
L 153.538032 126.826184 
L 153.051346 126.545197 
L 152.564661 126.264209 
L 152.077976 125.983221 
L 151.591291 125.702233 
L 151.104606 125.421245 
L 150.617921 125.140257 
L 150.131235 124.85927 
L 149.64455 124.578282 
L 149.157865 124.297294 
L 148.67118 124.016306 
L 148.184495 123.735318 
L 147.697809 123.45433 
L 147.211124 123.173343 
L 146.724439 122.892355 
L 146.237754 122.611367 
L 145.751069 122.330379 
L 145.264383 122.049391 
L 144.777698 121.768403 
L 144.291013 121.487416 
L 143.804328 121.206428 
L 143.317643 120.92544 
L 142.830957 120.644452 
L 142.344272 120.363464 
L 141.857587 120.082477 
L 141.370902 119.801489 
L 140.884217 119.520501 
L 140.397532 119.239513 
L 139.910846 118.958525 
L 139.424161 118.677537 
L 138.937476 118.39655 
L 138.450791 118.115562 
L 137.964106 117.834574 
L 137.47742 117.553586 
L 136.990735 117.272598 
L 136.50405 116.99161 
L 136.017365 116.710623 
L 135.53068 116.429635 
L 135.043994 116.148647 
L 134.557309 115.867659 
L 134.070624 115.586671 
L 133.583939 115.305683 
L 133.097254 115.024696 
L 134.366 112.879362 
L 135.679397 110.76107 
L 137.036868 108.670748 
L 138.437817 106.609314 
L 139.881631 104.57767 
L 141.367676 102.57671 
L 142.895299 100.607309 
L 144.463832 98.670333 
L 146.072586 96.76663 
L 147.720855 94.897036 
L 149.407916 93.06237 
L 151.133029 91.263439 
L 152.895439 89.501029 
L 154.69437 87.775916 
L 156.529036 86.088855 
L 158.39863 84.440586 
L 160.302333 82.831832 
L 162.239309 81.263299 
L 164.20871 79.735676 
L 166.20967 78.249631 
L 168.241314 76.805817 
L 170.302748 75.404868 
L 172.39307 74.047397 
L 174.511362 72.734 
L 176.656696 71.465254 
L 178.828129 70.241714 
L 181.02471 69.063917 
L 183.245475 67.932381 
L 185.48945 66.847601 
L 187.755651 65.810053 
L 190.043084 64.820193 
L 192.350745 63.878454 
L 194.677623 62.985249 
L 197.022696 62.140971 
L 199.384935 61.345989 
L 201.763306 60.600653 
L 204.156764 59.905289 
L 206.56426 59.260203 
L 208.984737 58.665676 
L 211.417135 58.121971 
L 213.860385 57.629326 
L 216.313417 57.187955 
L 218.775154 56.798055 
L 221.244517 56.459794 
L 223.720422 56.173322 
L 226.201784 55.938764 
L 228.687513 55.756224 
L 231.17652 55.62578 
L 233.667714 55.547491 
L 236.16 55.521391 
L 238.652286 55.547491 
L 241.14348 55.62578 
L 243.632487 55.756224 
L 246.118216 55.938764 
L 248.599578 56.173322 
L 251.075483 56.459794 
L 253.544846 56.798055 
L 256.006583 57.187955 
L 258.459615 57.629326 
L 260.902865 58.121971 
L 263.335263 58.665676 
L 265.75574 59.260203 
L 268.163236 59.905289 
L 270.556694 60.600653 
L 272.935065 61.345989 
L 275.297304 62.140971 
L 277.642377 62.985249 
L 279.969255 63.878454 
L 282.276916 64.820193 
L 284.564349 65.810053 
L 286.83055 66.847601 
L 289.074525 67.932381 
L 291.29529 69.063917 
L 293.491871 70.241714 
L 295.663304 71.465254 
L 297.808638 72.734 
L 299.92693 74.047397 
L 302.017252 75.404868 
L 304.078686 76.805817 
L 306.11033 78.249631 
L 308.11129 79.735676 
L 310.080691 81.263299 
L 312.017667 82.831832 
L 313.92137 84.440586 
L 315.790964 86.088855 
L 317.62563 87.775916 
L 319.424561 89.501029 
L 321.186971 91.263439 
L 322.912084 93.06237 
L 324.599145 94.897036 
L 326.247414 96.76663 
L 327.856168 98.670333 
L 329.424701 100.607309 
L 330.952324 102.57671 
L 332.438369 104.57767 
L 333.882183 106.609314 
L 335.283132 108.670748 
L 336.640603 110.76107 
L 337.954 112.879362 
L 339.222746 115.024696 
L 338.736061 115.305683 
L 338.249376 115.586671 
L 337.762691 115.867659 
L 337.276006 116.148647 
L 336.78932 116.429635 
L 336.302635 116.710623 
L 335.81595 116.99161 
L 335.329265 117.272598 
L 334.84258 117.553586 
L 334.355894 117.834574 
L 333.869209 118.115562 
L 333.382524 118.39655 
L 332.895839 118.677537 
L 332.409154 118.958525 
L 331.922468 119.239513 
L 331.435783 119.520501 
L 330.949098 119.801489 
L 330.462413 120.082477 
L 329.975728 120.363464 
L 329.489043 120.644452 
L 329.002357 120.92544 
L 328.515672 121.206428 
L 328.028987 121.487416 
L 327.542302 121.768403 
L 327.055617 122.049391 
L 326.568931 122.330379 
L 326.082246 122.611367 
L 325.595561 122.892355 
L 325.108876 123.173343 
L 324.622191 123.45433 
L 324.135505 123.735318 
L 323.64882 124.016306 
L 323.162135 124.297294 
L 322.67545 124.578282 
L 322.188765 124.85927 
L 321.702079 125.140257 
L 321.215394 125.421245 
L 320.728709 125.702233 
L 320.242024 125.983221 
L 319.755339 126.264209 
L 319.268654 126.545197 
L 318.781968 126.826184 
L 318.295283 127.107172 
L 317.808598 127.38816 
L 317.321913 127.669148 
L 316.835228 127.950136 
L 316.348542 128.231123 
L 315.861857 128.512111 
L 315.375172 128.793099 
L 314.888487 129.074087 
L 314.401802 129.355075 
L 313.915116 129.636063 
L 313.428431 129.91705 
L 312.941746 130.198038 
L 312.455061 130.479026 
L 311.968376 130.760014 
L 311.48169 131.041002 
L 310.995005 131.32199 
L 310.50832 131.602977 
L 310.021635 131.883965 
L 309.53495 132.164953 
L 309.048265 132.445941 
L 308.561579 132.726929 
L 308.074894 133.007917 
L 307.588209 133.288904 
L 307.101524 133.569892 
L 306.614839 133.85088 
L 306.128153 134.131868 
L 305.641468 134.412856 
L 305.154783 134.693843 
L 304.668098 134.974831 
L 304.181413 135.255819 
L 303.694727 135.536807 
L 303.208042 135.817795 
L 302.721357 136.098783 
L 302.234672 136.37977 
L 301.747987 136.660758 
L 301.261301 136.941746 
L 300.774616 137.222734 
L 300.287931 137.503722 
L 299.801246 137.78471 
L 299.314561 138.065697 
L 298.827875 138.346685 
L 298.34119 138.627673 
L 297.854505 138.908661 
L 297.36782 139.189649 
L 296.881135 139.470637 
L 296.39445 139.751624 
L 295.907764 140.032612 
L 295.421079 140.3136 
L 294.934394 140.594588 
L 294.447709 140.875576 
L 293.961024 141.156563 
L 293.474338 141.437551 
L 292.987653 141.718539 
L 292.500968 141.999527 
L 292.014283 142.280515 
L 291.527598 142.561503 
L 291.040912 142.84249 
z
" style="fill:#88c100;"/>
   </g>
   <g id="patch_5">
    <path clip-path="url(#pace650ffa6)" d="M 236.16 174.528 
L 236.16 174.528 
L 236.16 174.528 
L 236.16 174.528 
L 236.16 174.528 
L 236.16 174.528 
L 236.16 174.528 
L 236.16 174.528 
L 236.16 174.528 
L 236.16 174.528 
L 236.16 174.528 
L 236.16 174.528 
L 236.16 174.528 
L 236.16 174.528 
L 236.16 174.528 
L 236.16 174.528 
L 236.16 174.528 
L 236.16 174.528 
L 236.16 174.528 
L 236.16 174.528 
L 236.16 174.528 
L 236.16 174.528 
L 236.16 174.528 
L 236.16 174.528 
L 236.16 174.528 
L 236.16 174.528 
L 236.16 174.528 
L 236.16 174.528 
L 236.16 174.528 
L 236.16 174.528 
L 236.16 174.528 
L 236.16 174.528 
L 236.16 174.528 
L 236.16 174.528 
L 236.16 174.528 
L 236.16 174.528 
L 236.16 174.528 
L 236.16 174.528 
L 236.16 174.528 
L 236.16 174.528 
L 236.16 174.528 
L 236.16 174.528 
L 236.16 174.528 
L 236.16 174.528 
L 236.16 174.528 
L 236.16 174.528 
L 236.16 174.528 
L 236.16 174.528 
L 236.16 174.528 
L 236.16 174.528 
L 236.16 174.528 
L 236.16 174.528 
L 236.16 174.528 
L 236.16 174.528 
L 236.16 174.528 
L 236.16 174.528 
L 236.16 174.528 
L 236.16 174.528 
L 236.16 174.528 
L 236.16 174.528 
L 236.16 174.528 
L 236.16 174.528 
L 236.16 174.528 
L 236.16 174.528 
L 236.16 174.528 
L 236.16 174.528 
L 236.16 174.528 
L 236.16 174.528 
L 236.16 174.528 
L 236.16 174.528 
L 236.16 174.528 
L 236.16 174.528 
L 236.16 174.528 
L 236.16 174.528 
L 236.16 174.528 
L 236.16 174.528 
L 236.16 174.528 
L 236.16 174.528 
L 236.16 174.528 
L 236.16 174.528 
L 236.16 174.528 
L 236.16 174.528 
L 236.16 174.528 
L 236.16 174.528 
L 236.16 174.528 
L 236.16 174.528 
L 236.16 174.528 
L 236.16 174.528 
L 236.16 174.528 
L 236.16 174.528 
L 236.16 174.528 
L 236.16 174.528 
L 236.16 174.528 
L 236.16 174.528 
L 236.16 174.528 
L 236.16 174.528 
L 236.16 174.528 
L 236.16 174.528 
L 236.16 174.528 
L 236.16 174.528 
L 236.16 174.528 
L 236.16 175.112014 
L 236.16 175.696028 
L 236.16 176.280042 
L 236.16 176.864056 
L 236.16 177.44807 
L 236.16 178.032083 
L 236.16 178.616097 
L 236.16 179.200111 
L 236.16 179.784125 
L 236.16 180.368139 
L 236.16 180.952153 
L 236.16 181.536167 
L 236.16 182.120181 
L 236.16 182.704195 
L 236.16 183.288209 
L 236.16 183.872223 
L 236.16 184.456237 
L 236.16 185.04025 
L 236.16 185.624264 
L 236.16 186.208278 
L 236.16 186.792292 
L 236.16 187.376306 
L 236.16 187.96032 
L 236.16 188.544334 
L 236.16 189.128348 
L 236.16 189.712362 
L 236.16 190.296376 
L 236.16 190.88039 
L 236.16 191.464403 
L 236.16 192.048417 
L 236.16 192.632431 
L 236.16 193.216445 
L 236.16 193.800459 
L 236.16 194.384473 
L 236.16 194.968487 
L 236.16 195.552501 
L 236.16 196.136515 
L 236.16 196.720529 
L 236.16 197.304543 
L 236.16 197.888557 
L 236.16 198.47257 
L 236.16 199.056584 
L 236.16 199.640598 
L 236.16 200.224612 
L 236.16 200.808626 
L 236.16 201.39264 
L 236.16 201.976654 
L 236.16 202.560668 
L 236.16 203.144682 
L 236.16 203.728696 
L 236.16 204.31271 
L 236.16 204.896723 
L 236.16 205.480737 
L 236.16 206.064751 
L 236.16 206.648765 
L 236.16 207.232779 
L 236.16 207.816793 
L 236.16 208.400807 
L 236.16 208.984821 
L 236.16 209.568835 
L 236.16 210.152849 
L 236.16 210.736863 
L 236.16 211.320877 
L 236.16 211.90489 
L 236.16 212.488904 
L 236.16 213.072918 
L 236.16 213.656932 
L 236.16 214.240946 
L 236.16 214.82496 
L 236.16 215.408974 
L 236.16 215.992988 
L 236.16 216.577002 
L 236.16 217.161016 
L 236.16 217.74503 
L 236.16 218.329043 
L 236.16 218.913057 
L 236.16 219.497071 
L 236.16 220.081085 
L 236.16 220.665099 
L 236.16 221.249113 
L 236.16 221.833127 
L 236.16 222.417141 
L 236.16 223.001155 
L 236.16 223.585169 
L 236.16 224.169183 
L 236.16 224.753197 
L 236.16 225.33721 
L 236.16 225.921224 
L 236.16 226.505238 
L 236.16 227.089252 
L 236.16 227.673266 
L 236.16 228.25728 
L 236.16 228.841294 
L 236.16 229.425308 
L 236.16 230.009322 
L 236.16 230.593336 
L 236.16 231.17735 
L 236.16 231.761363 
L 236.16 232.345377 
L 236.16 232.929391 
L 234.936934 232.916583 
L 233.714404 232.878163 
L 232.492946 232.814149 
L 231.273098 232.724569 
L 230.055392 232.609462 
L 228.840365 232.468879 
L 227.628548 232.302881 
L 226.420473 232.11154 
L 225.216671 231.894942 
L 224.017668 231.653181 
L 222.823991 231.386362 
L 221.636165 231.094604 
L 220.454708 230.778034 
L 219.280141 230.436791 
L 218.112978 230.071024 
L 216.95373 229.680894 
L 215.802907 229.266572 
L 214.661014 228.82824 
L 213.528551 228.366091 
L 212.406014 227.880326 
L 211.293897 227.371159 
L 210.192687 226.838813 
L 209.102867 226.283522 
L 208.024915 225.705529 
L 206.959304 225.105088 
L 205.906502 224.482463 
L 204.86697 223.837926 
L 203.841164 223.171759 
L 202.829534 222.484256 
L 201.832523 221.775718 
L 200.850571 221.046455 
L 199.884105 220.296788 
L 198.933552 219.527045 
L 197.999328 218.737564 
L 197.081842 217.928692 
L 196.181497 217.100782 
L 195.298687 216.254199 
L 194.433801 215.389313 
L 193.587218 214.506503 
L 192.759308 213.606158 
L 191.950436 212.688672 
L 191.160955 211.754448 
L 190.391212 210.803895 
L 189.641545 209.837429 
L 188.912282 208.855477 
L 188.203744 207.858466 
L 187.516241 206.846836 
L 186.850074 205.82103 
L 186.205537 204.781498 
L 185.582912 203.728696 
L 184.982471 202.663085 
L 184.404478 201.585133 
L 183.849187 200.495313 
L 183.316841 199.394103 
L 182.807674 198.281986 
L 182.321909 197.159449 
L 181.85976 196.026986 
L 181.421428 194.885093 
L 181.007106 193.73427 
L 180.616976 192.575022 
L 180.251209 191.407859 
L 179.909966 190.233292 
L 179.593396 189.051835 
L 179.301638 187.864009 
L 179.034819 186.670332 
L 178.793058 185.471329 
L 178.57646 184.267527 
L 178.385119 183.059452 
L 178.219121 181.847635 
L 178.078538 180.632608 
L 177.963431 179.414902 
L 177.873851 178.195054 
L 177.809837 176.973596 
L 177.771417 175.751066 
L 177.758609 174.528 
L 177.771417 173.304934 
L 177.809837 172.082404 
L 177.873851 170.860946 
L 177.963431 169.641098 
L 178.078538 168.423392 
L 178.219121 167.208365 
L 178.385119 165.996548 
L 178.57646 164.788473 
L 178.793058 163.584671 
L 179.034819 162.385668 
L 179.301638 161.191991 
L 179.593396 160.004165 
L 179.909966 158.822708 
L 180.251209 157.648141 
L 180.616976 156.480978 
L 181.007106 155.32173 
L 181.421428 154.170907 
L 181.85976 153.029014 
L 182.321909 151.896551 
L 182.807674 150.774014 
L 183.316841 149.661897 
L 183.849187 148.560687 
L 184.404478 147.470867 
L 184.982471 146.392915 
L 185.582912 145.327304 
L 186.088682 145.619311 
L 186.594453 145.911318 
L 187.100224 146.203325 
L 187.605995 146.495332 
L 188.111766 146.787339 
L 188.617537 147.079346 
L 189.123308 147.371353 
L 189.629079 147.66336 
L 190.134849 147.955367 
L 190.64062 148.247374 
L 191.146391 148.539381 
L 191.652162 148.831388 
L 192.157933 149.123395 
L 192.663704 149.415402 
L 193.169475 149.707409 
L 193.675246 149.999416 
L 194.181017 150.291423 
L 194.686787 150.58343 
L 195.192558 150.875437 
L 195.698329 151.167443 
L 196.2041 151.45945 
L 196.709871 151.751457 
L 197.215642 152.043464 
L 197.721413 152.335471 
L 198.227184 152.627478 
L 198.732955 152.919485 
L 199.238725 153.211492 
L 199.744496 153.503499 
L 200.250267 153.795506 
L 200.756038 154.087513 
L 201.261809 154.37952 
L 201.76758 154.671527 
L 202.273351 154.963534 
L 202.779122 155.255541 
L 203.284892 155.547548 
L 203.790663 155.839555 
L 204.296434 156.131562 
L 204.802205 156.423569 
L 205.307976 156.715576 
L 205.813747 157.007583 
L 206.319518 157.29959 
L 206.825289 157.591597 
L 207.33106 157.883603 
L 207.83683 158.17561 
L 208.342601 158.467617 
L 208.848372 158.759624 
L 209.354143 159.051631 
L 209.859914 159.343638 
L 210.365685 159.635645 
L 210.871456 159.927652 
L 211.377227 160.219659 
L 211.882998 160.511666 
L 212.388768 160.803673 
L 212.894539 161.09568 
L 213.40031 161.387687 
L 213.906081 161.679694 
L 214.411852 161.971701 
L 214.917623 162.263708 
L 215.423394 162.555715 
L 215.929165 162.847722 
L 216.434935 163.139729 
L 216.940706 163.431736 
L 217.446477 163.723743 
L 217.952248 164.01575 
L 218.458019 164.307757 
L 218.96379 164.599763 
L 219.469561 164.89177 
L 219.975332 165.183777 
L 220.481103 165.475784 
L 220.986873 165.767791 
L 221.492644 166.059798 
L 221.998415 166.351805 
L 222.504186 166.643812 
L 223.009957 166.935819 
L 223.515728 167.227826 
L 224.021499 167.519833 
L 224.52727 167.81184 
L 225.033041 168.103847 
L 225.538811 168.395854 
L 226.044582 168.687861 
L 226.550353 168.979868 
L 227.056124 169.271875 
L 227.561895 169.563882 
L 228.067666 169.855889 
L 228.573437 170.147896 
L 229.079208 170.439903 
L 229.584978 170.73191 
L 230.090749 171.023917 
L 230.59652 171.315923 
L 231.102291 171.60793 
L 231.608062 171.899937 
L 232.113833 172.191944 
L 232.619604 172.483951 
L 233.125375 172.775958 
L 233.631146 173.067965 
L 234.136916 173.359972 
L 234.642687 173.651979 
L 235.148458 173.943986 
L 235.654229 174.235993 
z
" style="fill:#fabe28;"/>
   </g>
   <g id="patch_6">
    <path clip-path="url(#pace650ffa6)" d="M 185.582912 145.327304 
L 184.982471 146.392915 
L 184.404478 147.470867 
L 183.849187 148.560687 
L 183.316841 149.661897 
L 182.807674 150.774014 
L 182.321909 151.896551 
L 181.85976 153.029014 
L 181.421428 154.170907 
L 181.007106 155.32173 
L 180.616976 156.480978 
L 180.251209 157.648141 
L 179.909966 158.822708 
L 179.593396 160.004165 
L 179.301638 161.191991 
L 179.034819 162.385668 
L 178.793058 163.584671 
L 178.57646 164.788473 
L 178.385119 165.996548 
L 178.219121 167.208365 
L 178.078538 168.423392 
L 177.963431 169.641098 
L 177.873851 170.860946 
L 177.809837 172.082404 
L 177.771417 173.304934 
L 177.758609 174.528 
L 177.771417 175.751066 
L 177.809837 176.973596 
L 177.873851 178.195054 
L 177.963431 179.414902 
L 178.078538 180.632608 
L 178.219121 181.847635 
L 178.385119 183.059452 
L 178.57646 184.267527 
L 178.793058 185.471329 
L 179.034819 186.670332 
L 179.301638 187.864009 
L 179.593396 189.051835 
L 179.909966 190.233292 
L 180.251209 191.407859 
L 180.616976 192.575022 
L 181.007106 193.73427 
L 181.421428 194.885093 
L 181.85976 196.026986 
L 182.321909 197.159449 
L 182.807674 198.281986 
L 183.316841 199.394103 
L 183.849187 200.495313 
L 184.404478 201.585133 
L 184.982471 202.663085 
L 185.582912 203.728696 
L 186.205537 204.781498 
L 186.850074 205.82103 
L 187.516241 206.846836 
L 188.203744 207.858466 
L 188.912282 208.855477 
L 189.641545 209.837429 
L 190.391212 210.803895 
L 191.160955 211.754448 
L 191.950436 212.688672 
L 192.759308 213.606158 
L 193.587218 214.506503 
L 194.433801 215.389313 
L 195.298687 216.254199 
L 196.181497 217.100782 
L 197.081842 217.928692 
L 197.999328 218.737564 
L 198.933552 219.527045 
L 199.884105 220.296788 
L 200.850571 221.046455 
L 201.832523 221.775718 
L 202.829534 222.484256 
L 203.841164 223.171759 
L 204.86697 223.837926 
L 205.906502 224.482463 
L 206.959304 225.105088 
L 208.024915 225.705529 
L 209.102867 226.283522 
L 210.192687 226.838813 
L 211.293897 227.371159 
L 212.406014 227.880326 
L 213.528551 228.366091 
L 214.661014 228.82824 
L 215.802907 229.266572 
L 216.95373 229.680894 
L 218.112978 230.071024 
L 219.280141 230.436791 
L 220.454708 230.778034 
L 221.636165 231.094604 
L 222.823991 231.386362 
L 224.017668 231.653181 
L 225.216671 231.894942 
L 226.420473 232.11154 
L 227.628548 232.302881 
L 228.840365 232.468879 
L 230.055392 232.609462 
L 231.273098 232.724569 
L 232.492946 232.814149 
L 233.714404 232.878163 
L 234.936934 232.916583 
L 236.16 232.929391 
L 236.16 232.962449 
L 236.16 232.995506 
L 236.16 233.028563 
L 236.16 233.061621 
L 236.16 233.094678 
L 236.16 233.127736 
L 236.16 233.160793 
L 236.16 233.19385 
L 236.16 233.226908 
L 236.16 233.259965 
L 236.16 233.293023 
L 236.16 233.32608 
L 236.16 233.359137 
L 236.16 233.392195 
L 236.16 233.425252 
L 236.16 233.45831 
L 236.16 233.491367 
L 236.16 233.524424 
L 236.16 233.557482 
L 236.16 233.590539 
L 236.16 233.623597 
L 236.16 233.656654 
L 236.16 233.689711 
L 236.16 233.722769 
L 236.16 233.755826 
L 236.16 233.788883 
L 236.16 233.821941 
L 236.16 233.854998 
L 236.16 233.888056 
L 236.16 233.921113 
L 236.16 233.95417 
L 236.16 233.987228 
L 236.16 234.020285 
L 236.16 234.053343 
L 236.16 234.0864 
L 236.16 234.119457 
L 236.16 234.152515 
L 236.16 234.185572 
L 236.16 234.21863 
L 236.16 234.251687 
L 236.16 234.284744 
L 236.16 234.317802 
L 236.16 234.350859 
L 236.16 234.383917 
L 236.16 234.416974 
L 236.16 234.450031 
L 236.16 234.483089 
L 236.16 234.516146 
L 236.16 234.549203 
L 236.16 234.582261 
L 236.16 234.615318 
L 236.16 234.648376 
L 236.16 234.681433 
L 236.16 234.71449 
L 236.16 234.747548 
L 236.16 234.780605 
L 236.16 234.813663 
L 236.16 234.84672 
L 236.16 234.879777 
L 236.16 234.912835 
L 236.16 234.945892 
L 236.16 234.97895 
L 236.16 235.012007 
L 236.16 235.045064 
L 236.16 235.078122 
L 236.16 235.111179 
L 236.16 235.144237 
L 236.16 235.177294 
L 236.16 235.210351 
L 236.16 235.243409 
L 236.16 235.276466 
L 236.16 235.309523 
L 236.16 235.342581 
L 236.16 235.375638 
L 236.16 235.408696 
L 236.16 235.441753 
L 236.16 235.47481 
L 236.16 235.507868 
L 236.16 235.540925 
L 236.16 235.573983 
L 236.16 235.60704 
L 236.16 235.640097 
L 236.16 235.673155 
L 236.16 235.706212 
L 236.16 235.73927 
L 236.16 235.772327 
L 236.16 235.805384 
L 236.16 235.838442 
L 236.16 235.871499 
L 236.16 235.904557 
L 236.16 235.937614 
L 236.16 235.970671 
L 236.16 236.003729 
L 236.16 236.036786 
L 236.16 236.069843 
L 236.16 236.102901 
L 236.16 236.135958 
L 236.16 236.169016 
L 236.16 236.202073 
L 236.16 236.23513 
L 234.867703 236.221597 
L 233.575974 236.181003 
L 232.285377 236.113366 
L 230.99648 236.018715 
L 229.709848 235.897092 
L 228.426046 235.748551 
L 227.145636 235.573157 
L 225.869179 235.370986 
L 224.597237 235.142128 
L 223.330366 234.886682 
L 222.069123 234.60476 
L 220.814061 234.296487 
L 219.56573 233.961998 
L 218.324677 233.601439 
L 217.091448 233.214969 
L 215.866583 232.802756 
L 214.650619 232.364982 
L 213.44409 231.901839 
L 212.247525 231.41353 
L 211.061449 230.900269 
L 209.886382 230.362281 
L 208.722839 229.799802 
L 207.571331 229.21308 
L 206.432363 228.602371 
L 205.306435 227.967943 
L 204.19404 227.310074 
L 203.095666 226.629053 
L 202.011795 225.92518 
L 200.942903 225.198761 
L 199.889459 224.450117 
L 198.851924 223.679576 
L 197.830753 222.887474 
L 196.826395 222.074161 
L 195.83929 221.239993 
L 194.86987 220.385335 
L 193.918562 219.510562 
L 192.985783 218.616059 
L 192.071941 217.702217 
L 191.177438 216.769438 
L 190.302665 215.81813 
L 189.448007 214.84871 
L 188.613839 213.861605 
L 187.800526 212.857247 
L 187.008424 211.836076 
L 186.237883 210.798541 
L 185.489239 209.745097 
L 184.76282 208.676205 
L 184.058947 207.592334 
L 183.377926 206.49396 
L 182.720057 205.381565 
L 182.085629 204.255637 
L 181.47492 203.116669 
L 180.888198 201.965161 
L 180.325719 200.801618 
L 179.787731 199.626551 
L 179.27447 198.440475 
L 178.786161 197.24391 
L 178.323018 196.037381 
L 177.885244 194.821417 
L 177.473031 193.596552 
L 177.086561 192.363323 
L 176.726002 191.12227 
L 176.391513 189.873939 
L 176.08324 188.618877 
L 175.801318 187.357634 
L 175.545872 186.090763 
L 175.317014 184.818821 
L 175.114843 183.542364 
L 174.939449 182.261954 
L 174.790908 180.978152 
L 174.669285 179.69152 
L 174.574634 178.402623 
L 174.506997 177.112026 
L 174.466403 175.820297 
L 174.45287 174.528 
L 174.466403 173.235703 
L 174.506997 171.943974 
L 174.574634 170.653377 
L 174.669285 169.36448 
L 174.790908 168.077848 
L 174.939449 166.794046 
L 175.114843 165.513636 
L 175.317014 164.237179 
L 175.545872 162.965237 
L 175.801318 161.698366 
L 176.08324 160.437123 
L 176.391513 159.182061 
L 176.726002 157.93373 
L 177.086561 156.692677 
L 177.473031 155.459448 
L 177.885244 154.234583 
L 178.323018 153.018619 
L 178.786161 151.81209 
L 179.27447 150.615525 
L 179.787731 149.429449 
L 180.325719 148.254382 
L 180.888198 147.090839 
L 181.47492 145.939331 
L 182.085629 144.800363 
L 182.720057 143.674435 
L 182.748686 143.690963 
L 182.777315 143.707492 
L 182.805943 143.724021 
L 182.834572 143.74055 
L 182.8632 143.757078 
L 182.891829 143.773607 
L 182.920457 143.790136 
L 182.949086 143.806664 
L 182.977714 143.823193 
L 183.006343 143.839722 
L 183.034971 143.85625 
L 183.0636 143.872779 
L 183.092228 143.889308 
L 183.120857 143.905837 
L 183.149486 143.922365 
L 183.178114 143.938894 
L 183.206743 143.955423 
L 183.235371 143.971951 
L 183.264 143.98848 
L 183.292628 144.005009 
L 183.321257 144.021537 
L 183.349885 144.038066 
L 183.378514 144.054595 
L 183.407142 144.071123 
L 183.435771 144.087652 
L 183.4644 144.104181 
L 183.493028 144.12071 
L 183.521657 144.137238 
L 183.550285 144.153767 
L 183.578914 144.170296 
L 183.607542 144.186824 
L 183.636171 144.203353 
L 183.664799 144.219882 
L 183.693428 144.23641 
L 183.722056 144.252939 
L 183.750685 144.269468 
L 183.779313 144.285997 
L 183.807942 144.302525 
L 183.836571 144.319054 
L 183.865199 144.335583 
L 183.893828 144.352111 
L 183.922456 144.36864 
L 183.951085 144.385169 
L 183.979713 144.401697 
L 184.008342 144.418226 
L 184.03697 144.434755 
L 184.065599 144.451283 
L 184.094227 144.467812 
L 184.122856 144.484341 
L 184.151484 144.50087 
L 184.180113 144.517398 
L 184.208742 144.533927 
L 184.23737 144.550456 
L 184.265999 144.566984 
L 184.294627 144.583513 
L 184.323256 144.600042 
L 184.351884 144.61657 
L 184.380513 144.633099 
L 184.409141 144.649628 
L 184.43777 144.666157 
L 184.466398 144.682685 
L 184.495027 144.699214 
L 184.523656 144.715743 
L 184.552284 144.732271 
L 184.580913 144.7488 
L 184.609541 144.765329 
L 184.63817 144.781857 
L 184.666798 144.798386 
L 184.695427 144.814915 
L 184.724055 144.831443 
L 184.752684 144.847972 
L 184.781312 144.864501 
L 184.809941 144.88103 
L 184.838569 144.897558 
L 184.867198 144.914087 
L 184.895827 144.930616 
L 184.924455 144.947144 
L 184.953084 144.963673 
L 184.981712 144.980202 
L 185.010341 144.99673 
L 185.038969 145.013259 
L 185.067598 145.029788 
L 185.096226 145.046317 
L 185.124855 145.062845 
L 185.153483 145.079374 
L 185.182112 145.095903 
L 185.21074 145.112431 
L 185.239369 145.12896 
L 185.267998 145.145489 
L 185.296626 145.162017 
L 185.325255 145.178546 
L 185.353883 145.195075 
L 185.382512 145.211603 
L 185.41114 145.228132 
L 185.439769 145.244661 
L 185.468397 145.26119 
L 185.497026 145.277718 
L 185.525654 145.294247 
L 185.554283 145.310776 
z
" style="fill:#ff003c;"/>
   </g>
   <g id="patch_7">
    <path clip-path="url(#pace650ffa6)" d="M 182.720057 143.674435 
L 182.085629 144.800363 
L 181.47492 145.939331 
L 180.888198 147.090839 
L 180.325719 148.254382 
L 179.787731 149.429449 
L 179.27447 150.615525 
L 178.786161 151.81209 
L 178.323018 153.018619 
L 177.885244 154.234583 
L 177.473031 155.459448 
L 177.086561 156.692677 
L 176.726002 157.93373 
L 176.391513 159.182061 
L 176.08324 160.437123 
L 175.801318 161.698366 
L 175.545872 162.965237 
L 175.317014 164.237179 
L 175.114843 165.513636 
L 174.939449 166.794046 
L 174.790908 168.077848 
L 174.669285 169.36448 
L 174.574634 170.653377 
L 174.506997 171.943974 
L 174.466403 173.235703 
L 174.45287 174.528 
L 174.466403 175.820297 
L 174.506997 177.112026 
L 174.574634 178.402623 
L 174.669285 179.69152 
L 174.790908 180.978152 
L 174.939449 182.261954 
L 175.114843 183.542364 
L 175.317014 184.818821 
L 175.545872 186.090763 
L 175.801318 187.357634 
L 176.08324 188.618877 
L 176.391513 189.873939 
L 176.726002 191.12227 
L 177.086561 192.363323 
L 177.473031 193.596552 
L 177.885244 194.821417 
L 178.323018 196.037381 
L 178.786161 197.24391 
L 179.27447 198.440475 
L 179.787731 199.626551 
L 180.325719 200.801618 
L 180.888198 201.965161 
L 181.47492 203.116669 
L 182.085629 204.255637 
L 182.720057 205.381565 
L 183.377926 206.49396 
L 184.058947 207.592334 
L 184.76282 208.676205 
L 185.489239 209.745097 
L 186.237883 210.798541 
L 187.008424 211.836076 
L 187.800526 212.857247 
L 188.613839 213.861605 
L 189.448007 214.84871 
L 190.302665 215.81813 
L 191.177438 216.769438 
L 192.071941 217.702217 
L 192.985783 218.616059 
L 193.918562 219.510562 
L 194.86987 220.385335 
L 195.83929 221.239993 
L 196.826395 222.074161 
L 197.830753 222.887474 
L 198.851924 223.679576 
L 199.889459 224.450117 
L 200.942903 225.198761 
L 202.011795 225.92518 
L 203.095666 226.629053 
L 204.19404 227.310074 
L 205.306435 227.967943 
L 206.432363 228.602371 
L 207.571331 229.21308 
L 208.722839 229.799802 
L 209.886382 230.362281 
L 211.061449 230.900269 
L 212.247525 231.41353 
L 213.44409 231.901839 
L 214.650619 232.364982 
L 215.866583 232.802756 
L 217.091448 233.214969 
L 218.324677 233.601439 
L 219.56573 233.961998 
L 220.814061 234.296487 
L 222.069123 234.60476 
L 223.330366 234.886682 
L 224.597237 235.142128 
L 225.869179 235.370986 
L 227.145636 235.573157 
L 228.426046 235.748551 
L 229.709848 235.897092 
L 230.99648 236.018715 
L 232.285377 236.113366 
L 233.575974 236.181003 
L 234.867703 236.221597 
L 236.16 236.23513 
L 236.16 236.87424 
L 236.16 237.51335 
L 236.16 238.152459 
L 236.16 238.791569 
L 236.16 239.430678 
L 236.16 240.069788 
L 236.16 240.708897 
L 236.16 241.348007 
L 236.16 241.987117 
L 236.16 242.626226 
L 236.16 243.265336 
L 236.16 243.904445 
L 236.16 244.543555 
L 236.16 245.182664 
L 236.16 245.821774 
L 236.16 246.460883 
L 236.16 247.099993 
L 236.16 247.739103 
L 236.16 248.378212 
L 236.16 249.017322 
L 236.16 249.656431 
L 236.16 250.295541 
L 236.16 250.93465 
L 236.16 251.57376 
L 236.16 252.21287 
L 236.16 252.851979 
L 236.16 253.491089 
L 236.16 254.130198 
L 236.16 254.769308 
L 236.16 255.408417 
L 236.16 256.047527 
L 236.16 256.686637 
L 236.16 257.325746 
L 236.16 257.964856 
L 236.16 258.603965 
L 236.16 259.243075 
L 236.16 259.882184 
L 236.16 260.521294 
L 236.16 261.160403 
L 236.16 261.799513 
L 236.16 262.438623 
L 236.16 263.077732 
L 236.16 263.716842 
L 236.16 264.355951 
L 236.16 264.995061 
L 236.16 265.63417 
L 236.16 266.27328 
L 236.16 266.91239 
L 236.16 267.551499 
L 236.16 268.190609 
L 236.16 268.829718 
L 236.16 269.468828 
L 236.16 270.107937 
L 236.16 270.747047 
L 236.16 271.386157 
L 236.16 272.025266 
L 236.16 272.664376 
L 236.16 273.303485 
L 236.16 273.942595 
L 236.16 274.581704 
L 236.16 275.220814 
L 236.16 275.859923 
L 236.16 276.499033 
L 236.16 277.138143 
L 236.16 277.777252 
L 236.16 278.416362 
L 236.16 279.055471 
L 236.16 279.694581 
L 236.16 280.33369 
L 236.16 280.9728 
L 236.16 281.61191 
L 236.16 282.251019 
L 236.16 282.890129 
L 236.16 283.529238 
L 236.16 284.168348 
L 236.16 284.807457 
L 236.16 285.446567 
L 236.16 286.085677 
L 236.16 286.724786 
L 236.16 287.363896 
L 236.16 288.003005 
L 236.16 288.642115 
L 236.16 289.281224 
L 236.16 289.920334 
L 236.16 290.559443 
L 236.16 291.198553 
L 236.16 291.837663 
L 236.16 292.476772 
L 236.16 293.115882 
L 236.16 293.754991 
L 236.16 294.394101 
L 236.16 295.03321 
L 236.16 295.67232 
L 236.16 296.31143 
L 236.16 296.950539 
L 236.16 297.589649 
L 236.16 298.228758 
L 236.16 298.867868 
L 236.16 299.506977 
L 236.16 300.146087 
L 233.529253 300.118537 
L 230.89966 300.035899 
L 228.272375 299.898208 
L 225.648549 299.705527 
L 223.029334 299.457938 
L 220.415879 299.155551 
L 217.809329 298.798498 
L 215.210829 298.386936 
L 212.621518 297.921045 
L 210.042531 297.40103 
L 207.475001 296.827119 
L 204.920052 296.199564 
L 202.378807 295.518639 
L 199.852379 294.784644 
L 197.341876 293.9979 
L 194.848401 293.158753 
L 192.373046 292.26757 
L 189.916898 291.324743 
L 187.481033 290.330686 
L 185.066521 289.285833 
L 182.67442 288.190643 
L 180.305779 287.045598 
L 177.961638 285.851198 
L 175.643025 284.607969 
L 173.350957 283.316454 
L 171.086438 281.977222 
L 168.850463 280.590859 
L 166.644012 279.157973 
L 164.468053 277.679193 
L 162.323541 276.155167 
L 160.211416 274.586565 
L 158.132604 272.974073 
L 156.088018 271.3184 
L 154.078554 269.620271 
L 152.105093 267.880431 
L 150.168502 266.099644 
L 148.26963 264.278691 
L 146.409309 262.41837 
L 144.588356 260.519498 
L 142.807569 258.582907 
L 141.067729 256.609446 
L 139.3696 254.599982 
L 137.713927 252.555396 
L 136.101435 250.476584 
L 134.532833 248.364459 
L 133.008807 246.219947 
L 131.530027 244.043988 
L 130.097141 241.837537 
L 128.710778 239.601562 
L 127.371546 237.337043 
L 126.080031 235.044975 
L 124.836802 232.726362 
L 123.642402 230.382221 
L 122.497357 228.01358 
L 121.402167 225.621479 
L 120.357314 223.206967 
L 119.363257 220.771102 
L 118.42043 218.314954 
L 117.529247 215.839599 
L 116.6901 213.346124 
L 115.903356 210.835621 
L 115.169361 208.309193 
L 114.488436 205.767948 
L 113.860881 203.212999 
L 113.28697 200.645469 
L 112.766955 198.066482 
L 112.301064 195.477171 
L 111.889502 192.878671 
L 111.532449 190.272121 
L 111.230062 187.658666 
L 110.982473 185.039451 
L 110.789792 182.415625 
L 110.652101 179.78834 
L 110.569463 177.158747 
L 110.541913 174.528 
L 110.569463 171.897253 
L 110.652101 169.26766 
L 110.789792 166.640375 
L 110.982473 164.016549 
L 111.230062 161.397334 
L 111.532449 158.783879 
L 111.889502 156.177329 
L 112.301064 153.578829 
L 112.766955 150.989518 
L 113.28697 148.410531 
L 113.860881 145.843001 
L 114.488436 143.288052 
L 115.169361 140.746807 
L 115.903356 138.220379 
L 116.6901 135.709876 
L 117.529247 133.216401 
L 118.42043 130.741046 
L 119.363257 128.284898 
L 120.357314 125.849033 
L 121.402167 123.434521 
L 122.497357 121.04242 
L 123.642402 118.673779 
L 124.836802 116.329638 
L 126.080031 114.011025 
L 127.371546 111.718957 
L 127.925031 112.038511 
L 128.478516 112.358066 
L 129.032001 112.677621 
L 129.585486 112.997176 
L 130.138971 113.31673 
L 130.692456 113.636285 
L 131.245941 113.95584 
L 131.799426 114.275395 
L 132.352912 114.59495 
L 132.906397 114.914504 
L 133.459882 115.234059 
L 134.013367 115.553614 
L 134.566852 115.873169 
L 135.120337 116.192723 
L 135.673822 116.512278 
L 136.227307 116.831833 
L 136.780793 117.151388 
L 137.334278 117.470943 
L 137.887763 117.790497 
L 138.441248 118.110052 
L 138.994733 118.429607 
L 139.548218 118.749162 
L 140.101703 119.068717 
L 140.655188 119.388271 
L 141.208674 119.707826 
L 141.762159 120.027381 
L 142.315644 120.346936 
L 142.869129 120.66649 
L 143.422614 120.986045 
L 143.976099 121.3056 
L 144.529584 121.625155 
L 145.083069 121.94471 
L 145.636554 122.264264 
L 146.19004 122.583819 
L 146.743525 122.903374 
L 147.29701 123.222929 
L 147.850495 123.542483 
L 148.40398 123.862038 
L 148.957465 124.181593 
L 149.51095 124.501148 
L 150.064435 124.820703 
L 150.617921 125.140257 
L 151.171406 125.459812 
L 151.724891 125.779367 
L 152.278376 126.098922 
L 152.831861 126.418477 
L 153.385346 126.738031 
L 153.938831 127.057586 
L 154.492316 127.377141 
L 155.045801 127.696696 
L 155.599287 128.01625 
L 156.152772 128.335805 
L 156.706257 128.65536 
L 157.259742 128.974915 
L 157.813227 129.29447 
L 158.366712 129.614024 
L 158.920197 129.933579 
L 159.473682 130.253134 
L 160.027168 130.572689 
L 160.580653 130.892243 
L 161.134138 131.211798 
L 161.687623 131.531353 
L 162.241108 131.850908 
L 162.794593 132.170463 
L 163.348078 132.490017 
L 163.901563 132.809572 
L 164.455049 133.129127 
L 165.008534 133.448682 
L 165.562019 133.768237 
L 166.115504 134.087791 
L 166.668989 134.407346 
L 167.222474 134.726901 
L 167.775959 135.046456 
L 168.329444 135.36601 
L 168.882929 135.685565 
L 169.436415 136.00512 
L 169.9899 136.324675 
L 170.543385 136.64423 
L 171.09687 136.963784 
L 171.650355 137.283339 
L 172.20384 137.602894 
L 172.757325 137.922449 
L 173.31081 138.242003 
L 173.864296 138.561558 
L 174.417781 138.881113 
L 174.971266 139.200668 
L 175.524751 139.520223 
L 176.078236 139.839777 
L 176.631721 140.159332 
L 177.185206 140.478887 
L 177.738691 140.798442 
L 178.292176 141.117997 
L 178.845662 141.437551 
L 179.399147 141.757106 
L 179.952632 142.076661 
L 180.506117 142.396216 
L 181.059602 142.71577 
L 181.613087 143.035325 
L 182.166572 143.35488 
z
" style="fill:#88c100;"/>
   </g>
   <g id="patch_8">
    <path clip-path="url(#pace650ffa6)" d="M 236.16 174.528 
L 236.16 174.528 
L 236.16 174.528 
L 236.16 174.528 
L 236.16 174.528 
L 236.16 174.528 
L 236.16 174.528 
L 236.16 174.528 
L 236.16 174.528 
L 236.16 174.528 
L 236.16 174.528 
L 236.16 174.528 
L 236.16 174.528 
L 236.16 174.528 
L 236.16 174.528 
L 236.16 174.528 
L 236.16 174.528 
L 236.16 174.528 
L 236.16 174.528 
L 236.16 174.528 
L 236.16 174.528 
L 236.16 174.528 
L 236.16 174.528 
L 236.16 174.528 
L 236.16 174.528 
L 236.16 174.528 
L 236.16 174.528 
L 236.16 174.528 
L 236.16 174.528 
L 236.16 174.528 
L 236.16 174.528 
L 236.16 174.528 
L 236.16 174.528 
L 236.16 174.528 
L 236.16 174.528 
L 236.16 174.528 
L 236.16 174.528 
L 236.16 174.528 
L 236.16 174.528 
L 236.16 174.528 
L 236.16 174.528 
L 236.16 174.528 
L 236.16 174.528 
L 236.16 174.528 
L 236.16 174.528 
L 236.16 174.528 
L 236.16 174.528 
L 236.16 174.528 
L 236.16 174.528 
L 236.16 174.528 
L 236.16 174.528 
L 236.16 174.528 
L 236.16 174.528 
L 236.16 174.528 
L 236.16 174.528 
L 236.16 174.528 
L 236.16 174.528 
L 236.16 174.528 
L 236.16 174.528 
L 236.16 174.528 
L 236.16 174.528 
L 236.16 174.528 
L 236.16 174.528 
L 236.16 174.528 
L 236.16 174.528 
L 236.16 174.528 
L 236.16 174.528 
L 236.16 174.528 
L 236.16 174.528 
L 236.16 174.528 
L 236.16 174.528 
L 236.16 174.528 
L 236.16 174.528 
L 236.16 174.528 
L 236.16 174.528 
L 236.16 174.528 
L 236.16 174.528 
L 236.16 174.528 
L 236.16 174.528 
L 236.16 174.528 
L 236.16 174.528 
L 236.16 174.528 
L 236.16 174.528 
L 236.16 174.528 
L 236.16 174.528 
L 236.16 174.528 
L 236.16 174.528 
L 236.16 174.528 
L 236.16 174.528 
L 236.16 174.528 
L 236.16 174.528 
L 236.16 174.528 
L 236.16 174.528 
L 236.16 174.528 
L 236.16 174.528 
L 236.16 174.528 
L 236.16 174.528 
L 236.16 174.528 
L 236.16 174.528 
L 236.16 174.528 
L 236.16 174.528 
L 236.665771 174.235993 
L 237.171542 173.943986 
L 237.677313 173.651979 
L 238.183084 173.359972 
L 238.688854 173.067965 
L 239.194625 172.775958 
L 239.700396 172.483951 
L 240.206167 172.191944 
L 240.711938 171.899937 
L 241.217709 171.60793 
L 241.72348 171.315923 
L 242.229251 171.023917 
L 242.735022 170.73191 
L 243.240792 170.439903 
L 243.746563 170.147896 
L 244.252334 169.855889 
L 244.758105 169.563882 
L 245.263876 169.271875 
L 245.769647 168.979868 
L 246.275418 168.687861 
L 246.781189 168.395854 
L 247.286959 168.103847 
L 247.79273 167.81184 
L 248.298501 167.519833 
L 248.804272 167.227826 
L 249.310043 166.935819 
L 249.815814 166.643812 
L 250.321585 166.351805 
L 250.827356 166.059798 
L 251.333127 165.767791 
L 251.838897 165.475784 
L 252.344668 165.183777 
L 252.850439 164.89177 
L 253.35621 164.599763 
L 253.861981 164.307757 
L 254.367752 164.01575 
L 254.873523 163.723743 
L 255.379294 163.431736 
L 255.885065 163.139729 
L 256.390835 162.847722 
L 256.896606 162.555715 
L 257.402377 162.263708 
L 257.908148 161.971701 
L 258.413919 161.679694 
L 258.91969 161.387687 
L 259.425461 161.09568 
L 259.931232 160.803673 
L 260.437002 160.511666 
L 260.942773 160.219659 
L 261.448544 159.927652 
L 261.954315 159.635645 
L 262.460086 159.343638 
L 262.965857 159.051631 
L 263.471628 158.759624 
L 263.977399 158.467617 
L 264.48317 158.17561 
L 264.98894 157.883603 
L 265.494711 157.591597 
L 266.000482 157.29959 
L 266.506253 157.007583 
L 267.012024 156.715576 
L 267.517795 156.423569 
L 268.023566 156.131562 
L 268.529337 155.839555 
L 269.035108 155.547548 
L 269.540878 155.255541 
L 270.046649 154.963534 
L 270.55242 154.671527 
L 271.058191 154.37952 
L 271.563962 154.087513 
L 272.069733 153.795506 
L 272.575504 153.503499 
L 273.081275 153.211492 
L 273.587045 152.919485 
L 274.092816 152.627478 
L 274.598587 152.335471 
L 275.104358 152.043464 
L 275.610129 151.751457 
L 276.1159 151.45945 
L 276.621671 151.167443 
L 277.127442 150.875437 
L 277.633213 150.58343 
L 278.138983 150.291423 
L 278.644754 149.999416 
L 279.150525 149.707409 
L 279.656296 149.415402 
L 280.162067 149.123395 
L 280.667838 148.831388 
L 281.173609 148.539381 
L 281.67938 148.247374 
L 282.185151 147.955367 
L 282.690921 147.66336 
L 283.196692 147.371353 
L 283.702463 147.079346 
L 284.208234 146.787339 
L 284.714005 146.495332 
L 285.219776 146.203325 
L 285.725547 145.911318 
L 286.231318 145.619311 
L 286.737088 145.327304 
L 287.337529 146.392915 
L 287.915522 147.470867 
L 288.470813 148.560687 
L 289.003159 149.661897 
L 289.512326 150.774014 
L 289.998091 151.896551 
L 290.46024 153.029014 
L 290.898572 154.170907 
L 291.312894 155.32173 
L 291.703024 156.480978 
L 292.068791 157.648141 
L 292.410034 158.822708 
L 292.726604 160.004165 
L 293.018362 161.191991 
L 293.285181 162.385668 
L 293.526942 163.584671 
L 293.74354 164.788473 
L 293.934881 165.996548 
L 294.100879 167.208365 
L 294.241462 168.423392 
L 294.356569 169.641098 
L 294.446149 170.860946 
L 294.510163 172.082404 
L 294.548583 173.304934 
L 294.561391 174.528 
L 294.548583 175.751066 
L 294.510163 176.973596 
L 294.446149 178.195054 
L 294.356569 179.414902 
L 294.241462 180.632608 
L 294.100879 181.847635 
L 293.934881 183.059452 
L 293.74354 184.267527 
L 293.526942 185.471329 
L 293.285181 186.670332 
L 293.018362 187.864009 
L 292.726604 189.051835 
L 292.410034 190.233292 
L 292.068791 191.407859 
L 291.703024 192.575022 
L 291.312894 193.73427 
L 290.898572 194.885093 
L 290.46024 196.026986 
L 289.998091 197.159449 
L 289.512326 198.281986 
L 289.003159 199.394103 
L 288.470813 200.495313 
L 287.915522 201.585133 
L 287.337529 202.663085 
L 286.737088 203.728696 
L 286.114463 204.781498 
L 285.469926 205.82103 
L 284.803759 206.846836 
L 284.116256 207.858466 
L 283.407718 208.855477 
L 282.678455 209.837429 
L 281.928788 210.803895 
L 281.159045 211.754448 
L 280.369564 212.688672 
L 279.560692 213.606158 
L 278.732782 214.506503 
L 277.886199 215.389313 
L 277.021313 216.254199 
L 276.138503 217.100782 
L 275.238158 217.928692 
L 274.320672 218.737564 
L 273.386448 219.527045 
L 272.435895 220.296788 
L 271.469429 221.046455 
L 270.487477 221.775718 
L 269.490466 222.484256 
L 268.478836 223.171759 
L 267.45303 223.837926 
L 266.413498 224.482463 
L 265.360696 225.105088 
L 264.295085 225.705529 
L 263.217133 226.283522 
L 262.127313 226.838813 
L 261.026103 227.371159 
L 259.913986 227.880326 
L 258.791449 228.366091 
L 257.658986 228.82824 
L 256.517093 229.266572 
L 255.36627 229.680894 
L 254.207022 230.071024 
L 253.039859 230.436791 
L 251.865292 230.778034 
L 250.683835 231.094604 
L 249.496009 231.386362 
L 248.302332 231.653181 
L 247.103329 231.894942 
L 245.899527 232.11154 
L 244.691452 232.302881 
L 243.479635 232.468879 
L 242.264608 232.609462 
L 241.046902 232.724569 
L 239.827054 232.814149 
L 238.605596 232.878163 
L 237.383066 232.916583 
L 236.16 232.929391 
L 236.16 232.345377 
L 236.16 231.761363 
L 236.16 231.17735 
L 236.16 230.593336 
L 236.16 230.009322 
L 236.16 229.425308 
L 236.16 228.841294 
L 236.16 228.25728 
L 236.16 227.673266 
L 236.16 227.089252 
L 236.16 226.505238 
L 236.16 225.921224 
L 236.16 225.33721 
L 236.16 224.753197 
L 236.16 224.169183 
L 236.16 223.585169 
L 236.16 223.001155 
L 236.16 222.417141 
L 236.16 221.833127 
L 236.16 221.249113 
L 236.16 220.665099 
L 236.16 220.081085 
L 236.16 219.497071 
L 236.16 218.913057 
L 236.16 218.329043 
L 236.16 217.74503 
L 236.16 217.161016 
L 236.16 216.577002 
L 236.16 215.992988 
L 236.16 215.408974 
L 236.16 214.82496 
L 236.16 214.240946 
L 236.16 213.656932 
L 236.16 213.072918 
L 236.16 212.488904 
L 236.16 211.90489 
L 236.16 211.320877 
L 236.16 210.736863 
L 236.16 210.152849 
L 236.16 209.568835 
L 236.16 208.984821 
L 236.16 208.400807 
L 236.16 207.816793 
L 236.16 207.232779 
L 236.16 206.648765 
L 236.16 206.064751 
L 236.16 205.480737 
L 236.16 204.896723 
L 236.16 204.31271 
L 236.16 203.728696 
L 236.16 203.144682 
L 236.16 202.560668 
L 236.16 201.976654 
L 236.16 201.39264 
L 236.16 200.808626 
L 236.16 200.224612 
L 236.16 199.640598 
L 236.16 199.056584 
L 236.16 198.47257 
L 236.16 197.888557 
L 236.16 197.304543 
L 236.16 196.720529 
L 236.16 196.136515 
L 236.16 195.552501 
L 236.16 194.968487 
L 236.16 194.384473 
L 236.16 193.800459 
L 236.16 193.216445 
L 236.16 192.632431 
L 236.16 192.048417 
L 236.16 191.464403 
L 236.16 190.88039 
L 236.16 190.296376 
L 236.16 189.712362 
L 236.16 189.128348 
L 236.16 188.544334 
L 236.16 187.96032 
L 236.16 187.376306 
L 236.16 186.792292 
L 236.16 186.208278 
L 236.16 185.624264 
L 236.16 185.04025 
L 236.16 184.456237 
L 236.16 183.872223 
L 236.16 183.288209 
L 236.16 182.704195 
L 236.16 182.120181 
L 236.16 181.536167 
L 236.16 180.952153 
L 236.16 180.368139 
L 236.16 179.784125 
L 236.16 179.200111 
L 236.16 178.616097 
L 236.16 178.032083 
L 236.16 177.44807 
L 236.16 176.864056 
L 236.16 176.280042 
L 236.16 175.696028 
L 236.16 175.112014 
z
" style="fill:#fabe28;"/>
   </g>
   <g id="patch_9">
    <path clip-path="url(#pace650ffa6)" d="M 236.16 232.929391 
L 237.383066 232.916583 
L 238.605596 232.878163 
L 239.827054 232.814149 
L 241.046902 232.724569 
L 242.264608 232.609462 
L 243.479635 232.468879 
L 244.691452 232.302881 
L 245.899527 232.11154 
L 247.103329 231.894942 
L 248.302332 231.653181 
L 249.496009 231.386362 
L 250.683835 231.094604 
L 251.865292 230.778034 
L 253.039859 230.436791 
L 254.207022 230.071024 
L 255.36627 229.680894 
L 256.517093 229.266572 
L 257.658986 228.82824 
L 258.791449 228.366091 
L 259.913986 227.880326 
L 261.026103 227.371159 
L 262.127313 226.838813 
L 263.217133 226.283522 
L 264.295085 225.705529 
L 265.360696 225.105088 
L 266.413498 224.482463 
L 267.45303 223.837926 
L 268.478836 223.171759 
L 269.490466 222.484256 
L 270.487477 221.775718 
L 271.469429 221.046455 
L 272.435895 220.296788 
L 273.386448 219.527045 
L 274.320672 218.737564 
L 275.238158 217.928692 
L 276.138503 217.100782 
L 277.021313 216.254199 
L 277.886199 215.389313 
L 278.732782 214.506503 
L 279.560692 213.606158 
L 280.369564 212.688672 
L 281.159045 211.754448 
L 281.928788 210.803895 
L 282.678455 209.837429 
L 283.407718 208.855477 
L 284.116256 207.858466 
L 284.803759 206.846836 
L 285.469926 205.82103 
L 286.114463 204.781498 
L 286.737088 203.728696 
L 287.337529 202.663085 
L 287.915522 201.585133 
L 288.470813 200.495313 
L 289.003159 199.394103 
L 289.512326 198.281986 
L 289.998091 197.159449 
L 290.46024 196.026986 
L 290.898572 194.885093 
L 291.312894 193.73427 
L 291.703024 192.575022 
L 292.068791 191.407859 
L 292.410034 190.233292 
L 292.726604 189.051835 
L 293.018362 187.864009 
L 293.285181 186.670332 
L 293.526942 185.471329 
L 293.74354 184.267527 
L 293.934881 183.059452 
L 294.100879 181.847635 
L 294.241462 180.632608 
L 294.356569 179.414902 
L 294.446149 178.195054 
L 294.510163 176.973596 
L 294.548583 175.751066 
L 294.561391 174.528 
L 294.548583 173.304934 
L 294.510163 172.082404 
L 294.446149 170.860946 
L 294.356569 169.641098 
L 294.241462 168.423392 
L 294.100879 167.208365 
L 293.934881 165.996548 
L 293.74354 164.788473 
L 293.526942 163.584671 
L 293.285181 162.385668 
L 293.018362 161.191991 
L 292.726604 160.004165 
L 292.410034 158.822708 
L 292.068791 157.648141 
L 291.703024 156.480978 
L 291.312894 155.32173 
L 290.898572 154.170907 
L 290.46024 153.029014 
L 289.998091 151.896551 
L 289.512326 150.774014 
L 289.003159 149.661897 
L 288.470813 148.560687 
L 287.915522 147.470867 
L 287.337529 146.392915 
L 286.737088 145.327304 
L 286.765717 145.310776 
L 286.794346 145.294247 
L 286.822974 145.277718 
L 286.851603 145.26119 
L 286.880231 145.244661 
L 286.90886 145.228132 
L 286.937488 145.211603 
L 286.966117 145.195075 
L 286.994745 145.178546 
L 287.023374 145.162017 
L 287.052002 145.145489 
L 287.080631 145.12896 
L 287.10926 145.112431 
L 287.137888 145.095903 
L 287.166517 145.079374 
L 287.195145 145.062845 
L 287.223774 145.046317 
L 287.252402 145.029788 
L 287.281031 145.013259 
L 287.309659 144.99673 
L 287.338288 144.980202 
L 287.366916 144.963673 
L 287.395545 144.947144 
L 287.424173 144.930616 
L 287.452802 144.914087 
L 287.481431 144.897558 
L 287.510059 144.88103 
L 287.538688 144.864501 
L 287.567316 144.847972 
L 287.595945 144.831443 
L 287.624573 144.814915 
L 287.653202 144.798386 
L 287.68183 144.781857 
L 287.710459 144.765329 
L 287.739087 144.7488 
L 287.767716 144.732271 
L 287.796344 144.715743 
L 287.824973 144.699214 
L 287.853602 144.682685 
L 287.88223 144.666157 
L 287.910859 144.649628 
L 287.939487 144.633099 
L 287.968116 144.61657 
L 287.996744 144.600042 
L 288.025373 144.583513 
L 288.054001 144.566984 
L 288.08263 144.550456 
L 288.111258 144.533927 
L 288.139887 144.517398 
L 288.168516 144.50087 
L 288.197144 144.484341 
L 288.225773 144.467812 
L 288.254401 144.451283 
L 288.28303 144.434755 
L 288.311658 144.418226 
L 288.340287 144.401697 
L 288.368915 144.385169 
L 288.397544 144.36864 
L 288.426172 144.352111 
L 288.454801 144.335583 
L 288.483429 144.319054 
L 288.512058 144.302525 
L 288.540687 144.285997 
L 288.569315 144.269468 
L 288.597944 144.252939 
L 288.626572 144.23641 
L 288.655201 144.219882 
L 288.683829 144.203353 
L 288.712458 144.186824 
L 288.741086 144.170296 
L 288.769715 144.153767 
L 288.798343 144.137238 
L 288.826972 144.12071 
L 288.8556 144.104181 
L 288.884229 144.087652 
L 288.912858 144.071123 
L 288.941486 144.054595 
L 288.970115 144.038066 
L 288.998743 144.021537 
L 289.027372 144.005009 
L 289.056 143.98848 
L 289.084629 143.971951 
L 289.113257 143.955423 
L 289.141886 143.938894 
L 289.170514 143.922365 
L 289.199143 143.905837 
L 289.227772 143.889308 
L 289.2564 143.872779 
L 289.285029 143.85625 
L 289.313657 143.839722 
L 289.342286 143.823193 
L 289.370914 143.806664 
L 289.399543 143.790136 
L 289.428171 143.773607 
L 289.4568 143.757078 
L 289.485428 143.74055 
L 289.514057 143.724021 
L 289.542685 143.707492 
L 289.571314 143.690963 
L 289.599943 143.674435 
L 290.234371 144.800363 
L 290.84508 145.939331 
L 291.431802 147.090839 
L 291.994281 148.254382 
L 292.532269 149.429449 
L 293.04553 150.615525 
L 293.533839 151.81209 
L 293.996982 153.018619 
L 294.434756 154.234583 
L 294.846969 155.459448 
L 295.233439 156.692677 
L 295.593998 157.93373 
L 295.928487 159.182061 
L 296.23676 160.437123 
L 296.518682 161.698366 
L 296.774128 162.965237 
L 297.002986 164.237179 
L 297.205157 165.513636 
L 297.380551 166.794046 
L 297.529092 168.077848 
L 297.650715 169.36448 
L 297.745366 170.653377 
L 297.813003 171.943974 
L 297.853597 173.235703 
L 297.86713 174.528 
L 297.853597 175.820297 
L 297.813003 177.112026 
L 297.745366 178.402623 
L 297.650715 179.69152 
L 297.529092 180.978152 
L 297.380551 182.261954 
L 297.205157 183.542364 
L 297.002986 184.818821 
L 296.774128 186.090763 
L 296.518682 187.357634 
L 296.23676 188.618877 
L 295.928487 189.873939 
L 295.593998 191.12227 
L 295.233439 192.363323 
L 294.846969 193.596552 
L 294.434756 194.821417 
L 293.996982 196.037381 
L 293.533839 197.24391 
L 293.04553 198.440475 
L 292.532269 199.626551 
L 291.994281 200.801618 
L 291.431802 201.965161 
L 290.84508 203.116669 
L 290.234371 204.255637 
L 289.599943 205.381565 
L 288.942074 206.49396 
L 288.261053 207.592334 
L 287.55718 208.676205 
L 286.830761 209.745097 
L 286.082117 210.798541 
L 285.311576 211.836076 
L 284.519474 212.857247 
L 283.706161 213.861605 
L 282.871993 214.84871 
L 282.017335 215.81813 
L 281.142562 216.769438 
L 280.248059 217.702217 
L 279.334217 218.616059 
L 278.401438 219.510562 
L 277.45013 220.385335 
L 276.48071 221.239993 
L 275.493605 222.074161 
L 274.489247 222.887474 
L 273.468076 223.679576 
L 272.430541 224.450117 
L 271.377097 225.198761 
L 270.308205 225.92518 
L 269.224334 226.629053 
L 268.12596 227.310074 
L 267.013565 227.967943 
L 265.887637 228.602371 
L 264.748669 229.21308 
L 263.597161 229.799802 
L 262.433618 230.362281 
L 261.258551 230.900269 
L 260.072475 231.41353 
L 258.87591 231.901839 
L 257.669381 232.364982 
L 256.453417 232.802756 
L 255.228552 233.214969 
L 253.995323 233.601439 
L 252.75427 233.961998 
L 251.505939 234.296487 
L 250.250877 234.60476 
L 248.989634 234.886682 
L 247.722763 235.142128 
L 246.450821 235.370986 
L 245.174364 235.573157 
L 243.893954 235.748551 
L 242.610152 235.897092 
L 241.32352 236.018715 
L 240.034623 236.113366 
L 238.744026 236.181003 
L 237.452297 236.221597 
L 236.16 236.23513 
L 236.16 236.202073 
L 236.16 236.169016 
L 236.16 236.135958 
L 236.16 236.102901 
L 236.16 236.069843 
L 236.16 236.036786 
L 236.16 236.003729 
L 236.16 235.970671 
L 236.16 235.937614 
L 236.16 235.904557 
L 236.16 235.871499 
L 236.16 235.838442 
L 236.16 235.805384 
L 236.16 235.772327 
L 236.16 235.73927 
L 236.16 235.706212 
L 236.16 235.673155 
L 236.16 235.640097 
L 236.16 235.60704 
L 236.16 235.573983 
L 236.16 235.540925 
L 236.16 235.507868 
L 236.16 235.47481 
L 236.16 235.441753 
L 236.16 235.408696 
L 236.16 235.375638 
L 236.16 235.342581 
L 236.16 235.309523 
L 236.16 235.276466 
L 236.16 235.243409 
L 236.16 235.210351 
L 236.16 235.177294 
L 236.16 235.144237 
L 236.16 235.111179 
L 236.16 235.078122 
L 236.16 235.045064 
L 236.16 235.012007 
L 236.16 234.97895 
L 236.16 234.945892 
L 236.16 234.912835 
L 236.16 234.879777 
L 236.16 234.84672 
L 236.16 234.813663 
L 236.16 234.780605 
L 236.16 234.747548 
L 236.16 234.71449 
L 236.16 234.681433 
L 236.16 234.648376 
L 236.16 234.615318 
L 236.16 234.582261 
L 236.16 234.549203 
L 236.16 234.516146 
L 236.16 234.483089 
L 236.16 234.450031 
L 236.16 234.416974 
L 236.16 234.383917 
L 236.16 234.350859 
L 236.16 234.317802 
L 236.16 234.284744 
L 236.16 234.251687 
L 236.16 234.21863 
L 236.16 234.185572 
L 236.16 234.152515 
L 236.16 234.119457 
L 236.16 234.0864 
L 236.16 234.053343 
L 236.16 234.020285 
L 236.16 233.987228 
L 236.16 233.95417 
L 236.16 233.921113 
L 236.16 233.888056 
L 236.16 233.854998 
L 236.16 233.821941 
L 236.16 233.788883 
L 236.16 233.755826 
L 236.16 233.722769 
L 236.16 233.689711 
L 236.16 233.656654 
L 236.16 233.623597 
L 236.16 233.590539 
L 236.16 233.557482 
L 236.16 233.524424 
L 236.16 233.491367 
L 236.16 233.45831 
L 236.16 233.425252 
L 236.16 233.392195 
L 236.16 233.359137 
L 236.16 233.32608 
L 236.16 233.293023 
L 236.16 233.259965 
L 236.16 233.226908 
L 236.16 233.19385 
L 236.16 233.160793 
L 236.16 233.127736 
L 236.16 233.094678 
L 236.16 233.061621 
L 236.16 233.028563 
L 236.16 232.995506 
L 236.16 232.962449 
z
" style="fill:#ff003c;"/>
   </g>
   <g id="patch_10">
    <path clip-path="url(#pace650ffa6)" d="M 236.16 236.23513 
L 237.452297 236.221597 
L 238.744026 236.181003 
L 240.034623 236.113366 
L 241.32352 236.018715 
L 242.610152 235.897092 
L 243.893954 235.748551 
L 245.174364 235.573157 
L 246.450821 235.370986 
L 247.722763 235.142128 
L 248.989634 234.886682 
L 250.250877 234.60476 
L 251.505939 234.296487 
L 252.75427 233.961998 
L 253.995323 233.601439 
L 255.228552 233.214969 
L 256.453417 232.802756 
L 257.669381 232.364982 
L 258.87591 231.901839 
L 260.072475 231.41353 
L 261.258551 230.900269 
L 262.433618 230.362281 
L 263.597161 229.799802 
L 264.748669 229.21308 
L 265.887637 228.602371 
L 267.013565 227.967943 
L 268.12596 227.310074 
L 269.224334 226.629053 
L 270.308205 225.92518 
L 271.377097 225.198761 
L 272.430541 224.450117 
L 273.468076 223.679576 
L 274.489247 222.887474 
L 275.493605 222.074161 
L 276.48071 221.239993 
L 277.45013 220.385335 
L 278.401438 219.510562 
L 279.334217 218.616059 
L 280.248059 217.702217 
L 281.142562 216.769438 
L 282.017335 215.81813 
L 282.871993 214.84871 
L 283.706161 213.861605 
L 284.519474 212.857247 
L 285.311576 211.836076 
L 286.082117 210.798541 
L 286.830761 209.745097 
L 287.55718 208.676205 
L 288.261053 207.592334 
L 288.942074 206.49396 
L 289.599943 205.381565 
L 290.234371 204.255637 
L 290.84508 203.116669 
L 291.431802 201.965161 
L 291.994281 200.801618 
L 292.532269 199.626551 
L 293.04553 198.440475 
L 293.533839 197.24391 
L 293.996982 196.037381 
L 294.434756 194.821417 
L 294.846969 193.596552 
L 295.233439 192.363323 
L 295.593998 191.12227 
L 295.928487 189.873939 
L 296.23676 188.618877 
L 296.518682 187.357634 
L 296.774128 186.090763 
L 297.002986 184.818821 
L 297.205157 183.542364 
L 297.380551 182.261954 
L 297.529092 180.978152 
L 297.650715 179.69152 
L 297.745366 178.402623 
L 297.813003 177.112026 
L 297.853597 175.820297 
L 297.86713 174.528 
L 297.853597 173.235703 
L 297.813003 171.943974 
L 297.745366 170.653377 
L 297.650715 169.36448 
L 297.529092 168.077848 
L 297.380551 166.794046 
L 297.205157 165.513636 
L 297.002986 164.237179 
L 296.774128 162.965237 
L 296.518682 161.698366 
L 296.23676 160.437123 
L 295.928487 159.182061 
L 295.593998 157.93373 
L 295.233439 156.692677 
L 294.846969 155.459448 
L 294.434756 154.234583 
L 293.996982 153.018619 
L 293.533839 151.81209 
L 293.04553 150.615525 
L 292.532269 149.429449 
L 291.994281 148.254382 
L 291.431802 147.090839 
L 290.84508 145.939331 
L 290.234371 144.800363 
L 289.599943 143.674435 
L 290.162971 143.34937 
L 290.725998 143.024306 
L 291.289026 142.699242 
L 291.852054 142.374177 
L 292.415082 142.049113 
L 292.97811 141.724049 
L 293.541138 141.398984 
L 294.104166 141.07392 
L 294.667194 140.748856 
L 295.230222 140.423791 
L 295.79325 140.098727 
L 296.356278 139.773663 
L 296.919306 139.448598 
L 297.482334 139.123534 
L 298.045362 138.79847 
L 298.60839 138.473405 
L 299.171418 138.148341 
L 299.734446 137.823277 
L 300.297474 137.498212 
L 300.860502 137.173148 
L 301.42353 136.848083 
L 301.986558 136.523019 
L 302.549586 136.197955 
L 303.112614 135.87289 
L 303.675642 135.547826 
L 304.23867 135.222762 
L 304.801698 134.897697 
L 305.364726 134.572633 
L 305.927754 134.247569 
L 306.490782 133.922504 
L 307.05381 133.59744 
L 307.616837 133.272376 
L 308.179865 132.947311 
L 308.742893 132.622247 
L 309.305921 132.297183 
L 309.868949 131.972118 
L 310.431977 131.647054 
L 310.995005 131.32199 
L 311.558033 130.996925 
L 312.121061 130.671861 
L 312.684089 130.346797 
L 313.247117 130.021732 
L 313.810145 129.696668 
L 314.373173 129.371603 
L 314.936201 129.046539 
L 315.499229 128.721475 
L 316.062257 128.39641 
L 316.625285 128.071346 
L 317.188313 127.746282 
L 317.751341 127.421217 
L 318.314369 127.096153 
L 318.877397 126.771089 
L 319.440425 126.446024 
L 320.003453 126.12096 
L 320.566481 125.795896 
L 321.129509 125.470831 
L 321.692537 125.145767 
L 322.255565 124.820703 
L 322.818593 124.495638 
L 323.381621 124.170574 
L 323.944648 123.84551 
L 324.507676 123.520445 
L 325.070704 123.195381 
L 325.633732 122.870317 
L 326.19676 122.545252 
L 326.759788 122.220188 
L 327.322816 121.895123 
L 327.885844 121.570059 
L 328.448872 121.244995 
L 329.0119 120.91993 
L 329.574928 120.594866 
L 330.137956 120.269802 
L 330.700984 119.944737 
L 331.264012 119.619673 
L 331.82704 119.294609 
L 332.390068 118.969544 
L 332.953096 118.64448 
L 333.516124 118.319416 
L 334.079152 117.994351 
L 334.64218 117.669287 
L 335.205208 117.344223 
L 335.768236 117.019158 
L 336.331264 116.694094 
L 336.894292 116.36903 
L 337.45732 116.043965 
L 338.020348 115.718901 
L 338.583376 115.393837 
L 339.146404 115.068772 
L 339.709432 114.743708 
L 340.27246 114.418643 
L 340.835487 114.093579 
L 341.398515 113.768515 
L 341.961543 113.44345 
L 342.524571 113.118386 
L 343.087599 112.793322 
L 343.650627 112.468257 
L 344.213655 112.143193 
L 344.776683 111.818129 
L 345.339711 111.493064 
L 345.902739 111.168 
L 347.205582 113.480174 
L 348.459718 115.819126 
L 349.664594 118.18383 
L 350.819684 120.573248 
L 351.92448 122.986333 
L 352.978499 125.422025 
L 353.981276 127.879257 
L 354.932374 130.35695 
L 355.831374 132.854019 
L 356.677882 135.369366 
L 357.471527 137.901891 
L 358.21196 140.45048 
L 358.898858 143.014017 
L 359.531919 145.591378 
L 360.110864 148.181431 
L 360.63544 150.78304 
L 361.105418 153.395064 
L 361.52059 156.016359 
L 361.880775 158.645773 
L 362.185815 161.282153 
L 362.435575 163.924344 
L 362.629947 166.571185 
L 362.768845 169.221517 
L 362.852208 171.874177 
L 362.88 174.528 
L 362.852208 177.181823 
L 362.768845 179.834483 
L 362.629947 182.484815 
L 362.435575 185.131656 
L 362.185815 187.773847 
L 361.880775 190.410227 
L 361.52059 193.039641 
L 361.105418 195.660936 
L 360.63544 198.27296 
L 360.110864 200.874569 
L 359.531919 203.464622 
L 358.898858 206.041983 
L 358.21196 208.60552 
L 357.471527 211.154109 
L 356.677882 213.686634 
L 355.831374 216.201981 
L 354.932374 218.69905 
L 353.981276 221.176743 
L 352.978499 223.633975 
L 351.92448 226.069667 
L 350.819684 228.482752 
L 349.664594 230.87217 
L 348.459718 233.236874 
L 347.205582 235.575826 
L 345.902739 237.888 
L 344.551759 240.172383 
L 343.153235 242.427971 
L 341.70778 244.653777 
L 340.216028 246.848823 
L 338.678634 249.012147 
L 337.096271 251.1428 
L 335.469635 253.239847 
L 333.799438 255.302368 
L 332.086413 257.329459 
L 330.331312 259.32023 
L 328.534904 261.273809 
L 326.697978 263.189339 
L 324.821339 265.065978 
L 322.905809 266.902904 
L 320.95223 268.699312 
L 318.961459 270.454413 
L 316.934368 272.167438 
L 314.871847 273.837635 
L 312.7748 275.464271 
L 310.644147 277.046634 
L 308.480823 278.584028 
L 306.285777 280.07578 
L 304.059971 281.521235 
L 301.804383 282.919759 
L 299.52 284.270739 
L 297.207826 285.573582 
L 294.868874 286.827718 
L 292.50417 288.032594 
L 290.114752 289.187684 
L 287.701667 290.29248 
L 285.265975 291.346499 
L 282.808743 292.349276 
L 280.33105 293.300374 
L 277.833981 294.199374 
L 275.318634 295.045882 
L 272.786109 295.839527 
L 270.23752 296.57996 
L 267.673983 297.266858 
L 265.096622 297.899919 
L 262.506569 298.478864 
L 259.90496 299.00344 
L 257.292936 299.473418 
L 254.671641 299.88859 
L 252.042227 300.248775 
L 249.405847 300.553815 
L 246.763656 300.803575 
L 244.116815 300.997947 
L 241.466483 301.136845 
L 238.813823 301.220208 
L 236.16 301.248 
L 236.16 300.597871 
L 236.16 299.947743 
L 236.16 299.297614 
L 236.16 298.647485 
L 236.16 297.997357 
L 236.16 297.347228 
L 236.16 296.697099 
L 236.16 296.04697 
L 236.16 295.396842 
L 236.16 294.746713 
L 236.16 294.096584 
L 236.16 293.446456 
L 236.16 292.796327 
L 236.16 292.146198 
L 236.16 291.49607 
L 236.16 290.845941 
L 236.16 290.195812 
L 236.16 289.545683 
L 236.16 288.895555 
L 236.16 288.245426 
L 236.16 287.595297 
L 236.16 286.945169 
L 236.16 286.29504 
L 236.16 285.644911 
L 236.16 284.994783 
L 236.16 284.344654 
L 236.16 283.694525 
L 236.16 283.044397 
L 236.16 282.394268 
L 236.16 281.744139 
L 236.16 281.09401 
L 236.16 280.443882 
L 236.16 279.793753 
L 236.16 279.143624 
L 236.16 278.493496 
L 236.16 277.843367 
L 236.16 277.193238 
L 236.16 276.54311 
L 236.16 275.892981 
L 236.16 275.242852 
L 236.16 274.592723 
L 236.16 273.942595 
L 236.16 273.292466 
L 236.16 272.642337 
L 236.16 271.992209 
L 236.16 271.34208 
L 236.16 270.691951 
L 236.16 270.041823 
L 236.16 269.391694 
L 236.16 268.741565 
L 236.16 268.091437 
L 236.16 267.441308 
L 236.16 266.791179 
L 236.16 266.14105 
L 236.16 265.490922 
L 236.16 264.840793 
L 236.16 264.190664 
L 236.16 263.540536 
L 236.16 262.890407 
L 236.16 262.240278 
L 236.16 261.59015 
L 236.16 260.940021 
L 236.16 260.289892 
L 236.16 259.639763 
L 236.16 258.989635 
L 236.16 258.339506 
L 236.16 257.689377 
L 236.16 257.039249 
L 236.16 256.38912 
L 236.16 255.738991 
L 236.16 255.088863 
L 236.16 254.438734 
L 236.16 253.788605 
L 236.16 253.138477 
L 236.16 252.488348 
L 236.16 251.838219 
L 236.16 251.18809 
L 236.16 250.537962 
L 236.16 249.887833 
L 236.16 249.237704 
L 236.16 248.587576 
L 236.16 247.937447 
L 236.16 247.287318 
L 236.16 246.63719 
L 236.16 245.987061 
L 236.16 245.336932 
L 236.16 244.686803 
L 236.16 244.036675 
L 236.16 243.386546 
L 236.16 242.736417 
L 236.16 242.086289 
L 236.16 241.43616 
L 236.16 240.786031 
L 236.16 240.135903 
L 236.16 239.485774 
L 236.16 238.835645 
L 236.16 238.185517 
L 236.16 237.535388 
L 236.16 236.885259 
z
" style="fill:#88c100;"/>
   </g>
  </g>
 </g>
 <defs>
  <clipPath id="pace650ffa6">
   <path d="M 369.216 174.528 
C 369.216 157.055246 365.774248 139.752393 359.087715 123.609673 
C 352.401182 107.466954 342.599903 92.798303 330.2448 80.4432 
C 317.889697 68.088097 303.221046 58.286818 287.078327 51.600285 
C 270.935607 44.913752 253.632754 41.472 236.16 41.472 
C 218.687246 41.472 201.384393 44.913752 185.241673 51.600285 
C 169.098954 58.286818 154.430303 68.088097 142.0752 80.4432 
C 129.720097 92.798303 119.918818 107.466954 113.232285 123.609673 
C 106.545752 139.752393 103.104 157.055246 103.104 174.528 
C 103.104 192.000754 106.545752 209.303607 113.232285 225.446327 
C 119.918818 241.589046 129.720097 256.257697 142.0752 268.6128 
C 154.430303 280.967903 169.098954 290.769182 185.241673 297.455715 
C 201.384393 304.142248 218.687246 307.584 236.16 307.584 
C 253.632754 307.584 270.935607 304.142248 287.078327 297.455715 
C 303.221046 290.769182 317.889697 280.967903 330.2448 268.6128 
C 342.599903 256.257697 352.401182 241.589046 359.087715 225.446327 
C 365.774248 209.303607 369.216 192.000754 369.216 174.528 
M 236.16 174.528 
C 236.16 174.528 236.16 174.528 236.16 174.528 
C 236.16 174.528 236.16 174.528 236.16 174.528 
C 236.16 174.528 236.16 174.528 236.16 174.528 
C 236.16 174.528 236.16 174.528 236.16 174.528 
C 236.16 174.528 236.16 174.528 236.16 174.528 
C 236.16 174.528 236.16 174.528 236.16 174.528 
C 236.16 174.528 236.16 174.528 236.16 174.528 
C 236.16 174.528 236.16 174.528 236.16 174.528 
C 236.16 174.528 236.16 174.528 236.16 174.528 
C 236.16 174.528 236.16 174.528 236.16 174.528 
C 236.16 174.528 236.16 174.528 236.16 174.528 
C 236.16 174.528 236.16 174.528 236.16 174.528 
C 236.16 174.528 236.16 174.528 236.16 174.528 
C 236.16 174.528 236.16 174.528 236.16 174.528 
C 236.16 174.528 236.16 174.528 236.16 174.528 
C 236.16 174.528 236.16 174.528 236.16 174.528 
M 369.216 174.528 
z
"/>
  </clipPath>
 </defs>
</svg>
