<?xml version="1.0" encoding="utf-8" standalone="no"?>
<!DOCTYPE svg PUBLIC "-//W3C//DTD SVG 1.1//EN"
  "http://www.w3.org/Graphics/SVG/1.1/DTD/svg11.dtd">
<!-- Created with matplotlib (https://matplotlib.org/) -->
<svg height="345.6pt" version="1.1" viewBox="0 0 460.8 345.6" width="460.8pt" xmlns="http://www.w3.org/2000/svg" xmlns:xlink="http://www.w3.org/1999/xlink">
 <defs>
  <style type="text/css">
*{stroke-linecap:butt;stroke-linejoin:round;}
  </style>
 </defs>
 <g id="figure_1">
  <g id="patch_1">
   <path d="M 0 345.6 
L 460.8 345.6 
L 460.8 0 
L 0 0 
z
" style="fill:none;"/>
  </g>
  <g id="axes_1">
   <g id="patch_2">
    <path clip-path="url(#pb3c98a4fe9)" d="M 236.16 174.528 
L 236.16 174.528 
L 236.16 174.528 
L 236.16 174.528 
L 236.16 174.528 
L 236.16 174.528 
L 236.16 174.528 
L 236.16 174.528 
L 236.16 174.528 
L 236.16 174.528 
L 236.16 174.528 
L 236.16 174.528 
L 236.16 174.528 
L 236.16 174.528 
L 236.16 174.528 
L 236.16 174.528 
L 236.16 174.528 
L 236.16 174.528 
L 236.16 174.528 
L 236.16 174.528 
L 236.16 174.528 
L 236.16 174.528 
L 236.16 174.528 
L 236.16 174.528 
L 236.16 174.528 
L 236.16 174.528 
L 236.16 174.528 
L 236.16 174.528 
L 236.16 174.528 
L 236.16 174.528 
L 236.16 174.528 
L 236.16 174.528 
L 236.16 174.528 
L 236.16 174.528 
L 236.16 174.528 
L 236.16 174.528 
L 236.16 174.528 
L 236.16 174.528 
L 236.16 174.528 
L 236.16 174.528 
L 236.16 174.528 
L 236.16 174.528 
L 236.16 174.528 
L 236.16 174.528 
L 236.16 174.528 
L 236.16 174.528 
L 236.16 174.528 
L 236.16 174.528 
L 236.16 174.528 
L 236.16 174.528 
L 236.16 174.528 
L 236.16 174.528 
L 236.16 174.528 
L 236.16 174.528 
L 236.16 174.528 
L 236.16 174.528 
L 236.16 174.528 
L 236.16 174.528 
L 236.16 174.528 
L 236.16 174.528 
L 236.16 174.528 
L 236.16 174.528 
L 236.16 174.528 
L 236.16 174.528 
L 236.16 174.528 
L 236.16 174.528 
L 236.16 174.528 
L 236.16 174.528 
L 236.16 174.528 
L 236.16 174.528 
L 236.16 174.528 
L 236.16 174.528 
L 236.16 174.528 
L 236.16 174.528 
L 236.16 174.528 
L 236.16 174.528 
L 236.16 174.528 
L 236.16 174.528 
L 236.16 174.528 
L 236.16 174.528 
L 236.16 174.528 
L 236.16 174.528 
L 236.16 174.528 
L 236.16 174.528 
L 236.16 174.528 
L 236.16 174.528 
L 236.16 174.528 
L 236.16 174.528 
L 236.16 174.528 
L 236.16 174.528 
L 236.16 174.528 
L 236.16 174.528 
L 236.16 174.528 
L 236.16 174.528 
L 236.16 174.528 
L 236.16 174.528 
L 236.16 174.528 
L 236.16 174.528 
L 236.16 174.528 
L 236.16 174.528 
L 236.16 174.528 
L 236.16 175.07712 
L 236.16 175.62624 
L 236.16 176.17536 
L 236.16 176.72448 
L 236.16 177.2736 
L 236.16 177.82272 
L 236.16 178.37184 
L 236.16 178.92096 
L 236.16 179.47008 
L 236.16 180.0192 
L 236.16 180.56832 
L 236.16 181.11744 
L 236.16 181.66656 
L 236.16 182.21568 
L 236.16 182.7648 
L 236.16 183.31392 
L 236.16 183.86304 
L 236.16 184.41216 
L 236.16 184.96128 
L 236.16 185.5104 
L 236.16 186.05952 
L 236.16 186.60864 
L 236.16 187.15776 
L 236.16 187.70688 
L 236.16 188.256 
L 236.16 188.80512 
L 236.16 189.35424 
L 236.16 189.90336 
L 236.16 190.45248 
L 236.16 191.0016 
L 236.16 191.55072 
L 236.16 192.09984 
L 236.16 192.64896 
L 236.16 193.19808 
L 236.16 193.7472 
L 236.16 194.29632 
L 236.16 194.84544 
L 236.16 195.39456 
L 236.16 195.94368 
L 236.16 196.4928 
L 236.16 197.04192 
L 236.16 197.59104 
L 236.16 198.14016 
L 236.16 198.68928 
L 236.16 199.2384 
L 236.16 199.78752 
L 236.16 200.33664 
L 236.16 200.88576 
L 236.16 201.43488 
L 236.16 201.984 
L 236.16 202.53312 
L 236.16 203.08224 
L 236.16 203.63136 
L 236.16 204.18048 
L 236.16 204.7296 
L 236.16 205.27872 
L 236.16 205.82784 
L 236.16 206.37696 
L 236.16 206.92608 
L 236.16 207.4752 
L 236.16 208.02432 
L 236.16 208.57344 
L 236.16 209.12256 
L 236.16 209.67168 
L 236.16 210.2208 
L 236.16 210.76992 
L 236.16 211.31904 
L 236.16 211.86816 
L 236.16 212.41728 
L 236.16 212.9664 
L 236.16 213.51552 
L 236.16 214.06464 
L 236.16 214.61376 
L 236.16 215.16288 
L 236.16 215.712 
L 236.16 216.26112 
L 236.16 216.81024 
L 236.16 217.35936 
L 236.16 217.90848 
L 236.16 218.4576 
L 236.16 219.00672 
L 236.16 219.55584 
L 236.16 220.10496 
L 236.16 220.65408 
L 236.16 221.2032 
L 236.16 221.75232 
L 236.16 222.30144 
L 236.16 222.85056 
L 236.16 223.39968 
L 236.16 223.9488 
L 236.16 224.49792 
L 236.16 225.04704 
L 236.16 225.59616 
L 236.16 226.14528 
L 236.16 226.6944 
L 236.16 227.24352 
L 236.16 227.79264 
L 236.16 228.34176 
L 236.16 228.89088 
L 236.16 229.44 
L 232.712047 229.331644 
L 229.277701 229.007002 
L 225.870517 228.467358 
L 222.503941 227.714839 
L 219.191259 226.752415 
L 215.945545 225.583886 
L 212.779608 224.213863 
L 209.705942 222.647752 
L 206.736679 220.891735 
L 203.883536 218.952741 
L 201.157774 216.838423 
L 198.570149 214.557125 
L 196.130875 212.117851 
L 193.849577 209.530226 
L 191.735259 206.804464 
L 189.796265 203.951321 
L 188.040248 200.982058 
L 186.474137 197.908392 
L 185.104114 194.742455 
L 183.935585 191.496741 
L 182.973161 188.184059 
L 182.220642 184.817483 
L 181.680998 181.410299 
L 181.356356 177.975953 
L 181.248 174.528 
L 181.356356 171.080047 
L 181.680998 167.645701 
L 182.220642 164.238517 
L 182.973161 160.871941 
L 183.935585 157.559259 
L 185.104114 154.313545 
L 186.474137 151.147608 
L 188.040248 148.073942 
L 189.796265 145.104679 
L 191.735259 142.251536 
L 193.849577 139.525774 
L 196.130875 136.938149 
L 198.570149 134.498875 
L 201.157774 132.217577 
L 203.883536 130.103259 
L 206.736679 128.164265 
L 209.705942 126.408248 
L 212.779608 124.842137 
L 215.945545 123.472114 
L 219.191259 122.303585 
L 222.503941 121.341161 
L 225.870517 120.588642 
L 229.277701 120.048998 
L 232.712047 119.724356 
L 236.16 119.616 
L 239.607953 119.724356 
L 243.042299 120.048998 
L 246.449483 120.588642 
L 249.816059 121.341161 
L 253.128741 122.303585 
L 256.374455 123.472114 
L 259.540392 124.842137 
L 262.614058 126.408248 
L 265.583321 128.164265 
L 268.436464 130.103259 
L 271.162226 132.217577 
L 273.749851 134.498875 
L 276.189125 136.938149 
L 278.470423 139.525774 
L 280.584741 142.251536 
L 282.523735 145.104679 
L 284.279752 148.073942 
L 285.845863 151.147608 
L 287.215886 154.313545 
L 288.384415 157.559259 
L 289.346839 160.871941 
L 290.099358 164.238517 
L 290.639002 167.645701 
L 290.963644 171.080047 
L 291.072 174.528 
L 290.963644 177.975953 
L 290.639002 181.410299 
L 290.099358 184.817483 
L 289.346839 188.184059 
L 288.384415 191.496741 
L 287.215886 194.742455 
L 285.845863 197.908392 
L 284.279752 200.982058 
L 282.523735 203.951321 
L 280.584741 206.804464 
L 278.470423 209.530226 
L 276.189125 212.117851 
L 273.749851 214.557125 
L 271.162226 216.838423 
L 268.436464 218.952741 
L 265.583321 220.891735 
L 262.614058 222.647752 
L 259.540392 224.213863 
L 256.374455 225.583886 
L 253.128741 226.752415 
L 249.816059 227.714839 
L 246.449483 228.467358 
L 243.042299 229.007002 
L 239.607953 229.331644 
L 236.16 229.44 
L 236.16 228.89088 
L 236.16 228.34176 
L 236.16 227.79264 
L 236.16 227.24352 
L 236.16 226.6944 
L 236.16 226.14528 
L 236.16 225.59616 
L 236.16 225.04704 
L 236.16 224.49792 
L 236.16 223.9488 
L 236.16 223.39968 
L 236.16 222.85056 
L 236.16 222.30144 
L 236.16 221.75232 
L 236.16 221.2032 
L 236.16 220.65408 
L 236.16 220.10496 
L 236.16 219.55584 
L 236.16 219.00672 
L 236.16 218.4576 
L 236.16 217.90848 
L 236.16 217.35936 
L 236.16 216.81024 
L 236.16 216.26112 
L 236.16 215.712 
L 236.16 215.16288 
L 236.16 214.61376 
L 236.16 214.06464 
L 236.16 213.51552 
L 236.16 212.9664 
L 236.16 212.41728 
L 236.16 211.86816 
L 236.16 211.31904 
L 236.16 210.76992 
L 236.16 210.2208 
L 236.16 209.67168 
L 236.16 209.12256 
L 236.16 208.57344 
L 236.16 208.02432 
L 236.16 207.4752 
L 236.16 206.92608 
L 236.16 206.37696 
L 236.16 205.82784 
L 236.16 205.27872 
L 236.16 204.7296 
L 236.16 204.18048 
L 236.16 203.63136 
L 236.16 203.08224 
L 236.16 202.53312 
L 236.16 201.984 
L 236.16 201.43488 
L 236.16 200.88576 
L 236.16 200.33664 
L 236.16 199.78752 
L 236.16 199.2384 
L 236.16 198.68928 
L 236.16 198.14016 
L 236.16 197.59104 
L 236.16 197.04192 
L 236.16 196.4928 
L 236.16 195.94368 
L 236.16 195.39456 
L 236.16 194.84544 
L 236.16 194.29632 
L 236.16 193.7472 
L 236.16 193.19808 
L 236.16 192.64896 
L 236.16 192.09984 
L 236.16 191.55072 
L 236.16 191.0016 
L 236.16 190.45248 
L 236.16 189.90336 
L 236.16 189.35424 
L 236.16 188.80512 
L 236.16 188.256 
L 236.16 187.70688 
L 236.16 187.15776 
L 236.16 186.60864 
L 236.16 186.05952 
L 236.16 185.5104 
L 236.16 184.96128 
L 236.16 184.41216 
L 236.16 183.86304 
L 236.16 183.31392 
L 236.16 182.7648 
L 236.16 182.21568 
L 236.16 181.66656 
L 236.16 181.11744 
L 236.16 180.56832 
L 236.16 180.0192 
L 236.16 179.47008 
L 236.16 178.92096 
L 236.16 178.37184 
L 236.16 177.82272 
L 236.16 177.2736 
L 236.16 176.72448 
L 236.16 176.17536 
L 236.16 175.62624 
L 236.16 175.07712 
z
" style="fill:#fabe28;"/>
   </g>
   <g id="patch_3">
    <path clip-path="url(#pb3c98a4fe9)" d="M 236.16 229.44 
L 239.607953 229.331644 
L 243.042299 229.007002 
L 246.449483 228.467358 
L 249.816059 227.714839 
L 253.128741 226.752415 
L 256.374455 225.583886 
L 259.540392 224.213863 
L 262.614058 222.647752 
L 265.583321 220.891735 
L 268.436464 218.952741 
L 271.162226 216.838423 
L 273.749851 214.557125 
L 276.189125 212.117851 
L 278.470423 209.530226 
L 280.584741 206.804464 
L 282.523735 203.951321 
L 284.279752 200.982058 
L 285.845863 197.908392 
L 287.215886 194.742455 
L 288.384415 191.496741 
L 289.346839 188.184059 
L 290.099358 184.817483 
L 290.639002 181.410299 
L 290.963644 177.975953 
L 291.072 174.528 
L 290.963644 171.080047 
L 290.639002 167.645701 
L 290.099358 164.238517 
L 289.346839 160.871941 
L 288.384415 157.559259 
L 287.215886 154.313545 
L 285.845863 151.147608 
L 284.279752 148.073942 
L 282.523735 145.104679 
L 280.584741 142.251536 
L 278.470423 139.525774 
L 276.189125 136.938149 
L 273.749851 134.498875 
L 271.162226 132.217577 
L 268.436464 130.103259 
L 265.583321 128.164265 
L 262.614058 126.408248 
L 259.540392 124.842137 
L 256.374455 123.472114 
L 253.128741 122.303585 
L 249.816059 121.341161 
L 246.449483 120.588642 
L 243.042299 120.048998 
L 239.607953 119.724356 
L 236.16 119.616 
L 232.712047 119.724356 
L 229.277701 120.048998 
L 225.870517 120.588642 
L 222.503941 121.341161 
L 219.191259 122.303585 
L 215.945545 123.472114 
L 212.779608 124.842137 
L 209.705942 126.408248 
L 206.736679 128.164265 
L 203.883536 130.103259 
L 201.157774 132.217577 
L 198.570149 134.498875 
L 196.130875 136.938149 
L 193.849577 139.525774 
L 191.735259 142.251536 
L 189.796265 145.104679 
L 188.040248 148.073942 
L 186.474137 151.147608 
L 185.104114 154.313545 
L 183.935585 157.559259 
L 182.973161 160.871941 
L 182.220642 164.238517 
L 181.680998 167.645701 
L 181.356356 171.080047 
L 181.248 174.528 
L 181.356356 177.975953 
L 181.680998 181.410299 
L 182.220642 184.817483 
L 182.973161 188.184059 
L 183.935585 191.496741 
L 185.104114 194.742455 
L 186.474137 197.908392 
L 188.040248 200.982058 
L 189.796265 203.951321 
L 191.735259 206.804464 
L 193.849577 209.530226 
L 196.130875 212.117851 
L 198.570149 214.557125 
L 201.157774 216.838423 
L 203.883536 218.952741 
L 206.736679 220.891735 
L 209.705942 222.647752 
L 212.779608 224.213863 
L 215.945545 225.583886 
L 219.191259 226.752415 
L 222.503941 227.714839 
L 225.870517 228.467358 
L 229.277701 229.007002 
L 232.712047 229.331644 
L 236.16 229.44 
L 236.16 229.47168 
L 236.16 229.50336 
L 236.16 229.53504 
L 236.16 229.56672 
L 236.16 229.5984 
L 236.16 229.63008 
L 236.16 229.66176 
L 236.16 229.69344 
L 236.16 229.72512 
L 236.16 229.7568 
L 236.16 229.78848 
L 236.16 229.82016 
L 236.16 229.85184 
L 236.16 229.88352 
L 236.16 229.9152 
L 236.16 229.94688 
L 236.16 229.97856 
L 236.16 230.01024 
L 236.16 230.04192 
L 236.16 230.0736 
L 236.16 230.10528 
L 236.16 230.13696 
L 236.16 230.16864 
L 236.16 230.20032 
L 236.16 230.232 
L 236.16 230.26368 
L 236.16 230.29536 
L 236.16 230.32704 
L 236.16 230.35872 
L 236.16 230.3904 
L 236.16 230.42208 
L 236.16 230.45376 
L 236.16 230.48544 
L 236.16 230.51712 
L 236.16 230.5488 
L 236.16 230.58048 
L 236.16 230.61216 
L 236.16 230.64384 
L 236.16 230.67552 
L 236.16 230.7072 
L 236.16 230.73888 
L 236.16 230.77056 
L 236.16 230.80224 
L 236.16 230.83392 
L 236.16 230.8656 
L 236.16 230.89728 
L 236.16 230.92896 
L 236.16 230.96064 
L 236.16 230.99232 
L 236.16 231.024 
L 236.16 231.05568 
L 236.16 231.08736 
L 236.16 231.11904 
L 236.16 231.15072 
L 236.16 231.1824 
L 236.16 231.21408 
L 236.16 231.24576 
L 236.16 231.27744 
L 236.16 231.30912 
L 236.16 231.3408 
L 236.16 231.37248 
L 236.16 231.40416 
L 236.16 231.43584 
L 236.16 231.46752 
L 236.16 231.4992 
L 236.16 231.53088 
L 236.16 231.56256 
L 236.16 231.59424 
L 236.16 231.62592 
L 236.16 231.6576 
L 236.16 231.68928 
L 236.16 231.72096 
L 236.16 231.75264 
L 236.16 231.78432 
L 236.16 231.816 
L 236.16 231.84768 
L 236.16 231.87936 
L 236.16 231.91104 
L 236.16 231.94272 
L 236.16 231.9744 
L 236.16 232.00608 
L 236.16 232.03776 
L 236.16 232.06944 
L 236.16 232.10112 
L 236.16 232.1328 
L 236.16 232.16448 
L 236.16 232.19616 
L 236.16 232.22784 
L 236.16 232.25952 
L 236.16 232.2912 
L 236.16 232.32288 
L 236.16 232.35456 
L 236.16 232.38624 
L 236.16 232.41792 
L 236.16 232.4496 
L 236.16 232.48128 
L 236.16 232.51296 
L 236.16 232.54464 
L 236.16 232.57632 
L 236.16 232.608 
L 232.513127 232.493392 
L 228.880646 232.150022 
L 225.276893 231.579244 
L 221.716091 230.78331 
L 218.212293 229.765362 
L 214.779326 228.529418 
L 211.430739 227.080355 
L 208.179747 225.423892 
L 205.03918 223.566566 
L 202.021433 221.515707 
L 199.138415 219.279409 
L 196.401504 216.866498 
L 193.821502 214.286496 
L 191.408591 211.549585 
L 189.172293 208.666567 
L 187.121434 205.64882 
L 185.264108 202.508253 
L 183.607645 199.257261 
L 182.158582 195.908674 
L 180.922638 192.475707 
L 179.90469 188.971909 
L 179.108756 185.411107 
L 178.537978 181.807354 
L 178.194608 178.174873 
L 178.08 174.528 
L 178.194608 170.881127 
L 178.537978 167.248646 
L 179.108756 163.644893 
L 179.90469 160.084091 
L 180.922638 156.580293 
L 182.158582 153.147326 
L 183.607645 149.798739 
L 185.264108 146.547747 
L 187.121434 143.40718 
L 189.172293 140.389433 
L 191.408591 137.506415 
L 193.821502 134.769504 
L 196.401504 132.189502 
L 199.138415 129.776591 
L 202.021433 127.540293 
L 205.03918 125.489434 
L 208.179747 123.632108 
L 211.430739 121.975645 
L 214.779326 120.526582 
L 218.212293 119.290638 
L 221.716091 118.27269 
L 225.276893 117.476756 
L 228.880646 116.905978 
L 232.513127 116.562608 
L 236.16 116.448 
L 239.806873 116.562608 
L 243.439354 116.905978 
L 247.043107 117.476756 
L 250.603909 118.27269 
L 254.107707 119.290638 
L 257.540674 120.526582 
L 260.889261 121.975645 
L 264.140253 123.632108 
L 267.28082 125.489434 
L 270.298567 127.540293 
L 273.181585 129.776591 
L 275.918496 132.189502 
L 278.498498 134.769504 
L 280.911409 137.506415 
L 283.147707 140.389433 
L 285.198566 143.40718 
L 287.055892 146.547747 
L 288.712355 149.798739 
L 290.161418 153.147326 
L 291.397362 156.580293 
L 292.41531 160.084091 
L 293.211244 163.644893 
L 293.782022 167.248646 
L 294.125392 170.881127 
L 294.24 174.528 
L 294.125392 178.174873 
L 293.782022 181.807354 
L 293.211244 185.411107 
L 292.41531 188.971909 
L 291.397362 192.475707 
L 290.161418 195.908674 
L 288.712355 199.257261 
L 287.055892 202.508253 
L 285.198566 205.64882 
L 283.147707 208.666567 
L 280.911409 211.549585 
L 278.498498 214.286496 
L 275.918496 216.866498 
L 273.181585 219.279409 
L 270.298567 221.515707 
L 267.28082 223.566566 
L 264.140253 225.423892 
L 260.889261 227.080355 
L 257.540674 228.529418 
L 254.107707 229.765362 
L 250.603909 230.78331 
L 247.043107 231.579244 
L 243.439354 232.150022 
L 239.806873 232.493392 
L 236.16 232.608 
L 236.16 232.57632 
L 236.16 232.54464 
L 236.16 232.51296 
L 236.16 232.48128 
L 236.16 232.4496 
L 236.16 232.41792 
L 236.16 232.38624 
L 236.16 232.35456 
L 236.16 232.32288 
L 236.16 232.2912 
L 236.16 232.25952 
L 236.16 232.22784 
L 236.16 232.19616 
L 236.16 232.16448 
L 236.16 232.1328 
L 236.16 232.10112 
L 236.16 232.06944 
L 236.16 232.03776 
L 236.16 232.00608 
L 236.16 231.9744 
L 236.16 231.94272 
L 236.16 231.91104 
L 236.16 231.87936 
L 236.16 231.84768 
L 236.16 231.816 
L 236.16 231.78432 
L 236.16 231.75264 
L 236.16 231.72096 
L 236.16 231.68928 
L 236.16 231.6576 
L 236.16 231.62592 
L 236.16 231.59424 
L 236.16 231.56256 
L 236.16 231.53088 
L 236.16 231.4992 
L 236.16 231.46752 
L 236.16 231.43584 
L 236.16 231.40416 
L 236.16 231.37248 
L 236.16 231.3408 
L 236.16 231.30912 
L 236.16 231.27744 
L 236.16 231.24576 
L 236.16 231.21408 
L 236.16 231.1824 
L 236.16 231.15072 
L 236.16 231.11904 
L 236.16 231.08736 
L 236.16 231.05568 
L 236.16 231.024 
L 236.16 230.99232 
L 236.16 230.96064 
L 236.16 230.92896 
L 236.16 230.89728 
L 236.16 230.8656 
L 236.16 230.83392 
L 236.16 230.80224 
L 236.16 230.77056 
L 236.16 230.73888 
L 236.16 230.7072 
L 236.16 230.67552 
L 236.16 230.64384 
L 236.16 230.61216 
L 236.16 230.58048 
L 236.16 230.5488 
L 236.16 230.51712 
L 236.16 230.48544 
L 236.16 230.45376 
L 236.16 230.42208 
L 236.16 230.3904 
L 236.16 230.35872 
L 236.16 230.32704 
L 236.16 230.29536 
L 236.16 230.26368 
L 236.16 230.232 
L 236.16 230.20032 
L 236.16 230.16864 
L 236.16 230.13696 
L 236.16 230.10528 
L 236.16 230.0736 
L 236.16 230.04192 
L 236.16 230.01024 
L 236.16 229.97856 
L 236.16 229.94688 
L 236.16 229.9152 
L 236.16 229.88352 
L 236.16 229.85184 
L 236.16 229.82016 
L 236.16 229.78848 
L 236.16 229.7568 
L 236.16 229.72512 
L 236.16 229.69344 
L 236.16 229.66176 
L 236.16 229.63008 
L 236.16 229.5984 
L 236.16 229.56672 
L 236.16 229.53504 
L 236.16 229.50336 
L 236.16 229.47168 
z
" style="fill:#ff003c;"/>
   </g>
   <g id="patch_4">
    <path clip-path="url(#pb3c98a4fe9)" d="M 236.16 232.608 
L 239.806873 232.493392 
L 243.439354 232.150022 
L 247.043107 231.579244 
L 250.603909 230.78331 
L 254.107707 229.765362 
L 257.540674 228.529418 
L 260.889261 227.080355 
L 264.140253 225.423892 
L 267.28082 223.566566 
L 270.298567 221.515707 
L 273.181585 219.279409 
L 275.918496 216.866498 
L 278.498498 214.286496 
L 280.911409 211.549585 
L 283.147707 208.666567 
L 285.198566 205.64882 
L 287.055892 202.508253 
L 288.712355 199.257261 
L 290.161418 195.908674 
L 291.397362 192.475707 
L 292.41531 188.971909 
L 293.211244 185.411107 
L 293.782022 181.807354 
L 294.125392 178.174873 
L 294.24 174.528 
L 294.125392 170.881127 
L 293.782022 167.248646 
L 293.211244 163.644893 
L 292.41531 160.084091 
L 291.397362 156.580293 
L 290.161418 153.147326 
L 288.712355 149.798739 
L 287.055892 146.547747 
L 285.198566 143.40718 
L 283.147707 140.389433 
L 280.911409 137.506415 
L 278.498498 134.769504 
L 275.918496 132.189502 
L 273.181585 129.776591 
L 270.298567 127.540293 
L 267.28082 125.489434 
L 264.140253 123.632108 
L 260.889261 121.975645 
L 257.540674 120.526582 
L 254.107707 119.290638 
L 250.603909 118.27269 
L 247.043107 117.476756 
L 243.439354 116.905978 
L 239.806873 116.562608 
L 236.16 116.448 
L 232.513127 116.562608 
L 228.880646 116.905978 
L 225.276893 117.476756 
L 221.716091 118.27269 
L 218.212293 119.290638 
L 214.779326 120.526582 
L 211.430739 121.975645 
L 208.179747 123.632108 
L 205.03918 125.489434 
L 202.021433 127.540293 
L 199.138415 129.776591 
L 196.401504 132.189502 
L 193.821502 134.769504 
L 191.408591 137.506415 
L 189.172293 140.389433 
L 187.121434 143.40718 
L 185.264108 146.547747 
L 183.607645 149.798739 
L 182.158582 153.147326 
L 180.922638 156.580293 
L 179.90469 160.084091 
L 179.108756 163.644893 
L 178.537978 167.248646 
L 178.194608 170.881127 
L 178.08 174.528 
L 178.194608 178.174873 
L 178.537978 181.807354 
L 179.108756 185.411107 
L 179.90469 188.971909 
L 180.922638 192.475707 
L 182.158582 195.908674 
L 183.607645 199.257261 
L 185.264108 202.508253 
L 187.121434 205.64882 
L 189.172293 208.666567 
L 191.408591 211.549585 
L 193.821502 214.286496 
L 196.401504 216.866498 
L 199.138415 219.279409 
L 202.021433 221.515707 
L 205.03918 223.566566 
L 208.179747 225.423892 
L 211.430739 227.080355 
L 214.779326 228.529418 
L 218.212293 229.765362 
L 221.716091 230.78331 
L 225.276893 231.579244 
L 228.880646 232.150022 
L 232.513127 232.493392 
L 236.16 232.608 
L 236.16 233.2944 
L 236.16 233.9808 
L 236.16 234.6672 
L 236.16 235.3536 
L 236.16 236.04 
L 236.16 236.7264 
L 236.16 237.4128 
L 236.16 238.0992 
L 236.16 238.7856 
L 236.16 239.472 
L 236.16 240.1584 
L 236.16 240.8448 
L 236.16 241.5312 
L 236.16 242.2176 
L 236.16 242.904 
L 236.16 243.5904 
L 236.16 244.2768 
L 236.16 244.9632 
L 236.16 245.6496 
L 236.16 246.336 
L 236.16 247.0224 
L 236.16 247.7088 
L 236.16 248.3952 
L 236.16 249.0816 
L 236.16 249.768 
L 236.16 250.4544 
L 236.16 251.1408 
L 236.16 251.8272 
L 236.16 252.5136 
L 236.16 253.2 
L 236.16 253.8864 
L 236.16 254.5728 
L 236.16 255.2592 
L 236.16 255.9456 
L 236.16 256.632 
L 236.16 257.3184 
L 236.16 258.0048 
L 236.16 258.6912 
L 236.16 259.3776 
L 236.16 260.064 
L 236.16 260.7504 
L 236.16 261.4368 
L 236.16 262.1232 
L 236.16 262.8096 
L 236.16 263.496 
L 236.16 264.1824 
L 236.16 264.8688 
L 236.16 265.5552 
L 236.16 266.2416 
L 236.16 266.928 
L 236.16 267.6144 
L 236.16 268.3008 
L 236.16 268.9872 
L 236.16 269.6736 
L 236.16 270.36 
L 236.16 271.0464 
L 236.16 271.7328 
L 236.16 272.4192 
L 236.16 273.1056 
L 236.16 273.792 
L 236.16 274.4784 
L 236.16 275.1648 
L 236.16 275.8512 
L 236.16 276.5376 
L 236.16 277.224 
L 236.16 277.9104 
L 236.16 278.5968 
L 236.16 279.2832 
L 236.16 279.9696 
L 236.16 280.656 
L 236.16 281.3424 
L 236.16 282.0288 
L 236.16 282.7152 
L 236.16 283.4016 
L 236.16 284.088 
L 236.16 284.7744 
L 236.16 285.4608 
L 236.16 286.1472 
L 236.16 286.8336 
L 236.16 287.52 
L 236.16 288.2064 
L 236.16 288.8928 
L 236.16 289.5792 
L 236.16 290.2656 
L 236.16 290.952 
L 236.16 291.6384 
L 236.16 292.3248 
L 236.16 293.0112 
L 236.16 293.6976 
L 236.16 294.384 
L 236.16 295.0704 
L 236.16 295.7568 
L 236.16 296.4432 
L 236.16 297.1296 
L 236.16 297.816 
L 236.16 298.5024 
L 236.16 299.1888 
L 236.16 299.8752 
L 236.16 300.5616 
L 236.16 301.248 
L 228.203185 300.997947 
L 220.277773 300.248775 
L 212.41504 299.00344 
L 204.646017 297.266858 
L 197.001366 295.045882 
L 189.511257 292.349276 
L 182.205248 289.187684 
L 175.112174 285.573582 
L 168.260029 281.521235 
L 161.675853 277.046634 
L 155.385632 272.167438 
L 149.414191 266.902904 
L 143.785096 261.273809 
L 138.520562 255.302368 
L 133.641366 249.012147 
L 129.166765 242.427971 
L 125.114418 235.575826 
L 121.500316 228.482752 
L 118.338724 221.176743 
L 115.642118 213.686634 
L 113.421142 206.041983 
L 111.68456 198.27296 
L 110.439225 190.410227 
L 109.690053 182.484815 
L 109.44 174.528 
L 109.690053 166.571185 
L 110.439225 158.645773 
L 111.68456 150.78304 
L 113.421142 143.014017 
L 115.642118 135.369366 
L 118.338724 127.879257 
L 121.500316 120.573248 
L 125.114418 113.480174 
L 129.166765 106.628029 
L 133.641366 100.043853 
L 138.520562 93.753632 
L 143.785096 87.782191 
L 149.414191 82.153096 
L 155.385632 76.888562 
L 161.675853 72.009366 
L 168.260029 67.534765 
L 175.112174 63.482418 
L 182.205248 59.868316 
L 189.511257 56.706724 
L 197.001366 54.010118 
L 204.646017 51.789142 
L 212.41504 50.05256 
L 220.277773 48.807225 
L 228.203185 48.058053 
L 236.16 47.808 
L 244.116815 48.058053 
L 252.042227 48.807225 
L 259.90496 50.05256 
L 267.673983 51.789142 
L 275.318634 54.010118 
L 282.808743 56.706724 
L 290.114752 59.868316 
L 297.207826 63.482418 
L 304.059971 67.534765 
L 310.644147 72.009366 
L 316.934368 76.888562 
L 322.905809 82.153096 
L 328.534904 87.782191 
L 333.799438 93.753632 
L 338.678634 100.043853 
L 343.153235 106.628029 
L 347.205582 113.480174 
L 350.819684 120.573248 
L 353.981276 127.879257 
L 356.677882 135.369366 
L 358.898858 143.014017 
L 360.63544 150.78304 
L 361.880775 158.645773 
L 362.629947 166.571185 
L 362.88 174.528 
L 362.629947 182.484815 
L 361.880775 190.410227 
L 360.63544 198.27296 
L 358.898858 206.041983 
L 356.677882 213.686634 
L 353.981276 221.176743 
L 350.819684 228.482752 
L 347.205582 235.575826 
L 343.153235 242.427971 
L 338.678634 249.012147 
L 333.799438 255.302368 
L 328.534904 261.273809 
L 322.905809 266.902904 
L 316.934368 272.167438 
L 310.644147 277.046634 
L 304.059971 281.521235 
L 297.207826 285.573582 
L 290.114752 289.187684 
L 282.808743 292.349276 
L 275.318634 295.045882 
L 267.673983 297.266858 
L 259.90496 299.00344 
L 252.042227 300.248775 
L 244.116815 300.997947 
L 236.16 301.248 
L 236.16 300.5616 
L 236.16 299.8752 
L 236.16 299.1888 
L 236.16 298.5024 
L 236.16 297.816 
L 236.16 297.1296 
L 236.16 296.4432 
L 236.16 295.7568 
L 236.16 295.0704 
L 236.16 294.384 
L 236.16 293.6976 
L 236.16 293.0112 
L 236.16 292.3248 
L 236.16 291.6384 
L 236.16 290.952 
L 236.16 290.2656 
L 236.16 289.5792 
L 236.16 288.8928 
L 236.16 288.2064 
L 236.16 287.52 
L 236.16 286.8336 
L 236.16 286.1472 
L 236.16 285.4608 
L 236.16 284.7744 
L 236.16 284.088 
L 236.16 283.4016 
L 236.16 282.7152 
L 236.16 282.0288 
L 236.16 281.3424 
L 236.16 280.656 
L 236.16 279.9696 
L 236.16 279.2832 
L 236.16 278.5968 
L 236.16 277.9104 
L 236.16 277.224 
L 236.16 276.5376 
L 236.16 275.8512 
L 236.16 275.1648 
L 236.16 274.4784 
L 236.16 273.792 
L 236.16 273.1056 
L 236.16 272.4192 
L 236.16 271.7328 
L 236.16 271.0464 
L 236.16 270.36 
L 236.16 269.6736 
L 236.16 268.9872 
L 236.16 268.3008 
L 236.16 267.6144 
L 236.16 266.928 
L 236.16 266.2416 
L 236.16 265.5552 
L 236.16 264.8688 
L 236.16 264.1824 
L 236.16 263.496 
L 236.16 262.8096 
L 236.16 262.1232 
L 236.16 261.4368 
L 236.16 260.7504 
L 236.16 260.064 
L 236.16 259.3776 
L 236.16 258.6912 
L 236.16 258.0048 
L 236.16 257.3184 
L 236.16 256.632 
L 236.16 255.9456 
L 236.16 255.2592 
L 236.16 254.5728 
L 236.16 253.8864 
L 236.16 253.2 
L 236.16 252.5136 
L 236.16 251.8272 
L 236.16 251.1408 
L 236.16 250.4544 
L 236.16 249.768 
L 236.16 249.0816 
L 236.16 248.3952 
L 236.16 247.7088 
L 236.16 247.0224 
L 236.16 246.336 
L 236.16 245.6496 
L 236.16 244.9632 
L 236.16 244.2768 
L 236.16 243.5904 
L 236.16 242.904 
L 236.16 242.2176 
L 236.16 241.5312 
L 236.16 240.8448 
L 236.16 240.1584 
L 236.16 239.472 
L 236.16 238.7856 
L 236.16 238.0992 
L 236.16 237.4128 
L 236.16 236.7264 
L 236.16 236.04 
L 236.16 235.3536 
L 236.16 234.6672 
L 236.16 233.9808 
L 236.16 233.2944 
z
" style="fill:#88c100;"/>
   </g>
  </g>
 </g>
 <defs>
  <clipPath id="pb3c98a4fe9">
   <path d="M 369.216 174.528 
C 369.216 157.055246 365.774248 139.752393 359.087715 123.609673 
C 352.401182 107.466954 342.599903 92.798303 330.2448 80.4432 
C 317.889697 68.088097 303.221046 58.286818 287.078327 51.600285 
C 270.935607 44.913752 253.632754 41.472 236.16 41.472 
C 218.687246 41.472 201.384393 44.913752 185.241673 51.600285 
C 169.098954 58.286818 154.430303 68.088097 142.0752 80.4432 
C 129.720097 92.798303 119.918818 107.466954 113.232285 123.609673 
C 106.545752 139.752393 103.104 157.055246 103.104 174.528 
C 103.104 192.000754 106.545752 209.303607 113.232285 225.446327 
C 119.918818 241.589046 129.720097 256.257697 142.0752 268.6128 
C 154.430303 280.967903 169.098954 290.769182 185.241673 297.455715 
C 201.384393 304.142248 218.687246 307.584 236.16 307.584 
C 253.632754 307.584 270.935607 304.142248 287.078327 297.455715 
C 303.221046 290.769182 317.889697 280.967903 330.2448 268.6128 
C 342.599903 256.257697 352.401182 241.589046 359.087715 225.446327 
C 365.774248 209.303607 369.216 192.000754 369.216 174.528 
M 236.16 174.528 
C 236.16 174.528 236.16 174.528 236.16 174.528 
C 236.16 174.528 236.16 174.528 236.16 174.528 
C 236.16 174.528 236.16 174.528 236.16 174.528 
C 236.16 174.528 236.16 174.528 236.16 174.528 
C 236.16 174.528 236.16 174.528 236.16 174.528 
C 236.16 174.528 236.16 174.528 236.16 174.528 
C 236.16 174.528 236.16 174.528 236.16 174.528 
C 236.16 174.528 236.16 174.528 236.16 174.528 
C 236.16 174.528 236.16 174.528 236.16 174.528 
C 236.16 174.528 236.16 174.528 236.16 174.528 
C 236.16 174.528 236.16 174.528 236.16 174.528 
C 236.16 174.528 236.16 174.528 236.16 174.528 
C 236.16 174.528 236.16 174.528 236.16 174.528 
C 236.16 174.528 236.16 174.528 236.16 174.528 
C 236.16 174.528 236.16 174.528 236.16 174.528 
C 236.16 174.528 236.16 174.528 236.16 174.528 
M 369.216 174.528 
z
"/>
  </clipPath>
 </defs>
</svg>
