<?xml version="1.0" encoding="utf-8" standalone="no"?>
<!DOCTYPE svg PUBLIC "-//W3C//DTD SVG 1.1//EN"
  "http://www.w3.org/Graphics/SVG/1.1/DTD/svg11.dtd">
<!-- Created with matplotlib (https://matplotlib.org/) -->
<svg height="345.6pt" version="1.1" viewBox="0 0 460.8 345.6" width="460.8pt" xmlns="http://www.w3.org/2000/svg" xmlns:xlink="http://www.w3.org/1999/xlink">
 <defs>
  <style type="text/css">
*{stroke-linecap:butt;stroke-linejoin:round;}
  </style>
 </defs>
 <g id="figure_1">
  <g id="patch_1">
   <path d="M 0 345.6 
L 460.8 345.6 
L 460.8 0 
L 0 0 
z
" style="fill:none;"/>
  </g>
  <g id="axes_1">
   <g id="patch_2">
    <path clip-path="url(#pbda600d325)" d="M 236.16 174.528 
L 236.16 174.528 
L 236.16 174.528 
L 236.16 174.528 
L 236.16 174.528 
L 236.16 174.528 
L 236.16 174.528 
L 236.16 174.528 
L 236.16 174.528 
L 236.16 174.528 
L 236.16 174.528 
L 236.16 174.528 
L 236.16 174.528 
L 236.16 174.528 
L 236.16 174.528 
L 236.16 174.528 
L 236.16 174.528 
L 236.16 174.528 
L 236.16 174.528 
L 236.16 174.528 
L 236.16 174.528 
L 236.16 174.528 
L 236.16 174.528 
L 236.16 174.528 
L 236.16 174.528 
L 236.16 174.528 
L 236.16 174.528 
L 236.16 174.528 
L 236.16 174.528 
L 236.16 174.528 
L 236.16 174.528 
L 236.16 174.528 
L 236.16 174.528 
L 236.16 174.528 
L 236.16 174.528 
L 236.16 174.528 
L 236.16 174.528 
L 236.16 174.528 
L 236.16 174.528 
L 236.16 174.528 
L 236.16 174.528 
L 236.16 174.528 
L 236.16 174.528 
L 236.16 174.528 
L 236.16 174.528 
L 236.16 174.528 
L 236.16 174.528 
L 236.16 174.528 
L 236.16 174.528 
L 236.16 174.528 
L 236.16 174.528 
L 236.16 174.528 
L 236.16 174.528 
L 236.16 174.528 
L 236.16 174.528 
L 236.16 174.528 
L 236.16 174.528 
L 236.16 174.528 
L 236.16 174.528 
L 236.16 174.528 
L 236.16 174.528 
L 236.16 174.528 
L 236.16 174.528 
L 236.16 174.528 
L 236.16 174.528 
L 236.16 174.528 
L 236.16 174.528 
L 236.16 174.528 
L 236.16 174.528 
L 236.16 174.528 
L 236.16 174.528 
L 236.16 174.528 
L 236.16 174.528 
L 236.16 174.528 
L 236.16 174.528 
L 236.16 174.528 
L 236.16 174.528 
L 236.16 174.528 
L 236.16 174.528 
L 236.16 174.528 
L 236.16 174.528 
L 236.16 174.528 
L 236.16 174.528 
L 236.16 174.528 
L 236.16 174.528 
L 236.16 174.528 
L 236.16 174.528 
L 236.16 174.528 
L 236.16 174.528 
L 236.16 174.528 
L 236.16 174.528 
L 236.16 174.528 
L 236.16 174.528 
L 236.16 174.528 
L 236.16 174.528 
L 236.16 174.528 
L 236.16 174.528 
L 236.16 174.528 
L 236.16 174.528 
L 236.16 174.528 
L 236.16 174.528 
L 236.16 175.319015 
L 236.16 176.11003 
L 236.16 176.901046 
L 236.16 177.692061 
L 236.16 178.483076 
L 236.16 179.274091 
L 236.16 180.065106 
L 236.16 180.856121 
L 236.16 181.647137 
L 236.16 182.438152 
L 236.16 183.229167 
L 236.16 184.020182 
L 236.16 184.811197 
L 236.16 185.602212 
L 236.16 186.393228 
L 236.16 187.184243 
L 236.16 187.975258 
L 236.16 188.766273 
L 236.16 189.557288 
L 236.16 190.348303 
L 236.16 191.139319 
L 236.16 191.930334 
L 236.16 192.721349 
L 236.16 193.512364 
L 236.16 194.303379 
L 236.16 195.094394 
L 236.16 195.88541 
L 236.16 196.676425 
L 236.16 197.46744 
L 236.16 198.258455 
L 236.16 199.04947 
L 236.16 199.840485 
L 236.16 200.631501 
L 236.16 201.422516 
L 236.16 202.213531 
L 236.16 203.004546 
L 236.16 203.795561 
L 236.16 204.586576 
L 236.16 205.377592 
L 236.16 206.168607 
L 236.16 206.959622 
L 236.16 207.750637 
L 236.16 208.541652 
L 236.16 209.332667 
L 236.16 210.123683 
L 236.16 210.914698 
L 236.16 211.705713 
L 236.16 212.496728 
L 236.16 213.287743 
L 236.16 214.078759 
L 236.16 214.869774 
L 236.16 215.660789 
L 236.16 216.451804 
L 236.16 217.242819 
L 236.16 218.033834 
L 236.16 218.82485 
L 236.16 219.615865 
L 236.16 220.40688 
L 236.16 221.197895 
L 236.16 221.98891 
L 236.16 222.779925 
L 236.16 223.570941 
L 236.16 224.361956 
L 236.16 225.152971 
L 236.16 225.943986 
L 236.16 226.735001 
L 236.16 227.526016 
L 236.16 228.317032 
L 236.16 229.108047 
L 236.16 229.899062 
L 236.16 230.690077 
L 236.16 231.481092 
L 236.16 232.272107 
L 236.16 233.063123 
L 236.16 233.854138 
L 236.16 234.645153 
L 236.16 235.436168 
L 236.16 236.227183 
L 236.16 237.018198 
L 236.16 237.809214 
L 236.16 238.600229 
L 236.16 239.391244 
L 236.16 240.182259 
L 236.16 240.973274 
L 236.16 241.764289 
L 236.16 242.555305 
L 236.16 243.34632 
L 236.16 244.137335 
L 236.16 244.92835 
L 236.16 245.719365 
L 236.16 246.510381 
L 236.16 247.301396 
L 236.16 248.092411 
L 236.16 248.883426 
L 236.16 249.674441 
L 236.16 250.465456 
L 236.16 251.256472 
L 236.16 252.047487 
L 236.16 252.838502 
L 236.16 253.629517 
L 231.193175 253.473428 
L 226.245951 253.005778 
L 221.337854 252.228412 
L 216.488253 251.144397 
L 211.716287 249.758013 
L 207.040789 248.074731 
L 202.480212 246.101193 
L 198.052554 243.845188 
L 193.775288 241.31562 
L 189.665295 238.522472 
L 185.738795 235.476766 
L 182.011285 232.190524 
L 178.497476 228.676715 
L 175.211234 224.949205 
L 172.165528 221.022705 
L 169.37238 216.912712 
L 166.842812 212.635446 
L 164.586807 208.207788 
L 162.613269 203.647211 
L 160.929987 198.971713 
L 159.543603 194.199747 
L 158.459588 189.350146 
L 157.682222 184.442049 
L 157.214572 179.494825 
L 157.058483 174.528 
L 157.214572 169.561175 
L 157.682222 164.613951 
L 158.459588 159.705854 
L 159.543603 154.856253 
L 160.929987 150.084287 
L 162.613269 145.408789 
L 164.586807 140.848212 
L 166.842812 136.420554 
L 169.37238 132.143288 
L 172.165528 128.033295 
L 175.211234 124.106795 
L 178.497476 120.379285 
L 182.011285 116.865476 
L 185.738795 113.579234 
L 189.665295 110.533528 
L 193.775288 107.74038 
L 198.052554 105.210812 
L 202.480212 102.954807 
L 207.040789 100.981269 
L 211.716287 99.297987 
L 216.488253 97.911603 
L 221.337854 96.827588 
L 226.245951 96.050222 
L 231.193175 95.582572 
L 236.16 95.426483 
L 241.126825 95.582572 
L 246.074049 96.050222 
L 250.982146 96.827588 
L 255.831747 97.911603 
L 260.603713 99.297987 
L 265.279211 100.981269 
L 269.839788 102.954807 
L 274.267446 105.210812 
L 278.544712 107.74038 
L 282.654705 110.533528 
L 286.581205 113.579234 
L 290.308715 116.865476 
L 293.822524 120.379285 
L 297.108766 124.106795 
L 300.154472 128.033295 
L 302.94762 132.143288 
L 305.477188 136.420554 
L 307.733193 140.848212 
L 309.706731 145.408789 
L 311.390013 150.084287 
L 312.776397 154.856253 
L 313.860412 159.705854 
L 314.637778 164.613951 
L 315.105428 169.561175 
L 315.261517 174.528 
L 315.105428 179.494825 
L 314.637778 184.442049 
L 313.860412 189.350146 
L 312.776397 194.199747 
L 311.390013 198.971713 
L 309.706731 203.647211 
L 307.733193 208.207788 
L 305.477188 212.635446 
L 302.94762 216.912712 
L 300.154472 221.022705 
L 297.108766 224.949205 
L 293.822524 228.676715 
L 290.308715 232.190524 
L 286.581205 235.476766 
L 282.654705 238.522472 
L 278.544712 241.31562 
L 274.267446 243.845188 
L 269.839788 246.101193 
L 265.279211 248.074731 
L 260.603713 249.758013 
L 255.831747 251.144397 
L 250.982146 252.228412 
L 246.074049 253.005778 
L 241.126825 253.473428 
L 236.16 253.629517 
L 236.16 252.838502 
L 236.16 252.047487 
L 236.16 251.256472 
L 236.16 250.465456 
L 236.16 249.674441 
L 236.16 248.883426 
L 236.16 248.092411 
L 236.16 247.301396 
L 236.16 246.510381 
L 236.16 245.719365 
L 236.16 244.92835 
L 236.16 244.137335 
L 236.16 243.34632 
L 236.16 242.555305 
L 236.16 241.764289 
L 236.16 240.973274 
L 236.16 240.182259 
L 236.16 239.391244 
L 236.16 238.600229 
L 236.16 237.809214 
L 236.16 237.018198 
L 236.16 236.227183 
L 236.16 235.436168 
L 236.16 234.645153 
L 236.16 233.854138 
L 236.16 233.063123 
L 236.16 232.272107 
L 236.16 231.481092 
L 236.16 230.690077 
L 236.16 229.899062 
L 236.16 229.108047 
L 236.16 228.317032 
L 236.16 227.526016 
L 236.16 226.735001 
L 236.16 225.943986 
L 236.16 225.152971 
L 236.16 224.361956 
L 236.16 223.570941 
L 236.16 222.779925 
L 236.16 221.98891 
L 236.16 221.197895 
L 236.16 220.40688 
L 236.16 219.615865 
L 236.16 218.82485 
L 236.16 218.033834 
L 236.16 217.242819 
L 236.16 216.451804 
L 236.16 215.660789 
L 236.16 214.869774 
L 236.16 214.078759 
L 236.16 213.287743 
L 236.16 212.496728 
L 236.16 211.705713 
L 236.16 210.914698 
L 236.16 210.123683 
L 236.16 209.332667 
L 236.16 208.541652 
L 236.16 207.750637 
L 236.16 206.959622 
L 236.16 206.168607 
L 236.16 205.377592 
L 236.16 204.586576 
L 236.16 203.795561 
L 236.16 203.004546 
L 236.16 202.213531 
L 236.16 201.422516 
L 236.16 200.631501 
L 236.16 199.840485 
L 236.16 199.04947 
L 236.16 198.258455 
L 236.16 197.46744 
L 236.16 196.676425 
L 236.16 195.88541 
L 236.16 195.094394 
L 236.16 194.303379 
L 236.16 193.512364 
L 236.16 192.721349 
L 236.16 191.930334 
L 236.16 191.139319 
L 236.16 190.348303 
L 236.16 189.557288 
L 236.16 188.766273 
L 236.16 187.975258 
L 236.16 187.184243 
L 236.16 186.393228 
L 236.16 185.602212 
L 236.16 184.811197 
L 236.16 184.020182 
L 236.16 183.229167 
L 236.16 182.438152 
L 236.16 181.647137 
L 236.16 180.856121 
L 236.16 180.065106 
L 236.16 179.274091 
L 236.16 178.483076 
L 236.16 177.692061 
L 236.16 176.901046 
L 236.16 176.11003 
L 236.16 175.319015 
z
" style="fill:#fabe28;"/>
   </g>
   <g id="patch_3">
    <path clip-path="url(#pbda600d325)" d="M 236.16 253.629517 
L 241.126825 253.473428 
L 246.074049 253.005778 
L 250.982146 252.228412 
L 255.831747 251.144397 
L 260.603713 249.758013 
L 265.279211 248.074731 
L 269.839788 246.101193 
L 274.267446 243.845188 
L 278.544712 241.31562 
L 282.654705 238.522472 
L 286.581205 235.476766 
L 290.308715 232.190524 
L 293.822524 228.676715 
L 297.108766 224.949205 
L 300.154472 221.022705 
L 302.94762 216.912712 
L 305.477188 212.635446 
L 307.733193 208.207788 
L 309.706731 203.647211 
L 311.390013 198.971713 
L 312.776397 194.199747 
L 313.860412 189.350146 
L 314.637778 184.442049 
L 315.105428 179.494825 
L 315.261517 174.528 
L 315.105428 169.561175 
L 314.637778 164.613951 
L 313.860412 159.705854 
L 312.776397 154.856253 
L 311.390013 150.084287 
L 309.706731 145.408789 
L 307.733193 140.848212 
L 305.477188 136.420554 
L 302.94762 132.143288 
L 300.154472 128.033295 
L 297.108766 124.106795 
L 293.822524 120.379285 
L 290.308715 116.865476 
L 286.581205 113.579234 
L 282.654705 110.533528 
L 278.544712 107.74038 
L 274.267446 105.210812 
L 269.839788 102.954807 
L 265.279211 100.981269 
L 260.603713 99.297987 
L 255.831747 97.911603 
L 250.982146 96.827588 
L 246.074049 96.050222 
L 241.126825 95.582572 
L 236.16 95.426483 
L 231.193175 95.582572 
L 226.245951 96.050222 
L 221.337854 96.827588 
L 216.488253 97.911603 
L 211.716287 99.297987 
L 207.040789 100.981269 
L 202.480212 102.954807 
L 198.052554 105.210812 
L 193.775288 107.74038 
L 189.665295 110.533528 
L 185.738795 113.579234 
L 182.011285 116.865476 
L 178.497476 120.379285 
L 175.211234 124.106795 
L 172.165528 128.033295 
L 169.37238 132.143288 
L 166.842812 136.420554 
L 164.586807 140.848212 
L 162.613269 145.408789 
L 160.929987 150.084287 
L 159.543603 154.856253 
L 158.459588 159.705854 
L 157.682222 164.613951 
L 157.214572 169.561175 
L 157.058483 174.528 
L 157.214572 179.494825 
L 157.682222 184.442049 
L 158.459588 189.350146 
L 159.543603 194.199747 
L 160.929987 198.971713 
L 162.613269 203.647211 
L 164.586807 208.207788 
L 166.842812 212.635446 
L 169.37238 216.912712 
L 172.165528 221.022705 
L 175.211234 224.949205 
L 178.497476 228.676715 
L 182.011285 232.190524 
L 185.738795 235.476766 
L 189.665295 238.522472 
L 193.775288 241.31562 
L 198.052554 243.845188 
L 202.480212 246.101193 
L 207.040789 248.074731 
L 211.716287 249.758013 
L 216.488253 251.144397 
L 221.337854 252.228412 
L 226.245951 253.005778 
L 231.193175 253.473428 
L 236.16 253.629517 
L 236.16 253.675371 
L 236.16 253.721224 
L 236.16 253.767078 
L 236.16 253.812932 
L 236.16 253.858785 
L 236.16 253.904639 
L 236.16 253.950493 
L 236.16 253.996346 
L 236.16 254.0422 
L 236.16 254.088054 
L 236.16 254.133907 
L 236.16 254.179761 
L 236.16 254.225615 
L 236.16 254.271468 
L 236.16 254.317322 
L 236.16 254.363176 
L 236.16 254.409029 
L 236.16 254.454883 
L 236.16 254.500737 
L 236.16 254.54659 
L 236.16 254.592444 
L 236.16 254.638298 
L 236.16 254.684151 
L 236.16 254.730005 
L 236.16 254.775859 
L 236.16 254.821712 
L 236.16 254.867566 
L 236.16 254.91342 
L 236.16 254.959273 
L 236.16 255.005127 
L 236.16 255.050981 
L 236.16 255.096834 
L 236.16 255.142688 
L 236.16 255.188542 
L 236.16 255.234395 
L 236.16 255.280249 
L 236.16 255.326103 
L 236.16 255.371956 
L 236.16 255.41781 
L 236.16 255.463664 
L 236.16 255.509517 
L 236.16 255.555371 
L 236.16 255.601225 
L 236.16 255.647078 
L 236.16 255.692932 
L 236.16 255.738786 
L 236.16 255.784639 
L 236.16 255.830493 
L 236.16 255.876347 
L 236.16 255.9222 
L 236.16 255.968054 
L 236.16 256.013908 
L 236.16 256.059761 
L 236.16 256.105615 
L 236.16 256.151469 
L 236.16 256.197322 
L 236.16 256.243176 
L 236.16 256.28903 
L 236.16 256.334883 
L 236.16 256.380737 
L 236.16 256.426591 
L 236.16 256.472444 
L 236.16 256.518298 
L 236.16 256.564152 
L 236.16 256.610005 
L 236.16 256.655859 
L 236.16 256.701713 
L 236.16 256.747566 
L 236.16 256.79342 
L 236.16 256.839274 
L 236.16 256.885127 
L 236.16 256.930981 
L 236.16 256.976835 
L 236.16 257.022688 
L 236.16 257.068542 
L 236.16 257.114396 
L 236.16 257.160249 
L 236.16 257.206103 
L 236.16 257.251957 
L 236.16 257.29781 
L 236.16 257.343664 
L 236.16 257.389518 
L 236.16 257.435371 
L 236.16 257.481225 
L 236.16 257.527079 
L 236.16 257.572933 
L 236.16 257.618786 
L 236.16 257.66464 
L 236.16 257.710494 
L 236.16 257.756347 
L 236.16 257.802201 
L 236.16 257.848055 
L 236.16 257.893908 
L 236.16 257.939762 
L 236.16 257.985616 
L 236.16 258.031469 
L 236.16 258.077323 
L 236.16 258.123177 
L 236.16 258.16903 
L 236.16 258.214884 
L 230.905257 258.049747 
L 225.671252 257.554988 
L 220.478642 256.732559 
L 215.347918 255.585707 
L 210.299331 254.118956 
L 205.352803 252.338097 
L 200.527858 250.250156 
L 195.843536 247.863375 
L 191.318325 245.187173 
L 186.970084 242.232111 
L 182.815973 239.009852 
L 178.872386 235.533113 
L 175.154887 231.815614 
L 171.678148 227.872027 
L 168.455889 223.717916 
L 165.500827 219.369675 
L 162.824625 214.844464 
L 160.437844 210.160142 
L 158.349903 205.335197 
L 156.569044 200.388669 
L 155.102293 195.340082 
L 153.955441 190.209358 
L 153.133012 185.016748 
L 152.638253 179.782743 
L 152.473116 174.528 
L 152.638253 169.273257 
L 153.133012 164.039252 
L 153.955441 158.846642 
L 155.102293 153.715918 
L 156.569044 148.667331 
L 158.349903 143.720803 
L 160.437844 138.895858 
L 162.824625 134.211536 
L 165.500827 129.686325 
L 168.455889 125.338084 
L 171.678148 121.183973 
L 175.154887 117.240386 
L 178.872386 113.522887 
L 182.815973 110.046148 
L 186.970084 106.823889 
L 191.318325 103.868827 
L 195.843536 101.192625 
L 200.527858 98.805844 
L 205.352803 96.717903 
L 210.299331 94.937044 
L 215.347918 93.470293 
L 220.478642 92.323441 
L 225.671252 91.501012 
L 230.905257 91.006253 
L 236.16 90.841116 
L 241.414743 91.006253 
L 246.648748 91.501012 
L 251.841358 92.323441 
L 256.972082 93.470293 
L 262.020669 94.937044 
L 266.967197 96.717903 
L 271.792142 98.805844 
L 276.476464 101.192625 
L 281.001675 103.868827 
L 285.349916 106.823889 
L 289.504027 110.046148 
L 293.447614 113.522887 
L 297.165113 117.240386 
L 300.641852 121.183973 
L 303.864111 125.338084 
L 306.819173 129.686325 
L 309.495375 134.211536 
L 311.882156 138.895858 
L 313.970097 143.720803 
L 315.750956 148.667331 
L 317.217707 153.715918 
L 318.364559 158.846642 
L 319.186988 164.039252 
L 319.681747 169.273257 
L 319.846884 174.528 
L 319.681747 179.782743 
L 319.186988 185.016748 
L 318.364559 190.209358 
L 317.217707 195.340082 
L 315.750956 200.388669 
L 313.970097 205.335197 
L 311.882156 210.160142 
L 309.495375 214.844464 
L 306.819173 219.369675 
L 303.864111 223.717916 
L 300.641852 227.872027 
L 297.165113 231.815614 
L 293.447614 235.533113 
L 289.504027 239.009852 
L 285.349916 242.232111 
L 281.001675 245.187173 
L 276.476464 247.863375 
L 271.792142 250.250156 
L 266.967197 252.338097 
L 262.020669 254.118956 
L 256.972082 255.585707 
L 251.841358 256.732559 
L 246.648748 257.554988 
L 241.414743 258.049747 
L 236.16 258.214884 
L 236.16 258.16903 
L 236.16 258.123177 
L 236.16 258.077323 
L 236.16 258.031469 
L 236.16 257.985616 
L 236.16 257.939762 
L 236.16 257.893908 
L 236.16 257.848055 
L 236.16 257.802201 
L 236.16 257.756347 
L 236.16 257.710494 
L 236.16 257.66464 
L 236.16 257.618786 
L 236.16 257.572933 
L 236.16 257.527079 
L 236.16 257.481225 
L 236.16 257.435371 
L 236.16 257.389518 
L 236.16 257.343664 
L 236.16 257.29781 
L 236.16 257.251957 
L 236.16 257.206103 
L 236.16 257.160249 
L 236.16 257.114396 
L 236.16 257.068542 
L 236.16 257.022688 
L 236.16 256.976835 
L 236.16 256.930981 
L 236.16 256.885127 
L 236.16 256.839274 
L 236.16 256.79342 
L 236.16 256.747566 
L 236.16 256.701713 
L 236.16 256.655859 
L 236.16 256.610005 
L 236.16 256.564152 
L 236.16 256.518298 
L 236.16 256.472444 
L 236.16 256.426591 
L 236.16 256.380737 
L 236.16 256.334883 
L 236.16 256.28903 
L 236.16 256.243176 
L 236.16 256.197322 
L 236.16 256.151469 
L 236.16 256.105615 
L 236.16 256.059761 
L 236.16 256.013908 
L 236.16 255.968054 
L 236.16 255.9222 
L 236.16 255.876347 
L 236.16 255.830493 
L 236.16 255.784639 
L 236.16 255.738786 
L 236.16 255.692932 
L 236.16 255.647078 
L 236.16 255.601225 
L 236.16 255.555371 
L 236.16 255.509517 
L 236.16 255.463664 
L 236.16 255.41781 
L 236.16 255.371956 
L 236.16 255.326103 
L 236.16 255.280249 
L 236.16 255.234395 
L 236.16 255.188542 
L 236.16 255.142688 
L 236.16 255.096834 
L 236.16 255.050981 
L 236.16 255.005127 
L 236.16 254.959273 
L 236.16 254.91342 
L 236.16 254.867566 
L 236.16 254.821712 
L 236.16 254.775859 
L 236.16 254.730005 
L 236.16 254.684151 
L 236.16 254.638298 
L 236.16 254.592444 
L 236.16 254.54659 
L 236.16 254.500737 
L 236.16 254.454883 
L 236.16 254.409029 
L 236.16 254.363176 
L 236.16 254.317322 
L 236.16 254.271468 
L 236.16 254.225615 
L 236.16 254.179761 
L 236.16 254.133907 
L 236.16 254.088054 
L 236.16 254.0422 
L 236.16 253.996346 
L 236.16 253.950493 
L 236.16 253.904639 
L 236.16 253.858785 
L 236.16 253.812932 
L 236.16 253.767078 
L 236.16 253.721224 
L 236.16 253.675371 
z
" style="fill:#ff003c;"/>
   </g>
   <g id="patch_4">
    <path clip-path="url(#pbda600d325)" d="M 236.16 258.214884 
L 241.414743 258.049747 
L 246.648748 257.554988 
L 251.841358 256.732559 
L 256.972082 255.585707 
L 262.020669 254.118956 
L 266.967197 252.338097 
L 271.792142 250.250156 
L 276.476464 247.863375 
L 281.001675 245.187173 
L 285.349916 242.232111 
L 289.504027 239.009852 
L 293.447614 235.533113 
L 297.165113 231.815614 
L 300.641852 227.872027 
L 303.864111 223.717916 
L 306.819173 219.369675 
L 309.495375 214.844464 
L 311.882156 210.160142 
L 313.970097 205.335197 
L 315.750956 200.388669 
L 317.217707 195.340082 
L 318.364559 190.209358 
L 319.186988 185.016748 
L 319.681747 179.782743 
L 319.846884 174.528 
L 319.681747 169.273257 
L 319.186988 164.039252 
L 318.364559 158.846642 
L 317.217707 153.715918 
L 315.750956 148.667331 
L 313.970097 143.720803 
L 311.882156 138.895858 
L 309.495375 134.211536 
L 306.819173 129.686325 
L 303.864111 125.338084 
L 300.641852 121.183973 
L 297.165113 117.240386 
L 293.447614 113.522887 
L 289.504027 110.046148 
L 285.349916 106.823889 
L 281.001675 103.868827 
L 276.476464 101.192625 
L 271.792142 98.805844 
L 266.967197 96.717903 
L 262.020669 94.937044 
L 256.972082 93.470293 
L 251.841358 92.323441 
L 246.648748 91.501012 
L 241.414743 91.006253 
L 236.16 90.841116 
L 230.905257 91.006253 
L 225.671252 91.501012 
L 220.478642 92.323441 
L 215.347918 93.470293 
L 210.299331 94.937044 
L 205.352803 96.717903 
L 200.527858 98.805844 
L 195.843536 101.192625 
L 191.318325 103.868827 
L 186.970084 106.823889 
L 182.815973 110.046148 
L 178.872386 113.522887 
L 175.154887 117.240386 
L 171.678148 121.183973 
L 168.455889 125.338084 
L 165.500827 129.686325 
L 162.824625 134.211536 
L 160.437844 138.895858 
L 158.349903 143.720803 
L 156.569044 148.667331 
L 155.102293 153.715918 
L 153.955441 158.846642 
L 153.133012 164.039252 
L 152.638253 169.273257 
L 152.473116 174.528 
L 152.638253 179.782743 
L 153.133012 185.016748 
L 153.955441 190.209358 
L 155.102293 195.340082 
L 156.569044 200.388669 
L 158.349903 205.335197 
L 160.437844 210.160142 
L 162.824625 214.844464 
L 165.500827 219.369675 
L 168.455889 223.717916 
L 171.678148 227.872027 
L 175.154887 231.815614 
L 178.872386 235.533113 
L 182.815973 239.009852 
L 186.970084 242.232111 
L 191.318325 245.187173 
L 195.843536 247.863375 
L 200.527858 250.250156 
L 205.352803 252.338097 
L 210.299331 254.118956 
L 215.347918 255.585707 
L 220.478642 256.732559 
L 225.671252 257.554988 
L 230.905257 258.049747 
L 236.16 258.214884 
L 236.16 258.645215 
L 236.16 259.075546 
L 236.16 259.505877 
L 236.16 259.936209 
L 236.16 260.36654 
L 236.16 260.796871 
L 236.16 261.227202 
L 236.16 261.657533 
L 236.16 262.087864 
L 236.16 262.518195 
L 236.16 262.948527 
L 236.16 263.378858 
L 236.16 263.809189 
L 236.16 264.23952 
L 236.16 264.669851 
L 236.16 265.100182 
L 236.16 265.530514 
L 236.16 265.960845 
L 236.16 266.391176 
L 236.16 266.821507 
L 236.16 267.251838 
L 236.16 267.682169 
L 236.16 268.112501 
L 236.16 268.542832 
L 236.16 268.973163 
L 236.16 269.403494 
L 236.16 269.833825 
L 236.16 270.264156 
L 236.16 270.694488 
L 236.16 271.124819 
L 236.16 271.55515 
L 236.16 271.985481 
L 236.16 272.415812 
L 236.16 272.846143 
L 236.16 273.276475 
L 236.16 273.706806 
L 236.16 274.137137 
L 236.16 274.567468 
L 236.16 274.997799 
L 236.16 275.42813 
L 236.16 275.858461 
L 236.16 276.288793 
L 236.16 276.719124 
L 236.16 277.149455 
L 236.16 277.579786 
L 236.16 278.010117 
L 236.16 278.440448 
L 236.16 278.87078 
L 236.16 279.301111 
L 236.16 279.731442 
L 236.16 280.161773 
L 236.16 280.592104 
L 236.16 281.022435 
L 236.16 281.452767 
L 236.16 281.883098 
L 236.16 282.313429 
L 236.16 282.74376 
L 236.16 283.174091 
L 236.16 283.604422 
L 236.16 284.034754 
L 236.16 284.465085 
L 236.16 284.895416 
L 236.16 285.325747 
L 236.16 285.756078 
L 236.16 286.186409 
L 236.16 286.616741 
L 236.16 287.047072 
L 236.16 287.477403 
L 236.16 287.907734 
L 236.16 288.338065 
L 236.16 288.768396 
L 236.16 289.198727 
L 236.16 289.629059 
L 236.16 290.05939 
L 236.16 290.489721 
L 236.16 290.920052 
L 236.16 291.350383 
L 236.16 291.780714 
L 236.16 292.211046 
L 236.16 292.641377 
L 236.16 293.071708 
L 236.16 293.502039 
L 236.16 293.93237 
L 236.16 294.362701 
L 236.16 294.793033 
L 236.16 295.223364 
L 236.16 295.653695 
L 236.16 296.084026 
L 236.16 296.514357 
L 236.16 296.944688 
L 236.16 297.37502 
L 236.16 297.805351 
L 236.16 298.235682 
L 236.16 298.666013 
L 236.16 299.096344 
L 236.16 299.526675 
L 236.16 299.957007 
L 236.16 300.387338 
L 236.16 300.817669 
L 236.16 301.248 
L 228.203185 300.997947 
L 220.277773 300.248775 
L 212.41504 299.00344 
L 204.646017 297.266858 
L 197.001366 295.045882 
L 189.511257 292.349276 
L 182.205248 289.187684 
L 175.112174 285.573582 
L 168.260029 281.521235 
L 161.675853 277.046634 
L 155.385632 272.167438 
L 149.414191 266.902904 
L 143.785096 261.273809 
L 138.520562 255.302368 
L 133.641366 249.012147 
L 129.166765 242.427971 
L 125.114418 235.575826 
L 121.500316 228.482752 
L 118.338724 221.176743 
L 115.642118 213.686634 
L 113.421142 206.041983 
L 111.68456 198.27296 
L 110.439225 190.410227 
L 109.690053 182.484815 
L 109.44 174.528 
L 109.690053 166.571185 
L 110.439225 158.645773 
L 111.68456 150.78304 
L 113.421142 143.014017 
L 115.642118 135.369366 
L 118.338724 127.879257 
L 121.500316 120.573248 
L 125.114418 113.480174 
L 129.166765 106.628029 
L 133.641366 100.043853 
L 138.520562 93.753632 
L 143.785096 87.782191 
L 149.414191 82.153096 
L 155.385632 76.888562 
L 161.675853 72.009366 
L 168.260029 67.534765 
L 175.112174 63.482418 
L 182.205248 59.868316 
L 189.511257 56.706724 
L 197.001366 54.010118 
L 204.646017 51.789142 
L 212.41504 50.05256 
L 220.277773 48.807225 
L 228.203185 48.058053 
L 236.16 47.808 
L 244.116815 48.058053 
L 252.042227 48.807225 
L 259.90496 50.05256 
L 267.673983 51.789142 
L 275.318634 54.010118 
L 282.808743 56.706724 
L 290.114752 59.868316 
L 297.207826 63.482418 
L 304.059971 67.534765 
L 310.644147 72.009366 
L 316.934368 76.888562 
L 322.905809 82.153096 
L 328.534904 87.782191 
L 333.799438 93.753632 
L 338.678634 100.043853 
L 343.153235 106.628029 
L 347.205582 113.480174 
L 350.819684 120.573248 
L 353.981276 127.879257 
L 356.677882 135.369366 
L 358.898858 143.014017 
L 360.63544 150.78304 
L 361.880775 158.645773 
L 362.629947 166.571185 
L 362.88 174.528 
L 362.629947 182.484815 
L 361.880775 190.410227 
L 360.63544 198.27296 
L 358.898858 206.041983 
L 356.677882 213.686634 
L 353.981276 221.176743 
L 350.819684 228.482752 
L 347.205582 235.575826 
L 343.153235 242.427971 
L 338.678634 249.012147 
L 333.799438 255.302368 
L 328.534904 261.273809 
L 322.905809 266.902904 
L 316.934368 272.167438 
L 310.644147 277.046634 
L 304.059971 281.521235 
L 297.207826 285.573582 
L 290.114752 289.187684 
L 282.808743 292.349276 
L 275.318634 295.045882 
L 267.673983 297.266858 
L 259.90496 299.00344 
L 252.042227 300.248775 
L 244.116815 300.997947 
L 236.16 301.248 
L 236.16 300.817669 
L 236.16 300.387338 
L 236.16 299.957007 
L 236.16 299.526675 
L 236.16 299.096344 
L 236.16 298.666013 
L 236.16 298.235682 
L 236.16 297.805351 
L 236.16 297.37502 
L 236.16 296.944688 
L 236.16 296.514357 
L 236.16 296.084026 
L 236.16 295.653695 
L 236.16 295.223364 
L 236.16 294.793033 
L 236.16 294.362701 
L 236.16 293.93237 
L 236.16 293.502039 
L 236.16 293.071708 
L 236.16 292.641377 
L 236.16 292.211046 
L 236.16 291.780714 
L 236.16 291.350383 
L 236.16 290.920052 
L 236.16 290.489721 
L 236.16 290.05939 
L 236.16 289.629059 
L 236.16 289.198727 
L 236.16 288.768396 
L 236.16 288.338065 
L 236.16 287.907734 
L 236.16 287.477403 
L 236.16 287.047072 
L 236.16 286.616741 
L 236.16 286.186409 
L 236.16 285.756078 
L 236.16 285.325747 
L 236.16 284.895416 
L 236.16 284.465085 
L 236.16 284.034754 
L 236.16 283.604422 
L 236.16 283.174091 
L 236.16 282.74376 
L 236.16 282.313429 
L 236.16 281.883098 
L 236.16 281.452767 
L 236.16 281.022435 
L 236.16 280.592104 
L 236.16 280.161773 
L 236.16 279.731442 
L 236.16 279.301111 
L 236.16 278.87078 
L 236.16 278.440448 
L 236.16 278.010117 
L 236.16 277.579786 
L 236.16 277.149455 
L 236.16 276.719124 
L 236.16 276.288793 
L 236.16 275.858461 
L 236.16 275.42813 
L 236.16 274.997799 
L 236.16 274.567468 
L 236.16 274.137137 
L 236.16 273.706806 
L 236.16 273.276475 
L 236.16 272.846143 
L 236.16 272.415812 
L 236.16 271.985481 
L 236.16 271.55515 
L 236.16 271.124819 
L 236.16 270.694488 
L 236.16 270.264156 
L 236.16 269.833825 
L 236.16 269.403494 
L 236.16 268.973163 
L 236.16 268.542832 
L 236.16 268.112501 
L 236.16 267.682169 
L 236.16 267.251838 
L 236.16 266.821507 
L 236.16 266.391176 
L 236.16 265.960845 
L 236.16 265.530514 
L 236.16 265.100182 
L 236.16 264.669851 
L 236.16 264.23952 
L 236.16 263.809189 
L 236.16 263.378858 
L 236.16 262.948527 
L 236.16 262.518195 
L 236.16 262.087864 
L 236.16 261.657533 
L 236.16 261.227202 
L 236.16 260.796871 
L 236.16 260.36654 
L 236.16 259.936209 
L 236.16 259.505877 
L 236.16 259.075546 
L 236.16 258.645215 
z
" style="fill:#88c100;"/>
   </g>
  </g>
 </g>
 <defs>
  <clipPath id="pbda600d325">
   <path d="M 369.216 174.528 
C 369.216 157.055246 365.774248 139.752393 359.087715 123.609673 
C 352.401182 107.466954 342.599903 92.798303 330.2448 80.4432 
C 317.889697 68.088097 303.221046 58.286818 287.078327 51.600285 
C 270.935607 44.913752 253.632754 41.472 236.16 41.472 
C 218.687246 41.472 201.384393 44.913752 185.241673 51.600285 
C 169.098954 58.286818 154.430303 68.088097 142.0752 80.4432 
C 129.720097 92.798303 119.918818 107.466954 113.232285 123.609673 
C 106.545752 139.752393 103.104 157.055246 103.104 174.528 
C 103.104 192.000754 106.545752 209.303607 113.232285 225.446327 
C 119.918818 241.589046 129.720097 256.257697 142.0752 268.6128 
C 154.430303 280.967903 169.098954 290.769182 185.241673 297.455715 
C 201.384393 304.142248 218.687246 307.584 236.16 307.584 
C 253.632754 307.584 270.935607 304.142248 287.078327 297.455715 
C 303.221046 290.769182 317.889697 280.967903 330.2448 268.6128 
C 342.599903 256.257697 352.401182 241.589046 359.087715 225.446327 
C 365.774248 209.303607 369.216 192.000754 369.216 174.528 
M 236.16 174.528 
C 236.16 174.528 236.16 174.528 236.16 174.528 
C 236.16 174.528 236.16 174.528 236.16 174.528 
C 236.16 174.528 236.16 174.528 236.16 174.528 
C 236.16 174.528 236.16 174.528 236.16 174.528 
C 236.16 174.528 236.16 174.528 236.16 174.528 
C 236.16 174.528 236.16 174.528 236.16 174.528 
C 236.16 174.528 236.16 174.528 236.16 174.528 
C 236.16 174.528 236.16 174.528 236.16 174.528 
C 236.16 174.528 236.16 174.528 236.16 174.528 
C 236.16 174.528 236.16 174.528 236.16 174.528 
C 236.16 174.528 236.16 174.528 236.16 174.528 
C 236.16 174.528 236.16 174.528 236.16 174.528 
C 236.16 174.528 236.16 174.528 236.16 174.528 
C 236.16 174.528 236.16 174.528 236.16 174.528 
C 236.16 174.528 236.16 174.528 236.16 174.528 
C 236.16 174.528 236.16 174.528 236.16 174.528 
M 369.216 174.528 
z
"/>
  </clipPath>
 </defs>
</svg>
