<?xml version="1.0" encoding="utf-8" standalone="no"?>
<!DOCTYPE svg PUBLIC "-//W3C//DTD SVG 1.1//EN"
  "http://www.w3.org/Graphics/SVG/1.1/DTD/svg11.dtd">
<!-- Created with matplotlib (https://matplotlib.org/) -->
<svg height="345.6pt" version="1.1" viewBox="0 0 460.8 345.6" width="460.8pt" xmlns="http://www.w3.org/2000/svg" xmlns:xlink="http://www.w3.org/1999/xlink">
 <defs>
  <style type="text/css">
*{stroke-linecap:butt;stroke-linejoin:round;}
  </style>
 </defs>
 <g id="figure_1">
  <g id="patch_1">
   <path d="M 0 345.6 
L 460.8 345.6 
L 460.8 0 
L 0 0 
z
" style="fill:none;"/>
  </g>
  <g id="axes_1">
   <g id="patch_2">
    <path clip-path="url(#pc3f0607404)" d="M 236.16 174.528 
L 236.16 174.528 
L 236.16 174.528 
L 236.16 174.528 
L 236.16 174.528 
L 236.16 174.528 
L 236.16 174.528 
L 236.16 174.528 
L 236.16 174.528 
L 236.16 174.528 
L 236.16 174.528 
L 236.16 174.528 
L 236.16 174.528 
L 236.16 174.528 
L 236.16 174.528 
L 236.16 174.528 
L 236.16 174.528 
L 236.16 174.528 
L 236.16 174.528 
L 236.16 174.528 
L 236.16 174.528 
L 236.16 174.528 
L 236.16 174.528 
L 236.16 174.528 
L 236.16 174.528 
L 236.16 174.528 
L 236.16 174.528 
L 236.16 174.528 
L 236.16 174.528 
L 236.16 174.528 
L 236.16 174.528 
L 236.16 174.528 
L 236.16 174.528 
L 236.16 174.528 
L 236.16 174.528 
L 236.16 174.528 
L 236.16 174.528 
L 236.16 174.528 
L 236.16 174.528 
L 236.16 174.528 
L 236.16 174.528 
L 236.16 174.528 
L 236.16 174.528 
L 236.16 174.528 
L 236.16 174.528 
L 236.16 174.528 
L 236.16 174.528 
L 236.16 174.528 
L 236.16 174.528 
L 236.16 174.528 
L 236.16 174.528 
L 236.16 174.528 
L 236.16 174.528 
L 236.16 174.528 
L 236.16 174.528 
L 236.16 174.528 
L 236.16 174.528 
L 236.16 174.528 
L 236.16 174.528 
L 236.16 174.528 
L 236.16 174.528 
L 236.16 174.528 
L 236.16 174.528 
L 236.16 174.528 
L 236.16 174.528 
L 236.16 174.528 
L 236.16 174.528 
L 236.16 174.528 
L 236.16 174.528 
L 236.16 174.528 
L 236.16 174.528 
L 236.16 174.528 
L 236.16 174.528 
L 236.16 174.528 
L 236.16 174.528 
L 236.16 174.528 
L 236.16 174.528 
L 236.16 174.528 
L 236.16 174.528 
L 236.16 174.528 
L 236.16 174.528 
L 236.16 174.528 
L 236.16 174.528 
L 236.16 174.528 
L 236.16 174.528 
L 236.16 174.528 
L 236.16 174.528 
L 236.16 174.528 
L 236.16 174.528 
L 236.16 174.528 
L 236.16 174.528 
L 236.16 174.528 
L 236.16 174.528 
L 236.16 174.528 
L 236.16 174.528 
L 236.16 174.528 
L 236.16 174.528 
L 236.16 174.528 
L 236.16 174.528 
L 236.16 174.528 
L 236.16 174.528 
L 236.16 175.41504 
L 236.16 176.30208 
L 236.16 177.18912 
L 236.16 178.07616 
L 236.16 178.9632 
L 236.16 179.85024 
L 236.16 180.73728 
L 236.16 181.62432 
L 236.16 182.51136 
L 236.16 183.3984 
L 236.16 184.28544 
L 236.16 185.17248 
L 236.16 186.05952 
L 236.16 186.94656 
L 236.16 187.8336 
L 236.16 188.72064 
L 236.16 189.60768 
L 236.16 190.49472 
L 236.16 191.38176 
L 236.16 192.2688 
L 236.16 193.15584 
L 236.16 194.04288 
L 236.16 194.92992 
L 236.16 195.81696 
L 236.16 196.704 
L 236.16 197.59104 
L 236.16 198.47808 
L 236.16 199.36512 
L 236.16 200.25216 
L 236.16 201.1392 
L 236.16 202.02624 
L 236.16 202.91328 
L 236.16 203.80032 
L 236.16 204.68736 
L 236.16 205.5744 
L 236.16 206.46144 
L 236.16 207.34848 
L 236.16 208.23552 
L 236.16 209.12256 
L 236.16 210.0096 
L 236.16 210.89664 
L 236.16 211.78368 
L 236.16 212.67072 
L 236.16 213.55776 
L 236.16 214.4448 
L 236.16 215.33184 
L 236.16 216.21888 
L 236.16 217.10592 
L 236.16 217.99296 
L 236.16 218.88 
L 236.16 219.76704 
L 236.16 220.65408 
L 236.16 221.54112 
L 236.16 222.42816 
L 236.16 223.3152 
L 236.16 224.20224 
L 236.16 225.08928 
L 236.16 225.97632 
L 236.16 226.86336 
L 236.16 227.7504 
L 236.16 228.63744 
L 236.16 229.52448 
L 236.16 230.41152 
L 236.16 231.29856 
L 236.16 232.1856 
L 236.16 233.07264 
L 236.16 233.95968 
L 236.16 234.84672 
L 236.16 235.73376 
L 236.16 236.6208 
L 236.16 237.50784 
L 236.16 238.39488 
L 236.16 239.28192 
L 236.16 240.16896 
L 236.16 241.056 
L 236.16 241.94304 
L 236.16 242.83008 
L 236.16 243.71712 
L 236.16 244.60416 
L 236.16 245.4912 
L 236.16 246.37824 
L 236.16 247.26528 
L 236.16 248.15232 
L 236.16 249.03936 
L 236.16 249.9264 
L 236.16 250.81344 
L 236.16 251.70048 
L 236.16 252.58752 
L 236.16 253.47456 
L 236.16 254.3616 
L 236.16 255.24864 
L 236.16 256.13568 
L 236.16 257.02272 
L 236.16 257.90976 
L 236.16 258.7968 
L 236.16 259.68384 
L 236.16 260.57088 
L 236.16 261.45792 
L 236.16 262.34496 
L 236.16 263.232 
L 230.59023 263.056963 
L 225.042441 262.532542 
L 219.538528 261.660808 
L 214.100212 260.445201 
L 208.748957 258.890517 
L 203.50588 257.002893 
L 198.391674 254.789779 
L 193.426522 252.259908 
L 188.63002 249.423264 
L 184.021097 246.291043 
L 179.617942 242.875607 
L 175.437934 239.190433 
L 171.497567 235.250066 
L 167.812393 231.070058 
L 164.396957 226.666903 
L 161.264736 222.05798 
L 158.428092 217.261478 
L 155.898221 212.296326 
L 153.685107 207.18212 
L 151.797483 201.939043 
L 150.242799 196.587788 
L 149.027192 191.149472 
L 148.155458 185.645559 
L 147.631037 180.09777 
L 147.456 174.528 
L 147.631037 168.95823 
L 148.155458 163.410441 
L 149.027192 157.906528 
L 150.242799 152.468212 
L 151.797483 147.116957 
L 153.685107 141.87388 
L 155.898221 136.759674 
L 158.428092 131.794522 
L 161.264736 126.99802 
L 164.396957 122.389097 
L 167.812393 117.985942 
L 171.497567 113.805934 
L 175.437934 109.865567 
L 179.617942 106.180393 
L 184.021097 102.764957 
L 188.63002 99.632736 
L 193.426522 96.796092 
L 198.391674 94.266221 
L 203.50588 92.053107 
L 208.748957 90.165483 
L 214.100212 88.610799 
L 219.538528 87.395192 
L 225.042441 86.523458 
L 230.59023 85.999037 
L 236.16 85.824 
L 241.72977 85.999037 
L 247.277559 86.523458 
L 252.781472 87.395192 
L 258.219788 88.610799 
L 263.571043 90.165483 
L 268.81412 92.053107 
L 273.928326 94.266221 
L 278.893478 96.796092 
L 283.68998 99.632736 
L 288.298903 102.764957 
L 292.702058 106.180393 
L 296.882066 109.865567 
L 300.822433 113.805934 
L 304.507607 117.985942 
L 307.923043 122.389097 
L 311.055264 126.99802 
L 313.891908 131.794522 
L 316.421779 136.759674 
L 318.634893 141.87388 
L 320.522517 147.116957 
L 322.077201 152.468212 
L 323.292808 157.906528 
L 324.164542 163.410441 
L 324.688963 168.95823 
L 324.864 174.528 
L 324.688963 180.09777 
L 324.164542 185.645559 
L 323.292808 191.149472 
L 322.077201 196.587788 
L 320.522517 201.939043 
L 318.634893 207.18212 
L 316.421779 212.296326 
L 313.891908 217.261478 
L 311.055264 222.05798 
L 307.923043 226.666903 
L 304.507607 231.070058 
L 300.822433 235.250066 
L 296.882066 239.190433 
L 292.702058 242.875607 
L 288.298903 246.291043 
L 283.68998 249.423264 
L 278.893478 252.259908 
L 273.928326 254.789779 
L 268.81412 257.002893 
L 263.571043 258.890517 
L 258.219788 260.445201 
L 252.781472 261.660808 
L 247.277559 262.532542 
L 241.72977 263.056963 
L 236.16 263.232 
L 236.16 262.34496 
L 236.16 261.45792 
L 236.16 260.57088 
L 236.16 259.68384 
L 236.16 258.7968 
L 236.16 257.90976 
L 236.16 257.02272 
L 236.16 256.13568 
L 236.16 255.24864 
L 236.16 254.3616 
L 236.16 253.47456 
L 236.16 252.58752 
L 236.16 251.70048 
L 236.16 250.81344 
L 236.16 249.9264 
L 236.16 249.03936 
L 236.16 248.15232 
L 236.16 247.26528 
L 236.16 246.37824 
L 236.16 245.4912 
L 236.16 244.60416 
L 236.16 243.71712 
L 236.16 242.83008 
L 236.16 241.94304 
L 236.16 241.056 
L 236.16 240.16896 
L 236.16 239.28192 
L 236.16 238.39488 
L 236.16 237.50784 
L 236.16 236.6208 
L 236.16 235.73376 
L 236.16 234.84672 
L 236.16 233.95968 
L 236.16 233.07264 
L 236.16 232.1856 
L 236.16 231.29856 
L 236.16 230.41152 
L 236.16 229.52448 
L 236.16 228.63744 
L 236.16 227.7504 
L 236.16 226.86336 
L 236.16 225.97632 
L 236.16 225.08928 
L 236.16 224.20224 
L 236.16 223.3152 
L 236.16 222.42816 
L 236.16 221.54112 
L 236.16 220.65408 
L 236.16 219.76704 
L 236.16 218.88 
L 236.16 217.99296 
L 236.16 217.10592 
L 236.16 216.21888 
L 236.16 215.33184 
L 236.16 214.4448 
L 236.16 213.55776 
L 236.16 212.67072 
L 236.16 211.78368 
L 236.16 210.89664 
L 236.16 210.0096 
L 236.16 209.12256 
L 236.16 208.23552 
L 236.16 207.34848 
L 236.16 206.46144 
L 236.16 205.5744 
L 236.16 204.68736 
L 236.16 203.80032 
L 236.16 202.91328 
L 236.16 202.02624 
L 236.16 201.1392 
L 236.16 200.25216 
L 236.16 199.36512 
L 236.16 198.47808 
L 236.16 197.59104 
L 236.16 196.704 
L 236.16 195.81696 
L 236.16 194.92992 
L 236.16 194.04288 
L 236.16 193.15584 
L 236.16 192.2688 
L 236.16 191.38176 
L 236.16 190.49472 
L 236.16 189.60768 
L 236.16 188.72064 
L 236.16 187.8336 
L 236.16 186.94656 
L 236.16 186.05952 
L 236.16 185.17248 
L 236.16 184.28544 
L 236.16 183.3984 
L 236.16 182.51136 
L 236.16 181.62432 
L 236.16 180.73728 
L 236.16 179.85024 
L 236.16 178.9632 
L 236.16 178.07616 
L 236.16 177.18912 
L 236.16 176.30208 
L 236.16 175.41504 
z
" style="fill:#fabe28;"/>
   </g>
   <g id="patch_3">
    <path clip-path="url(#pc3f0607404)" d="M 236.16 263.232 
L 241.72977 263.056963 
L 247.277559 262.532542 
L 252.781472 261.660808 
L 258.219788 260.445201 
L 263.571043 258.890517 
L 268.81412 257.002893 
L 273.928326 254.789779 
L 278.893478 252.259908 
L 283.68998 249.423264 
L 288.298903 246.291043 
L 292.702058 242.875607 
L 296.882066 239.190433 
L 300.822433 235.250066 
L 304.507607 231.070058 
L 307.923043 226.666903 
L 311.055264 222.05798 
L 313.891908 217.261478 
L 316.421779 212.296326 
L 318.634893 207.18212 
L 320.522517 201.939043 
L 322.077201 196.587788 
L 323.292808 191.149472 
L 324.164542 185.645559 
L 324.688963 180.09777 
L 324.864 174.528 
L 324.688963 168.95823 
L 324.164542 163.410441 
L 323.292808 157.906528 
L 322.077201 152.468212 
L 320.522517 147.116957 
L 318.634893 141.87388 
L 316.421779 136.759674 
L 313.891908 131.794522 
L 311.055264 126.99802 
L 307.923043 122.389097 
L 304.507607 117.985942 
L 300.822433 113.805934 
L 296.882066 109.865567 
L 292.702058 106.180393 
L 288.298903 102.764957 
L 283.68998 99.632736 
L 278.893478 96.796092 
L 273.928326 94.266221 
L 268.81412 92.053107 
L 263.571043 90.165483 
L 258.219788 88.610799 
L 252.781472 87.395192 
L 247.277559 86.523458 
L 241.72977 85.999037 
L 236.16 85.824 
L 230.59023 85.999037 
L 225.042441 86.523458 
L 219.538528 87.395192 
L 214.100212 88.610799 
L 208.748957 90.165483 
L 203.50588 92.053107 
L 198.391674 94.266221 
L 193.426522 96.796092 
L 188.63002 99.632736 
L 184.021097 102.764957 
L 179.617942 106.180393 
L 175.437934 109.865567 
L 171.497567 113.805934 
L 167.812393 117.985942 
L 164.396957 122.389097 
L 161.264736 126.99802 
L 158.428092 131.794522 
L 155.898221 136.759674 
L 153.685107 141.87388 
L 151.797483 147.116957 
L 150.242799 152.468212 
L 149.027192 157.906528 
L 148.155458 163.410441 
L 147.631037 168.95823 
L 147.456 174.528 
L 147.631037 180.09777 
L 148.155458 185.645559 
L 149.027192 191.149472 
L 150.242799 196.587788 
L 151.797483 201.939043 
L 153.685107 207.18212 
L 155.898221 212.296326 
L 158.428092 217.261478 
L 161.264736 222.05798 
L 164.396957 226.666903 
L 167.812393 231.070058 
L 171.497567 235.250066 
L 175.437934 239.190433 
L 179.617942 242.875607 
L 184.021097 246.291043 
L 188.63002 249.423264 
L 193.426522 252.259908 
L 198.391674 254.789779 
L 203.50588 257.002893 
L 208.748957 258.890517 
L 214.100212 260.445201 
L 219.538528 261.660808 
L 225.042441 262.532542 
L 230.59023 263.056963 
L 236.16 263.232 
L 236.16 263.232 
L 236.16 263.232 
L 236.16 263.232 
L 236.16 263.232 
L 236.16 263.232 
L 236.16 263.232 
L 236.16 263.232 
L 236.16 263.232 
L 236.16 263.232 
L 236.16 263.232 
L 236.16 263.232 
L 236.16 263.232 
L 236.16 263.232 
L 236.16 263.232 
L 236.16 263.232 
L 236.16 263.232 
L 236.16 263.232 
L 236.16 263.232 
L 236.16 263.232 
L 236.16 263.232 
L 236.16 263.232 
L 236.16 263.232 
L 236.16 263.232 
L 236.16 263.232 
L 236.16 263.232 
L 236.16 263.232 
L 236.16 263.232 
L 236.16 263.232 
L 236.16 263.232 
L 236.16 263.232 
L 236.16 263.232 
L 236.16 263.232 
L 236.16 263.232 
L 236.16 263.232 
L 236.16 263.232 
L 236.16 263.232 
L 236.16 263.232 
L 236.16 263.232 
L 236.16 263.232 
L 236.16 263.232 
L 236.16 263.232 
L 236.16 263.232 
L 236.16 263.232 
L 236.16 263.232 
L 236.16 263.232 
L 236.16 263.232 
L 236.16 263.232 
L 236.16 263.232 
L 236.16 263.232 
L 236.16 263.232 
L 236.16 263.232 
L 236.16 263.232 
L 236.16 263.232 
L 236.16 263.232 
L 236.16 263.232 
L 236.16 263.232 
L 236.16 263.232 
L 236.16 263.232 
L 236.16 263.232 
L 236.16 263.232 
L 236.16 263.232 
L 236.16 263.232 
L 236.16 263.232 
L 236.16 263.232 
L 236.16 263.232 
L 236.16 263.232 
L 236.16 263.232 
L 236.16 263.232 
L 236.16 263.232 
L 236.16 263.232 
L 236.16 263.232 
L 236.16 263.232 
L 236.16 263.232 
L 236.16 263.232 
L 236.16 263.232 
L 236.16 263.232 
L 236.16 263.232 
L 236.16 263.232 
L 236.16 263.232 
L 236.16 263.232 
L 236.16 263.232 
L 236.16 263.232 
L 236.16 263.232 
L 236.16 263.232 
L 236.16 263.232 
L 236.16 263.232 
L 236.16 263.232 
L 236.16 263.232 
L 236.16 263.232 
L 236.16 263.232 
L 236.16 263.232 
L 236.16 263.232 
L 236.16 263.232 
L 236.16 263.232 
L 236.16 263.232 
L 236.16 263.232 
L 236.16 263.232 
L 236.16 263.232 
L 236.16 263.232 
L 236.16 263.232 
L 230.59023 263.056963 
L 225.042441 262.532542 
L 219.538528 261.660808 
L 214.100212 260.445201 
L 208.748957 258.890517 
L 203.50588 257.002893 
L 198.391674 254.789779 
L 193.426522 252.259908 
L 188.63002 249.423264 
L 184.021097 246.291043 
L 179.617942 242.875607 
L 175.437934 239.190433 
L 171.497567 235.250066 
L 167.812393 231.070058 
L 164.396957 226.666903 
L 161.264736 222.05798 
L 158.428092 217.261478 
L 155.898221 212.296326 
L 153.685107 207.18212 
L 151.797483 201.939043 
L 150.242799 196.587788 
L 149.027192 191.149472 
L 148.155458 185.645559 
L 147.631037 180.09777 
L 147.456 174.528 
L 147.631037 168.95823 
L 148.155458 163.410441 
L 149.027192 157.906528 
L 150.242799 152.468212 
L 151.797483 147.116957 
L 153.685107 141.87388 
L 155.898221 136.759674 
L 158.428092 131.794522 
L 161.264736 126.99802 
L 164.396957 122.389097 
L 167.812393 117.985942 
L 171.497567 113.805934 
L 175.437934 109.865567 
L 179.617942 106.180393 
L 184.021097 102.764957 
L 188.63002 99.632736 
L 193.426522 96.796092 
L 198.391674 94.266221 
L 203.50588 92.053107 
L 208.748957 90.165483 
L 214.100212 88.610799 
L 219.538528 87.395192 
L 225.042441 86.523458 
L 230.59023 85.999037 
L 236.16 85.824 
L 241.72977 85.999037 
L 247.277559 86.523458 
L 252.781472 87.395192 
L 258.219788 88.610799 
L 263.571043 90.165483 
L 268.81412 92.053107 
L 273.928326 94.266221 
L 278.893478 96.796092 
L 283.68998 99.632736 
L 288.298903 102.764957 
L 292.702058 106.180393 
L 296.882066 109.865567 
L 300.822433 113.805934 
L 304.507607 117.985942 
L 307.923043 122.389097 
L 311.055264 126.99802 
L 313.891908 131.794522 
L 316.421779 136.759674 
L 318.634893 141.87388 
L 320.522517 147.116957 
L 322.077201 152.468212 
L 323.292808 157.906528 
L 324.164542 163.410441 
L 324.688963 168.95823 
L 324.864 174.528 
L 324.688963 180.09777 
L 324.164542 185.645559 
L 323.292808 191.149472 
L 322.077201 196.587788 
L 320.522517 201.939043 
L 318.634893 207.18212 
L 316.421779 212.296326 
L 313.891908 217.261478 
L 311.055264 222.05798 
L 307.923043 226.666903 
L 304.507607 231.070058 
L 300.822433 235.250066 
L 296.882066 239.190433 
L 292.702058 242.875607 
L 288.298903 246.291043 
L 283.68998 249.423264 
L 278.893478 252.259908 
L 273.928326 254.789779 
L 268.81412 257.002893 
L 263.571043 258.890517 
L 258.219788 260.445201 
L 252.781472 261.660808 
L 247.277559 262.532542 
L 241.72977 263.056963 
L 236.16 263.232 
L 236.16 263.232 
L 236.16 263.232 
L 236.16 263.232 
L 236.16 263.232 
L 236.16 263.232 
L 236.16 263.232 
L 236.16 263.232 
L 236.16 263.232 
L 236.16 263.232 
L 236.16 263.232 
L 236.16 263.232 
L 236.16 263.232 
L 236.16 263.232 
L 236.16 263.232 
L 236.16 263.232 
L 236.16 263.232 
L 236.16 263.232 
L 236.16 263.232 
L 236.16 263.232 
L 236.16 263.232 
L 236.16 263.232 
L 236.16 263.232 
L 236.16 263.232 
L 236.16 263.232 
L 236.16 263.232 
L 236.16 263.232 
L 236.16 263.232 
L 236.16 263.232 
L 236.16 263.232 
L 236.16 263.232 
L 236.16 263.232 
L 236.16 263.232 
L 236.16 263.232 
L 236.16 263.232 
L 236.16 263.232 
L 236.16 263.232 
L 236.16 263.232 
L 236.16 263.232 
L 236.16 263.232 
L 236.16 263.232 
L 236.16 263.232 
L 236.16 263.232 
L 236.16 263.232 
L 236.16 263.232 
L 236.16 263.232 
L 236.16 263.232 
L 236.16 263.232 
L 236.16 263.232 
L 236.16 263.232 
L 236.16 263.232 
L 236.16 263.232 
L 236.16 263.232 
L 236.16 263.232 
L 236.16 263.232 
L 236.16 263.232 
L 236.16 263.232 
L 236.16 263.232 
L 236.16 263.232 
L 236.16 263.232 
L 236.16 263.232 
L 236.16 263.232 
L 236.16 263.232 
L 236.16 263.232 
L 236.16 263.232 
L 236.16 263.232 
L 236.16 263.232 
L 236.16 263.232 
L 236.16 263.232 
L 236.16 263.232 
L 236.16 263.232 
L 236.16 263.232 
L 236.16 263.232 
L 236.16 263.232 
L 236.16 263.232 
L 236.16 263.232 
L 236.16 263.232 
L 236.16 263.232 
L 236.16 263.232 
L 236.16 263.232 
L 236.16 263.232 
L 236.16 263.232 
L 236.16 263.232 
L 236.16 263.232 
L 236.16 263.232 
L 236.16 263.232 
L 236.16 263.232 
L 236.16 263.232 
L 236.16 263.232 
L 236.16 263.232 
L 236.16 263.232 
L 236.16 263.232 
L 236.16 263.232 
L 236.16 263.232 
L 236.16 263.232 
L 236.16 263.232 
L 236.16 263.232 
L 236.16 263.232 
L 236.16 263.232 
L 236.16 263.232 
z
" style="fill:#ff003c;"/>
   </g>
   <g id="patch_4">
    <path clip-path="url(#pc3f0607404)" d="M 236.16 263.232 
L 241.72977 263.056963 
L 247.277559 262.532542 
L 252.781472 261.660808 
L 258.219788 260.445201 
L 263.571043 258.890517 
L 268.81412 257.002893 
L 273.928326 254.789779 
L 278.893478 252.259908 
L 283.68998 249.423264 
L 288.298903 246.291043 
L 292.702058 242.875607 
L 296.882066 239.190433 
L 300.822433 235.250066 
L 304.507607 231.070058 
L 307.923043 226.666903 
L 311.055264 222.05798 
L 313.891908 217.261478 
L 316.421779 212.296326 
L 318.634893 207.18212 
L 320.522517 201.939043 
L 322.077201 196.587788 
L 323.292808 191.149472 
L 324.164542 185.645559 
L 324.688963 180.09777 
L 324.864 174.528 
L 324.688963 168.95823 
L 324.164542 163.410441 
L 323.292808 157.906528 
L 322.077201 152.468212 
L 320.522517 147.116957 
L 318.634893 141.87388 
L 316.421779 136.759674 
L 313.891908 131.794522 
L 311.055264 126.99802 
L 307.923043 122.389097 
L 304.507607 117.985942 
L 300.822433 113.805934 
L 296.882066 109.865567 
L 292.702058 106.180393 
L 288.298903 102.764957 
L 283.68998 99.632736 
L 278.893478 96.796092 
L 273.928326 94.266221 
L 268.81412 92.053107 
L 263.571043 90.165483 
L 258.219788 88.610799 
L 252.781472 87.395192 
L 247.277559 86.523458 
L 241.72977 85.999037 
L 236.16 85.824 
L 230.59023 85.999037 
L 225.042441 86.523458 
L 219.538528 87.395192 
L 214.100212 88.610799 
L 208.748957 90.165483 
L 203.50588 92.053107 
L 198.391674 94.266221 
L 193.426522 96.796092 
L 188.63002 99.632736 
L 184.021097 102.764957 
L 179.617942 106.180393 
L 175.437934 109.865567 
L 171.497567 113.805934 
L 167.812393 117.985942 
L 164.396957 122.389097 
L 161.264736 126.99802 
L 158.428092 131.794522 
L 155.898221 136.759674 
L 153.685107 141.87388 
L 151.797483 147.116957 
L 150.242799 152.468212 
L 149.027192 157.906528 
L 148.155458 163.410441 
L 147.631037 168.95823 
L 147.456 174.528 
L 147.631037 180.09777 
L 148.155458 185.645559 
L 149.027192 191.149472 
L 150.242799 196.587788 
L 151.797483 201.939043 
L 153.685107 207.18212 
L 155.898221 212.296326 
L 158.428092 217.261478 
L 161.264736 222.05798 
L 164.396957 226.666903 
L 167.812393 231.070058 
L 171.497567 235.250066 
L 175.437934 239.190433 
L 179.617942 242.875607 
L 184.021097 246.291043 
L 188.63002 249.423264 
L 193.426522 252.259908 
L 198.391674 254.789779 
L 203.50588 257.002893 
L 208.748957 258.890517 
L 214.100212 260.445201 
L 219.538528 261.660808 
L 225.042441 262.532542 
L 230.59023 263.056963 
L 236.16 263.232 
L 236.16 263.61216 
L 236.16 263.99232 
L 236.16 264.37248 
L 236.16 264.75264 
L 236.16 265.1328 
L 236.16 265.51296 
L 236.16 265.89312 
L 236.16 266.27328 
L 236.16 266.65344 
L 236.16 267.0336 
L 236.16 267.41376 
L 236.16 267.79392 
L 236.16 268.17408 
L 236.16 268.55424 
L 236.16 268.9344 
L 236.16 269.31456 
L 236.16 269.69472 
L 236.16 270.07488 
L 236.16 270.45504 
L 236.16 270.8352 
L 236.16 271.21536 
L 236.16 271.59552 
L 236.16 271.97568 
L 236.16 272.35584 
L 236.16 272.736 
L 236.16 273.11616 
L 236.16 273.49632 
L 236.16 273.87648 
L 236.16 274.25664 
L 236.16 274.6368 
L 236.16 275.01696 
L 236.16 275.39712 
L 236.16 275.77728 
L 236.16 276.15744 
L 236.16 276.5376 
L 236.16 276.91776 
L 236.16 277.29792 
L 236.16 277.67808 
L 236.16 278.05824 
L 236.16 278.4384 
L 236.16 278.81856 
L 236.16 279.19872 
L 236.16 279.57888 
L 236.16 279.95904 
L 236.16 280.3392 
L 236.16 280.71936 
L 236.16 281.09952 
L 236.16 281.47968 
L 236.16 281.85984 
L 236.16 282.24 
L 236.16 282.62016 
L 236.16 283.00032 
L 236.16 283.38048 
L 236.16 283.76064 
L 236.16 284.1408 
L 236.16 284.52096 
L 236.16 284.90112 
L 236.16 285.28128 
L 236.16 285.66144 
L 236.16 286.0416 
L 236.16 286.42176 
L 236.16 286.80192 
L 236.16 287.18208 
L 236.16 287.56224 
L 236.16 287.9424 
L 236.16 288.32256 
L 236.16 288.70272 
L 236.16 289.08288 
L 236.16 289.46304 
L 236.16 289.8432 
L 236.16 290.22336 
L 236.16 290.60352 
L 236.16 290.98368 
L 236.16 291.36384 
L 236.16 291.744 
L 236.16 292.12416 
L 236.16 292.50432 
L 236.16 292.88448 
L 236.16 293.26464 
L 236.16 293.6448 
L 236.16 294.02496 
L 236.16 294.40512 
L 236.16 294.78528 
L 236.16 295.16544 
L 236.16 295.5456 
L 236.16 295.92576 
L 236.16 296.30592 
L 236.16 296.68608 
L 236.16 297.06624 
L 236.16 297.4464 
L 236.16 297.82656 
L 236.16 298.20672 
L 236.16 298.58688 
L 236.16 298.96704 
L 236.16 299.3472 
L 236.16 299.72736 
L 236.16 300.10752 
L 236.16 300.48768 
L 236.16 300.86784 
L 236.16 301.248 
L 228.203185 300.997947 
L 220.277773 300.248775 
L 212.41504 299.00344 
L 204.646017 297.266858 
L 197.001366 295.045882 
L 189.511257 292.349276 
L 182.205248 289.187684 
L 175.112174 285.573582 
L 168.260029 281.521235 
L 161.675853 277.046634 
L 155.385632 272.167438 
L 149.414191 266.902904 
L 143.785096 261.273809 
L 138.520562 255.302368 
L 133.641366 249.012147 
L 129.166765 242.427971 
L 125.114418 235.575826 
L 121.500316 228.482752 
L 118.338724 221.176743 
L 115.642118 213.686634 
L 113.421142 206.041983 
L 111.68456 198.27296 
L 110.439225 190.410227 
L 109.690053 182.484815 
L 109.44 174.528 
L 109.690053 166.571185 
L 110.439225 158.645773 
L 111.68456 150.78304 
L 113.421142 143.014017 
L 115.642118 135.369366 
L 118.338724 127.879257 
L 121.500316 120.573248 
L 125.114418 113.480174 
L 129.166765 106.628029 
L 133.641366 100.043853 
L 138.520562 93.753632 
L 143.785096 87.782191 
L 149.414191 82.153096 
L 155.385632 76.888562 
L 161.675853 72.009366 
L 168.260029 67.534765 
L 175.112174 63.482418 
L 182.205248 59.868316 
L 189.511257 56.706724 
L 197.001366 54.010118 
L 204.646017 51.789142 
L 212.41504 50.05256 
L 220.277773 48.807225 
L 228.203185 48.058053 
L 236.16 47.808 
L 244.116815 48.058053 
L 252.042227 48.807225 
L 259.90496 50.05256 
L 267.673983 51.789142 
L 275.318634 54.010118 
L 282.808743 56.706724 
L 290.114752 59.868316 
L 297.207826 63.482418 
L 304.059971 67.534765 
L 310.644147 72.009366 
L 316.934368 76.888562 
L 322.905809 82.153096 
L 328.534904 87.782191 
L 333.799438 93.753632 
L 338.678634 100.043853 
L 343.153235 106.628029 
L 347.205582 113.480174 
L 350.819684 120.573248 
L 353.981276 127.879257 
L 356.677882 135.369366 
L 358.898858 143.014017 
L 360.63544 150.78304 
L 361.880775 158.645773 
L 362.629947 166.571185 
L 362.88 174.528 
L 362.629947 182.484815 
L 361.880775 190.410227 
L 360.63544 198.27296 
L 358.898858 206.041983 
L 356.677882 213.686634 
L 353.981276 221.176743 
L 350.819684 228.482752 
L 347.205582 235.575826 
L 343.153235 242.427971 
L 338.678634 249.012147 
L 333.799438 255.302368 
L 328.534904 261.273809 
L 322.905809 266.902904 
L 316.934368 272.167438 
L 310.644147 277.046634 
L 304.059971 281.521235 
L 297.207826 285.573582 
L 290.114752 289.187684 
L 282.808743 292.349276 
L 275.318634 295.045882 
L 267.673983 297.266858 
L 259.90496 299.00344 
L 252.042227 300.248775 
L 244.116815 300.997947 
L 236.16 301.248 
L 236.16 300.86784 
L 236.16 300.48768 
L 236.16 300.10752 
L 236.16 299.72736 
L 236.16 299.3472 
L 236.16 298.96704 
L 236.16 298.58688 
L 236.16 298.20672 
L 236.16 297.82656 
L 236.16 297.4464 
L 236.16 297.06624 
L 236.16 296.68608 
L 236.16 296.30592 
L 236.16 295.92576 
L 236.16 295.5456 
L 236.16 295.16544 
L 236.16 294.78528 
L 236.16 294.40512 
L 236.16 294.02496 
L 236.16 293.6448 
L 236.16 293.26464 
L 236.16 292.88448 
L 236.16 292.50432 
L 236.16 292.12416 
L 236.16 291.744 
L 236.16 291.36384 
L 236.16 290.98368 
L 236.16 290.60352 
L 236.16 290.22336 
L 236.16 289.8432 
L 236.16 289.46304 
L 236.16 289.08288 
L 236.16 288.70272 
L 236.16 288.32256 
L 236.16 287.9424 
L 236.16 287.56224 
L 236.16 287.18208 
L 236.16 286.80192 
L 236.16 286.42176 
L 236.16 286.0416 
L 236.16 285.66144 
L 236.16 285.28128 
L 236.16 284.90112 
L 236.16 284.52096 
L 236.16 284.1408 
L 236.16 283.76064 
L 236.16 283.38048 
L 236.16 283.00032 
L 236.16 282.62016 
L 236.16 282.24 
L 236.16 281.85984 
L 236.16 281.47968 
L 236.16 281.09952 
L 236.16 280.71936 
L 236.16 280.3392 
L 236.16 279.95904 
L 236.16 279.57888 
L 236.16 279.19872 
L 236.16 278.81856 
L 236.16 278.4384 
L 236.16 278.05824 
L 236.16 277.67808 
L 236.16 277.29792 
L 236.16 276.91776 
L 236.16 276.5376 
L 236.16 276.15744 
L 236.16 275.77728 
L 236.16 275.39712 
L 236.16 275.01696 
L 236.16 274.6368 
L 236.16 274.25664 
L 236.16 273.87648 
L 236.16 273.49632 
L 236.16 273.11616 
L 236.16 272.736 
L 236.16 272.35584 
L 236.16 271.97568 
L 236.16 271.59552 
L 236.16 271.21536 
L 236.16 270.8352 
L 236.16 270.45504 
L 236.16 270.07488 
L 236.16 269.69472 
L 236.16 269.31456 
L 236.16 268.9344 
L 236.16 268.55424 
L 236.16 268.17408 
L 236.16 267.79392 
L 236.16 267.41376 
L 236.16 267.0336 
L 236.16 266.65344 
L 236.16 266.27328 
L 236.16 265.89312 
L 236.16 265.51296 
L 236.16 265.1328 
L 236.16 264.75264 
L 236.16 264.37248 
L 236.16 263.99232 
L 236.16 263.61216 
z
" style="fill:#88c100;"/>
   </g>
  </g>
 </g>
 <defs>
  <clipPath id="pc3f0607404">
   <path d="M 369.216 174.528 
C 369.216 157.055246 365.774248 139.752393 359.087715 123.609673 
C 352.401182 107.466954 342.599903 92.798303 330.2448 80.4432 
C 317.889697 68.088097 303.221046 58.286818 287.078327 51.600285 
C 270.935607 44.913752 253.632754 41.472 236.16 41.472 
C 218.687246 41.472 201.384393 44.913752 185.241673 51.600285 
C 169.098954 58.286818 154.430303 68.088097 142.0752 80.4432 
C 129.720097 92.798303 119.918818 107.466954 113.232285 123.609673 
C 106.545752 139.752393 103.104 157.055246 103.104 174.528 
C 103.104 192.000754 106.545752 209.303607 113.232285 225.446327 
C 119.918818 241.589046 129.720097 256.257697 142.0752 268.6128 
C 154.430303 280.967903 169.098954 290.769182 185.241673 297.455715 
C 201.384393 304.142248 218.687246 307.584 236.16 307.584 
C 253.632754 307.584 270.935607 304.142248 287.078327 297.455715 
C 303.221046 290.769182 317.889697 280.967903 330.2448 268.6128 
C 342.599903 256.257697 352.401182 241.589046 359.087715 225.446327 
C 365.774248 209.303607 369.216 192.000754 369.216 174.528 
M 236.16 174.528 
C 236.16 174.528 236.16 174.528 236.16 174.528 
C 236.16 174.528 236.16 174.528 236.16 174.528 
C 236.16 174.528 236.16 174.528 236.16 174.528 
C 236.16 174.528 236.16 174.528 236.16 174.528 
C 236.16 174.528 236.16 174.528 236.16 174.528 
C 236.16 174.528 236.16 174.528 236.16 174.528 
C 236.16 174.528 236.16 174.528 236.16 174.528 
C 236.16 174.528 236.16 174.528 236.16 174.528 
C 236.16 174.528 236.16 174.528 236.16 174.528 
C 236.16 174.528 236.16 174.528 236.16 174.528 
C 236.16 174.528 236.16 174.528 236.16 174.528 
C 236.16 174.528 236.16 174.528 236.16 174.528 
C 236.16 174.528 236.16 174.528 236.16 174.528 
C 236.16 174.528 236.16 174.528 236.16 174.528 
C 236.16 174.528 236.16 174.528 236.16 174.528 
C 236.16 174.528 236.16 174.528 236.16 174.528 
M 369.216 174.528 
z
"/>
  </clipPath>
 </defs>
</svg>
