<?xml version="1.0" encoding="utf-8" standalone="no"?>
<!DOCTYPE svg PUBLIC "-//W3C//DTD SVG 1.1//EN"
  "http://www.w3.org/Graphics/SVG/1.1/DTD/svg11.dtd">
<!-- Created with matplotlib (https://matplotlib.org/) -->
<svg height="345.6pt" version="1.1" viewBox="0 0 460.8 345.6" width="460.8pt" xmlns="http://www.w3.org/2000/svg" xmlns:xlink="http://www.w3.org/1999/xlink">
 <defs>
  <style type="text/css">
*{stroke-linecap:butt;stroke-linejoin:round;}
  </style>
 </defs>
 <g id="figure_1">
  <g id="patch_1">
   <path d="M 0 345.6 
L 460.8 345.6 
L 460.8 0 
L 0 0 
z
" style="fill:none;"/>
  </g>
  <g id="axes_1">
   <g id="patch_2">
    <path clip-path="url(#p0b162148fd)" d="M 236.16 174.528 
L 236.16 174.528 
L 236.16 174.528 
L 236.16 174.528 
L 236.16 174.528 
L 236.16 174.528 
L 236.16 174.528 
L 236.16 174.528 
L 236.16 174.528 
L 236.16 174.528 
L 236.16 174.528 
L 236.16 174.528 
L 236.16 174.528 
L 236.16 174.528 
L 236.16 174.528 
L 236.16 174.528 
L 236.16 174.528 
L 236.16 174.528 
L 236.16 174.528 
L 236.16 174.528 
L 236.16 174.528 
L 236.16 174.528 
L 236.16 174.528 
L 236.16 174.528 
L 236.16 174.528 
L 236.16 174.528 
L 236.16 174.528 
L 236.16 174.528 
L 236.16 174.528 
L 236.16 174.528 
L 236.16 174.528 
L 236.16 174.528 
L 236.16 174.528 
L 236.16 174.528 
L 236.16 174.528 
L 236.16 174.528 
L 236.16 174.528 
L 236.16 174.528 
L 236.16 174.528 
L 236.16 174.528 
L 236.16 174.528 
L 236.16 174.528 
L 236.16 174.528 
L 236.16 174.528 
L 236.16 174.528 
L 236.16 174.528 
L 236.16 174.528 
L 236.16 174.528 
L 236.16 174.528 
L 236.16 174.528 
L 236.16 174.528 
L 236.16 174.528 
L 236.16 174.528 
L 236.16 174.528 
L 236.16 174.528 
L 236.16 174.528 
L 236.16 174.528 
L 236.16 174.528 
L 236.16 174.528 
L 236.16 174.528 
L 236.16 174.528 
L 236.16 174.528 
L 236.16 174.528 
L 236.16 174.528 
L 236.16 174.528 
L 236.16 174.528 
L 236.16 174.528 
L 236.16 174.528 
L 236.16 174.528 
L 236.16 174.528 
L 236.16 174.528 
L 236.16 174.528 
L 236.16 174.528 
L 236.16 174.528 
L 236.16 174.528 
L 236.16 174.528 
L 236.16 174.528 
L 236.16 174.528 
L 236.16 174.528 
L 236.16 174.528 
L 236.16 174.528 
L 236.16 174.528 
L 236.16 174.528 
L 236.16 174.528 
L 236.16 174.528 
L 236.16 174.528 
L 236.16 174.528 
L 236.16 174.528 
L 236.16 174.528 
L 236.16 174.528 
L 236.16 174.528 
L 236.16 174.528 
L 236.16 174.528 
L 236.16 174.528 
L 236.16 174.528 
L 236.16 174.528 
L 236.16 174.528 
L 236.16 174.528 
L 236.16 174.528 
L 236.16 174.528 
L 236.16 174.528 
L 235.152973 173.946593 
L 234.145946 173.365186 
L 233.138919 172.783778 
L 232.131893 172.202371 
L 231.124866 171.620964 
L 230.117839 171.039557 
L 229.110812 170.458149 
L 228.103785 169.876742 
L 227.096758 169.295335 
L 226.089732 168.713928 
L 225.082705 168.132521 
L 224.075678 167.551113 
L 223.068651 166.969706 
L 222.061624 166.388299 
L 221.054597 165.806892 
L 220.04757 165.225484 
L 219.040544 164.644077 
L 218.033517 164.06267 
L 217.02649 163.481263 
L 216.019463 162.899856 
L 215.012436 162.318448 
L 214.005409 161.737041 
L 212.998383 161.155634 
L 211.991356 160.574227 
L 210.984329 159.992819 
L 209.977302 159.411412 
L 208.970275 158.830005 
L 207.963248 158.248598 
L 206.956221 157.667191 
L 205.949195 157.085783 
L 204.942168 156.504376 
L 203.935141 155.922969 
L 202.928114 155.341562 
L 201.921087 154.760154 
L 200.91406 154.178747 
L 199.907034 153.59734 
L 198.900007 153.015933 
L 197.89298 152.434526 
L 196.885953 151.853118 
L 195.878926 151.271711 
L 194.871899 150.690304 
L 193.864872 150.108897 
L 192.857846 149.527489 
L 191.850819 148.946082 
L 190.843792 148.364675 
L 189.836765 147.783268 
L 188.829738 147.201861 
L 187.822711 146.620453 
L 186.815684 146.039046 
L 185.808658 145.457639 
L 184.801631 144.876232 
L 183.794604 144.294824 
L 182.787577 143.713417 
L 181.78055 143.13201 
L 180.773523 142.550603 
L 179.766497 141.969196 
L 178.75947 141.387788 
L 177.752443 140.806381 
L 176.745416 140.224974 
L 175.738389 139.643567 
L 174.731362 139.06216 
L 173.724335 138.480752 
L 172.717309 137.899345 
L 171.710282 137.317938 
L 170.703255 136.736531 
L 169.696228 136.155123 
L 168.689201 135.573716 
L 167.682174 134.992309 
L 166.675148 134.410902 
L 165.668121 133.829495 
L 164.661094 133.248087 
L 163.654067 132.66668 
L 162.64704 132.085273 
L 161.640013 131.503866 
L 160.632986 130.922458 
L 159.62596 130.341051 
L 158.618933 129.759644 
L 157.611906 129.178237 
L 156.604879 128.59683 
L 155.597852 128.015422 
L 154.590825 127.434015 
L 153.583799 126.852608 
L 152.576772 126.271201 
L 151.569745 125.689793 
L 150.562718 125.108386 
L 149.555691 124.526979 
L 148.548664 123.945572 
L 147.541637 123.364165 
L 146.534611 122.782757 
L 145.527584 122.20135 
L 144.520557 121.619943 
L 143.51353 121.038536 
L 142.506503 120.457128 
L 141.499476 119.875721 
L 140.49245 119.294314 
L 139.485423 118.712907 
L 138.478396 118.1315 
L 137.471369 117.550092 
L 136.464342 116.968685 
L 135.457315 116.387278 
L 136.697008 114.291071 
L 137.980329 112.221286 
L 139.306715 110.178831 
L 140.675584 108.164602 
L 142.086335 106.179482 
L 143.538351 104.224342 
L 145.030993 102.300039 
L 146.563607 100.407418 
L 148.135522 98.547308 
L 149.746046 96.720527 
L 151.394475 94.927874 
L 153.080085 93.170136 
L 154.802136 91.448085 
L 156.559874 89.762475 
L 158.352527 88.114046 
L 160.179308 86.503522 
L 162.039418 84.931607 
L 163.932039 83.398993 
L 165.856342 81.906351 
L 167.811482 80.454335 
L 169.796602 79.043584 
L 171.810831 77.674715 
L 173.853286 76.348329 
L 175.923071 75.065008 
L 178.019278 73.825315 
L 180.140987 72.629794 
L 182.287268 71.478968 
L 184.457179 70.373343 
L 186.649769 69.313404 
L 188.864076 68.299615 
L 191.099128 67.332421 
L 193.353945 66.412247 
L 195.627539 65.539497 
L 197.918911 64.714552 
L 200.227058 63.937775 
L 202.550965 63.209506 
L 204.889615 62.530066 
L 207.241981 61.899751 
L 209.607031 61.318839 
L 211.983728 60.787584 
L 214.37103 60.30622 
L 216.767889 59.874957 
L 219.173254 59.493984 
L 221.586071 59.16347 
L 224.005279 58.883558 
L 226.42982 58.654371 
L 228.858628 58.476011 
L 231.290639 58.348554 
L 233.724785 58.272058 
L 236.16 58.246556 
L 238.595215 58.272058 
L 241.029361 58.348554 
L 243.461372 58.476011 
L 245.89018 58.654371 
L 248.314721 58.883558 
L 250.733929 59.16347 
L 253.146746 59.493984 
L 255.552111 59.874957 
L 257.94897 60.30622 
L 260.336272 60.787584 
L 262.712969 61.318839 
L 265.078019 61.899751 
L 267.430385 62.530066 
L 269.769035 63.209506 
L 272.092942 63.937775 
L 274.401089 64.714552 
L 276.692461 65.539497 
L 278.966055 66.412247 
L 281.220872 67.332421 
L 283.455924 68.299615 
L 285.670231 69.313404 
L 287.862821 70.373343 
L 290.032732 71.478968 
L 292.179013 72.629794 
L 294.300722 73.825315 
L 296.396929 75.065008 
L 298.466714 76.348329 
L 300.509169 77.674715 
L 302.523398 79.043584 
L 304.508518 80.454335 
L 306.463658 81.906351 
L 308.387961 83.398993 
L 310.280582 84.931607 
L 312.140692 86.503522 
L 313.967473 88.114046 
L 315.760126 89.762475 
L 317.517864 91.448085 
L 319.239915 93.170136 
L 320.925525 94.927874 
L 322.573954 96.720527 
L 324.184478 98.547308 
L 325.756393 100.407418 
L 327.289007 102.300039 
L 328.781649 104.224342 
L 330.233665 106.179482 
L 331.644416 108.164602 
L 333.013285 110.178831 
L 334.339671 112.221286 
L 335.622992 114.291071 
L 336.862685 116.387278 
L 335.855658 116.968685 
L 334.848631 117.550092 
L 333.841604 118.1315 
L 332.834577 118.712907 
L 331.82755 119.294314 
L 330.820524 119.875721 
L 329.813497 120.457128 
L 328.80647 121.038536 
L 327.799443 121.619943 
L 326.792416 122.20135 
L 325.785389 122.782757 
L 324.778363 123.364165 
L 323.771336 123.945572 
L 322.764309 124.526979 
L 321.757282 125.108386 
L 320.750255 125.689793 
L 319.743228 126.271201 
L 318.736201 126.852608 
L 317.729175 127.434015 
L 316.722148 128.015422 
L 315.715121 128.59683 
L 314.708094 129.178237 
L 313.701067 129.759644 
L 312.69404 130.341051 
L 311.687014 130.922458 
L 310.679987 131.503866 
L 309.67296 132.085273 
L 308.665933 132.66668 
L 307.658906 133.248087 
L 306.651879 133.829495 
L 305.644852 134.410902 
L 304.637826 134.992309 
L 303.630799 135.573716 
L 302.623772 136.155123 
L 301.616745 136.736531 
L 300.609718 137.317938 
L 299.602691 137.899345 
L 298.595665 138.480752 
L 297.588638 139.06216 
L 296.581611 139.643567 
L 295.574584 140.224974 
L 294.567557 140.806381 
L 293.56053 141.387788 
L 292.553503 141.969196 
L 291.546477 142.550603 
L 290.53945 143.13201 
L 289.532423 143.713417 
L 288.525396 144.294824 
L 287.518369 144.876232 
L 286.511342 145.457639 
L 285.504316 146.039046 
L 284.497289 146.620453 
L 283.490262 147.201861 
L 282.483235 147.783268 
L 281.476208 148.364675 
L 280.469181 148.946082 
L 279.462154 149.527489 
L 278.455128 150.108897 
L 277.448101 150.690304 
L 276.441074 151.271711 
L 275.434047 151.853118 
L 274.42702 152.434526 
L 273.419993 153.015933 
L 272.412966 153.59734 
L 271.40594 154.178747 
L 270.398913 154.760154 
L 269.391886 155.341562 
L 268.384859 155.922969 
L 267.377832 156.504376 
L 266.370805 157.085783 
L 265.363779 157.667191 
L 264.356752 158.248598 
L 263.349725 158.830005 
L 262.342698 159.411412 
L 261.335671 159.992819 
L 260.328644 160.574227 
L 259.321617 161.155634 
L 258.314591 161.737041 
L 257.307564 162.318448 
L 256.300537 162.899856 
L 255.29351 163.481263 
L 254.286483 164.06267 
L 253.279456 164.644077 
L 252.27243 165.225484 
L 251.265403 165.806892 
L 250.258376 166.388299 
L 249.251349 166.969706 
L 248.244322 167.551113 
L 247.237295 168.132521 
L 246.230268 168.713928 
L 245.223242 169.295335 
L 244.216215 169.876742 
L 243.209188 170.458149 
L 242.202161 171.039557 
L 241.195134 171.620964 
L 240.188107 172.202371 
L 239.181081 172.783778 
L 238.174054 173.365186 
L 237.167027 173.946593 
z
" style="fill:#fabe28;"/>
   </g>
   <g id="patch_3">
    <path clip-path="url(#p0b162148fd)" d="M 336.862685 116.387278 
L 335.622992 114.291071 
L 334.339671 112.221286 
L 333.013285 110.178831 
L 331.644416 108.164602 
L 330.233665 106.179482 
L 328.781649 104.224342 
L 327.289007 102.300039 
L 325.756393 100.407418 
L 324.184478 98.547308 
L 322.573954 96.720527 
L 320.925525 94.927874 
L 319.239915 93.170136 
L 317.517864 91.448085 
L 315.760126 89.762475 
L 313.967473 88.114046 
L 312.140692 86.503522 
L 310.280582 84.931607 
L 308.387961 83.398993 
L 306.463658 81.906351 
L 304.508518 80.454335 
L 302.523398 79.043584 
L 300.509169 77.674715 
L 298.466714 76.348329 
L 296.396929 75.065008 
L 294.300722 73.825315 
L 292.179013 72.629794 
L 290.032732 71.478968 
L 287.862821 70.373343 
L 285.670231 69.313404 
L 283.455924 68.299615 
L 281.220872 67.332421 
L 278.966055 66.412247 
L 276.692461 65.539497 
L 274.401089 64.714552 
L 272.092942 63.937775 
L 269.769035 63.209506 
L 267.430385 62.530066 
L 265.078019 61.899751 
L 262.712969 61.318839 
L 260.336272 60.787584 
L 257.94897 60.30622 
L 255.552111 59.874957 
L 253.146746 59.493984 
L 250.733929 59.16347 
L 248.314721 58.883558 
L 245.89018 58.654371 
L 243.461372 58.476011 
L 241.029361 58.348554 
L 238.595215 58.272058 
L 236.16 58.246556 
L 233.724785 58.272058 
L 231.290639 58.348554 
L 228.858628 58.476011 
L 226.42982 58.654371 
L 224.005279 58.883558 
L 221.586071 59.16347 
L 219.173254 59.493984 
L 216.767889 59.874957 
L 214.37103 60.30622 
L 211.983728 60.787584 
L 209.607031 61.318839 
L 207.241981 61.899751 
L 204.889615 62.530066 
L 202.550965 63.209506 
L 200.227058 63.937775 
L 197.918911 64.714552 
L 195.627539 65.539497 
L 193.353945 66.412247 
L 191.099128 67.332421 
L 188.864076 68.299615 
L 186.649769 69.313404 
L 184.457179 70.373343 
L 182.287268 71.478968 
L 180.140987 72.629794 
L 178.019278 73.825315 
L 175.923071 75.065008 
L 173.853286 76.348329 
L 171.810831 77.674715 
L 169.796602 79.043584 
L 167.811482 80.454335 
L 165.856342 81.906351 
L 163.932039 83.398993 
L 162.039418 84.931607 
L 160.179308 86.503522 
L 158.352527 88.114046 
L 156.559874 89.762475 
L 154.802136 91.448085 
L 153.080085 93.170136 
L 151.394475 94.927874 
L 149.746046 96.720527 
L 148.135522 98.547308 
L 146.563607 100.407418 
L 145.030993 102.300039 
L 143.538351 104.224342 
L 142.086335 106.179482 
L 140.675584 108.164602 
L 139.306715 110.178831 
L 137.980329 112.221286 
L 136.697008 114.291071 
L 135.457315 116.387278 
L 135.450858 116.38355 
L 135.444401 116.379822 
L 135.437944 116.376094 
L 135.431487 116.372366 
L 135.425029 116.368638 
L 135.418572 116.36491 
L 135.412115 116.361181 
L 135.405658 116.357453 
L 135.399201 116.353725 
L 135.392743 116.349997 
L 135.386286 116.346269 
L 135.379829 116.342541 
L 135.373372 116.338813 
L 135.366915 116.335085 
L 135.360458 116.331357 
L 135.354 116.327629 
L 135.347543 116.323901 
L 135.341086 116.320173 
L 135.334629 116.316445 
L 135.328172 116.312717 
L 135.321714 116.308989 
L 135.315257 116.305261 
L 135.3088 116.301533 
L 135.302343 116.297805 
L 135.295886 116.294076 
L 135.289429 116.290348 
L 135.282971 116.28662 
L 135.276514 116.282892 
L 135.270057 116.279164 
L 135.2636 116.275436 
L 135.257143 116.271708 
L 135.250685 116.26798 
L 135.244228 116.264252 
L 135.237771 116.260524 
L 135.231314 116.256796 
L 135.224857 116.253068 
L 135.2184 116.24934 
L 135.211942 116.245612 
L 135.205485 116.241884 
L 135.199028 116.238156 
L 135.192571 116.234428 
L 135.186114 116.2307 
L 135.179656 116.226971 
L 135.173199 116.223243 
L 135.166742 116.219515 
L 135.160285 116.215787 
L 135.153828 116.212059 
L 135.147371 116.208331 
L 135.140913 116.204603 
L 135.134456 116.200875 
L 135.127999 116.197147 
L 135.121542 116.193419 
L 135.115085 116.189691 
L 135.108627 116.185963 
L 135.10217 116.182235 
L 135.095713 116.178507 
L 135.089256 116.174779 
L 135.082799 116.171051 
L 135.076342 116.167323 
L 135.069884 116.163595 
L 135.063427 116.159866 
L 135.05697 116.156138 
L 135.050513 116.15241 
L 135.044056 116.148682 
L 135.037598 116.144954 
L 135.031141 116.141226 
L 135.024684 116.137498 
L 135.018227 116.13377 
L 135.01177 116.130042 
L 135.005313 116.126314 
L 134.998855 116.122586 
L 134.992398 116.118858 
L 134.985941 116.11513 
L 134.979484 116.111402 
L 134.973027 116.107674 
L 134.966569 116.103946 
L 134.960112 116.100218 
L 134.953655 116.09649 
L 134.947198 116.092761 
L 134.940741 116.089033 
L 134.934284 116.085305 
L 134.927826 116.081577 
L 134.921369 116.077849 
L 134.914912 116.074121 
L 134.908455 116.070393 
L 134.901998 116.066665 
L 134.89554 116.062937 
L 134.889083 116.059209 
L 134.882626 116.055481 
L 134.876169 116.051753 
L 134.869712 116.048025 
L 134.863255 116.044297 
L 134.856797 116.040569 
L 134.85034 116.036841 
L 134.843883 116.033113 
L 134.837426 116.029385 
L 134.830969 116.025656 
L 134.824511 116.021928 
L 134.818054 116.0182 
L 134.811597 116.014472 
L 136.059239 113.904824 
L 137.350789 111.821768 
L 138.68568 109.766217 
L 140.063326 107.739072 
L 141.483123 105.741223 
L 142.944449 103.773546 
L 144.446662 101.836904 
L 145.989104 99.932147 
L 147.571098 98.060111 
L 149.191949 96.221615 
L 150.850948 94.417468 
L 152.547366 92.64846 
L 154.28046 90.915366 
L 156.049468 89.218948 
L 157.853615 87.559949 
L 159.692111 85.939098 
L 161.564147 84.357104 
L 163.468904 82.814662 
L 165.405546 81.312449 
L 167.373223 79.851123 
L 169.371072 78.431326 
L 171.398217 77.05368 
L 173.453768 75.718789 
L 175.536824 74.427239 
L 177.646472 73.179597 
L 179.781786 71.97641 
L 181.941829 70.818205 
L 184.125654 69.70549 
L 186.332303 68.638754 
L 188.560808 67.618465 
L 190.810192 66.64507 
L 193.079468 65.718996 
L 195.36764 64.840649 
L 197.673705 64.010414 
L 199.996651 63.228656 
L 202.33546 62.495718 
L 204.689105 61.811921 
L 207.056555 61.177565 
L 209.43677 60.592928 
L 211.828707 60.058267 
L 214.231317 59.573816 
L 216.643545 59.139787 
L 219.064333 58.756372 
L 221.492621 58.423738 
L 223.927342 58.142031 
L 226.367428 57.911375 
L 228.81181 57.731871 
L 231.259416 57.603597 
L 233.70917 57.526611 
L 236.16 57.500945 
L 238.61083 57.526611 
L 241.060584 57.603597 
L 243.50819 57.731871 
L 245.952572 57.911375 
L 248.392658 58.142031 
L 250.827379 58.423738 
L 253.255667 58.756372 
L 255.676455 59.139787 
L 258.088683 59.573816 
L 260.491293 60.058267 
L 262.88323 60.592928 
L 265.263445 61.177565 
L 267.630895 61.811921 
L 269.98454 62.495718 
L 272.323349 63.228656 
L 274.646295 64.010414 
L 276.95236 64.840649 
L 279.240532 65.718996 
L 281.509808 66.64507 
L 283.759192 67.618465 
L 285.987697 68.638754 
L 288.194346 69.70549 
L 290.378171 70.818205 
L 292.538214 71.97641 
L 294.673528 73.179597 
L 296.783176 74.427239 
L 298.866232 75.718789 
L 300.921783 77.05368 
L 302.948928 78.431326 
L 304.946777 79.851123 
L 306.914454 81.312449 
L 308.851096 82.814662 
L 310.755853 84.357104 
L 312.627889 85.939098 
L 314.466385 87.559949 
L 316.270532 89.218948 
L 318.03954 90.915366 
L 319.772634 92.64846 
L 321.469052 94.417468 
L 323.128051 96.221615 
L 324.748902 98.060111 
L 326.330896 99.932147 
L 327.873338 101.836904 
L 329.375551 103.773546 
L 330.836877 105.741223 
L 332.256674 107.739072 
L 333.63432 109.766217 
L 334.969211 111.821768 
L 336.260761 113.904824 
L 337.508403 116.014472 
L 337.501946 116.0182 
L 337.495489 116.021928 
L 337.489031 116.025656 
L 337.482574 116.029385 
L 337.476117 116.033113 
L 337.46966 116.036841 
L 337.463203 116.040569 
L 337.456745 116.044297 
L 337.450288 116.048025 
L 337.443831 116.051753 
L 337.437374 116.055481 
L 337.430917 116.059209 
L 337.42446 116.062937 
L 337.418002 116.066665 
L 337.411545 116.070393 
L 337.405088 116.074121 
L 337.398631 116.077849 
L 337.392174 116.081577 
L 337.385716 116.085305 
L 337.379259 116.089033 
L 337.372802 116.092761 
L 337.366345 116.09649 
L 337.359888 116.100218 
L 337.353431 116.103946 
L 337.346973 116.107674 
L 337.340516 116.111402 
L 337.334059 116.11513 
L 337.327602 116.118858 
L 337.321145 116.122586 
L 337.314687 116.126314 
L 337.30823 116.130042 
L 337.301773 116.13377 
L 337.295316 116.137498 
L 337.288859 116.141226 
L 337.282402 116.144954 
L 337.275944 116.148682 
L 337.269487 116.15241 
L 337.26303 116.156138 
L 337.256573 116.159866 
L 337.250116 116.163595 
L 337.243658 116.167323 
L 337.237201 116.171051 
L 337.230744 116.174779 
L 337.224287 116.178507 
L 337.21783 116.182235 
L 337.211373 116.185963 
L 337.204915 116.189691 
L 337.198458 116.193419 
L 337.192001 116.197147 
L 337.185544 116.200875 
L 337.179087 116.204603 
L 337.172629 116.208331 
L 337.166172 116.212059 
L 337.159715 116.215787 
L 337.153258 116.219515 
L 337.146801 116.223243 
L 337.140344 116.226971 
L 337.133886 116.2307 
L 337.127429 116.234428 
L 337.120972 116.238156 
L 337.114515 116.241884 
L 337.108058 116.245612 
L 337.1016 116.24934 
L 337.095143 116.253068 
L 337.088686 116.256796 
L 337.082229 116.260524 
L 337.075772 116.264252 
L 337.069315 116.26798 
L 337.062857 116.271708 
L 337.0564 116.275436 
L 337.049943 116.279164 
L 337.043486 116.282892 
L 337.037029 116.28662 
L 337.030571 116.290348 
L 337.024114 116.294076 
L 337.017657 116.297805 
L 337.0112 116.301533 
L 337.004743 116.305261 
L 336.998286 116.308989 
L 336.991828 116.312717 
L 336.985371 116.316445 
L 336.978914 116.320173 
L 336.972457 116.323901 
L 336.966 116.327629 
L 336.959542 116.331357 
L 336.953085 116.335085 
L 336.946628 116.338813 
L 336.940171 116.342541 
L 336.933714 116.346269 
L 336.927257 116.349997 
L 336.920799 116.353725 
L 336.914342 116.357453 
L 336.907885 116.361181 
L 336.901428 116.36491 
L 336.894971 116.368638 
L 336.888513 116.372366 
L 336.882056 116.376094 
L 336.875599 116.379822 
L 336.869142 116.38355 
z
" style="fill:#ff003c;"/>
   </g>
   <g id="patch_4">
    <path clip-path="url(#p0b162148fd)" d="M 337.508403 116.014472 
L 336.260761 113.904824 
L 334.969211 111.821768 
L 333.63432 109.766217 
L 332.256674 107.739072 
L 330.836877 105.741223 
L 329.375551 103.773546 
L 327.873338 101.836904 
L 326.330896 99.932147 
L 324.748902 98.060111 
L 323.128051 96.221615 
L 321.469052 94.417468 
L 319.772634 92.64846 
L 318.03954 90.915366 
L 316.270532 89.218948 
L 314.466385 87.559949 
L 312.627889 85.939098 
L 310.755853 84.357104 
L 308.851096 82.814662 
L 306.914454 81.312449 
L 304.946777 79.851123 
L 302.948928 78.431326 
L 300.921783 77.05368 
L 298.866232 75.718789 
L 296.783176 74.427239 
L 294.673528 73.179597 
L 292.538214 71.97641 
L 290.378171 70.818205 
L 288.194346 69.70549 
L 285.987697 68.638754 
L 283.759192 67.618465 
L 281.509808 66.64507 
L 279.240532 65.718996 
L 276.95236 64.840649 
L 274.646295 64.010414 
L 272.323349 63.228656 
L 269.98454 62.495718 
L 267.630895 61.811921 
L 265.263445 61.177565 
L 262.88323 60.592928 
L 260.491293 60.058267 
L 258.088683 59.573816 
L 255.676455 59.139787 
L 253.255667 58.756372 
L 250.827379 58.423738 
L 248.392658 58.142031 
L 245.952572 57.911375 
L 243.50819 57.731871 
L 241.060584 57.603597 
L 238.61083 57.526611 
L 236.16 57.500945 
L 233.70917 57.526611 
L 231.259416 57.603597 
L 228.81181 57.731871 
L 226.367428 57.911375 
L 223.927342 58.142031 
L 221.492621 58.423738 
L 219.064333 58.756372 
L 216.643545 59.139787 
L 214.231317 59.573816 
L 211.828707 60.058267 
L 209.43677 60.592928 
L 207.056555 61.177565 
L 204.689105 61.811921 
L 202.33546 62.495718 
L 199.996651 63.228656 
L 197.673705 64.010414 
L 195.36764 64.840649 
L 193.079468 65.718996 
L 190.810192 66.64507 
L 188.560808 67.618465 
L 186.332303 68.638754 
L 184.125654 69.70549 
L 181.941829 70.818205 
L 179.781786 71.97641 
L 177.646472 73.179597 
L 175.536824 74.427239 
L 173.453768 75.718789 
L 171.398217 77.05368 
L 169.371072 78.431326 
L 167.373223 79.851123 
L 165.405546 81.312449 
L 163.468904 82.814662 
L 161.564147 84.357104 
L 159.692111 85.939098 
L 157.853615 87.559949 
L 156.049468 89.218948 
L 154.28046 90.915366 
L 152.547366 92.64846 
L 150.850948 94.417468 
L 149.191949 96.221615 
L 147.571098 98.060111 
L 145.989104 99.932147 
L 144.446662 101.836904 
L 142.944449 103.773546 
L 141.483123 105.741223 
L 140.063326 107.739072 
L 138.68568 109.766217 
L 137.350789 111.821768 
L 136.059239 113.904824 
L 134.811597 116.014472 
L 134.791785 116.003034 
L 134.771974 115.991596 
L 134.752162 115.980157 
L 134.73235 115.968719 
L 134.712538 115.957281 
L 134.692726 115.945842 
L 134.672914 115.934404 
L 134.653103 115.922965 
L 134.633291 115.911527 
L 134.613479 115.900089 
L 134.593667 115.88865 
L 134.573855 115.877212 
L 134.554044 115.865774 
L 134.534232 115.854335 
L 134.51442 115.842897 
L 134.494608 115.831459 
L 134.474796 115.82002 
L 134.454985 115.808582 
L 134.435173 115.797144 
L 134.415361 115.785705 
L 134.395549 115.774267 
L 134.375737 115.762829 
L 134.355926 115.75139 
L 134.336114 115.739952 
L 134.316302 115.728514 
L 134.29649 115.717075 
L 134.276678 115.705637 
L 134.256867 115.694198 
L 134.237055 115.68276 
L 134.217243 115.671322 
L 134.197431 115.659883 
L 134.177619 115.648445 
L 134.157807 115.637007 
L 134.137996 115.625568 
L 134.118184 115.61413 
L 134.098372 115.602692 
L 134.07856 115.591253 
L 134.058748 115.579815 
L 134.038937 115.568377 
L 134.019125 115.556938 
L 133.999313 115.5455 
L 133.979501 115.534062 
L 133.959689 115.522623 
L 133.939878 115.511185 
L 133.920066 115.499746 
L 133.900254 115.488308 
L 133.880442 115.47687 
L 133.86063 115.465431 
L 133.840819 115.453993 
L 133.821007 115.442555 
L 133.801195 115.431116 
L 133.781383 115.419678 
L 133.761571 115.40824 
L 133.74176 115.396801 
L 133.721948 115.385363 
L 133.702136 115.373925 
L 133.682324 115.362486 
L 133.662512 115.351048 
L 133.6427 115.33961 
L 133.622889 115.328171 
L 133.603077 115.316733 
L 133.583265 115.305294 
L 133.563453 115.293856 
L 133.543641 115.282418 
L 133.52383 115.270979 
L 133.504018 115.259541 
L 133.484206 115.248103 
L 133.464394 115.236664 
L 133.444582 115.225226 
L 133.424771 115.213788 
L 133.404959 115.202349 
L 133.385147 115.190911 
L 133.365335 115.179473 
L 133.345523 115.168034 
L 133.325712 115.156596 
L 133.3059 115.145158 
L 133.286088 115.133719 
L 133.266276 115.122281 
L 133.246464 115.110842 
L 133.226653 115.099404 
L 133.206841 115.087966 
L 133.187029 115.076527 
L 133.167217 115.065089 
L 133.147405 115.053651 
L 133.127593 115.042212 
L 133.107782 115.030774 
L 133.08797 115.019336 
L 133.068158 115.007897 
L 133.048346 114.996459 
L 133.028534 114.985021 
L 133.008723 114.973582 
L 132.988911 114.962144 
L 132.969099 114.950706 
L 132.949287 114.939267 
L 132.929475 114.927829 
L 132.909664 114.91639 
L 132.889852 114.904952 
L 132.87004 114.893514 
L 132.850228 114.882075 
L 132.830416 114.870637 
L 134.102448 112.719749 
L 135.419245 110.595973 
L 136.78023 108.500239 
L 138.184807 106.433467 
L 139.632359 104.396564 
L 141.122251 102.390422 
L 142.65383 100.415923 
L 144.226424 98.473931 
L 145.839342 96.5653 
L 147.491879 94.690865 
L 149.183308 92.85145 
L 150.912888 91.04786 
L 152.67986 89.280888 
L 154.48345 87.551308 
L 156.322865 85.859879 
L 158.1973 84.207342 
L 160.105931 82.594424 
L 162.047923 81.02183 
L 164.022422 79.490251 
L 166.028564 78.000359 
L 168.065467 76.552807 
L 170.132239 75.14823 
L 172.227973 73.787245 
L 174.351749 72.470448 
L 176.502637 71.198416 
L 178.679692 69.971709 
L 180.881961 68.790863 
L 183.108475 67.656397 
L 185.358261 66.568808 
L 187.630329 65.528574 
L 189.923684 64.536151 
L 192.23732 63.591973 
L 194.570222 62.696456 
L 196.921366 61.849992 
L 199.289722 61.052952 
L 201.67425 60.305687 
L 204.073905 59.608522 
L 206.487634 58.961766 
L 208.914379 58.3657 
L 211.353074 57.820587 
L 213.80265 57.326666 
L 216.262033 56.884153 
L 218.730143 56.493243 
L 221.2059 56.154106 
L 223.688215 55.866893 
L 226.176001 55.631728 
L 228.668166 55.448714 
L 231.163618 55.317933 
L 233.661261 55.239442 
L 236.16 55.213274 
L 238.658739 55.239442 
L 241.156382 55.317933 
L 243.651834 55.448714 
L 246.143999 55.631728 
L 248.631785 55.866893 
L 251.1141 56.154106 
L 253.589857 56.493243 
L 256.057967 56.884153 
L 258.51735 57.326666 
L 260.966926 57.820587 
L 263.405621 58.3657 
L 265.832366 58.961766 
L 268.246095 59.608522 
L 270.64575 60.305687 
L 273.030278 61.052952 
L 275.398634 61.849992 
L 277.749778 62.696456 
L 280.08268 63.591973 
L 282.396316 64.536151 
L 284.689671 65.528574 
L 286.961739 66.568808 
L 289.211525 67.656397 
L 291.438039 68.790863 
L 293.640308 69.971709 
L 295.817363 71.198416 
L 297.968251 72.470448 
L 300.092027 73.787245 
L 302.187761 75.14823 
L 304.254533 76.552807 
L 306.291436 78.000359 
L 308.297578 79.490251 
L 310.272077 81.02183 
L 312.214069 82.594424 
L 314.1227 84.207342 
L 315.997135 85.859879 
L 317.83655 87.551308 
L 319.64014 89.280888 
L 321.407112 91.04786 
L 323.136692 92.85145 
L 324.828121 94.690865 
L 326.480658 96.5653 
L 328.093576 98.473931 
L 329.66617 100.415923 
L 331.197749 102.390422 
L 332.687641 104.396564 
L 334.135193 106.433467 
L 335.53977 108.500239 
L 336.900755 110.595973 
L 338.217552 112.719749 
L 339.489584 114.870637 
L 339.469772 114.882075 
L 339.44996 114.893514 
L 339.430148 114.904952 
L 339.410336 114.91639 
L 339.390525 114.927829 
L 339.370713 114.939267 
L 339.350901 114.950706 
L 339.331089 114.962144 
L 339.311277 114.973582 
L 339.291466 114.985021 
L 339.271654 114.996459 
L 339.251842 115.007897 
L 339.23203 115.019336 
L 339.212218 115.030774 
L 339.192407 115.042212 
L 339.172595 115.053651 
L 339.152783 115.065089 
L 339.132971 115.076527 
L 339.113159 115.087966 
L 339.093347 115.099404 
L 339.073536 115.110842 
L 339.053724 115.122281 
L 339.033912 115.133719 
L 339.0141 115.145158 
L 338.994288 115.156596 
L 338.974477 115.168034 
L 338.954665 115.179473 
L 338.934853 115.190911 
L 338.915041 115.202349 
L 338.895229 115.213788 
L 338.875418 115.225226 
L 338.855606 115.236664 
L 338.835794 115.248103 
L 338.815982 115.259541 
L 338.79617 115.270979 
L 338.776359 115.282418 
L 338.756547 115.293856 
L 338.736735 115.305294 
L 338.716923 115.316733 
L 338.697111 115.328171 
L 338.6773 115.33961 
L 338.657488 115.351048 
L 338.637676 115.362486 
L 338.617864 115.373925 
L 338.598052 115.385363 
L 338.57824 115.396801 
L 338.558429 115.40824 
L 338.538617 115.419678 
L 338.518805 115.431116 
L 338.498993 115.442555 
L 338.479181 115.453993 
L 338.45937 115.465431 
L 338.439558 115.47687 
L 338.419746 115.488308 
L 338.399934 115.499746 
L 338.380122 115.511185 
L 338.360311 115.522623 
L 338.340499 115.534062 
L 338.320687 115.5455 
L 338.300875 115.556938 
L 338.281063 115.568377 
L 338.261252 115.579815 
L 338.24144 115.591253 
L 338.221628 115.602692 
L 338.201816 115.61413 
L 338.182004 115.625568 
L 338.162193 115.637007 
L 338.142381 115.648445 
L 338.122569 115.659883 
L 338.102757 115.671322 
L 338.082945 115.68276 
L 338.063133 115.694198 
L 338.043322 115.705637 
L 338.02351 115.717075 
L 338.003698 115.728514 
L 337.983886 115.739952 
L 337.964074 115.75139 
L 337.944263 115.762829 
L 337.924451 115.774267 
L 337.904639 115.785705 
L 337.884827 115.797144 
L 337.865015 115.808582 
L 337.845204 115.82002 
L 337.825392 115.831459 
L 337.80558 115.842897 
L 337.785768 115.854335 
L 337.765956 115.865774 
L 337.746145 115.877212 
L 337.726333 115.88865 
L 337.706521 115.900089 
L 337.686709 115.911527 
L 337.666897 115.922965 
L 337.647086 115.934404 
L 337.627274 115.945842 
L 337.607462 115.957281 
L 337.58765 115.968719 
L 337.567838 115.980157 
L 337.548026 115.991596 
L 337.528215 116.003034 
z
" style="fill:#88c100;"/>
   </g>
   <g id="patch_5">
    <path clip-path="url(#p0b162148fd)" d="M 236.16 174.528 
L 236.16 174.528 
L 236.16 174.528 
L 236.16 174.528 
L 236.16 174.528 
L 236.16 174.528 
L 236.16 174.528 
L 236.16 174.528 
L 236.16 174.528 
L 236.16 174.528 
L 236.16 174.528 
L 236.16 174.528 
L 236.16 174.528 
L 236.16 174.528 
L 236.16 174.528 
L 236.16 174.528 
L 236.16 174.528 
L 236.16 174.528 
L 236.16 174.528 
L 236.16 174.528 
L 236.16 174.528 
L 236.16 174.528 
L 236.16 174.528 
L 236.16 174.528 
L 236.16 174.528 
L 236.16 174.528 
L 236.16 174.528 
L 236.16 174.528 
L 236.16 174.528 
L 236.16 174.528 
L 236.16 174.528 
L 236.16 174.528 
L 236.16 174.528 
L 236.16 174.528 
L 236.16 174.528 
L 236.16 174.528 
L 236.16 174.528 
L 236.16 174.528 
L 236.16 174.528 
L 236.16 174.528 
L 236.16 174.528 
L 236.16 174.528 
L 236.16 174.528 
L 236.16 174.528 
L 236.16 174.528 
L 236.16 174.528 
L 236.16 174.528 
L 236.16 174.528 
L 236.16 174.528 
L 236.16 174.528 
L 236.16 174.528 
L 236.16 174.528 
L 236.16 174.528 
L 236.16 174.528 
L 236.16 174.528 
L 236.16 174.528 
L 236.16 174.528 
L 236.16 174.528 
L 236.16 174.528 
L 236.16 174.528 
L 236.16 174.528 
L 236.16 174.528 
L 236.16 174.528 
L 236.16 174.528 
L 236.16 174.528 
L 236.16 174.528 
L 236.16 174.528 
L 236.16 174.528 
L 236.16 174.528 
L 236.16 174.528 
L 236.16 174.528 
L 236.16 174.528 
L 236.16 174.528 
L 236.16 174.528 
L 236.16 174.528 
L 236.16 174.528 
L 236.16 174.528 
L 236.16 174.528 
L 236.16 174.528 
L 236.16 174.528 
L 236.16 174.528 
L 236.16 174.528 
L 236.16 174.528 
L 236.16 174.528 
L 236.16 174.528 
L 236.16 174.528 
L 236.16 174.528 
L 236.16 174.528 
L 236.16 174.528 
L 236.16 174.528 
L 236.16 174.528 
L 236.16 174.528 
L 236.16 174.528 
L 236.16 174.528 
L 236.16 174.528 
L 236.16 174.528 
L 236.16 174.528 
L 236.16 174.528 
L 236.16 174.528 
L 236.16 174.528 
L 236.16 174.528 
L 236.16 175.73894 
L 236.16 176.949881 
L 236.16 178.160821 
L 236.16 179.371761 
L 236.16 180.582701 
L 236.16 181.793642 
L 236.16 183.004582 
L 236.16 184.215522 
L 236.16 185.426462 
L 236.16 186.637403 
L 236.16 187.848343 
L 236.16 189.059283 
L 236.16 190.270223 
L 236.16 191.481164 
L 236.16 192.692104 
L 236.16 193.903044 
L 236.16 195.113984 
L 236.16 196.324925 
L 236.16 197.535865 
L 236.16 198.746805 
L 236.16 199.957745 
L 236.16 201.168686 
L 236.16 202.379626 
L 236.16 203.590566 
L 236.16 204.801506 
L 236.16 206.012447 
L 236.16 207.223387 
L 236.16 208.434327 
L 236.16 209.645267 
L 236.16 210.856208 
L 236.16 212.067148 
L 236.16 213.278088 
L 236.16 214.489028 
L 236.16 215.699969 
L 236.16 216.910909 
L 236.16 218.121849 
L 236.16 219.332789 
L 236.16 220.54373 
L 236.16 221.75467 
L 236.16 222.96561 
L 236.16 224.17655 
L 236.16 225.387491 
L 236.16 226.598431 
L 236.16 227.809371 
L 236.16 229.020311 
L 236.16 230.231252 
L 236.16 231.442192 
L 236.16 232.653132 
L 236.16 233.864072 
L 236.16 235.075013 
L 236.16 236.285953 
L 236.16 237.496893 
L 236.16 238.707833 
L 236.16 239.918774 
L 236.16 241.129714 
L 236.16 242.340654 
L 236.16 243.551594 
L 236.16 244.762535 
L 236.16 245.973475 
L 236.16 247.184415 
L 236.16 248.395355 
L 236.16 249.606296 
L 236.16 250.817236 
L 236.16 252.028176 
L 236.16 253.239116 
L 236.16 254.450057 
L 236.16 255.660997 
L 236.16 256.871937 
L 236.16 258.082877 
L 236.16 259.293818 
L 236.16 260.504758 
L 236.16 261.715698 
L 236.16 262.926638 
L 236.16 264.137579 
L 236.16 265.348519 
L 236.16 266.559459 
L 236.16 267.770399 
L 236.16 268.98134 
L 236.16 270.19228 
L 236.16 271.40322 
L 236.16 272.61416 
L 236.16 273.825101 
L 236.16 275.036041 
L 236.16 276.246981 
L 236.16 277.457921 
L 236.16 278.668862 
L 236.16 279.879802 
L 236.16 281.090742 
L 236.16 282.301682 
L 236.16 283.512623 
L 236.16 284.723563 
L 236.16 285.934503 
L 236.16 287.145443 
L 236.16 288.356384 
L 236.16 289.567324 
L 236.16 290.778264 
L 236.16 291.989204 
L 236.16 293.200145 
L 236.16 294.411085 
L 236.16 295.622025 
L 233.623998 295.595467 
L 231.089109 295.515805 
L 228.556443 295.383074 
L 226.027113 295.197331 
L 223.502228 294.958659 
L 220.982894 294.667163 
L 218.470218 294.322969 
L 215.965301 293.926229 
L 213.469242 293.477117 
L 210.983136 292.97583 
L 208.508074 292.422588 
L 206.045141 291.817634 
L 203.595416 291.161232 
L 201.159976 290.453671 
L 198.739888 289.695262 
L 196.336214 288.886336 
L 193.950008 288.027249 
L 191.582316 287.118377 
L 189.234178 286.16012 
L 186.906623 285.152897 
L 184.600672 284.09715 
L 182.317336 282.993342 
L 180.057618 281.841959 
L 177.822508 280.643503 
L 175.612987 279.398502 
L 173.430024 278.107501 
L 171.274577 276.771067 
L 169.14759 275.389786 
L 167.049997 273.964263 
L 164.982718 272.495124 
L 162.94666 270.983014 
L 160.942715 269.428595 
L 158.971763 267.83255 
L 157.034669 266.195578 
L 155.132282 264.518398 
L 153.265436 262.801745 
L 151.43495 261.046373 
L 149.641627 259.25305 
L 147.886255 257.422564 
L 146.169602 255.555718 
L 144.492422 253.653331 
L 142.85545 251.716237 
L 141.259405 249.745285 
L 139.704986 247.74134 
L 138.192876 245.705282 
L 136.723737 243.638003 
L 135.298214 241.54041 
L 133.916933 239.413423 
L 132.580499 237.257976 
L 131.289498 235.075013 
L 130.044497 232.865492 
L 128.846041 230.630382 
L 127.694658 228.370664 
L 126.59085 226.087328 
L 125.535103 223.781377 
L 124.52788 221.453822 
L 123.569623 219.105684 
L 122.660751 216.737992 
L 121.801664 214.351786 
L 120.992738 211.948112 
L 120.234329 209.528024 
L 119.526768 207.092584 
L 118.870366 204.642859 
L 118.265412 202.179926 
L 117.71217 199.704864 
L 117.210883 197.218758 
L 116.761771 194.722699 
L 116.365031 192.217782 
L 116.020837 189.705106 
L 115.729341 187.185772 
L 115.490669 184.660887 
L 115.304926 182.131557 
L 115.172195 179.598891 
L 115.092533 177.064002 
L 115.065975 174.528 
L 115.092533 171.991998 
L 115.172195 169.457109 
L 115.304926 166.924443 
L 115.490669 164.395113 
L 115.729341 161.870228 
L 116.020837 159.350894 
L 116.365031 156.838218 
L 116.761771 154.333301 
L 117.210883 151.837242 
L 117.71217 149.351136 
L 118.265412 146.876074 
L 118.870366 144.413141 
L 119.526768 141.963416 
L 120.234329 139.527976 
L 120.992738 137.107888 
L 121.801664 134.704214 
L 122.660751 132.318008 
L 123.569623 129.950316 
L 124.52788 127.602178 
L 125.535103 125.274623 
L 126.59085 122.968672 
L 127.694658 120.685336 
L 128.846041 118.425618 
L 130.044497 116.190508 
L 131.289498 113.980987 
L 132.338203 114.586458 
L 133.386908 115.191928 
L 134.435613 115.797398 
L 135.484318 116.402868 
L 136.533023 117.008338 
L 137.581728 117.613808 
L 138.630433 118.219278 
L 139.679138 118.824748 
L 140.727843 119.430219 
L 141.776548 120.035689 
L 142.825253 120.641159 
L 143.873958 121.246629 
L 144.922663 121.852099 
L 145.971368 122.457569 
L 147.020073 123.063039 
L 148.068778 123.668509 
L 149.117483 124.27398 
L 150.166188 124.87945 
L 151.214893 125.48492 
L 152.263598 126.09039 
L 153.312303 126.69586 
L 154.361008 127.30133 
L 155.409713 127.9068 
L 156.458418 128.51227 
L 157.507123 129.117741 
L 158.555829 129.723211 
L 159.604534 130.328681 
L 160.653239 130.934151 
L 161.701944 131.539621 
L 162.750649 132.145091 
L 163.799354 132.750561 
L 164.848059 133.356031 
L 165.896764 133.961502 
L 166.945469 134.566972 
L 167.994174 135.172442 
L 169.042879 135.777912 
L 170.091584 136.383382 
L 171.140289 136.988852 
L 172.188994 137.594322 
L 173.237699 138.199792 
L 174.286404 138.805263 
L 175.335109 139.410733 
L 176.383814 140.016203 
L 177.432519 140.621673 
L 178.481224 141.227143 
L 179.529929 141.832613 
L 180.578634 142.438083 
L 181.627339 143.043553 
L 182.676044 143.649024 
L 183.724749 144.254494 
L 184.773454 144.859964 
L 185.822159 145.465434 
L 186.870864 146.070904 
L 187.919569 146.676374 
L 188.968274 147.281844 
L 190.016979 147.887314 
L 191.065684 148.492785 
L 192.114389 149.098255 
L 193.163094 149.703725 
L 194.211799 150.309195 
L 195.260504 150.914665 
L 196.309209 151.520135 
L 197.357914 152.125605 
L 198.406619 152.731075 
L 199.455324 153.336546 
L 200.504029 153.942016 
L 201.552734 154.547486 
L 202.601439 155.152956 
L 203.650144 155.758426 
L 204.698849 156.363896 
L 205.747554 156.969366 
L 206.796259 157.574836 
L 207.844964 158.180307 
L 208.893669 158.785777 
L 209.942374 159.391247 
L 210.99108 159.996717 
L 212.039785 160.602187 
L 213.08849 161.207657 
L 214.137195 161.813127 
L 215.1859 162.418597 
L 216.234605 163.024068 
L 217.28331 163.629538 
L 218.332015 164.235008 
L 219.38072 164.840478 
L 220.429425 165.445948 
L 221.47813 166.051418 
L 222.526835 166.656888 
L 223.57554 167.262358 
L 224.624245 167.867829 
L 225.67295 168.473299 
L 226.721655 169.078769 
L 227.77036 169.684239 
L 228.819065 170.289709 
L 229.86777 170.895179 
L 230.916475 171.500649 
L 231.96518 172.106119 
L 233.013885 172.71159 
L 234.06259 173.31706 
L 235.111295 173.92253 
z
" style="fill:#fabe28;"/>
   </g>
   <g id="patch_6">
    <path clip-path="url(#p0b162148fd)" d="M 131.289498 113.980987 
L 130.044497 116.190508 
L 128.846041 118.425618 
L 127.694658 120.685336 
L 126.59085 122.968672 
L 125.535103 125.274623 
L 124.52788 127.602178 
L 123.569623 129.950316 
L 122.660751 132.318008 
L 121.801664 134.704214 
L 120.992738 137.107888 
L 120.234329 139.527976 
L 119.526768 141.963416 
L 118.870366 144.413141 
L 118.265412 146.876074 
L 117.71217 149.351136 
L 117.210883 151.837242 
L 116.761771 154.333301 
L 116.365031 156.838218 
L 116.020837 159.350894 
L 115.729341 161.870228 
L 115.490669 164.395113 
L 115.304926 166.924443 
L 115.172195 169.457109 
L 115.092533 171.991998 
L 115.065975 174.528 
L 115.092533 177.064002 
L 115.172195 179.598891 
L 115.304926 182.131557 
L 115.490669 184.660887 
L 115.729341 187.185772 
L 116.020837 189.705106 
L 116.365031 192.217782 
L 116.761771 194.722699 
L 117.210883 197.218758 
L 117.71217 199.704864 
L 118.265412 202.179926 
L 118.870366 204.642859 
L 119.526768 207.092584 
L 120.234329 209.528024 
L 120.992738 211.948112 
L 121.801664 214.351786 
L 122.660751 216.737992 
L 123.569623 219.105684 
L 124.52788 221.453822 
L 125.535103 223.781377 
L 126.59085 226.087328 
L 127.694658 228.370664 
L 128.846041 230.630382 
L 130.044497 232.865492 
L 131.289498 235.075013 
L 132.580499 237.257976 
L 133.916933 239.413423 
L 135.298214 241.54041 
L 136.723737 243.638003 
L 138.192876 245.705282 
L 139.704986 247.74134 
L 141.259405 249.745285 
L 142.85545 251.716237 
L 144.492422 253.653331 
L 146.169602 255.555718 
L 147.886255 257.422564 
L 149.641627 259.25305 
L 151.43495 261.046373 
L 153.265436 262.801745 
L 155.132282 264.518398 
L 157.034669 266.195578 
L 158.971763 267.83255 
L 160.942715 269.428595 
L 162.94666 270.983014 
L 164.982718 272.495124 
L 167.049997 273.964263 
L 169.14759 275.389786 
L 171.274577 276.771067 
L 173.430024 278.107501 
L 175.612987 279.398502 
L 177.822508 280.643503 
L 180.057618 281.841959 
L 182.317336 282.993342 
L 184.600672 284.09715 
L 186.906623 285.152897 
L 189.234178 286.16012 
L 191.582316 287.118377 
L 193.950008 288.027249 
L 196.336214 288.886336 
L 198.739888 289.695262 
L 201.159976 290.453671 
L 203.595416 291.161232 
L 206.045141 291.817634 
L 208.508074 292.422588 
L 210.983136 292.97583 
L 213.469242 293.477117 
L 215.965301 293.926229 
L 218.470218 294.322969 
L 220.982894 294.667163 
L 223.502228 294.958659 
L 226.027113 295.197331 
L 228.556443 295.383074 
L 231.089109 295.515805 
L 233.623998 295.595467 
L 236.16 295.622025 
L 236.16 295.630498 
L 236.16 295.638971 
L 236.16 295.647444 
L 236.16 295.655917 
L 236.16 295.664389 
L 236.16 295.672862 
L 236.16 295.681335 
L 236.16 295.689808 
L 236.16 295.698281 
L 236.16 295.706754 
L 236.16 295.715227 
L 236.16 295.723699 
L 236.16 295.732172 
L 236.16 295.740645 
L 236.16 295.749118 
L 236.16 295.757591 
L 236.16 295.766064 
L 236.16 295.774537 
L 236.16 295.783009 
L 236.16 295.791482 
L 236.16 295.799955 
L 236.16 295.808428 
L 236.16 295.816901 
L 236.16 295.825374 
L 236.16 295.833846 
L 236.16 295.842319 
L 236.16 295.850792 
L 236.16 295.859265 
L 236.16 295.867738 
L 236.16 295.876211 
L 236.16 295.884684 
L 236.16 295.893156 
L 236.16 295.901629 
L 236.16 295.910102 
L 236.16 295.918575 
L 236.16 295.927048 
L 236.16 295.935521 
L 236.16 295.943994 
L 236.16 295.952466 
L 236.16 295.960939 
L 236.16 295.969412 
L 236.16 295.977885 
L 236.16 295.986358 
L 236.16 295.994831 
L 236.16 296.003304 
L 236.16 296.011776 
L 236.16 296.020249 
L 236.16 296.028722 
L 236.16 296.037195 
L 236.16 296.045668 
L 236.16 296.054141 
L 236.16 296.062614 
L 236.16 296.071086 
L 236.16 296.079559 
L 236.16 296.088032 
L 236.16 296.096505 
L 236.16 296.104978 
L 236.16 296.113451 
L 236.16 296.121924 
L 236.16 296.130396 
L 236.16 296.138869 
L 236.16 296.147342 
L 236.16 296.155815 
L 236.16 296.164288 
L 236.16 296.172761 
L 236.16 296.181233 
L 236.16 296.189706 
L 236.16 296.198179 
L 236.16 296.206652 
L 236.16 296.215125 
L 236.16 296.223598 
L 236.16 296.232071 
L 236.16 296.240543 
L 236.16 296.249016 
L 236.16 296.257489 
L 236.16 296.265962 
L 236.16 296.274435 
L 236.16 296.282908 
L 236.16 296.291381 
L 236.16 296.299853 
L 236.16 296.308326 
L 236.16 296.316799 
L 236.16 296.325272 
L 236.16 296.333745 
L 236.16 296.342218 
L 236.16 296.350691 
L 236.16 296.359163 
L 236.16 296.367636 
L 236.16 296.376109 
L 236.16 296.384582 
L 236.16 296.393055 
L 236.16 296.401528 
L 236.16 296.410001 
L 236.16 296.418473 
L 236.16 296.426946 
L 236.16 296.435419 
L 236.16 296.443892 
L 236.16 296.452365 
L 236.16 296.460838 
L 236.16 296.469311 
L 233.606254 296.442567 
L 231.053628 296.362347 
L 228.503242 296.228687 
L 225.956214 296.041645 
L 223.413662 295.801303 
L 220.876701 295.507767 
L 218.346444 295.161165 
L 215.824 294.761649 
L 213.310477 294.309395 
L 210.806976 293.8046 
L 208.314596 293.247487 
L 205.834429 292.6383 
L 203.367565 291.977306 
L 200.915084 291.264794 
L 198.478063 290.501078 
L 196.05757 289.686492 
L 193.654668 288.821394 
L 191.27041 287.906163 
L 188.905842 286.941201 
L 186.562001 285.92693 
L 184.239915 284.863797 
L 181.940604 283.752266 
L 179.665074 282.592826 
L 177.414326 281.385985 
L 175.189345 280.132273 
L 172.991108 278.832239 
L 170.820578 277.486454 
L 168.678709 276.095508 
L 166.56644 274.660011 
L 164.484696 273.180593 
L 162.434392 271.657902 
L 160.416426 270.092607 
L 158.431683 268.485395 
L 156.481035 266.836969 
L 154.565337 265.148054 
L 152.685429 263.41939 
L 150.842135 261.651735 
L 149.036265 259.845865 
L 147.26861 258.002571 
L 145.539946 256.122663 
L 143.851031 254.206965 
L 142.202605 252.256317 
L 140.595393 250.271574 
L 139.030098 248.253608 
L 137.507407 246.203304 
L 136.027989 244.12156 
L 134.592492 242.009291 
L 133.201546 239.867422 
L 131.855761 237.696892 
L 130.555727 235.498655 
L 129.302015 233.273674 
L 128.095174 231.022926 
L 126.935734 228.747396 
L 125.824203 226.448085 
L 124.76107 224.125999 
L 123.746799 221.782158 
L 122.781837 219.41759 
L 121.866606 217.033332 
L 121.001508 214.63043 
L 120.186922 212.209937 
L 119.423206 209.772916 
L 118.710694 207.320435 
L 118.0497 204.853571 
L 117.440513 202.373404 
L 116.8834 199.881024 
L 116.378605 197.377523 
L 115.926351 194.864 
L 115.526835 192.341556 
L 115.180233 189.811299 
L 114.886697 187.274338 
L 114.646355 184.731786 
L 114.459313 182.184758 
L 114.325653 179.634372 
L 114.245433 177.081746 
L 114.218689 174.528 
L 114.245433 171.974254 
L 114.325653 169.421628 
L 114.459313 166.871242 
L 114.646355 164.324214 
L 114.886697 161.781662 
L 115.180233 159.244701 
L 115.526835 156.714444 
L 115.926351 154.192 
L 116.378605 151.678477 
L 116.8834 149.174976 
L 117.440513 146.682596 
L 118.0497 144.202429 
L 118.710694 141.735565 
L 119.423206 139.283084 
L 120.186922 136.846063 
L 121.001508 134.42557 
L 121.866606 132.022668 
L 122.781837 129.63841 
L 123.746799 127.273842 
L 124.76107 124.930001 
L 125.824203 122.607915 
L 126.935734 120.308604 
L 128.095174 118.033074 
L 129.302015 115.782326 
L 130.555727 113.557345 
L 130.563065 113.561581 
L 130.570403 113.565818 
L 130.57774 113.570054 
L 130.585078 113.57429 
L 130.592416 113.578527 
L 130.599754 113.582763 
L 130.607091 113.587 
L 130.614429 113.591236 
L 130.621767 113.595473 
L 130.629104 113.599709 
L 130.636442 113.603945 
L 130.64378 113.608182 
L 130.651118 113.612418 
L 130.658455 113.616655 
L 130.665793 113.620891 
L 130.673131 113.625128 
L 130.680468 113.629364 
L 130.687806 113.6336 
L 130.695144 113.637837 
L 130.702481 113.642073 
L 130.709819 113.64631 
L 130.717157 113.650546 
L 130.724495 113.654783 
L 130.731832 113.659019 
L 130.73917 113.663255 
L 130.746508 113.667492 
L 130.753845 113.671728 
L 130.761183 113.675965 
L 130.768521 113.680201 
L 130.775859 113.684438 
L 130.783196 113.688674 
L 130.790534 113.69291 
L 130.797872 113.697147 
L 130.805209 113.701383 
L 130.812547 113.70562 
L 130.819885 113.709856 
L 130.827222 113.714093 
L 130.83456 113.718329 
L 130.841898 113.722565 
L 130.849236 113.726802 
L 130.856573 113.731038 
L 130.863911 113.735275 
L 130.871249 113.739511 
L 130.878586 113.743748 
L 130.885924 113.747984 
L 130.893262 113.75222 
L 130.9006 113.756457 
L 130.907937 113.760693 
L 130.915275 113.76493 
L 130.922613 113.769166 
L 130.92995 113.773403 
L 130.937288 113.777639 
L 130.944626 113.781875 
L 130.951963 113.786112 
L 130.959301 113.790348 
L 130.966639 113.794585 
L 130.973977 113.798821 
L 130.981314 113.803058 
L 130.988652 113.807294 
L 130.99599 113.81153 
L 131.003327 113.815767 
L 131.010665 113.820003 
L 131.018003 113.82424 
L 131.025341 113.828476 
L 131.032678 113.832712 
L 131.040016 113.836949 
L 131.047354 113.841185 
L 131.054691 113.845422 
L 131.062029 113.849658 
L 131.069367 113.853895 
L 131.076704 113.858131 
L 131.084042 113.862367 
L 131.09138 113.866604 
L 131.098718 113.87084 
L 131.106055 113.875077 
L 131.113393 113.879313 
L 131.120731 113.88355 
L 131.128068 113.887786 
L 131.135406 113.892022 
L 131.142744 113.896259 
L 131.150082 113.900495 
L 131.157419 113.904732 
L 131.164757 113.908968 
L 131.172095 113.913205 
L 131.179432 113.917441 
L 131.18677 113.921677 
L 131.194108 113.925914 
L 131.201446 113.93015 
L 131.208783 113.934387 
L 131.216121 113.938623 
L 131.223459 113.94286 
L 131.230796 113.947096 
L 131.238134 113.951332 
L 131.245472 113.955569 
L 131.252809 113.959805 
L 131.260147 113.964042 
L 131.267485 113.968278 
L 131.274823 113.972515 
L 131.28216 113.976751 
z
" style="fill:#ff003c;"/>
   </g>
   <g id="patch_7">
    <path clip-path="url(#p0b162148fd)" d="M 130.555727 113.557345 
L 129.302015 115.782326 
L 128.095174 118.033074 
L 126.935734 120.308604 
L 125.824203 122.607915 
L 124.76107 124.930001 
L 123.746799 127.273842 
L 122.781837 129.63841 
L 121.866606 132.022668 
L 121.001508 134.42557 
L 120.186922 136.846063 
L 119.423206 139.283084 
L 118.710694 141.735565 
L 118.0497 144.202429 
L 117.440513 146.682596 
L 116.8834 149.174976 
L 116.378605 151.678477 
L 115.926351 154.192 
L 115.526835 156.714444 
L 115.180233 159.244701 
L 114.886697 161.781662 
L 114.646355 164.324214 
L 114.459313 166.871242 
L 114.325653 169.421628 
L 114.245433 171.974254 
L 114.218689 174.528 
L 114.245433 177.081746 
L 114.325653 179.634372 
L 114.459313 182.184758 
L 114.646355 184.731786 
L 114.886697 187.274338 
L 115.180233 189.811299 
L 115.526835 192.341556 
L 115.926351 194.864 
L 116.378605 197.377523 
L 116.8834 199.881024 
L 117.440513 202.373404 
L 118.0497 204.853571 
L 118.710694 207.320435 
L 119.423206 209.772916 
L 120.186922 212.209937 
L 121.001508 214.63043 
L 121.866606 217.033332 
L 122.781837 219.41759 
L 123.746799 221.782158 
L 124.76107 224.125999 
L 125.824203 226.448085 
L 126.935734 228.747396 
L 128.095174 231.022926 
L 129.302015 233.273674 
L 130.555727 235.498655 
L 131.855761 237.696892 
L 133.201546 239.867422 
L 134.592492 242.009291 
L 136.027989 244.12156 
L 137.507407 246.203304 
L 139.030098 248.253608 
L 140.595393 250.271574 
L 142.202605 252.256317 
L 143.851031 254.206965 
L 145.539946 256.122663 
L 147.26861 258.002571 
L 149.036265 259.845865 
L 150.842135 261.651735 
L 152.685429 263.41939 
L 154.565337 265.148054 
L 156.481035 266.836969 
L 158.431683 268.485395 
L 160.416426 270.092607 
L 162.434392 271.657902 
L 164.484696 273.180593 
L 166.56644 274.660011 
L 168.678709 276.095508 
L 170.820578 277.486454 
L 172.991108 278.832239 
L 175.189345 280.132273 
L 177.414326 281.385985 
L 179.665074 282.592826 
L 181.940604 283.752266 
L 184.239915 284.863797 
L 186.562001 285.92693 
L 188.905842 286.941201 
L 191.27041 287.906163 
L 193.654668 288.821394 
L 196.05757 289.686492 
L 198.478063 290.501078 
L 200.915084 291.264794 
L 203.367565 291.977306 
L 205.834429 292.6383 
L 208.314596 293.247487 
L 210.806976 293.8046 
L 213.310477 294.309395 
L 215.824 294.761649 
L 218.346444 295.161165 
L 220.876701 295.507767 
L 223.413662 295.801303 
L 225.956214 296.041645 
L 228.503242 296.228687 
L 231.053628 296.362347 
L 233.606254 296.442567 
L 236.16 296.469311 
L 236.16 296.489306 
L 236.16 296.509302 
L 236.16 296.529298 
L 236.16 296.549294 
L 236.16 296.56929 
L 236.16 296.589286 
L 236.16 296.609282 
L 236.16 296.629278 
L 236.16 296.649274 
L 236.16 296.66927 
L 236.16 296.689266 
L 236.16 296.709262 
L 236.16 296.729258 
L 236.16 296.749254 
L 236.16 296.76925 
L 236.16 296.789245 
L 236.16 296.809241 
L 236.16 296.829237 
L 236.16 296.849233 
L 236.16 296.869229 
L 236.16 296.889225 
L 236.16 296.909221 
L 236.16 296.929217 
L 236.16 296.949213 
L 236.16 296.969209 
L 236.16 296.989205 
L 236.16 297.009201 
L 236.16 297.029197 
L 236.16 297.049193 
L 236.16 297.069189 
L 236.16 297.089184 
L 236.16 297.10918 
L 236.16 297.129176 
L 236.16 297.149172 
L 236.16 297.169168 
L 236.16 297.189164 
L 236.16 297.20916 
L 236.16 297.229156 
L 236.16 297.249152 
L 236.16 297.269148 
L 236.16 297.289144 
L 236.16 297.30914 
L 236.16 297.329136 
L 236.16 297.349132 
L 236.16 297.369128 
L 236.16 297.389124 
L 236.16 297.409119 
L 236.16 297.429115 
L 236.16 297.449111 
L 236.16 297.469107 
L 236.16 297.489103 
L 236.16 297.509099 
L 236.16 297.529095 
L 236.16 297.549091 
L 236.16 297.569087 
L 236.16 297.589083 
L 236.16 297.609079 
L 236.16 297.629075 
L 236.16 297.649071 
L 236.16 297.669067 
L 236.16 297.689063 
L 236.16 297.709058 
L 236.16 297.729054 
L 236.16 297.74905 
L 236.16 297.769046 
L 236.16 297.789042 
L 236.16 297.809038 
L 236.16 297.829034 
L 236.16 297.84903 
L 236.16 297.869026 
L 236.16 297.889022 
L 236.16 297.909018 
L 236.16 297.929014 
L 236.16 297.94901 
L 236.16 297.969006 
L 236.16 297.989002 
L 236.16 298.008997 
L 236.16 298.028993 
L 236.16 298.048989 
L 236.16 298.068985 
L 236.16 298.088981 
L 236.16 298.108977 
L 236.16 298.128973 
L 236.16 298.148969 
L 236.16 298.168965 
L 236.16 298.188961 
L 236.16 298.208957 
L 236.16 298.228953 
L 236.16 298.248949 
L 236.16 298.268945 
L 236.16 298.288941 
L 236.16 298.308937 
L 236.16 298.328932 
L 236.16 298.348928 
L 236.16 298.368924 
L 236.16 298.38892 
L 236.16 298.408916 
L 236.16 298.428912 
L 236.16 298.448908 
L 236.16 298.468904 
L 233.564378 298.441722 
L 230.969894 298.360187 
L 228.377686 298.224335 
L 225.788892 298.034226 
L 223.204648 297.789943 
L 220.626086 297.491593 
L 218.054337 297.139307 
L 215.490531 296.73324 
L 212.93579 296.27357 
L 210.391237 295.760498 
L 207.857987 295.194249 
L 205.337151 294.575073 
L 202.829834 293.903239 
L 200.337138 293.179044 
L 197.860154 292.402804 
L 195.399971 291.574861 
L 192.957665 290.695577 
L 190.53431 289.765338 
L 188.130968 288.784552 
L 185.748693 287.75365 
L 183.38853 286.673083 
L 181.051514 285.543325 
L 178.738671 284.364873 
L 176.451014 283.138242 
L 174.189548 281.863971 
L 171.955264 280.54262 
L 169.749143 279.174766 
L 167.572151 277.761012 
L 165.425245 276.301975 
L 163.309364 274.798298 
L 161.225439 273.250638 
L 159.174383 271.659676 
L 157.157094 270.026108 
L 155.17446 268.350652 
L 153.227348 266.634041 
L 151.316613 264.877031 
L 149.443093 263.08039 
L 147.60761 261.244907 
L 145.810969 259.371387 
L 144.053959 257.460652 
L 142.337348 255.51354 
L 140.661892 253.530906 
L 139.028324 251.513617 
L 137.437362 249.462561 
L 135.889702 247.378636 
L 134.386025 245.262755 
L 132.926988 243.115849 
L 131.513234 240.938857 
L 130.14538 238.732736 
L 128.824029 236.498452 
L 127.549758 234.236986 
L 126.323127 231.949329 
L 125.144675 229.636486 
L 124.014917 227.29947 
L 122.93435 224.939307 
L 121.903448 222.557032 
L 120.922662 220.15369 
L 119.992423 217.730335 
L 119.113139 215.288029 
L 118.285196 212.827846 
L 117.508956 210.350862 
L 116.784761 207.858166 
L 116.112927 205.350849 
L 115.493751 202.830013 
L 114.927502 200.296763 
L 114.41443 197.75221 
L 113.95476 195.197469 
L 113.548693 192.633663 
L 113.196407 190.061914 
L 112.898057 187.483352 
L 112.653774 184.899108 
L 112.463665 182.310314 
L 112.327813 179.718106 
L 112.246278 177.123622 
L 112.219096 174.528 
L 112.246278 171.932378 
L 112.327813 169.337894 
L 112.463665 166.745686 
L 112.653774 164.156892 
L 112.898057 161.572648 
L 113.196407 158.994086 
L 113.548693 156.422337 
L 113.95476 153.858531 
L 114.41443 151.30379 
L 114.927502 148.759237 
L 115.493751 146.225987 
L 116.112927 143.705151 
L 116.784761 141.197834 
L 117.508956 138.705138 
L 118.285196 136.228154 
L 119.113139 133.767971 
L 119.992423 131.325665 
L 120.922662 128.90231 
L 121.903448 126.498968 
L 122.93435 124.116693 
L 124.014917 121.75653 
L 125.144675 119.419514 
L 126.323127 117.106671 
L 127.549758 114.819014 
L 128.824029 112.557548 
L 128.841346 112.567546 
L 128.858663 112.577544 
L 128.87598 112.587542 
L 128.893297 112.59754 
L 128.910614 112.607538 
L 128.927931 112.617536 
L 128.945247 112.627534 
L 128.962564 112.637532 
L 128.979881 112.64753 
L 128.997198 112.657528 
L 129.014515 112.667526 
L 129.031832 112.677524 
L 129.049149 112.687522 
L 129.066466 112.69752 
L 129.083783 112.707518 
L 129.1011 112.717515 
L 129.118417 112.727513 
L 129.135734 112.737511 
L 129.153051 112.747509 
L 129.170368 112.757507 
L 129.187685 112.767505 
L 129.205002 112.777503 
L 129.222319 112.787501 
L 129.239636 112.797499 
L 129.256953 112.807497 
L 129.27427 112.817495 
L 129.291587 112.827493 
L 129.308904 112.837491 
L 129.326221 112.847489 
L 129.343538 112.857487 
L 129.360855 112.867485 
L 129.378172 112.877483 
L 129.395489 112.887481 
L 129.412806 112.897479 
L 129.430123 112.907477 
L 129.44744 112.917475 
L 129.464757 112.927473 
L 129.482074 112.937471 
L 129.499391 112.947469 
L 129.516708 112.957467 
L 129.534025 112.967465 
L 129.551342 112.977463 
L 129.568659 112.987461 
L 129.585976 112.997459 
L 129.603293 113.007457 
L 129.62061 113.017455 
L 129.637927 113.027452 
L 129.655244 113.03745 
L 129.672561 113.047448 
L 129.689878 113.057446 
L 129.707195 113.067444 
L 129.724512 113.077442 
L 129.741829 113.08744 
L 129.759146 113.097438 
L 129.776463 113.107436 
L 129.79378 113.117434 
L 129.811097 113.127432 
L 129.828414 113.13743 
L 129.845731 113.147428 
L 129.863048 113.157426 
L 129.880365 113.167424 
L 129.897682 113.177422 
L 129.914999 113.18742 
L 129.932316 113.197418 
L 129.949633 113.207416 
L 129.96695 113.217414 
L 129.984267 113.227412 
L 130.001584 113.23741 
L 130.018901 113.247408 
L 130.036218 113.257406 
L 130.053535 113.267404 
L 130.070852 113.277402 
L 130.088169 113.2874 
L 130.105486 113.297398 
L 130.122803 113.307396 
L 130.14012 113.317394 
L 130.157437 113.327391 
L 130.174754 113.337389 
L 130.192071 113.347387 
L 130.209388 113.357385 
L 130.226705 113.367383 
L 130.244022 113.377381 
L 130.261339 113.387379 
L 130.278656 113.397377 
L 130.295973 113.407375 
L 130.31329 113.417373 
L 130.330606 113.427371 
L 130.347923 113.437369 
L 130.36524 113.447367 
L 130.382557 113.457365 
L 130.399874 113.467363 
L 130.417191 113.477361 
L 130.434508 113.487359 
L 130.451825 113.497357 
L 130.469142 113.507355 
L 130.486459 113.517353 
L 130.503776 113.527351 
L 130.521093 113.537349 
L 130.53841 113.547347 
z
" style="fill:#88c100;"/>
   </g>
   <g id="patch_8">
    <path clip-path="url(#p0b162148fd)" d="M 236.16 174.528 
L 236.16 174.528 
L 236.16 174.528 
L 236.16 174.528 
L 236.16 174.528 
L 236.16 174.528 
L 236.16 174.528 
L 236.16 174.528 
L 236.16 174.528 
L 236.16 174.528 
L 236.16 174.528 
L 236.16 174.528 
L 236.16 174.528 
L 236.16 174.528 
L 236.16 174.528 
L 236.16 174.528 
L 236.16 174.528 
L 236.16 174.528 
L 236.16 174.528 
L 236.16 174.528 
L 236.16 174.528 
L 236.16 174.528 
L 236.16 174.528 
L 236.16 174.528 
L 236.16 174.528 
L 236.16 174.528 
L 236.16 174.528 
L 236.16 174.528 
L 236.16 174.528 
L 236.16 174.528 
L 236.16 174.528 
L 236.16 174.528 
L 236.16 174.528 
L 236.16 174.528 
L 236.16 174.528 
L 236.16 174.528 
L 236.16 174.528 
L 236.16 174.528 
L 236.16 174.528 
L 236.16 174.528 
L 236.16 174.528 
L 236.16 174.528 
L 236.16 174.528 
L 236.16 174.528 
L 236.16 174.528 
L 236.16 174.528 
L 236.16 174.528 
L 236.16 174.528 
L 236.16 174.528 
L 236.16 174.528 
L 236.16 174.528 
L 236.16 174.528 
L 236.16 174.528 
L 236.16 174.528 
L 236.16 174.528 
L 236.16 174.528 
L 236.16 174.528 
L 236.16 174.528 
L 236.16 174.528 
L 236.16 174.528 
L 236.16 174.528 
L 236.16 174.528 
L 236.16 174.528 
L 236.16 174.528 
L 236.16 174.528 
L 236.16 174.528 
L 236.16 174.528 
L 236.16 174.528 
L 236.16 174.528 
L 236.16 174.528 
L 236.16 174.528 
L 236.16 174.528 
L 236.16 174.528 
L 236.16 174.528 
L 236.16 174.528 
L 236.16 174.528 
L 236.16 174.528 
L 236.16 174.528 
L 236.16 174.528 
L 236.16 174.528 
L 236.16 174.528 
L 236.16 174.528 
L 236.16 174.528 
L 236.16 174.528 
L 236.16 174.528 
L 236.16 174.528 
L 236.16 174.528 
L 236.16 174.528 
L 236.16 174.528 
L 236.16 174.528 
L 236.16 174.528 
L 236.16 174.528 
L 236.16 174.528 
L 236.16 174.528 
L 236.16 174.528 
L 236.16 174.528 
L 236.16 174.528 
L 236.16 174.528 
L 236.16 174.528 
L 236.16 174.528 
L 236.16 174.528 
L 237.232332 173.908889 
L 238.304665 173.289777 
L 239.376997 172.670666 
L 240.44933 172.051554 
L 241.521662 171.432443 
L 242.593995 170.813331 
L 243.666327 170.19422 
L 244.738659 169.575109 
L 245.810992 168.955997 
L 246.883324 168.336886 
L 247.955657 167.717774 
L 249.027989 167.098663 
L 250.100322 166.479552 
L 251.172654 165.86044 
L 252.244987 165.241329 
L 253.317319 164.622217 
L 254.389651 164.003106 
L 255.461984 163.383994 
L 256.534316 162.764883 
L 257.606649 162.145772 
L 258.678981 161.52666 
L 259.751314 160.907549 
L 260.823646 160.288437 
L 261.895978 159.669326 
L 262.968311 159.050214 
L 264.040643 158.431103 
L 265.112976 157.811992 
L 266.185308 157.19288 
L 267.257641 156.573769 
L 268.329973 155.954657 
L 269.402305 155.335546 
L 270.474638 154.716435 
L 271.54697 154.097323 
L 272.619303 153.478212 
L 273.691635 152.8591 
L 274.763968 152.239989 
L 275.8363 151.620877 
L 276.908633 151.001766 
L 277.980965 150.382655 
L 279.053297 149.763543 
L 280.12563 149.144432 
L 281.197962 148.52532 
L 282.270295 147.906209 
L 283.342627 147.287098 
L 284.41496 146.667986 
L 285.487292 146.048875 
L 286.559624 145.429763 
L 287.631957 144.810652 
L 288.704289 144.19154 
L 289.776622 143.572429 
L 290.848954 142.953318 
L 291.921287 142.334206 
L 292.993619 141.715095 
L 294.065952 141.095983 
L 295.138284 140.476872 
L 296.210616 139.85776 
L 297.282949 139.238649 
L 298.355281 138.619538 
L 299.427614 138.000426 
L 300.499946 137.381315 
L 301.572279 136.762203 
L 302.644611 136.143092 
L 303.716943 135.523981 
L 304.789276 134.904869 
L 305.861608 134.285758 
L 306.933941 133.666646 
L 308.006273 133.047535 
L 309.078606 132.428423 
L 310.150938 131.809312 
L 311.22327 131.190201 
L 312.295603 130.571089 
L 313.367935 129.951978 
L 314.440268 129.332866 
L 315.5126 128.713755 
L 316.584933 128.094643 
L 317.657265 127.475532 
L 318.729598 126.856421 
L 319.80193 126.237309 
L 320.874262 125.618198 
L 321.946595 124.999086 
L 323.018927 124.379975 
L 324.09126 123.760864 
L 325.163592 123.141752 
L 326.235925 122.522641 
L 327.308257 121.903529 
L 328.380589 121.284418 
L 329.452922 120.665306 
L 330.525254 120.046195 
L 331.597587 119.427084 
L 332.669919 118.807972 
L 333.742252 118.188861 
L 334.814584 117.569749 
L 335.886916 116.950638 
L 336.959249 116.331527 
L 338.031581 115.712415 
L 339.103914 115.093304 
L 340.176246 114.474192 
L 341.248579 113.855081 
L 342.320911 113.235969 
L 343.393244 112.616858 
L 344.666295 114.87616 
L 345.891751 117.161627 
L 347.069076 119.472257 
L 348.197752 121.807036 
L 349.277285 124.16494 
L 350.307201 126.544935 
L 351.287048 128.945977 
L 352.216397 131.367013 
L 353.094839 133.806981 
L 353.92199 136.26481 
L 354.697487 138.739423 
L 355.420989 141.229734 
L 356.092179 143.73465 
L 356.710763 146.253074 
L 357.27647 148.7839 
L 357.789051 151.326018 
L 358.248281 153.878313 
L 358.65396 156.439666 
L 359.005908 159.008953 
L 359.303973 161.585047 
L 359.548022 164.166818 
L 359.737949 166.753134 
L 359.873671 169.342861 
L 359.955128 171.934862 
L 359.982284 174.528 
L 359.955128 177.121138 
L 359.873671 179.713139 
L 359.737949 182.302866 
L 359.548022 184.889182 
L 359.303973 187.470953 
L 359.005908 190.047047 
L 358.65396 192.616334 
L 358.248281 195.177687 
L 357.789051 197.729982 
L 357.27647 200.2721 
L 356.710763 202.802926 
L 356.092179 205.32135 
L 355.420989 207.826266 
L 354.697487 210.316577 
L 353.92199 212.79119 
L 353.094839 215.249019 
L 352.216397 217.688987 
L 351.287048 220.110023 
L 350.307201 222.511065 
L 349.277285 224.89106 
L 348.197752 227.248964 
L 347.069076 229.583743 
L 345.891751 231.894373 
L 344.666295 234.17984 
L 343.393244 236.439142 
L 342.073156 238.671287 
L 340.706612 240.875298 
L 339.29421 243.050206 
L 337.836571 245.195057 
L 336.334332 247.308912 
L 334.788154 249.390843 
L 333.198714 251.439937 
L 331.56671 253.455294 
L 329.892857 255.436032 
L 328.17789 257.38128 
L 326.42256 259.290186 
L 324.627639 261.161913 
L 322.793913 262.995639 
L 320.922186 264.79056 
L 319.01328 266.54589 
L 317.068032 268.260857 
L 315.087294 269.93471 
L 313.071937 271.566714 
L 311.022843 273.156154 
L 308.940912 274.702332 
L 306.827057 276.204571 
L 304.682206 277.66221 
L 302.507298 279.074612 
L 300.303287 280.441156 
L 298.071142 281.761244 
L 295.81184 283.034295 
L 293.526373 284.259751 
L 291.215743 285.437076 
L 288.880964 286.565752 
L 286.52306 287.645285 
L 284.143065 288.675201 
L 281.742023 289.655048 
L 279.320987 290.584397 
L 276.881019 291.462839 
L 274.42319 292.28999 
L 271.948577 293.065487 
L 269.458266 293.788989 
L 266.95335 294.460179 
L 264.434926 295.078763 
L 261.9041 295.64447 
L 259.361982 296.157051 
L 256.809687 296.616281 
L 254.248334 297.02196 
L 251.679047 297.373908 
L 249.102953 297.671973 
L 246.521182 297.916022 
L 243.934866 298.105949 
L 241.345139 298.241671 
L 238.753138 298.323128 
L 236.16 298.350284 
L 236.16 297.112061 
L 236.16 295.873838 
L 236.16 294.635616 
L 236.16 293.397393 
L 236.16 292.15917 
L 236.16 290.920947 
L 236.16 289.682724 
L 236.16 288.444501 
L 236.16 287.206278 
L 236.16 285.968056 
L 236.16 284.729833 
L 236.16 283.49161 
L 236.16 282.253387 
L 236.16 281.015164 
L 236.16 279.776941 
L 236.16 278.538719 
L 236.16 277.300496 
L 236.16 276.062273 
L 236.16 274.82405 
L 236.16 273.585827 
L 236.16 272.347604 
L 236.16 271.109382 
L 236.16 269.871159 
L 236.16 268.632936 
L 236.16 267.394713 
L 236.16 266.15649 
L 236.16 264.918267 
L 236.16 263.680045 
L 236.16 262.441822 
L 236.16 261.203599 
L 236.16 259.965376 
L 236.16 258.727153 
L 236.16 257.48893 
L 236.16 256.250707 
L 236.16 255.012485 
L 236.16 253.774262 
L 236.16 252.536039 
L 236.16 251.297816 
L 236.16 250.059593 
L 236.16 248.82137 
L 236.16 247.583148 
L 236.16 246.344925 
L 236.16 245.106702 
L 236.16 243.868479 
L 236.16 242.630256 
L 236.16 241.392033 
L 236.16 240.153811 
L 236.16 238.915588 
L 236.16 237.677365 
L 236.16 236.439142 
L 236.16 235.200919 
L 236.16 233.962696 
L 236.16 232.724473 
L 236.16 231.486251 
L 236.16 230.248028 
L 236.16 229.009805 
L 236.16 227.771582 
L 236.16 226.533359 
L 236.16 225.295136 
L 236.16 224.056914 
L 236.16 222.818691 
L 236.16 221.580468 
L 236.16 220.342245 
L 236.16 219.104022 
L 236.16 217.865799 
L 236.16 216.627577 
L 236.16 215.389354 
L 236.16 214.151131 
L 236.16 212.912908 
L 236.16 211.674685 
L 236.16 210.436462 
L 236.16 209.19824 
L 236.16 207.960017 
L 236.16 206.721794 
L 236.16 205.483571 
L 236.16 204.245348 
L 236.16 203.007125 
L 236.16 201.768902 
L 236.16 200.53068 
L 236.16 199.292457 
L 236.16 198.054234 
L 236.16 196.816011 
L 236.16 195.577788 
L 236.16 194.339565 
L 236.16 193.101343 
L 236.16 191.86312 
L 236.16 190.624897 
L 236.16 189.386674 
L 236.16 188.148451 
L 236.16 186.910228 
L 236.16 185.672006 
L 236.16 184.433783 
L 236.16 183.19556 
L 236.16 181.957337 
L 236.16 180.719114 
L 236.16 179.480891 
L 236.16 178.242669 
L 236.16 177.004446 
L 236.16 175.766223 
z
" style="fill:#fabe28;"/>
   </g>
   <g id="patch_9">
    <path clip-path="url(#p0b162148fd)" d="M 236.16 298.350284 
L 238.753138 298.323128 
L 241.345139 298.241671 
L 243.934866 298.105949 
L 246.521182 297.916022 
L 249.102953 297.671973 
L 251.679047 297.373908 
L 254.248334 297.02196 
L 256.809687 296.616281 
L 259.361982 296.157051 
L 261.9041 295.64447 
L 264.434926 295.078763 
L 266.95335 294.460179 
L 269.458266 293.788989 
L 271.948577 293.065487 
L 274.42319 292.28999 
L 276.881019 291.462839 
L 279.320987 290.584397 
L 281.742023 289.655048 
L 284.143065 288.675201 
L 286.52306 287.645285 
L 288.880964 286.565752 
L 291.215743 285.437076 
L 293.526373 284.259751 
L 295.81184 283.034295 
L 298.071142 281.761244 
L 300.303287 280.441156 
L 302.507298 279.074612 
L 304.682206 277.66221 
L 306.827057 276.204571 
L 308.940912 274.702332 
L 311.022843 273.156154 
L 313.071937 271.566714 
L 315.087294 269.93471 
L 317.068032 268.260857 
L 319.01328 266.54589 
L 320.922186 264.79056 
L 322.793913 262.995639 
L 324.627639 261.161913 
L 326.42256 259.290186 
L 328.17789 257.38128 
L 329.892857 255.436032 
L 331.56671 253.455294 
L 333.198714 251.439937 
L 334.788154 249.390843 
L 336.334332 247.308912 
L 337.836571 245.195057 
L 339.29421 243.050206 
L 340.706612 240.875298 
L 342.073156 238.671287 
L 343.393244 236.439142 
L 344.666295 234.17984 
L 345.891751 231.894373 
L 347.069076 229.583743 
L 348.197752 227.248964 
L 349.277285 224.89106 
L 350.307201 222.511065 
L 351.287048 220.110023 
L 352.216397 217.688987 
L 353.094839 215.249019 
L 353.92199 212.79119 
L 354.697487 210.316577 
L 355.420989 207.826266 
L 356.092179 205.32135 
L 356.710763 202.802926 
L 357.27647 200.2721 
L 357.789051 197.729982 
L 358.248281 195.177687 
L 358.65396 192.616334 
L 359.005908 190.047047 
L 359.303973 187.470953 
L 359.548022 184.889182 
L 359.737949 182.302866 
L 359.873671 179.713139 
L 359.955128 177.121138 
L 359.982284 174.528 
L 359.955128 171.934862 
L 359.873671 169.342861 
L 359.737949 166.753134 
L 359.548022 164.166818 
L 359.303973 161.585047 
L 359.005908 159.008953 
L 358.65396 156.439666 
L 358.248281 153.878313 
L 357.789051 151.326018 
L 357.27647 148.7839 
L 356.710763 146.253074 
L 356.092179 143.73465 
L 355.420989 141.229734 
L 354.697487 138.739423 
L 353.92199 136.26481 
L 353.094839 133.806981 
L 352.216397 131.367013 
L 351.287048 128.945977 
L 350.307201 126.544935 
L 349.277285 124.16494 
L 348.197752 121.807036 
L 347.069076 119.472257 
L 345.891751 117.161627 
L 344.666295 114.87616 
L 343.393244 112.616858 
L 343.401021 112.612367 
L 343.408799 112.607877 
L 343.416577 112.603386 
L 343.424355 112.598896 
L 343.432133 112.594405 
L 343.439911 112.589914 
L 343.447689 112.585424 
L 343.455467 112.580933 
L 343.463245 112.576442 
L 343.471023 112.571952 
L 343.478801 112.567461 
L 343.486579 112.562971 
L 343.494357 112.55848 
L 343.502135 112.553989 
L 343.509913 112.549499 
L 343.517691 112.545008 
L 343.525469 112.540518 
L 343.533247 112.536027 
L 343.541025 112.531536 
L 343.548803 112.527046 
L 343.556581 112.522555 
L 343.564359 112.518065 
L 343.572137 112.513574 
L 343.579915 112.509083 
L 343.587693 112.504593 
L 343.595471 112.500102 
L 343.603249 112.495611 
L 343.611027 112.491121 
L 343.618805 112.48663 
L 343.626583 112.48214 
L 343.634361 112.477649 
L 343.642139 112.473158 
L 343.649917 112.468668 
L 343.657694 112.464177 
L 343.665472 112.459687 
L 343.67325 112.455196 
L 343.681028 112.450705 
L 343.688806 112.446215 
L 343.696584 112.441724 
L 343.704362 112.437233 
L 343.71214 112.432743 
L 343.719918 112.428252 
L 343.727696 112.423762 
L 343.735474 112.419271 
L 343.743252 112.41478 
L 343.75103 112.41029 
L 343.758808 112.405799 
L 343.766586 112.401309 
L 343.774364 112.396818 
L 343.782142 112.392327 
L 343.78992 112.387837 
L 343.797698 112.383346 
L 343.805476 112.378856 
L 343.813254 112.374365 
L 343.821032 112.369874 
L 343.82881 112.365384 
L 343.836588 112.360893 
L 343.844366 112.356402 
L 343.852144 112.351912 
L 343.859922 112.347421 
L 343.8677 112.342931 
L 343.875478 112.33844 
L 343.883256 112.333949 
L 343.891034 112.329459 
L 343.898812 112.324968 
L 343.906589 112.320478 
L 343.914367 112.315987 
L 343.922145 112.311496 
L 343.929923 112.307006 
L 343.937701 112.302515 
L 343.945479 112.298024 
L 343.953257 112.293534 
L 343.961035 112.289043 
L 343.968813 112.284553 
L 343.976591 112.280062 
L 343.984369 112.275571 
L 343.992147 112.271081 
L 343.999925 112.26659 
L 344.007703 112.2621 
L 344.015481 112.257609 
L 344.023259 112.253118 
L 344.031037 112.248628 
L 344.038815 112.244137 
L 344.046593 112.239647 
L 344.054371 112.235156 
L 344.062149 112.230665 
L 344.069927 112.226175 
L 344.077705 112.221684 
L 344.085483 112.217193 
L 344.093261 112.212703 
L 344.101039 112.208212 
L 344.108817 112.203722 
L 344.116595 112.199231 
L 344.124373 112.19474 
L 344.132151 112.19025 
L 344.139929 112.185759 
L 344.147707 112.181269 
L 344.155484 112.176778 
L 344.163262 112.172287 
L 344.17104 112.167797 
L 345.453325 114.443486 
L 346.687671 116.74553 
L 347.873535 119.07292 
L 349.010398 121.424634 
L 350.097761 123.799641 
L 351.135147 126.196899 
L 352.122101 128.615356 
L 353.058191 131.053953 
L 353.943005 133.511618 
L 354.776155 135.987275 
L 355.557277 138.479837 
L 356.286027 140.988211 
L 356.962086 143.511296 
L 357.585157 146.047987 
L 358.154966 148.597169 
L 358.671265 151.157726 
L 359.133827 153.728534 
L 359.542448 156.308465 
L 359.896949 158.896388 
L 360.197175 161.491168 
L 360.442995 164.091665 
L 360.634299 166.696741 
L 360.771006 169.305251 
L 360.853053 171.916053 
L 360.880407 174.528 
L 360.853053 177.139947 
L 360.771006 179.750749 
L 360.634299 182.359259 
L 360.442995 184.964335 
L 360.197175 187.564832 
L 359.896949 190.159612 
L 359.542448 192.747535 
L 359.133827 195.327466 
L 358.671265 197.898274 
L 358.154966 200.458831 
L 357.585157 203.008013 
L 356.962086 205.544704 
L 356.286027 208.067789 
L 355.557277 210.576163 
L 354.776155 213.068725 
L 353.943005 215.544382 
L 353.058191 218.002047 
L 352.122101 220.440644 
L 351.135147 222.859101 
L 350.097761 225.256359 
L 349.010398 227.631366 
L 347.873535 229.98308 
L 346.687671 232.31047 
L 345.453325 234.612514 
L 344.17104 236.888203 
L 342.841378 239.136539 
L 341.464922 241.356536 
L 340.042276 243.547219 
L 338.574063 245.707628 
L 337.060928 247.836816 
L 335.503535 249.933847 
L 333.902567 251.997804 
L 332.258725 254.027779 
L 330.572731 256.022883 
L 328.845325 257.982241 
L 327.077264 259.904993 
L 325.269323 261.790296 
L 323.422296 263.637323 
L 321.536993 265.445264 
L 319.614241 267.213325 
L 317.654883 268.940731 
L 315.659779 270.626725 
L 313.629804 272.270567 
L 311.565847 273.871535 
L 309.468816 275.428928 
L 307.339628 276.942063 
L 305.179219 278.410276 
L 302.988536 279.832922 
L 300.768539 281.209378 
L 298.520203 282.53904 
L 296.244514 283.821325 
L 293.94247 285.055671 
L 291.61508 286.241535 
L 289.263366 287.378398 
L 286.888359 288.465761 
L 284.491101 289.503147 
L 282.072644 290.490101 
L 279.634047 291.426191 
L 277.176382 292.311005 
L 274.700725 293.144155 
L 272.208163 293.925277 
L 269.699789 294.654027 
L 267.176704 295.330086 
L 264.640013 295.953157 
L 262.090831 296.522966 
L 259.530274 297.039265 
L 256.959466 297.501827 
L 254.379535 297.910448 
L 251.791612 298.264949 
L 249.196832 298.565175 
L 246.596335 298.810995 
L 243.991259 299.002299 
L 241.382749 299.139006 
L 238.771947 299.221053 
L 236.16 299.248407 
L 236.16 299.239425 
L 236.16 299.230444 
L 236.16 299.221463 
L 236.16 299.212482 
L 236.16 299.2035 
L 236.16 299.194519 
L 236.16 299.185538 
L 236.16 299.176557 
L 236.16 299.167576 
L 236.16 299.158594 
L 236.16 299.149613 
L 236.16 299.140632 
L 236.16 299.131651 
L 236.16 299.122669 
L 236.16 299.113688 
L 236.16 299.104707 
L 236.16 299.095726 
L 236.16 299.086744 
L 236.16 299.077763 
L 236.16 299.068782 
L 236.16 299.059801 
L 236.16 299.05082 
L 236.16 299.041838 
L 236.16 299.032857 
L 236.16 299.023876 
L 236.16 299.014895 
L 236.16 299.005913 
L 236.16 298.996932 
L 236.16 298.987951 
L 236.16 298.97897 
L 236.16 298.969989 
L 236.16 298.961007 
L 236.16 298.952026 
L 236.16 298.943045 
L 236.16 298.934064 
L 236.16 298.925082 
L 236.16 298.916101 
L 236.16 298.90712 
L 236.16 298.898139 
L 236.16 298.889158 
L 236.16 298.880176 
L 236.16 298.871195 
L 236.16 298.862214 
L 236.16 298.853233 
L 236.16 298.844251 
L 236.16 298.83527 
L 236.16 298.826289 
L 236.16 298.817308 
L 236.16 298.808327 
L 236.16 298.799345 
L 236.16 298.790364 
L 236.16 298.781383 
L 236.16 298.772402 
L 236.16 298.76342 
L 236.16 298.754439 
L 236.16 298.745458 
L 236.16 298.736477 
L 236.16 298.727495 
L 236.16 298.718514 
L 236.16 298.709533 
L 236.16 298.700552 
L 236.16 298.691571 
L 236.16 298.682589 
L 236.16 298.673608 
L 236.16 298.664627 
L 236.16 298.655646 
L 236.16 298.646664 
L 236.16 298.637683 
L 236.16 298.628702 
L 236.16 298.619721 
L 236.16 298.61074 
L 236.16 298.601758 
L 236.16 298.592777 
L 236.16 298.583796 
L 236.16 298.574815 
L 236.16 298.565833 
L 236.16 298.556852 
L 236.16 298.547871 
L 236.16 298.53889 
L 236.16 298.529909 
L 236.16 298.520927 
L 236.16 298.511946 
L 236.16 298.502965 
L 236.16 298.493984 
L 236.16 298.485002 
L 236.16 298.476021 
L 236.16 298.46704 
L 236.16 298.458059 
L 236.16 298.449078 
L 236.16 298.440096 
L 236.16 298.431115 
L 236.16 298.422134 
L 236.16 298.413153 
L 236.16 298.404171 
L 236.16 298.39519 
L 236.16 298.386209 
L 236.16 298.377228 
L 236.16 298.368246 
L 236.16 298.359265 
z
" style="fill:#ff003c;"/>
   </g>
   <g id="patch_10">
    <path clip-path="url(#p0b162148fd)" d="M 236.16 299.248407 
L 238.771947 299.221053 
L 241.382749 299.139006 
L 243.991259 299.002299 
L 246.596335 298.810995 
L 249.196832 298.565175 
L 251.791612 298.264949 
L 254.379535 297.910448 
L 256.959466 297.501827 
L 259.530274 297.039265 
L 262.090831 296.522966 
L 264.640013 295.953157 
L 267.176704 295.330086 
L 269.699789 294.654027 
L 272.208163 293.925277 
L 274.700725 293.144155 
L 277.176382 292.311005 
L 279.634047 291.426191 
L 282.072644 290.490101 
L 284.491101 289.503147 
L 286.888359 288.465761 
L 289.263366 287.378398 
L 291.61508 286.241535 
L 293.94247 285.055671 
L 296.244514 283.821325 
L 298.520203 282.53904 
L 300.768539 281.209378 
L 302.988536 279.832922 
L 305.179219 278.410276 
L 307.339628 276.942063 
L 309.468816 275.428928 
L 311.565847 273.871535 
L 313.629804 272.270567 
L 315.659779 270.626725 
L 317.654883 268.940731 
L 319.614241 267.213325 
L 321.536993 265.445264 
L 323.422296 263.637323 
L 325.269323 261.790296 
L 327.077264 259.904993 
L 328.845325 257.982241 
L 330.572731 256.022883 
L 332.258725 254.027779 
L 333.902567 251.997804 
L 335.503535 249.933847 
L 337.060928 247.836816 
L 338.574063 245.707628 
L 340.042276 243.547219 
L 341.464922 241.356536 
L 342.841378 239.136539 
L 344.17104 236.888203 
L 345.453325 234.612514 
L 346.687671 232.31047 
L 347.873535 229.98308 
L 349.010398 227.631366 
L 350.097761 225.256359 
L 351.135147 222.859101 
L 352.122101 220.440644 
L 353.058191 218.002047 
L 353.943005 215.544382 
L 354.776155 213.068725 
L 355.557277 210.576163 
L 356.286027 208.067789 
L 356.962086 205.544704 
L 357.585157 203.008013 
L 358.154966 200.458831 
L 358.671265 197.898274 
L 359.133827 195.327466 
L 359.542448 192.747535 
L 359.896949 190.159612 
L 360.197175 187.564832 
L 360.442995 184.964335 
L 360.634299 182.359259 
L 360.771006 179.750749 
L 360.853053 177.139947 
L 360.880407 174.528 
L 360.853053 171.916053 
L 360.771006 169.305251 
L 360.634299 166.696741 
L 360.442995 164.091665 
L 360.197175 161.491168 
L 359.896949 158.896388 
L 359.542448 156.308465 
L 359.133827 153.728534 
L 358.671265 151.157726 
L 358.154966 148.597169 
L 357.585157 146.047987 
L 356.962086 143.511296 
L 356.286027 140.988211 
L 355.557277 138.479837 
L 354.776155 135.987275 
L 353.943005 133.511618 
L 353.058191 131.053953 
L 352.122101 128.615356 
L 351.135147 126.196899 
L 350.097761 123.799641 
L 349.010398 121.424634 
L 347.873535 119.07292 
L 346.687671 116.74553 
L 345.453325 114.443486 
L 344.17104 112.167797 
L 344.188357 112.157799 
L 344.205674 112.147801 
L 344.222991 112.137803 
L 344.240308 112.127805 
L 344.257625 112.117807 
L 344.274942 112.107809 
L 344.292259 112.097811 
L 344.309576 112.087813 
L 344.326893 112.077815 
L 344.34421 112.067817 
L 344.361527 112.057819 
L 344.378844 112.047821 
L 344.396161 112.037823 
L 344.413478 112.027825 
L 344.430795 112.017827 
L 344.448112 112.007829 
L 344.465429 111.997831 
L 344.482746 111.987833 
L 344.500063 111.977835 
L 344.51738 111.967837 
L 344.534697 111.957839 
L 344.552014 111.947841 
L 344.569331 111.937843 
L 344.586648 111.927846 
L 344.603965 111.917848 
L 344.621282 111.90785 
L 344.638599 111.897852 
L 344.655916 111.887854 
L 344.673233 111.877856 
L 344.69055 111.867858 
L 344.707867 111.85786 
L 344.725184 111.847862 
L 344.742501 111.837864 
L 344.759818 111.827866 
L 344.777135 111.817868 
L 344.794452 111.80787 
L 344.811769 111.797872 
L 344.829086 111.787874 
L 344.846403 111.777876 
L 344.86372 111.767878 
L 344.881037 111.75788 
L 344.898354 111.747882 
L 344.915671 111.737884 
L 344.932988 111.727886 
L 344.950305 111.717888 
L 344.967622 111.70789 
L 344.984939 111.697892 
L 345.002256 111.687894 
L 345.019573 111.677896 
L 345.03689 111.667898 
L 345.054207 111.6579 
L 345.071524 111.647902 
L 345.088841 111.637904 
L 345.106158 111.627906 
L 345.123475 111.617909 
L 345.140792 111.607911 
L 345.158109 111.597913 
L 345.175426 111.587915 
L 345.192743 111.577917 
L 345.21006 111.567919 
L 345.227377 111.557921 
L 345.244694 111.547923 
L 345.262011 111.537925 
L 345.279328 111.527927 
L 345.296645 111.517929 
L 345.313962 111.507931 
L 345.331279 111.497933 
L 345.348596 111.487935 
L 345.365913 111.477937 
L 345.38323 111.467939 
L 345.400547 111.457941 
L 345.417864 111.447943 
L 345.435181 111.437945 
L 345.452497 111.427947 
L 345.469814 111.417949 
L 345.487131 111.407951 
L 345.504448 111.397953 
L 345.521765 111.387955 
L 345.539082 111.377957 
L 345.556399 111.367959 
L 345.573716 111.357961 
L 345.591033 111.347963 
L 345.60835 111.337965 
L 345.625667 111.327967 
L 345.642984 111.31797 
L 345.660301 111.307972 
L 345.677618 111.297974 
L 345.694935 111.287976 
L 345.712252 111.277978 
L 345.729569 111.26798 
L 345.746886 111.257982 
L 345.764203 111.247984 
L 345.78152 111.237986 
L 345.798837 111.227988 
L 345.816154 111.21799 
L 345.833471 111.207992 
L 345.850788 111.197994 
L 345.868105 111.187996 
L 345.885422 111.177998 
L 345.902739 111.168 
L 347.205582 113.480174 
L 348.459718 115.819126 
L 349.664594 118.18383 
L 350.819684 120.573248 
L 351.92448 122.986333 
L 352.978499 125.422025 
L 353.981276 127.879257 
L 354.932374 130.35695 
L 355.831374 132.854019 
L 356.677882 135.369366 
L 357.471527 137.901891 
L 358.21196 140.45048 
L 358.898858 143.014017 
L 359.531919 145.591378 
L 360.110864 148.181431 
L 360.63544 150.78304 
L 361.105418 153.395064 
L 361.52059 156.016359 
L 361.880775 158.645773 
L 362.185815 161.282153 
L 362.435575 163.924344 
L 362.629947 166.571185 
L 362.768845 169.221517 
L 362.852208 171.874177 
L 362.88 174.528 
L 362.852208 177.181823 
L 362.768845 179.834483 
L 362.629947 182.484815 
L 362.435575 185.131656 
L 362.185815 187.773847 
L 361.880775 190.410227 
L 361.52059 193.039641 
L 361.105418 195.660936 
L 360.63544 198.27296 
L 360.110864 200.874569 
L 359.531919 203.464622 
L 358.898858 206.041983 
L 358.21196 208.60552 
L 357.471527 211.154109 
L 356.677882 213.686634 
L 355.831374 216.201981 
L 354.932374 218.69905 
L 353.981276 221.176743 
L 352.978499 223.633975 
L 351.92448 226.069667 
L 350.819684 228.482752 
L 349.664594 230.87217 
L 348.459718 233.236874 
L 347.205582 235.575826 
L 345.902739 237.888 
L 344.551759 240.172383 
L 343.153235 242.427971 
L 341.70778 244.653777 
L 340.216028 246.848823 
L 338.678634 249.012147 
L 337.096271 251.1428 
L 335.469635 253.239847 
L 333.799438 255.302368 
L 332.086413 257.329459 
L 330.331312 259.32023 
L 328.534904 261.273809 
L 326.697978 263.189339 
L 324.821339 265.065978 
L 322.905809 266.902904 
L 320.95223 268.699312 
L 318.961459 270.454413 
L 316.934368 272.167438 
L 314.871847 273.837635 
L 312.7748 275.464271 
L 310.644147 277.046634 
L 308.480823 278.584028 
L 306.285777 280.07578 
L 304.059971 281.521235 
L 301.804383 282.919759 
L 299.52 284.270739 
L 297.207826 285.573582 
L 294.868874 286.827718 
L 292.50417 288.032594 
L 290.114752 289.187684 
L 287.701667 290.29248 
L 285.265975 291.346499 
L 282.808743 292.349276 
L 280.33105 293.300374 
L 277.833981 294.199374 
L 275.318634 295.045882 
L 272.786109 295.839527 
L 270.23752 296.57996 
L 267.673983 297.266858 
L 265.096622 297.899919 
L 262.506569 298.478864 
L 259.90496 299.00344 
L 257.292936 299.473418 
L 254.671641 299.88859 
L 252.042227 300.248775 
L 249.405847 300.553815 
L 246.763656 300.803575 
L 244.116815 300.997947 
L 241.466483 301.136845 
L 238.813823 301.220208 
L 236.16 301.248 
L 236.16 301.228004 
L 236.16 301.208008 
L 236.16 301.188012 
L 236.16 301.168016 
L 236.16 301.14802 
L 236.16 301.128024 
L 236.16 301.108028 
L 236.16 301.088033 
L 236.16 301.068037 
L 236.16 301.048041 
L 236.16 301.028045 
L 236.16 301.008049 
L 236.16 300.988053 
L 236.16 300.968057 
L 236.16 300.948061 
L 236.16 300.928065 
L 236.16 300.908069 
L 236.16 300.888073 
L 236.16 300.868077 
L 236.16 300.848081 
L 236.16 300.828085 
L 236.16 300.808089 
L 236.16 300.788094 
L 236.16 300.768098 
L 236.16 300.748102 
L 236.16 300.728106 
L 236.16 300.70811 
L 236.16 300.688114 
L 236.16 300.668118 
L 236.16 300.648122 
L 236.16 300.628126 
L 236.16 300.60813 
L 236.16 300.588134 
L 236.16 300.568138 
L 236.16 300.548142 
L 236.16 300.528146 
L 236.16 300.50815 
L 236.16 300.488154 
L 236.16 300.468159 
L 236.16 300.448163 
L 236.16 300.428167 
L 236.16 300.408171 
L 236.16 300.388175 
L 236.16 300.368179 
L 236.16 300.348183 
L 236.16 300.328187 
L 236.16 300.308191 
L 236.16 300.288195 
L 236.16 300.268199 
L 236.16 300.248203 
L 236.16 300.228207 
L 236.16 300.208211 
L 236.16 300.188215 
L 236.16 300.16822 
L 236.16 300.148224 
L 236.16 300.128228 
L 236.16 300.108232 
L 236.16 300.088236 
L 236.16 300.06824 
L 236.16 300.048244 
L 236.16 300.028248 
L 236.16 300.008252 
L 236.16 299.988256 
L 236.16 299.96826 
L 236.16 299.948264 
L 236.16 299.928268 
L 236.16 299.908272 
L 236.16 299.888276 
L 236.16 299.868281 
L 236.16 299.848285 
L 236.16 299.828289 
L 236.16 299.808293 
L 236.16 299.788297 
L 236.16 299.768301 
L 236.16 299.748305 
L 236.16 299.728309 
L 236.16 299.708313 
L 236.16 299.688317 
L 236.16 299.668321 
L 236.16 299.648325 
L 236.16 299.628329 
L 236.16 299.608333 
L 236.16 299.588337 
L 236.16 299.568341 
L 236.16 299.548346 
L 236.16 299.52835 
L 236.16 299.508354 
L 236.16 299.488358 
L 236.16 299.468362 
L 236.16 299.448366 
L 236.16 299.42837 
L 236.16 299.408374 
L 236.16 299.388378 
L 236.16 299.368382 
L 236.16 299.348386 
L 236.16 299.32839 
L 236.16 299.308394 
L 236.16 299.288398 
L 236.16 299.268402 
z
" style="fill:#88c100;"/>
   </g>
  </g>
 </g>
 <defs>
  <clipPath id="p0b162148fd">
   <path d="M 369.216 174.528 
C 369.216 157.055246 365.774248 139.752393 359.087715 123.609673 
C 352.401182 107.466954 342.599903 92.798303 330.2448 80.4432 
C 317.889697 68.088097 303.221046 58.286818 287.078327 51.600285 
C 270.935607 44.913752 253.632754 41.472 236.16 41.472 
C 218.687246 41.472 201.384393 44.913752 185.241673 51.600285 
C 169.098954 58.286818 154.430303 68.088097 142.0752 80.4432 
C 129.720097 92.798303 119.918818 107.466954 113.232285 123.609673 
C 106.545752 139.752393 103.104 157.055246 103.104 174.528 
C 103.104 192.000754 106.545752 209.303607 113.232285 225.446327 
C 119.918818 241.589046 129.720097 256.257697 142.0752 268.6128 
C 154.430303 280.967903 169.098954 290.769182 185.241673 297.455715 
C 201.384393 304.142248 218.687246 307.584 236.16 307.584 
C 253.632754 307.584 270.935607 304.142248 287.078327 297.455715 
C 303.221046 290.769182 317.889697 280.967903 330.2448 268.6128 
C 342.599903 256.257697 352.401182 241.589046 359.087715 225.446327 
C 365.774248 209.303607 369.216 192.000754 369.216 174.528 
M 236.16 174.528 
C 236.16 174.528 236.16 174.528 236.16 174.528 
C 236.16 174.528 236.16 174.528 236.16 174.528 
C 236.16 174.528 236.16 174.528 236.16 174.528 
C 236.16 174.528 236.16 174.528 236.16 174.528 
C 236.16 174.528 236.16 174.528 236.16 174.528 
C 236.16 174.528 236.16 174.528 236.16 174.528 
C 236.16 174.528 236.16 174.528 236.16 174.528 
C 236.16 174.528 236.16 174.528 236.16 174.528 
C 236.16 174.528 236.16 174.528 236.16 174.528 
C 236.16 174.528 236.16 174.528 236.16 174.528 
C 236.16 174.528 236.16 174.528 236.16 174.528 
C 236.16 174.528 236.16 174.528 236.16 174.528 
C 236.16 174.528 236.16 174.528 236.16 174.528 
C 236.16 174.528 236.16 174.528 236.16 174.528 
C 236.16 174.528 236.16 174.528 236.16 174.528 
C 236.16 174.528 236.16 174.528 236.16 174.528 
M 369.216 174.528 
z
"/>
  </clipPath>
 </defs>
</svg>
